<?xml version="1.0" encoding="UTF-8" standalone="no"?>
<svg
   xmlns:dc="http://purl.org/dc/elements/1.1/"
   xmlns:cc="http://creativecommons.org/ns#"
   xmlns:rdf="http://www.w3.org/1999/02/22-rdf-syntax-ns#"
   xmlns:svg="http://www.w3.org/2000/svg"
   xmlns="http://www.w3.org/2000/svg"
   xmlns:sodipodi="http://sodipodi.sourceforge.net/DTD/sodipodi-0.dtd"
   xmlns:inkscape="http://www.inkscape.org/namespaces/inkscape"
   fill-opacity="1"
   color-rendering="auto"
   color-interpolation="auto"
   stroke="black"
   text-rendering="auto"
   stroke-linecap="square"
   width="598"
   stroke-miterlimit="10"
   stroke-opacity="1"
   shape-rendering="auto"
   fill="black"
   stroke-dasharray="none"
   font-weight="normal"
   stroke-width="1"
   height="421"
   font-family="'Dialog'"
   font-style="normal"
   stroke-linejoin="miter"
   font-size="12"
   stroke-dashoffset="0"
   image-rendering="auto"
   id="svg2"
   version="1.1"
   inkscape:version="0.48.3.1 r9886"
   sodipodi:docname="ingamemenu.svg">
  <metadata
     id="metadata144">
    <rdf:RDF>
      <cc:Work
         rdf:about="">
        <dc:format>image/svg+xml</dc:format>
        <dc:type
           rdf:resource="http://purl.org/dc/dcmitype/StillImage" />
      </cc:Work>
    </rdf:RDF>
  </metadata>
  <sodipodi:namedview
     pagecolor="#ffffff"
     bordercolor="#666666"
     borderopacity="1"
     objecttolerance="10"
     gridtolerance="10"
     guidetolerance="10"
     inkscape:pageopacity="0"
     inkscape:pageshadow="2"
     inkscape:window-width="1813"
     inkscape:window-height="970"
     id="namedview142"
     showgrid="false"
     showguides="true"
     inkscape:guide-bbox="true"
     inkscape:zoom="1.1211401"
     inkscape:cx="501.53176"
     inkscape:cy="190.89883"
     inkscape:window-x="0"
     inkscape:window-y="35"
     inkscape:window-maximized="0"
     inkscape:current-layer="svg2" />
  <!--Generated by ySVG 2.5-->
  <defs
     id="genericDefs" />
  <g
     id="g5">
    <defs
       id="defs1">
      <clipPath
         clipPathUnits="userSpaceOnUse"
         id="clipPath1">
        <path
           d="M0 0 L598 0 L598 421 L0 421 L0 0 Z"
           id="path9" />
      </clipPath>
      <clipPath
         clipPathUnits="userSpaceOnUse"
         id="clipPath2">
        <path
           d="M447 -5 L1045 -5 L1045 416 L447 416 L447 -5 Z"
           id="path12" />
      </clipPath>
    </defs>
    <g
       stroke-linecap="butt"
       transform="matrix(1,0,0,1,-447,5)"
       text-rendering="optimizeQuality"
       font-family="'L M Sans10'"
       shape-rendering="geometricPrecision"
       font-weight="bold"
       stroke-miterlimit="1.45"
       id="g14">
      <g
         clip-path="url(#clipPath2)"
         style="stroke:none"
         id="text16">
        <path
           d="m 791.02569,23.0035 0,-4.344 c 0,-0.383999 -0.084,-0.576 -0.576,-0.576 l -0.444,0 c -0.432,0 -0.576,0.132001 -0.576,0.576 l 0,4.344 c 0,0.432 0.132,0.576 0.576,0.576 l 0.444,0 c 0.456,0 0.576,-0.156 0.576,-0.576 m 0.084,-6.696 0,-0.228 c 0,-0.383999 -0.084,-0.576 -0.576,-0.576 l -0.612,0 c -0.456,0 -0.576,0.156001 -0.576,0.576 l 0,0.228 c 0,0.348 0.06,0.576 0.576,0.576 l 0.612,0 c 0.504,0 0.576,-0.216 0.576,-0.576"
           style="stroke:none"
           id="path3144" />
        <path
           d="m 797.76801,23.0035 0,-3.324 c 0,-1.235999 -0.52801,-1.728 -1.752,-1.728 -1.26,0 -1.8,0.912001 -1.956,1.236 l -0.012,0 0,-0.6 c 0,-0.383999 -0.084,-0.576 -0.576,-0.576 l -0.408,0 c -0.432,0 -0.576,0.132001 -0.576,0.576 l 0,4.416 c 0,0.432 0.132,0.576 0.576,0.576 l 0.48,0 c 0.45599,0 0.576,-0.156 0.576,-0.576 l 0,-2.652 c 0,-1.043999 0.696,-1.536 1.32,-1.536 0.57599,0 0.696,0.276001 0.696,0.888 l 0,3.3 c 0,0.384 0.084,0.576 0.576,0.576 l 0.48,0 c 0.45599,0 0.576,-0.156 0.576,-0.576"
           style="stroke:none"
           id="path3146" />
        <path
           d="m 809.30882,18.7195 c 0,-0.048 -0.06,-0.336 -0.084,-0.456 -0.048,-0.288 -0.048,-0.312 -0.264,-0.312 -0.372,0 -0.972,0.144 -1.428,0.42 -0.564,-0.371999 -1.188,-0.42 -1.704,-0.42 -0.504,0 -2.412,2e-6 -2.412,1.98 0,0.48 0.132,1.080001 0.588,1.476 -0.324,0.444 -0.324,0.912 -0.324,0.972 0,0.228 0.072,0.624001 0.324,0.948 -0.18,0.072 -0.804,0.288001 -0.804,1.056 0,0.372 0.18,0.996001 0.936,1.344 0.684,0.312 1.488,0.324 2.052,0.324 0.708,0 3,-2e-6 3,-1.704 0,-1.871998 -1.692,-1.872 -3.312,-1.872 l -0.576,0 c -0.432,0 -0.6,0 -0.768,-0.144 -0.048,-0.048 -0.252,-0.228 -0.252,-0.54 0,-0.084 0.012,-0.108 0.024,-0.18 0.564,0.312 1.272,0.312 1.524,0.312 0.504,0 2.412,-2e-6 2.412,-1.98 0,-0.695999 -0.264,-1.116 -0.372,-1.248 0.204,0 0.624,0 1.116,0.132 0.048,0.024 0.132,0.048 0.168,0.048 0.096,0 0.156,-0.072 0.156,-0.156 m -2.604,1.212 c 0,0.66 -0.036,1.128 -0.876,1.128 -0.84,0 -0.876,-0.456 -0.876,-1.116 0,-0.659999 0.036,-1.128 0.876,-1.128 0.84,0 0.876,0.456001 0.876,1.116 m 1.248,4.452 c 0,0.803999 -1.368,0.804 -1.752,0.804 -0.48,0 -1.764,-1e-6 -1.764,-0.84 0,-0.563999 0.372,-0.564 0.648,-0.564 l 1.392,0 c 0.972,0 1.476,0.168001 1.476,0.6"
           style="stroke:none"
           id="path3148" />
        <path
           d="m 815.19819,23.0035 0,-3.216 c 0,-1.895998 -1.824,-1.908 -2.424,-1.908 -0.564,0 -1.164,0.048 -1.968,0.384 -0.252,0.108 -0.312,0.144 -0.312,0.276 0,0.084 0.072,0.78 0.084,0.876 0.012,0.072 0.072,0.132 0.156,0.132 0.06,0 0.096,-0.036 0.132,-0.072 0.516,-0.539999 1.116,-0.804 1.86,-0.804 0.648,0 0.84,0.396001 0.84,1.104 l 0,0.42 c -0.42,0 -3.564,0.024 -3.564,1.788 0,0.839999 0.672,1.728 1.728,1.728 0.408,0 1.308,-0.120001 1.872,-0.948 l 0,0.24 c 0,0.384 0.084,0.576 0.576,0.576 l 0.444,0 c 0.456,0 0.576,-0.156 0.576,-0.576 m -1.632,-1.272 c 0,1.115999 -1.14,1.116 -1.176,1.116 -0.504,0 -0.828,-0.432 -0.828,-0.888 0,-1.175999 1.668,-1.26 2.004,-1.272 l 0,1.044"
           style="stroke:none"
           id="path3150" />
        <path
           d="m 825.48688,23.0035 0,-3.324 c 0,-1.235999 -0.528,-1.728 -1.752,-1.728 -0.852,0 -1.512,0.396001 -1.944,1.188 -0.192,-1.151999 -1.212,-1.188 -1.716,-1.188 -0.228,0 -0.732,1e-6 -1.272,0.396 -0.372,0.276 -0.612,0.66 -0.696,0.84 l -0.012,0 0,-0.6 c 0,-0.383999 -0.084,-0.576 -0.576,-0.576 l -0.408,0 c -0.432,0 -0.576,0.132001 -0.576,0.576 l 0,4.416 c 0,0.432 0.132,0.576 0.576,0.576 l 0.48,0 c 0.456,0 0.576,-0.156 0.576,-0.576 l 0,-2.652 c 0,-1.079999 0.732,-1.536 1.32,-1.536 0.576,0 0.708,0.252001 0.708,0.888 l 0,3.3 c 0,0.432 0.132,0.576 0.576,0.576 l 0.48,0 c 0.456,0 0.576,-0.156 0.576,-0.576 l 0,-2.652 c 0,-1.079999 0.732,-1.536 1.32,-1.536 0.576,0 0.708,0.252001 0.708,0.888 l 0,3.3 c 0,0.432 0.132,0.576 0.576,0.576 l 0.48,0 c 0.456,0 0.576,-0.156 0.576,-0.576"
           style="stroke:none"
           id="path3152" />
        <path
           d="m 831.96913,20.4595 c 0,-1.547998 -0.72,-2.58 -2.508,-2.58 -1.92,0 -2.868,1.080002 -2.868,2.904 0,1.967998 1.14,2.928 3.024,2.928 0.456,0 1.14,-0.06 1.932,-0.456 0.264,-0.132 0.348,-0.168 0.348,-0.312 0,-0.084 -0.036,-0.432 -0.048,-0.528 -0.048,-0.371999 -0.06,-0.384 -0.168,-0.384 -0.048,0 -0.072,0 -0.204,0.12 -0.708,0.612 -1.428,0.696 -1.812,0.696 -1.356,0 -1.5,-1.068001 -1.536,-1.836 l 3.264,0 c 0.276,0 0.576,-0.012 0.576,-0.552 m -1.332,-0.084 -2.496,0 c 0.036,-0.731999 0.276,-1.632 1.32,-1.632 0.96,0 1.14,0.696001 1.176,1.632"
           style="stroke:none"
           id="path3154" />
      </g>
    </g>
    <g
       text-rendering="optimizeQuality"
       stroke-miterlimit="1.45"
       shape-rendering="geometricPrecision"
       transform="matrix(1,0,0,1,-447,5)"
       stroke-linecap="butt"
       id="g18">
      <path
         style="fill:none"
         clip-path="url(#clipPath2)"
         d="M 754.92731,0 866.1123,0 c 2.216,0 4,1.784 4,4 l 0,29.115002 c 0,2.216 -1.784,4 -4,4 l -111.18499,0 c -2.216,0 -4,-1.784 -4,-4 L 750.92731,4 c 0,-2.216 1.784,-4 4,-4 z"
         id="rect20" />
    </g>
    <g
       transform="matrix(1,0,0,1,-447,5)"
       fill-opacity="0.2"
       fill="rgb(0,0,0)"
       text-rendering="optimizeQuality"
       shape-rendering="geometricPrecision"
       stroke="rgb(0,0,0)"
       stroke-opacity="0.2"
       id="g22">
      <path
         style="stroke:none"
         clip-path="url(#clipPath2)"
         d="m 754.92731,82.114998 111.18499,0 c 2.216,0 4,1.784 4,4 l 0,29.115002 c 0,2.216 -1.784,4 -4,4 l -111.18499,0 c -2.216,0 -4,-1.784 -4,-4 l 0,-29.115002 c 0,-2.216 1.784,-4 4,-4 z"
         id="rect24" />
    </g>
    <g
       stroke-linecap="butt"
       transform="matrix(1,0,0,1,-447,5)"
       text-rendering="optimizeQuality"
       font-family="'L M Sans10'"
       shape-rendering="geometricPrecision"
       font-weight="bold"
       stroke-miterlimit="1.45"
       id="g26">
      <g
         clip-path="url(#clipPath2)"
         style="stroke:none"
         id="text28">
        <path
           d="m 794.09172,104.0025 c 0,-0.672 -0.36,-1.092 -0.576,-1.284 -0.48,-0.432 -0.9,-0.504 -1.404,-0.6 -0.66,-0.12 -1.14,-0.216 -1.14,-0.684 0,-0.492 0.396,-0.588 0.864,-0.588 0.804,0 1.236,0.3 1.548,0.564 0.12,0.12 0.144,0.12 0.192,0.12 0.12,0 0.144,-0.108 0.156,-0.156 0.024,-0.096 0.144,-0.768 0.144,-0.828 0,-0.192 -0.636,-0.36 -0.768,-0.408 -0.48,-0.132 -0.864,-0.143996 -1.176,-0.143996 -0.54,0 -2.148,2e-6 -2.148,1.715996 0,0.588 0.264,0.948 0.588,1.236 0.42,0.384 0.888,0.468 1.572,0.6 0.348,0.06 0.96,0.168 0.96,0.696 0,0.564 -0.468,0.648 -0.936,0.648 -0.528,0 -1.2,-0.156 -1.764,-0.828 -0.06,-0.06 -0.096,-0.096 -0.168,-0.096 -0.12,0 -0.144,0.108 -0.156,0.18 -0.024,0.168 -0.168,0.852 -0.168,0.972 0,0.216 0.9,0.504 0.9,0.504 0.66,0.204 1.152,0.204 1.356,0.204 0.612,0 2.124,-0.048 2.124,-1.824"
           style="stroke:none"
           id="path3159" />
        <path
           d="m 800.15022,102.5745 c 0,-1.54799 -0.72,-2.579996 -2.508,-2.579996 -1.92,0 -2.868,1.080006 -2.868,2.903996 0,1.968 1.14,2.928 3.024,2.928 0.456,0 1.14,-0.06 1.932,-0.456 0.264,-0.132 0.348,-0.168 0.348,-0.312 0,-0.084 -0.036,-0.432 -0.048,-0.528 -0.048,-0.372 -0.06,-0.384 -0.168,-0.384 -0.048,0 -0.072,0 -0.204,0.12 -0.708,0.612 -1.428,0.696 -1.812,0.696 -1.356,0 -1.5,-1.068 -1.536,-1.836 l 3.264,0 c 0.276,0 0.576,-0.012 0.576,-0.552 m -1.332,-0.084 -2.496,0 c 0.036,-0.732 0.276,-1.632 1.32,-1.632 0.96,0 1.14,0.696 1.176,1.632"
           style="stroke:none"
           id="path3161" />
        <path
           d="m 805.01885,105.1305 c 0,-0.036 -0.024,-0.12 -0.096,-0.372 -0.06,-0.24 -0.084,-0.312 -0.192,-0.312 -0.06,0 -0.072,0.012 -0.144,0.084 -0.132,0.096 -0.456,0.36 -0.96,0.36 -0.288,0 -0.468,-0.204 -0.468,-0.996 l 0,-2.832 1.068,0 c 0.144,0 0.576,0 0.576,-0.432 0,-0.432 -0.432,-0.432 -0.576,-0.432 l -1.068,0 0,-0.995996 c 0,-0.384 -0.084,-0.576 -0.576,-0.576 l -0.372,0 c -0.432,0 -0.576,0.132 -0.576,0.576 l 0,0.995996 -0.276,0 c -0.132,0 -0.576,0 -0.576,0.432 0,0.432 0.432,0.432 0.576,0.432 l 0.24,0 0,3.036 c 0,1.212 0.432,1.728 1.26,1.728 0.108,0 0.636,0 1.26,-0.192 0.204,-0.06 0.9,-0.276 0.9,-0.504"
           style="stroke:none"
           id="path3163" />
        <path
           d="m 809.87041,105.1305 c 0,-0.036 -0.024,-0.12 -0.096,-0.372 -0.06,-0.24 -0.084,-0.312 -0.192,-0.312 -0.06,0 -0.072,0.012 -0.144,0.084 -0.132,0.096 -0.456,0.36 -0.96,0.36 -0.288,0 -0.468,-0.204 -0.468,-0.996 l 0,-2.832 1.068,0 c 0.144,0 0.576,0 0.576,-0.432 0,-0.432 -0.432,-0.432 -0.576,-0.432 l -1.068,0 0,-0.995996 c 0,-0.384 -0.084,-0.576 -0.576,-0.576 l -0.372,0 c -0.432,0 -0.576,0.132 -0.576,0.576 l 0,0.995996 -0.276,0 c -0.132,0 -0.576,0 -0.576,0.432 0,0.432 0.432,0.432 0.576,0.432 l 0.24,0 0,3.036 c 0,1.212 0.432,1.728 1.26,1.728 0.108,0 0.636,0 1.26,-0.192 0.204,-0.06 0.9,-0.276 0.9,-0.504"
           style="stroke:none"
           id="path3165" />
        <path
           d="m 812.57397,105.1185 0,-4.344 c 0,-0.384 -0.084,-0.576 -0.576,-0.576 l -0.444,0 c -0.432,0 -0.576,0.132 -0.576,0.576 l 0,4.344 c 0,0.432 0.132,0.576 0.576,0.576 l 0.444,0 c 0.456,0 0.576,-0.156 0.576,-0.576 m 0.084,-6.695996 0,-0.228 c 0,-0.384 -0.084,-0.576 -0.576,-0.576 l -0.612,0 c -0.456,0 -0.576,0.156 -0.576,0.576 l 0,0.228 c 0,0.347999 0.06,0.576 0.576,0.576 l 0.612,0 c 0.504,0 0.576,-0.216001 0.576,-0.576"
           style="stroke:none"
           id="path3167" />
        <path
           d="m 819.31628,105.1185 0,-3.324 c 0,-1.23599 -0.528,-1.728 -1.752,-1.728 -1.25999,0 -1.8,0.912 -1.956,1.236 l -0.012,0 0,-0.6 c 0,-0.384 -0.084,-0.576 -0.576,-0.576 l -0.408,0 c -0.432,0 -0.576,0.132 -0.576,0.576 l 0,4.416 c 0,0.432 0.132,0.576 0.576,0.576 l 0.48,0 c 0.456,0 0.576,-0.156 0.576,-0.576 l 0,-2.652 c 0,-1.044 0.696,-1.536 1.32,-1.536 0.576,0 0.696,0.276 0.696,0.888 l 0,3.3 c 0,0.384 0.084,0.576 0.576,0.576 l 0.48,0 c 0.456,0 0.576,-0.156 0.576,-0.576"
           style="stroke:none"
           id="path3169" />
        <path
           d="m 826.45085,100.8345 c 0,-0.048 -0.06,-0.336 -0.084,-0.456 -0.048,-0.288 -0.048,-0.312 -0.264,-0.312 -0.372,0 -0.972,0.144 -1.428,0.42 -0.564,-0.372 -1.188,-0.42 -1.704,-0.42 -0.504,0 -2.412,10e-6 -2.412,1.98 0,0.48 0.132,1.08 0.588,1.476 -0.324,0.444 -0.324,0.912 -0.324,0.972 0,0.228 0.072,0.624 0.324,0.948 -0.18,0.072 -0.804,0.288 -0.804,1.056 0,0.372 0.18,0.996 0.936,1.344 0.684,0.312 1.488,0.324 2.052,0.324 0.708,0 3,0 3,-1.704 0,-1.87199 -1.692,-1.872 -3.312,-1.872 l -0.576,0 c -0.432,0 -0.6,0 -0.768,-0.144 -0.048,-0.048 -0.252,-0.228 -0.252,-0.54 0,-0.084 0.012,-0.108 0.024,-0.18 0.564,0.312 1.272,0.312 1.524,0.312 0.504,0 2.412,0 2.412,-1.98 0,-0.696 -0.264,-1.116 -0.372,-1.248 0.204,0 0.624,0 1.116,0.132 0.048,0.024 0.132,0.048 0.168,0.048 0.096,0 0.156,-0.072 0.156,-0.156 m -2.604,1.212 c 0,0.66 -0.036,1.128 -0.876,1.128 -0.84,0 -0.876,-0.456 -0.876,-1.116 0,-0.66 0.036,-1.128 0.876,-1.128 0.84,0 0.876,0.456 0.876,1.116 m 1.248,4.452 c 0,0.804 -1.368,0.804 -1.752,0.804 -0.48,0 -1.764,0 -1.764,-0.84 0,-0.564 0.372,-0.564 0.648,-0.564 l 1.392,0 c 0.972,0 1.476,0.168 1.476,0.6"
           style="stroke:none"
           id="path3171" />
        <path
           d="m 831.40422,104.0025 c 0,-0.672 -0.36,-1.092 -0.576,-1.284 -0.48,-0.432 -0.9,-0.504 -1.404,-0.6 -0.66,-0.12 -1.14,-0.216 -1.14,-0.684 0,-0.492 0.396,-0.588 0.864,-0.588 0.804,0 1.236,0.3 1.548,0.564 0.12,0.12 0.144,0.12 0.192,0.12 0.12,0 0.144,-0.108 0.156,-0.156 0.024,-0.096 0.144,-0.768 0.144,-0.828 0,-0.192 -0.636,-0.36 -0.768,-0.408 -0.48,-0.132 -0.864,-0.143996 -1.176,-0.143996 -0.54,0 -2.148,2e-6 -2.148,1.715996 0,0.588 0.264,0.948 0.588,1.236 0.42,0.384 0.888,0.468 1.572,0.6 0.348,0.06 0.96,0.168 0.96,0.696 0,0.564 -0.468,0.648 -0.936,0.648 -0.528,0 -1.2,-0.156 -1.764,-0.828 -0.06,-0.06 -0.096,-0.096 -0.168,-0.096 -0.12,0 -0.144,0.108 -0.156,0.18 -0.024,0.168 -0.168,0.852 -0.168,0.972 0,0.216 0.9,0.504 0.9,0.504 0.66,0.204 1.152,0.204 1.356,0.204 0.612,0 2.124,-0.048 2.124,-1.824"
           style="stroke:none"
           id="path3173" />
      </g>
      <path
         style="fill:none"
         clip-path="url(#clipPath2)"
         d="m 754.92731,82.114998 111.18499,0 c 2.216,0 4,1.784 4,4 l 0,29.115002 c 0,2.216 -1.784,4 -4,4 l -111.18499,0 c -2.216,0 -4,-1.784 -4,-4 l 0,-29.115002 c 0,-2.216 1.784,-4 4,-4 z"
         id="rect30" />
    </g>
    <g
       transform="matrix(1,0,0,1,-447,5)"
       fill-opacity="0.2"
       fill="rgb(0,0,0)"
       text-rendering="optimizeQuality"
       shape-rendering="geometricPrecision"
       stroke="rgb(0,0,0)"
       stroke-opacity="0.2"
       id="g32">
      <path
         style="stroke:none"
         clip-path="url(#clipPath2)"
         d="m 605.74158,179.23 111.18499,0 c 2.216,0 4,1.784 4,4 l 0,29.115 c 0,2.216 -1.784,4 -4,4 l -111.18499,0 c -2.216,0 -4,-1.784 -4,-4 l 0,-29.115 c 0,-2.216 1.784,-4 4,-4 z"
         id="rect34" />
    </g>
    <g
       stroke-linecap="butt"
       transform="matrix(1,0,0,1,-447,5)"
       text-rendering="optimizeQuality"
       font-family="'L M Sans10'"
       shape-rendering="geometricPrecision"
       font-weight="bold"
       stroke-miterlimit="1.45"
       id="g36">
      <g
         clip-path="url(#clipPath2)"
         style="stroke:none"
         id="text38">
        <path
           d="m 645.19402,202.20949 c 0,-0.132 -0.048,-0.684 -0.072,-0.84 0,-0.036 -0.024,-0.156 -0.144,-0.156 -0.048,0 -0.072,0 -0.192,0.12 -0.204,0.18 -0.768,0.672 -1.752,0.672 -1.248,0 -1.248,-1.212 -1.248,-1.98 0,-0.972 0.06,-1.98 1.284,-1.98 0.78,0 1.104,0.192 1.536,0.552 0.144,0.132 0.168,0.132 0.216,0.132 0.12,0 0.144,-0.108 0.156,-0.156 0.024,-0.096 0.144,-0.768 0.144,-0.828 0,-0.108 -0.084,-0.156 -0.288,-0.252 -0.576,-0.264 -0.936,-0.384 -1.776,-0.384 -1.788,0 -2.904,0.84001 -2.904,2.94 0,1.992 1.032,2.892 2.844,2.892 0.324,0 1.044,-0.012 1.848,-0.42 0.336,-0.18 0.348,-0.192 0.348,-0.312"
           style="stroke:none"
           id="path3178" />
        <path
           d="m 651.7854,200.10949 c 0,-1.96799 -0.96,-3 -2.916,-3 -2.004,0 -2.928,1.06801 -2.928,3 0,1.956 1.032,2.832 2.916,2.832 1.884,0 2.928,-0.864 2.928,-2.832 m -1.632,-0.144 c 0,0.948 0,2.04 -1.284,2.04 -1.296,0 -1.296,-1.08 -1.296,-2.04 0,-0.924 0,-1.992 1.284,-1.992 1.296,0 1.296,1.056 1.296,1.992"
           style="stroke:none"
           id="path3180" />
        <path
           d="m 658.17877,202.23349 0,-3.324 c 0,-1.23599 -0.528,-1.728 -1.752,-1.728 -1.26,0 -1.8,0.912 -1.956,1.236 l -0.012,0 0,-0.6 c 0,-0.384 -0.084,-0.576 -0.576,-0.576 l -0.408,0 c -0.432,0 -0.576,0.132 -0.576,0.576 l 0,4.416 c 0,0.432 0.132,0.576 0.576,0.576 l 0.48,0 c 0.456,0 0.576,-0.156 0.576,-0.576 l 0,-2.652 c 0,-1.04399 0.696,-1.536 1.32,-1.536 0.576,0 0.696,0.276 0.696,0.888 l 0,3.3 c 0,0.384 0.084,0.576 0.576,0.576 l 0.48,0 c 0.456,0 0.576,-0.156 0.576,-0.576"
           style="stroke:none"
           id="path3182" />
        <path
           d="m 663.38133,202.24549 c 0,-0.036 -0.024,-0.12 -0.096,-0.372 -0.06,-0.24 -0.084,-0.312 -0.192,-0.312 -0.06,0 -0.072,0.012 -0.144,0.084 -0.132,0.096 -0.456,0.36 -0.96,0.36 -0.288,0 -0.468,-0.204 -0.468,-0.996 l 0,-2.832 1.068,0 c 0.144,0 0.576,0 0.576,-0.432 0,-0.432 -0.432,-0.432 -0.576,-0.432 l -1.068,0 0,-0.996 c 0,-0.384 -0.084,-0.576 -0.576,-0.576 l -0.372,0 c -0.432,0 -0.576,0.132 -0.576,0.576 l 0,0.996 -0.276,0 c -0.132,0 -0.576,0 -0.576,0.432 0,0.432 0.432,0.432 0.576,0.432 l 0.24,0 0,3.036 c 0,1.212 0.43201,1.728 1.26,1.728 0.108,0 0.63601,0 1.26,-0.192 0.204,-0.06 0.9,-0.276 0.9,-0.504"
           style="stroke:none"
           id="path3184" />
        <path
           d="m 668.0289,198.06949 0,-0.564 c 0,-0.24 0,-0.324 -0.216,-0.324 -0.336,0 -1.212,0.12001 -1.776,1.416 l -0.012,0 0,-0.78 c 0,-0.384 -0.084,-0.576 -0.576,-0.576 l -0.384,0 c -0.432,0 -0.576,0.132 -0.576,0.576 l 0,4.416 c 0,0.432 0.132,0.576 0.576,0.576 l 0.444,0 c 0.456,0 0.576,-0.156 0.576,-0.576 l 0,-2.184 c 0,-1.13999 0.948,-1.608 1.704,-1.656 0.216,-0.012 0.24,-0.012 0.24,-0.324"
           style="stroke:none"
           id="path3186" />
        <path
           d="m 674.42602,200.10949 c 0,-1.96799 -0.96,-3 -2.916,-3 -2.004,0 -2.928,1.06801 -2.928,3 0,1.956 1.032,2.832 2.916,2.832 1.884,0 2.928,-0.864 2.928,-2.832 m -1.632,-0.144 c 0,0.948 0,2.04 -1.284,2.04 -1.296,0 -1.296,-1.08 -1.296,-2.04 0,-0.924 0,-1.992 1.284,-1.992 1.296,0 1.296,1.056 1.296,1.992"
           style="stroke:none"
           id="path3188" />
        <path
           d="m 677.1474,202.23349 0,-7.176 c 0,-0.384 -0.084,-0.576 -0.576,-0.576 l -0.444,0 c -0.432,0 -0.576,0.132 -0.576,0.576 l 0,7.176 c 0,0.432 0.132,0.576 0.576,0.576 l 0.444,0 c 0.456,0 0.576,-0.156 0.576,-0.576"
           style="stroke:none"
           id="path3190" />
        <path
           d="m 682.64171,201.11749 c 0,-0.672 -0.36,-1.092 -0.576,-1.284 -0.48,-0.432 -0.9,-0.504 -1.404,-0.6 -0.66,-0.12 -1.14,-0.216 -1.14,-0.684 0,-0.492 0.396,-0.588 0.864,-0.588 0.804,0 1.236,0.3 1.548,0.564 0.12,0.12 0.144,0.12 0.192,0.12 0.12,0 0.144,-0.108 0.156,-0.156 0.024,-0.096 0.144,-0.768 0.144,-0.828 0,-0.192 -0.636,-0.36 -0.768,-0.408 -0.48,-0.132 -0.864,-0.144 -1.176,-0.144 -0.54,0 -2.148,1e-5 -2.148,1.716 0,0.588 0.264,0.948 0.588,1.236 0.42,0.384 0.888,0.468 1.572,0.6 0.348,0.06 0.96,0.168 0.96,0.696 0,0.564 -0.468,0.648 -0.936,0.648 -0.528,0 -1.2,-0.156 -1.764,-0.828 -0.06,-0.06 -0.096,-0.096 -0.168,-0.096 -0.12,0 -0.144,0.108 -0.156,0.18 -0.024,0.168 -0.168,0.852 -0.168,0.972 0,0.216 0.9,0.504 0.9,0.504 0.66,0.204 1.152,0.204 1.356,0.204 0.612,0 2.124,-0.048 2.124,-1.824"
           style="stroke:none"
           id="path3192" />
      </g>
      <path
         style="fill:none"
         clip-path="url(#clipPath2)"
         d="m 605.74158,179.23 111.18499,0 c 2.216,0 4,1.784 4,4 l 0,29.115 c 0,2.216 -1.784,4 -4,4 l -111.18499,0 c -2.216,0 -4,-1.784 -4,-4 l 0,-29.115 c 0,-2.216 1.784,-4 4,-4 z"
         id="rect40" />
    </g>
    <g
       transform="matrix(1,0,0,1,-447,5)"
       fill-opacity="0.2"
       fill="rgb(0,0,0)"
       text-rendering="optimizeQuality"
       shape-rendering="geometricPrecision"
       stroke="rgb(0,0,0)"
       stroke-opacity="0.2"
       id="g42">
      <path
         style="stroke:none"
         clip-path="url(#clipPath2)"
         d="m 754.92731,179.23 111.18499,0 c 2.216,0 4,1.784 4,4 l 0,29.115 c 0,2.216 -1.784,4 -4,4 l -111.18499,0 c -2.216,0 -4,-1.784 -4,-4 l 0,-29.115 c 0,-2.216 1.784,-4 4,-4 z"
         id="rect44" />
    </g>
    <g
       stroke-linecap="butt"
       transform="matrix(1,0,0,1,-447,5)"
       text-rendering="optimizeQuality"
       font-family="'L M Sans10'"
       shape-rendering="geometricPrecision"
       font-weight="bold"
       stroke-miterlimit="1.45"
       id="g46">
      <g
         clip-path="url(#clipPath2)"
         style="stroke:none"
         id="text48">
        <path
           d="m 801.48982,202.23349 0,-3.216 c 0,-1.89599 -1.824,-1.908 -2.424,-1.908 -0.564,0 -1.164,0.048 -1.968,0.384 -0.252,0.108 -0.312,0.144 -0.312,0.276 0,0.084 0.072,0.78 0.084,0.876 0.012,0.072 0.072,0.132 0.156,0.132 0.06,0 0.096,-0.036 0.132,-0.072 0.516,-0.54 1.116,-0.804 1.86,-0.804 0.648,0 0.84,0.396 0.84,1.104 l 0,0.42 c -0.42,0 -3.564,0.024 -3.564,1.788 0,0.84 0.672,1.728 1.728,1.728 0.408,0 1.308,-0.12 1.872,-0.948 l 0,0.24 c 0,0.384 0.084,0.576 0.576,0.576 l 0.444,0 c 0.456,0 0.576,-0.156 0.576,-0.576 m -1.632,-1.272 c 0,1.116 -1.14,1.116 -1.176,1.116 -0.504,0 -0.828,-0.432 -0.828,-0.888 0,-1.17599 1.668,-1.26 2.004,-1.272 l 0,1.044"
           style="stroke:none"
           id="path3197" />
        <path
           d="m 808.10651,202.23349 0,-4.344 c 0,-0.384 -0.084,-0.576 -0.576,-0.576 l -0.48,0 c -0.456,0 -0.576,0.156 -0.576,0.576 l 0,2.844 c 0,0.792 -0.42,1.476 -1.272,1.476 -0.672,0 -0.744,-0.168 -0.744,-0.804 l 0,-3.516 c 0,-0.384 -0.084,-0.576 -0.576,-0.576 l -0.48,0 c -0.432,0 -0.576,0.132 -0.576,0.576 l 0,3.408 c 0,1.284 0.696,1.644 1.944,1.644 0.324,0 1.176,0 1.74,-1.02 l 0,0.312 c 0,0.384 0.084,0.576 0.576,0.576 l 0.444,0 c 0.456,0 0.576,-0.156 0.576,-0.576"
           style="stroke:none"
           id="path3199" />
        <path
           d="m 814.82107,202.23349 0,-7.176 c 0,-0.384 -0.084,-0.576 -0.576,-0.576 l -0.444,0 c -0.456,0 -0.576,0.156 -0.576,0.576 l 0,2.724 c -0.54,-0.516 -1.14,-0.6 -1.512,-0.6 -2.436,0 -2.436,2.304 -2.436,2.892 0,0.552 0,2.868 2.376,2.868 0.504,0 1.02,-0.144 1.536,-0.696 0,0.444 0.168,0.564 0.576,0.564 l 0.48,0 c 0.456,0 0.576,-0.156 0.576,-0.576 m -1.632,-0.924 c 0,0.204 0,0.312 -0.348,0.552 -0.3,0.192 -0.576,0.216 -0.72,0.216 -1.212,0 -1.212,-1.104 -1.212,-2.004 0,-0.9 0,-2.028 1.344,-2.028 0.348,0 0.672,0.12 0.936,0.372 l 0,2.892"
           style="stroke:none"
           id="path3201" />
        <path
           d="m 817.88763,202.23349 0,-4.344 c 0,-0.384 -0.084,-0.576 -0.576,-0.576 l -0.444,0 c -0.432,0 -0.576,0.132 -0.576,0.576 l 0,4.344 c 0,0.432 0.132,0.576 0.576,0.576 l 0.444,0 c 0.456,0 0.576,-0.156 0.576,-0.576 m 0.084,-6.696 0,-0.228 c 0,-0.384 -0.084,-0.576 -0.576,-0.576 l -0.612,0 c -0.456,0 -0.576,0.156 -0.576,0.576 l 0,0.228 c 0,0.348 0.06,0.576 0.576,0.576 l 0.612,0 c 0.504,0 0.576,-0.216 0.576,-0.576"
           style="stroke:none"
           id="path3203" />
        <path
           d="m 824.84594,200.10949 c 0,-1.96799 -0.96,-3 -2.916,-3 -2.00399,0 -2.928,1.06801 -2.928,3 0,1.956 1.03201,2.832 2.916,2.832 1.884,0 2.928,-0.864 2.928,-2.832 m -1.632,-0.144 c 0,0.948 0,2.04 -1.284,2.04 -1.29599,0 -1.296,-1.08 -1.296,-2.04 0,-0.924 10e-6,-1.992 1.284,-1.992 1.296,0 1.296,1.056 1.296,1.992"
           style="stroke:none"
           id="path3205" />
      </g>
      <path
         style="fill:none"
         clip-path="url(#clipPath2)"
         d="m 754.92731,179.23 111.18499,0 c 2.216,0 4,1.784 4,4 l 0,29.115 c 0,2.216 -1.784,4 -4,4 l -111.18499,0 c -2.216,0 -4,-1.784 -4,-4 l 0,-29.115 c 0,-2.216 1.784,-4 4,-4 z"
         id="rect50" />
    </g>
    <g
       transform="matrix(1,0,0,1,-447,5)"
       fill-opacity="0.2"
       fill="rgb(0,0,0)"
       text-rendering="optimizeQuality"
       shape-rendering="geometricPrecision"
       stroke="rgb(0,0,0)"
       stroke-opacity="0.2"
       id="g52">
      <path
         style="stroke:none"
         clip-path="url(#clipPath2)"
         d="m 456.5563,179.23 111.185,0 c 2.216,0 4,1.784 4,4 l 0,29.115 c 0,2.216 -1.784,4 -4,4 l -111.185,0 c -2.216,0 -4,-1.784 -4,-4 l 0,-29.115 c 0,-2.216 1.784,-4 4,-4 z"
         id="rect54" />
    </g>
    <g
       stroke-linecap="butt"
       transform="matrix(1,0,0,1,-447,5)"
       text-rendering="optimizeQuality"
       font-family="'L M Sans10'"
       shape-rendering="geometricPrecision"
       font-weight="bold"
       stroke-miterlimit="1.45"
       id="g56">
      <g
         clip-path="url(#clipPath2)"
         style="stroke:none"
         id="text58">
        <path
           d="m 503.55671,197.64949 c 0,-0.336 -0.3,-0.336 -0.48,-0.336 l -0.252,0 c -0.504,0 -0.636,0.18 -0.744,0.516 l -1.188,3.624 -1.188,-3.624 c -0.084,-0.252 -0.168,-0.516 -0.744,-0.516 l -0.288,0 c -0.18,0 -0.48,0 -0.48,0.336 0,0.036 0,0.06 0.06,0.228 l 1.428,4.428 c 0.168,0.504 0.54,0.504 0.756,0.504 l 0.876,0 c 0.216,0 0.588,0 0.756,-0.504 l 1.428,-4.428 c 0.06,-0.168 0.06,-0.192 0.06,-0.228"
           style="stroke:none"
           id="path3210" />
        <path
           d="m 506.20871,202.23349 0,-4.344 c 0,-0.384 -0.084,-0.576 -0.576,-0.576 l -0.444,0 c -0.432,0 -0.576,0.132 -0.576,0.576 l 0,4.344 c 0,0.432 0.132,0.576 0.576,0.576 l 0.444,0 c 0.456,0 0.576,-0.156 0.576,-0.576 m 0.084,-6.696 0,-0.228 c 0,-0.384 -0.084,-0.576 -0.576,-0.576 l -0.612,0 c -0.456,0 -0.576,0.156 -0.576,0.576 l 0,0.228 c 0,0.348 0.06,0.576 0.576,0.576 l 0.612,0 c 0.504,0 0.576,-0.216 0.576,-0.576"
           style="stroke:none"
           id="path3212" />
        <path
           d="m 512.93902,202.23349 0,-7.176 c 0,-0.384 -0.084,-0.576 -0.576,-0.576 l -0.444,0 c -0.456,0 -0.576,0.156 -0.576,0.576 l 0,2.724 c -0.54,-0.516 -1.14,-0.6 -1.512,-0.6 -2.436,0 -2.436,2.304 -2.436,2.892 0,0.552 0,2.868 2.376,2.868 0.504,0 1.02,-0.144 1.536,-0.696 0,0.444 0.168,0.564 0.576,0.564 l 0.48,0 c 0.456,0 0.576,-0.156 0.576,-0.576 m -1.632,-0.924 c 0,0.204 0,0.312 -0.348,0.552 -0.3,0.192 -0.576,0.216 -0.72,0.216 -1.212,0 -1.212,-1.104 -1.212,-2.004 0,-0.9 0,-2.028 1.344,-2.028 0.348,0 0.672,0.12 0.936,0.372 l 0,2.892"
           style="stroke:none"
           id="path3214" />
        <path
           d="m 519.42558,199.68949 c 0,-1.54799 -0.72,-2.58 -2.508,-2.58 -1.92,0 -2.868,1.08001 -2.868,2.904 0,1.968 1.14,2.928 3.024,2.928 0.456,0 1.14,-0.06 1.932,-0.456 0.264,-0.132 0.348,-0.168 0.348,-0.312 0,-0.084 -0.036,-0.432 -0.048,-0.528 -0.048,-0.372 -0.06,-0.384 -0.168,-0.384 -0.048,0 -0.072,0 -0.204,0.12 -0.708,0.612 -1.428,0.696 -1.812,0.696 -1.356,0 -1.5,-1.068 -1.536,-1.836 l 3.264,0 c 0.276,0 0.576,-0.012 0.576,-0.552 m -1.332,-0.084 -2.496,0 c 0.036,-0.732 0.276,-1.632 1.32,-1.632 0.96,0 1.14,0.696 1.176,1.632"
           style="stroke:none"
           id="path3216" />
        <path
           d="m 526.03421,200.10949 c 0,-1.96799 -0.96001,-3 -2.916,-3 -2.004,0 -2.928,1.06801 -2.928,3 0,1.956 1.032,2.832 2.916,2.832 1.88399,0 2.928,-0.864 2.928,-2.832 m -1.632,-0.144 c 0,0.948 0,2.04 -1.284,2.04 -1.296,0 -1.296,-1.08 -1.296,-2.04 0,-0.924 0,-1.992 1.284,-1.992 1.296,0 1.296,1.056 1.296,1.992"
           style="stroke:none"
           id="path3218" />
      </g>
      <path
         style="fill:none"
         clip-path="url(#clipPath2)"
         d="m 456.5563,179.23 111.185,0 c 2.216,0 4,1.784 4,4 l 0,29.115 c 0,2.216 -1.784,4 -4,4 l -111.185,0 c -2.216,0 -4,-1.784 -4,-4 l 0,-29.115 c 0,-2.216 1.784,-4 4,-4 z"
         id="rect60" />
    </g>
    <g
       transform="matrix(1,0,0,1,-447,5)"
       fill-opacity="0.2"
       fill="rgb(0,0,0)"
       text-rendering="optimizeQuality"
       shape-rendering="geometricPrecision"
       stroke="rgb(0,0,0)"
       stroke-opacity="0.2"
       id="g62">
      <path
         style="stroke:none"
         clip-path="url(#clipPath2)"
         d="m 904.1131,179.23 111.185,0 c 2.216,0 4,1.784 4,4 l 0,29.115 c 0,2.216 -1.784,4 -4,4 l -111.185,0 c -2.216,0 -4,-1.784 -4,-4 l 0,-29.115 c 0,-2.216 1.784,-4 4,-4 z"
         id="rect64" />
    </g>
    <g
       stroke-linecap="butt"
       transform="matrix(1,0,0,1,-447,5)"
       text-rendering="optimizeQuality"
       font-family="'L M Sans10'"
       shape-rendering="geometricPrecision"
       font-weight="bold"
       stroke-miterlimit="1.45"
       id="g66">
      <g
         clip-path="url(#clipPath2)"
         style="stroke:none"
         id="text68">
        <path
           d="m 927.39532,202.20949 c 0,-0.132 -0.048,-0.684 -0.072,-0.84 0,-0.036 -0.024,-0.156 -0.144,-0.156 -0.048,0 -0.072,0 -0.192,0.12 -0.204,0.18 -0.76801,0.672 -1.752,0.672 -1.248,0 -1.248,-1.212 -1.248,-1.98 0,-0.972 0.06,-1.98 1.284,-1.98 0.78,0 1.104,0.192 1.536,0.552 0.144,0.132 0.168,0.132 0.216,0.132 0.12,0 0.144,-0.108 0.156,-0.156 0.024,-0.096 0.144,-0.768 0.144,-0.828 0,-0.108 -0.084,-0.156 -0.288,-0.252 -0.576,-0.264 -0.936,-0.384 -1.776,-0.384 -1.788,0 -2.904,0.84001 -2.904,2.94 0,1.992 1.032,2.892 2.844,2.892 0.324,0 1.044,-0.012 1.848,-0.42 0.336,-0.18 0.348,-0.192 0.348,-0.312"
           style="stroke:none"
           id="path3223" />
        <path
           d="m 933.77069,202.23349 0,-4.344 c 0,-0.384 -0.084,-0.576 -0.576,-0.576 l -0.48,0 c -0.456,0 -0.576,0.156 -0.576,0.576 l 0,2.844 c 0,0.792 -0.42,1.476 -1.272,1.476 -0.672,0 -0.744,-0.168 -0.744,-0.804 l 0,-3.516 c 0,-0.384 -0.084,-0.576 -0.576,-0.576 l -0.48,0 c -0.432,0 -0.576,0.132 -0.576,0.576 l 0,3.408 c 0,1.284 0.696,1.644 1.944,1.644 0.324,0 1.176,0 1.74,-1.02 l 0,0.312 c 0,0.384 0.084,0.576 0.576,0.576 l 0.444,0 c 0.456,0 0.576,-0.156 0.576,-0.576"
           style="stroke:none"
           id="path3225" />
        <path
           d="m 939.24925,201.11749 c 0,-0.672 -0.36,-1.092 -0.576,-1.284 -0.48,-0.432 -0.9,-0.504 -1.404,-0.6 -0.66,-0.12 -1.14,-0.216 -1.14,-0.684 0,-0.492 0.396,-0.588 0.864,-0.588 0.804,0 1.236,0.3 1.548,0.564 0.12,0.12 0.144,0.12 0.192,0.12 0.12,0 0.144,-0.108 0.156,-0.156 0.024,-0.096 0.144,-0.768 0.144,-0.828 0,-0.192 -0.636,-0.36 -0.768,-0.408 -0.48,-0.132 -0.864,-0.144 -1.176,-0.144 -0.54,0 -2.148,1e-5 -2.148,1.716 0,0.588 0.264,0.948 0.588,1.236 0.42,0.384 0.888,0.468 1.572,0.6 0.348,0.06 0.96,0.168 0.96,0.696 0,0.564 -0.468,0.648 -0.936,0.648 -0.528,0 -1.2,-0.156 -1.764,-0.828 -0.06,-0.06 -0.096,-0.096 -0.168,-0.096 -0.12,0 -0.144,0.108 -0.156,0.18 -0.024,0.168 -0.168,0.852 -0.168,0.972 0,0.216 0.9,0.504 0.9,0.504 0.66,0.204 1.152,0.204 1.356,0.204 0.612,0 2.124,-0.048 2.124,-1.824"
           style="stroke:none"
           id="path3227" />
        <path
           d="m 944.03575,202.24549 c 0,-0.036 -0.024,-0.12 -0.096,-0.372 -0.06,-0.24 -0.084,-0.312 -0.192,-0.312 -0.06,0 -0.072,0.012 -0.144,0.084 -0.132,0.096 -0.456,0.36 -0.96,0.36 -0.288,0 -0.468,-0.204 -0.468,-0.996 l 0,-2.832 1.068,0 c 0.144,0 0.576,0 0.576,-0.432 0,-0.432 -0.432,-0.432 -0.576,-0.432 l -1.068,0 0,-0.996 c 0,-0.384 -0.084,-0.576 -0.576,-0.576 l -0.372,0 c -0.432,0 -0.576,0.132 -0.576,0.576 l 0,0.996 -0.276,0 c -0.132,0 -0.576,0 -0.576,0.432 0,0.432 0.432,0.432 0.576,0.432 l 0.24,0 0,3.036 c 0,1.212 0.432,1.728 1.26,1.728 0.108,0 0.636,0 1.26,-0.192 0.204,-0.06 0.9,-0.276 0.9,-0.504"
           style="stroke:none"
           id="path3229" />
        <path
           d="m 950.62732,200.10949 c 0,-1.96799 -0.96001,-3 -2.916,-3 -2.004,0 -2.928,1.06801 -2.928,3 0,1.956 1.032,2.832 2.916,2.832 1.88399,0 2.928,-0.864 2.928,-2.832 m -1.632,-0.144 c 0,0.948 -10e-6,2.04 -1.284,2.04 -1.296,0 -1.296,-1.08 -1.296,-2.04 0,-0.924 0,-1.992 1.284,-1.992 1.29599,0 1.296,1.056 1.296,1.992"
           style="stroke:none"
           id="path3231" />
        <path
           d="m 960.69269,202.23349 0,-3.324 c 0,-1.23599 -0.528,-1.728 -1.752,-1.728 -0.852,0 -1.512,0.396 -1.944,1.188 -0.192,-1.15199 -1.212,-1.188 -1.716,-1.188 -0.228,0 -0.732,0 -1.272,0.396 -0.372,0.276 -0.612,0.66 -0.696,0.84 l -0.012,0 0,-0.6 c 0,-0.384 -0.084,-0.576 -0.576,-0.576 l -0.408,0 c -0.432,0 -0.576,0.132 -0.576,0.576 l 0,4.416 c 0,0.432 0.132,0.576 0.576,0.576 l 0.48,0 c 0.456,0 0.576,-0.156 0.576,-0.576 l 0,-2.652 c 0,-1.07999 0.732,-1.536 1.32,-1.536 0.576,0 0.708,0.252 0.708,0.888 l 0,3.3 c 0,0.432 0.132,0.576 0.576,0.576 l 0.48,0 c 0.456,0 0.576,-0.156 0.576,-0.576 l 0,-2.652 c 0,-1.07999 0.732,-1.536 1.32,-1.536 0.576,0 0.708,0.252 0.708,0.888 l 0,3.3 c 0,0.432 0.132,0.576 0.576,0.576 l 0.48,0 c 0.456,0 0.576,-0.156 0.576,-0.576"
           style="stroke:none"
           id="path3233" />
        <path
           d="m 971.31719,202.20949 c 0,-0.132 -0.048,-0.684 -0.072,-0.84 0,-0.036 -0.024,-0.156 -0.144,-0.156 -0.048,0 -0.072,0 -0.192,0.12 -0.204,0.18 -0.768,0.672 -1.752,0.672 -1.248,0 -1.248,-1.212 -1.248,-1.98 0,-0.972 0.06,-1.98 1.284,-1.98 0.78,0 1.104,0.192 1.536,0.552 0.144,0.132 0.168,0.132 0.216,0.132 0.12,0 0.144,-0.108 0.156,-0.156 0.024,-0.096 0.144,-0.768 0.144,-0.828 0,-0.108 -0.084,-0.156 -0.288,-0.252 -0.576,-0.264 -0.936,-0.384 -1.776,-0.384 -1.788,0 -2.904,0.84001 -2.904,2.94 0,1.992 1.032,2.892 2.844,2.892 0.324,0 1.044,-0.012 1.848,-0.42 0.336,-0.18 0.348,-0.192 0.348,-0.312"
           style="stroke:none"
           id="path3235" />
        <path
           d="m 977.90857,200.10949 c 0,-1.96799 -0.96001,-3 -2.916,-3 -2.004,0 -2.928,1.06801 -2.928,3 0,1.956 1.032,2.832 2.916,2.832 1.88399,0 2.928,-0.864 2.928,-2.832 m -1.632,-0.144 c 0,0.948 -10e-6,2.04 -1.284,2.04 -1.296,0 -1.296,-1.08 -1.296,-2.04 0,-0.924 0,-1.992 1.284,-1.992 1.29599,0 1.296,1.056 1.296,1.992"
           style="stroke:none"
           id="path3237" />
        <path
           d="m 980.62994,202.23349 0,-7.176 c 0,-0.384 -0.084,-0.576 -0.576,-0.576 l -0.444,0 c -0.432,0 -0.576,0.132 -0.576,0.576 l 0,7.176 c 0,0.432 0.132,0.576 0.576,0.576 l 0.444,0 c 0.456,0 0.576,-0.156 0.576,-0.576"
           style="stroke:none"
           id="path3239" />
        <path
           d="m 987.58825,200.10949 c 0,-1.96799 -0.96,-3 -2.916,-3 -2.00399,0 -2.928,1.06801 -2.928,3 0,1.956 1.03201,2.832 2.916,2.832 1.884,0 2.928,-0.864 2.928,-2.832 m -1.632,-0.144 c 0,0.948 0,2.04 -1.284,2.04 -1.296,0 -1.296,-1.08 -1.296,-2.04 0,-0.924 0,-1.992 1.284,-1.992 1.296,0 1.296,1.056 1.296,1.992"
           style="stroke:none"
           id="path3241" />
        <path
           d="m 992.25363,198.06949 0,-0.564 c 0,-0.24 0,-0.324 -0.216,-0.324 -0.336,0 -1.212,0.12001 -1.776,1.416 l -0.012,0 0,-0.78 c 0,-0.384 -0.084,-0.576 -0.576,-0.576 l -0.384,0 c -0.432,0 -0.576,0.132 -0.576,0.576 l 0,4.416 c 0,0.432 0.132,0.576 0.576,0.576 l 0.444,0 c 0.456,0 0.576,-0.156 0.576,-0.576 l 0,-2.184 c 0,-1.13999 0.948,-1.608 1.704,-1.656 0.216,-0.012 0.24,-0.012 0.24,-0.324"
           style="stroke:none"
           id="path3243" />
        <path
           d="m 997.18675,201.11749 c 0,-0.672 -0.36,-1.092 -0.576,-1.284 -0.48,-0.432 -0.9,-0.504 -1.404,-0.6 -0.66,-0.12 -1.14,-0.216 -1.14,-0.684 0,-0.492 0.396,-0.588 0.864,-0.588 0.804,0 1.236,0.3 1.548,0.564 0.12,0.12 0.144,0.12 0.192,0.12 0.12,0 0.144,-0.108 0.156,-0.156 0.024,-0.096 0.144,-0.768 0.144,-0.828 0,-0.192 -0.636,-0.36 -0.768,-0.408 -0.48,-0.132 -0.864,-0.144 -1.176,-0.144 -0.54,0 -2.148,1e-5 -2.148,1.716 0,0.588 0.264,0.948 0.588,1.236 0.42,0.384 0.888,0.468 1.572,0.6 0.348,0.06 0.96,0.168 0.96,0.696 0,0.564 -0.468,0.648 -0.936,0.648 -0.528,0 -1.2,-0.156 -1.764,-0.828 -0.06,-0.06 -0.096,-0.096 -0.168,-0.096 -0.12,0 -0.144,0.108 -0.156,0.18 -0.024,0.168 -0.168,0.852 -0.168,0.972 0,0.216 0.9,0.504 0.9,0.504 0.66,0.204 1.152,0.204 1.356,0.204 0.612,0 2.124,-0.048 2.124,-1.824"
           style="stroke:none"
           id="path3245" />
      </g>
      <path
         style="fill:none"
         clip-path="url(#clipPath2)"
         d="m 904.1131,179.23 111.185,0 c 2.216,0 4,1.784 4,4 l 0,29.115 c 0,2.216 -1.784,4 -4,4 l -111.185,0 c -2.216,0 -4,-1.784 -4,-4 l 0,-29.115 c 0,-2.216 1.784,-4 4,-4 z"
         id="rect70" />
      <g
         clip-path="url(#clipPath2)"
         style="stroke:none"
         id="text72">
        <path
           d="m 648.83598,104.0025 c 0,-0.672 -0.36,-1.092 -0.576,-1.284 -0.48,-0.432 -0.9,-0.504 -1.404,-0.6 -0.65999,-0.12 -1.14,-0.216 -1.14,-0.684 0,-0.492 0.396,-0.588 0.864,-0.588 0.804,0 1.236,0.3 1.548,0.564 0.12,0.12 0.144,0.12 0.192,0.12 0.12,0 0.144,-0.108 0.156,-0.156 0.024,-0.096 0.144,-0.768 0.144,-0.828 0,-0.192 -0.636,-0.36 -0.768,-0.408 -0.48,-0.132 -0.864,-0.143996 -1.176,-0.143996 -0.54,0 -2.148,2e-6 -2.148,1.715996 0,0.588 0.264,0.948 0.588,1.236 0.42,0.384 0.88801,0.468 1.572,0.6 0.348,0.06 0.96,0.168 0.96,0.696 0,0.564 -0.468,0.648 -0.936,0.648 -0.528,0 -1.2,-0.156 -1.764,-0.828 -0.06,-0.06 -0.096,-0.096 -0.168,-0.096 -0.12,0 -0.144,0.108 -0.156,0.18 -0.024,0.168 -0.168,0.852 -0.168,0.972 0,0.216 0.9,0.504 0.9,0.504 0.66,0.204 1.152,0.204 1.356,0.204 0.612,0 2.124,-0.048 2.124,-1.824"
           style="stroke:none"
           id="path3249" />
        <path
           d="m 654.83448,105.1185 0,-3.216 c 0,-1.89599 -1.824,-1.907996 -2.424,-1.907996 -0.564,0 -1.164,0.048 -1.968,0.383996 -0.252,0.108 -0.312,0.144 -0.312,0.276 0,0.084 0.072,0.78 0.084,0.876 0.012,0.072 0.072,0.132 0.156,0.132 0.06,0 0.096,-0.036 0.132,-0.072 0.516,-0.54 1.11601,-0.804 1.86,-0.804 0.648,0 0.84,0.396 0.84,1.104 l 0,0.42 c -0.42,0 -3.564,0.024 -3.564,1.788 0,0.84 0.67201,1.728 1.728,1.728 0.408,0 1.308,-0.12 1.872,-0.948 l 0,0.24 c 0,0.384 0.084,0.576 0.576,0.576 l 0.444,0 c 0.456,0 0.576,-0.156 0.576,-0.576 m -1.632,-1.272 c 0,1.116 -1.14,1.116 -1.176,1.116 -0.504,0 -0.828,-0.432 -0.828,-0.888 0,-1.176 1.668,-1.26 2.004,-1.272 l 0,1.044"
           style="stroke:none"
           id="path3251" />
        <path
           d="m 661.12717,100.5345 c 0,-0.336 -0.3,-0.336 -0.48,-0.336 l -0.252,0 c -0.504,0 -0.636,0.18 -0.744,0.516 l -1.188,3.624 -1.188,-3.624 c -0.084,-0.252 -0.168,-0.516 -0.744,-0.516 l -0.288,0 c -0.18,0 -0.48,0 -0.48,0.336 0,0.036 0,0.06 0.06,0.228 l 1.428,4.428 c 0.168,0.504 0.54,0.504 0.756,0.504 l 0.876,0 c 0.216,0 0.588,0 0.756,-0.504 l 1.428,-4.428 c 0.06,-0.168 0.06,-0.192 0.06,-0.228"
           style="stroke:none"
           id="path3253" />
        <path
           d="m 667.19917,102.5745 c 0,-1.54799 -0.72,-2.579996 -2.508,-2.579996 -1.92,0 -2.868,1.080006 -2.868,2.903996 0,1.968 1.14,2.928 3.024,2.928 0.456,0 1.14,-0.06 1.932,-0.456 0.264,-0.132 0.348,-0.168 0.348,-0.312 0,-0.084 -0.036,-0.432 -0.048,-0.528 -0.048,-0.372 -0.06,-0.384 -0.168,-0.384 -0.048,0 -0.072,0 -0.204,0.12 -0.708,0.612 -1.428,0.696 -1.812,0.696 -1.356,0 -1.5,-1.068 -1.536,-1.836 l 3.264,0 c 0.276,0 0.576,-0.012 0.576,-0.552 m -1.332,-0.084 -2.496,0 c 0.036,-0.732 0.276,-1.632 1.32,-1.632 0.96,0 1.14,0.696 1.176,1.632"
           style="stroke:none"
           id="path3255" />
        <path
           d="m 677.77005,100.4625 c 0,-0.192 -0.072,-0.42 -0.384,-0.515996 l -1.608,-0.504 1.596,-0.504 c 0.108,-0.036 0.396,-0.120001 0.396,-0.516 0,-0.384 -0.324,-0.696 -0.636,-0.696 -0.18,0 -0.252,0.072 -0.384,0.192 l -1.212,1.104 0.336,-1.572 c 0.012,-0.024 0.048,-0.228 0.048,-0.228 0,-0.3 -0.3,-0.528 -0.624,-0.528 -0.36,0 -0.636,0.252 -0.636,0.528 0,0 0.036,0.204 0.048,0.228 l 0.336,1.572 -1.2,-1.104 c -0.204,-0.192 -0.312,-0.192 -0.396,-0.192 -0.312,0 -0.636,0.312 -0.636,0.696 0,0.192 0.072,0.42 0.384,0.516 l 1.608,0.504 -1.596,0.504 c -0.108,0.036 -0.396,0.119996 -0.396,0.515996 0,0.384 0.324,0.696 0.636,0.696 0.18,0 0.252,-0.072 0.384,-0.192 l 1.212,-1.103996 -0.336,1.571996 c -0.012,0.024 -0.048,0.228 -0.048,0.228 0,0.3 0.3,0.528 0.624,0.528 0.36,0 0.636,-0.252 0.636,-0.528 0,0 -0.036,-0.204 -0.048,-0.228 l -0.336,-1.571996 1.2,1.103996 c 0.204,0.192 0.312,0.192 0.396,0.192 0.312,0 0.636,-0.312 0.636,-0.696"
           style="stroke:none"
           id="path3257" />
      </g>
      <path
         style="fill:none"
         clip-path="url(#clipPath2)"
         d="m 605.74158,82.114998 111.18499,0 c 2.216,0 4,1.784 4,4 l 0,29.115002 c 0,2.216 -1.784,4 -4,4 l -111.18499,0 c -2.216,0 -4,-1.784 -4,-4 l 0,-29.115002 c 0,-2.216 1.784,-4 4,-4 z"
         id="rect74" />
      <g
         clip-path="url(#clipPath2)"
         style="stroke:none"
         id="text76">
        <path
           d="m 955.00149,107.4465 0,-6.804 c 0,-0.384 -0.084,-0.576 -0.576,-0.576 l -0.444,0 c -0.456,0 -0.576,0.156 -0.576,0.576 l 0,0.228 c -0.528,-0.804 -1.236,-0.804 -1.44,-0.804 -2.316,0 -2.508,1.932 -2.508,2.892 0,0.936 0.192,2.868 2.424,2.868 0.636,0 1.08,-0.24 1.488,-0.708 l 0,2.328 c 0,0.384 0.084,0.576 0.576,0.576 l 0.48,0 c 0.456,0 0.576,-0.156 0.576,-0.576 m -1.596,-3.132 c -0.216,0.3 -0.54,0.648 -1.092,0.648 -1.224,0 -1.224,-1.524 -1.224,-1.992 0,-0.48 0,-1.968 1.344,-1.968 0.192,0 0.444,0.048 0.66,0.276 0.312,0.3 0.312,0.516 0.312,0.66 l 0,2.376"
           style="stroke:none"
           id="path3261" />
        <path
           d="m 961.74005,105.1185 0,-4.344 c 0,-0.384 -0.084,-0.576 -0.576,-0.576 l -0.48,0 c -0.456,0 -0.576,0.156 -0.576,0.576 l 0,2.844 c 0,0.792 -0.42,1.476 -1.272,1.476 -0.672,0 -0.744,-0.168 -0.744,-0.804 l 0,-3.516 c 0,-0.384 -0.084,-0.576 -0.576,-0.576 l -0.48,0 c -0.432,0 -0.576,0.132 -0.576,0.576 l 0,3.408 c 0,1.284 0.696,1.644 1.944,1.644 0.324,0 1.176,0 1.74,-1.02 l 0,0.312 c 0,0.384 0.084,0.576 0.576,0.576 l 0.444,0 c 0.456,0 0.576,-0.156 0.576,-0.576"
           style="stroke:none"
           id="path3263" />
        <path
           d="m 964.79461,105.1185 0,-4.344 c 0,-0.384 -0.084,-0.576 -0.576,-0.576 l -0.444,0 c -0.432,0 -0.576,0.132 -0.576,0.576 l 0,4.344 c 0,0.432 0.132,0.576 0.576,0.576 l 0.444,0 c 0.456,0 0.576,-0.156 0.576,-0.576 m 0.084,-6.695996 0,-0.228 c 0,-0.384 -0.084,-0.576 -0.576,-0.576 l -0.612,0 c -0.456,0 -0.576,0.156 -0.576,0.576 l 0,0.228 c 0,0.347999 0.06,0.576 0.576,0.576 l 0.612,0 c 0.504,0 0.576,-0.216001 0.576,-0.576"
           style="stroke:none"
           id="path3265" />
        <path
           d="m 970.01293,105.1305 c 0,-0.036 -0.024,-0.12 -0.096,-0.372 -0.06,-0.24 -0.084,-0.312 -0.192,-0.312 -0.06,0 -0.072,0.012 -0.144,0.084 -0.132,0.096 -0.456,0.36 -0.96,0.36 -0.288,0 -0.468,-0.204 -0.468,-0.996 l 0,-2.832 1.068,0 c 0.144,0 0.576,0 0.576,-0.432 0,-0.432 -0.432,-0.432 -0.576,-0.432 l -1.068,0 0,-0.995996 c 0,-0.384 -0.084,-0.576 -0.576,-0.576 l -0.372,0 c -0.432,0 -0.576,0.132 -0.576,0.576 l 0,0.995996 -0.276,0 c -0.132,0 -0.576,0 -0.576,0.432 0,0.432 0.432,0.432 0.576,0.432 l 0.24,0 0,3.036 c 0,1.212 0.432,1.728 1.26,1.728 0.108,0 0.636,0 1.26,-0.192 0.204,-0.06 0.9,-0.276 0.9,-0.504"
           style="stroke:none"
           id="path3267" />
      </g>
      <path
         style="fill:none"
         clip-path="url(#clipPath2)"
         d="m 904.1131,82.114998 111.185,0 c 2.216,0 4,1.784 4,4 l 0,29.115002 c 0,2.216 -1.784,4 -4,4 l -111.185,0 c -2.216,0 -4,-1.784 -4,-4 l 0,-29.115002 c 0,-2.216 1.784,-4 4,-4 z"
         id="rect78" />
    </g>
    <g
       transform="matrix(1,0,0,1,-447,5)"
       fill-opacity="0.2"
       fill="rgb(0,0,0)"
       text-rendering="optimizeQuality"
       shape-rendering="geometricPrecision"
       stroke="rgb(0,0,0)"
       stroke-opacity="0.2"
       id="g80">
      <path
         style="stroke:none"
         clip-path="url(#clipPath2)"
         d="m 754.92767,276.345 111.185,0 c 2.216,0 4,1.784 4,4 l 0,29.115 c 0,2.216 -1.784,4 -4,4 l -111.185,0 c -2.216,0 -4,-1.784 -4,-4 l 0,-29.115 c 0,-2.216 1.784,-4 4,-4 z"
         id="rect82" />
    </g>
    <g
       stroke-linecap="butt"
       transform="matrix(1,0,0,1,-447,5)"
       text-rendering="optimizeQuality"
       font-family="'L M Sans10'"
       shape-rendering="geometricPrecision"
       font-weight="bold"
       stroke-miterlimit="1.45"
       id="g84">
      <g
         clip-path="url(#clipPath2)"
         style="stroke:none"
         id="text86">
        <path
           d="m 769.93588,295.1845 0,-0.564 c 0,-0.24 0,-0.324 -0.216,-0.324 -0.336,0 -1.212,0.12 -1.776,1.416 l -0.012,0 0,-0.78 c 0,-0.384 -0.084,-0.576 -0.576,-0.576 l -0.384,0 c -0.432,0 -0.576,0.132 -0.576,0.576 l 0,4.416 c 0,0.432 0.132,0.576 0.576,0.576 l 0.444,0 c 0.456,0 0.576,-0.156 0.576,-0.576 l 0,-2.184 c 0,-1.14 0.948,-1.608 1.704,-1.656 0.216,-0.012 0.24,-0.012 0.24,-0.324"
           style="stroke:none"
           id="path3272" />
        <path
           d="m 775.865,296.8045 c 0,-1.548 -0.72,-2.58 -2.508,-2.58 -1.91999,0 -2.868,1.08 -2.868,2.904 0,1.968 1.14001,2.928 3.024,2.928 0.456,0 1.14001,-0.06 1.932,-0.456 0.264,-0.132 0.348,-0.168 0.348,-0.312 0,-0.084 -0.036,-0.432 -0.048,-0.528 -0.048,-0.372 -0.06,-0.384 -0.168,-0.384 -0.048,0 -0.072,0 -0.204,0.12 -0.70799,0.612 -1.428,0.696 -1.812,0.696 -1.35599,0 -1.5,-1.068 -1.536,-1.836 l 3.264,0 c 0.276,0 0.576,-0.012 0.576,-0.552 m -1.332,-0.084 -2.496,0 c 0.036,-0.732 0.27601,-1.632 1.32,-1.632 0.96,0 1.14,0.696 1.176,1.632"
           style="stroke:none"
           id="path3274" />
        <path
           d="m 782.25763,299.3485 0,-3.324 c 0,-1.236 -0.528,-1.728 -1.752,-1.728 -1.26,0 -1.8,0.912 -1.956,1.236 l -0.012,0 0,-0.6 c 0,-0.384 -0.084,-0.576 -0.576,-0.576 l -0.408,0 c -0.432,0 -0.576,0.132 -0.576,0.576 l 0,4.416 c 0,0.432 0.132,0.576 0.576,0.576 l 0.48,0 c 0.456,0 0.576,-0.156 0.576,-0.576 l 0,-2.652 c 0,-1.044 0.696,-1.536 1.32,-1.536 0.576,0 0.696,0.276 0.696,0.888 l 0,3.3 c 0,0.384 0.084,0.576 0.576,0.576 l 0.48,0 c 0.456,0 0.576,-0.156 0.576,-0.576"
           style="stroke:none"
           id="path3276" />
        <path
           d="m 788.97219,299.3485 0,-7.176 c 0,-0.384 -0.084,-0.576 -0.576,-0.576 l -0.444,0 c -0.456,0 -0.576,0.156 -0.576,0.576 l 0,2.724 c -0.54,-0.516 -1.14,-0.6 -1.512,-0.6 -2.436,0 -2.436,2.304 -2.436,2.892 0,0.552 0,2.868 2.376,2.868 0.504,0 1.02,-0.144 1.536,-0.696 0,0.444 0.168,0.564 0.576,0.564 l 0.48,0 c 0.456,0 0.576,-0.156 0.576,-0.576 m -1.632,-0.924 c 0,0.204 0,0.312 -0.348,0.552 -0.3,0.192 -0.576,0.216 -0.72,0.216 -1.212,0 -1.212,-1.104 -1.212,-2.004 0,-0.9 0,-2.028 1.344,-2.028 0.348,0 0.672,0.12 0.936,0.372 l 0,2.892"
           style="stroke:none"
           id="path3278" />
        <path
           d="m 795.45875,296.8045 c 0,-1.548 -0.72,-2.58 -2.508,-2.58 -1.91999,0 -2.868,1.08 -2.868,2.904 0,1.968 1.14001,2.928 3.024,2.928 0.456,0 1.14001,-0.06 1.932,-0.456 0.264,-0.132 0.348,-0.168 0.348,-0.312 0,-0.084 -0.036,-0.432 -0.048,-0.528 -0.048,-0.372 -0.06,-0.384 -0.168,-0.384 -0.048,0 -0.072,0 -0.204,0.12 -0.70799,0.612 -1.428,0.696 -1.812,0.696 -1.35599,0 -1.5,-1.068 -1.536,-1.836 l 3.264,0 c 0.276,0 0.576,-0.012 0.576,-0.552 m -1.332,-0.084 -2.496,0 c 0.036,-0.732 0.27601,-1.632 1.32,-1.632 0.96,0 1.14,0.696 1.176,1.632"
           style="stroke:none"
           id="path3280" />
        <path
           d="m 800.12338,295.1845 0,-0.564 c 0,-0.24 0,-0.324 -0.216,-0.324 -0.336,0 -1.212,0.12 -1.776,1.416 l -0.012,0 0,-0.78 c 0,-0.384 -0.084,-0.576 -0.576,-0.576 l -0.384,0 c -0.432,0 -0.576,0.132 -0.576,0.576 l 0,4.416 c 0,0.432 0.132,0.576 0.576,0.576 l 0.444,0 c 0.456,0 0.576,-0.156 0.576,-0.576 l 0,-2.184 c 0,-1.14 0.948,-1.608 1.704,-1.656 0.216,-0.012 0.24,-0.012 0.24,-0.324"
           style="stroke:none"
           id="path3282" />
        <path
           d="m 810.92675,297.2245 c 0,-1.968 -0.96,-3 -2.916,-3 -2.00399,0 -2.928,1.068 -2.928,3 0,1.956 1.03201,2.832 2.916,2.832 1.884,0 2.928,-0.864 2.928,-2.832 m -1.632,-0.144 c 0,0.948 0,2.04 -1.284,2.04 -1.29599,0 -1.296,-1.08 -1.296,-2.04 0,-0.924 10e-6,-1.992 1.284,-1.992 1.296,0 1.296,1.056 1.296,1.992"
           style="stroke:none"
           id="path3284" />
        <path
           d="m 817.59613,297.1525 c 0,-0.588 0,-2.856 -2.172,-2.856 -0.708,0 -1.344,0.288 -1.776,0.696 0,-0.444 -0.168,-0.564 -0.576,-0.564 l -0.444,0 c -0.432,0 -0.576,0.132 -0.576,0.576 l 0,6.672 c 0,0.432 0.132,0.576 0.576,0.576 l 0.48,0 c 0.456,0 0.576,-0.156 0.576,-0.576 l 0,-2.22 c 0.54,0.6 1.2,0.6 1.368,0.6 2.544,0 2.544,-2.304 2.544,-2.904 m -1.632,0.024 c 0,0.48 0,2.016 -1.356,2.016 -0.276,0 -0.492,-0.096 -0.636,-0.204 -0.288,-0.204 -0.288,-0.264 -0.288,-0.48 l 0,-2.88 c 0.132,-0.12 0.528,-0.396 1.044,-0.396 1.224,0 1.236,1.416 1.236,1.944"
           style="stroke:none"
           id="path3286" />
        <path
           d="m 822.52269,299.3605 c 0,-0.036 -0.024,-0.12 -0.096,-0.372 -0.06,-0.24 -0.084,-0.312 -0.192,-0.312 -0.06,0 -0.072,0.012 -0.144,0.084 -0.132,0.096 -0.456,0.36 -0.96,0.36 -0.288,0 -0.468,-0.204 -0.468,-0.996 l 0,-2.832 1.068,0 c 0.144,0 0.576,0 0.576,-0.432 0,-0.432 -0.432,-0.432 -0.576,-0.432 l -1.068,0 0,-0.996 c 0,-0.384 -0.084,-0.576 -0.576,-0.576 l -0.372,0 c -0.432,0 -0.576,0.132 -0.576,0.576 l 0,0.996 -0.276,0 c -0.132,0 -0.576,0 -0.576,0.432 0,0.432 0.432,0.432 0.576,0.432 l 0.24,0 0,3.036 c 0,1.212 0.432,1.728 1.26,1.728 0.108,0 0.636,0 1.26,-0.192 0.204,-0.06 0.9,-0.276 0.9,-0.504"
           style="stroke:none"
           id="path3288" />
        <path
           d="m 825.22625,299.3485 0,-4.344 c 0,-0.384 -0.084,-0.576 -0.576,-0.576 l -0.444,0 c -0.432,0 -0.576,0.132 -0.576,0.576 l 0,4.344 c 0,0.432 0.132,0.576 0.576,0.576 l 0.444,0 c 0.456,0 0.576,-0.156 0.576,-0.576 m 0.084,-6.696 0,-0.228 c 0,-0.384 -0.084,-0.576 -0.576,-0.576 l -0.612,0 c -0.456,0 -0.576,0.156 -0.576,0.576 l 0,0.228 c 0,0.348 0.06,0.576 0.576,0.576 l 0.612,0 c 0.504,0 0.576,-0.216 0.576,-0.576"
           style="stroke:none"
           id="path3290" />
        <path
           d="m 832.18457,297.2245 c 0,-1.968 -0.96001,-3 -2.916,-3 -2.004,0 -2.928,1.068 -2.928,3 0,1.956 1.032,2.832 2.916,2.832 1.884,0 2.928,-0.864 2.928,-2.832 m -1.632,-0.144 c 0,0.948 0,2.04 -1.284,2.04 -1.296,0 -1.296,-1.08 -1.296,-2.04 0,-0.924 0,-1.992 1.284,-1.992 1.296,0 1.296,1.056 1.296,1.992"
           style="stroke:none"
           id="path3292" />
        <path
           d="m 838.57794,299.3485 0,-3.324 c 0,-1.236 -0.528,-1.728 -1.752,-1.728 -1.26,0 -1.8,0.912 -1.956,1.236 l -0.012,0 0,-0.6 c 0,-0.384 -0.084,-0.576 -0.576,-0.576 l -0.408,0 c -0.432,0 -0.576,0.132 -0.576,0.576 l 0,4.416 c 0,0.432 0.132,0.576 0.576,0.576 l 0.48,0 c 0.456,0 0.576,-0.156 0.576,-0.576 l 0,-2.652 c 0,-1.044 0.696,-1.536 1.32,-1.536 0.576,0 0.696,0.276 0.696,0.888 l 0,3.3 c 0,0.384 0.084,0.576 0.576,0.576 l 0.48,0 c 0.456,0 0.576,-0.156 0.576,-0.576"
           style="stroke:none"
           id="path3294" />
        <path
           d="m 844.0565,298.2325 c 0,-0.672 -0.36,-1.092 -0.576,-1.284 -0.48,-0.432 -0.9,-0.504 -1.404,-0.6 -0.65999,-0.12 -1.14,-0.216 -1.14,-0.684 0,-0.492 0.396,-0.588 0.864,-0.588 0.804,0 1.236,0.3 1.548,0.564 0.12,0.12 0.144,0.12 0.192,0.12 0.12,0 0.144,-0.108 0.156,-0.156 0.024,-0.096 0.144,-0.768 0.144,-0.828 0,-0.192 -0.636,-0.36 -0.768,-0.408 -0.48,-0.132 -0.864,-0.144 -1.176,-0.144 -0.54,0 -2.148,0 -2.148,1.716 0,0.588 0.264,0.948 0.588,1.236 0.42,0.384 0.88801,0.468 1.572,0.6 0.348,0.06 0.96,0.168 0.96,0.696 0,0.564 -0.468,0.648 -0.936,0.648 -0.528,0 -1.2,-0.156 -1.764,-0.828 -0.06,-0.06 -0.096,-0.096 -0.168,-0.096 -0.12,0 -0.144,0.108 -0.156,0.18 -0.024,0.168 -0.168,0.852 -0.168,0.972 0,0.216 0.9,0.504 0.9,0.504 0.66,0.204 1.152,0.204 1.356,0.204 0.612,0 2.124,-0.048 2.124,-1.824"
           style="stroke:none"
           id="path3296" />
        <path
           d="m 854.54525,294.6925 c 0,-0.192 -0.072,-0.42 -0.384,-0.516 l -1.608,-0.504 1.596,-0.504 c 0.108,-0.036 0.396,-0.12 0.396,-0.516 0,-0.384 -0.324,-0.696 -0.636,-0.696 -0.18,0 -0.252,0.072 -0.384,0.192 l -1.212,1.104 0.336,-1.572 c 0.012,-0.024 0.048,-0.228 0.048,-0.228 0,-0.3 -0.3,-0.528 -0.624,-0.528 -0.36,0 -0.636,0.252 -0.636,0.528 0,0 0.036,0.204 0.048,0.228 l 0.336,1.572 -1.2,-1.104 c -0.204,-0.192 -0.312,-0.192 -0.396,-0.192 -0.312,0 -0.636,0.312 -0.636,0.696 0,0.192 0.072,0.42 0.384,0.516 l 1.608,0.504 -1.596,0.504 c -0.108,0.036 -0.396,0.12 -0.396,0.516 0,0.384 0.324,0.696 0.636,0.696 0.18,0 0.252,-0.072 0.384,-0.192 l 1.212,-1.104 -0.336,1.572 c -0.012,0.024 -0.048,0.228 -0.048,0.228 0,0.3 0.3,0.528 0.624,0.528 0.36,0 0.636,-0.252 0.636,-0.528 0,0 -0.036,-0.204 -0.048,-0.228 l -0.336,-1.572 1.2,1.104 c 0.204,0.192 0.312,0.192 0.396,0.192 0.312,0 0.636,-0.312 0.636,-0.696"
           style="stroke:none"
           id="path3298" />
      </g>
      <path
         style="fill:none"
         clip-path="url(#clipPath2)"
         d="m 754.92767,276.345 111.185,0 c 2.216,0 4,1.784 4,4 l 0,29.115 c 0,2.216 -1.784,4 -4,4 l -111.185,0 c -2.216,0 -4,-1.784 -4,-4 l 0,-29.115 c 0,-2.216 1.784,-4 4,-4 z"
         id="rect88" />
    </g>
    <g
       transform="matrix(1,0,0,1,-447,5)"
       fill-opacity="0.2"
       fill="rgb(0,0,0)"
       text-rendering="optimizeQuality"
       shape-rendering="geometricPrecision"
       stroke="rgb(0,0,0)"
       stroke-opacity="0.2"
       id="g90">
      <path
         style="stroke:none"
         clip-path="url(#clipPath2)"
         d="m 754.92767,373.45999 111.185,0 c 2.216,0 4,1.784 4,4 l 0,29.115 c 0,2.216 -1.784,4 -4,4 l -111.185,0 c -2.216,0 -4,-1.784 -4,-4 l 0,-29.115 c 0,-2.216 1.784,-4 4,-4 z"
         id="rect92" />
    </g>
    <g
       stroke-linecap="butt"
       transform="matrix(1,0,0,1,-447,5)"
       text-rendering="optimizeQuality"
       font-family="'L M Sans10'"
       shape-rendering="geometricPrecision"
       font-weight="bold"
       stroke-miterlimit="1.45"
       id="g94">
      <g
         clip-path="url(#clipPath2)"
         style="stroke:none"
         id="text96">
        <path
           d="m 797.73407,396.46361 0,-3.324 c 0,-1.236 -0.528,-1.728 -1.752,-1.728 -1.26,0 -1.8,0.912 -1.956,1.236 l -0.012,0 0,-0.6 c 0,-0.384 -0.084,-0.576 -0.576,-0.576 l -0.408,0 c -0.432,0 -0.576,0.132 -0.576,0.576 l 0,4.416 c 0,0.432 0.132,0.576 0.576,0.576 l 0.48,0 c 0.456,0 0.576,-0.156 0.576,-0.576 l 0,-2.652 c 0,-1.044 0.696,-1.536 1.32,-1.536 0.576,0 0.696,0.276 0.696,0.888 l 0,3.3 c 0,0.384 0.084,0.576 0.576,0.576 l 0.48,0 c 0.456,0 0.576,-0.156 0.576,-0.576"
           style="stroke:none"
           id="path3303" />
        <path
           d="m 804.67663,394.33961 c 0,-1.968 -0.96,-3 -2.916,-3 -2.004,0 -2.928,1.068 -2.928,3 0,1.956 1.032,2.832 2.916,2.832 1.884,0 2.928,-0.864 2.928,-2.832 m -1.632,-0.144 c 0,0.948 0,2.04 -1.284,2.04 -1.296,0 -1.296,-1.08 -1.296,-2.04 0,-0.924 0,-1.992 1.284,-1.992 1.296,0 1.296,1.056 1.296,1.992"
           style="stroke:none"
           id="path3305" />
        <path
           d="m 809.34201,392.29961 0,-0.564 c 0,-0.24 0,-0.324 -0.216,-0.324 -0.336,0 -1.212,0.12 -1.776,1.416 l -0.012,0 0,-0.78 c 0,-0.384 -0.084,-0.576 -0.576,-0.576 l -0.384,0 c -0.432,0 -0.576,0.132 -0.576,0.576 l 0,4.416 c 0,0.432 0.132,0.576 0.576,0.576 l 0.444,0 c 0.456,0 0.576,-0.156 0.576,-0.576 l 0,-2.184 c 0,-1.14 0.948,-1.608 1.704,-1.656 0.216,-0.012 0.24,-0.012 0.24,-0.324"
           style="stroke:none"
           id="path3307" />
        <path
           d="m 819.19513,396.46361 0,-3.324 c 0,-1.236 -0.528,-1.728 -1.752,-1.728 -0.852,0 -1.512,0.396 -1.944,1.188 -0.192,-1.152 -1.212,-1.188 -1.716,-1.188 -0.228,0 -0.732,0 -1.272,0.396 -0.372,0.276 -0.612,0.66 -0.696,0.84 l -0.012,0 0,-0.6 c 0,-0.384 -0.084,-0.576 -0.576,-0.576 l -0.408,0 c -0.432,0 -0.576,0.132 -0.576,0.576 l 0,4.416 c 0,0.432 0.132,0.576 0.576,0.576 l 0.48,0 c 0.456,0 0.576,-0.156 0.576,-0.576 l 0,-2.652 c 0,-1.08 0.732,-1.536 1.32,-1.536 0.576,0 0.708,0.252 0.708,0.888 l 0,3.3 c 0,0.432 0.132,0.576 0.576,0.576 l 0.48,0 c 0.456,0 0.576,-0.156 0.576,-0.576 l 0,-2.652 c 0,-1.08 0.732,-1.536 1.32,-1.536 0.576,0 0.708,0.252 0.708,0.888 l 0,3.3 c 0,0.432 0.132,0.576 0.576,0.576 l 0.48,0 c 0.456,0 0.576,-0.156 0.576,-0.576"
           style="stroke:none"
           id="path3309" />
        <path
           d="m 825.61738,396.46361 0,-3.216 c 0,-1.896 -1.824,-1.908 -2.424,-1.908 -0.564,0 -1.164,0.048 -1.968,0.384 -0.252,0.108 -0.312,0.144 -0.312,0.276 0,0.084 0.072,0.78 0.084,0.876 0.012,0.072 0.072,0.132 0.156,0.132 0.06,0 0.096,-0.036 0.132,-0.072 0.516,-0.54 1.116,-0.804 1.86,-0.804 0.648,0 0.84,0.396 0.84,1.104 l 0,0.42 c -0.42,0 -3.564,0.024 -3.564,1.788 0,0.84 0.672,1.728 1.728,1.728 0.408,0 1.308,-0.12 1.872,-0.948 l 0,0.24 c 0,0.384 0.084,0.576 0.576,0.576 l 0.444,0 c 0.456,0 0.576,-0.156 0.576,-0.576 m -1.632,-1.272 c 0,1.116 -1.14,1.116 -1.176,1.116 -0.504,0 -0.828,-0.432 -0.828,-0.888 0,-1.176 1.668,-1.26 2.004,-1.272 l 0,1.044"
           style="stroke:none"
           id="path3311" />
        <path
           d="m 828.56207,396.46361 0,-7.176 c 0,-0.384 -0.084,-0.576 -0.576,-0.576 l -0.444,0 c -0.432,0 -0.576,0.132 -0.576,0.576 l 0,7.176 c 0,0.432 0.132,0.576 0.576,0.576 l 0.444,0 c 0.456,0 0.576,-0.156 0.576,-0.576"
           style="stroke:none"
           id="path3313" />
      </g>
      <path
         style="fill:none"
         clip-path="url(#clipPath2)"
         d="m 754.92767,373.45999 111.185,0 c 2.216,0 4,1.784 4,4 l 0,29.115 c 0,2.216 -1.784,4 -4,4 l -111.185,0 c -2.216,0 -4,-1.784 -4,-4 l 0,-29.115 c 0,-2.216 1.784,-4 4,-4 z"
         id="rect98" />
    </g>
    <g
       transform="matrix(1,0,0,1,-447,5)"
       fill-opacity="0.2"
       fill="rgb(0,0,0)"
       text-rendering="optimizeQuality"
       shape-rendering="geometricPrecision"
       stroke="rgb(0,0,0)"
       stroke-opacity="0.2"
       id="g100">
      <path
         style="stroke:none"
         clip-path="url(#clipPath2)"
         d="m 605.74237,373.45999 111.185,0 c 2.216,0 4,1.784 4,4 l 0,29.115 c 0,2.216 -1.784,4 -4,4 l -111.185,0 c -2.216,0 -4,-1.784 -4,-4 l 0,-29.115 c 0,-2.216 1.784,-4 4,-4 z"
         id="rect102" />
    </g>
    <g
       stroke-linecap="butt"
       transform="matrix(1,0,0,1,-447,5)"
       text-rendering="optimizeQuality"
       font-family="'L M Sans10'"
       shape-rendering="geometricPrecision"
       font-weight="bold"
       stroke-miterlimit="1.45"
       id="g104">
      <g
         clip-path="url(#clipPath2)"
         style="stroke:none"
         id="text106">
        <path
           d="m 656.78092,389.58761 0,-0.552 c 0,-0.288 -0.012,-0.3 -0.42,-0.384 -0.348,-0.072 -0.6,-0.072 -0.78,-0.072 -0.9,0 -2.34,0.204 -2.34,2.004 l 0,0.96 c -0.252,0 -0.672,0 -0.672,0.432 0,0.432 0.408,0.432 0.672,0.432 l 0,4.056 c 0,0.432 0.132,0.576 0.576,0.576 l 0.444,0 c 0.456,0 0.576,-0.156 0.576,-0.576 l 0,-4.056 0.576,0 c 0.144,0 0.576,0 0.576,-0.432 0,-0.432 -0.432,-0.432 -0.576,-0.432 l -0.612,0 0,-1.308 c 0,-0.312 0,-0.792 0.78,-0.792 0.384,0 0.624,0.108 0.864,0.336 0.084,0.096 0.12,0.12 0.18,0.12 0.156,0 0.156,-0.12 0.156,-0.312"
           style="stroke:none"
           id="path3318" />
        <path
           d="m 658.56817,396.46361 0,-7.176 c 0,-0.384 -0.084,-0.576 -0.576,-0.576 l -0.444,0 c -0.432,0 -0.576,0.132 -0.576,0.576 l 0,7.176 c 0,0.432 0.132,0.576 0.576,0.576 l 0.444,0 c 0.456,0 0.576,-0.156 0.576,-0.576"
           style="stroke:none"
           id="path3320" />
        <path
           d="m 664.99849,396.46361 0,-3.216 c 0,-1.896 -1.824,-1.908 -2.424,-1.908 -0.564,0 -1.164,0.048 -1.968,0.384 -0.252,0.108 -0.312,0.144 -0.312,0.276 0,0.084 0.072,0.78 0.084,0.876 0.012,0.072 0.072,0.132 0.156,0.132 0.06,0 0.096,-0.036 0.132,-0.072 0.516,-0.54 1.116,-0.804 1.86,-0.804 0.648,0 0.84,0.396 0.84,1.104 l 0,0.42 c -0.42,0 -3.564,0.024 -3.564,1.788 0,0.84 0.672,1.728 1.728,1.728 0.408,0 1.308,-0.12 1.872,-0.948 l 0,0.24 c 0,0.384 0.084,0.576 0.576,0.576 l 0.444,0 c 0.456,0 0.576,-0.156 0.576,-0.576 m -1.632,-1.272 c 0,1.116 -1.14,1.116 -1.176,1.116 -0.504,0 -0.828,-0.432 -0.828,-0.888 0,-1.176 1.668,-1.26 2.004,-1.272 l 0,1.044"
           style="stroke:none"
           id="path3322" />
        <path
           d="m 670.09117,396.47561 c 0,-0.036 -0.024,-0.12 -0.096,-0.372 -0.06,-0.24 -0.084,-0.312 -0.192,-0.312 -0.06,0 -0.072,0.012 -0.144,0.084 -0.132,0.096 -0.456,0.36 -0.96,0.36 -0.288,0 -0.468,-0.204 -0.468,-0.996 l 0,-2.832 1.068,0 c 0.144,0 0.576,0 0.576,-0.432 0,-0.432 -0.432,-0.432 -0.576,-0.432 l -1.068,0 0,-0.996 c 0,-0.384 -0.084,-0.576 -0.576,-0.576 l -0.372,0 c -0.432,0 -0.576,0.132 -0.576,0.576 l 0,0.996 -0.276,0 c -0.132,0 -0.576,0 -0.576,0.432 0,0.432 0.432,0.432 0.576,0.432 l 0.24,0 0,3.036 c 0,1.212 0.432,1.728 1.26,1.728 0.108,0 0.636,0 1.26,-0.192 0.204,-0.06 0.9,-0.276 0.9,-0.504"
           style="stroke:none"
           id="path3324" />
      </g>
      <path
         style="fill:none"
         clip-path="url(#clipPath2)"
         d="m 605.74237,373.45999 111.185,0 c 2.216,0 4,1.784 4,4 l 0,29.115 c 0,2.216 -1.784,4 -4,4 l -111.185,0 c -2.216,0 -4,-1.784 -4,-4 l 0,-29.115 c 0,-2.216 1.784,-4 4,-4 z"
         id="rect108" />
    </g>
    <g
       transform="matrix(1,0,0,1,-447,5)"
       fill-opacity="0.2"
       fill="rgb(0,0,0)"
       text-rendering="optimizeQuality"
       shape-rendering="geometricPrecision"
       stroke="rgb(0,0,0)"
       stroke-opacity="0.2"
       id="g110">
      <path
         style="stroke:none"
         clip-path="url(#clipPath2)"
         d="m 904.1131,373.45999 111.185,0 c 2.216,0 4,1.784 4,4 l 0,29.115 c 0,2.216 -1.784,4 -4,4 l -111.185,0 c -2.216,0 -4,-1.784 -4,-4 l 0,-29.115 c 0,-2.216 1.784,-4 4,-4 z"
         id="rect112" />
    </g>
    <g
       stroke-linecap="butt"
       transform="matrix(1,0,0,1,-447,5)"
       text-rendering="optimizeQuality"
       font-family="'L M Sans10'"
       shape-rendering="geometricPrecision"
       font-weight="bold"
       stroke-miterlimit="1.45"
       id="g114">
      <g
         clip-path="url(#clipPath2)"
         style="stroke:none"
         id="text116">
        <path
           d="m 928.84728,395.34761 c 0,-0.672 -0.36,-1.092 -0.576,-1.284 -0.48,-0.432 -0.9,-0.504 -1.404,-0.6 -0.66,-0.12 -1.14,-0.216 -1.14,-0.684 0,-0.492 0.396,-0.588 0.864,-0.588 0.804,0 1.236,0.3 1.548,0.564 0.12,0.12 0.144,0.12 0.192,0.12 0.12,0 0.144,-0.108 0.156,-0.156 0.024,-0.096 0.144,-0.768 0.144,-0.828 0,-0.192 -0.636,-0.36 -0.768,-0.408 -0.48,-0.132 -0.864,-0.144 -1.176,-0.144 -0.54,0 -2.148,0 -2.148,1.716 0,0.588 0.264,0.948 0.588,1.236 0.42,0.384 0.888,0.468 1.572,0.6 0.348,0.06 0.96,0.168 0.96,0.696 0,0.564 -0.468,0.648 -0.936,0.648 -0.528,0 -1.2,-0.156 -1.764,-0.828 -0.06,-0.06 -0.096,-0.096 -0.168,-0.096 -0.12,0 -0.144,0.108 -0.156,0.18 -0.024,0.168 -0.168,0.852 -0.168,0.972 0,0.216 0.9,0.504 0.9,0.504 0.66,0.204 1.152,0.204 1.356,0.204 0.612,0 2.124,-0.048 2.124,-1.824"
           style="stroke:none"
           id="path3329" />
        <path
           d="m 935.37378,394.33961 c 0,-1.968 -0.96001,-3 -2.916,-3 -2.004,0 -2.928,1.068 -2.928,3 0,1.956 1.032,2.832 2.916,2.832 1.88399,0 2.928,-0.864 2.928,-2.832 m -1.632,-0.144 c 0,0.948 -10e-6,2.04 -1.284,2.04 -1.296,0 -1.296,-1.08 -1.296,-2.04 0,-0.924 0,-1.992 1.284,-1.992 1.29599,0 1.296,1.056 1.296,1.992"
           style="stroke:none"
           id="path3331" />
        <path
           d="m 945.43915,396.46361 0,-3.324 c 0,-1.236 -0.528,-1.728 -1.752,-1.728 -0.852,0 -1.512,0.396 -1.944,1.188 -0.192,-1.152 -1.212,-1.188 -1.716,-1.188 -0.228,0 -0.732,0 -1.272,0.396 -0.372,0.276 -0.612,0.66 -0.696,0.84 l -0.012,0 0,-0.6 c 0,-0.384 -0.084,-0.576 -0.576,-0.576 l -0.408,0 c -0.432,0 -0.576,0.132 -0.576,0.576 l 0,4.416 c 0,0.432 0.132,0.576 0.576,0.576 l 0.48,0 c 0.456,0 0.576,-0.156 0.576,-0.576 l 0,-2.652 c 0,-1.08 0.732,-1.536 1.32,-1.536 0.576,0 0.708,0.252 0.708,0.888 l 0,3.3 c 0,0.432 0.132,0.576 0.576,0.576 l 0.48,0 c 0.456,0 0.576,-0.156 0.576,-0.576 l 0,-2.652 c 0,-1.08 0.732,-1.536 1.32,-1.536 0.576,0 0.708,0.252 0.708,0.888 l 0,3.3 c 0,0.432 0.132,0.576 0.576,0.576 l 0.48,0 c 0.456,0 0.576,-0.156 0.576,-0.576"
           style="stroke:none"
           id="path3333" />
        <path
           d="m 951.9214,393.91961 c 0,-1.548 -0.72,-2.58 -2.508,-2.58 -1.92,0 -2.868,1.08 -2.868,2.904 0,1.968 1.14,2.928 3.024,2.928 0.456,0 1.14,-0.06 1.932,-0.456 0.264,-0.132 0.348,-0.168 0.348,-0.312 0,-0.084 -0.036,-0.432 -0.048,-0.528 -0.048,-0.372 -0.06,-0.384 -0.168,-0.384 -0.048,0 -0.072,0 -0.204,0.12 -0.708,0.612 -1.428,0.696 -1.812,0.696 -1.356,0 -1.5,-1.068 -1.536,-1.836 l 3.264,0 c 0.276,0 0.576,-0.012 0.576,-0.552 m -1.332,-0.084 -2.496,0 c 0.036,-0.732 0.276,-1.632 1.32,-1.632 0.96,0 1.14,0.696 1.176,1.632"
           style="stroke:none"
           id="path3335" />
        <path
           d="m 966.39228,396.46361 0,-3.324 c 0,-1.236 -0.52801,-1.728 -1.752,-1.728 -0.852,0 -1.512,0.396 -1.944,1.188 -0.192,-1.152 -1.212,-1.188 -1.716,-1.188 -0.228,0 -0.732,0 -1.272,0.396 -0.372,0.276 -0.612,0.66 -0.696,0.84 l -0.012,0 0,-0.6 c 0,-0.384 -0.084,-0.576 -0.576,-0.576 l -0.408,0 c -0.432,0 -0.576,0.132 -0.576,0.576 l 0,4.416 c 0,0.432 0.132,0.576 0.576,0.576 l 0.48,0 c 0.456,0 0.576,-0.156 0.576,-0.576 l 0,-2.652 c 0,-1.08 0.732,-1.536 1.32,-1.536 0.576,0 0.708,0.252 0.708,0.888 l 0,3.3 c 0,0.432 0.132,0.576 0.576,0.576 l 0.48,0 c 0.456,0 0.576,-0.156 0.576,-0.576 l 0,-2.652 c 0,-1.08 0.732,-1.536 1.32,-1.536 0.576,0 0.708,0.252 0.708,0.888 l 0,3.3 c 0,0.432 0.132,0.576 0.576,0.576 l 0.48,0 c 0.456,0 0.576,-0.156 0.576,-0.576"
           style="stroke:none"
           id="path3337" />
        <path
           d="m 973.34253,394.33961 c 0,-1.968 -0.96001,-3 -2.916,-3 -2.004,0 -2.928,1.068 -2.928,3 0,1.956 1.032,2.832 2.916,2.832 1.88399,0 2.928,-0.864 2.928,-2.832 m -1.632,-0.144 c 0,0.948 -10e-6,2.04 -1.284,2.04 -1.296,0 -1.296,-1.08 -1.296,-2.04 0,-0.924 0,-1.992 1.284,-1.992 1.29599,0 1.296,1.056 1.296,1.992"
           style="stroke:none"
           id="path3339" />
        <path
           d="m 978.0079,392.29961 0,-0.564 c 0,-0.24 0,-0.324 -0.216,-0.324 -0.336,0 -1.212,0.12 -1.776,1.416 l -0.012,0 0,-0.78 c 0,-0.384 -0.084,-0.576 -0.576,-0.576 l -0.384,0 c -0.432,0 -0.576,0.132 -0.576,0.576 l 0,4.416 c 0,0.432 0.132,0.576 0.576,0.576 l 0.444,0 c 0.456,0 0.576,-0.156 0.576,-0.576 l 0,-2.184 c 0,-1.14 0.948,-1.608 1.704,-1.656 0.216,-0.012 0.24,-0.012 0.24,-0.324"
           style="stroke:none"
           id="path3341" />
        <path
           d="m 983.93703,393.91961 c 0,-1.548 -0.72001,-2.58 -2.508,-2.58 -1.92,0 -2.868,1.08 -2.868,2.904 0,1.968 1.14,2.928 3.024,2.928 0.456,0 1.14,-0.06 1.932,-0.456 0.264,-0.132 0.348,-0.168 0.348,-0.312 0,-0.084 -0.036,-0.432 -0.048,-0.528 -0.048,-0.372 -0.06,-0.384 -0.168,-0.384 -0.048,0 -0.072,0 -0.204,0.12 -0.708,0.612 -1.428,0.696 -1.812,0.696 -1.356,0 -1.5,-1.068 -1.536,-1.836 l 3.264,0 c 0.276,0 0.576,-0.012 0.576,-0.552 m -1.332,-0.084 -2.496,0 c 0.036,-0.732 0.276,-1.632 1.32,-1.632 0.95999,0 1.14,0.696 1.176,1.632"
           style="stroke:none"
           id="path3343" />
        <path
           d="m 986.94565,396.71561 0,-0.924 c 0,-0.312 -0.012,-0.324 -0.324,-0.324 l -0.924,0 c -0.312,0 -0.324,0.012 -0.324,0.324 l 0,0.924 c 0,0.312 0.012,0.324 0.324,0.324 l 0.924,0 c 0.312,0 0.324,-0.012 0.324,-0.324"
           style="stroke:none"
           id="path3345" />
        <path
           d="m 990.62534,396.71561 0,-0.924 c 0,-0.312 -0.012,-0.324 -0.324,-0.324 l -0.924,0 c -0.312,0 -0.324,0.012 -0.324,0.324 l 0,0.924 c 0,0.312 0.012,0.324 0.324,0.324 l 0.924,0 c 0.312,0 0.324,-0.012 0.324,-0.324"
           style="stroke:none"
           id="path3347" />
        <path
           d="m 994.30503,396.71561 0,-0.924 c 0,-0.312 -0.012,-0.324 -0.324,-0.324 l -0.924,0 c -0.312,0 -0.324,0.012 -0.324,0.324 l 0,0.924 c 0,0.312 0.012,0.324 0.324,0.324 l 0.924,0 c 0.312,0 0.324,-0.012 0.324,-0.324"
           style="stroke:none"
           id="path3349" />
      </g>
      <path
         style="fill:none"
         clip-path="url(#clipPath2)"
         d="m 904.1131,373.45999 111.185,0 c 2.216,0 4,1.784 4,4 l 0,29.115 c 0,2.216 -1.784,4 -4,4 l -111.185,0 c -2.216,0 -4,-1.784 -4,-4 l 0,-29.115 c 0,-2.216 1.784,-4 4,-4 z"
         id="rect118" />
      <path
         fill="none"
         d="M810.5198 37.115 L810.5198 82.0711"
         clip-path="url(#clipPath2)"
         id="path120" />
      <path
         fill="none"
         d="M770.7915 119.23 L770.7915 149.23 L661.3341 149.23 L661.3341 179.2007"
         clip-path="url(#clipPath2)"
         id="path122" />
      <path
         fill="none"
         d="M810.5198 119.23 L810.5198 179.2007"
         clip-path="url(#clipPath2)"
         id="path124" />
      <path
         fill="none"
         d="M750.8981 100.6725 L735.927 100.6725 L735.927 134.23 L512.1488 134.23 L512.1488 179.1861"
         clip-path="url(#clipPath2)"
         id="path126" />
      <path
         fill="none"
         d="M870.1417 100.6725 L885.1127 100.6725 L885.1127 134.23 L959.7056 134.23 L959.7056 179.1861"
         clip-path="url(#clipPath2)"
         id="path128" />
      <path
         fill="none"
         d="M770.7915 37.115 L770.7915 52.115 L661.3341 52.115 L661.3341 82.0857"
         clip-path="url(#clipPath2)"
         id="path130" />
      <path
         fill="none"
         d="M870.1561 25.542 L959.7056 25.542 L959.7056 82.0874"
         clip-path="url(#clipPath2)"
         id="path132" />
      <path
         fill="none"
         d="M870.0844 11.3044 L1039.2981 11.3044 L1039.2981 246.345 L810.5203 246.345 L810.5203 276.3157"
         clip-path="url(#clipPath2)"
         id="path134" />
      <path
         fill="none"
         d="M810.5203 313.46 L810.5203 373.4307"
         clip-path="url(#clipPath2)"
         id="path136" />
      <path
         fill="none"
         d="M750.884 294.9025 L661.3349 294.9025 L661.3349 373.4216"
         clip-path="url(#clipPath2)"
         id="path138" />
      <path
         fill="none"
         d="M870.1565 294.9025 L959.7056 294.9025 L959.7056 373.4216"
         clip-path="url(#clipPath2)"
         id="path140" />
    </g>
  </g>
  <g
     style="font-size:7.71125603px;font-variant:normal;font-weight:bold;font-stretch:normal;line-height:125%;letter-spacing:0px;word-spacing:0px;fill:#000000;stroke:none;font-family:LMSans10;-inkscape-font-specification:Sans Bold"
     id="text3121">
    <path
       d="m 234.92208,106.92779 c 0,-0.2776 -0.28531,-0.2776 -0.37014,-0.2776 l -0.53979,0 0,-4.59591 c 0,-0.14651 0,-0.37014 -0.33929,-0.37014 -0.15423,0 -0.18507,0.0154 -0.27761,0.10796 -0.1388,0.12338 -0.43183,0.40869 -1.19524,0.42412 -0.1388,0 -0.3393,0.054 -0.3393,0.2776 0,0.27761 0.2699,0.27761 0.37014,0.27761 0.23134,0 0.50124,-0.0386 0.72486,-0.10025 l 0,3.97901 -0.60148,0 c -0.10024,0 -0.37014,0 -0.37014,0.2776 0,0.27761 0.2699,0.27761 0.37014,0.27761 l 2.19771,0 c 0.0848,0 0.37014,0 0.37014,-0.27761"
       style=""
       id="path3141" />
  </g>
  <g
     style="font-size:7.75894976px;font-variant:normal;font-weight:bold;font-stretch:normal;line-height:125%;letter-spacing:0px;word-spacing:0px;fill:#000000;stroke:none;font-family:LMSans10;-inkscape-font-specification:Sans Bold"
     id="text3129">
    <path
       d="m 411.73847,301.06989 0,-0.0931 c 0,-0.12414 0,-0.27156 -0.16294,-0.34139 -0.0543,-0.031 -0.3026,-0.031 -0.45778,-0.031 l -0.52761,0.008 -1.25695,0 1.02419,-0.96986 c 0.11638,-0.10087 0.41122,-0.3414 0.5276,-0.45002 0.42675,-0.41899 0.85349,-0.83021 0.85349,-1.52076 0,-0.94659 -0.68279,-1.78456 -1.82335,-1.78456 -0.27157,0 -0.71383,0.0388 -1.08626,0.3414 -0.0698,0.0543 -0.42674,0.33363 -0.5664,0.85348 l 0.38795,0.49657 c 0.0465,0.0621 0.0698,0.0931 0.12414,0.0931 0.0698,0 0.0854,-0.0543 0.10863,-0.14742 0.15517,-0.53536 0.41898,-0.86124 0.91555,-0.86124 0.6052,0 0.85349,0.55088 0.85349,1.02418 0,0.49657 -0.29484,1.01642 -0.76038,1.513 l -1.48196,1.58282 c -0.0776,0.0776 -0.0776,0.0931 -0.0776,0.22501 l 0,0.0621 c 0,0.27932 0.0854,0.37243 0.37243,0.37243 l 2.66132,0 c 0.29484,0 0.37243,-0.10086 0.37243,-0.37243"
       style=""
       id="path3138" />
  </g>
</svg>
