<?xml version="1.0" encoding="UTF-8" standalone="no"?>
<svg
   xmlns:dc="http://purl.org/dc/elements/1.1/"
   xmlns:cc="http://creativecommons.org/ns#"
   xmlns:rdf="http://www.w3.org/1999/02/22-rdf-syntax-ns#"
   xmlns:svg="http://www.w3.org/2000/svg"
   xmlns="http://www.w3.org/2000/svg"
   xmlns:sodipodi="http://sodipodi.sourceforge.net/DTD/sodipodi-0.dtd"
   xmlns:inkscape="http://www.inkscape.org/namespaces/inkscape"
   fill-opacity="1"
   color-rendering="auto"
   color-interpolation="auto"
   stroke="black"
   text-rendering="auto"
   stroke-linecap="square"
   width="603"
   stroke-miterlimit="10"
   stroke-opacity="1"
   shape-rendering="auto"
   fill="black"
   stroke-dasharray="none"
   font-weight="normal"
   stroke-width="1"
   height="459"
   font-family="'Dialog'"
   font-style="normal"
   stroke-linejoin="miter"
   font-size="12"
   stroke-dashoffset="0"
   image-rendering="auto"
   id="svg2"
   version="1.1"
   inkscape:version="0.48.3.1 r9886"
   sodipodi:docname="menu.svg">
  <metadata
     id="metadata158">
    <rdf:RDF>
      <cc:Work
         rdf:about="">
        <dc:format>image/svg+xml</dc:format>
        <dc:type
           rdf:resource="http://purl.org/dc/dcmitype/StillImage" />
      </cc:Work>
    </rdf:RDF>
  </metadata>
  <sodipodi:namedview
     pagecolor="#ffffff"
     bordercolor="#666666"
     borderopacity="1"
     objecttolerance="10"
     gridtolerance="10"
     guidetolerance="10"
     inkscape:pageopacity="0"
     inkscape:pageshadow="2"
     inkscape:window-width="640"
     inkscape:window-height="480"
     id="namedview156"
     showgrid="false"
     inkscape:zoom="0.51416122"
     inkscape:cx="301.5"
     inkscape:cy="229.5"
     inkscape:window-x="0"
     inkscape:window-y="35"
     inkscape:window-maximized="0"
     inkscape:current-layer="svg2" />
  <!--Generated by ySVG 2.5-->
  <defs
     id="genericDefs" />
  <g
     id="g5">
    <defs
       id="defs1">
      <clipPath
         clipPathUnits="userSpaceOnUse"
         id="clipPath1">
        <path
           d="M0 0 L603 0 L603 459 L0 459 L0 0 Z"
           id="path9" />
      </clipPath>
      <clipPath
         clipPathUnits="userSpaceOnUse"
         id="clipPath2">
        <path
           d="M576 -5 L1179 -5 L1179 454 L576 454 L576 -5 Z"
           id="path12" />
      </clipPath>
    </defs>
    <g
       stroke-linecap="butt"
       transform="matrix(1,0,0,1,-576,5)"
       text-rendering="optimizeQuality"
       font-family="'L M Sans10'"
       shape-rendering="geometricPrecision"
       font-weight="bold"
       stroke-miterlimit="1.45"
       id="g14">
      <g
         clip-path="url(#clipPath2)"
         style="stroke:none"
         id="text16">
        <path
           d="m 789.73517,23.0035 0,-3.324 c 0,-1.235999 -0.528,-1.728 -1.752,-1.728 -0.852,0 -1.512,0.396001 -1.944,1.188 -0.192,-1.151999 -1.212,-1.188 -1.716,-1.188 -0.228,0 -0.732,1e-6 -1.272,0.396 -0.372,0.276 -0.612,0.66 -0.696,0.84 l -0.012,0 0,-0.6 c 0,-0.383999 -0.084,-0.576 -0.576,-0.576 l -0.408,0 c -0.432,0 -0.576,0.132001 -0.576,0.576 l 0,4.416 c 0,0.432 0.132,0.576 0.576,0.576 l 0.48,0 c 0.456,0 0.576,-0.156 0.576,-0.576 l 0,-2.652 c 0,-1.079999 0.732,-1.536 1.32,-1.536 0.576,0 0.708,0.252001 0.708,0.888 l 0,3.3 c 0,0.432 0.132,0.576 0.576,0.576 l 0.48,0 c 0.456,0 0.576,-0.156 0.576,-0.576 l 0,-2.652 c 0,-1.079999 0.732,-1.536 1.32,-1.536 0.576,0 0.708,0.252001 0.708,0.888 l 0,3.3 c 0,0.432 0.132,0.576 0.576,0.576 l 0.48,0 c 0.456,0 0.576,-0.156 0.576,-0.576"
           style="stroke:none"
           id="path3136" />
        <path
           d="m 796.15742,23.0035 0,-3.216 c 0,-1.895998 -1.824,-1.908 -2.424,-1.908 -0.564,0 -1.164,0.048 -1.968,0.384 -0.252,0.108 -0.312,0.144 -0.312,0.276 0,0.084 0.072,0.78 0.084,0.876 0.012,0.072 0.072,0.132 0.156,0.132 0.06,0 0.096,-0.036 0.132,-0.072 0.516,-0.539999 1.116,-0.804 1.86,-0.804 0.648,0 0.84,0.396001 0.84,1.104 l 0,0.42 c -0.42,0 -3.564,0.024 -3.564,1.788 0,0.839999 0.672,1.728 1.728,1.728 0.408,0 1.308,-0.120001 1.872,-0.948 l 0,0.24 c 0,0.384 0.084,0.576 0.576,0.576 l 0.444,0 c 0.456,0 0.576,-0.156 0.576,-0.576 m -1.632,-1.272 c 0,1.115999 -1.14,1.116 -1.176,1.116 -0.504,0 -0.828,-0.432 -0.828,-0.888 0,-1.175999 1.668,-1.26 2.004,-1.272 l 0,1.044"
           style="stroke:none"
           id="path3138" />
        <path
           d="m 799.10211,23.0035 0,-4.344 c 0,-0.383999 -0.084,-0.576 -0.576,-0.576 l -0.444,0 c -0.432,0 -0.576,0.132001 -0.576,0.576 l 0,4.344 c 0,0.432 0.132,0.576 0.576,0.576 l 0.444,0 c 0.456,0 0.576,-0.156 0.576,-0.576 m 0.084,-6.696 0,-0.228 c 0,-0.383999 -0.084,-0.576 -0.576,-0.576 l -0.612,0 c -0.456,0 -0.576,0.156001 -0.576,0.576 l 0,0.228 c 0,0.348 0.06,0.576 0.576,0.576 l 0.612,0 c 0.504,0 0.576,-0.216 0.576,-0.576"
           style="stroke:none"
           id="path3140" />
        <path
           d="m 805.84442,23.0035 0,-3.324 c 0,-1.235999 -0.528,-1.728 -1.752,-1.728 -1.26,0 -1.8,0.912001 -1.956,1.236 l -0.012,0 0,-0.6 c 0,-0.383999 -0.084,-0.576 -0.576,-0.576 l -0.408,0 c -0.432,0 -0.576,0.132001 -0.576,0.576 l 0,4.416 c 0,0.432 0.132,0.576 0.576,0.576 l 0.48,0 c 0.456,0 0.576,-0.156 0.576,-0.576 l 0,-2.652 c 0,-1.043999 0.696,-1.536 1.32,-1.536 0.576,0 0.696,0.276001 0.696,0.888 l 0,3.3 c 0,0.384 0.084,0.576 0.576,0.576 l 0.48,0 c 0.456,0 0.576,-0.156 0.576,-0.576"
           style="stroke:none"
           id="path3142" />
        <path
           d="m 820.64923,23.0035 0,-3.324 c 0,-1.235999 -0.528,-1.728 -1.752,-1.728 -0.852,0 -1.512,0.396001 -1.944,1.188 -0.192,-1.151999 -1.212,-1.188 -1.716,-1.188 -0.228,0 -0.732,1e-6 -1.272,0.396 -0.372,0.276 -0.612,0.66 -0.696,0.84 l -0.012,0 0,-0.6 c 0,-0.383999 -0.084,-0.576 -0.576,-0.576 l -0.408,0 c -0.432,0 -0.576,0.132001 -0.576,0.576 l 0,4.416 c 0,0.432 0.132,0.576 0.576,0.576 l 0.48,0 c 0.456,0 0.576,-0.156 0.576,-0.576 l 0,-2.652 c 0,-1.079999 0.732,-1.536 1.32,-1.536 0.576,0 0.708,0.252001 0.708,0.888 l 0,3.3 c 0,0.432 0.132,0.576 0.576,0.576 l 0.48,0 c 0.456,0 0.576,-0.156 0.576,-0.576 l 0,-2.652 c 0,-1.079999 0.732,-1.536 1.32,-1.536 0.576,0 0.708,0.252001 0.708,0.888 l 0,3.3 c 0,0.432 0.132,0.576 0.576,0.576 l 0.48,0 c 0.456,0 0.576,-0.156 0.576,-0.576"
           style="stroke:none"
           id="path3144" />
        <path
           d="m 827.13148,20.4595 c 0,-1.547998 -0.72,-2.58 -2.508,-2.58 -1.91999,0 -2.868,1.080002 -2.868,2.904 0,1.967998 1.14001,2.928 3.024,2.928 0.456,0 1.14,-0.06 1.932,-0.456 0.264,-0.132 0.348,-0.168 0.348,-0.312 0,-0.084 -0.036,-0.432 -0.048,-0.528 -0.048,-0.371999 -0.06,-0.384 -0.168,-0.384 -0.048,0 -0.072,0 -0.204,0.12 -0.708,0.612 -1.428,0.696 -1.812,0.696 -1.35599,0 -1.5,-1.068001 -1.536,-1.836 l 3.264,0 c 0.276,0 0.576,-0.012 0.576,-0.552 m -1.332,-0.084 -2.496,0 c 0.036,-0.731999 0.276,-1.632 1.32,-1.632 0.96,0 1.14,0.696001 1.176,1.632"
           style="stroke:none"
           id="path3146" />
        <path
           d="m 833.52411,23.0035 0,-3.324 c 0,-1.235999 -0.528,-1.728 -1.752,-1.728 -1.26,0 -1.8,0.912001 -1.956,1.236 l -0.012,0 0,-0.6 c 0,-0.383999 -0.084,-0.576 -0.576,-0.576 l -0.408,0 c -0.432,0 -0.576,0.132001 -0.576,0.576 l 0,4.416 c 0,0.432 0.132,0.576 0.576,0.576 l 0.48,0 c 0.456,0 0.576,-0.156 0.576,-0.576 l 0,-2.652 c 0,-1.043999 0.696,-1.536 1.32,-1.536 0.576,0 0.696,0.276001 0.696,0.888 l 0,3.3 c 0,0.384 0.084,0.576 0.576,0.576 l 0.48,0 c 0.456,0 0.576,-0.156 0.576,-0.576"
           style="stroke:none"
           id="path3148" />
        <path
           d="m 840.25067,23.0035 0,-4.344 c 0,-0.383999 -0.084,-0.576 -0.576,-0.576 l -0.48,0 c -0.456,0 -0.576,0.156001 -0.576,0.576 l 0,2.844 c 0,0.791999 -0.42,1.476 -1.272,1.476 -0.672,0 -0.744,-0.168 -0.744,-0.804 l 0,-3.516 c 0,-0.383999 -0.084,-0.576 -0.576,-0.576 l -0.48,0 c -0.432,0 -0.576,0.132001 -0.576,0.576 l 0,3.408 c 0,1.283999 0.696,1.644 1.944,1.644 0.324,0 1.176,-1e-6 1.74,-1.02 l 0,0.312 c 0,0.384 0.084,0.576 0.576,0.576 l 0.444,0 c 0.456,0 0.576,-0.156 0.576,-0.576"
           style="stroke:none"
           id="path3150" />
      </g>
    </g>
    <g
       text-rendering="optimizeQuality"
       stroke-miterlimit="1.45"
       shape-rendering="geometricPrecision"
       transform="matrix(1,0,0,1,-576,5)"
       stroke-linecap="butt"
       id="g18">
      <path
         style="fill:none"
         clip-path="url(#clipPath2)"
         d="m 754.92688,0 111.185,0 c 2.216,0 4,1.784 4,4 l 0,29.115002 c 0,2.216 -1.784,4 -4,4 l -111.185,0 c -2.216,0 -4,-1.784 -4,-4 L 750.92688,4 c 0,-2.216 1.784,-4 4,-4 z"
         id="rect20" />
      <g
         clip-path="url(#clipPath2)"
         style="font-weight:bold;stroke:none;font-family:L M Sans10"
         id="text22">
        <path
           d="m 794.59533,105.0945 c 0,-0.132 -0.048,-0.684 -0.072,-0.84 0,-0.036 -0.024,-0.156 -0.144,-0.156 -0.048,0 -0.072,0 -0.192,0.12 -0.204,0.18 -0.768,0.672 -1.752,0.672 -1.248,0 -1.248,-1.212 -1.248,-1.98 0,-0.972 0.06,-1.98 1.284,-1.98 0.78,0 1.104,0.192 1.536,0.552 0.144,0.132 0.168,0.132 0.216,0.132 0.12,0 0.144,-0.108 0.156,-0.156 0.024,-0.096 0.144,-0.768 0.144,-0.828 0,-0.108 -0.084,-0.156 -0.288,-0.252 -0.576,-0.264 -0.936,-0.383996 -1.776,-0.383996 -1.788,0 -2.904,0.840006 -2.904,2.939996 0,1.992 1.032,2.892 2.844,2.892 0.324,0 1.044,-0.012 1.848,-0.42 0.336,-0.18 0.348,-0.192 0.348,-0.312"
           style="font-weight:bold;stroke:none;font-family:L M Sans10"
           id="path3154" />
        <path
           d="m 799.2427,100.9545 0,-0.564 c 0,-0.24 0,-0.324 -0.216,-0.324 -0.336,0 -1.212,0.12001 -1.776,1.416 l -0.012,0 0,-0.78 c 0,-0.384 -0.084,-0.576 -0.576,-0.576 l -0.384,0 c -0.432,0 -0.576,0.132 -0.576,0.576 l 0,4.416 c 0,0.432 0.132,0.576 0.576,0.576 l 0.444,0 c 0.456,0 0.576,-0.156 0.576,-0.576 l 0,-2.184 c 0,-1.14 0.948,-1.608 1.704,-1.656 0.216,-0.012 0.24,-0.012 0.24,-0.324"
           style="font-weight:bold;stroke:none;font-family:L M Sans10"
           id="path3156" />
        <path
           d="m 805.17183,102.5745 c 0,-1.54799 -0.72,-2.579996 -2.508,-2.579996 -1.92,0 -2.868,1.080006 -2.868,2.903996 0,1.968 1.14,2.928 3.024,2.928 0.456,0 1.14,-0.06 1.932,-0.456 0.264,-0.132 0.348,-0.168 0.348,-0.312 0,-0.084 -0.036,-0.432 -0.048,-0.528 -0.048,-0.372 -0.06,-0.384 -0.168,-0.384 -0.048,0 -0.072,0 -0.204,0.12 -0.708,0.612 -1.428,0.696 -1.812,0.696 -1.356,0 -1.5,-1.068 -1.536,-1.836 l 3.264,0 c 0.276,0 0.576,-0.012 0.576,-0.552 m -1.332,-0.084 -2.496,0 c 0.036,-0.732 0.276,-1.632 1.32,-1.632 0.96,0 1.14,0.696 1.176,1.632"
           style="font-weight:bold;stroke:none;font-family:L M Sans10"
           id="path3158" />
        <path
           d="m 811.25245,105.1185 0,-3.216 c 0,-1.89599 -1.824,-1.907996 -2.424,-1.907996 -0.564,0 -1.164,0.048 -1.968,0.383996 -0.252,0.108 -0.312,0.144 -0.312,0.276 0,0.084 0.072,0.78 0.084,0.876 0.012,0.072 0.072,0.132 0.156,0.132 0.06,0 0.096,-0.036 0.132,-0.072 0.516,-0.54 1.116,-0.804 1.86,-0.804 0.648,0 0.84,0.396 0.84,1.104 l 0,0.42 c -0.42,0 -3.564,0.024 -3.564,1.788 0,0.84 0.672,1.728 1.728,1.728 0.408,0 1.308,-0.12 1.872,-0.948 l 0,0.24 c 0,0.384 0.084,0.576 0.576,0.576 l 0.444,0 c 0.456,0 0.576,-0.156 0.576,-0.576 m -1.632,-1.272 c 0,1.116 -1.14,1.116 -1.176,1.116 -0.504,0 -0.828,-0.432 -0.828,-0.888 0,-1.176 1.668,-1.26 2.004,-1.272 l 0,1.044"
           style="font-weight:bold;stroke:none;font-family:L M Sans10"
           id="path3160" />
        <path
           d="m 816.34514,105.1305 c 0,-0.036 -0.024,-0.12 -0.096,-0.372 -0.06,-0.24 -0.084,-0.312 -0.192,-0.312 -0.06,0 -0.072,0.012 -0.144,0.084 -0.132,0.096 -0.456,0.36 -0.96,0.36 -0.288,0 -0.468,-0.204 -0.468,-0.996 l 0,-2.832 1.068,0 c 0.144,0 0.576,0 0.576,-0.432 0,-0.432 -0.432,-0.432 -0.576,-0.432 l -1.068,0 0,-0.995996 c 0,-0.384 -0.084,-0.576 -0.576,-0.576 l -0.372,0 c -0.432,0 -0.576,0.132 -0.576,0.576 l 0,0.995996 -0.276,0 c -0.132,0 -0.576,0 -0.576,0.432 0,0.432 0.432,0.432 0.576,0.432 l 0.24,0 0,3.036 c 0,1.212 0.432,1.728 1.26,1.728 0.108,0 0.636,0 1.26,-0.192 0.204,-0.06 0.9,-0.276 0.9,-0.504"
           style="font-weight:bold;stroke:none;font-family:L M Sans10"
           id="path3162" />
        <path
           d="m 819.0487,105.1185 0,-4.344 c 0,-0.384 -0.084,-0.576 -0.576,-0.576 l -0.444,0 c -0.432,0 -0.576,0.132 -0.576,0.576 l 0,4.344 c 0,0.432 0.132,0.576 0.576,0.576 l 0.444,0 c 0.456,0 0.576,-0.156 0.576,-0.576 m 0.084,-6.695996 0,-0.228 c 0,-0.384 -0.084,-0.576 -0.576,-0.576 l -0.612,0 c -0.456,0 -0.576,0.156 -0.576,0.576 l 0,0.228 c 0,0.347999 0.06,0.576 0.576,0.576 l 0.612,0 c 0.504,0 0.576,-0.216001 0.576,-0.576"
           style="font-weight:bold;stroke:none;font-family:L M Sans10"
           id="path3164" />
        <path
           d="m 825.46702,100.5345 c 0,-0.336 -0.3,-0.336 -0.48,-0.336 l -0.252,0 c -0.504,0 -0.636,0.18 -0.744,0.516 l -1.188,3.624 -1.188,-3.624 c -0.084,-0.252 -0.168,-0.516 -0.744,-0.516 l -0.288,0 c -0.18,0 -0.48,0 -0.48,0.336 0,0.036 0,0.06 0.06,0.228 l 1.428,4.428 c 0.168,0.504 0.54,0.504 0.756,0.504 l 0.876,0 c 0.216,0 0.588,0 0.756,-0.504 l 1.428,-4.428 c 0.06,-0.168 0.06,-0.192 0.06,-0.228"
           style="font-weight:bold;stroke:none;font-family:L M Sans10"
           id="path3166" />
        <path
           d="m 831.53902,102.5745 c 0,-1.54799 -0.72001,-2.579996 -2.508,-2.579996 -1.92,0 -2.868,1.080006 -2.868,2.903996 0,1.968 1.14,2.928 3.024,2.928 0.456,0 1.14,-0.06 1.932,-0.456 0.264,-0.132 0.348,-0.168 0.348,-0.312 0,-0.084 -0.036,-0.432 -0.048,-0.528 -0.048,-0.372 -0.06,-0.384 -0.168,-0.384 -0.048,0 -0.072,0 -0.204,0.12 -0.708,0.612 -1.428,0.696 -1.812,0.696 -1.356,0 -1.5,-1.068 -1.536,-1.836 l 3.264,0 c 0.276,0 0.576,-0.012 0.576,-0.552 m -1.332,-0.084 -2.496,0 c 0.036,-0.732 0.276,-1.632 1.32,-1.632 0.95999,0 1.14,0.696 1.176,1.632"
           style="font-weight:bold;stroke:none;font-family:L M Sans10"
           id="path3168" />
      </g>
      <path
         style="fill:none"
         clip-path="url(#clipPath2)"
         d="m 754.92688,82.114998 111.185,0 c 2.216,0 4,1.784 4,4 l 0,29.115002 c 0,2.216 -1.784,4 -4,4 l -111.185,0 c -2.216,0 -4,-1.784 -4,-4 l 0,-29.115002 c 0,-2.216 1.784,-4 4,-4 z"
         id="rect24" />
      <g
         clip-path="url(#clipPath2)"
         style="font-weight:bold;stroke:none;font-family:L M Sans10"
         id="text26">
        <path
           d="m 1014.4614,105.0945 c 0,-0.132 -0.048,-0.684 -0.072,-0.84 0,-0.036 -0.024,-0.156 -0.144,-0.156 -0.048,0 -0.072,0 -0.192,0.12 -0.204,0.18 -0.768,0.672 -1.752,0.672 -1.248,0 -1.248,-1.212 -1.248,-1.98 0,-0.972 0.06,-1.98 1.284,-1.98 0.78,0 1.104,0.192 1.536,0.552 0.144,0.132 0.168,0.132 0.216,0.132 0.12,0 0.144,-0.108 0.156,-0.156 0.024,-0.096 0.144,-0.768 0.144,-0.828 0,-0.108 -0.084,-0.156 -0.288,-0.252 -0.576,-0.264 -0.936,-0.383996 -1.776,-0.383996 -1.788,0 -2.904,0.840006 -2.904,2.939996 0,1.992 1.032,2.892 2.844,2.892 0.324,0 1.044,-0.012 1.848,-0.42 0.336,-0.18 0.348,-0.192 0.348,-0.312"
           style="font-weight:bold;stroke:none;font-family:L M Sans10"
           id="path3172" />
        <path
           d="m 1020.8368,105.1185 0,-3.324 c 0,-1.23599 -0.528,-1.728 -1.752,-1.728 -1.2,0 -1.752,0.828 -1.92,1.164 l -0.012,0 0,-3.287996 c 0,-0.384 -0.084,-0.576 -0.576,-0.576 l -0.444,0 c -0.432,0 -0.576,0.132 -0.576,0.576 l 0,7.175996 c 0,0.432 0.132,0.576 0.576,0.576 l 0.48,0 c 0.456,0 0.576,-0.156 0.576,-0.576 l 0,-2.652 c 0,-1.044 0.696,-1.536 1.32,-1.536 0.576,0 0.696,0.276 0.696,0.888 l 0,3.3 c 0,0.384 0.084,0.576 0.576,0.576 l 0.48,0 c 0.456,0 0.576,-0.156 0.576,-0.576"
           style="font-weight:bold;stroke:none;font-family:L M Sans10"
           id="path3174" />
        <path
           d="m 1027.2514,105.1185 0,-3.216 c 0,-1.89599 -1.824,-1.907996 -2.424,-1.907996 -0.564,0 -1.164,0.048 -1.968,0.383996 -0.252,0.108 -0.312,0.144 -0.312,0.276 0,0.084 0.072,0.78 0.084,0.876 0.012,0.072 0.072,0.132 0.156,0.132 0.06,0 0.096,-0.036 0.132,-0.072 0.516,-0.54 1.116,-0.804 1.86,-0.804 0.648,0 0.84,0.396 0.84,1.104 l 0,0.42 c -0.42,0 -3.564,0.024 -3.564,1.788 0,0.84 0.672,1.728 1.728,1.728 0.408,0 1.308,-0.12 1.872,-0.948 l 0,0.24 c 0,0.384 0.084,0.576 0.576,0.576 l 0.444,0 c 0.456,0 0.576,-0.156 0.576,-0.576 m -1.632,-1.272 c 0,1.116 -1.14,1.116 -1.176,1.116 -0.504,0 -0.828,-0.432 -0.828,-0.888 0,-1.176 1.668,-1.26 2.004,-1.272 l 0,1.044"
           style="font-weight:bold;stroke:none;font-family:L M Sans10"
           id="path3176" />
        <path
           d="m 1030.196,105.1185 0,-7.175996 c 0,-0.384 -0.084,-0.576 -0.576,-0.576 l -0.444,0 c -0.432,0 -0.576,0.132 -0.576,0.576 l 0,7.175996 c 0,0.432 0.132,0.576 0.576,0.576 l 0.444,0 c 0.456,0 0.576,-0.156 0.576,-0.576"
           style="font-weight:bold;stroke:none;font-family:L M Sans10"
           id="path3178" />
        <path
           d="m 1033.2664,105.1185 0,-7.175996 c 0,-0.384 -0.084,-0.576 -0.576,-0.576 l -0.444,0 c -0.432,0 -0.576,0.132 -0.576,0.576 l 0,7.175996 c 0,0.432 0.132,0.576 0.576,0.576 l 0.444,0 c 0.456,0 0.576,-0.156 0.576,-0.576"
           style="font-weight:bold;stroke:none;font-family:L M Sans10"
           id="path3180" />
        <path
           d="m 1039.7567,102.5745 c 0,-1.54799 -0.72,-2.579996 -2.508,-2.579996 -1.92,0 -2.868,1.080006 -2.868,2.903996 0,1.968 1.14,2.928 3.024,2.928 0.456,0 1.14,-0.06 1.932,-0.456 0.264,-0.132 0.348,-0.168 0.348,-0.312 0,-0.084 -0.036,-0.432 -0.048,-0.528 -0.048,-0.372 -0.06,-0.384 -0.168,-0.384 -0.048,0 -0.072,0 -0.204,0.12 -0.708,0.612 -1.428,0.696 -1.812,0.696 -1.356,0 -1.5,-1.068 -1.536,-1.836 l 3.264,0 c 0.276,0 0.576,-0.012 0.576,-0.552 m -1.332,-0.084 -2.496,0 c 0.036,-0.732 0.276,-1.632 1.32,-1.632 0.96,0 1.14,0.696 1.176,1.632"
           style="font-weight:bold;stroke:none;font-family:L M Sans10"
           id="path3182" />
        <path
           d="m 1046.1493,105.1185 0,-3.324 c 0,-1.23599 -0.528,-1.728 -1.752,-1.728 -1.26,0 -1.8,0.912 -1.956,1.236 l -0.012,0 0,-0.6 c 0,-0.384 -0.084,-0.576 -0.576,-0.576 l -0.408,0 c -0.432,0 -0.576,0.132 -0.576,0.576 l 0,4.416 c 0,0.432 0.132,0.576 0.576,0.576 l 0.48,0 c 0.456,0 0.576,-0.156 0.576,-0.576 l 0,-2.652 c 0,-1.044 0.696,-1.536 1.32,-1.536 0.576,0 0.696,0.276 0.696,0.888 l 0,3.3 c 0,0.384 0.084,0.576 0.576,0.576 l 0.48,0 c 0.456,0 0.576,-0.156 0.576,-0.576"
           style="font-weight:bold;stroke:none;font-family:L M Sans10"
           id="path3184" />
        <path
           d="m 1053.2839,100.8345 c 0,-0.048 -0.06,-0.336 -0.084,-0.456 -0.048,-0.288 -0.048,-0.312 -0.264,-0.312 -0.372,0 -0.972,0.144 -1.428,0.42 -0.564,-0.372 -1.188,-0.42 -1.704,-0.42 -0.504,0 -2.412,10e-6 -2.412,1.98 0,0.48 0.132,1.08 0.588,1.476 -0.324,0.444 -0.324,0.912 -0.324,0.972 0,0.228 0.072,0.624 0.324,0.948 -0.18,0.072 -0.804,0.288 -0.804,1.056 0,0.372 0.18,0.996 0.936,1.344 0.684,0.312 1.488,0.324 2.052,0.324 0.708,0 3,0 3,-1.704 0,-1.87199 -1.692,-1.872 -3.312,-1.872 l -0.576,0 c -0.432,0 -0.6,0 -0.768,-0.144 -0.048,-0.048 -0.252,-0.228 -0.252,-0.54 0,-0.084 0.012,-0.108 0.024,-0.18 0.564,0.312 1.272,0.312 1.524,0.312 0.504,0 2.412,0 2.412,-1.98 0,-0.696 -0.264,-1.116 -0.372,-1.248 0.204,0 0.624,0 1.116,0.132 0.048,0.024 0.132,0.048 0.168,0.048 0.096,0 0.156,-0.072 0.156,-0.156 m -2.604,1.212 c 0,0.66 -0.036,1.128 -0.876,1.128 -0.84,0 -0.876,-0.456 -0.876,-1.116 0,-0.66 0.036,-1.128 0.876,-1.128 0.84,0 0.876,0.456 0.876,1.116 m 1.248,4.452 c 0,0.804 -1.368,0.804 -1.752,0.804 -0.48,0 -1.764,0 -1.764,-0.84 0,-0.564 0.372,-0.564 0.648,-0.564 l 1.392,0 c 0.972,0 1.476,0.168 1.476,0.6"
           style="font-weight:bold;stroke:none;font-family:L M Sans10"
           id="path3186" />
        <path
           d="m 1059.2332,102.5745 c 0,-1.54799 -0.72,-2.579996 -2.508,-2.579996 -1.92,0 -2.868,1.080006 -2.868,2.903996 0,1.968 1.14,2.928 3.024,2.928 0.456,0 1.14,-0.06 1.932,-0.456 0.264,-0.132 0.348,-0.168 0.348,-0.312 0,-0.084 -0.036,-0.432 -0.048,-0.528 -0.048,-0.372 -0.06,-0.384 -0.168,-0.384 -0.048,0 -0.072,0 -0.204,0.12 -0.708,0.612 -1.428,0.696 -1.812,0.696 -1.356,0 -1.5,-1.068 -1.536,-1.836 l 3.264,0 c 0.276,0 0.576,-0.012 0.576,-0.552 m -1.332,-0.084 -2.496,0 c 0.036,-0.732 0.276,-1.632 1.32,-1.632 0.96,0 1.14,0.696 1.176,1.632"
           style="font-weight:bold;stroke:none;font-family:L M Sans10"
           id="path3188" />
      </g>
      <path
         style="fill:none"
         clip-path="url(#clipPath2)"
         d="m 978.70508,82.114998 111.18502,0 c 2.216,0 4,1.784 4,4 l 0,29.115002 c 0,2.216 -1.784,4 -4,4 l -111.18502,0 c -2.216,0 -4,-1.784 -4,-4 l 0,-29.115002 c 0,-2.216 1.784,-4 4,-4 z"
         id="rect28" />
    </g>
    <g
       transform="matrix(1,0,0,1,-576,5)"
       fill-opacity="0.2"
       fill="rgb(0,0,0)"
       text-rendering="optimizeQuality"
       shape-rendering="geometricPrecision"
       stroke="rgb(0,0,0)"
       stroke-opacity="0.2"
       id="g30">
      <path
         style="stroke:none"
         clip-path="url(#clipPath2)"
         d="m 1058.2976,246.95959 111.185,0 c 2.216,0 4,1.784 4,4 l 0,29.11501 c 0,2.216 -1.784,4 -4,4 l -111.185,0 c -2.216,0 -4,-1.784 -4,-4 l 0,-29.11501 c 0,-2.216 1.784,-4 4,-4 z"
         id="rect32" />
    </g>
    <g
       stroke-linecap="butt"
       transform="matrix(1,0,0,1,-576,5)"
       text-rendering="optimizeQuality"
       font-family="'L M Sans10'"
       shape-rendering="geometricPrecision"
       font-weight="bold"
       stroke-miterlimit="1.45"
       id="g34">
      <g
         clip-path="url(#clipPath2)"
         style="stroke:none"
         id="text36">
        <path
           d="m 1101.2839,269.93922 c 0,-0.132 -0.048,-0.68401 -0.072,-0.84 0,-0.036 -0.024,-0.156 -0.144,-0.156 -0.048,0 -0.072,0 -0.192,0.12 -0.204,0.17999 -0.768,0.672 -1.752,0.672 -1.248,0 -1.248,-1.21201 -1.248,-1.98 0,-0.972 0.06,-1.98 1.284,-1.98 0.78,0 1.104,0.192 1.536,0.552 0.144,0.13199 0.168,0.132 0.216,0.132 0.12,0 0.144,-0.108 0.156,-0.156 0.024,-0.096 0.144,-0.768 0.144,-0.828 0,-0.108 -0.084,-0.15601 -0.288,-0.252 -0.576,-0.264 -0.936,-0.384 -1.776,-0.384 -1.788,0 -2.904,0.84 -2.904,2.94 0,1.99199 1.032,2.892 2.844,2.892 0.324,0 1.044,-0.012 1.848,-0.42 0.336,-0.18 0.348,-0.19201 0.348,-0.312"
           style="stroke:none"
           id="path3193" />
        <path
           d="m 1105.9313,265.79922 0,-0.564 c 0,-0.24 0,-0.324 -0.216,-0.324 -0.336,0 -1.212,0.12 -1.776,1.416 l -0.012,0 0,-0.78 c 0,-0.384 -0.084,-0.576 -0.576,-0.576 l -0.384,0 c -0.432,0 -0.576,0.132 -0.576,0.576 l 0,4.416 c 0,0.43199 0.132,0.576 0.576,0.576 l 0.444,0 c 0.456,0 0.576,-0.15601 0.576,-0.576 l 0,-2.184 c 0,-1.14 0.948,-1.608 1.704,-1.656 0.216,-0.012 0.24,-0.012 0.24,-0.324"
           style="stroke:none"
           id="path3195" />
        <path
           d="m 1111.8604,267.41922 c 0,-1.548 -0.72,-2.58 -2.508,-2.58 -1.92,0 -2.868,1.08 -2.868,2.904 0,1.96799 1.14,2.928 3.024,2.928 0.456,0 1.14,-0.06 1.932,-0.456 0.264,-0.132 0.348,-0.16801 0.348,-0.312 0,-0.084 -0.036,-0.43201 -0.048,-0.528 -0.048,-0.372 -0.06,-0.384 -0.168,-0.384 -0.048,0 -0.072,0 -0.204,0.12 -0.708,0.61199 -1.428,0.696 -1.812,0.696 -1.356,0 -1.5,-1.06801 -1.536,-1.836 l 3.264,0 c 0.276,0 0.576,-0.012 0.576,-0.552 m -1.332,-0.084 -2.496,0 c 0.036,-0.732 0.276,-1.632 1.32,-1.632 0.96,0 1.14,0.696 1.176,1.632"
           style="stroke:none"
           id="path3197" />
        <path
           d="m 1118.2411,269.96322 0,-7.176 c 0,-0.384 -0.084,-0.576 -0.576,-0.576 l -0.444,0 c -0.456,0 -0.576,0.156 -0.576,0.576 l 0,2.724 c -0.54,-0.516 -1.14,-0.6 -1.512,-0.6 -2.436,0 -2.436,2.304 -2.436,2.892 0,0.55199 0,2.868 2.376,2.868 0.504,0 1.02,-0.14401 1.536,-0.696 0,0.44399 0.168,0.564 0.576,0.564 l 0.48,0 c 0.456,0 0.576,-0.15601 0.576,-0.576 m -1.632,-0.924 c 0,0.20399 0,0.312 -0.348,0.552 -0.3,0.19199 -0.576,0.216 -0.72,0.216 -1.212,0 -1.212,-1.10401 -1.212,-2.004 0,-0.9 0,-2.028 1.344,-2.028 0.348,0 0.672,0.12 0.936,0.372 l 0,2.892"
           style="stroke:none"
           id="path3199" />
        <path
           d="m 1121.3076,269.96322 0,-4.344 c 0,-0.384 -0.084,-0.576 -0.576,-0.576 l -0.444,0 c -0.432,0 -0.576,0.132 -0.576,0.576 l 0,4.344 c 0,0.43199 0.132,0.576 0.576,0.576 l 0.444,0 c 0.456,0 0.576,-0.15601 0.576,-0.576 m 0.084,-6.696 0,-0.228 c 0,-0.384 -0.084,-0.576 -0.576,-0.576 l -0.612,0 c -0.456,0 -0.576,0.156 -0.576,0.576 l 0,0.228 c 0,0.34799 0.06,0.576 0.576,0.576 l 0.612,0 c 0.504,0 0.576,-0.21601 0.576,-0.576"
           style="stroke:none"
           id="path3201" />
        <path
           d="m 1126.5259,269.97522 c 0,-0.036 -0.024,-0.12001 -0.096,-0.372 -0.06,-0.24 -0.084,-0.312 -0.192,-0.312 -0.06,0 -0.072,0.012 -0.144,0.084 -0.132,0.096 -0.456,0.36 -0.96,0.36 -0.288,0 -0.468,-0.20401 -0.468,-0.996 l 0,-2.832 1.068,0 c 0.144,0 0.576,-10e-6 0.576,-0.432 0,-0.432 -0.432,-0.432 -0.576,-0.432 l -1.068,0 0,-0.996 c 0,-0.384 -0.084,-0.576 -0.576,-0.576 l -0.372,0 c -0.432,0 -0.576,0.132 -0.576,0.576 l 0,0.996 -0.276,0 c -0.132,0 -0.576,0 -0.576,0.432 0,0.43199 0.432,0.432 0.576,0.432 l 0.24,0 0,3.036 c 0,1.21199 0.432,1.728 1.26,1.728 0.108,0 0.636,-1e-5 1.26,-0.192 0.204,-0.06 0.9,-0.27601 0.9,-0.504"
           style="stroke:none"
           id="path3203" />
        <path
           d="m 1131.6535,268.84722 c 0,-0.672 -0.36,-1.09201 -0.576,-1.284 -0.48,-0.432 -0.9,-0.50401 -1.404,-0.6 -0.66,-0.12 -1.14,-0.21601 -1.14,-0.684 0,-0.492 0.396,-0.588 0.864,-0.588 0.804,0 1.236,0.3 1.548,0.564 0.12,0.11999 0.144,0.12 0.192,0.12 0.12,0 0.144,-0.108 0.156,-0.156 0.024,-0.096 0.144,-0.768 0.144,-0.828 0,-0.192 -0.636,-0.36 -0.768,-0.408 -0.48,-0.132 -0.864,-0.144 -1.176,-0.144 -0.54,0 -2.148,0 -2.148,1.716 0,0.58799 0.264,0.948 0.588,1.236 0.42,0.38399 0.888,0.468 1.572,0.6 0.348,0.06 0.96,0.168 0.96,0.696 0,0.56399 -0.468,0.648 -0.936,0.648 -0.528,0 -1.2,-0.15601 -1.764,-0.828 -0.06,-0.06 -0.096,-0.096 -0.168,-0.096 -0.12,0 -0.144,0.108 -0.156,0.18 -0.024,0.16799 -0.168,0.852 -0.168,0.972 0,0.21599 0.9,0.504 0.9,0.504 0.66,0.20399 1.152,0.204 1.356,0.204 0.612,0 2.124,-0.048 2.124,-1.824"
           style="stroke:none"
           id="path3205" />
      </g>
      <path
         style="fill:none"
         clip-path="url(#clipPath2)"
         d="m 1058.2976,246.95959 111.185,0 c 2.216,0 4,1.784 4,4 l 0,29.11501 c 0,2.216 -1.784,4 -4,4 l -111.185,0 c -2.216,0 -4,-1.784 -4,-4 l 0,-29.11501 c 0,-2.216 1.784,-4 4,-4 z"
         id="rect38" />
    </g>
    <g
       transform="matrix(1,0,0,1,-576,5)"
       fill-opacity="0.2"
       fill="rgb(0,0,0)"
       text-rendering="optimizeQuality"
       shape-rendering="geometricPrecision"
       stroke="rgb(0,0,0)"
       stroke-opacity="0.2"
       id="g40">
      <path
         style="stroke:none"
         clip-path="url(#clipPath2)"
         d="m 904.1123,329.68921 111.185,0 c 2.216,0 4,1.784 4,4 l 0,29.115 c 0,2.216 -1.784,4 -4,4 l -111.185,0 c -2.216,0 -4,-1.784 -4,-4 l 0,-29.115 c 0,-2.216 1.784,-4 4,-4 z"
         id="rect42" />
    </g>
    <g
       stroke-linecap="butt"
       transform="matrix(1,0,0,1,-576,5)"
       text-rendering="optimizeQuality"
       font-family="'L M Sans10'"
       shape-rendering="geometricPrecision"
       font-weight="bold"
       stroke-miterlimit="1.45"
       id="g44">
      <g
         clip-path="url(#clipPath2)"
         style="stroke:none"
         id="text46">
        <path
           d="m 943.2766,351.5768 c 0,-0.672 -0.36,-1.092 -0.576,-1.284 -0.48,-0.432 -0.9,-0.504 -1.404,-0.6 -0.66,-0.12 -1.14,-0.216 -1.14,-0.684 0,-0.492 0.396,-0.588 0.864,-0.588 0.804,0 1.236,0.3 1.548,0.564 0.12,0.12 0.144,0.12 0.192,0.12 0.12,0 0.144,-0.108 0.156,-0.156 0.024,-0.096 0.144,-0.768 0.144,-0.828 0,-0.192 -0.636,-0.36 -0.768,-0.408 -0.48,-0.132 -0.864,-0.144 -1.176,-0.144 -0.54,0 -2.148,0 -2.148,1.716 0,0.588 0.264,0.948 0.588,1.236 0.42,0.384 0.888,0.468 1.572,0.6 0.348,0.06 0.96,0.168 0.96,0.696 0,0.564 -0.468,0.648 -0.936,0.648 -0.528,0 -1.2,-0.156 -1.764,-0.828 -0.06,-0.06 -0.096,-0.096 -0.168,-0.096 -0.12,0 -0.144,0.108 -0.156,0.18 -0.024,0.168 -0.168,0.852 -0.168,0.972 0,0.216 0.9,0.504 0.9,0.504 0.66,0.204 1.152,0.204 1.356,0.204 0.612,0 2.124,-0.048 2.124,-1.824"
           style="stroke:none"
           id="path3210" />
        <path
           d="m 949.3351,350.1488 c 0,-1.548 -0.72,-2.58 -2.508,-2.58 -1.92,0 -2.868,1.08 -2.868,2.904 0,1.968 1.14,2.928 3.024,2.928 0.456,0 1.14,-0.06 1.932,-0.456 0.264,-0.132 0.348,-0.168 0.348,-0.312 0,-0.084 -0.036,-0.432 -0.048,-0.528 -0.048,-0.372 -0.06,-0.384 -0.168,-0.384 -0.048,0 -0.072,0 -0.204,0.12 -0.708,0.612 -1.428,0.696 -1.812,0.696 -1.356,0 -1.5,-1.068 -1.536,-1.836 l 3.264,0 c 0.276,0 0.576,-0.012 0.576,-0.552 m -1.332,-0.084 -2.496,0 c 0.036,-0.732 0.276,-1.632 1.32,-1.632 0.96,0 1.14,0.696 1.176,1.632"
           style="stroke:none"
           id="path3212" />
        <path
           d="m 954.20372,352.7048 c 0,-0.036 -0.024,-0.12 -0.096,-0.372 -0.06,-0.24 -0.084,-0.312 -0.192,-0.312 -0.06,0 -0.072,0.012 -0.144,0.084 -0.132,0.096 -0.456,0.36 -0.96,0.36 -0.288,0 -0.468,-0.204 -0.468,-0.996 l 0,-2.832 1.068,0 c 0.144,0 0.576,0 0.576,-0.432 0,-0.432 -0.432,-0.432 -0.576,-0.432 l -1.068,0 0,-0.996 c 0,-0.384 -0.084,-0.576 -0.576,-0.576 l -0.372,0 c -0.432,0 -0.576,0.132 -0.576,0.576 l 0,0.996 -0.276,0 c -0.132,0 -0.576,0 -0.576,0.432 0,0.432 0.432,0.432 0.576,0.432 l 0.24,0 0,3.036 c 0,1.212 0.432,1.728 1.26,1.728 0.108,0 0.636,0 1.26,-0.192 0.204,-0.06 0.9,-0.276 0.9,-0.504"
           style="stroke:none"
           id="path3214" />
        <path
           d="m 959.05528,352.7048 c 0,-0.036 -0.024,-0.12 -0.096,-0.372 -0.06,-0.24 -0.084,-0.312 -0.192,-0.312 -0.06,0 -0.072,0.012 -0.144,0.084 -0.132,0.096 -0.456,0.36 -0.96,0.36 -0.288,0 -0.468,-0.204 -0.468,-0.996 l 0,-2.832 1.068,0 c 0.144,0 0.576,0 0.576,-0.432 0,-0.432 -0.432,-0.432 -0.576,-0.432 l -1.068,0 0,-0.996 c 0,-0.384 -0.084,-0.576 -0.576,-0.576 l -0.372,0 c -0.43199,0 -0.576,0.132 -0.576,0.576 l 0,0.996 -0.276,0 c -0.132,0 -0.576,0 -0.576,0.432 0,0.432 0.432,0.432 0.576,0.432 l 0.24,0 0,3.036 c 0,1.212 0.43201,1.728 1.26,1.728 0.108,0 0.63601,0 1.26,-0.192 0.204,-0.06 0.9,-0.276 0.9,-0.504"
           style="stroke:none"
           id="path3216" />
        <path
           d="m 961.75885,352.6928 0,-4.344 c 0,-0.384 -0.084,-0.576 -0.576,-0.576 l -0.444,0 c -0.432,0 -0.576,0.132 -0.576,0.576 l 0,4.344 c 0,0.432 0.132,0.576 0.576,0.576 l 0.444,0 c 0.456,0 0.576,-0.156 0.576,-0.576 m 0.084,-6.696 0,-0.228 c 0,-0.384 -0.084,-0.576 -0.576,-0.576 l -0.612,0 c -0.456,0 -0.576,0.156 -0.576,0.576 l 0,0.228 c 0,0.348 0.06,0.576 0.576,0.576 l 0.612,0 c 0.504,0 0.576,-0.216 0.576,-0.576"
           style="stroke:none"
           id="path3218" />
        <path
           d="m 968.50116,352.6928 0,-3.324 c 0,-1.236 -0.528,-1.728 -1.752,-1.728 -1.26,0 -1.8,0.912 -1.956,1.236 l -0.012,0 0,-0.6 c 0,-0.384 -0.084,-0.576 -0.576,-0.576 l -0.408,0 c -0.432,0 -0.576,0.132 -0.576,0.576 l 0,4.416 c 0,0.432 0.132,0.576 0.576,0.576 l 0.48,0 c 0.456,0 0.576,-0.156 0.576,-0.576 l 0,-2.652 c 0,-1.044 0.696,-1.536 1.32,-1.536 0.576,0 0.696,0.276 0.696,0.888 l 0,3.3 c 0,0.384 0.084,0.576 0.576,0.576 l 0.48,0 c 0.456,0 0.576,-0.156 0.576,-0.576"
           style="stroke:none"
           id="path3220" />
        <path
           d="m 975.63572,348.4088 c 0,-0.048 -0.06,-0.336 -0.084,-0.456 -0.048,-0.288 -0.048,-0.312 -0.264,-0.312 -0.372,0 -0.972,0.144 -1.428,0.42 -0.564,-0.372 -1.188,-0.42 -1.704,-0.42 -0.504,0 -2.412,0 -2.412,1.98 0,0.48 0.132,1.08 0.588,1.476 -0.324,0.444 -0.324,0.912 -0.324,0.972 0,0.228 0.072,0.624 0.324,0.948 -0.18,0.072 -0.804,0.288 -0.804,1.056 0,0.372 0.18,0.996 0.936,1.344 0.684,0.312 1.488,0.324 2.052,0.324 0.708,0 3,0 3,-1.704 0,-1.872 -1.692,-1.872 -3.312,-1.872 l -0.576,0 c -0.432,0 -0.6,0 -0.768,-0.144 -0.048,-0.048 -0.252,-0.228 -0.252,-0.54 0,-0.084 0.012,-0.108 0.024,-0.18 0.564,0.312 1.272,0.312 1.524,0.312 0.504,0 2.412,0 2.412,-1.98 0,-0.696 -0.264,-1.116 -0.372,-1.248 0.204,0 0.624,0 1.116,0.132 0.048,0.024 0.132,0.048 0.168,0.048 0.096,0 0.156,-0.072 0.156,-0.156 m -2.604,1.212 c 0,0.66 -0.036,1.128 -0.876,1.128 -0.84,0 -0.876,-0.456 -0.876,-1.116 0,-0.66 0.036,-1.128 0.876,-1.128 0.84,0 0.876,0.456 0.876,1.116 m 1.248,4.452 c 0,0.804 -1.368,0.804 -1.752,0.804 -0.48,0 -1.764,0 -1.764,-0.84 0,-0.564 0.372,-0.564 0.648,-0.564 l 1.392,0 c 0.972,0 1.476,0.168 1.476,0.6"
           style="stroke:none"
           id="path3222" />
        <path
           d="m 980.5891,351.5768 c 0,-0.672 -0.36,-1.092 -0.576,-1.284 -0.48,-0.432 -0.9,-0.504 -1.404,-0.6 -0.66,-0.12 -1.14,-0.216 -1.14,-0.684 0,-0.492 0.396,-0.588 0.864,-0.588 0.804,0 1.236,0.3 1.548,0.564 0.12,0.12 0.144,0.12 0.192,0.12 0.12,0 0.144,-0.108 0.156,-0.156 0.024,-0.096 0.144,-0.768 0.144,-0.828 0,-0.192 -0.636,-0.36 -0.768,-0.408 -0.48,-0.132 -0.864,-0.144 -1.176,-0.144 -0.54,0 -2.148,0 -2.148,1.716 0,0.588 0.264,0.948 0.588,1.236 0.42,0.384 0.888,0.468 1.572,0.6 0.348,0.06 0.96,0.168 0.96,0.696 0,0.564 -0.468,0.648 -0.936,0.648 -0.528,0 -1.2,-0.156 -1.764,-0.828 -0.06,-0.06 -0.096,-0.096 -0.168,-0.096 -0.12,0 -0.144,0.108 -0.156,0.18 -0.024,0.168 -0.168,0.852 -0.168,0.972 0,0.216 0.9,0.504 0.9,0.504 0.66,0.204 1.152,0.204 1.356,0.204 0.612,0 2.124,-0.048 2.124,-1.824"
           style="stroke:none"
           id="path3224" />
      </g>
      <path
         style="fill:none"
         clip-path="url(#clipPath2)"
         d="m 904.1123,329.68921 111.185,0 c 2.216,0 4,1.784 4,4 l 0,29.115 c 0,2.216 -1.784,4 -4,4 l -111.185,0 c -2.216,0 -4,-1.784 -4,-4 l 0,-29.115 c 0,-2.216 1.784,-4 4,-4 z"
         id="rect48" />
      <g
         clip-path="url(#clipPath2)"
         style="stroke:none"
         id="text50">
        <path
           d="m 805.62341,178.6475 0,-3.324 c 0,-1.236 -0.528,-1.728 -1.752,-1.728 -1.26,0 -1.8,0.912 -1.956,1.236 l -0.012,0 0,-0.6 c 0,-0.384 -0.084,-0.576 -0.576,-0.576 l -0.408,0 c -0.432,0 -0.576,0.132 -0.576,0.576 l 0,4.416 c 0,0.432 0.132,0.576 0.576,0.576 l 0.48,0 c 0.456,0 0.576,-0.156 0.576,-0.576 l 0,-2.652 c 0,-1.044 0.696,-1.536 1.32,-1.536 0.576,0 0.696,0.276 0.696,0.888 l 0,3.3 c 0,0.384 0.084,0.576 0.576,0.576 l 0.48,0 c 0.456,0 0.576,-0.156 0.576,-0.576"
           style="stroke:none"
           id="path3228" />
        <path
           d="m 812.09798,176.1035 c 0,-1.548 -0.72001,-2.58 -2.508,-2.58 -1.92,0 -2.868,1.08 -2.868,2.904 0,1.96799 1.14,2.928 3.024,2.928 0.456,0 1.14,-0.06 1.932,-0.456 0.264,-0.132 0.348,-0.168 0.348,-0.312 0,-0.084 -0.036,-0.432 -0.048,-0.528 -0.048,-0.372 -0.06,-0.384 -0.168,-0.384 -0.048,0 -0.072,0 -0.204,0.12 -0.708,0.61199 -1.428,0.696 -1.812,0.696 -1.356,0 -1.5,-1.06801 -1.536,-1.836 l 3.264,0 c 0.276,0 0.576,-0.012 0.576,-0.552 m -1.332,-0.084 -2.496,0 c 0.036,-0.732 0.276,-1.632 1.32,-1.632 0.95999,0 1.14,0.696 1.176,1.632"
           style="stroke:none"
           id="path3230" />
        <path
           d="m 821.1186,174.0635 c -0.036,-0.336 -0.252,-0.336 -0.624,-0.336 -0.564,0 -0.708,0.036 -0.876,0.66 l -0.972,3.48 -1.02,-3.6 c -0.072,-0.264 -0.156,-0.54 -0.708,-0.54 -0.18,0 -0.456,0 -0.624,0.276 -0.108,0.18 -0.636,2.256 -1.056,3.66 l -0.96,-3.396 c -0.12,-0.408 -0.252,-0.54 -0.744,-0.54 l -0.24,0 c -0.228,0 -0.48,0 -0.516,0.336 l 1.272,4.608 c 0.156,0.55199 0.468,0.552 0.768,0.552 l 0.336,0 c 0.564,0 0.66,-0.18 0.792,-0.66 0.276,-0.996 0.708,-2.50801 0.756,-3.132 l 0.012,-0.012 c 0.072,0.68399 0.6,2.58 0.756,3.144 0.132,0.432 0.192,0.66 0.792,0.66 l 0.816,0 c 0.516,0 0.636,-0.144 0.756,-0.552 l 1.284,-4.608"
           style="stroke:none"
           id="path3232" />
      </g>
      <g
         clip-path="url(#clipPath2)"
         style="stroke:none"
         id="text52">
        <path
           d="m 804.20729,196.1316 c 0,0 0,-0.108 -0.12,-0.264 l -2.088,-2.736 1.848,-1.716 c 0.144,-0.132 0.18,-0.168 0.18,-0.264 0,-0.252 -0.24,-0.252 -0.408,-0.252 l -0.696,0 c -0.216,0 -0.444,0 -0.72,0.252 l -1.728,1.608 0,-4.116 c 0,-0.384 -0.084,-0.576 -0.576,-0.576 l -0.252,0 c -0.432,0 -0.576,0.132 -0.576,0.576 l 0,7.176 c 0,0.432 0.132,0.576 0.576,0.576 l 0.216,0 c 0.456,0 0.576,-0.156 0.576,-0.576 l 0,-1.248 c 0.192,-0.168 0.372,-0.348 0.564,-0.516 l 1.56,2.04 c 0.204,0.264 0.288,0.3 0.636,0.3 l 0.576,0 c 0.168,0 0.432,0 0.432,-0.264"
           style="stroke:none"
           id="path3235" />
        <path
           d="m 810.61829,195.8196 0,-3.324 c 0,-1.236 -0.52801,-1.728 -1.752,-1.728 -1.26,0 -1.8,0.912 -1.956,1.236 l -0.012,0 0,-0.6 c 0,-0.384 -0.084,-0.576 -0.576,-0.576 l -0.408,0 c -0.432,0 -0.576,0.132 -0.576,0.576 l 0,4.416 c 0,0.432 0.132,0.576 0.576,0.576 l 0.48,0 c 0.456,0 0.576,-0.156 0.576,-0.576 l 0,-2.652 c 0,-1.044 0.696,-1.536 1.32,-1.536 0.576,0 0.696,0.276 0.696,0.888 l 0,3.3 c 0,0.384 0.084,0.576 0.576,0.576 l 0.48,0 c 0.456,0 0.576,-0.156 0.576,-0.576"
           style="stroke:none"
           id="path3237" />
        <path
           d="m 817.56085,193.6956 c 0,-1.968 -0.96,-3 -2.916,-3 -2.004,0 -2.928,1.068 -2.928,3 0,1.956 1.032,2.832 2.916,2.832 1.884,0 2.928,-0.864 2.928,-2.832 m -1.632,-0.144 c 0,0.948 0,2.04 -1.284,2.04 -1.296,0 -1.296,-1.08 -1.296,-2.04 0,-0.924 0,-1.992 1.284,-1.992 1.296,0 1.296,1.056 1.296,1.992"
           style="stroke:none"
           id="path3239" />
        <path
           d="m 822.43022,195.8316 c 0,-0.036 -0.024,-0.12 -0.096,-0.372 -0.06,-0.24 -0.084,-0.312 -0.192,-0.312 -0.06,0 -0.072,0.012 -0.144,0.084 -0.132,0.096 -0.456,0.36 -0.96,0.36 -0.288,0 -0.468,-0.204 -0.468,-0.996 l 0,-2.832 1.068,0 c 0.144,0 0.576,0 0.576,-0.432 0,-0.432 -0.432,-0.432 -0.576,-0.432 l -1.068,0 0,-0.996 c 0,-0.384 -0.084,-0.576 -0.576,-0.576 l -0.372,0 c -0.432,0 -0.576,0.132 -0.576,0.576 l 0,0.996 -0.276,0 c -0.132,0 -0.576,0 -0.576,0.432 0,0.432 0.432,0.432 0.576,0.432 l 0.24,0 0,3.036 c 0,1.212 0.432,1.728 1.26,1.728 0.108,0 0.636,0 1.26,-0.192 0.204,-0.06 0.9,-0.276 0.9,-0.504"
           style="stroke:none"
           id="path3241" />
      </g>
      <path
         style="fill:none"
         clip-path="url(#clipPath2)"
         d="m 754.92688,164.23 111.185,0 c 2.216,0 4,1.784 4,4 l 0,29.115 c 0,2.216 -1.784,4 -4,4 l -111.185,0 c -2.216,0 -4,-1.784 -4,-4 l 0,-29.115 c 0,-2.216 1.784,-4 4,-4 z"
         id="rect54" />
      <g
         clip-path="url(#clipPath2)"
         style="stroke:none"
         id="text56">
        <path
           d="m 656.43799,178.6475 0,-3.324 c 0,-1.236 -0.528,-1.728 -1.752,-1.728 -1.26,0 -1.8,0.912 -1.956,1.236 l -0.012,0 0,-0.6 c 0,-0.384 -0.084,-0.576 -0.576,-0.576 l -0.408,0 c -0.432,0 -0.576,0.132 -0.576,0.576 l 0,4.416 c 0,0.432 0.132,0.576 0.576,0.576 l 0.48,0 c 0.456,0 0.576,-0.156 0.576,-0.576 l 0,-2.652 c 0,-1.044 0.696,-1.536 1.32,-1.536 0.576,0 0.696,0.276 0.696,0.888 l 0,3.3 c 0,0.384 0.084,0.576 0.576,0.576 l 0.48,0 c 0.456,0 0.576,-0.156 0.576,-0.576"
           style="stroke:none"
           id="path3245" />
        <path
           d="m 662.91255,176.1035 c 0,-1.548 -0.72,-2.58 -2.508,-2.58 -1.92,0 -2.868,1.08 -2.868,2.904 0,1.96799 1.14,2.928 3.024,2.928 0.456,0 1.14,-0.06 1.932,-0.456 0.264,-0.132 0.348,-0.168 0.348,-0.312 0,-0.084 -0.036,-0.432 -0.048,-0.528 -0.048,-0.372 -0.06,-0.384 -0.168,-0.384 -0.048,0 -0.072,0 -0.204,0.12 -0.708,0.61199 -1.428,0.696 -1.812,0.696 -1.356,0 -1.5,-1.06801 -1.536,-1.836 l 3.264,0 c 0.276,0 0.576,-0.012 0.576,-0.552 m -1.332,-0.084 -2.496,0 c 0.036,-0.732 0.276,-1.632 1.32,-1.632 0.96,0 1.14,0.696 1.176,1.632"
           style="stroke:none"
           id="path3247" />
        <path
           d="m 671.93318,174.0635 c -0.036,-0.336 -0.252,-0.336 -0.624,-0.336 -0.564,0 -0.708,0.036 -0.876,0.66 l -0.972,3.48 -1.02,-3.6 c -0.072,-0.264 -0.156,-0.54 -0.708,-0.54 -0.18,0 -0.456,0 -0.624,0.276 -0.108,0.18 -0.636,2.256 -1.056,3.66 l -0.96,-3.396 c -0.12,-0.408 -0.252,-0.54 -0.744,-0.54 l -0.24,0 c -0.228,0 -0.48,0 -0.516,0.336 l 1.272,4.608 c 0.156,0.55199 0.468,0.552 0.768,0.552 l 0.336,0 c 0.564,0 0.66,-0.18 0.792,-0.66 0.276,-0.996 0.708,-2.50801 0.756,-3.132 l 0.012,-0.012 c 0.072,0.68399 0.6,2.58 0.756,3.144 0.132,0.432 0.192,0.66 0.792,0.66 l 0.816,0 c 0.516,0 0.636,-0.144 0.756,-0.552 l 1.284,-4.608"
           style="stroke:none"
           id="path3249" />
      </g>
      <g
         clip-path="url(#clipPath2)"
         style="stroke:none"
         id="text58">
        <path
           d="m 641.49792,195.7956 c 0,-0.132 -0.048,-0.684 -0.072,-0.84 0,-0.036 -0.024,-0.156 -0.144,-0.156 -0.048,0 -0.072,0 -0.192,0.12 -0.204,0.18 -0.768,0.672 -1.752,0.672 -1.248,0 -1.248,-1.212 -1.248,-1.98 0,-0.972 0.06,-1.98 1.284,-1.98 0.78,0 1.104,0.192 1.536,0.552 0.144,0.132 0.168,0.132 0.216,0.132 0.12,0 0.144,-0.108 0.156,-0.156 0.024,-0.096 0.144,-0.768 0.144,-0.828 0,-0.108 -0.084,-0.156 -0.288,-0.252 -0.576,-0.264 -0.936,-0.384 -1.776,-0.384 -1.788,0 -2.904,0.84 -2.904,2.94 0,1.992 1.032,2.892 2.844,2.892 0.324,0 1.044,-0.012 1.848,-0.42 0.336,-0.18 0.348,-0.192 0.348,-0.312"
           style="stroke:none"
           id="path3252" />
        <path
           d="m 647.87329,195.8196 0,-3.324 c 0,-1.236 -0.528,-1.728 -1.752,-1.728 -1.2,0 -1.752,0.828 -1.92,1.164 l -0.012,0 0,-3.288 c 0,-0.384 -0.084,-0.576 -0.576,-0.576 l -0.444,0 c -0.432,0 -0.576,0.132 -0.576,0.576 l 0,7.176 c 0,0.432 0.132,0.576 0.576,0.576 l 0.48,0 c 0.456,0 0.576,-0.156 0.576,-0.576 l 0,-2.652 c 0,-1.044 0.696,-1.536 1.32,-1.536 0.576,0 0.696,0.276 0.696,0.888 l 0,3.3 c 0,0.384 0.084,0.576 0.576,0.576 l 0.48,0 c 0.456,0 0.576,-0.156 0.576,-0.576"
           style="stroke:none"
           id="path3254" />
        <path
           d="m 654.28785,195.8196 0,-3.216 c 0,-1.896 -1.824,-1.908 -2.424,-1.908 -0.564,0 -1.164,0.048 -1.968,0.384 -0.252,0.108 -0.312,0.144 -0.312,0.276 0,0.084 0.072,0.78 0.084,0.876 0.012,0.072 0.072,0.132 0.156,0.132 0.06,0 0.096,-0.036 0.132,-0.072 0.516,-0.54 1.116,-0.804 1.86,-0.804 0.648,0 0.84,0.396 0.84,1.104 l 0,0.42 c -0.42,0 -3.564,0.024 -3.564,1.788 0,0.84 0.672,1.728 1.728,1.728 0.408,0 1.308,-0.12 1.872,-0.948 l 0,0.24 c 0,0.384 0.084,0.576 0.576,0.576 l 0.444,0 c 0.456,0 0.576,-0.156 0.576,-0.576 m -1.632,-1.272 c 0,1.116 -1.14,1.116 -1.176,1.116 -0.504,0 -0.828,-0.432 -0.828,-0.888 0,-1.176 1.668,-1.26 2.004,-1.272 l 0,1.044"
           style="stroke:none"
           id="path3256" />
        <path
           d="m 657.23254,195.8196 0,-7.176 c 0,-0.384 -0.084,-0.576 -0.576,-0.576 l -0.444,0 c -0.432,0 -0.576,0.132 -0.576,0.576 l 0,7.176 c 0,0.432 0.132,0.576 0.576,0.576 l 0.444,0 c 0.456,0 0.576,-0.156 0.576,-0.576"
           style="stroke:none"
           id="path3258" />
        <path
           d="m 660.30285,195.8196 0,-7.176 c 0,-0.384 -0.084,-0.576 -0.576,-0.576 l -0.444,0 c -0.432,0 -0.576,0.132 -0.576,0.576 l 0,7.176 c 0,0.432 0.132,0.576 0.576,0.576 l 0.444,0 c 0.456,0 0.576,-0.156 0.576,-0.576"
           style="stroke:none"
           id="path3260" />
        <path
           d="m 666.79317,193.2756 c 0,-1.548 -0.72001,-2.58 -2.508,-2.58 -1.92,0 -2.868,1.08 -2.868,2.904 0,1.968 1.14,2.928 3.024,2.928 0.456,0 1.14,-0.06 1.932,-0.456 0.264,-0.132 0.348,-0.168 0.348,-0.312 0,-0.084 -0.036,-0.432 -0.048,-0.528 -0.048,-0.372 -0.06,-0.384 -0.168,-0.384 -0.048,0 -0.072,0 -0.204,0.12 -0.708,0.612 -1.428,0.696 -1.812,0.696 -1.356,0 -1.5,-1.068 -1.536,-1.836 l 3.264,0 c 0.276,0 0.576,-0.012 0.576,-0.552 m -1.332,-0.084 -2.496,0 c 0.036,-0.732 0.276,-1.632 1.32,-1.632 0.96,0 1.14,0.696 1.176,1.632"
           style="stroke:none"
           id="path3262" />
        <path
           d="m 673.18579,195.8196 0,-3.324 c 0,-1.236 -0.528,-1.728 -1.752,-1.728 -1.26,0 -1.8,0.912 -1.956,1.236 l -0.012,0 0,-0.6 c 0,-0.384 -0.084,-0.576 -0.576,-0.576 l -0.408,0 c -0.432,0 -0.576,0.132 -0.576,0.576 l 0,4.416 c 0,0.432 0.132,0.576 0.576,0.576 l 0.48,0 c 0.456,0 0.576,-0.156 0.576,-0.576 l 0,-2.652 c 0,-1.044 0.696,-1.536 1.32,-1.536 0.576,0 0.696,0.276 0.696,0.888 l 0,3.3 c 0,0.384 0.084,0.576 0.576,0.576 l 0.48,0 c 0.456,0 0.576,-0.156 0.576,-0.576"
           style="stroke:none"
           id="path3264" />
        <path
           d="m 680.32035,191.5356 c 0,-0.048 -0.06,-0.336 -0.084,-0.456 -0.048,-0.288 -0.048,-0.312 -0.264,-0.312 -0.372,0 -0.972,0.144 -1.428,0.42 -0.564,-0.372 -1.188,-0.42 -1.704,-0.42 -0.504,0 -2.412,0 -2.412,1.98 0,0.48 0.132,1.08 0.588,1.476 -0.324,0.444 -0.324,0.912 -0.324,0.972 0,0.228 0.072,0.624 0.324,0.948 -0.18,0.072 -0.804,0.288 -0.804,1.056 0,0.372 0.18,0.996 0.936,1.344 0.684,0.312 1.488,0.324 2.052,0.324 0.708,0 3,0 3,-1.704 0,-1.872 -1.692,-1.872 -3.312,-1.872 l -0.576,0 c -0.432,0 -0.6,0 -0.768,-0.144 -0.048,-0.048 -0.252,-0.228 -0.252,-0.54 0,-0.084 0.012,-0.108 0.024,-0.18 0.564,0.312 1.272,0.312 1.524,0.312 0.504,0 2.412,0 2.412,-1.98 0,-0.696 -0.264,-1.116 -0.372,-1.248 0.204,0 0.624,0 1.116,0.132 0.048,0.024 0.132,0.048 0.168,0.048 0.096,0 0.156,-0.072 0.156,-0.156 m -2.604,1.212 c 0,0.66 -0.036,1.128 -0.876,1.128 -0.84,0 -0.876,-0.456 -0.876,-1.116 0,-0.66 0.036,-1.128 0.876,-1.128 0.84,0 0.876,0.456 0.876,1.116 m 1.248,4.452 c 0,0.804 -1.368,0.804 -1.752,0.804 -0.48,0 -1.764,0 -1.764,-0.84 0,-0.564 0.372,-0.564 0.648,-0.564 l 1.392,0 c 0.972,0 1.476,0.168 1.476,0.6"
           style="stroke:none"
           id="path3266" />
        <path
           d="m 686.26973,193.2756 c 0,-1.548 -0.72,-2.58 -2.508,-2.58 -1.92,0 -2.868,1.08 -2.868,2.904 0,1.968 1.14,2.928 3.024,2.928 0.456,0 1.14,-0.06 1.932,-0.456 0.264,-0.132 0.348,-0.168 0.348,-0.312 0,-0.084 -0.036,-0.432 -0.048,-0.528 -0.048,-0.372 -0.06,-0.384 -0.168,-0.384 -0.048,0 -0.072,0 -0.204,0.12 -0.708,0.612 -1.428,0.696 -1.812,0.696 -1.356,0 -1.5,-1.068 -1.536,-1.836 l 3.264,0 c 0.276,0 0.576,-0.012 0.576,-0.552 m -1.332,-0.084 -2.496,0 c 0.036,-0.732 0.276,-1.632 1.32,-1.632 0.96,0 1.14,0.696 1.176,1.632"
           style="stroke:none"
           id="path3268" />
      </g>
      <path
         style="fill:none"
         clip-path="url(#clipPath2)"
         d="m 605.74158,164.23 111.18499,0 c 2.216,0 4,1.784 4,4 l 0,29.115 c 0,2.216 -1.784,4 -4,4 l -111.18499,0 c -2.216,0 -4,-1.784 -4,-4 l 0,-29.115 c 0,-2.216 1.784,-4 4,-4 z"
         id="rect60" />
      <g
         clip-path="url(#clipPath2)"
         style="stroke:none"
         id="text62">
        <path
           d="m 950.68072,187.23349 0,-7.176 c 0,-0.384 -0.084,-0.576 -0.576,-0.576 l -0.444,0 c -0.432,0 -0.576,0.132 -0.576,0.576 l 0,7.176 c 0,0.432 0.132,0.576 0.576,0.576 l 0.444,0 c 0.456,0 0.576,-0.156 0.576,-0.576"
           style="stroke:none"
           id="path3272" />
        <path
           d="m 957.63903,185.10949 c 0,-1.96799 -0.96,-3 -2.916,-3 -2.00399,0 -2.928,1.06801 -2.928,3 0,1.956 1.03201,2.832 2.916,2.832 1.884,0 2.928,-0.864 2.928,-2.832 m -1.632,-0.144 c 0,0.948 0,2.04 -1.284,2.04 -1.29599,0 -1.296,-1.08 -1.296,-2.04 0,-0.924 1e-5,-1.992 1.284,-1.992 1.296,0 1.296,1.056 1.296,1.992"
           style="stroke:none"
           id="path3274" />
        <path
           d="m 963.72041,187.23349 0,-3.216 c 0,-1.89599 -1.824,-1.908 -2.424,-1.908 -0.564,0 -1.164,0.048 -1.968,0.384 -0.252,0.108 -0.312,0.144 -0.312,0.276 0,0.084 0.072,0.78 0.084,0.876 0.012,0.072 0.072,0.132 0.156,0.132 0.06,0 0.096,-0.036 0.132,-0.072 0.516,-0.54 1.116,-0.804 1.86,-0.804 0.648,0 0.84,0.396 0.84,1.104 l 0,0.42 c -0.42,0 -3.564,0.024 -3.564,1.788 0,0.84 0.672,1.728 1.728,1.728 0.408,0 1.308,-0.12 1.872,-0.948 l 0,0.24 c 0,0.384 0.084,0.576 0.576,0.576 l 0.444,0 c 0.456,0 0.576,-0.156 0.576,-0.576 m -1.632,-1.272 c 0,1.116 -1.14,1.116 -1.176,1.116 -0.504,0 -0.828,-0.432 -0.828,-0.888 0,-1.17599 1.668,-1.26 2.004,-1.272 l 0,1.044"
           style="stroke:none"
           id="path3276" />
        <path
           d="m 970.3251,187.23349 0,-7.176 c 0,-0.384 -0.084,-0.576 -0.576,-0.576 l -0.444,0 c -0.456,0 -0.576,0.156 -0.576,0.576 l 0,2.724 c -0.54,-0.516 -1.14,-0.6 -1.512,-0.6 -2.436,0 -2.436,2.304 -2.436,2.892 0,0.552 0,2.868 2.376,2.868 0.504,0 1.02,-0.144 1.536,-0.696 0,0.444 0.168,0.564 0.576,0.564 l 0.48,0 c 0.456,0 0.576,-0.156 0.576,-0.576 m -1.632,-0.924 c 0,0.204 0,0.312 -0.348,0.552 -0.3,0.192 -0.576,0.216 -0.72,0.216 -1.212,0 -1.212,-1.104 -1.212,-2.004 0,-0.9 0,-2.028 1.344,-2.028 0.348,0 0.672,0.12 0.936,0.372 l 0,2.892"
           style="stroke:none"
           id="path3278" />
      </g>
      <path
         style="fill:none"
         clip-path="url(#clipPath2)"
         d="m 904.1123,164.23 111.185,0 c 2.216,0 4,1.784 4,4 l 0,29.115 c 0,2.216 -1.784,4 -4,4 l -111.185,0 c -2.216,0 -4,-1.784 -4,-4 l 0,-29.115 c 0,-2.216 1.784,-4 4,-4 z"
         id="rect64" />
      <g
         clip-path="url(#clipPath2)"
         style="stroke:none"
         id="text66">
        <path
           d="m 791.02533,269.96322 0,-4.344 c 0,-0.384 -0.084,-0.576 -0.576,-0.576 l -0.444,0 c -0.432,0 -0.576,0.132 -0.576,0.576 l 0,4.344 c 0,0.43199 0.132,0.576 0.576,0.576 l 0.444,0 c 0.456,0 0.576,-0.15601 0.576,-0.576 m 0.084,-6.696 0,-0.228 c 0,-0.384 -0.084,-0.576 -0.576,-0.576 l -0.612,0 c -0.456,0 -0.576,0.156 -0.576,0.576 l 0,0.228 c 0,0.34799 0.06,0.576 0.576,0.576 l 0.612,0 c 0.504,0 0.576,-0.21601 0.576,-0.576"
           style="stroke:none"
           id="path3282" />
        <path
           d="m 797.76764,269.96322 0,-3.324 c 0,-1.236 -0.528,-1.728 -1.752,-1.728 -1.26,0 -1.8,0.912 -1.956,1.236 l -0.012,0 0,-0.6 c 0,-0.384 -0.084,-0.576 -0.576,-0.576 l -0.408,0 c -0.432,0 -0.576,0.132 -0.576,0.576 l 0,4.416 c 0,0.43199 0.132,0.576 0.576,0.576 l 0.48,0 c 0.456,0 0.576,-0.15601 0.576,-0.576 l 0,-2.652 c 0,-1.044 0.696,-1.536 1.32,-1.536 0.576,0 0.696,0.276 0.696,0.888 l 0,3.3 c 0,0.38399 0.084,0.576 0.576,0.576 l 0.48,0 c 0.456,0 0.576,-0.15601 0.576,-0.576"
           style="stroke:none"
           id="path3284" />
        <path
           d="m 809.30845,265.67922 c 0,-0.048 -0.06,-0.33601 -0.084,-0.456 -0.048,-0.288 -0.048,-0.312 -0.264,-0.312 -0.372,0 -0.972,0.144 -1.428,0.42 -0.564,-0.372 -1.188,-0.42 -1.704,-0.42 -0.504,0 -2.412,0 -2.412,1.98 0,0.47999 0.132,1.08 0.588,1.476 -0.324,0.44399 -0.324,0.912 -0.324,0.972 0,0.22799 0.072,0.624 0.324,0.948 -0.18,0.072 -0.804,0.288 -0.804,1.056 0,0.37199 0.18,0.996 0.936,1.344 0.684,0.31199 1.488,0.324 2.052,0.324 0.708,0 3,-10e-6 3,-1.704 0,-1.872 -1.692,-1.872 -3.312,-1.872 l -0.576,0 c -0.432,0 -0.6,-1e-5 -0.768,-0.144 -0.048,-0.048 -0.252,-0.22801 -0.252,-0.54 0,-0.084 0.012,-0.108 0.024,-0.18 0.564,0.31199 1.272,0.312 1.524,0.312 0.504,0 2.412,-10e-6 2.412,-1.98 0,-0.696 -0.264,-1.11601 -0.372,-1.248 0.204,0 0.624,0 1.116,0.132 0.048,0.024 0.132,0.048 0.168,0.048 0.096,0 0.156,-0.072 0.156,-0.156 m -2.604,1.212 c 0,0.65999 -0.036,1.128 -0.876,1.128 -0.84,0 -0.876,-0.45601 -0.876,-1.116 0,-0.66 0.036,-1.128 0.876,-1.128 0.84,0 0.876,0.456 0.876,1.116 m 1.248,4.452 c 0,0.80399 -1.368,0.804 -1.752,0.804 -0.48,0 -1.764,-1e-5 -1.764,-0.84 0,-0.564 0.372,-0.564 0.648,-0.564 l 1.392,0 c 0.972,0 1.476,0.168 1.476,0.6"
           style="stroke:none"
           id="path3286" />
        <path
           d="m 815.19783,269.96322 0,-3.216 c 0,-1.896 -1.824,-1.908 -2.424,-1.908 -0.564,0 -1.164,0.048 -1.968,0.384 -0.252,0.10799 -0.312,0.144 -0.312,0.276 0,0.084 0.072,0.78 0.084,0.876 0.012,0.072 0.072,0.132 0.156,0.132 0.06,0 0.096,-0.036 0.132,-0.072 0.516,-0.54 1.116,-0.804 1.86,-0.804 0.648,0 0.84,0.396 0.84,1.104 l 0,0.42 c -0.42,0 -3.564,0.024 -3.564,1.788 0,0.83999 0.672,1.728 1.728,1.728 0.408,0 1.308,-0.12001 1.872,-0.948 l 0,0.24 c 0,0.38399 0.084,0.576 0.576,0.576 l 0.444,0 c 0.456,0 0.576,-0.15601 0.576,-0.576 m -1.632,-1.272 c 0,1.11599 -1.14,1.116 -1.176,1.116 -0.504,0 -0.828,-0.43201 -0.828,-0.888 0,-1.176 1.668,-1.26 2.004,-1.272 l 0,1.044"
           style="stroke:none"
           id="path3288" />
        <path
           d="m 825.48651,269.96322 0,-3.324 c 0,-1.236 -0.528,-1.728 -1.752,-1.728 -0.85199,0 -1.512,0.396 -1.944,1.188 -0.192,-1.152 -1.212,-1.188 -1.716,-1.188 -0.228,0 -0.732,0 -1.272,0.396 -0.372,0.27599 -0.612,0.66 -0.696,0.84 l -0.012,0 0,-0.6 c 0,-0.384 -0.084,-0.576 -0.576,-0.576 l -0.408,0 c -0.432,0 -0.576,0.132 -0.576,0.576 l 0,4.416 c 0,0.43199 0.132,0.576 0.576,0.576 l 0.48,0 c 0.456,0 0.576,-0.15601 0.576,-0.576 l 0,-2.652 c 0,-1.08 0.732,-1.536 1.32,-1.536 0.576,0 0.708,0.252 0.708,0.888 l 0,3.3 c 0,0.43199 0.132,0.576 0.576,0.576 l 0.48,0 c 0.456,0 0.576,-0.15601 0.576,-0.576 l 0,-2.652 c 0,-1.08 0.732,-1.536 1.32,-1.536 0.576,0 0.708,0.252 0.708,0.888 l 0,3.3 c 0,0.43199 0.132,0.576 0.576,0.576 l 0.48,0 c 0.456,0 0.576,-0.15601 0.576,-0.576"
           style="stroke:none"
           id="path3290" />
        <path
           d="m 831.96876,267.41922 c 0,-1.548 -0.72,-2.58 -2.508,-2.58 -1.91999,0 -2.868,1.08 -2.868,2.904 0,1.96799 1.14001,2.928 3.024,2.928 0.456,0 1.14,-0.06 1.932,-0.456 0.264,-0.132 0.348,-0.16801 0.348,-0.312 0,-0.084 -0.036,-0.43201 -0.048,-0.528 -0.048,-0.372 -0.06,-0.384 -0.168,-0.384 -0.048,0 -0.072,0 -0.204,0.12 -0.708,0.61199 -1.428,0.696 -1.812,0.696 -1.35599,0 -1.5,-1.06801 -1.536,-1.836 l 3.264,0 c 0.276,0 0.576,-0.012 0.576,-0.552 m -1.332,-0.084 -2.496,0 c 0.036,-0.732 0.27601,-1.632 1.32,-1.632 0.96,0 1.14,0.696 1.176,1.632"
           style="stroke:none"
           id="path3292" />
      </g>
      <path
         style="fill:none"
         clip-path="url(#clipPath2)"
         d="m 754.92688,246.95959 111.185,0 c 2.216,0 4,1.784 4,4 l 0,29.11501 c 0,2.216 -1.784,4 -4,4 l -111.185,0 c -2.216,0 -4,-1.784 -4,-4 l 0,-29.11501 c 0,-2.216 1.784,-4 4,-4 z"
         id="rect68" />
    </g>
    <g
       transform="matrix(1,0,0,1,-576,5)"
       fill-opacity="0.2"
       fill="rgb(0,0,0)"
       text-rendering="optimizeQuality"
       shape-rendering="geometricPrecision"
       stroke="rgb(0,0,0)"
       stroke-opacity="0.2"
       id="g70">
      <path
         style="stroke:none"
         clip-path="url(#clipPath2)"
         d="m 754.92688,411.8042 111.185,0 c 2.216,0 4,1.784 4,4 l 0,29.115 c 0,2.216 -1.784,4 -4,4 l -111.185,0 c -2.216,0 -4,-1.784 -4,-4 l 0,-29.115 c 0,-2.216 1.784,-4 4,-4 z"
         id="rect72" />
    </g>
    <g
       stroke-linecap="butt"
       transform="matrix(1,0,0,1,-576,5)"
       text-rendering="optimizeQuality"
       font-family="'L M Sans10'"
       shape-rendering="geometricPrecision"
       font-weight="bold"
       stroke-miterlimit="1.45"
       id="g74">
      <g
         clip-path="url(#clipPath2)"
         style="stroke:none"
         id="text76">
        <path
           d="m 794.37932,434.78379 c 0,-0.132 -0.048,-0.684 -0.072,-0.84 0,-0.036 -0.024,-0.156 -0.144,-0.156 -0.048,0 -0.072,0 -0.192,0.12 -0.204,0.18 -0.768,0.672 -1.752,0.672 -1.24799,0 -1.248,-1.212 -1.248,-1.98 0,-0.972 0.06,-1.98 1.284,-1.98 0.78,0 1.10401,0.192 1.536,0.552 0.144,0.132 0.168,0.132 0.216,0.132 0.12,0 0.144,-0.108 0.156,-0.156 0.024,-0.096 0.144,-0.768 0.144,-0.828 0,-0.108 -0.084,-0.156 -0.288,-0.252 -0.57599,-0.264 -0.936,-0.384 -1.776,-0.384 -1.78799,0 -2.904,0.84 -2.904,2.94 0,1.992 1.03201,2.892 2.844,2.892 0.324,0 1.04401,-0.012 1.848,-0.42 0.336,-0.18 0.348,-0.192 0.348,-0.312"
           style="stroke:none"
           id="path3297" />
        <path
           d="m 800.9707,432.68379 c 0,-1.968 -0.96,-3 -2.916,-3 -2.004,0 -2.928,1.068 -2.928,3 0,1.956 1.032,2.832 2.916,2.832 1.884,0 2.928,-0.864 2.928,-2.832 m -1.632,-0.144 c 0,0.948 0,2.04 -1.284,2.04 -1.296,0 -1.296,-1.08 -1.296,-2.04 0,-0.924 0,-1.992 1.284,-1.992 1.296,0 1.296,1.056 1.296,1.992"
           style="stroke:none"
           id="path3299" />
        <path
           d="m 807.36407,434.80779 0,-3.324 c 0,-1.236 -0.528,-1.728 -1.752,-1.728 -1.25999,0 -1.8,0.912 -1.956,1.236 l -0.012,0 0,-0.6 c 0,-0.384 -0.084,-0.576 -0.576,-0.576 l -0.408,0 c -0.43199,0 -0.576,0.132 -0.576,0.576 l 0,4.416 c 0,0.432 0.13201,0.576 0.576,0.576 l 0.48,0 c 0.456,0 0.576,-0.156 0.576,-0.576 l 0,-2.652 c 0,-1.044 0.69601,-1.536 1.32,-1.536 0.576,0 0.696,0.276 0.696,0.888 l 0,3.3 c 0,0.384 0.084,0.576 0.576,0.576 l 0.48,0 c 0.456,0 0.576,-0.156 0.576,-0.576"
           style="stroke:none"
           id="path3301" />
        <path
           d="m 812.56664,434.81979 c 0,-0.036 -0.024,-0.12 -0.096,-0.372 -0.06,-0.24 -0.084,-0.312 -0.192,-0.312 -0.06,0 -0.072,0.012 -0.144,0.084 -0.132,0.096 -0.456,0.36 -0.96,0.36 -0.288,0 -0.468,-0.204 -0.468,-0.996 l 0,-2.832 1.068,0 c 0.144,0 0.576,0 0.576,-0.432 0,-0.432 -0.432,-0.432 -0.576,-0.432 l -1.068,0 0,-0.996 c 0,-0.384 -0.084,-0.576 -0.576,-0.576 l -0.372,0 c -0.432,0 -0.576,0.132 -0.576,0.576 l 0,0.996 -0.276,0 c -0.132,0 -0.576,0 -0.576,0.432 0,0.432 0.432,0.432 0.576,0.432 l 0.24,0 0,3.036 c 0,1.212 0.432,1.728 1.26,1.728 0.108,0 0.636,0 1.26,-0.192 0.204,-0.06 0.9,-0.276 0.9,-0.504"
           style="stroke:none"
           id="path3303" />
        <path
           d="m 817.2142,430.64379 0,-0.564 c 0,-0.24 0,-0.324 -0.216,-0.324 -0.336,0 -1.212,0.12 -1.776,1.416 l -0.012,0 0,-0.78 c 0,-0.384 -0.084,-0.576 -0.576,-0.576 l -0.384,0 c -0.432,0 -0.576,0.132 -0.576,0.576 l 0,4.416 c 0,0.432 0.132,0.576 0.576,0.576 l 0.444,0 c 0.456,0 0.576,-0.156 0.576,-0.576 l 0,-2.184 c 0,-1.14 0.948,-1.608 1.704,-1.656 0.216,-0.012 0.24,-0.012 0.24,-0.324"
           style="stroke:none"
           id="path3305" />
        <path
           d="m 823.61132,432.68379 c 0,-1.968 -0.96,-3 -2.916,-3 -2.00399,0 -2.928,1.068 -2.928,3 0,1.956 1.03201,2.832 2.916,2.832 1.884,0 2.928,-0.864 2.928,-2.832 m -1.632,-0.144 c 0,0.948 0,2.04 -1.284,2.04 -1.29599,0 -1.296,-1.08 -1.296,-2.04 0,-0.924 10e-6,-1.992 1.284,-1.992 1.296,0 1.296,1.056 1.296,1.992"
           style="stroke:none"
           id="path3307" />
        <path
           d="m 826.3327,434.80779 0,-7.176 c 0,-0.384 -0.084,-0.576 -0.576,-0.576 l -0.444,0 c -0.432,0 -0.576,0.132 -0.576,0.576 l 0,7.176 c 0,0.432 0.132,0.576 0.576,0.576 l 0.444,0 c 0.456,0 0.576,-0.156 0.576,-0.576"
           style="stroke:none"
           id="path3309" />
        <path
           d="m 831.82701,433.69179 c 0,-0.672 -0.36,-1.092 -0.576,-1.284 -0.48,-0.432 -0.9,-0.504 -1.404,-0.6 -0.66,-0.12 -1.14,-0.216 -1.14,-0.684 0,-0.492 0.396,-0.588 0.864,-0.588 0.804,0 1.236,0.3 1.548,0.564 0.12,0.12 0.144,0.12 0.192,0.12 0.12,0 0.144,-0.108 0.156,-0.156 0.024,-0.096 0.144,-0.768 0.144,-0.828 0,-0.192 -0.636,-0.36 -0.768,-0.408 -0.48,-0.132 -0.864,-0.144 -1.176,-0.144 -0.54,0 -2.148,0 -2.148,1.716 0,0.588 0.264,0.948 0.588,1.236 0.42,0.384 0.888,0.468 1.572,0.6 0.348,0.06 0.96,0.168 0.96,0.696 0,0.564 -0.468,0.648 -0.936,0.648 -0.528,0 -1.2,-0.156 -1.764,-0.828 -0.06,-0.06 -0.096,-0.096 -0.168,-0.096 -0.12,0 -0.144,0.108 -0.156,0.18 -0.024,0.168 -0.168,0.852 -0.168,0.972 0,0.216 0.9,0.504 0.9,0.504 0.66,0.204 1.152,0.204 1.356,0.204 0.612,0 2.124,-0.048 2.124,-1.824"
           style="stroke:none"
           id="path3311" />
      </g>
      <path
         style="fill:none"
         clip-path="url(#clipPath2)"
         d="m 754.92688,411.8042 111.185,0 c 2.216,0 4,1.784 4,4 l 0,29.115 c 0,2.216 -1.784,4 -4,4 l -111.185,0 c -2.216,0 -4,-1.784 -4,-4 l 0,-29.115 c 0,-2.216 1.784,-4 4,-4 z"
         id="rect78" />
    </g>
    <g
       transform="matrix(1,0,0,1,-576,5)"
       fill-opacity="0.2"
       fill="rgb(0,0,0)"
       text-rendering="optimizeQuality"
       shape-rendering="geometricPrecision"
       stroke="rgb(0,0,0)"
       stroke-opacity="0.2"
       id="g80">
      <path
         style="stroke:none"
         clip-path="url(#clipPath2)"
         d="m 904.1123,411.8042 111.185,0 c 2.216,0 4,1.784 4,4 l 0,29.115 c 0,2.216 -1.784,4 -4,4 l -111.185,0 c -2.216,0 -4,-1.784 -4,-4 l 0,-29.115 c 0,-2.216 1.784,-4 4,-4 z"
         id="rect82" />
    </g>
    <g
       stroke-linecap="butt"
       transform="matrix(1,0,0,1,-576,5)"
       text-rendering="optimizeQuality"
       font-family="'L M Sans10'"
       shape-rendering="geometricPrecision"
       font-weight="bold"
       stroke-miterlimit="1.45"
       id="g84">
      <g
         clip-path="url(#clipPath2)"
         style="stroke:none"
         id="text86">
        <path
           d="m 950.67457,434.80779 0,-3.216 c 0,-1.896 -1.824,-1.908 -2.424,-1.908 -0.564,0 -1.164,0.048 -1.968,0.384 -0.252,0.108 -0.312,0.144 -0.312,0.276 0,0.084 0.072,0.78 0.084,0.876 0.012,0.072 0.072,0.132 0.156,0.132 0.06,0 0.096,-0.036 0.132,-0.072 0.516,-0.54 1.116,-0.804 1.86,-0.804 0.648,0 0.84,0.396 0.84,1.104 l 0,0.42 c -0.42,0 -3.564,0.024 -3.564,1.788 0,0.84 0.672,1.728 1.728,1.728 0.408,0 1.308,-0.12 1.872,-0.948 l 0,0.24 c 0,0.384 0.084,0.576 0.576,0.576 l 0.444,0 c 0.456,0 0.576,-0.156 0.576,-0.576 m -1.632,-1.272 c 0,1.116 -1.14,1.116 -1.176,1.116 -0.504,0 -0.828,-0.432 -0.828,-0.888 0,-1.176 1.668,-1.26 2.004,-1.272 l 0,1.044"
           style="stroke:none"
           id="path3316" />
        <path
           d="m 957.29126,434.80779 0,-4.344 c 0,-0.384 -0.084,-0.576 -0.576,-0.576 l -0.48,0 c -0.456,0 -0.576,0.156 -0.576,0.576 l 0,2.844 c 0,0.792 -0.42,1.476 -1.272,1.476 -0.672,0 -0.744,-0.168 -0.744,-0.804 l 0,-3.516 c 0,-0.384 -0.084,-0.576 -0.576,-0.576 l -0.48,0 c -0.432,0 -0.576,0.132 -0.576,0.576 l 0,3.408 c 0,1.284 0.696,1.644 1.944,1.644 0.324,0 1.176,0 1.74,-1.02 l 0,0.312 c 0,0.384 0.084,0.576 0.576,0.576 l 0.444,0 c 0.456,0 0.576,-0.156 0.576,-0.576"
           style="stroke:none"
           id="path3318" />
        <path
           d="m 964.00582,434.80779 0,-7.176 c 0,-0.384 -0.084,-0.576 -0.576,-0.576 l -0.444,0 c -0.456,0 -0.576,0.156 -0.576,0.576 l 0,2.724 c -0.54,-0.516 -1.14,-0.6 -1.512,-0.6 -2.436,0 -2.436,2.304 -2.436,2.892 0,0.552 0,2.868 2.376,2.868 0.504,0 1.02,-0.144 1.536,-0.696 0,0.444 0.168,0.564 0.576,0.564 l 0.48,0 c 0.456,0 0.576,-0.156 0.576,-0.576 m -1.632,-0.924 c 0,0.204 0,0.312 -0.348,0.552 -0.3,0.192 -0.576,0.216 -0.72,0.216 -1.212,0 -1.212,-1.104 -1.212,-2.004 0,-0.9 0,-2.028 1.344,-2.028 0.348,0 0.672,0.12 0.936,0.372 l 0,2.892"
           style="stroke:none"
           id="path3320" />
        <path
           d="m 967.07238,434.80779 0,-4.344 c 0,-0.384 -0.084,-0.576 -0.576,-0.576 l -0.444,0 c -0.43199,0 -0.576,0.132 -0.576,0.576 l 0,4.344 c 0,0.432 0.13201,0.576 0.576,0.576 l 0.444,0 c 0.456,0 0.576,-0.156 0.576,-0.576 m 0.084,-6.696 0,-0.228 c 0,-0.384 -0.084,-0.576 -0.576,-0.576 l -0.612,0 c -0.45599,0 -0.576,0.156 -0.576,0.576 l 0,0.228 c 0,0.348 0.06,0.576 0.576,0.576 l 0.612,0 c 0.504,0 0.576,-0.216 0.576,-0.576"
           style="stroke:none"
           id="path3322" />
        <path
           d="m 974.0307,432.68379 c 0,-1.968 -0.96,-3 -2.916,-3 -2.004,0 -2.928,1.068 -2.928,3 0,1.956 1.032,2.832 2.916,2.832 1.884,0 2.928,-0.864 2.928,-2.832 m -1.632,-0.144 c 0,0.948 0,2.04 -1.284,2.04 -1.296,0 -1.296,-1.08 -1.296,-2.04 0,-0.924 0,-1.992 1.284,-1.992 1.296,0 1.296,1.056 1.296,1.992"
           style="stroke:none"
           id="path3324" />
      </g>
      <path
         style="fill:none"
         clip-path="url(#clipPath2)"
         d="m 904.1123,411.8042 111.185,0 c 2.216,0 4,1.784 4,4 l 0,29.115 c 0,2.216 -1.784,4 -4,4 l -111.185,0 c -2.216,0 -4,-1.784 -4,-4 l 0,-29.115 c 0,-2.216 1.784,-4 4,-4 z"
         id="rect88" />
    </g>
    <g
       transform="matrix(1,0,0,1,-576,5)"
       fill-opacity="0.2"
       fill="rgb(0,0,0)"
       text-rendering="optimizeQuality"
       shape-rendering="geometricPrecision"
       stroke="rgb(0,0,0)"
       stroke-opacity="0.2"
       id="g90">
      <path
         style="stroke:none"
         clip-path="url(#clipPath2)"
         d="m 605.74158,411.8042 111.18499,0 c 2.216,0 4,1.784 4,4 l 0,29.115 c 0,2.216 -1.784,4 -4,4 l -111.18499,0 c -2.216,0 -4,-1.784 -4,-4 l 0,-29.115 c 0,-2.216 1.784,-4 4,-4 z"
         id="rect92" />
    </g>
    <g
       stroke-linecap="butt"
       transform="matrix(1,0,0,1,-576,5)"
       text-rendering="optimizeQuality"
       font-family="'L M Sans10'"
       shape-rendering="geometricPrecision"
       font-weight="bold"
       stroke-miterlimit="1.45"
       id="g94">
      <g
         clip-path="url(#clipPath2)"
         style="stroke:none"
         id="text96">
        <path
           d="m 652.74198,430.22379 c 0,-0.336 -0.3,-0.336 -0.48,-0.336 l -0.252,0 c -0.504,0 -0.636,0.18 -0.744,0.516 l -1.188,3.624 -1.188,-3.624 c -0.084,-0.252 -0.168,-0.516 -0.744,-0.516 l -0.288,0 c -0.18,0 -0.48,0 -0.48,0.336 0,0.036 0,0.06 0.06,0.228 l 1.428,4.428 c 0.168,0.504 0.54,0.504 0.756,0.504 l 0.876,0 c 0.216,0 0.588,0 0.756,-0.504 l 1.428,-4.428 c 0.06,-0.168 0.06,-0.192 0.06,-0.228"
           style="stroke:none"
           id="path3329" />
        <path
           d="m 655.39398,434.80779 0,-4.344 c 0,-0.384 -0.084,-0.576 -0.576,-0.576 l -0.444,0 c -0.432,0 -0.576,0.132 -0.576,0.576 l 0,4.344 c 0,0.432 0.132,0.576 0.576,0.576 l 0.444,0 c 0.456,0 0.576,-0.156 0.576,-0.576 m 0.084,-6.696 0,-0.228 c 0,-0.384 -0.084,-0.576 -0.576,-0.576 l -0.612,0 c -0.456,0 -0.576,0.156 -0.576,0.576 l 0,0.228 c 0,0.348 0.06,0.576 0.576,0.576 l 0.612,0 c 0.504,0 0.576,-0.216 0.576,-0.576"
           style="stroke:none"
           id="path3331" />
        <path
           d="m 662.12429,434.80779 0,-7.176 c 0,-0.384 -0.084,-0.576 -0.576,-0.576 l -0.444,0 c -0.456,0 -0.576,0.156 -0.576,0.576 l 0,2.724 c -0.54,-0.516 -1.14,-0.6 -1.512,-0.6 -2.436,0 -2.436,2.304 -2.436,2.892 0,0.552 0,2.868 2.376,2.868 0.504,0 1.02,-0.144 1.536,-0.696 0,0.444 0.168,0.564 0.576,0.564 l 0.48,0 c 0.456,0 0.576,-0.156 0.576,-0.576 m -1.632,-0.924 c 0,0.204 0,0.312 -0.348,0.552 -0.3,0.192 -0.576,0.216 -0.72,0.216 -1.212,0 -1.212,-1.104 -1.212,-2.004 0,-0.9 0,-2.028 1.344,-2.028 0.348,0 0.672,0.12 0.936,0.372 l 0,2.892"
           style="stroke:none"
           id="path3333" />
        <path
           d="m 668.61085,432.26379 c 0,-1.548 -0.72,-2.58 -2.508,-2.58 -1.91999,0 -2.868,1.08 -2.868,2.904 0,1.968 1.14001,2.928 3.024,2.928 0.456,0 1.14,-0.06 1.932,-0.456 0.264,-0.132 0.348,-0.168 0.348,-0.312 0,-0.084 -0.036,-0.432 -0.048,-0.528 -0.048,-0.372 -0.06,-0.384 -0.168,-0.384 -0.048,0 -0.072,0 -0.204,0.12 -0.708,0.612 -1.428,0.696 -1.812,0.696 -1.35599,0 -1.5,-1.068 -1.536,-1.836 l 3.264,0 c 0.276,0 0.576,-0.012 0.576,-0.552 m -1.332,-0.084 -2.496,0 c 0.036,-0.732 0.27601,-1.632 1.32,-1.632 0.96,0 1.14,0.696 1.176,1.632"
           style="stroke:none"
           id="path3335" />
        <path
           d="m 675.21948,432.68379 c 0,-1.968 -0.96,-3 -2.916,-3 -2.004,0 -2.928,1.068 -2.928,3 0,1.956 1.032,2.832 2.916,2.832 1.884,0 2.928,-0.864 2.928,-2.832 m -1.632,-0.144 c 0,0.948 0,2.04 -1.284,2.04 -1.296,0 -1.296,-1.08 -1.296,-2.04 0,-0.924 0,-1.992 1.284,-1.992 1.296,0 1.296,1.056 1.296,1.992"
           style="stroke:none"
           id="path3337" />
      </g>
      <path
         style="fill:none"
         clip-path="url(#clipPath2)"
         d="m 605.74158,411.8042 111.18499,0 c 2.216,0 4,1.784 4,4 l 0,29.115 c 0,2.216 -1.784,4 -4,4 l -111.18499,0 c -2.216,0 -4,-1.784 -4,-4 l 0,-29.115 c 0,-2.216 1.784,-4 4,-4 z"
         id="rect98" />
    </g>
    <g
       transform="matrix(1,0,0,1,-576,5)"
       fill-opacity="0.2"
       fill="rgb(0,0,0)"
       text-rendering="optimizeQuality"
       shape-rendering="geometricPrecision"
       stroke="rgb(0,0,0)"
       stroke-opacity="0.2"
       id="g100">
      <path
         style="stroke:none"
         clip-path="url(#clipPath2)"
         d="m 1053.2976,411.8042 111.185,0 c 2.216,0 4,1.784 4,4 l 0,29.115 c 0,2.216 -1.784,4 -4,4 l -111.185,0 c -2.216,0 -4,-1.784 -4,-4 l 0,-29.115 c 0,-2.216 1.784,-4 4,-4 z"
         id="rect102" />
    </g>
    <g
       stroke-linecap="butt"
       transform="matrix(1,0,0,1,-576,5)"
       text-rendering="optimizeQuality"
       font-family="'L M Sans10'"
       shape-rendering="geometricPrecision"
       font-weight="bold"
       stroke-miterlimit="1.45"
       id="g104">
      <g
         clip-path="url(#clipPath2)"
         style="stroke:none"
         id="text106">
        <path
           d="m 1076.5798,434.78379 c 0,-0.132 -0.048,-0.684 -0.072,-0.84 0,-0.036 -0.024,-0.156 -0.144,-0.156 -0.048,0 -0.072,0 -0.192,0.12 -0.204,0.18 -0.768,0.672 -1.752,0.672 -1.248,0 -1.248,-1.212 -1.248,-1.98 0,-0.972 0.06,-1.98 1.284,-1.98 0.78,0 1.104,0.192 1.536,0.552 0.144,0.132 0.168,0.132 0.216,0.132 0.12,0 0.144,-0.108 0.156,-0.156 0.024,-0.096 0.144,-0.768 0.144,-0.828 0,-0.108 -0.084,-0.156 -0.288,-0.252 -0.576,-0.264 -0.936,-0.384 -1.776,-0.384 -1.788,0 -2.904,0.84 -2.904,2.94 0,1.992 1.032,2.892 2.844,2.892 0.324,0 1.044,-0.012 1.848,-0.42 0.336,-0.18 0.348,-0.192 0.348,-0.312"
           style="stroke:none"
           id="path3342" />
        <path
           d="m 1082.9552,434.80779 0,-4.344 c 0,-0.384 -0.084,-0.576 -0.576,-0.576 l -0.48,0 c -0.456,0 -0.576,0.156 -0.576,0.576 l 0,2.844 c 0,0.792 -0.42,1.476 -1.272,1.476 -0.672,0 -0.744,-0.168 -0.744,-0.804 l 0,-3.516 c 0,-0.384 -0.084,-0.576 -0.576,-0.576 l -0.48,0 c -0.432,0 -0.576,0.132 -0.576,0.576 l 0,3.408 c 0,1.284 0.696,1.644 1.944,1.644 0.324,0 1.176,0 1.74,-1.02 l 0,0.312 c 0,0.384 0.084,0.576 0.576,0.576 l 0.444,0 c 0.456,0 0.576,-0.156 0.576,-0.576"
           style="stroke:none"
           id="path3344" />
        <path
           d="m 1088.4338,433.69179 c 0,-0.672 -0.36,-1.092 -0.576,-1.284 -0.48,-0.432 -0.9,-0.504 -1.404,-0.6 -0.66,-0.12 -1.14,-0.216 -1.14,-0.684 0,-0.492 0.396,-0.588 0.864,-0.588 0.804,0 1.236,0.3 1.548,0.564 0.12,0.12 0.144,0.12 0.192,0.12 0.12,0 0.144,-0.108 0.156,-0.156 0.024,-0.096 0.144,-0.768 0.144,-0.828 0,-0.192 -0.636,-0.36 -0.768,-0.408 -0.48,-0.132 -0.864,-0.144 -1.176,-0.144 -0.54,0 -2.148,0 -2.148,1.716 0,0.588 0.264,0.948 0.588,1.236 0.42,0.384 0.888,0.468 1.572,0.6 0.348,0.06 0.96,0.168 0.96,0.696 0,0.564 -0.468,0.648 -0.936,0.648 -0.528,0 -1.2,-0.156 -1.764,-0.828 -0.06,-0.06 -0.096,-0.096 -0.168,-0.096 -0.12,0 -0.144,0.108 -0.156,0.18 -0.024,0.168 -0.168,0.852 -0.168,0.972 0,0.216 0.9,0.504 0.9,0.504 0.66,0.204 1.152,0.204 1.356,0.204 0.612,0 2.124,-0.048 2.124,-1.824"
           style="stroke:none"
           id="path3346" />
        <path
           d="m 1093.2203,434.81979 c 0,-0.036 -0.024,-0.12 -0.096,-0.372 -0.06,-0.24 -0.084,-0.312 -0.192,-0.312 -0.06,0 -0.072,0.012 -0.144,0.084 -0.132,0.096 -0.456,0.36 -0.96,0.36 -0.288,0 -0.468,-0.204 -0.468,-0.996 l 0,-2.832 1.068,0 c 0.144,0 0.576,0 0.576,-0.432 0,-0.432 -0.432,-0.432 -0.576,-0.432 l -1.068,0 0,-0.996 c 0,-0.384 -0.084,-0.576 -0.576,-0.576 l -0.372,0 c -0.432,0 -0.576,0.132 -0.576,0.576 l 0,0.996 -0.276,0 c -0.132,0 -0.576,0 -0.576,0.432 0,0.432 0.432,0.432 0.576,0.432 l 0.24,0 0,3.036 c 0,1.212 0.432,1.728 1.26,1.728 0.108,0 0.636,0 1.26,-0.192 0.204,-0.06 0.9,-0.276 0.9,-0.504"
           style="stroke:none"
           id="path3348" />
        <path
           d="m 1099.8118,432.68379 c 0,-1.968 -0.96,-3 -2.916,-3 -2.004,0 -2.928,1.068 -2.928,3 0,1.956 1.032,2.832 2.916,2.832 1.884,0 2.928,-0.864 2.928,-2.832 m -1.632,-0.144 c 0,0.948 0,2.04 -1.284,2.04 -1.296,0 -1.296,-1.08 -1.296,-2.04 0,-0.924 0,-1.992 1.284,-1.992 1.296,0 1.296,1.056 1.296,1.992"
           style="stroke:none"
           id="path3350" />
        <path
           d="m 1109.8772,434.80779 0,-3.324 c 0,-1.236 -0.528,-1.728 -1.752,-1.728 -0.852,0 -1.512,0.396 -1.944,1.188 -0.192,-1.152 -1.212,-1.188 -1.716,-1.188 -0.228,0 -0.732,0 -1.272,0.396 -0.372,0.276 -0.612,0.66 -0.696,0.84 l -0.012,0 0,-0.6 c 0,-0.384 -0.084,-0.576 -0.576,-0.576 l -0.408,0 c -0.432,0 -0.576,0.132 -0.576,0.576 l 0,4.416 c 0,0.432 0.132,0.576 0.576,0.576 l 0.48,0 c 0.456,0 0.576,-0.156 0.576,-0.576 l 0,-2.652 c 0,-1.08 0.732,-1.536 1.32,-1.536 0.576,0 0.708,0.252 0.708,0.888 l 0,3.3 c 0,0.432 0.132,0.576 0.576,0.576 l 0.48,0 c 0.456,0 0.576,-0.156 0.576,-0.576 l 0,-2.652 c 0,-1.08 0.732,-1.536 1.32,-1.536 0.576,0 0.708,0.252 0.708,0.888 l 0,3.3 c 0,0.432 0.132,0.576 0.576,0.576 l 0.48,0 c 0.456,0 0.576,-0.156 0.576,-0.576"
           style="stroke:none"
           id="path3352" />
        <path
           d="m 1120.5017,434.78379 c 0,-0.132 -0.048,-0.684 -0.072,-0.84 0,-0.036 -0.024,-0.156 -0.144,-0.156 -0.048,0 -0.072,0 -0.192,0.12 -0.204,0.18 -0.768,0.672 -1.752,0.672 -1.248,0 -1.248,-1.212 -1.248,-1.98 0,-0.972 0.06,-1.98 1.284,-1.98 0.78,0 1.104,0.192 1.536,0.552 0.144,0.132 0.168,0.132 0.216,0.132 0.12,0 0.144,-0.108 0.156,-0.156 0.024,-0.096 0.144,-0.768 0.144,-0.828 0,-0.108 -0.084,-0.156 -0.288,-0.252 -0.576,-0.264 -0.936,-0.384 -1.776,-0.384 -1.788,0 -2.904,0.84 -2.904,2.94 0,1.992 1.032,2.892 2.844,2.892 0.324,0 1.044,-0.012 1.848,-0.42 0.336,-0.18 0.348,-0.192 0.348,-0.312"
           style="stroke:none"
           id="path3354" />
        <path
           d="m 1127.0931,432.68379 c 0,-1.968 -0.96,-3 -2.916,-3 -2.004,0 -2.928,1.068 -2.928,3 0,1.956 1.032,2.832 2.916,2.832 1.884,0 2.928,-0.864 2.928,-2.832 m -1.632,-0.144 c 0,0.948 0,2.04 -1.284,2.04 -1.296,0 -1.296,-1.08 -1.296,-2.04 0,-0.924 0,-1.992 1.284,-1.992 1.296,0 1.296,1.056 1.296,1.992"
           style="stroke:none"
           id="path3356" />
        <path
           d="m 1129.8145,434.80779 0,-7.176 c 0,-0.384 -0.084,-0.576 -0.576,-0.576 l -0.444,0 c -0.432,0 -0.576,0.132 -0.576,0.576 l 0,7.176 c 0,0.432 0.132,0.576 0.576,0.576 l 0.444,0 c 0.4559,0 0.576,-0.156 0.576,-0.576"
           style="stroke:none"
           id="path3358" />
        <path
           d="m 1136.7728,432.68379 c 0,-1.968 -0.96,-3 -2.916,-3 -2.004,0 -2.928,1.068 -2.928,3 0,1.956 1.032,2.832 2.916,2.832 1.884,0 2.928,-0.864 2.928,-2.832 m -1.632,-0.144 c 0,0.948 0,2.04 -1.284,2.04 -1.296,0 -1.296,-1.08 -1.296,-2.04 0,-0.924 0,-1.992 1.284,-1.992 1.296,0 1.296,1.056 1.296,1.992"
           style="stroke:none"
           id="path3360" />
        <path
           d="m 1141.4381,430.64379 0,-0.564 c 0,-0.24 0,-0.324 -0.216,-0.324 -0.336,0 -1.212,0.12 -1.776,1.416 l -0.012,0 0,-0.78 c 0,-0.384 -0.084,-0.576 -0.576,-0.576 l -0.384,0 c -0.432,0 -0.576,0.132 -0.576,0.576 l 0,4.416 c 0,0.432 0.132,0.576 0.576,0.576 l 0.444,0 c 0.456,0 0.576,-0.156 0.576,-0.576 l 0,-2.184 c 0,-1.14 0.948,-1.608 1.704,-1.656 0.216,-0.012 0.24,-0.012 0.24,-0.324"
           style="stroke:none"
           id="path3362" />
        <path
           d="m 1146.3713,433.69179 c 0,-0.672 -0.36,-1.092 -0.576,-1.284 -0.48,-0.432 -0.9,-0.504 -1.404,-0.6 -0.66,-0.12 -1.14,-0.216 -1.14,-0.684 0,-0.492 0.396,-0.588 0.864,-0.588 0.804,0 1.236,0.3 1.548,0.564 0.12,0.12 0.144,0.12 0.192,0.12 0.12,0 0.144,-0.108 0.156,-0.156 0.024,-0.096 0.144,-0.768 0.144,-0.828 0,-0.192 -0.636,-0.36 -0.768,-0.408 -0.48,-0.132 -0.864,-0.144 -1.176,-0.144 -0.54,0 -2.148,0 -2.148,1.716 0,0.588 0.264,0.948 0.588,1.236 0.42,0.384 0.888,0.468 1.572,0.6 0.348,0.06 0.96,0.168 0.96,0.696 0,0.564 -0.468,0.648 -0.936,0.648 -0.528,0 -1.2,-0.156 -1.764,-0.828 -0.06,-0.06 -0.096,-0.096 -0.168,-0.096 -0.12,0 -0.144,0.108 -0.156,0.18 -0.024,0.168 -0.168,0.852 -0.168,0.972 0,0.216 0.9,0.504 0.9,0.504 0.66,0.204 1.152,0.204 1.356,0.204 0.612,0 2.124,-0.048 2.124,-1.824"
           style="stroke:none"
           id="path3364" />
      </g>
      <path
         style="fill:none"
         clip-path="url(#clipPath2)"
         d="m 1053.2976,411.8042 111.185,0 c 2.216,0 4,1.784 4,4 l 0,29.115 c 0,2.216 -1.784,4 -4,4 l -111.185,0 c -2.216,0 -4,-1.784 -4,-4 l 0,-29.115 c 0,-2.216 1.784,-4 4,-4 z"
         id="rect108" />
      <g
         clip-path="url(#clipPath2)"
         style="stroke:none"
         id="text110">
        <path
           d="m 641.49792,261.35309 c 0,-0.132 -0.048,-0.684 -0.072,-0.84 0,-0.036 -0.024,-0.156 -0.144,-0.156 -0.048,0 -0.072,0 -0.192,0.12 -0.204,0.18 -0.768,0.672 -1.752,0.672 -1.248,0 -1.248,-1.212 -1.248,-1.98 0,-0.97199 0.06,-1.98 1.284,-1.98 0.78,0 1.104,0.192 1.536,0.552 0.144,0.132 0.168,0.132 0.216,0.132 0.12,0 0.144,-0.108 0.156,-0.156 0.024,-0.096 0.144,-0.768 0.144,-0.828 0,-0.108 -0.084,-0.156 -0.288,-0.252 -0.576,-0.264 -0.936,-0.384 -1.776,-0.384 -1.788,0 -2.904,0.84001 -2.904,2.94 0,1.992 1.032,2.892 2.844,2.892 0.324,0 1.044,-0.012 1.848,-0.42 0.336,-0.18 0.348,-0.192 0.348,-0.312"
           style="stroke:none"
           id="path3368" />
        <path
           d="m 647.87329,261.37709 0,-3.324 c 0,-1.23599 -0.528,-1.728 -1.752,-1.728 -1.2,0 -1.752,0.828 -1.92,1.164 l -0.012,0 0,-3.288 c 0,-0.384 -0.084,-0.576 -0.576,-0.576 l -0.444,0 c -0.432,0 -0.576,0.132 -0.576,0.576 l 0,7.176 c 0,0.432 0.132,0.576 0.576,0.576 l 0.48,0 c 0.456,0 0.576,-0.156 0.576,-0.576 l 0,-2.652 c 0,-1.04399 0.696,-1.536 1.32,-1.536 0.576,0 0.696,0.27601 0.696,0.888 l 0,3.3 c 0,0.384 0.084,0.576 0.576,0.576 l 0.48,0 c 0.456,0 0.576,-0.156 0.576,-0.576"
           style="stroke:none"
           id="path3370" />
        <path
           d="m 654.28785,261.37709 0,-3.216 c 0,-1.89599 -1.824,-1.908 -2.424,-1.908 -0.564,0 -1.164,0.048 -1.968,0.384 -0.252,0.108 -0.312,0.144 -0.312,0.276 0,0.084 0.072,0.78 0.084,0.876 0.012,0.072 0.072,0.132 0.156,0.132 0.06,0 0.096,-0.036 0.132,-0.072 0.516,-0.53999 1.116,-0.804 1.86,-0.804 0.648,0 0.84,0.39601 0.84,1.104 l 0,0.42 c -0.42,0 -3.564,0.024 -3.564,1.788 0,0.84 0.672,1.728 1.728,1.728 0.408,0 1.308,-0.12 1.872,-0.948 l 0,0.24 c 0,0.384 0.084,0.576 0.576,0.576 l 0.444,0 c 0.456,0 0.576,-0.156 0.576,-0.576 m -1.632,-1.272 c 0,1.116 -1.14,1.116 -1.176,1.116 -0.504,0 -0.828,-0.432 -0.828,-0.888 0,-1.17599 1.668,-1.26 2.004,-1.272 l 0,1.044"
           style="stroke:none"
           id="path3372" />
        <path
           d="m 657.23254,261.37709 0,-7.176 c 0,-0.384 -0.084,-0.576 -0.576,-0.576 l -0.444,0 c -0.432,0 -0.576,0.132 -0.576,0.576 l 0,7.176 c 0,0.432 0.132,0.576 0.576,0.576 l 0.444,0 c 0.456,0 0.576,-0.156 0.576,-0.576"
           style="stroke:none"
           id="path3374" />
        <path
           d="m 660.30285,261.37709 0,-7.176 c 0,-0.384 -0.084,-0.576 -0.576,-0.576 l -0.444,0 c -0.432,0 -0.576,0.132 -0.576,0.576 l 0,7.176 c 0,0.432 0.132,0.576 0.576,0.576 l 0.444,0 c 0.456,0 0.576,-0.156 0.576,-0.576"
           style="stroke:none"
           id="path3376" />
        <path
           d="m 666.79317,258.83309 c 0,-1.54799 -0.72001,-2.58 -2.508,-2.58 -1.92,0 -2.868,1.08001 -2.868,2.904 0,1.968 1.14,2.928 3.024,2.928 0.456,0 1.14,-0.06 1.932,-0.456 0.264,-0.132 0.348,-0.168 0.348,-0.312 0,-0.084 -0.036,-0.432 -0.048,-0.528 -0.048,-0.372 -0.06,-0.384 -0.168,-0.384 -0.048,0 -0.072,0 -0.204,0.12 -0.708,0.612 -1.428,0.696 -1.812,0.696 -1.356,0 -1.5,-1.068 -1.536,-1.836 l 3.264,0 c 0.276,0 0.576,-0.012 0.576,-0.552 m -1.332,-0.084 -2.496,0 c 0.036,-0.73199 0.276,-1.632 1.32,-1.632 0.96,0 1.14,0.69601 1.176,1.632"
           style="stroke:none"
           id="path3378" />
        <path
           d="m 673.18579,261.37709 0,-3.324 c 0,-1.23599 -0.528,-1.728 -1.752,-1.728 -1.26,0 -1.8,0.912 -1.956,1.236 l -0.012,0 0,-0.6 c 0,-0.384 -0.084,-0.576 -0.576,-0.576 l -0.408,0 c -0.432,0 -0.576,0.132 -0.576,0.576 l 0,4.416 c 0,0.432 0.132,0.576 0.576,0.576 l 0.48,0 c 0.456,0 0.576,-0.156 0.576,-0.576 l 0,-2.652 c 0,-1.04399 0.696,-1.536 1.32,-1.536 0.576,0 0.696,0.27601 0.696,0.888 l 0,3.3 c 0,0.384 0.084,0.576 0.576,0.576 l 0.48,0 c 0.456,0 0.576,-0.156 0.576,-0.576"
           style="stroke:none"
           id="path3380" />
        <path
           d="m 680.32035,257.09309 c 0,-0.048 -0.06,-0.336 -0.084,-0.456 -0.048,-0.288 -0.048,-0.312 -0.264,-0.312 -0.372,0 -0.972,0.144 -1.428,0.42 -0.564,-0.372 -1.188,-0.42 -1.704,-0.42 -0.504,0 -2.412,1e-5 -2.412,1.98 0,0.48 0.132,1.08 0.588,1.476 -0.324,0.444 -0.324,0.912 -0.324,0.972 0,0.228 0.072,0.624 0.324,0.948 -0.18,0.072 -0.804,0.28801 -0.804,1.056 0,0.372 0.18,0.996 0.936,1.344 0.684,0.312 1.488,0.324 2.052,0.324 0.708,0 3,0 3,-1.704 0,-1.87199 -1.692,-1.872 -3.312,-1.872 l -0.576,0 c -0.432,0 -0.6,0 -0.768,-0.144 -0.048,-0.048 -0.252,-0.228 -0.252,-0.54 0,-0.084 0.012,-0.108 0.024,-0.18 0.564,0.312 1.272,0.312 1.524,0.312 0.504,0 2.412,0 2.412,-1.98 0,-0.69599 -0.264,-1.116 -0.372,-1.248 0.204,0 0.624,0 1.116,0.132 0.048,0.024 0.132,0.048 0.168,0.048 0.096,0 0.156,-0.072 0.156,-0.156 m -2.604,1.212 c 0,0.66 -0.036,1.128 -0.876,1.128 -0.84,0 -0.876,-0.456 -0.876,-1.116 0,-0.65999 0.036,-1.128 0.876,-1.128 0.84,0 0.876,0.45601 0.876,1.116 m 1.248,4.452 c 0,0.804 -1.368,0.804 -1.752,0.804 -0.48,0 -1.764,0 -1.764,-0.84 0,-0.56399 0.372,-0.564 0.648,-0.564 l 1.392,0 c 0.972,0 1.476,0.168 1.476,0.6"
           style="stroke:none"
           id="path3382" />
        <path
           d="m 686.26973,258.83309 c 0,-1.54799 -0.72,-2.58 -2.508,-2.58 -1.92,0 -2.868,1.08001 -2.868,2.904 0,1.968 1.14,2.928 3.024,2.928 0.456,0 1.14,-0.06 1.932,-0.456 0.264,-0.132 0.348,-0.168 0.348,-0.312 0,-0.084 -0.036,-0.432 -0.048,-0.528 -0.048,-0.372 -0.06,-0.384 -0.168,-0.384 -0.048,0 -0.072,0 -0.204,0.12 -0.708,0.612 -1.428,0.696 -1.812,0.696 -1.356,0 -1.5,-1.068 -1.536,-1.836 l 3.264,0 c 0.276,0 0.576,-0.012 0.576,-0.552 m -1.332,-0.084 -2.496,0 c 0.036,-0.73199 0.276,-1.632 1.32,-1.632 0.96,0 1.14,0.69601 1.176,1.632"
           style="stroke:none"
           id="path3384" />
      </g>
      <g
         clip-path="url(#clipPath2)"
         style="stroke:none"
         id="text112">
        <path
           d="m 644.90599,277.43321 c 0,-0.672 -0.36,-1.092 -0.576,-1.284 -0.48,-0.432 -0.9,-0.504 -1.404,-0.6 -0.66,-0.12 -1.14,-0.216 -1.14,-0.684 0,-0.492 0.396,-0.588 0.864,-0.588 0.804,0 1.236,0.3 1.548,0.564 0.12,0.12 0.144,0.12 0.192,0.12 0.12,0 0.144,-0.108 0.156,-0.156 0.024,-0.096 0.144,-0.768 0.144,-0.828 0,-0.192 -0.636,-0.36 -0.768,-0.408 -0.48,-0.132 -0.864,-0.144 -1.176,-0.144 -0.54,0 -2.148,1e-5 -2.148,1.716 0,0.588 0.264,0.948 0.588,1.236 0.42,0.384 0.888,0.468 1.572,0.6 0.348,0.06 0.96,0.168 0.96,0.696 0,0.564 -0.468,0.648 -0.936,0.648 -0.528,0 -1.2,-0.156 -1.764,-0.828 -0.06,-0.06 -0.096,-0.096 -0.168,-0.096 -0.12,0 -0.144,0.108 -0.156,0.18 -0.024,0.168 -0.168,0.852 -0.168,0.972 0,0.216 0.9,0.504 0.9,0.504 0.66,0.204 1.152,0.204 1.356,0.204 0.612,0 2.124,-0.048 2.124,-1.824"
           style="stroke:none"
           id="path3387" />
        <path
           d="m 650.96449,276.00521 c 0,-1.54799 -0.72,-2.58 -2.508,-2.58 -1.92,0 -2.868,1.08001 -2.868,2.904 0,1.968 1.14,2.928 3.024,2.928 0.456,0 1.14,-0.06 1.932,-0.456 0.264,-0.132 0.348,-0.168 0.348,-0.312 0,-0.084 -0.036,-0.432 -0.048,-0.528 -0.048,-0.372 -0.06,-0.384 -0.168,-0.384 -0.048,0 -0.072,0 -0.204,0.12 -0.708,0.612 -1.428,0.696 -1.812,0.696 -1.356,0 -1.5,-1.068 -1.536,-1.836 l 3.264,0 c 0.276,0 0.576,-0.012 0.576,-0.552 m -1.332,-0.084 -2.496,0 c 0.036,-0.732 0.276,-1.632 1.32,-1.632 0.96,0 1.14,0.696 1.176,1.632"
           style="stroke:none"
           id="path3389" />
        <path
           d="m 655.83312,278.56121 c 0,-0.036 -0.024,-0.12 -0.096,-0.372 -0.06,-0.24 -0.084,-0.312 -0.192,-0.312 -0.06,0 -0.072,0.012 -0.144,0.084 -0.132,0.096 -0.456,0.36 -0.96,0.36 -0.288,0 -0.468,-0.204 -0.468,-0.996 l 0,-2.832 1.068,0 c 0.144,0 0.576,0 0.576,-0.432 0,-0.432 -0.432,-0.432 -0.576,-0.432 l -1.068,0 0,-0.996 c 0,-0.384 -0.084,-0.576 -0.576,-0.576 l -0.372,0 c -0.432,0 -0.576,0.132 -0.576,0.576 l 0,0.996 -0.276,0 c -0.132,0 -0.576,0 -0.576,0.432 0,0.432 0.432,0.432 0.576,0.432 l 0.24,0 0,3.036 c 0,1.212 0.432,1.728 1.26,1.728 0.108,0 0.636,0 1.26,-0.192 0.204,-0.06 0.9,-0.276 0.9,-0.504"
           style="stroke:none"
           id="path3391" />
        <path
           d="m 660.68468,278.56121 c 0,-0.036 -0.024,-0.12 -0.096,-0.372 -0.06,-0.24 -0.084,-0.312 -0.192,-0.312 -0.06,0 -0.072,0.012 -0.144,0.084 -0.132,0.096 -0.456,0.36 -0.96,0.36 -0.288,0 -0.468,-0.204 -0.468,-0.996 l 0,-2.832 1.068,0 c 0.144,0 0.576,0 0.576,-0.432 0,-0.432 -0.432,-0.432 -0.576,-0.432 l -1.068,0 0,-0.996 c 0,-0.384 -0.084,-0.576 -0.576,-0.576 l -0.372,0 c -0.432,0 -0.576,0.132 -0.576,0.576 l 0,0.996 -0.276,0 c -0.132,0 -0.576,0 -0.576,0.432 0,0.432 0.432,0.432 0.576,0.432 l 0.24,0 0,3.036 c 0,1.212 0.432,1.728 1.26,1.728 0.108,0 0.636,0 1.26,-0.192 0.204,-0.06 0.9,-0.276 0.9,-0.504"
           style="stroke:none"
           id="path3393" />
        <path
           d="m 663.38824,278.54921 0,-4.344 c 0,-0.384 -0.084,-0.576 -0.576,-0.576 l -0.444,0 c -0.432,0 -0.576,0.132 -0.576,0.576 l 0,4.344 c 0,0.432 0.132,0.576 0.576,0.576 l 0.444,0 c 0.456,0 0.576,-0.156 0.576,-0.576 m 0.084,-6.696 0,-0.228 c 0,-0.384 -0.084,-0.576 -0.576,-0.576 l -0.612,0 c -0.456,0 -0.576,0.156 -0.576,0.576 l 0,0.228 c 0,0.348 0.06,0.576 0.576,0.576 l 0.612,0 c 0.504,0 0.576,-0.216 0.576,-0.576"
           style="stroke:none"
           id="path3395" />
        <path
           d="m 670.13055,278.54921 0,-3.324 c 0,-1.236 -0.528,-1.728 -1.752,-1.728 -1.25999,0 -1.8,0.912 -1.956,1.236 l -0.012,0 0,-0.6 c 0,-0.384 -0.084,-0.576 -0.576,-0.576 l -0.408,0 c -0.432,0 -0.576,0.132 -0.576,0.576 l 0,4.416 c 0,0.432 0.132,0.576 0.576,0.576 l 0.48,0 c 0.456,0 0.576,-0.156 0.576,-0.576 l 0,-2.652 c 0,-1.044 0.696,-1.536 1.32,-1.536 0.576,0 0.696,0.276 0.696,0.888 l 0,3.3 c 0,0.384 0.084,0.576 0.576,0.576 l 0.48,0 c 0.456,0 0.576,-0.156 0.576,-0.576"
           style="stroke:none"
           id="path3397" />
        <path
           d="m 677.26512,274.26521 c 0,-0.048 -0.06,-0.336 -0.084,-0.456 -0.048,-0.288 -0.048,-0.312 -0.264,-0.312 -0.372,0 -0.972,0.144 -1.428,0.42 -0.564,-0.372 -1.188,-0.42 -1.704,-0.42 -0.504,0 -2.412,1e-5 -2.412,1.98 0,0.48 0.132,1.08 0.588,1.476 -0.324,0.444 -0.324,0.912 -0.324,0.972 0,0.228 0.072,0.624 0.324,0.948 -0.18,0.072 -0.804,0.288 -0.804,1.056 0,0.372 0.18,0.996 0.936,1.344 0.684,0.312 1.488,0.324 2.052,0.324 0.708,0 3,0 3,-1.704 0,-1.87199 -1.692,-1.872 -3.312,-1.872 l -0.576,0 c -0.432,0 -0.6,0 -0.768,-0.144 -0.048,-0.048 -0.252,-0.228 -0.252,-0.54 0,-0.084 0.012,-0.108 0.024,-0.18 0.564,0.312 1.272,0.312 1.524,0.312 0.504,0 2.412,0 2.412,-1.98 0,-0.696 -0.264,-1.116 -0.372,-1.248 0.204,0 0.624,0 1.116,0.132 0.048,0.024 0.132,0.048 0.168,0.048 0.096,0 0.156,-0.072 0.156,-0.156 m -2.604,1.212 c 0,0.66 -0.036,1.128 -0.876,1.128 -0.84,0 -0.876,-0.456 -0.876,-1.116 0,-0.66 0.036,-1.128 0.876,-1.128 0.84,0 0.876,0.456 0.876,1.116 m 1.248,4.452 c 0,0.804 -1.368,0.804 -1.752,0.804 -0.48,0 -1.764,0 -1.764,-0.84 0,-0.564 0.372,-0.564 0.648,-0.564 l 1.392,0 c 0.972,0 1.476,0.168 1.476,0.6"
           style="stroke:none"
           id="path3399" />
        <path
           d="m 682.21849,277.43321 c 0,-0.672 -0.36,-1.092 -0.576,-1.284 -0.48,-0.432 -0.9,-0.504 -1.404,-0.6 -0.66,-0.12 -1.14,-0.216 -1.14,-0.684 0,-0.492 0.396,-0.588 0.864,-0.588 0.804,0 1.236,0.3 1.548,0.564 0.12,0.12 0.144,0.12 0.192,0.12 0.12,0 0.144,-0.108 0.156,-0.156 0.024,-0.096 0.144,-0.768 0.144,-0.828 0,-0.192 -0.636,-0.36 -0.768,-0.408 -0.48,-0.132 -0.864,-0.144 -1.176,-0.144 -0.54,0 -2.148,1e-5 -2.148,1.716 0,0.588 0.264,0.948 0.588,1.236 0.42,0.384 0.888,0.468 1.572,0.6 0.348,0.06 0.96,0.168 0.96,0.696 0,0.564 -0.468,0.648 -0.936,0.648 -0.528,0 -1.2,-0.156 -1.764,-0.828 -0.06,-0.06 -0.096,-0.096 -0.168,-0.096 -0.12,0 -0.144,0.108 -0.156,0.18 -0.024,0.168 -0.168,0.852 -0.168,0.972 0,0.216 0.9,0.504 0.9,0.504 0.66,0.204 1.152,0.204 1.356,0.204 0.612,0 2.124,-0.048 2.124,-1.824"
           style="stroke:none"
           id="path3401" />
      </g>
      <path
         style="fill:none"
         clip-path="url(#clipPath2)"
         d="m 605.74158,246.95959 111.18499,0 c 2.216,0 4,1.784 4,4 l 0,29.11501 c 0,2.216 -1.784,4 -4,4 l -111.18499,0 c -2.216,0 -4,-1.784 -4,-4 l 0,-29.11501 c 0,-2.216 1.784,-4 4,-4 z"
         id="rect114" />
      <path
         fill="none"
         d="M810.5195 37.115 L810.5195 82.0711"
         clip-path="url(#clipPath2)"
         id="path116" />
      <path
         fill="none"
         d="M850.2478 37.115 L850.2478 52.115 L1034.2976 52.115 L1034.2976 82.0857"
         clip-path="url(#clipPath2)"
         id="path118" />
      <path
         fill="none"
         d="M870.1119 18.5575 L1113.8901 18.5575 L1113.8901 246.9436"
         clip-path="url(#clipPath2)"
         id="path120" />
      <path
         fill="none"
         d="M750.8856 18.5575 L581.7416 18.5575 L581.7416 306.5746 L959.7048 306.5746 L959.7048 329.6441"
         clip-path="url(#clipPath2)"
         id="path122" />
      <path
         fill="none"
         d="M810.5195 119.23 L810.5195 164.1861"
         clip-path="url(#clipPath2)"
         id="path124" />
      <path
         fill="none"
         d="M750.8832 100.6725 L661.3341 100.6725 L661.3341 164.199"
         clip-path="url(#clipPath2)"
         id="path126" />
      <path
         fill="none"
         d="M870.1119 100.6725 L959.7048 100.6725 L959.7048 164.199"
         clip-path="url(#clipPath2)"
         id="path128" />
      <path
         fill="none"
         d="M810.5195 201.345 L810.5195 238.9151"
         clip-path="url(#clipPath2)"
         id="path130" />
      <path
         d="M810.5195 246.9151 L815.5195 234.9151 L810.5195 237.9151 L805.5195 234.9151 Z"
         clip-path="url(#clipPath2)"
         stroke="none"
         id="path132" />
      <path
         fill="none"
         d="M959.7048 201.345 L959.7048 216.9596 L810.5195 216.9596 L810.5195 238.9303"
         clip-path="url(#clipPath2)"
         id="path134" />
      <path
         d="M810.5195 246.9303 L815.5195 234.9303 L810.5195 237.9303 L805.5195 234.9303 Z"
         clip-path="url(#clipPath2)"
         stroke="none"
         id="path136" />
      <path
         fill="none"
         d="M1034.2976 119.23 L1034.2976 216.9596 L810.5195 216.9596 L810.5195 238.9303"
         clip-path="url(#clipPath2)"
         id="path138" />
      <path
         d="M810.5195 246.9303 L815.5195 234.9303 L810.5195 237.9303 L805.5195 234.9303 Z"
         clip-path="url(#clipPath2)"
         stroke="none"
         id="path140" />
      <path
         fill="none"
         d="M919.9764 366.8042 L919.9764 381.8042 L810.5195 381.8042 L810.5195 411.7749"
         clip-path="url(#clipPath2)"
         id="path142" />
      <path
         fill="none"
         d="M959.7048 366.8042 L959.7048 411.7603"
         clip-path="url(#clipPath2)"
         id="path144" />
      <path
         fill="none"
         d="M900.0831 348.2467 L661.3341 348.2467 L661.3341 411.7732"
         clip-path="url(#clipPath2)"
         id="path146" />
      <path
         fill="none"
         d="M1019.2972 348.2467 L1108.8901 348.2467 L1108.8901 411.7732"
         clip-path="url(#clipPath2)"
         id="path148" />
      <path
         fill="none"
         d="M661.3341 201.3289 L661.3341 246.9314"
         clip-path="url(#clipPath2)"
         id="path150" />
      <path
         fill="none"
         d="M720.9183 265.5171 L742.9429 265.5171"
         clip-path="url(#clipPath2)"
         id="path152" />
      <path
         d="M750.9429 265.5171 L738.9429 260.5171 L741.9429 265.5171 L738.9429 270.5171 Z"
         clip-path="url(#clipPath2)"
         stroke="none"
         id="path154" />
    </g>
  </g>
</svg>
