<?xml version="1.0" encoding="UTF-8"?><svg xmlns="http://www.w3.org/2000/svg" xmlns:xlink="http://www.w3.org/1999/xlink" fill-opacity="1" color-rendering="auto" color-interpolation="auto" stroke="black" text-rendering="auto" stroke-linecap="square" width="755" stroke-miterlimit="10" stroke-opacity="1" shape-rendering="auto" fill="black" stroke-dasharray="none" font-weight="normal" stroke-width="1" height="530" font-family="'Dialog'" font-style="normal" stroke-linejoin="miter" font-size="12" stroke-dashoffset="0" image-rendering="auto">
  <!--Generated by ySVG 2.5-->
  <defs id="genericDefs"/>
  <g>
    <g shape-rendering="geometricPrecision" text-rendering="optimizeQuality" transform="matrix(1.4743,0,0,1.4523,5.7391,336.5)">
      <g clip-path="url(#clipPath3)">
        <svg xmlns:svg="http://www.w3.org/2000/svg" xmlns:sodipodi="http://sodipodi.sourceforge.net/DTD/sodipodi-0.dtd" xmlns:inkscape="http://www.inkscape.org/namespaces/inkscape" xmlns:dc="http://purl.org/dc/elements/1.1/" xmlns:cc="http://web.resource.org/cc/" xmlns:rdf="http://www.w3.org/1999/02/22-rdf-syntax-ns#" opacity="1" writing-mode="lr-tb" stop-color="rgb(0, 0, 0)" shape-rendering="auto" glyph-orientation-horizontal="0deg" color-profile="auto" lighting-color="rgb(255, 255, 255)" color="rgb(0, 0, 0)" font-weight="400" alignment-baseline="auto" font-style="normal" version="1.0" color-interpolation-filters="linearrgb" text-anchor="start" stroke-linecap="butt" color-interpolation="srgb" font-variant="normal" word-spacing="normal" fill-opacity="1" text-rendering="auto" clip-path="none" text-decoration="none" letter-spacing="normal" glyph-orientation-vertical="auto" display="inline" font-size-adjust="none" overflow="hidden" fill="rgb(0, 0, 0)" font-stretch="normal" stroke-dasharray="none" inkscape:version="0.45.1" id="svg1.svg2" stroke-miterlimit="4" stop-opacity="1" color-rendering="auto" font-size="12" sodipodi:docbase="C:\Daten\alberts\projects\yfx" pointer-events="visiblepainted" mask="none" direction="ltr" baseline-shift="baseline" sodipodi:docname="uml_actor.svg" enable-background="accumulate" fill-rule="nonzero" image-rendering="auto" stroke-dashoffset="0" inkscape:output_extension="org.inkscape.output.svg.inkscape" marker-end="none" width="41" clip="auto" cursor="auto" stroke="none" filter="none" visibility="visible" kerning="auto" stroke-width="1" font-family="&quot;Arial&quot;,&quot;Helvetica&quot;,sans-serif" flood-opacity="1" clip-rule="nonzero" src="none" height="68.997391" unicode-bidi="normal" sodipodi:version="0.32" stroke-linejoin="miter" stroke-opacity="1" flood-color="rgb(0, 0, 0)" dominant-baseline="auto" marker-start="none" marker-mid="none">
  <defs id="svg1.defs4">
            <clipPath clipPathUnits="userSpaceOnUse" id="clipPath1">
              <path d="M0 0 L755 0 L755 530 L0 530 L0 0 Z"/>
            </clipPath>
            <clipPath clipPathUnits="userSpaceOnUse" id="clipPath2">
              <path d="M-309 -455 L446 -455 L446 75 L-309 75 L-309 -455 Z"/>
            </clipPath>
            <clipPath clipPathUnits="userSpaceOnUse" id="clipPath3">
              <path d="M-3.8927 -231.7001 L508.2119 -231.7001 L508.2119 133.2362 L-3.8927 133.2362 L-3.8927 -231.7001 Z"/>
            </clipPath>
            <clipPath clipPathUnits="userSpaceOnUse" id="clipPath4">
              <path d="M-459.0799 -231.7001 L53.0247 -231.7001 L53.0247 133.2362 L-459.0799 133.2362 L-459.0799 -231.7001 Z"/>
            </clipPath>
          </defs>
  
  <metadata id="svg1.metadata7">
    
  </metadata>
  <g inkscape:groupmode="layer" id="svg1.layer1" transform="translate(-29.5,-42.959476)" inkscape:label="Ebene 1">
    <a id="svg1.a3142" transform="matrix(1.0873906,0,0,1,-4.4741999,0)">
      <path transform="translate(11.586889,5.2908993)" style="fill:none;fill-rule:evenodd;stroke:#000000;stroke-width:1px;stroke-linecap:butt;stroke-linejoin:miter;stroke-opacity:1" sodipodi:cx="38.509369" sodipodi:cy="47.36993" sodipodi:rx="8.5197716" id="svg1.path2160" d="M 47.02914 47.36993 A 8.5197716 9.2013531 0 1 1  29.989597,47.36993 A 8.5197716 9.2013531 0 1 1  47.02914 47.36993 z" sodipodi:ry="9.2013531" sodipodi:type="arc"/>
    </a>
    <path style="fill:none" sodipodi:cx="43.962021" sodipodi:cy="48.392303" d="M 47.71072 48.392303 A 3.7486994 0 0 1 1  40.213321,48.392303 A 3.7486994 0 0 1 1  47.71072 48.392303 z" id="svg1.path3134" sodipodi:rx="3.7486994" sodipodi:ry="0" sodipodi:type="arc"/>
    <path style="fill:none;fill-rule:evenodd;stroke:#000000;stroke-width:1.24319649px;stroke-linecap:butt;stroke-linejoin:miter;stroke-opacity:1" d="M 50,61.33709 C 50,91.363211 50,92.247838 50,92.247838" id="svg1.path3136"/>
    <path style="fill:none;fill-rule:evenodd;stroke:#000000;stroke-width:1px;stroke-linecap:butt;stroke-linejoin:miter;stroke-opacity:1" d="M 69.760668,72.362183 C 69.760668,72.362183 69.760668,72.362183 50.239332,72.362183 C 30.239332,72.362183 30.239332,72.362183 30.239332,72.362183 L 30.239332,72.362183" id="svg1.path3138"/>
    <path style="fill:none;fill-rule:evenodd;stroke:#000000;stroke-width:1px;stroke-linecap:butt;stroke-linejoin:miter;stroke-opacity:1" d="M 30,111.45687 C 30,111.45687 30,111.45687 50,92.013532 C 70,111.45687 70,111.45687 70,111.45687" id="svg1.path3140"/>
  </g>
</svg>
      </g>
    </g>
    <g font-size="13" stroke-linecap="butt" transform="matrix(1,0,0,1,309,455)" text-rendering="optimizeQuality" font-family="'L M Sans10'" shape-rendering="geometricPrecision" font-weight="bold" stroke-miterlimit="1.45">
      <text x="-293.0446" xml:space="preserve" y="2.242" clip-path="url(#clipPath2)" stroke="none">Spieler</text>
    </g>
    <g shape-rendering="geometricPrecision" text-rendering="optimizeQuality" transform="matrix(1.4743,0,0,1.4523,676.8252,336.5)">
      <g clip-path="url(#clipPath4)">
        <svg xmlns:svg="http://www.w3.org/2000/svg" xmlns:sodipodi="http://sodipodi.sourceforge.net/DTD/sodipodi-0.dtd" xmlns:inkscape="http://www.inkscape.org/namespaces/inkscape" xmlns:dc="http://purl.org/dc/elements/1.1/" xmlns:cc="http://web.resource.org/cc/" xmlns:rdf="http://www.w3.org/1999/02/22-rdf-syntax-ns#" opacity="1" writing-mode="lr-tb" stop-color="rgb(0, 0, 0)" shape-rendering="auto" glyph-orientation-horizontal="0deg" color-profile="auto" lighting-color="rgb(255, 255, 255)" color="rgb(0, 0, 0)" font-weight="400" alignment-baseline="auto" font-style="normal" version="1.0" color-interpolation-filters="linearrgb" text-anchor="start" stroke-linecap="butt" color-interpolation="srgb" font-variant="normal" word-spacing="normal" fill-opacity="1" text-rendering="auto" clip-path="none" text-decoration="none" letter-spacing="normal" glyph-orientation-vertical="auto" display="inline" font-size-adjust="none" overflow="hidden" fill="rgb(0, 0, 0)" font-stretch="normal" stroke-dasharray="none" inkscape:version="0.45.1" id="svg2.svg2" stroke-miterlimit="4" stop-opacity="1" color-rendering="auto" font-size="12" sodipodi:docbase="C:\Daten\alberts\projects\yfx" pointer-events="visiblepainted" mask="none" direction="ltr" baseline-shift="baseline" sodipodi:docname="uml_actor.svg" enable-background="accumulate" fill-rule="nonzero" image-rendering="auto" stroke-dashoffset="0" inkscape:output_extension="org.inkscape.output.svg.inkscape" marker-end="none" width="41" clip="auto" cursor="auto" stroke="none" filter="none" visibility="visible" kerning="auto" stroke-width="1" font-family="&quot;Arial&quot;,&quot;Helvetica&quot;,sans-serif" flood-opacity="1" clip-rule="nonzero" src="none" height="68.997391" unicode-bidi="normal" sodipodi:version="0.32" stroke-linejoin="miter" stroke-opacity="1" flood-color="rgb(0, 0, 0)" dominant-baseline="auto" marker-start="none" marker-mid="none">
  <defs id="svg2.defs4"/>
  
  <metadata id="svg2.metadata7">
    
  </metadata>
  <g inkscape:groupmode="layer" id="svg2.layer1" transform="translate(-29.5,-42.959476)" inkscape:label="Ebene 1">
    <a id="svg2.a3142" transform="matrix(1.0873906,0,0,1,-4.4741999,0)">
      <path transform="translate(11.586889,5.2908993)" style="fill:none;fill-rule:evenodd;stroke:#000000;stroke-width:1px;stroke-linecap:butt;stroke-linejoin:miter;stroke-opacity:1" sodipodi:cx="38.509369" sodipodi:cy="47.36993" sodipodi:rx="8.5197716" id="svg2.path2160" d="M 47.02914 47.36993 A 8.5197716 9.2013531 0 1 1  29.989597,47.36993 A 8.5197716 9.2013531 0 1 1  47.02914 47.36993 z" sodipodi:ry="9.2013531" sodipodi:type="arc"/>
    </a>
    <path style="fill:none" sodipodi:cx="43.962021" sodipodi:cy="48.392303" d="M 47.71072 48.392303 A 3.7486994 0 0 1 1  40.213321,48.392303 A 3.7486994 0 0 1 1  47.71072 48.392303 z" id="svg2.path3134" sodipodi:rx="3.7486994" sodipodi:ry="0" sodipodi:type="arc"/>
    <path style="fill:none;fill-rule:evenodd;stroke:#000000;stroke-width:1.24319649px;stroke-linecap:butt;stroke-linejoin:miter;stroke-opacity:1" d="M 50,61.33709 C 50,91.363211 50,92.247838 50,92.247838" id="svg2.path3136"/>
    <path style="fill:none;fill-rule:evenodd;stroke:#000000;stroke-width:1px;stroke-linecap:butt;stroke-linejoin:miter;stroke-opacity:1" d="M 69.760668,72.362183 C 69.760668,72.362183 69.760668,72.362183 50.239332,72.362183 C 30.239332,72.362183 30.239332,72.362183 30.239332,72.362183 L 30.239332,72.362183" id="svg2.path3138"/>
    <path style="fill:none;fill-rule:evenodd;stroke:#000000;stroke-width:1px;stroke-linecap:butt;stroke-linejoin:miter;stroke-opacity:1" d="M 30,111.45687 C 30,111.45687 30,111.45687 50,92.013532 C 70,111.45687 70,111.45687 70,111.45687" id="svg2.path3140"/>
  </g>
</svg>
      </g>
    </g>
    <g font-size="13" stroke-linecap="butt" transform="matrix(1,0,0,1,309,455)" text-rendering="optimizeQuality" font-family="'L M Sans10'" shape-rendering="geometricPrecision" font-weight="bold" stroke-miterlimit="1.45">
      <text x="357.885" xml:space="preserve" y="2.242" clip-path="url(#clipPath2)" stroke="none">Auto Kamera</text>
    </g>
    <g font-size="13" stroke-linecap="butt" transform="matrix(1,0,0,1,309,455)" text-rendering="optimizeQuality" font-family="'L M Sans10'" shape-rendering="geometricPrecision" font-weight="bold" stroke-miterlimit="1.45">
      <text x="138.3619" xml:space="preserve" y="-166.4907" clip-path="url(#clipPath2)" stroke="none">Kante zur Selektion</text>
      <text x="165.4344" xml:space="preserve" y="-147.8877" clip-path="url(#clipPath2)" stroke="none">hinzuf체gen</text>
      <ellipse rx="77.7158" fill="none" ry="29.7541" clip-path="url(#clipPath2)" cx="197.5054" cy="-162.6297"/>
      <text x="-3.3788" xml:space="preserve" y="-83.3054" clip-path="url(#clipPath2)" stroke="none">Selektion aufheben</text>
      <ellipse rx="77.7158" fill="none" ry="29.7541" clip-path="url(#clipPath2)" cx="53.0738" cy="-88.7459"/>
      <text x="137.7964" xml:space="preserve" y="-33.8446" clip-path="url(#clipPath2)" stroke="none">Kamera verschieben</text>
      <ellipse rx="77.7158" fill="none" ry="29.7541" clip-path="url(#clipPath2)" cx="197.5054" cy="-39.2851"/>
      <text x="91.9534" xml:space="preserve" y="39.7415" clip-path="url(#clipPath2)" stroke="none">Kamera drehen</text>
      <ellipse rx="77.7158" fill="none" ry="29.7541" clip-path="url(#clipPath2)" cx="137.5054" cy="34.301"/>
      <text x="-94.7041" xml:space="preserve" y="36.0261" clip-path="url(#clipPath2)" stroke="none">ausgew채hlte Kanten</text>
      <text x="-97.3691" xml:space="preserve" y="54.6291" clip-path="url(#clipPath2)" stroke="none">ziehen / modifizieren</text>
      <ellipse rx="77.7158" fill="none" ry="29.7541" clip-path="url(#clipPath2)" cx="-34.4946" cy="39.8871"/>
    </g>
    <g transform="matrix(1,0,0,1,309,455)" fill-opacity="0.2" fill="rgb(0,0,0)" text-rendering="optimizeQuality" shape-rendering="geometricPrecision" stroke="rgb(0,0,0)" stroke-opacity="0.2">
      <ellipse rx="77.7158" ry="29.7541" clip-path="url(#clipPath2)" cx="-44.0629" cy="-419.5771" stroke="none"/>
    </g>
    <g font-size="13" stroke-linecap="butt" transform="matrix(1,0,0,1,309,455)" text-rendering="optimizeQuality" font-family="'L M Sans10'" shape-rendering="geometricPrecision" font-weight="bold" stroke-miterlimit="1.45">
      <text x="-100.9509" xml:space="preserve" y="-414.1366" clip-path="url(#clipPath2)" stroke="none">Selektion einf채rben</text>
      <ellipse rx="77.7158" fill="none" ry="29.7541" clip-path="url(#clipPath2)" cx="-44.0629" cy="-419.5771"/>
      <text x="-1.7428" xml:space="preserve" y="-182.1892" clip-path="url(#clipPath2)" stroke="none">Men체 aufrufen</text>
      <ellipse rx="77.7158" fill="none" ry="29.7541" clip-path="url(#clipPath2)" cx="42.0738" cy="-187.6297"/>
    </g>
    <g transform="matrix(1,0,0,1,309,455)" fill-opacity="0.2" fill="rgb(0,0,0)" text-rendering="optimizeQuality" shape-rendering="geometricPrecision" stroke="rgb(0,0,0)" stroke-opacity="0.2">
      <ellipse rx="77.7158" ry="29.7541" clip-path="url(#clipPath2)" cx="2.5054" cy="-347.0689" stroke="none"/>
    </g>
    <g font-size="13" stroke-linecap="butt" transform="matrix(1,0,0,1,309,455)" text-rendering="optimizeQuality" font-family="'L M Sans10'" shape-rendering="geometricPrecision" font-weight="bold" stroke-miterlimit="1.45">
      <text x="-69.7291" xml:space="preserve" y="-341.6284" clip-path="url(#clipPath2)" stroke="none">Exportoptionen aufrufen</text>
      <ellipse rx="77.7158" fill="none" ry="29.7541" clip-path="url(#clipPath2)" cx="2.5054" cy="-347.0689"/>
      <text x="182.9909" xml:space="preserve" y="-324.6284" clip-path="url(#clipPath2)" stroke="none">undo</text>
      <ellipse rx="77.7158" fill="none" ry="29.7541" clip-path="url(#clipPath2)" cx="197.5054" cy="-330.0689"/>
    </g>
    <g transform="matrix(1,0,0,1,309,455)" fill-opacity="0.2" fill="rgb(0,0,0)" text-rendering="optimizeQuality" shape-rendering="geometricPrecision" stroke="rgb(0,0,0)" stroke-opacity="0.2">
      <ellipse rx="77.7158" ry="29.7541" clip-path="url(#clipPath2)" cx="197.5054" cy="-419.5771" stroke="none"/>
    </g>
    <g font-size="13" stroke-linecap="butt" transform="matrix(1,0,0,1,309,455)" text-rendering="optimizeQuality" font-family="'L M Sans10'" shape-rendering="geometricPrecision" font-weight="bold" stroke-miterlimit="1.45">
      <text x="184.5444" xml:space="preserve" y="-414.1366" clip-path="url(#clipPath2)" stroke="none">redo</text>
      <ellipse rx="77.7158" fill="none" ry="29.7541" clip-path="url(#clipPath2)" cx="197.5054" cy="-419.5771"/>
      <path fill="none" d="M-243.0256 -74.5038 L128.6254 -148.8506" clip-path="url(#clipPath2)"/>
      <path fill="none" d="M-243.0618 -70.361 L-23.64 -83.9833" clip-path="url(#clipPath2)"/>
      <path fill="none" d="M-243.0256 -66.6366 L120.7918 -44.0481" clip-path="url(#clipPath2)"/>
      <path fill="none" d="M368.0356 -64.1278 L270.1408 -49.8666" clip-path="url(#clipPath2)"/>
      <path fill="none" d="M-243.0437 -60.9895 L72.4653 18.0148" clip-path="url(#clipPath2)"/>
      <path fill="none" d="M368.0568 -56.6663 L191.6252 12.9473" clip-path="url(#clipPath2)"/>
      <path fill="none" d="M-243.0159 -54.859 L-84.5716 17.1336" clip-path="url(#clipPath2)"/>
      <path fill="none" d="M-243.0322 -114.506 L-62.8906 -390.7094" clip-path="url(#clipPath2)"/>
      <path fill="none" d="M-243.0728 -79.8284 L-13.2253 -166.7236" clip-path="url(#clipPath2)"/>
      <path fill="none" d="M-243.0683 -98.7985 L-25.0179 -319.2433" clip-path="url(#clipPath2)"/>
      <path fill="none" d="M153.4237 -305.5645 L-243.026 -85.1831" clip-path="url(#clipPath2)"/>
      <path fill="none" d="M162.0251 -393.1048 L-243.058 -90.8681" clip-path="url(#clipPath2)"/>
    </g>
  </g>
</svg>
