<?xml version="1.0" encoding="UTF-8" standalone="no"?>
<svg
   xmlns:dc="http://purl.org/dc/elements/1.1/"
   xmlns:cc="http://creativecommons.org/ns#"
   xmlns:rdf="http://www.w3.org/1999/02/22-rdf-syntax-ns#"
   xmlns:svg="http://www.w3.org/2000/svg"
   xmlns="http://www.w3.org/2000/svg"
   xmlns:sodipodi="http://sodipodi.sourceforge.net/DTD/sodipodi-0.dtd"
   xmlns:inkscape="http://www.inkscape.org/namespaces/inkscape"
   color-rendering="auto"
   color-interpolation="auto"
   text-rendering="auto"
   width="745"
   stroke-miterlimit="10"
   shape-rendering="auto"
   font-weight="normal"
   height="742"
   font-style="normal"
   font-size="12"
   image-rendering="auto"
   id="svg2"
   version="1.1"
   inkscape:version="0.48.3.1 r9886"
   sodipodi:docname="inGame.svg"
   style="font-size:12px;font-style:normal;font-weight:normal;fill:#000000;fill-opacity:1;stroke:#000000;stroke-width:1;stroke-linecap:square;stroke-linejoin:miter;stroke-miterlimit:10;stroke-opacity:1;stroke-dasharray:none;stroke-dashoffset:0;font-family:Dialog">
  <metadata
     id="metadata131">
    <rdf:RDF>
      <cc:Work
         rdf:about="">
        <dc:format>image/svg+xml</dc:format>
        <dc:type
           rdf:resource="http://purl.org/dc/dcmitype/StillImage" />
      </cc:Work>
    </rdf:RDF>
  </metadata>
  <sodipodi:namedview
     pagecolor="#ffffff"
     bordercolor="#666666"
     borderopacity="1"
     objecttolerance="10"
     gridtolerance="10"
     guidetolerance="10"
     inkscape:pageopacity="0"
     inkscape:pageshadow="2"
     inkscape:window-width="1920"
     inkscape:window-height="1140"
     id="namedview129"
     showgrid="false"
     inkscape:zoom="1.0332954"
     inkscape:cx="351.15202"
     inkscape:cy="370.33196"
     inkscape:window-x="0"
     inkscape:window-y="35"
     inkscape:window-maximized="1"
     inkscape:current-layer="svg2" />
  <!--Generated by ySVG 2.5-->
  <defs
     id="genericDefs">
    <clipPath
       clipPathUnits="userSpaceOnUse"
       id="clipPath3">
      <path
         d="m -0.5013,-183.501 505.3218,0 0,444.8091 -505.3218,0 0,-444.8091 z"
         id="path20"
         inkscape:connector-curvature="0" />
    </clipPath>
    <clipPath
       clipPathUnits="userSpaceOnUse"
       id="clipPath2">
      <path
         d="m -304,-385 745,0 0,646 -745,0 0,-646 z"
         id="path17"
         inkscape:connector-curvature="0" />
    </clipPath>
    <clipPath
       clipPathUnits="userSpaceOnUse"
       id="clipPath4">
      <path
         d="m -455.6885,-183.501 505.3218,0 0,444.8091 -505.3218,0 0,-444.8091 z"
         id="path23"
         inkscape:connector-curvature="0" />
    </clipPath>
    <clipPath
       clipPathUnits="userSpaceOnUse"
       id="clipPath3120">
      <path
         d="m -304,-385 745,0 0,646 -745,0 0,-646 z"
         id="path3122"
         inkscape:connector-curvature="0" />
    </clipPath>
    <clipPath
       clipPathUnits="userSpaceOnUse"
       id="clipPath3124">
      <path
         d="m -304,-385 745,0 0,646 -745,0 0,-646 z"
         id="path3126"
         inkscape:connector-curvature="0" />
    </clipPath>
    <clipPath
       clipPathUnits="userSpaceOnUse"
       id="clipPath3128">
      <path
         d="m -304,-385 745,0 0,646 -745,0 0,-646 z"
         id="path3130"
         inkscape:connector-curvature="0" />
    </clipPath>
    <clipPath
       clipPathUnits="userSpaceOnUse"
       id="clipPath3132">
      <path
         d="m -304,-385 745,0 0,646 -745,0 0,-646 z"
         id="path3134"
         inkscape:connector-curvature="0" />
    </clipPath>
    <clipPath
       clipPathUnits="userSpaceOnUse"
       id="clipPath3136">
      <path
         d="m -304,-385 745,0 0,646 -745,0 0,-646 z"
         id="path3138"
         inkscape:connector-curvature="0" />
    </clipPath>
    <clipPath
       clipPathUnits="userSpaceOnUse"
       id="clipPath3140">
      <path
         d="m -304,-385 745,0 0,646 -745,0 0,-646 z"
         id="path3142"
         inkscape:connector-curvature="0" />
    </clipPath>
    <clipPath
       clipPathUnits="userSpaceOnUse"
       id="clipPath3144">
      <path
         d="m -304,-385 745,0 0,646 -745,0 0,-646 z"
         id="path3146"
         inkscape:connector-curvature="0" />
    </clipPath>
    <clipPath
       clipPathUnits="userSpaceOnUse"
       id="clipPath3148">
      <path
         d="m -304,-385 745,0 0,646 -745,0 0,-646 z"
         id="path3150"
         inkscape:connector-curvature="0" />
    </clipPath>
    <clipPath
       clipPathUnits="userSpaceOnUse"
       id="clipPath3152">
      <path
         d="m -304,-385 745,0 0,646 -745,0 0,-646 z"
         id="path3154"
         inkscape:connector-curvature="0" />
    </clipPath>
    <clipPath
       clipPathUnits="userSpaceOnUse"
       id="clipPath3156">
      <path
         d="m -304,-385 745,0 0,646 -745,0 0,-646 z"
         id="path3158"
         inkscape:connector-curvature="0" />
    </clipPath>
    <clipPath
       clipPathUnits="userSpaceOnUse"
       id="clipPath3160">
      <path
         d="m -304,-385 745,0 0,646 -745,0 0,-646 z"
         id="path3162"
         inkscape:connector-curvature="0" />
    </clipPath>
    <clipPath
       clipPathUnits="userSpaceOnUse"
       id="clipPath3164">
      <path
         d="m -304,-385 745,0 0,646 -745,0 0,-646 z"
         id="path3166"
         inkscape:connector-curvature="0" />
    </clipPath>
    <clipPath
       clipPathUnits="userSpaceOnUse"
       id="clipPath3168">
      <path
         d="m -304,-385 745,0 0,646 -745,0 0,-646 z"
         id="path3170"
         inkscape:connector-curvature="0" />
    </clipPath>
    <clipPath
       clipPathUnits="userSpaceOnUse"
       id="clipPath3172">
      <path
         d="m -304,-385 745,0 0,646 -745,0 0,-646 z"
         id="path3174"
         inkscape:connector-curvature="0" />
    </clipPath>
    <clipPath
       clipPathUnits="userSpaceOnUse"
       id="clipPath3176">
      <path
         d="m -304,-385 745,0 0,646 -745,0 0,-646 z"
         id="path3178"
         inkscape:connector-curvature="0" />
    </clipPath>
    <clipPath
       clipPathUnits="userSpaceOnUse"
       id="clipPath3180">
      <path
         d="m -304,-385 745,0 0,646 -745,0 0,-646 z"
         id="path3182"
         inkscape:connector-curvature="0" />
    </clipPath>
    <clipPath
       clipPathUnits="userSpaceOnUse"
       id="clipPath3184">
      <path
         d="m -304,-385 745,0 0,646 -745,0 0,-646 z"
         id="path3186"
         inkscape:connector-curvature="0" />
    </clipPath>
    <clipPath
       clipPathUnits="userSpaceOnUse"
       id="clipPath3188">
      <path
         d="m -304,-385 745,0 0,646 -745,0 0,-646 z"
         id="path3190"
         inkscape:connector-curvature="0" />
    </clipPath>
    <clipPath
       clipPathUnits="userSpaceOnUse"
       id="clipPath3192">
      <path
         d="m -304,-385 745,0 0,646 -745,0 0,-646 z"
         id="path3194"
         inkscape:connector-curvature="0" />
    </clipPath>
    <clipPath
       clipPathUnits="userSpaceOnUse"
       id="clipPath3196">
      <path
         d="m -304,-385 745,0 0,646 -745,0 0,-646 z"
         id="path3198"
         inkscape:connector-curvature="0" />
    </clipPath>
    <clipPath
       clipPathUnits="userSpaceOnUse"
       id="clipPath3200">
      <path
         d="m -304,-385 745,0 0,646 -745,0 0,-646 z"
         id="path3202"
         inkscape:connector-curvature="0" />
    </clipPath>
    <clipPath
       clipPathUnits="userSpaceOnUse"
       id="clipPath3204">
      <path
         d="m -304,-385 745,0 0,646 -745,0 0,-646 z"
         id="path3206"
         inkscape:connector-curvature="0" />
    </clipPath>
    <clipPath
       clipPathUnits="userSpaceOnUse"
       id="clipPath3208">
      <path
         d="m -304,-385 745,0 0,646 -745,0 0,-646 z"
         id="path3210"
         inkscape:connector-curvature="0" />
    </clipPath>
    <clipPath
       clipPathUnits="userSpaceOnUse"
       id="clipPath3212">
      <path
         d="m -304,-385 745,0 0,646 -745,0 0,-646 z"
         id="path3214"
         inkscape:connector-curvature="0" />
    </clipPath>
    <clipPath
       clipPathUnits="userSpaceOnUse"
       id="clipPath3216">
      <path
         d="m -304,-385 745,0 0,646 -745,0 0,-646 z"
         id="path3218"
         inkscape:connector-curvature="0" />
    </clipPath>
    <clipPath
       clipPathUnits="userSpaceOnUse"
       id="clipPath3220">
      <path
         d="m -304,-385 745,0 0,646 -745,0 0,-646 z"
         id="path3222"
         inkscape:connector-curvature="0" />
    </clipPath>
    <clipPath
       clipPathUnits="userSpaceOnUse"
       id="clipPath3224">
      <path
         d="m -304,-385 745,0 0,646 -745,0 0,-646 z"
         id="path3226"
         inkscape:connector-curvature="0" />
    </clipPath>
    <clipPath
       clipPathUnits="userSpaceOnUse"
       id="clipPath3228">
      <path
         d="m -304,-385 745,0 0,646 -745,0 0,-646 z"
         id="path3230"
         inkscape:connector-curvature="0" />
    </clipPath>
    <clipPath
       clipPathUnits="userSpaceOnUse"
       id="clipPath3232">
      <path
         d="m -304,-385 745,0 0,646 -745,0 0,-646 z"
         id="path3234"
         inkscape:connector-curvature="0" />
    </clipPath>
    <clipPath
       clipPathUnits="userSpaceOnUse"
       id="clipPath3236">
      <path
         d="m -304,-385 745,0 0,646 -745,0 0,-646 z"
         id="path3238"
         inkscape:connector-curvature="0" />
    </clipPath>
    <clipPath
       clipPathUnits="userSpaceOnUse"
       id="clipPath3240">
      <path
         d="m -304,-385 745,0 0,646 -745,0 0,-646 z"
         id="path3242"
         inkscape:connector-curvature="0" />
    </clipPath>
  </defs>
  <g
     id="g3953"
     transform="matrix(1.2228306,0,0,1.0013187,-89.209872,79.647229)"
     style="stroke-width:0.90371329">
    <path
       style="fill:none;stroke:#000000;stroke-width:3.61485314;stroke-linecap:round;stroke-linejoin:miter;stroke-miterlimit:10;stroke-dashoffset:0;stroke-opacity:1"
       d="m 186.13559,-73.906776 383.22034,0 0,730.855956 -383.22034,0 z"
       id="rect3181" />
    <path
       inkscape:connector-curvature="0"
       id="path3951"
       d="m 185.79343,-12.317798 383.5625,0"
       style="fill:none;stroke:#000000;stroke-width:3.61485314;stroke-linecap:butt;stroke-linejoin:miter;stroke-miterlimit:10;stroke-opacity:1;stroke-dasharray:none" />
  </g>
  <g
     style="font-size:24px;font-variant:normal;font-weight:bold;font-stretch:normal;line-height:125%;letter-spacing:0px;word-spacing:0px;fill:#000000;stroke:none;font-family:LMSans10;-inkscape-font-specification:Sans Bold"
     id="text3957">
    <path
       d="m 333.23657,38.241539 0,-8.688 c 0,-0.767999 -0.168,-1.152 -1.152,-1.152 l -0.888,0 c -0.864,0 -1.152,0.264001 -1.152,1.152 l 0,8.688 c 0,0.864 0.264,1.152 1.152,1.152 l 0.888,0 c 0.912,0 1.152,-0.312 1.152,-1.152 m 0.168,-13.392 0,-0.456 c 0,-0.767999 -0.168,-1.152 -1.152,-1.152 l -1.224,0 c -0.912,0 -1.152,0.312001 -1.152,1.152 l 0,0.456 c 0,0.696 0.12,1.152 1.152,1.152 l 1.224,0 c 1.008,0 1.152,-0.432 1.152,-1.152"
       style=""
       id="path3962" />
    <path
       d="m 346.72119,38.241539 0,-6.648 c 0,-2.471997 -1.056,-3.456 -3.504,-3.456 -2.52,0 -3.6,1.824001 -3.912,2.472 l -0.024,0 0,-1.2 c 0,-0.767999 -0.168,-1.152 -1.152,-1.152 l -0.816,0 c -0.864,0 -1.152,0.264001 -1.152,1.152 l 0,8.832 c 0,0.864 0.264,1.152 1.152,1.152 l 0.96,0 c 0.912,0 1.152,-0.312 1.152,-1.152 l 0,-5.304 c 0,-2.087997 1.392,-3.072 2.64,-3.072 1.152,0 1.392,0.552002 1.392,1.776 l 0,6.6 c 0,0.768 0.168,1.152 1.152,1.152 l 0.96,0 c 0.912,0 1.152,-0.312 1.152,-1.152"
       style=""
       id="path3964" />
    <path
       d="m 369.80282,29.673539 c 0,-0.096 -0.12,-0.672 -0.168,-0.912 -0.096,-0.575999 -0.096,-0.624 -0.528,-0.624 -0.744,0 -1.944,0.288001 -2.856,0.84 -1.128,-0.743999 -2.376,-0.84 -3.408,-0.84 -1.008,0 -4.824,4e-6 -4.824,3.96 0,0.959999 0.264,2.160001 1.176,2.952 -0.648,0.888 -0.648,1.824001 -0.648,1.944 0,0.456 0.144,1.248001 0.648,1.896 -0.36,0.144 -1.608,0.576002 -1.608,2.112 0,0.744 0.36,1.992001 1.872,2.688 1.368,0.624 2.976,0.648 4.104,0.648 1.41599,0 6,-3e-6 6,-3.408 0,-3.743996 -3.38401,-3.744 -6.624,-3.744 l -1.152,0 c -0.864,0 -1.2,0 -1.536,-0.288 -0.096,-0.096 -0.504,-0.456 -0.504,-1.08 0,-0.167999 0.024,-0.216 0.048,-0.36 1.128,0.624 2.544,0.624 3.048,0.624 1.008,0 4.824,-4e-6 4.824,-3.96 0,-1.391998 -0.528,-2.232 -0.744,-2.496 0.408,0 1.248,1e-6 2.232,0.264 0.096,0.048 0.264,0.096 0.336,0.096 0.192,0 0.312,-0.144 0.312,-0.312 m -5.208,2.424 c 0,1.319999 -0.072,2.256 -1.752,2.256 -1.68,0 -1.752,-0.912001 -1.752,-2.232 0,-1.319998 0.072,-2.256 1.752,-2.256 1.67999,0 1.752,0.912002 1.752,2.232 m 2.496,8.904 c 0,1.607999 -2.736,1.608 -3.504,1.608 -0.96,0 -3.528,-10e-7 -3.528,-1.68 0,-1.127998 0.744,-1.128 1.296,-1.128 l 2.784,0 c 1.94399,0 2.952,0.336001 2.952,1.2"
       style=""
       id="path3966" />
    <path
       d="m 381.58157,38.241539 0,-6.432 c 0,-3.791996 -3.648,-3.816 -4.848,-3.816 -1.128,0 -2.32801,0.096 -3.936,0.768 -0.504,0.216 -0.624,0.288001 -0.624,0.552 0,0.168 0.144,1.560001 0.168,1.752 0.024,0.144 0.144,0.264 0.312,0.264 0.12,0 0.192,-0.072 0.264,-0.144 1.032,-1.079998 2.232,-1.608 3.72,-1.608 1.296,0 1.68,0.792002 1.68,2.208 l 0,0.84 c -0.84,0 -7.128,0.048 -7.128,3.576 0,1.679999 1.344,3.456 3.456,3.456 0.816,0 2.616,-0.240001 3.744,-1.896 l 0,0.48 c 0,0.768 0.168,1.152 1.152,1.152 l 0.888,0 c 0.912,0 1.152,-0.312 1.152,-1.152 m -3.264,-2.544 c 0,2.231998 -2.28,2.232 -2.352,2.232 -1.008,0 -1.656,-0.864 -1.656,-1.776 0,-2.351997 3.336,-2.52 4.008,-2.544 l 0,2.088"
       style=""
       id="path3968" />
    <path
       d="m 402.15894,38.241539 0,-6.648 c 0,-2.471997 -1.056,-3.456 -3.504,-3.456 -1.704,0 -3.024,0.792002 -3.888,2.376 -0.384,-2.303997 -2.424,-2.376 -3.432,-2.376 -0.456,0 -1.464,1e-6 -2.544,0.792 -0.744,0.552 -1.224,1.320001 -1.392,1.68 l -0.024,0 0,-1.2 c 0,-0.767999 -0.168,-1.152 -1.152,-1.152 l -0.816,0 c -0.864,0 -1.152,0.264001 -1.152,1.152 l 0,8.832 c 0,0.864 0.264,1.152 1.152,1.152 l 0.96,0 c 0.912,0 1.152,-0.312 1.152,-1.152 l 0,-5.304 c 0,-2.159997 1.464,-3.072 2.64,-3.072 1.152,0 1.416,0.504002 1.416,1.776 l 0,6.6 c 0,0.864 0.264,1.152 1.152,1.152 l 0.96,0 c 0.912,0 1.152,-0.312 1.152,-1.152 l 0,-5.304 c 0,-2.159997 1.464,-3.072 2.64,-3.072 1.152,0 1.416,0.504002 1.416,1.776 l 0,6.6 c 0,0.864 0.264,1.152 1.152,1.152 l 0.96,0 c 0.912,0 1.152,-0.312 1.152,-1.152"
       style=""
       id="path3970" />
    <path
       d="m 415.12344,33.153539 c 0,-3.095996 -1.44,-5.16 -5.016,-5.16 -3.83999,0 -5.736,2.160004 -5.736,5.808 0,3.935996 2.28001,5.856 6.048,5.856 0.912,0 2.28,-0.12 3.864,-0.912 0.528,-0.263999 0.696,-0.336 0.696,-0.624 0,-0.167999 -0.072,-0.864 -0.096,-1.056 -0.096,-0.743999 -0.12,-0.768 -0.336,-0.768 -0.096,0 -0.144,10e-7 -0.408,0.24 -1.416,1.223999 -2.856,1.392 -3.624,1.392 -2.712,0 -3,-2.136001 -3.072,-3.672 l 6.528,0 c 0.552,0 1.152,-0.024 1.152,-1.104 m -2.664,-0.168 -4.992,0 c 0.072,-1.463998 0.552,-3.264 2.64,-3.264 1.92,0 2.28,1.392002 2.352,3.264"
       style=""
       id="path3972" />
  </g>
  <g
     id="g3599">
    <g
       shape-rendering="geometricPrecision"
       text-rendering="optimizeQuality"
       transform="matrix(1.4743,0,0,1.4523,2.5047004,350.72718)"
       id="g7">
      <g
         clip-path="url(#clipPath3)"
         id="g9">
        <svg
           writing-mode="lr-tb"
           stop-color="rgb(0, 0, 0)"
           shape-rendering="auto"
           glyph-orientation-horizontal="0deg"
           color-profile="auto"
           lighting-color="rgb(255, 255, 255)"
           font-weight="400"
           alignment-baseline="auto"
           font-style="normal"
           version="1.0"
           color-interpolation-filters="linearrgb"
           color-interpolation="srgb"
           font-variant="normal"
           word-spacing="normal"
           text-rendering="auto"
           clip-path="none"
           text-decoration="none"
           letter-spacing="normal"
           glyph-orientation-vertical="auto"
           display="inline"
           font-size-adjust="none"
           overflow="hidden"
           font-stretch="normal"
           inkscape:version="0.48.3.1 r9886"
           id="svg1.svg2"
           stroke-miterlimit="4"
           stop-opacity="1"
           color-rendering="auto"
           font-size="12"
           sodipodi:docbase="C:\Daten\alberts\projects\yfx"
           pointer-events="visiblepainted"
           mask="none"
           direction="ltr"
           baseline-shift="baseline"
           sodipodi:docname="uml_actor.svg"
           image-rendering="auto"
           inkscape:output_extension="org.inkscape.output.svg.inkscape"
           width="41"
           clip="auto"
           cursor="auto"
           visibility="visible"
           kerning="auto"
           flood-opacity="1"
           clip-rule="nonzero"
           src="none"
           height="68.997391"
           unicode-bidi="normal"
           sodipodi:version="0.32"
           flood-color="rgb(0, 0, 0)"
           dominant-baseline="auto"
           style="font-size:12px;font-style:normal;font-variant:normal;font-weight:400;font-stretch:normal;text-decoration:none;letter-spacing:normal;word-spacing:normal;direction:ltr;writing-mode:lr-tb;text-anchor:start;baseline-shift:baseline;color:#000000;fill:#000000;fill-opacity:1;fill-rule:nonzero;stroke:none;stroke-width:1;marker-start:none;marker-mid:none;marker-end:none;visibility:visible;display:inline;overflow:hidden;enable-background:accumulate">
          <defs
             id="svg1.defs4">
            <clipPath
               clipPathUnits="userSpaceOnUse"
               id="clipPath1">
              <path
                 d="M 0,0 745,0 745,646 0,646 0,0 z"
                 id="path14"
                 inkscape:connector-curvature="0" />
            </clipPath>
            <clipPath
               clipPathUnits="userSpaceOnUse"
               id="clipPath3251">
              <path
                 d="m -304,-385 745,0 0,646 -745,0 0,-646 z"
                 id="path3253"
                 inkscape:connector-curvature="0" />
            </clipPath>
            <clipPath
               clipPathUnits="userSpaceOnUse"
               id="clipPath3255">
              <path
                 d="m -0.5013,-183.501 505.3218,0 0,444.8091 -505.3218,0 0,-444.8091 z"
                 id="path3257"
                 inkscape:connector-curvature="0" />
            </clipPath>
            <clipPath
               clipPathUnits="userSpaceOnUse"
               id="clipPath3259">
              <path
                 d="m -455.6885,-183.501 505.3218,0 0,444.8091 -505.3218,0 0,-444.8091 z"
                 id="path3261"
                 inkscape:connector-curvature="0" />
            </clipPath>
          </defs>
          <metadata
             id="svg1.metadata7" />
          <g
             inkscape:groupmode="layer"
             id="svg1.layer1"
             transform="translate(-29.5,-42.959476)"
             inkscape:label="Ebene 1">
            <a
               id="svg1.a3142"
               transform="matrix(1.0873906,0,0,1,-4.4741999,0)">
              <path
                 transform="translate(11.586889,5.2908993)"
                 style="fill:none;stroke:#000000;stroke-width:1px;stroke-linecap:butt;stroke-linejoin:miter;stroke-opacity:1"
                 sodipodi:cx="38.509369"
                 sodipodi:cy="47.36993"
                 sodipodi:rx="8.5197716"
                 id="svg1.path2160"
                 d="m 47.02914,47.36993 c 0,5.081767 -3.814431,9.201353 -8.519771,9.201353 -4.70534,0 -8.519772,-4.119586 -8.519772,-9.201353 0,-5.081767 3.814432,-9.201353 8.519772,-9.201353 4.70534,0 8.519771,4.119586 8.519771,9.201353 z"
                 sodipodi:ry="9.2013531"
                 sodipodi:type="arc" />
            </a>
            <path
               style="fill:none"
               sodipodi:cx="43.962021"
               sodipodi:cy="48.392303"
               id="svg1.path3134"
               sodipodi:rx="3.7486994"
               sodipodi:ry="0"
               sodipodi:type="arc" />
            <path
               style="fill:none;stroke:#000000;stroke-width:1.24319649px;stroke-linecap:butt;stroke-linejoin:miter;stroke-opacity:1"
               d="m 50,61.33709 c 0,30.026121 0,30.910748 0,30.910748"
               id="svg1.path3136"
               inkscape:connector-curvature="0" />
            <path
               style="fill:none;stroke:#000000;stroke-width:1px;stroke-linecap:butt;stroke-linejoin:miter;stroke-opacity:1"
               d="m 69.760668,72.362183 c 0,0 0,0 -19.521336,0 -20,0 -20,0 -20,0 l 0,0"
               id="svg1.path3138"
               inkscape:connector-curvature="0" />
            <path
               style="fill:none;stroke:#000000;stroke-width:1px;stroke-linecap:butt;stroke-linejoin:miter;stroke-opacity:1"
               d="m 30,111.45687 c 0,0 0,0 20,-19.443338 20,19.443338 20,19.443338 20,19.443338"
               id="svg1.path3140"
               inkscape:connector-curvature="0" />
          </g>
        </svg>
      </g>
    </g>
    <g
       font-size="13"
       transform="translate(305.7656,469.22718)"
       text-rendering="optimizeQuality"
       shape-rendering="geometricPrecision"
       font-weight="bold"
       stroke-miterlimit="1.45"
       id="g33"
       style="font-size:13px;font-weight:bold;stroke-linecap:butt;stroke-miterlimit:1.45000005;font-family:L M Sans10">
      <text
         x="-293.04459"
         xml:space="preserve"
         y="2.2420001"
         clip-path="url(#clipPath2)"
         id="text35"
         style="stroke:none">Spieler</text>
    </g>
    <g
       shape-rendering="geometricPrecision"
       text-rendering="optimizeQuality"
       transform="matrix(1.4743,0,0,1.4523,673.5908,350.72718)"
       id="g37">
      <g
         clip-path="url(#clipPath4)"
         id="g39">
        <svg
           writing-mode="lr-tb"
           stop-color="rgb(0, 0, 0)"
           shape-rendering="auto"
           glyph-orientation-horizontal="0deg"
           color-profile="auto"
           lighting-color="rgb(255, 255, 255)"
           font-weight="400"
           alignment-baseline="auto"
           font-style="normal"
           version="1.0"
           color-interpolation-filters="linearrgb"
           color-interpolation="srgb"
           font-variant="normal"
           word-spacing="normal"
           text-rendering="auto"
           clip-path="none"
           text-decoration="none"
           letter-spacing="normal"
           glyph-orientation-vertical="auto"
           display="inline"
           font-size-adjust="none"
           overflow="hidden"
           font-stretch="normal"
           inkscape:version="0.48.3.1 r9886"
           id="svg2.svg2"
           stroke-miterlimit="4"
           stop-opacity="1"
           color-rendering="auto"
           font-size="12"
           sodipodi:docbase="C:\Daten\alberts\projects\yfx"
           pointer-events="visiblepainted"
           mask="none"
           direction="ltr"
           baseline-shift="baseline"
           sodipodi:docname="uml_actor.svg"
           image-rendering="auto"
           inkscape:output_extension="org.inkscape.output.svg.inkscape"
           width="41"
           clip="auto"
           cursor="auto"
           visibility="visible"
           kerning="auto"
           flood-opacity="1"
           clip-rule="nonzero"
           src="none"
           height="68.997391"
           unicode-bidi="normal"
           sodipodi:version="0.32"
           flood-color="rgb(0, 0, 0)"
           dominant-baseline="auto"
           style="font-size:12px;font-style:normal;font-variant:normal;font-weight:400;font-stretch:normal;text-decoration:none;letter-spacing:normal;word-spacing:normal;direction:ltr;writing-mode:lr-tb;text-anchor:start;baseline-shift:baseline;color:#000000;fill:#000000;fill-opacity:1;fill-rule:nonzero;stroke:none;stroke-width:1;marker-start:none;marker-mid:none;marker-end:none;visibility:visible;display:inline;overflow:hidden;enable-background:accumulate">
          <defs
             id="svg2.defs4" />
          <metadata
             id="svg2.metadata7" />
          <g
             inkscape:groupmode="layer"
             id="svg2.layer1"
             transform="translate(-29.5,-42.959476)"
             inkscape:label="Ebene 1">
            <a
               id="svg2.a3142"
               transform="matrix(1.0873906,0,0,1,-4.4741999,0)">
              <path
                 transform="translate(11.586889,5.2908993)"
                 style="fill:none;stroke:#000000;stroke-width:1px;stroke-linecap:butt;stroke-linejoin:miter;stroke-opacity:1"
                 sodipodi:cx="38.509369"
                 sodipodi:cy="47.36993"
                 sodipodi:rx="8.5197716"
                 id="svg2.path2160"
                 d="m 47.02914,47.36993 c 0,5.081767 -3.814431,9.201353 -8.519771,9.201353 -4.70534,0 -8.519772,-4.119586 -8.519772,-9.201353 0,-5.081767 3.814432,-9.201353 8.519772,-9.201353 4.70534,0 8.519771,4.119586 8.519771,9.201353 z"
                 sodipodi:ry="9.2013531"
                 sodipodi:type="arc" />
            </a>
            <path
               style="fill:none"
               sodipodi:cx="43.962021"
               sodipodi:cy="48.392303"
               id="svg2.path3134"
               sodipodi:rx="3.7486994"
               sodipodi:ry="0"
               sodipodi:type="arc" />
            <path
               style="fill:none;stroke:#000000;stroke-width:1.24319649px;stroke-linecap:butt;stroke-linejoin:miter;stroke-opacity:1"
               d="m 50,61.33709 c 0,30.026121 0,30.910748 0,30.910748"
               id="svg2.path3136"
               inkscape:connector-curvature="0" />
            <path
               style="fill:none;stroke:#000000;stroke-width:1px;stroke-linecap:butt;stroke-linejoin:miter;stroke-opacity:1"
               d="m 69.760668,72.362183 c 0,0 0,0 -19.521336,0 -20,0 -20,0 -20,0 l 0,0"
               id="svg2.path3138"
               inkscape:connector-curvature="0" />
            <path
               style="fill:none;stroke:#000000;stroke-width:1px;stroke-linecap:butt;stroke-linejoin:miter;stroke-opacity:1"
               d="m 30,111.45687 c 0,0 0,0 20,-19.443338 20,19.443338 20,19.443338 20,19.443338"
               id="svg2.path3140"
               inkscape:connector-curvature="0" />
          </g>
        </svg>
      </g>
    </g>
    <g
       font-size="13"
       transform="translate(305.7656,469.22718)"
       text-rendering="optimizeQuality"
       shape-rendering="geometricPrecision"
       font-weight="bold"
       stroke-miterlimit="1.45"
       id="g51"
       style="font-size:13px;font-weight:bold;stroke-linecap:butt;stroke-miterlimit:1.45000005;font-family:L M Sans10">
      <text
         x="357.88501"
         xml:space="preserve"
         y="2.2420001"
         clip-path="url(#clipPath2)"
         id="text53"
         style="stroke:none">Auto Kamera</text>
    </g>
    <g
       font-size="13"
       transform="translate(305.7656,469.22718)"
       text-rendering="optimizeQuality"
       shape-rendering="geometricPrecision"
       font-weight="bold"
       stroke-miterlimit="1.45"
       id="g55"
       style="font-size:13px;font-weight:bold;stroke-linecap:butt;stroke-miterlimit:1.45000005;font-family:L M Sans10">
      <text
         x="3.3619001"
         xml:space="preserve"
         y="-191.31841"
         clip-path="url(#clipPath2)"
         id="text57"
         style="stroke:none">Kante zur Selektion</text>
      <text
         x="30.434401"
         xml:space="preserve"
         y="-172.71539"
         clip-path="url(#clipPath2)"
         id="text59"
         style="stroke:none">hinzuf체gen</text>
      <ellipse
         rx="77.715797"
         ry="29.754101"
         clip-path="url(#clipPath2)"
         cx="62.505402"
         cy="-187.4574"
         id="ellipse61"
         d="m 140.2212,-187.4574 c 0,16.43274 -34.79455,29.7541 -77.715798,29.7541 -42.92125,0 -77.715798,-13.32136 -77.715798,-29.7541 0,-16.43273 34.794548,-29.7541 77.715798,-29.7541 42.921248,0 77.715798,13.32137 77.715798,29.7541 z"
         sodipodi:cx="62.505402"
         sodipodi:cy="-187.4574"
         sodipodi:rx="77.715797"
         sodipodi:ry="29.754101"
         style="fill:none" />
      <text
         x="6.0528998"
         xml:space="preserve"
         y="-98.430801"
         clip-path="url(#clipPath2)"
         id="text63"
         style="stroke:none">Selektion aufheben</text>
      <ellipse
         rx="77.715797"
         ry="29.754101"
         clip-path="url(#clipPath2)"
         cx="62.505402"
         cy="-103.8713"
         id="ellipse65"
         d="m 140.2212,-103.8713 c 0,16.432736 -34.79455,29.754101 -77.715798,29.754101 -42.92125,0 -77.715798,-13.321365 -77.715798,-29.754101 0,-16.43274 34.794548,-29.7541 77.715798,-29.7541 42.921248,0 77.715798,13.32136 77.715798,29.7541 z"
         sodipodi:cx="62.505402"
         sodipodi:cy="-103.8713"
         sodipodi:rx="77.715797"
         sodipodi:ry="29.754101"
         style="fill:none" />
      <text
         x="2.7964001"
         xml:space="preserve"
         y="-14.8446"
         clip-path="url(#clipPath2)"
         id="text67"
         style="stroke:none">Kamera verschieben</text>
      <ellipse
         rx="77.715797"
         ry="29.754101"
         clip-path="url(#clipPath2)"
         cx="62.505402"
         cy="-20.285101"
         id="ellipse69"
         d="m 140.2212,-20.285101 c 0,16.4327362 -34.79455,29.7541009 -77.715798,29.7541009 -42.92125,0 -77.715798,-13.3213647 -77.715798,-29.7541009 0,-16.432736 34.794548,-29.754101 77.715798,-29.754101 42.921248,0 77.715798,13.321365 77.715798,29.754101 z"
         sodipodi:cx="62.505402"
         sodipodi:cy="-20.285101"
         sodipodi:rx="77.715797"
         sodipodi:ry="29.754101"
         style="fill:none" />
      <text
         x="16.9534"
         xml:space="preserve"
         y="68.741501"
         clip-path="url(#clipPath2)"
         id="text71"
         style="stroke:none">Kamera drehen</text>
      <ellipse
         rx="77.715797"
         ry="29.754101"
         clip-path="url(#clipPath2)"
         cx="62.505402"
         cy="63.300999"
         id="ellipse73"
         d="m 140.2212,63.300999 c 0,16.432736 -34.79455,29.7541 -77.715798,29.7541 -42.92125,0 -77.715798,-13.321364 -77.715798,-29.7541 0,-16.432736 34.794548,-29.754101 77.715798,-29.754101 42.921248,0 77.715798,13.321365 77.715798,29.754101 z"
         sodipodi:cx="62.505402"
         sodipodi:cy="63.300999"
         sodipodi:rx="77.715797"
         sodipodi:ry="29.754101"
         style="fill:none" />
      <text
         x="2.2959001"
         xml:space="preserve"
         y="143.02609"
         clip-path="url(#clipPath2)"
         id="text75"
         style="stroke:none">ausgew채hlte Kanten</text>
      <text
         x="-0.3691"
         xml:space="preserve"
         y="161.6291"
         clip-path="url(#clipPath2)"
         id="text77"
         style="stroke:none">ziehen / modifizieren</text>
      <ellipse
         rx="77.715797"
         ry="29.754101"
         clip-path="url(#clipPath2)"
         cx="62.505402"
         cy="146.8871"
         id="ellipse79"
         d="m 140.2212,146.8871 c 0,16.43274 -34.79455,29.7541 -77.715798,29.7541 -42.92125,0 -77.715798,-13.32136 -77.715798,-29.7541 0,-16.43274 34.794548,-29.7541 77.715798,-29.7541 42.921248,0 77.715798,13.32136 77.715798,29.7541 z"
         sodipodi:cx="62.505402"
         sodipodi:cy="146.8871"
         sodipodi:rx="77.715797"
         sodipodi:ry="29.754101"
         style="fill:none" />
    </g>
    <g
       transform="translate(305.7656,469.22718)"
       text-rendering="optimizeQuality"
       shape-rendering="geometricPrecision"
       id="g81"
       style="fill:#000000;fill-opacity:0.2;stroke:#000000;stroke-opacity:0.2">
      <ellipse
         rx="77.715797"
         ry="29.754101"
         clip-path="url(#clipPath2)"
         cx="62.505402"
         cy="230.4733"
         id="ellipse83"
         d="m 140.2212,230.4733 c 0,16.43273 -34.79455,29.7541 -77.715798,29.7541 -42.92125,0 -77.715798,-13.32137 -77.715798,-29.7541 0,-16.43274 34.794548,-29.7541 77.715798,-29.7541 42.921248,0 77.715798,13.32136 77.715798,29.7541 z"
         sodipodi:cx="62.505402"
         sodipodi:cy="230.4733"
         sodipodi:rx="77.715797"
         sodipodi:ry="29.754101"
         style="stroke:none" />
    </g>
    <g
       font-size="13"
       transform="translate(305.7656,469.22718)"
       text-rendering="optimizeQuality"
       shape-rendering="geometricPrecision"
       font-weight="bold"
       stroke-miterlimit="1.45"
       id="g85"
       style="font-size:13px;font-weight:bold;stroke-linecap:butt;stroke-miterlimit:1.45000005;font-family:L M Sans10">
      <text
         x="5.6174002"
         xml:space="preserve"
         y="235.9138"
         clip-path="url(#clipPath2)"
         id="text87"
         style="stroke:none">Selektion einf채rben</text>
      <ellipse
         rx="77.715797"
         ry="29.754101"
         clip-path="url(#clipPath2)"
         cx="62.505402"
         cy="230.4733"
         id="ellipse89"
         d="m 140.2212,230.4733 c 0,16.43273 -34.79455,29.7541 -77.715798,29.7541 -42.92125,0 -77.715798,-13.32137 -77.715798,-29.7541 0,-16.43274 34.794548,-29.7541 77.715798,-29.7541 42.921248,0 77.715798,13.32136 77.715798,29.7541 z"
         sodipodi:cx="62.505402"
         sodipodi:cy="230.4733"
         sodipodi:rx="77.715797"
         sodipodi:ry="29.754101"
         style="fill:none" />
      <text
         x="18.6889"
         xml:space="preserve"
         y="-349.18921"
         clip-path="url(#clipPath2)"
         id="text91"
         style="stroke:none">Men체 aufrufen</text>
      <ellipse
         rx="77.715797"
         ry="29.754101"
         clip-path="url(#clipPath2)"
         cx="62.505402"
         cy="-354.6297"
         id="ellipse93"
         d="m 140.2212,-354.6297 c 0,16.43274 -34.79455,29.7541 -77.715798,29.7541 -42.92125,0 -77.715798,-13.32136 -77.715798,-29.7541 0,-16.43274 34.794548,-29.7541 77.715798,-29.7541 42.921248,0 77.715798,13.32136 77.715798,29.7541 z"
         sodipodi:cx="62.505402"
         sodipodi:cy="-354.6297"
         sodipodi:rx="77.715797"
         sodipodi:ry="29.754101"
         style="fill:none" />
    </g>
    <g
       transform="translate(305.7656,469.22718)"
       text-rendering="optimizeQuality"
       shape-rendering="geometricPrecision"
       id="g95"
       style="fill:#000000;fill-opacity:0.2;stroke:#000000;stroke-opacity:0.2">
      <ellipse
         rx="77.715797"
         ry="29.754101"
         clip-path="url(#clipPath2)"
         cx="62.505402"
         cy="-271.04361"
         id="ellipse97"
         d="m 140.2212,-271.04361 c 0,16.43274 -34.79455,29.7541 -77.715798,29.7541 -42.92125,0 -77.715798,-13.32136 -77.715798,-29.7541 0,-16.43274 34.794548,-29.7541 77.715798,-29.7541 42.921248,0 77.715798,13.32136 77.715798,29.7541 z"
         sodipodi:cx="62.505402"
         sodipodi:cy="-271.04361"
         sodipodi:rx="77.715797"
         sodipodi:ry="29.754101"
         style="stroke:none" />
    </g>
    <g
       font-size="13"
       transform="translate(305.7656,469.22718)"
       text-rendering="optimizeQuality"
       shape-rendering="geometricPrecision"
       font-weight="bold"
       stroke-miterlimit="1.45"
       id="g99"
       style="font-size:13px;font-weight:bold;stroke-linecap:butt;stroke-miterlimit:1.45000005;font-family:L M Sans10">
      <text
         x="-9.7291002"
         xml:space="preserve"
         y="-265.60309"
         clip-path="url(#clipPath2)"
         id="text101"
         style="stroke:none">Exportoptionen aufrufen</text>
      <ellipse
         rx="77.715797"
         ry="29.754101"
         clip-path="url(#clipPath2)"
         cx="62.505402"
         cy="-271.04361"
         id="ellipse103"
         d="m 140.2212,-271.04361 c 0,16.43274 -34.79455,29.7541 -77.715798,29.7541 -42.92125,0 -77.715798,-13.32136 -77.715798,-29.7541 0,-16.43274 34.794548,-29.7541 77.715798,-29.7541 42.921248,0 77.715798,13.32136 77.715798,29.7541 z"
         sodipodi:cx="62.505402"
         sodipodi:cy="-271.04361"
         sodipodi:rx="77.715797"
         sodipodi:ry="29.754101"
         style="fill:none" />
      <path
         d="M -243.0141,-79.144 5.4825,-167.2415"
         clip-path="url(#clipPath2)"
         id="path105"
         inkscape:connector-curvature="0"
         style="fill:none" />
      <path
         d="m -243.0141,-71.6649 230.592,-24.3079"
         clip-path="url(#clipPath2)"
         id="path107"
         inkscape:connector-curvature="0"
         style="fill:none" />
      <path
         d="m -243.0141,-64.1859 232.7595,33.4457"
         clip-path="url(#clipPath2)"
         id="path109"
         inkscape:connector-curvature="0"
         style="fill:none" />
      <path
         d="M 368.0249,-64.1859 135.2655,-30.7402"
         clip-path="url(#clipPath2)"
         id="path111"
         inkscape:connector-curvature="0"
         style="fill:none" />
      <path
         d="M -243.0141,-56.7068 8.2609,41.9938"
         clip-path="url(#clipPath2)"
         id="path113"
         inkscape:connector-curvature="0"
         style="fill:none" />
      <path
         d="M 368.0249,-56.7068 116.75,41.9938"
         clip-path="url(#clipPath2)"
         id="path115"
         inkscape:connector-curvature="0"
         style="fill:none" />
      <path
         d="m -243.0141,-49.2277 265.71,170.5609"
         clip-path="url(#clipPath2)"
         id="path117"
         inkscape:connector-curvature="0"
         style="fill:none" />
      <path
         d="M -243.0345,-41.7669 31.8244,203.136"
         clip-path="url(#clipPath2)"
         id="path119"
         inkscape:connector-curvature="0"
         style="fill:none" />
      <path
         d="M -243.0345,-94.0847 30.6741,-327.4859"
         clip-path="url(#clipPath2)"
         id="path121"
         inkscape:connector-curvature="0"
         style="fill:none" />
      <path
         d="M -243.0141,-86.6231 20.8801,-245.9173"
         clip-path="url(#clipPath2)"
         id="path123"
         inkscape:connector-curvature="0"
         style="fill:none" />
    </g>
  </g>
</svg>
