<?xml version="1.0" encoding="UTF-8"?><svg xmlns="http://www.w3.org/2000/svg" xmlns:xlink="http://www.w3.org/1999/xlink" fill-opacity="1" color-rendering="auto" color-interpolation="auto" stroke="black" text-rendering="auto" stroke-linecap="square" width="714" stroke-miterlimit="10" stroke-opacity="1" shape-rendering="auto" fill="black" stroke-dasharray="none" font-weight="normal" stroke-width="1" height="847" font-family="'Dialog'" font-style="normal" stroke-linejoin="miter" font-size="12" stroke-dashoffset="0" image-rendering="auto">
  <!--Generated by ySVG 2.5-->
  <defs id="genericDefs"/>
  <g>
    <defs id="defs1">
      <clipPath clipPathUnits="userSpaceOnUse" id="clipPath1">
        <path d="M0 0 L714 0 L714 847 L0 847 L0 0 Z"/>
      </clipPath>
      <clipPath clipPathUnits="userSpaceOnUse" id="clipPath2">
        <path d="M-1 -15 L713 -15 L713 832 L-1 832 L-1 -15 Z"/>
      </clipPath>
    </defs>
    <g fill="white" text-rendering="optimizeQuality" shape-rendering="geometricPrecision" transform="translate(1,15)" stroke="white">
      <rect x="-1" width="714" height="847" y="-15" clip-path="url(#clipPath2)" stroke="none"/>
    </g>
    <g fill="rgb(255,204,0)" text-rendering="optimizeQuality" shape-rendering="geometricPrecision" transform="matrix(1,0,0,1,1,15)" stroke="rgb(255,204,0)">
      <rect x="251.25" y="0" clip-path="url(#clipPath2)" width="125" rx="4" ry="4" height="48" stroke="none"/>
    </g>
    <g text-rendering="optimizeQuality" stroke-miterlimit="1.45" shape-rendering="geometricPrecision" font-family="sans-serif" transform="matrix(1,0,0,1,1,15)" stroke-linecap="butt">
      <text x="278.4561" xml:space="preserve" y="28.1543" clip-path="url(#clipPath2)" stroke="none">Hauptmenü</text>
      <rect x="251.25" y="0" clip-path="url(#clipPath2)" fill="none" width="125" rx="4" ry="4" height="48"/>
    </g>
    <g fill="rgb(255,204,0)" text-rendering="optimizeQuality" shape-rendering="geometricPrecision" transform="matrix(1,0,0,1,1,15)" stroke="rgb(255,204,0)">
      <path d="M298.75 108 L313.75 93 L328.75 108 L313.75 123 Z" clip-path="url(#clipPath2)" fill-rule="evenodd" stroke="none"/>
    </g>
    <g text-rendering="optimizeQuality" stroke-miterlimit="1.45" shape-rendering="geometricPrecision" transform="matrix(1,0,0,1,1,15)" stroke-linecap="butt">
      <path fill="none" d="M298.75 108 L313.75 93 L328.75 108 L313.75 123 Z" fill-rule="evenodd" clip-path="url(#clipPath2)"/>
    </g>
    <g fill="rgb(255,204,0)" text-rendering="optimizeQuality" shape-rendering="geometricPrecision" transform="matrix(1,0,0,1,1,15)" stroke="rgb(255,204,0)">
      <rect x="402.5" y="168" clip-path="url(#clipPath2)" width="125" rx="4" ry="4" height="48" stroke="none"/>
    </g>
    <g text-rendering="optimizeQuality" stroke-miterlimit="1.45" shape-rendering="geometricPrecision" font-family="sans-serif" transform="matrix(1,0,0,1,1,15)" stroke-linecap="butt">
      <text x="435.0176" xml:space="preserve" y="196.1543" clip-path="url(#clipPath2)" stroke="none">Challange</text>
      <rect x="402.5" y="168" clip-path="url(#clipPath2)" fill="none" width="125" rx="4" ry="4" height="48"/>
    </g>
    <g fill="rgb(255,204,0)" text-rendering="optimizeQuality" shape-rendering="geometricPrecision" transform="matrix(1,0,0,1,1,15)" stroke="rgb(255,204,0)">
      <rect x="247.5" y="168" clip-path="url(#clipPath2)" width="125" rx="4" ry="4" height="48" stroke="none"/>
    </g>
    <g text-rendering="optimizeQuality" stroke-miterlimit="1.45" shape-rendering="geometricPrecision" font-family="sans-serif" transform="matrix(1,0,0,1,1,15)" stroke-linecap="butt">
      <text x="289.9316" xml:space="preserve" y="196.1543" clip-path="url(#clipPath2)" stroke="none">Create</text>
      <rect x="247.5" y="168" clip-path="url(#clipPath2)" fill="none" width="125" rx="4" ry="4" height="48"/>
    </g>
    <g fill="rgb(255,204,0)" text-rendering="optimizeQuality" shape-rendering="geometricPrecision" transform="matrix(1,0,0,1,1,15)" stroke="rgb(255,204,0)">
      <rect x="92.5" y="168" clip-path="url(#clipPath2)" width="125" rx="4" ry="4" height="48" stroke="none"/>
    </g>
    <g text-rendering="optimizeQuality" stroke-miterlimit="1.45" shape-rendering="geometricPrecision" font-family="sans-serif" transform="matrix(1,0,0,1,1,15)" stroke-linecap="butt">
      <text x="114.3271" xml:space="preserve" y="196.1543" clip-path="url(#clipPath2)" stroke="none">Einstellungen</text>
      <rect x="92.5" y="168" clip-path="url(#clipPath2)" fill="none" width="125" rx="4" ry="4" height="48"/>
    </g>
    <g fill="rgb(255,204,0)" text-rendering="optimizeQuality" shape-rendering="geometricPrecision" transform="matrix(1,0,0,1,1,15)" stroke="rgb(255,204,0)">
      <rect x="557.5" y="168" clip-path="url(#clipPath2)" width="125" rx="4" ry="4" height="48" stroke="none"/>
    </g>
    <g text-rendering="optimizeQuality" stroke-miterlimit="1.45" shape-rendering="geometricPrecision" font-family="sans-serif" transform="matrix(1,0,0,1,1,15)" stroke-linecap="butt">
      <text x="598.6982" xml:space="preserve" y="196.1543" clip-path="url(#clipPath2)" stroke="none">Credits</text>
      <rect x="557.5" y="168" clip-path="url(#clipPath2)" fill="none" width="125" rx="4" ry="4" height="48"/>
    </g>
    <g fill="rgb(255,204,0)" text-rendering="optimizeQuality" shape-rendering="geometricPrecision" transform="matrix(1,0,0,1,1,15)" stroke="rgb(255,204,0)">
      <rect x="402.5" y="246" clip-path="url(#clipPath2)" width="125" rx="4" ry="4" height="48" stroke="none"/>
    </g>
    <g text-rendering="optimizeQuality" stroke-miterlimit="1.45" shape-rendering="geometricPrecision" font-family="sans-serif" transform="matrix(1,0,0,1,1,15)" stroke-linecap="butt">
      <text x="435.0176" xml:space="preserve" y="267.1699" clip-path="url(#clipPath2)" stroke="none">Challange</text>
      <text x="432.8467" xml:space="preserve" y="281.1387" clip-path="url(#clipPath2)" stroke="none">auswählen</text>
      <rect x="402.5" y="246" clip-path="url(#clipPath2)" fill="none" width="125" rx="4" ry="4" height="48"/>
    </g>
    <g fill="rgb(255,204,0)" text-rendering="optimizeQuality" shape-rendering="geometricPrecision" transform="matrix(1,0,0,1,1,15)" stroke="rgb(255,204,0)">
      <rect x="417.5" y="553" clip-path="url(#clipPath2)" width="125" rx="4" ry="4" height="48" stroke="none"/>
    </g>
    <g text-rendering="optimizeQuality" stroke-miterlimit="1.45" shape-rendering="geometricPrecision" font-family="sans-serif" transform="matrix(1,0,0,1,1,15)" stroke-linecap="butt">
      <text x="450.0176" xml:space="preserve" y="574.1699" clip-path="url(#clipPath2)" stroke="none">Challange</text>
      <text x="449.3496" xml:space="preserve" y="588.1387" clip-path="url(#clipPath2)" stroke="none">bestreiten</text>
      <rect x="417.5" y="553" clip-path="url(#clipPath2)" fill="none" width="125" rx="4" ry="4" height="48"/>
    </g>
    <g fill="rgb(255,204,0)" text-rendering="optimizeQuality" shape-rendering="geometricPrecision" transform="matrix(1,0,0,1,1,15)" stroke="rgb(255,204,0)">
      <path d="M465 646.0001 L480 631.0001 L495 646.0001 L480 661.0001 Z" clip-path="url(#clipPath2)" fill-rule="evenodd" stroke="none"/>
    </g>
    <g text-rendering="optimizeQuality" stroke-miterlimit="1.45" shape-rendering="geometricPrecision" transform="matrix(1,0,0,1,1,15)" stroke-linecap="butt">
      <path fill="none" d="M465 646.0001 L480 631.0001 L495 646.0001 L480 661.0001 Z" fill-rule="evenodd" clip-path="url(#clipPath2)"/>
    </g>
    <g fill="rgb(255,204,0)" text-rendering="optimizeQuality" shape-rendering="geometricPrecision" transform="matrix(1,0,0,1,1,15)" stroke="rgb(255,204,0)">
      <rect x="557.5" y="691" clip-path="url(#clipPath2)" width="125" rx="4" ry="4" height="48" stroke="none"/>
    </g>
    <g text-rendering="optimizeQuality" stroke-miterlimit="1.45" shape-rendering="geometricPrecision" font-family="sans-serif" transform="matrix(1,0,0,1,1,15)" stroke-linecap="butt">
      <text x="588.207" xml:space="preserve" y="705.1855" clip-path="url(#clipPath2)" stroke="none">Namen für</text>
      <text x="589.9561" xml:space="preserve" y="719.1543" clip-path="url(#clipPath2)" stroke="none">Highscore</text>
      <text x="591.04" xml:space="preserve" y="733.123" clip-path="url(#clipPath2)" stroke="none">eintragen</text>
      <rect x="557.5" y="691" clip-path="url(#clipPath2)" fill="none" width="125" rx="4" ry="4" height="48"/>
    </g>
    <g fill="rgb(255,204,0)" text-rendering="optimizeQuality" shape-rendering="geometricPrecision" transform="matrix(1,0,0,1,1,15)" stroke="rgb(255,204,0)">
      <rect x="402.5" y="691" clip-path="url(#clipPath2)" width="125" rx="4" ry="4" height="48" stroke="none"/>
    </g>
    <g text-rendering="optimizeQuality" stroke-miterlimit="1.45" shape-rendering="geometricPrecision" font-family="sans-serif" transform="matrix(1,0,0,1,1,15)" stroke-linecap="butt">
      <text x="435.0176" xml:space="preserve" y="712.1699" clip-path="url(#clipPath2)" stroke="none">Challange</text>
      <text x="432.9521" xml:space="preserve" y="726.1387" clip-path="url(#clipPath2)" stroke="none">abbrechen</text>
      <rect x="402.5" y="691" clip-path="url(#clipPath2)" fill="none" width="125" rx="4" ry="4" height="48"/>
    </g>
    <g fill="rgb(255,204,0)" text-rendering="optimizeQuality" shape-rendering="geometricPrecision" transform="matrix(1,0,0,1,1,15)" stroke="rgb(255,204,0)">
      <rect x="557.5" y="769" clip-path="url(#clipPath2)" width="125" rx="4" ry="4" height="48" stroke="none"/>
    </g>
    <g text-rendering="optimizeQuality" stroke-miterlimit="1.45" shape-rendering="geometricPrecision" font-family="sans-serif" transform="matrix(1,0,0,1,1,15)" stroke-linecap="butt">
      <text x="590.0176" xml:space="preserve" y="790.1699" clip-path="url(#clipPath2)" stroke="none">Challange</text>
      <text x="591.5879" xml:space="preserve" y="804.1387" clip-path="url(#clipPath2)" stroke="none">bewerten</text>
      <rect x="557.5" y="769" clip-path="url(#clipPath2)" fill="none" width="125" rx="4" ry="4" height="48"/>
    </g>
    <g fill="rgb(255,204,0)" text-rendering="optimizeQuality" shape-rendering="geometricPrecision" transform="matrix(1,0,0,1,1,15)" stroke="rgb(255,204,0)">
      <rect x="216.25" y="339" clip-path="url(#clipPath2)" width="125" rx="4" ry="4" height="48" stroke="none"/>
    </g>
    <g text-rendering="optimizeQuality" stroke-miterlimit="1.45" shape-rendering="geometricPrecision" font-family="sans-serif" transform="matrix(1,0,0,1,1,15)" stroke-linecap="butt">
      <text x="266.7676" xml:space="preserve" y="367.1543" clip-path="url(#clipPath2)" stroke="none">Neu</text>
      <rect x="216.25" y="339" clip-path="url(#clipPath2)" fill="none" width="125" rx="4" ry="4" height="48"/>
    </g>
    <g fill="rgb(255,204,0)" text-rendering="optimizeQuality" shape-rendering="geometricPrecision" transform="matrix(1,0,0,1,1,15)" stroke="rgb(255,204,0)">
      <rect x="61.25" y="339" clip-path="url(#clipPath2)" width="125" rx="4" ry="4" height="48" stroke="none"/>
    </g>
    <g text-rendering="optimizeQuality" stroke-miterlimit="1.45" shape-rendering="geometricPrecision" font-family="sans-serif" transform="matrix(1,0,0,1,1,15)" stroke-linecap="butt">
      <text x="107.1035" xml:space="preserve" y="367.1543" clip-path="url(#clipPath2)" stroke="none">laden</text>
      <rect x="61.25" y="339" clip-path="url(#clipPath2)" fill="none" width="125" rx="4" ry="4" height="48"/>
    </g>
    <g fill="rgb(255,204,0)" text-rendering="optimizeQuality" shape-rendering="geometricPrecision" transform="matrix(1,0,0,1,1,15)" stroke="rgb(255,204,0)">
      <rect x="371.25" y="339" clip-path="url(#clipPath2)" width="125" rx="4" ry="4" height="48" stroke="none"/>
    </g>
    <g text-rendering="optimizeQuality" stroke-miterlimit="1.45" shape-rendering="geometricPrecision" font-family="sans-serif" transform="matrix(1,0,0,1,1,15)" stroke-linecap="butt">
      <text x="403.7676" xml:space="preserve" y="360.1699" clip-path="url(#clipPath2)" stroke="none">Challange</text>
      <text x="407.5938" xml:space="preserve" y="374.1387" clip-path="url(#clipPath2)" stroke="none">erstellen</text>
      <rect x="371.25" y="339" clip-path="url(#clipPath2)" fill="none" width="125" rx="4" ry="4" height="48"/>
    </g>
    <g fill="rgb(255,204,0)" text-rendering="optimizeQuality" shape-rendering="geometricPrecision" transform="matrix(1,0,0,1,1,15)" stroke="rgb(255,204,0)">
      <path d="M295 270 L310 255 L325 270 L310 285 Z" clip-path="url(#clipPath2)" fill-rule="evenodd" stroke="none"/>
    </g>
    <g text-rendering="optimizeQuality" stroke-miterlimit="1.45" shape-rendering="geometricPrecision" transform="matrix(1,0,0,1,1,15)" stroke-linecap="butt">
      <path fill="none" d="M295 270 L310 255 L325 270 L310 285 Z" fill-rule="evenodd" clip-path="url(#clipPath2)"/>
    </g>
    <g fill="rgb(255,204,0)" text-rendering="optimizeQuality" shape-rendering="geometricPrecision" transform="matrix(1,0,0,1,1,15)" stroke="rgb(255,204,0)">
      <rect x="216.25" y="407" clip-path="url(#clipPath2)" width="125" rx="4" ry="4" height="48" stroke="none"/>
    </g>
    <g text-rendering="optimizeQuality" stroke-miterlimit="1.45" shape-rendering="geometricPrecision" font-family="sans-serif" transform="matrix(1,0,0,1,1,15)" stroke-linecap="butt">
      <text x="247.7539" xml:space="preserve" y="421.1855" clip-path="url(#clipPath2)" stroke="none">Minimalen</text>
      <text x="257.4951" xml:space="preserve" y="435.1543" clip-path="url(#clipPath2)" stroke="none">Knoten</text>
      <text x="243.8896" xml:space="preserve" y="449.123" clip-path="url(#clipPath2)" stroke="none">vorbereiten</text>
      <rect x="216.25" y="407" clip-path="url(#clipPath2)" fill="none" width="125" rx="4" ry="4" height="48"/>
    </g>
    <g fill="rgb(255,204,0)" text-rendering="optimizeQuality" shape-rendering="geometricPrecision" transform="matrix(1,0,0,1,1,15)" stroke="rgb(255,204,0)">
      <rect x="170.3615" y="553" clip-path="url(#clipPath2)" width="125" rx="4" ry="4" height="48" stroke="none"/>
    </g>
    <g text-rendering="optimizeQuality" stroke-miterlimit="1.45" shape-rendering="geometricPrecision" font-family="sans-serif" transform="matrix(1,0,0,1,1,15)" stroke-linecap="butt">
      <text x="177.0422" xml:space="preserve" y="581.1543" clip-path="url(#clipPath2)" stroke="none">Knoten bearbeiten</text>
      <rect x="170.3615" y="553" clip-path="url(#clipPath2)" fill="none" width="125" rx="4" ry="4" height="48"/>
    </g>
    <g fill="rgb(255,204,0)" text-rendering="optimizeQuality" shape-rendering="geometricPrecision" transform="matrix(1,0,0,1,1,15)" stroke="rgb(255,204,0)">
      <rect x="61.25" y="407" clip-path="url(#clipPath2)" width="125" rx="4" ry="4" height="48" stroke="none"/>
    </g>
    <g text-rendering="optimizeQuality" stroke-miterlimit="1.45" shape-rendering="geometricPrecision" font-family="sans-serif" transform="matrix(1,0,0,1,1,15)" stroke-linecap="butt">
      <text x="68.4346" xml:space="preserve" y="435.1543" clip-path="url(#clipPath2)" stroke="none">Knoten auswählen</text>
      <rect x="61.25" y="407" clip-path="url(#clipPath2)" fill="none" width="125" rx="4" ry="4" height="48"/>
    </g>
    <g fill="rgb(255,204,0)" text-rendering="optimizeQuality" shape-rendering="geometricPrecision" transform="matrix(1,0,0,1,1,15)" stroke="rgb(255,204,0)">
      <rect x="61.25" y="475" clip-path="url(#clipPath2)" width="125" rx="4" ry="4" height="48" stroke="none"/>
    </g>
    <g text-rendering="optimizeQuality" stroke-miterlimit="1.45" shape-rendering="geometricPrecision" font-family="sans-serif" transform="matrix(1,0,0,1,1,15)" stroke-linecap="butt">
      <text x="83.9414" xml:space="preserve" y="503.1543" clip-path="url(#clipPath2)" stroke="none">Knoten laden</text>
      <rect x="61.25" y="475" clip-path="url(#clipPath2)" fill="none" width="125" rx="4" ry="4" height="48"/>
    </g>
    <g fill="rgb(255,204,0)" text-rendering="optimizeQuality" shape-rendering="geometricPrecision" transform="matrix(1,0,0,1,1,15)" stroke="rgb(255,204,0)">
      <path d="M179.1115 646.0001 L194.1115 631.0001 L209.1115 646.0001 L194.1115 661.0001 Z" clip-path="url(#clipPath2)" fill-rule="evenodd" stroke="none"/>
    </g>
    <g text-rendering="optimizeQuality" stroke-miterlimit="1.45" shape-rendering="geometricPrecision" transform="matrix(1,0,0,1,1,15)" stroke-linecap="butt">
      <path fill="none" d="M179.1115 646.0001 L194.1115 631.0001 L209.1115 646.0001 L194.1115 661.0001 Z" fill-rule="evenodd" clip-path="url(#clipPath2)"/>
    </g>
    <g fill="rgb(255,204,0)" text-rendering="optimizeQuality" shape-rendering="geometricPrecision" transform="matrix(1,0,0,1,1,15)" stroke="rgb(255,204,0)">
      <rect x="170.3615" y="691" clip-path="url(#clipPath2)" width="125" rx="4" ry="4" height="48" stroke="none"/>
    </g>
    <g text-rendering="optimizeQuality" stroke-miterlimit="1.45" shape-rendering="geometricPrecision" font-family="sans-serif" transform="matrix(1,0,0,1,1,15)" stroke-linecap="butt">
      <text x="202.8234" xml:space="preserve" y="719.1543" clip-path="url(#clipPath2)" stroke="none">Speichern</text>
      <rect x="170.3615" y="691" clip-path="url(#clipPath2)" fill="none" width="125" rx="4" ry="4" height="48"/>
    </g>
    <g fill="rgb(255,204,0)" text-rendering="optimizeQuality" shape-rendering="geometricPrecision" transform="matrix(1,0,0,1,1,15)" stroke="rgb(255,204,0)">
      <rect x="15" y="691" clip-path="url(#clipPath2)" width="125" rx="4" ry="4" height="48" stroke="none"/>
    </g>
    <g text-rendering="optimizeQuality" stroke-miterlimit="1.45" shape-rendering="geometricPrecision" font-family="sans-serif" transform="matrix(1,0,0,1,1,15)" stroke-linecap="butt">
      <text x="16.6387" xml:space="preserve" y="719.1543" clip-path="url(#clipPath2)" stroke="none">bearbeiten beenden</text>
      <rect x="15" y="691" clip-path="url(#clipPath2)" fill="none" width="125" rx="4" ry="4" height="48"/>
    </g>
    <g fill="rgb(255,204,0)" text-rendering="optimizeQuality" shape-rendering="geometricPrecision" transform="matrix(1,0,0,1,1,15)" stroke="rgb(255,204,0)">
      <rect x="371.25" y="407" clip-path="url(#clipPath2)" width="125" rx="4" ry="4" height="48" stroke="none"/>
    </g>
    <g text-rendering="optimizeQuality" stroke-miterlimit="1.45" shape-rendering="geometricPrecision" font-family="sans-serif" transform="matrix(1,0,0,1,1,15)" stroke-linecap="butt">
      <text x="392.9365" xml:space="preserve" y="428.1699" clip-path="url(#clipPath2)" stroke="none">Challange Art</text>
      <text x="412.2021" xml:space="preserve" y="442.1387" clip-path="url(#clipPath2)" stroke="none">wählen</text>
      <rect x="371.25" y="407" clip-path="url(#clipPath2)" fill="none" width="125" rx="4" ry="4" height="48"/>
    </g>
    <g fill="rgb(255,204,0)" text-rendering="optimizeQuality" shape-rendering="geometricPrecision" transform="matrix(1,0,0,1,1,15)" stroke="rgb(255,204,0)">
      <rect x="371.25" y="475" clip-path="url(#clipPath2)" width="125" rx="4" ry="4" height="48" stroke="none"/>
    </g>
    <g text-rendering="optimizeQuality" stroke-miterlimit="1.45" shape-rendering="geometricPrecision" font-family="sans-serif" transform="matrix(1,0,0,1,1,15)" stroke-linecap="butt">
      <text x="403.7676" xml:space="preserve" y="496.1699" clip-path="url(#clipPath2)" stroke="none">Challange</text>
      <text x="407.5938" xml:space="preserve" y="510.1387" clip-path="url(#clipPath2)" stroke="none">erstellen</text>
      <rect x="371.25" y="475" clip-path="url(#clipPath2)" fill="none" width="125" rx="4" ry="4" height="48"/>
    </g>
    <g fill="rgb(255,204,0)" text-rendering="optimizeQuality" shape-rendering="geometricPrecision" transform="matrix(1,0,0,1,1,15)" stroke="rgb(255,204,0)">
      <rect x="61.25" y="246" clip-path="url(#clipPath2)" width="125" rx="4" ry="4" height="48" stroke="none"/>
    </g>
    <g text-rendering="optimizeQuality" stroke-miterlimit="1.45" shape-rendering="geometricPrecision" font-family="sans-serif" transform="matrix(1,0,0,1,1,15)" stroke-linecap="butt">
      <text x="83.0771" xml:space="preserve" y="267.1699" clip-path="url(#clipPath2)" stroke="none">Einstellungen</text>
      <text x="95.0391" xml:space="preserve" y="281.1387" clip-path="url(#clipPath2)" stroke="none">anpassen</text>
      <rect x="61.25" y="246" clip-path="url(#clipPath2)" fill="none" width="125" rx="4" ry="4" height="48"/>
      <path fill="none" d="M313.75 48 L313.75 93" clip-path="url(#clipPath2)"/>
      <path fill="none" d="M317.5 119.2517 L317.5 153 L465 153 L465 159.9707" clip-path="url(#clipPath2)"/>
      <path d="M465 167.9707 L470 155.9707 L465 158.9707 L460 155.9707 Z" clip-path="url(#clipPath2)" stroke="none"/>
      <path fill="none" d="M310 119.2812 L310 159.9524" clip-path="url(#clipPath2)"/>
      <path d="M310 167.9524 L315 155.9524 L310 158.9524 L305 155.9524 Z" clip-path="url(#clipPath2)" stroke="none"/>
      <path fill="none" d="M302.5 111.7812 L302.5 138 L155 138 L155 159.9707" clip-path="url(#clipPath2)"/>
      <path d="M155 167.9707 L160 155.9707 L155 158.9707 L150 155.9707 Z" clip-path="url(#clipPath2)" stroke="none"/>
      <path fill="none" d="M325 111.7444 L325 138 L588.75 138 L588.75 159.9707" clip-path="url(#clipPath2)"/>
      <path d="M588.75 167.9707 L593.75 155.9707 L588.75 158.9707 L583.75 155.9707 Z" clip-path="url(#clipPath2)" stroke="none"/>
      <path fill="none" d="M651.25 167.9561 L651.25 78 L338.75 78 L338.75 56" clip-path="url(#clipPath2)"/>
      <path d="M338.75 48 L333.75 60 L338.75 57 L343.75 60 Z" clip-path="url(#clipPath2)" stroke="none"/>
      <path fill="none" d="M465 216 L465 237.9707" clip-path="url(#clipPath2)"/>
      <path d="M465 245.9707 L470 233.9707 L465 236.9707 L460 233.9707 Z" clip-path="url(#clipPath2)" stroke="none"/>
      <path fill="none" d="M465 294 L465 309 L511.25 309 L511.25 544.9702" clip-path="url(#clipPath2)"/>
      <path d="M511.25 552.9702 L516.25 540.9702 L511.25 543.9702 L506.25 540.9702 Z" clip-path="url(#clipPath2)" stroke="none"/>
      <path fill="none" d="M480 601 L480 631" clip-path="url(#clipPath2)"/>
      <path fill="none" d="M487.5 653.5128 L487.5 676 L620 676 L620 682.9707" clip-path="url(#clipPath2)"/>
      <path d="M620 690.9707 L625 678.9707 L620 681.9707 L615 678.9707 Z" clip-path="url(#clipPath2)" stroke="none"/>
      <path fill="none" d="M472.5 653.5312 L472.5 676 L465 676 L465 682.9707" clip-path="url(#clipPath2)"/>
      <path d="M465 690.9707 L470 678.9707 L465 681.9707 L460 678.9707 Z" clip-path="url(#clipPath2)" stroke="none"/>
      <path fill="none" d="M620 739 L620 760.9707" clip-path="url(#clipPath2)"/>
      <path d="M620 768.9707 L625 756.9707 L620 759.9707 L615 756.9707 Z" clip-path="url(#clipPath2)" stroke="none"/>
      <path fill="none" d="M465 739 L465 754 L578.3333 754 L578.3333 760.9707" clip-path="url(#clipPath2)"/>
      <path d="M578.3333 768.9707 L583.3333 756.9707 L578.3333 759.9707 L573.3333 756.9707 Z" clip-path="url(#clipPath2)" stroke="none"/>
      <path fill="none" d="M661.6667 768.9707 L661.6667 754 L697.5 754 L697.5 63 L363.75 63 L363.75 56" clip-path="url(#clipPath2)"/>
      <path d="M363.75 48 L358.75 60 L363.75 57 L368.75 60 Z" clip-path="url(#clipPath2)" stroke="none"/>
      <path fill="none" d="M310 216 L310 255" clip-path="url(#clipPath2)"/>
      <path fill="none" d="M310 285 L310 324 L278.75 324 L278.75 330.9707" clip-path="url(#clipPath2)"/>
      <path d="M278.75 338.9707 L283.75 326.9707 L278.75 329.9707 L273.75 326.9707 Z" clip-path="url(#clipPath2)" stroke="none"/>
      <path fill="none" d="M300 275.002 L300 309 L123.75 309 L123.75 330.9707" clip-path="url(#clipPath2)"/>
      <path d="M123.75 338.9707 L128.75 326.9707 L123.75 329.9707 L118.75 326.9707 Z" clip-path="url(#clipPath2)" stroke="none"/>
      <path fill="none" d="M320 275.0312 L320 309 L433.75 309 L433.75 330.9707" clip-path="url(#clipPath2)"/>
      <path d="M433.75 338.9707 L438.75 326.9707 L433.75 329.9707 L428.75 326.9707 Z" clip-path="url(#clipPath2)" stroke="none"/>
      <path fill="none" d="M278.75 387 L278.75 398.9609" clip-path="url(#clipPath2)"/>
      <path d="M278.75 406.9609 L283.75 394.9609 L278.75 397.9609 L273.75 394.9609 Z" clip-path="url(#clipPath2)" stroke="none"/>
      <path fill="none" d="M278.75 455 L278.75 514 L264.1115 514 L264.1115 544.9619" clip-path="url(#clipPath2)"/>
      <path d="M264.1115 552.9619 L269.1115 540.9619 L264.1115 543.9619 L259.1115 540.9619 Z" clip-path="url(#clipPath2)" stroke="none"/>
      <path fill="none" d="M123.75 387 L123.75 398.9609" clip-path="url(#clipPath2)"/>
      <path d="M123.75 406.9609 L128.75 394.9609 L123.75 397.9609 L118.75 394.9609 Z" clip-path="url(#clipPath2)" stroke="none"/>
      <path fill="none" d="M123.75 455 L123.75 466.9609" clip-path="url(#clipPath2)"/>
      <path d="M123.75 474.9609 L128.75 462.9609 L123.75 465.9609 L118.75 462.9609 Z" clip-path="url(#clipPath2)" stroke="none"/>
      <path fill="none" d="M123.75 523 L123.75 538 L201.6115 538 L201.6115 544.9707" clip-path="url(#clipPath2)"/>
      <path d="M201.6115 552.9707 L206.6115 540.9707 L201.6115 543.9707 L196.6115 540.9707 Z" clip-path="url(#clipPath2)" stroke="none"/>
      <path fill="none" d="M201.6115 601 L201.6115 616 L194.1115 616 L194.1115 631" clip-path="url(#clipPath2)"/>
      <path fill="none" d="M201.6115 653.5312 L201.6115 682.9634" clip-path="url(#clipPath2)"/>
      <path d="M201.6115 690.9634 L206.6115 678.9634 L201.6115 681.9634 L196.6115 678.9634 Z" clip-path="url(#clipPath2)" stroke="none"/>
      <path fill="none" d="M264.1115 690.9561 L264.1115 609" clip-path="url(#clipPath2)"/>
      <path d="M264.1115 601 L259.1115 613 L264.1115 610 L269.1115 613 Z" clip-path="url(#clipPath2)" stroke="none"/>
      <path fill="none" d="M186.6115 653.5312 L186.6115 676 L108.75 676 L108.75 682.9707" clip-path="url(#clipPath2)"/>
      <path d="M108.75 690.9707 L113.75 678.9707 L108.75 681.9707 L103.75 678.9707 Z" clip-path="url(#clipPath2)" stroke="none"/>
      <path fill="none" d="M46.25 690.9617 L46.25 63 L263.75 63 L263.75 56" clip-path="url(#clipPath2)"/>
      <path d="M263.75 48 L258.75 60 L263.75 57 L268.75 60 Z" clip-path="url(#clipPath2)" stroke="none"/>
      <path fill="none" d="M433.75 387 L433.75 398.9609" clip-path="url(#clipPath2)"/>
      <path d="M433.75 406.9609 L438.75 394.9609 L433.75 397.9609 L428.75 394.9609 Z" clip-path="url(#clipPath2)" stroke="none"/>
      <path fill="none" d="M433.75 455 L433.75 466.9609" clip-path="url(#clipPath2)"/>
      <path d="M433.75 474.9609 L438.75 462.9609 L433.75 465.9609 L428.75 462.9609 Z" clip-path="url(#clipPath2)" stroke="none"/>
      <path fill="none" d="M433.75 523 L433.75 538 L448.75 538 L448.75 544.9707" clip-path="url(#clipPath2)"/>
      <path d="M448.75 552.9707 L453.75 540.9707 L448.75 543.9707 L443.75 540.9707 Z" clip-path="url(#clipPath2)" stroke="none"/>
      <path fill="none" d="M155 216 L155 237.9707" clip-path="url(#clipPath2)"/>
      <path d="M155 245.9707 L160 233.9707 L155 236.9707 L150 233.9707 Z" clip-path="url(#clipPath2)" stroke="none"/>
      <path fill="none" d="M92.5 245.9707 L92.5 231 L77.5 231 L77.5 78 L288.75 78 L288.75 56" clip-path="url(#clipPath2)"/>
      <path d="M288.75 48 L283.75 60 L288.75 57 L293.75 60 Z" clip-path="url(#clipPath2)" stroke="none"/>
    </g>
  </g>
</svg>
