<?xml version="1.0" encoding="UTF-8" standalone="no"?>
<!DOCTYPE svg PUBLIC "-//W3C//DTD SVG 1.1//EN"
 "http://www.w3.org/Graphics/SVG/1.1/DTD/svg11.dtd">
<!-- Generated by graphviz version 2.26.3 (20100126.1600)
 -->
<!-- Title: MenuItem Pages: 1 -->
<svg width="270pt" height="150pt"
 viewBox="0.00 0.00 270.00 150.00" xmlns="http://www.w3.org/2000/svg" xmlns:xlink="http://www.w3.org/1999/xlink">
<g id="graph1" class="graph" transform="scale(1 1) rotate(0) translate(4 146)">
<title>MenuItem</title>
<polygon fill="white" stroke="white" points="-4,5 -4,-146 267,-146 267,5 -4,5"/>
<!-- Box_CelShadingEffect -->
<g id="node1" class="node"><title>Box_CelShadingEffect</title>
<polygon fill="#ffffff" stroke="black" points="-0.5,-1 -0.5,-85 262.5,-85 262.5,-1 -0.5,-1"/>
<text text-anchor="middle" x="131" y="-73.8" font-family="Arial" font-size="8.00">CelShadingEffect</text>
<polyline fill="none" stroke="black" points="-0.5,-67 262.5,-67 "/>
<text text-anchor="middle" x="131" y="-55.8" font-family="Arial" font-size="8.00"> </text>
<polyline fill="none" stroke="black" points="-0.5,-49 262.5,-49 "/>
<text text-anchor="start" x="7.5" y="-37.8" font-family="Arial" font-size="8.00"># DrawRenderTarget (GameTime GameTime) : void</text>
<text text-anchor="start" x="7.5" y="-27.8" font-family="Arial" font-size="8.00">+ DrawModel (GameModel GameModel, GameTime GameTime) : void</text>
<text text-anchor="start" x="7.5" y="-17.8" font-family="Arial" font-size="8.00">+ RemapModel (GameModel GameModel) : void</text>
<text text-anchor="start" x="7.5" y="-7.8" font-family="Arial" font-size="8.00">+ CelShadingEffect (GameScreen screen) : void</text>
</g>
<!-- Box_RenderEffect -->
<g id="node2" class="node"><title>Box_RenderEffect</title>
<polygon fill="#ffffff" stroke="black" points="98.5,-123 98.5,-141 163.5,-141 163.5,-123 98.5,-123"/>
<text text-anchor="middle" x="131" y="-129.8" font-family="Arial" font-size="8.00">RenderEffect</text>
</g>
<!-- Box_RenderEffect&#45;&gt;Box_CelShadingEffect -->
<g id="edge2" class="edge"><title>Box_RenderEffect&#45;&gt;Box_CelShadingEffect</title>
<path fill="none" stroke="midnightblue" d="M131,-112.617C131,-104.489 131,-94.6982 131,-85.0607"/>
<polygon fill="none" stroke="midnightblue" points="127.5,-112.811 131,-122.811 134.5,-112.811 127.5,-112.811"/>
</g>
</g>
</svg>
