<?xml version="1.0" encoding="UTF-8" standalone="no"?>
<!DOCTYPE svg PUBLIC "-//W3C//DTD SVG 1.1//EN"
 "http://www.w3.org/Graphics/SVG/1.1/DTD/svg11.dtd">
<!-- Generated by graphviz version 2.26.3 (20100126.1600)
 -->
<!-- Title: MenuItem Pages: 1 -->
<svg width="324pt" height="140pt"
 viewBox="0.00 0.00 324.00 140.00" xmlns="http://www.w3.org/2000/svg" xmlns:xlink="http://www.w3.org/1999/xlink">
<g id="graph1" class="graph" transform="scale(1 1) rotate(0) translate(4 136)">
<title>MenuItem</title>
<polygon fill="white" stroke="white" points="-4,5 -4,-136 321,-136 321,5 -4,5"/>
<!-- Box_CoreDrawableGameScreenComponent -->
<g id="node1" class="node"><title>Box_CoreDrawableGameScreenComponent</title>
<polygon fill="#ffffff" stroke="black" points="-0.5,-1 -0.5,-75 316.5,-75 316.5,-1 -0.5,-1"/>
<text text-anchor="middle" x="158" y="-63.8" font-family="Arial" font-size="8.00">Core.DrawableGameScreenComponent</text>
<polyline fill="none" stroke="black" points="-0.5,-57 316.5,-57 "/>
<text text-anchor="start" x="7.5" y="-45.8" font-family="Arial" font-size="8.00">+ Screen : GameScreen</text>
<text text-anchor="start" x="7.5" y="-35.8" font-family="Arial" font-size="8.00">+ Index : DisplayLayer</text>
<polyline fill="none" stroke="black" points="-0.5,-29 316.5,-29 "/>
<text text-anchor="start" x="7.5" y="-17.8" font-family="Arial" font-size="8.00">+ SubComponents (GameTime GameTime) : IEnumerable</text>
<text text-anchor="start" x="7.5" y="-7.8" font-family="Arial" font-size="8.00">+ DrawableGameStateComponent (GameScreen screen, DisplayLayer index) : void</text>
</g>
<!-- Box_XNADrawableGameComponent -->
<g id="node2" class="node"><title>Box_XNADrawableGameComponent</title>
<polygon fill="#ffffff" stroke="black" points="92,-113 92,-131 224,-131 224,-113 92,-113"/>
<text text-anchor="middle" x="158" y="-119.8" font-family="Arial" font-size="8.00">XNA.DrawableGameComponent</text>
</g>
<!-- Box_XNADrawableGameComponent&#45;&gt;Box_CoreDrawableGameScreenComponent -->
<g id="edge2" class="edge"><title>Box_XNADrawableGameComponent&#45;&gt;Box_CoreDrawableGameScreenComponent</title>
<path fill="none" stroke="midnightblue" d="M158,-102.442C158,-94.3016 158,-84.5681 158,-75.1627"/>
<polygon fill="none" stroke="midnightblue" points="154.5,-102.69 158,-112.69 161.5,-102.69 154.5,-102.69"/>
</g>
</g>
</svg>
