<?xml version="1.0" encoding="UTF-8" standalone="no"?>
<!DOCTYPE svg PUBLIC "-//W3C//DTD SVG 1.1//EN"
 "http://www.w3.org/Graphics/SVG/1.1/DTD/svg11.dtd">
<!-- Generated by graphviz version 2.26.3 (20100126.1600)
 -->
<!-- Title: MenuItem Pages: 1 -->
<svg width="212pt" height="250pt"
 viewBox="0.00 0.00 212.00 250.00" xmlns="http://www.w3.org/2000/svg" xmlns:xlink="http://www.w3.org/1999/xlink">
<g id="graph1" class="graph" transform="scale(1 1) rotate(0) translate(4 246)">
<title>MenuItem</title>
<polygon fill="white" stroke="white" points="-4,5 -4,-246 209,-246 209,5 -4,5"/>
<!-- Box_CoreCamera -->
<g id="node1" class="node"><title>Box_CoreCamera</title>
<polygon fill="#ffffff" stroke="black" points="-0.5,-1 -0.5,-185 204.5,-185 204.5,-1 -0.5,-1"/>
<text text-anchor="middle" x="102" y="-173.8" font-family="Arial" font-size="8.00">Core.Camera</text>
<polyline fill="none" stroke="black" points="-0.5,-167 204.5,-167 "/>
<text text-anchor="start" x="7.5" y="-155.8" font-family="Arial" font-size="8.00">+ Position : Vector3</text>
<text text-anchor="start" x="7.5" y="-145.8" font-family="Arial" font-size="8.00">+ Target : Vector3</text>
<text text-anchor="start" x="7.5" y="-135.8" font-family="Arial" font-size="8.00">+ FoV : float</text>
<text text-anchor="start" x="7.5" y="-125.8" font-family="Arial" font-size="8.00">+ ViewMatrix : Matrix</text>
<text text-anchor="start" x="7.5" y="-115.8" font-family="Arial" font-size="8.00">+ WorldMatrix : Matrix</text>
<text text-anchor="start" x="7.5" y="-105.8" font-family="Arial" font-size="8.00">+ ProjectionMatrix : Matrix</text>
<text text-anchor="start" x="7.5" y="-95.8" font-family="Arial" font-size="8.00">+ ArcballTarget : Vector3</text>
<text text-anchor="start" x="7.5" y="-85.8" font-family="Arial" font-size="8.00">+ ViewFrustum : BoundingFrustum</text>
<text text-anchor="start" x="7.5" y="-75.8" font-family="Arial" font-size="8.00">&#45; World : World</text>
<text text-anchor="start" x="7.5" y="-65.8" font-family="Arial" font-size="8.00">+ Rotation : Angles3</text>
<polyline fill="none" stroke="black" points="-0.5,-59 204.5,-59 "/>
<text text-anchor="start" x="7.5" y="-47.8" font-family="Arial" font-size="8.00">+ TargetDirection () : Vector3</text>
<text text-anchor="start" x="7.5" y="-37.8" font-family="Arial" font-size="8.00">+ TargetDistance () : float</text>
<text text-anchor="start" x="7.5" y="-27.8" font-family="Arial" font-size="8.00">+ Camera (GameScreen screen, World world) : void</text>
<text text-anchor="start" x="7.5" y="-17.8" font-family="Arial" font-size="8.00">+ Update (GameTime GameTime) : void</text>
<text text-anchor="start" x="7.5" y="-7.8" font-family="Arial" font-size="8.00">+ GetMouseRay (Vector2 mousePosition) : Ray</text>
</g>
<!-- Box_GameScreenComponent -->
<g id="node2" class="node"><title>Box_GameScreenComponent</title>
<polygon fill="#ffffff" stroke="black" points="50,-223 50,-241 154,-241 154,-223 50,-223"/>
<text text-anchor="middle" x="102" y="-229.8" font-family="Arial" font-size="8.00">GameScreenComponent</text>
</g>
<!-- Box_GameScreenComponent&#45;&gt;Box_CoreCamera -->
<g id="edge2" class="edge"><title>Box_GameScreenComponent&#45;&gt;Box_CoreCamera</title>
<path fill="none" stroke="midnightblue" d="M102,-212.873C102,-205.061 102,-195.414 102,-185.014"/>
<polygon fill="none" stroke="midnightblue" points="98.5001,-212.88 102,-222.88 105.5,-212.88 98.5001,-212.88"/>
</g>
</g>
</svg>
