<?xml version="1.0" encoding="UTF-8" standalone="no"?>
<!DOCTYPE svg PUBLIC "-//W3C//DTD SVG 1.1//EN"
 "http://www.w3.org/Graphics/SVG/1.1/DTD/svg11.dtd">
<!-- Generated by graphviz version 2.26.3 (20100126.1600)
 -->
<!-- Title: MenuItem Pages: 1 -->
<svg width="346pt" height="140pt"
 viewBox="0.00 0.00 346.00 140.00" xmlns="http://www.w3.org/2000/svg" xmlns:xlink="http://www.w3.org/1999/xlink">
<g id="graph1" class="graph" transform="scale(1 1) rotate(0) translate(4 136)">
<title>MenuItem</title>
<polygon fill="white" stroke="white" points="-4,5 -4,-136 343,-136 343,5 -4,5"/>
<!-- Box_CoreDistinctOptionInfo -->
<g id="node1" class="node"><title>Box_CoreDistinctOptionInfo</title>
<polygon fill="#ffffff" stroke="black" points="-0.5,-1 -0.5,-75 338.5,-75 338.5,-1 -0.5,-1"/>
<text text-anchor="middle" x="169" y="-63.8" font-family="Arial" font-size="8.00">Core.DistinctOptionInfo</text>
<polyline fill="none" stroke="black" points="-0.5,-57 338.5,-57 "/>
<text text-anchor="start" x="7.5" y="-45.8" font-family="Arial" font-size="8.00">+ ValidValues : HashSet&lt;string&gt;</text>
<text text-anchor="start" x="7.5" y="-35.8" font-family="Arial" font-size="8.00">+ Value : String</text>
<polyline fill="none" stroke="black" points="-0.5,-29 338.5,-29 "/>
<text text-anchor="start" x="7.5" y="-17.8" font-family="Arial" font-size="8.00">+ DistinctOptionInfo (String section, String name, String defaultValue, IEnumerable&lt;string&gt;</text>
<text text-anchor="start" x="7.5" y="-7.8" font-family="Arial" font-size="8.00">validValues, ConfigFile configFile) : void</text>
</g>
<!-- Box_OptionInfo -->
<g id="node2" class="node"><title>Box_OptionInfo</title>
<polygon fill="#ffffff" stroke="black" points="142.5,-113 142.5,-131 195.5,-131 195.5,-113 142.5,-113"/>
<text text-anchor="middle" x="169" y="-119.8" font-family="Arial" font-size="8.00">OptionInfo</text>
</g>
<!-- Box_OptionInfo&#45;&gt;Box_CoreDistinctOptionInfo -->
<g id="edge2" class="edge"><title>Box_OptionInfo&#45;&gt;Box_CoreDistinctOptionInfo</title>
<path fill="none" stroke="midnightblue" d="M169,-102.442C169,-94.3016 169,-84.5681 169,-75.1627"/>
<polygon fill="none" stroke="midnightblue" points="165.5,-102.69 169,-112.69 172.5,-102.69 165.5,-102.69"/>
</g>
</g>
</svg>
