<?xml version="1.0" encoding="UTF-8" standalone="no"?>
<!DOCTYPE svg PUBLIC "-//W3C//DTD SVG 1.1//EN"
 "http://www.w3.org/Graphics/SVG/1.1/DTD/svg11.dtd">
<!-- Generated by graphviz version 2.26.3 (20100126.1600)
 -->
<!-- Title: MenuItem Pages: 1 -->
<svg width="164pt" height="180pt"
 viewBox="0.00 0.00 164.00 180.00" xmlns="http://www.w3.org/2000/svg" xmlns:xlink="http://www.w3.org/1999/xlink">
<g id="graph1" class="graph" transform="scale(1 1) rotate(0) translate(4 176)">
<title>MenuItem</title>
<polygon fill="white" stroke="white" points="-4,5 -4,-176 161,-176 161,5 -4,5"/>
<!-- Box_CoreWorld -->
<g id="node1" class="node"><title>Box_CoreWorld</title>
<polygon fill="#ffffff" stroke="black" points="0,-1 0,-115 156,-115 156,-1 0,-1"/>
<text text-anchor="middle" x="78" y="-103.8" font-family="Arial" font-size="8.00">Core.World</text>
<polyline fill="none" stroke="black" points="0,-97 156,-97 "/>
<text text-anchor="start" x="8" y="-85.8" font-family="Arial" font-size="8.00">+ Camera : Camera</text>
<text text-anchor="start" x="8" y="-75.8" font-family="Arial" font-size="8.00">+ Objects : List&lt;IGameObject&gt;</text>
<text text-anchor="start" x="8" y="-65.8" font-family="Arial" font-size="8.00">+ SelectedObject : IGameObject</text>
<text text-anchor="start" x="8" y="-55.8" font-family="Arial" font-size="8.00">+ CurrentEffect : IRenderEffect</text>
<polyline fill="none" stroke="black" points="0,-49 156,-49 "/>
<text text-anchor="start" x="8" y="-37.8" font-family="Arial" font-size="8.00">+ Update (GameTime GameTime) : void</text>
<text text-anchor="start" x="8" y="-27.8" font-family="Arial" font-size="8.00">+ Draw (GameTime GameTime) : void</text>
<text text-anchor="start" x="8" y="-17.8" font-family="Arial" font-size="8.00">+ World (GameScreen screen) : void</text>
<text text-anchor="start" x="8" y="-7.8" font-family="Arial" font-size="8.00">+ GetEnumerator () : IEnumerator</text>
</g>
<!-- Box_DrawableGameScreenComponent -->
<g id="node2" class="node"><title>Box_DrawableGameScreenComponent</title>
<polygon fill="#ffffff" stroke="black" points="8,-153 8,-171 148,-171 148,-153 8,-153"/>
<text text-anchor="middle" x="78" y="-159.8" font-family="Arial" font-size="8.00">DrawableGameScreenComponent</text>
</g>
<!-- Box_DrawableGameScreenComponent&#45;&gt;Box_CoreWorld -->
<g id="edge2" class="edge"><title>Box_DrawableGameScreenComponent&#45;&gt;Box_CoreWorld</title>
<path fill="none" stroke="midnightblue" d="M78,-142.516C78,-134.577 78,-124.949 78,-115.075"/>
<polygon fill="none" stroke="midnightblue" points="74.5001,-142.771 78,-152.771 81.5001,-142.771 74.5001,-142.771"/>
</g>
</g>
</svg>
