<?xml version="1.0" encoding="UTF-8" standalone="no"?>
<!DOCTYPE svg PUBLIC "-//W3C//DTD SVG 1.1//EN"
 "http://www.w3.org/Graphics/SVG/1.1/DTD/svg11.dtd">
<!-- Generated by graphviz version 2.26.3 (20100126.1600)
 -->
<!-- Title: MenuItem Pages: 1 -->
<svg width="178pt" height="190pt"
 viewBox="0.00 0.00 178.00 190.00" xmlns="http://www.w3.org/2000/svg" xmlns:xlink="http://www.w3.org/1999/xlink">
<g id="graph1" class="graph" transform="scale(1 1) rotate(0) translate(4 186)">
<title>MenuItem</title>
<polygon fill="white" stroke="white" points="-4,5 -4,-186 175,-186 175,5 -4,5"/>
<!-- Box_CoreInput -->
<g id="node1" class="node"><title>Box_CoreInput</title>
<polygon fill="#ffffff" stroke="black" points="0,-1 0,-125 170,-125 170,-1 0,-1"/>
<text text-anchor="middle" x="85" y="-113.8" font-family="Arial" font-size="8.00">Core.Input</text>
<polyline fill="none" stroke="black" points="0,-107 170,-107 "/>
<text text-anchor="start" x="8" y="-95.8" font-family="Arial" font-size="8.00">+ RightMouseButton : ClickState</text>
<text text-anchor="start" x="8" y="-85.8" font-family="Arial" font-size="8.00">+ LeftMouseButton : ClickState</text>
<text text-anchor="start" x="8" y="-75.8" font-family="Arial" font-size="8.00">+ CurrentMouseState : MouseState</text>
<text text-anchor="start" x="8" y="-65.8" font-family="Arial" font-size="8.00">+ CurrentKeyboardState : KeyboardState</text>
<text text-anchor="start" x="8" y="-55.8" font-family="Arial" font-size="8.00">+ PreviousMouseState : MouseState</text>
<text text-anchor="start" x="8" y="-45.8" font-family="Arial" font-size="8.00">+ PreviousKeyboardState : KeyboardState</text>
<text text-anchor="start" x="8" y="-35.8" font-family="Arial" font-size="8.00">+ GrabMouseMovement : Boolean</text>
<polyline fill="none" stroke="black" points="0,-29 170,-29 "/>
<text text-anchor="start" x="8" y="-17.8" font-family="Arial" font-size="8.00">+ Input (GameScreen screen) : void</text>
<text text-anchor="start" x="8" y="-7.8" font-family="Arial" font-size="8.00">+ Update (GameTime time) : void</text>
</g>
<!-- Box_GameScreenComponent -->
<g id="node2" class="node"><title>Box_GameScreenComponent</title>
<polygon fill="#ffffff" stroke="black" points="33,-163 33,-181 137,-181 137,-163 33,-163"/>
<text text-anchor="middle" x="85" y="-169.8" font-family="Arial" font-size="8.00">GameScreenComponent</text>
</g>
<!-- Box_GameScreenComponent&#45;&gt;Box_CoreInput -->
<g id="edge2" class="edge"><title>Box_GameScreenComponent&#45;&gt;Box_CoreInput</title>
<path fill="none" stroke="midnightblue" d="M85,-152.506C85,-144.605 85,-135.001 85,-125.055"/>
<polygon fill="none" stroke="midnightblue" points="81.5001,-152.707 85,-162.707 88.5001,-152.707 81.5001,-152.707"/>
</g>
</g>
</svg>
