<?xml version="1.0" encoding="UTF-8" standalone="no"?>
<!DOCTYPE svg PUBLIC "-//W3C//DTD SVG 1.1//EN"
 "http://www.w3.org/Graphics/SVG/1.1/DTD/svg11.dtd">
<!-- Generated by graphviz version 2.26.3 (20100126.1600)
 -->
<!-- Title: MenuItem Pages: 1 -->
<svg width="334pt" height="180pt"
 viewBox="0.00 0.00 334.00 180.00" xmlns="http://www.w3.org/2000/svg" xmlns:xlink="http://www.w3.org/1999/xlink">
<g id="graph1" class="graph" transform="scale(1 1) rotate(0) translate(4 176)">
<title>MenuItem</title>
<polygon fill="white" stroke="white" points="-4,5 -4,-176 331,-176 331,5 -4,5"/>
<!-- Box_Dialog -->
<g id="node1" class="node"><title>Box_Dialog</title>
<polygon fill="#ffffff" stroke="black" points="0,-1 0,-115 326,-115 326,-1 0,-1"/>
<text text-anchor="middle" x="163" y="-103.8" font-family="Arial" font-size="8.00">Dialog</text>
<polyline fill="none" stroke="black" points="0,-97 326,-97 "/>
<text text-anchor="start" x="8" y="-85.8" font-family="Arial" font-size="8.00">+ Title : String</text>
<text text-anchor="start" x="8" y="-75.8" font-family="Arial" font-size="8.00">+ Text : String</text>
<polyline fill="none" stroke="black" points="0,-69 326,-69 "/>
<text text-anchor="start" x="8" y="-57.8" font-family="Arial" font-size="8.00">+ OnKeyEvent () : void</text>
<text text-anchor="start" x="8" y="-47.8" font-family="Arial" font-size="8.00">+ Bounds () : Rectangle</text>
<text text-anchor="start" x="8" y="-37.8" font-family="Arial" font-size="8.00">+ OnLeftClick (Vector2 position, ClickState state, GameTime time) : void</text>
<text text-anchor="start" x="8" y="-27.8" font-family="Arial" font-size="8.00">+ OnRightClick (Vector2 position, ClickState state, GameTime time) : void</text>
<text text-anchor="start" x="8" y="-17.8" font-family="Arial" font-size="8.00">+ Dialog (GameScreen screen, DisplayLayer drawOrder, String title, String text) : void</text>
<text text-anchor="start" x="8" y="-7.8" font-family="Arial" font-size="8.00">+ OnScroll (int float) : void</text>
</g>
<!-- Box_Widget -->
<g id="node2" class="node"><title>Box_Widget</title>
<polygon fill="#ffffff" stroke="black" points="63.5,-153 63.5,-171 104.5,-171 104.5,-153 63.5,-153"/>
<text text-anchor="middle" x="84" y="-159.8" font-family="Arial" font-size="8.00">Widget</text>
</g>
<!-- Box_Widget&#45;&gt;Box_Dialog -->
<g id="edge2" class="edge"><title>Box_Widget&#45;&gt;Box_Dialog</title>
<path fill="none" stroke="midnightblue" d="M97.1518,-144.686C103.472,-136.366 111.447,-125.868 119.645,-115.075"/>
<polygon fill="none" stroke="midnightblue" points="94.2726,-142.69 91.0107,-152.771 99.8467,-146.925 94.2726,-142.69"/>
</g>
<!-- Box_IKeyEventListener -->
<g id="node3" class="node"><title>Box_IKeyEventListener</title>
<polygon fill="#ffffff" stroke="black" points="122,-153 122,-171 204,-171 204,-153 122,-153"/>
<text text-anchor="middle" x="163" y="-159.8" font-family="Arial" font-size="8.00">IKeyEventListener</text>
</g>
<!-- Box_IKeyEventListener&#45;&gt;Box_Dialog -->
<g id="edge4" class="edge"><title>Box_IKeyEventListener&#45;&gt;Box_Dialog</title>
<path fill="none" stroke="midnightblue" d="M163,-142.516C163,-134.577 163,-124.949 163,-115.075"/>
<polygon fill="none" stroke="midnightblue" points="159.5,-142.771 163,-152.771 166.5,-142.771 159.5,-142.771"/>
</g>
<!-- Box_IMouseEventListener -->
<g id="node4" class="node"><title>Box_IMouseEventListener</title>
<polygon fill="#ffffff" stroke="black" points="222,-153 222,-171 314,-171 314,-153 222,-153"/>
<text text-anchor="middle" x="268" y="-159.8" font-family="Arial" font-size="8.00">IMouseEventListener</text>
</g>
<!-- Box_IMouseEventListener&#45;&gt;Box_Dialog -->
<g id="edge6" class="edge"><title>Box_IMouseEventListener&#45;&gt;Box_Dialog</title>
<path fill="none" stroke="midnightblue" d="M251.317,-145.476C242.796,-137.036 231.868,-126.212 220.624,-115.075"/>
<polygon fill="none" stroke="midnightblue" points="249.114,-148.22 258.682,-152.771 254.04,-143.247 249.114,-148.22"/>
</g>
</g>
</svg>
