<?xml version="1.0" encoding="UTF-8" standalone="no"?>
<!DOCTYPE svg PUBLIC "-//W3C//DTD SVG 1.1//EN"
 "http://www.w3.org/Graphics/SVG/1.1/DTD/svg11.dtd">
<!-- Generated by graphviz version 2.26.3 (20100126.1600)
 -->
<!-- Title: MenuItem Pages: 1 -->
<svg width="332pt" height="140pt"
 viewBox="0.00 0.00 332.00 140.00" xmlns="http://www.w3.org/2000/svg" xmlns:xlink="http://www.w3.org/1999/xlink">
<g id="graph1" class="graph" transform="scale(1 1) rotate(0) translate(4 136)">
<title>MenuItem</title>
<polygon fill="white" stroke="white" points="-4,5 -4,-136 329,-136 329,5 -4,5"/>
<!-- Box_DrawableGameScreenComponent -->
<g id="node1" class="node"><title>Box_DrawableGameScreenComponent</title>
<polygon fill="#ffffff" stroke="black" points="-0.5,-1 -0.5,-75 324.5,-75 324.5,-1 -0.5,-1"/>
<text text-anchor="middle" x="162" y="-63.8" font-family="Arial" font-size="8.00">DrawableGameScreenComponent</text>
<polyline fill="none" stroke="black" points="-0.5,-57 324.5,-57 "/>
<text text-anchor="start" x="7.5" y="-45.8" font-family="Arial" font-size="8.00">+ Screen : GameScreen</text>
<text text-anchor="start" x="7.5" y="-35.8" font-family="Arial" font-size="8.00">+ Index : DisplayLayer</text>
<polyline fill="none" stroke="black" points="-0.5,-29 324.5,-29 "/>
<text text-anchor="start" x="7.5" y="-17.8" font-family="Arial" font-size="8.00">+ SubComponents (GameTime GameTime) : IEnumerable</text>
<text text-anchor="start" x="7.5" y="-7.8" font-family="Arial" font-size="8.00">+ DrawableGameScreenComponent (GameScreen screen, DisplayLayer index) : void</text>
</g>
<!-- Box_DrawableGameComponent -->
<g id="node2" class="node"><title>Box_DrawableGameComponent</title>
<polygon fill="#ffffff" stroke="black" points="42.5,-113 42.5,-131 155.5,-131 155.5,-113 42.5,-113"/>
<text text-anchor="middle" x="99" y="-119.8" font-family="Arial" font-size="8.00">DrawableGameComponent</text>
</g>
<!-- Box_DrawableGameComponent&#45;&gt;Box_DrawableGameScreenComponent -->
<g id="edge2" class="edge"><title>Box_DrawableGameComponent&#45;&gt;Box_DrawableGameScreenComponent</title>
<path fill="none" stroke="midnightblue" d="M112.015,-104.646C118.429,-96.0944 126.425,-85.433 134.128,-75.1627"/>
<polygon fill="none" stroke="midnightblue" points="109.183,-102.59 105.983,-112.69 114.783,-106.79 109.183,-102.59"/>
</g>
<!-- Box_IGameScreenComponent -->
<g id="node3" class="node"><title>Box_IGameScreenComponent</title>
<polygon fill="#ffffff" stroke="black" points="173,-113 173,-131 279,-131 279,-113 173,-113"/>
<text text-anchor="middle" x="226" y="-119.8" font-family="Arial" font-size="8.00">IGameScreenComponent</text>
</g>
<!-- Box_IGameScreenComponent&#45;&gt;Box_DrawableGameScreenComponent -->
<g id="edge4" class="edge"><title>Box_IGameScreenComponent&#45;&gt;Box_DrawableGameScreenComponent</title>
<path fill="none" stroke="midnightblue" d="M212.778,-104.646C206.262,-96.0944 198.139,-85.433 190.314,-75.1627"/>
<polygon fill="none" stroke="midnightblue" points="210.062,-106.856 218.906,-112.69 215.63,-102.614 210.062,-106.856"/>
</g>
</g>
</svg>
