<?xml version="1.0" encoding="UTF-8" standalone="no"?>
<!DOCTYPE svg PUBLIC "-//W3C//DTD SVG 1.1//EN"
 "http://www.w3.org/Graphics/SVG/1.1/DTD/svg11.dtd">
<!-- Generated by graphviz version 2.26.3 (20100126.1600)
 -->
<!-- Title: MenuItem Pages: 1 -->
<svg width="318pt" height="190pt"
 viewBox="0.00 0.00 318.00 190.00" xmlns="http://www.w3.org/2000/svg" xmlns:xlink="http://www.w3.org/1999/xlink">
<g id="graph1" class="graph" transform="scale(1 1) rotate(0) translate(4 186)">
<title>MenuItem</title>
<polygon fill="white" stroke="white" points="-4,5 -4,-186 315,-186 315,5 -4,5"/>
<!-- Box_EdgeMovement -->
<g id="node1" class="node"><title>Box_EdgeMovement</title>
<polygon fill="#ffffff" stroke="black" points="0,-1 0,-125 310,-125 310,-1 0,-1"/>
<text text-anchor="middle" x="155" y="-113.8" font-family="Arial" font-size="8.00">EdgeMovement</text>
<polyline fill="none" stroke="black" points="0,-107 310,-107 "/>
<text text-anchor="start" x="8" y="-95.8" font-family="Arial" font-size="8.00">+ Info : GameObjectInfo</text>
<text text-anchor="start" x="8" y="-85.8" font-family="Arial" font-size="8.00">+ Knot : Knot</text>
<text text-anchor="start" x="8" y="-75.8" font-family="Arial" font-size="8.00">+ World : World</text>
<polyline fill="none" stroke="black" points="0,-69 310,-69 "/>
<text text-anchor="start" x="8" y="-57.8" font-family="Arial" font-size="8.00">+ Center () : Vector3</text>
<text text-anchor="start" x="8" y="-47.8" font-family="Arial" font-size="8.00">+ Intersects (Ray Ray) : GameObjectDistance</text>
<text text-anchor="start" x="8" y="-37.8" font-family="Arial" font-size="8.00">+ Update (GameTime GameTime) : void</text>
<text text-anchor="start" x="8" y="-27.8" font-family="Arial" font-size="8.00">+ EdgeMovement (GameScreen screen, World world, GameObjectInfo info) : void</text>
<text text-anchor="start" x="8" y="-17.8" font-family="Arial" font-size="8.00">+ GetEnumerator () : IEnumerator</text>
<text text-anchor="start" x="8" y="-7.8" font-family="Arial" font-size="8.00">+ Draw (GameTime GameTime) : void</text>
</g>
<!-- Box_IGameObject -->
<g id="node2" class="node"><title>Box_IGameObject</title>
<polygon fill="#ffffff" stroke="black" points="71,-163 71,-181 133,-181 133,-163 71,-163"/>
<text text-anchor="middle" x="102" y="-169.8" font-family="Arial" font-size="8.00">IGameObject</text>
</g>
<!-- Box_IGameObject&#45;&gt;Box_EdgeMovement -->
<g id="edge2" class="edge"><title>Box_IGameObject&#45;&gt;Box_EdgeMovement</title>
<path fill="none" stroke="midnightblue" d="M110.948,-153.598C114.887,-145.497 119.765,-135.464 124.826,-125.055"/>
<polygon fill="none" stroke="midnightblue" points="107.744,-152.183 106.519,-162.707 114.039,-155.244 107.744,-152.183"/>
</g>
<!-- Box_IEnumerable -->
<g id="node3" class="node"><title>Box_IEnumerable</title>
<polygon fill="#ffffff" stroke="black" points="150.5,-163 150.5,-181 265.5,-181 265.5,-163 150.5,-163"/>
<text text-anchor="middle" x="208" y="-169.8" font-family="Arial" font-size="8.00">IEnumerable&lt;IGameObject&gt;</text>
</g>
<!-- Box_IEnumerable&#45;&gt;Box_EdgeMovement -->
<g id="edge4" class="edge"><title>Box_IEnumerable&#45;&gt;Box_EdgeMovement</title>
<path fill="none" stroke="midnightblue" d="M199.052,-153.598C195.113,-145.497 190.235,-135.464 185.174,-125.055"/>
<polygon fill="none" stroke="midnightblue" points="195.961,-155.244 203.481,-162.707 202.256,-152.183 195.961,-155.244"/>
</g>
</g>
</svg>
