<?xml version="1.0" encoding="UTF-8" standalone="no"?>
<!DOCTYPE svg PUBLIC "-//W3C//DTD SVG 1.1//EN"
 "http://www.w3.org/Graphics/SVG/1.1/DTD/svg11.dtd">
<!-- Generated by graphviz version 2.26.3 (20100126.1600)
 -->
<!-- Title: MenuItem Pages: 1 -->
<svg width="242pt" height="130pt"
 viewBox="0.00 0.00 242.00 130.00" xmlns="http://www.w3.org/2000/svg" xmlns:xlink="http://www.w3.org/1999/xlink">
<g id="graph1" class="graph" transform="scale(1 1) rotate(0) translate(4 126)">
<title>MenuItem</title>
<polygon fill="white" stroke="white" points="-4,5 -4,-126 239,-126 239,5 -4,5"/>
<!-- Box_GameObjectsPipeModel -->
<g id="node1" class="node"><title>Box_GameObjectsPipeModel</title>
<polygon fill="#ffffff" stroke="black" points="0,-1 0,-65 234,-65 234,-1 0,-1"/>
<text text-anchor="middle" x="117" y="-53.8" font-family="Arial" font-size="8.00">GameObjects.PipeModel</text>
<polyline fill="none" stroke="black" points="0,-47 234,-47 "/>
<text text-anchor="start" x="8" y="-35.8" font-family="Arial" font-size="8.00">+ Info : PipeModelInfo</text>
<polyline fill="none" stroke="black" points="0,-29 234,-29 "/>
<text text-anchor="start" x="8" y="-17.8" font-family="Arial" font-size="8.00">+ Intersects (Ray ray) : GameObjectDistance</text>
<text text-anchor="start" x="8" y="-7.8" font-family="Arial" font-size="8.00">+ PipeModel (GameScreen screen, PipeModelInfo info) : void</text>
</g>
<!-- Box_GameModel -->
<g id="node2" class="node"><title>Box_GameModel</title>
<polygon fill="#ffffff" stroke="black" points="87.5,-103 87.5,-121 146.5,-121 146.5,-103 87.5,-103"/>
<text text-anchor="middle" x="117" y="-109.8" font-family="Arial" font-size="8.00">GameModel</text>
</g>
<!-- Box_GameModel&#45;&gt;Box_GameObjectsPipeModel -->
<g id="edge2" class="edge"><title>Box_GameModel&#45;&gt;Box_GameObjectsPipeModel</title>
<path fill="none" stroke="midnightblue" d="M117,-92.8318C117,-84.5161 117,-74.5476 117,-65.1537"/>
<polygon fill="none" stroke="midnightblue" points="113.5,-92.9377 117,-102.938 120.5,-92.9377 113.5,-92.9377"/>
</g>
</g>
</svg>
