<?xml version="1.0" encoding="UTF-8" standalone="no"?>
<!DOCTYPE svg PUBLIC "-//W3C//DTD SVG 1.1//EN"
 "http://www.w3.org/Graphics/SVG/1.1/DTD/svg11.dtd">
<!-- Generated by graphviz version 2.26.3 (20100126.1600)
 -->
<!-- Title: MenuItem Pages: 1 -->
<svg width="254pt" height="230pt"
 viewBox="0.00 0.00 254.00 230.00" xmlns="http://www.w3.org/2000/svg" xmlns:xlink="http://www.w3.org/1999/xlink">
<g id="graph1" class="graph" transform="scale(1 1) rotate(0) translate(4 226)">
<title>MenuItem</title>
<polygon fill="white" stroke="white" points="-4,5 -4,-226 251,-226 251,5 -4,5"/>
<!-- Box_GameModel -->
<g id="node1" class="node"><title>Box_GameModel</title>
<polygon fill="#ffffff" stroke="black" points="0,-1 0,-165 246,-165 246,-1 0,-1"/>
<text text-anchor="middle" x="123" y="-153.8" font-family="Arial" font-size="8.00">GameModel</text>
<polyline fill="none" stroke="black" points="0,-147 246,-147 "/>
<text text-anchor="start" x="8" y="-135.8" font-family="Arial" font-size="8.00">+ Alpha : float</text>
<text text-anchor="start" x="8" y="-125.8" font-family="Arial" font-size="8.00">+ BaseColor : Color</text>
<text text-anchor="start" x="8" y="-115.8" font-family="Arial" font-size="8.00">+ HightlightColor : Color</text>
<text text-anchor="start" x="8" y="-105.8" font-family="Arial" font-size="8.00">+ HighlightIntensity : float</text>
<text text-anchor="start" x="8" y="-95.8" font-family="Arial" font-size="8.00">+ Info : GameModelInfo</text>
<text text-anchor="start" x="8" y="-85.8" font-family="Arial" font-size="8.00">+ Model : XNA.Model</text>
<text text-anchor="start" x="8" y="-75.8" font-family="Arial" font-size="8.00">+ World : World</text>
<text text-anchor="start" x="8" y="-65.8" font-family="Arial" font-size="8.00">+ WorldMatrix : Matrix</text>
<polyline fill="none" stroke="black" points="0,-59 246,-59 "/>
<text text-anchor="start" x="8" y="-47.8" font-family="Arial" font-size="8.00">+ Center () : Vector3</text>
<text text-anchor="start" x="8" y="-37.8" font-family="Arial" font-size="8.00">+ Update (GameTime GameTime) : void</text>
<text text-anchor="start" x="8" y="-27.8" font-family="Arial" font-size="8.00">+ Draw (GameTime GameTime) : void</text>
<text text-anchor="start" x="8" y="-17.8" font-family="Arial" font-size="8.00">+ Intersects (Ray Ray) : GameObjectDistance</text>
<text text-anchor="start" x="8" y="-7.8" font-family="Arial" font-size="8.00">+ GameModel (GameScreen screen, GameModelInfo info) : void</text>
</g>
<!-- Box_IGameObject -->
<g id="node2" class="node"><title>Box_IGameObject</title>
<polygon fill="#ffffff" stroke="black" points="92,-203 92,-221 154,-221 154,-203 92,-203"/>
<text text-anchor="middle" x="123" y="-209.8" font-family="Arial" font-size="8.00">IGameObject</text>
</g>
<!-- Box_IGameObject&#45;&gt;Box_GameModel -->
<g id="edge2" class="edge"><title>Box_IGameObject&#45;&gt;Box_GameModel</title>
<path fill="none" stroke="midnightblue" d="M123,-192.452C123,-184.726 123,-175.288 123,-165.226"/>
<polygon fill="none" stroke="midnightblue" points="119.5,-192.723 123,-202.723 126.5,-192.723 119.5,-192.723"/>
</g>
</g>
</svg>
