<?xml version="1.0" encoding="UTF-8" standalone="no"?>
<!DOCTYPE svg PUBLIC "-//W3C//DTD SVG 1.1//EN"
 "http://www.w3.org/Graphics/SVG/1.1/DTD/svg11.dtd">
<!-- Generated by graphviz version 2.26.3 (20100126.1600)
 -->
<!-- Title: MenuItem Pages: 1 -->
<svg width="246pt" height="140pt"
 viewBox="0.00 0.00 246.00 140.00" xmlns="http://www.w3.org/2000/svg" xmlns:xlink="http://www.w3.org/1999/xlink">
<g id="graph1" class="graph" transform="scale(1 1) rotate(0) translate(4 136)">
<title>MenuItem</title>
<polygon fill="white" stroke="white" points="-4,5 -4,-136 243,-136 243,5 -4,5"/>
<!-- Box_GameObjectsKnotInputHandler -->
<g id="node1" class="node"><title>Box_GameObjectsKnotInputHandler</title>
<polygon fill="#ffffff" stroke="black" points="-0.5,-1 -0.5,-75 238.5,-75 238.5,-1 -0.5,-1"/>
<text text-anchor="middle" x="119" y="-63.8" font-family="Arial" font-size="8.00">GameObjects.KnotInputHandler</text>
<polyline fill="none" stroke="black" points="-0.5,-57 238.5,-57 "/>
<text text-anchor="start" x="7.5" y="-45.8" font-family="Arial" font-size="8.00">&#45; world : World</text>
<text text-anchor="start" x="7.5" y="-35.8" font-family="Arial" font-size="8.00">&#45; screen : GameScreen</text>
<polyline fill="none" stroke="black" points="-0.5,-29 238.5,-29 "/>
<text text-anchor="start" x="7.5" y="-17.8" font-family="Arial" font-size="8.00">+ Update (GameTime time) : void</text>
<text text-anchor="start" x="7.5" y="-7.8" font-family="Arial" font-size="8.00">+ KnotInputHandler (GameScreen screen, World world) : void</text>
</g>
<!-- Box_GameScreenComponent -->
<g id="node2" class="node"><title>Box_GameScreenComponent</title>
<polygon fill="#ffffff" stroke="black" points="67,-113 67,-131 171,-131 171,-113 67,-113"/>
<text text-anchor="middle" x="119" y="-119.8" font-family="Arial" font-size="8.00">GameScreenComponent</text>
</g>
<!-- Box_GameScreenComponent&#45;&gt;Box_GameObjectsKnotInputHandler -->
<g id="edge2" class="edge"><title>Box_GameScreenComponent&#45;&gt;Box_GameObjectsKnotInputHandler</title>
<path fill="none" stroke="midnightblue" d="M119,-102.442C119,-94.3016 119,-84.5681 119,-75.1627"/>
<polygon fill="none" stroke="midnightblue" points="115.5,-102.69 119,-112.69 122.5,-102.69 115.5,-102.69"/>
</g>
</g>
</svg>
