<?xml version="1.0" encoding="UTF-8" standalone="no"?>
<!DOCTYPE svg PUBLIC "-//W3C//DTD SVG 1.1//EN"
 "http://www.w3.org/Graphics/SVG/1.1/DTD/svg11.dtd">
<!-- Generated by graphviz version 2.26.3 (20100126.1600)
 -->
<!-- Title: MenuItem Pages: 1 -->
<svg width="148pt" height="120pt"
 viewBox="0.00 0.00 148.00 120.00" xmlns="http://www.w3.org/2000/svg" xmlns:xlink="http://www.w3.org/1999/xlink">
<g id="graph1" class="graph" transform="scale(1 1) rotate(0) translate(4 116)">
<title>MenuItem</title>
<polygon fill="white" stroke="white" points="-4,5 -4,-116 145,-116 145,5 -4,5"/>
<!-- Box_GameObjectsModelMouseHandler -->
<g id="node1" class="node"><title>Box_GameObjectsModelMouseHandler</title>
<polygon fill="#ffffff" stroke="black" points="0,-1 0,-55 140,-55 140,-1 0,-1"/>
<text text-anchor="middle" x="70" y="-43.8" font-family="Arial" font-size="8.00">GameObjects.ModelMouseHandler</text>
<polyline fill="none" stroke="black" points="0,-37 140,-37 "/>
<text text-anchor="middle" x="70" y="-25.8" font-family="Arial" font-size="8.00"> </text>
<polyline fill="none" stroke="black" points="0,-19 140,-19 "/>
<text text-anchor="start" x="8" y="-7.8" font-family="Arial" font-size="8.00">+ Update (GameTime time) : void</text>
</g>
<!-- Box_GameScreenComponent -->
<g id="node2" class="node"><title>Box_GameScreenComponent</title>
<polygon fill="#ffffff" stroke="black" points="18,-93 18,-111 122,-111 122,-93 18,-93"/>
<text text-anchor="middle" x="70" y="-99.8" font-family="Arial" font-size="8.00">GameScreenComponent</text>
</g>
<!-- Box_GameScreenComponent&#45;&gt;Box_GameObjectsModelMouseHandler -->
<g id="edge2" class="edge"><title>Box_GameScreenComponent&#45;&gt;Box_GameObjectsModelMouseHandler</title>
<path fill="none" stroke="midnightblue" d="M70,-82.6404C70,-74.1998 70,-64.1602 70,-55.0036"/>
<polygon fill="none" stroke="midnightblue" points="66.5001,-82.9261 70,-92.9261 73.5001,-82.9262 66.5001,-82.9261"/>
</g>
</g>
</svg>
