<?xml version="1.0" encoding="UTF-8" standalone="no"?>
<!DOCTYPE svg PUBLIC "-//W3C//DTD SVG 1.1//EN"
 "http://www.w3.org/Graphics/SVG/1.1/DTD/svg11.dtd">
<!-- Generated by graphviz version 2.26.3 (20100126.1600)
 -->
<!-- Title: MenuItem Pages: 1 -->
<svg width="412pt" height="140pt"
 viewBox="0.00 0.00 412.00 140.00" xmlns="http://www.w3.org/2000/svg" xmlns:xlink="http://www.w3.org/1999/xlink">
<g id="graph1" class="graph" transform="scale(1 1) rotate(0) translate(4 136)">
<title>MenuItem</title>
<polygon fill="white" stroke="white" points="-4,5 -4,-136 409,-136 409,5 -4,5"/>
<!-- Box_GameScreenComponent1 -->
<g id="node1" class="node"><title>Box_GameScreenComponent1</title>
<polygon fill="#ffffff" stroke="black" points="-0.5,-1 -0.5,-75 404.5,-75 404.5,-1 -0.5,-1"/>
<text text-anchor="middle" x="202" y="-63.8" font-family="Arial" font-size="8.00">GameScreenComponent1</text>
<polyline fill="none" stroke="black" points="-0.5,-57 404.5,-57 "/>
<text text-anchor="start" x="7.5" y="-45.8" font-family="Arial" font-size="8.00">+ Index : Knot3&#45;Entwurf</text>
<text text-anchor="start" x="7.5" y="-35.8" font-family="Arial" font-size="8.00">+ Screen : Knot3&#45;Entwurf</text>
<polyline fill="none" stroke="black" points="-0.5,-29 404.5,-29 "/>
<text text-anchor="start" x="7.5" y="-17.8" font-family="Arial" font-size="8.00">+ SubComponents (GameTime GameTime) : Knot3&#45;Entwurf</text>
<text text-anchor="start" x="7.5" y="-7.8" font-family="Arial" font-size="8.00">+ GameScreenComponent (Knot3&#45;Entwurf::GameScreen screen, Knot3&#45;Entwurf::DisplayLayer index) : void</text>
</g>
<!-- Box_IGameScreenComponent1 -->
<g id="node2" class="node"><title>Box_IGameScreenComponent1</title>
<polygon fill="#ffffff" stroke="black" points="147,-113 147,-131 257,-131 257,-113 147,-113"/>
<text text-anchor="middle" x="202" y="-119.8" font-family="Arial" font-size="8.00">IGameScreenComponent1</text>
</g>
<!-- Box_IGameScreenComponent1&#45;&gt;Box_GameScreenComponent1 -->
<g id="edge2" class="edge"><title>Box_IGameScreenComponent1&#45;&gt;Box_GameScreenComponent1</title>
<path fill="none" stroke="midnightblue" d="M202,-102.442C202,-94.3016 202,-84.5681 202,-75.1627"/>
<polygon fill="none" stroke="midnightblue" points="198.5,-102.69 202,-112.69 205.5,-102.69 198.5,-102.69"/>
</g>
</g>
</svg>
