<?xml version="1.0" encoding="UTF-8" standalone="no"?>
<!DOCTYPE svg PUBLIC "-//W3C//DTD SVG 1.1//EN"
 "http://www.w3.org/Graphics/SVG/1.1/DTD/svg11.dtd">
<!-- Generated by graphviz version 2.26.3 (20100126.1600)
 -->
<!-- Title: MenuItem Pages: 1 -->
<svg width="198pt" height="200pt"
 viewBox="0.00 0.00 198.00 200.00" xmlns="http://www.w3.org/2000/svg" xmlns:xlink="http://www.w3.org/1999/xlink">
<g id="graph1" class="graph" transform="scale(1 1) rotate(0) translate(4 196)">
<title>MenuItem</title>
<polygon fill="white" stroke="white" points="-4,5 -4,-196 195,-196 195,5 -4,5"/>
<!-- Box_InputManager -->
<g id="node1" class="node"><title>Box_InputManager</title>
<polygon fill="#ffffff" stroke="black" points="-0.5,-1 -0.5,-135 190.5,-135 190.5,-1 -0.5,-1"/>
<text text-anchor="middle" x="95" y="-123.8" font-family="Arial" font-size="8.00">InputManager</text>
<polyline fill="none" stroke="black" points="-0.5,-117 190.5,-117 "/>
<text text-anchor="start" x="7.5" y="-105.8" font-family="Arial" font-size="8.00">+ RightMouseButton : ClickState static</text>
<text text-anchor="start" x="7.5" y="-95.8" font-family="Arial" font-size="8.00">+ LeftMouseButton : ClickState static</text>
<text text-anchor="start" x="7.5" y="-85.8" font-family="Arial" font-size="8.00">+ CurrentMouseState : MouseState static</text>
<text text-anchor="start" x="7.5" y="-75.8" font-family="Arial" font-size="8.00">+ CurrentKeyboardState : KeyboardState static</text>
<text text-anchor="start" x="7.5" y="-65.8" font-family="Arial" font-size="8.00">+ PreviousMouseState : MouseState static</text>
<text text-anchor="start" x="7.5" y="-55.8" font-family="Arial" font-size="8.00">+ PreviousKeyboardState : KeyboardState static</text>
<text text-anchor="start" x="7.5" y="-45.8" font-family="Arial" font-size="8.00">+ GrabMouseMovement : Boolean</text>
<text text-anchor="start" x="7.5" y="-35.8" font-family="Arial" font-size="8.00">+ CurrentInputAction : InputAction</text>
<polyline fill="none" stroke="black" points="-0.5,-29 190.5,-29 "/>
<text text-anchor="start" x="7.5" y="-17.8" font-family="Arial" font-size="8.00">+ InputManager (GameScreen screen) : void</text>
<text text-anchor="start" x="7.5" y="-7.8" font-family="Arial" font-size="8.00">+ Update (GameTime time) : void</text>
</g>
<!-- Box_GameScreenComponent -->
<g id="node2" class="node"><title>Box_GameScreenComponent</title>
<polygon fill="#ffffff" stroke="black" points="43,-173 43,-191 147,-191 147,-173 43,-173"/>
<text text-anchor="middle" x="95" y="-179.8" font-family="Arial" font-size="8.00">GameScreenComponent</text>
</g>
<!-- Box_GameScreenComponent&#45;&gt;Box_InputManager -->
<g id="edge2" class="edge"><title>Box_GameScreenComponent&#45;&gt;Box_InputManager</title>
<path fill="none" stroke="midnightblue" d="M95,-162.57C95,-154.742 95,-145.21 95,-135.246"/>
<polygon fill="none" stroke="midnightblue" points="91.5001,-162.671 95,-172.671 98.5001,-162.671 91.5001,-162.671"/>
</g>
</g>
</svg>
