<?xml version="1.0" encoding="UTF-8" standalone="no"?>
<!DOCTYPE svg PUBLIC "-//W3C//DTD SVG 1.1//EN"
 "http://www.w3.org/Graphics/SVG/1.1/DTD/svg11.dtd">
<!-- Generated by graphviz version 2.26.3 (20100126.1600)
 -->
<!-- Title: MenuItem Pages: 1 -->
<svg width="178pt" height="200pt"
 viewBox="0.00 0.00 178.00 200.00" xmlns="http://www.w3.org/2000/svg" xmlns:xlink="http://www.w3.org/1999/xlink">
<g id="graph1" class="graph" transform="scale(1 1) rotate(0) translate(4 196)">
<title>MenuItem</title>
<polygon fill="white" stroke="white" points="-4,5 -4,-196 175,-196 175,5 -4,5"/>
<!-- Box_Input -->
<g id="node1" class="node"><title>Box_Input</title>
<polygon fill="#ffffff" stroke="black" points="0,-1 0,-135 170,-135 170,-1 0,-1"/>
<text text-anchor="middle" x="85" y="-123.8" font-family="Arial" font-size="8.00">Input</text>
<polyline fill="none" stroke="black" points="0,-117 170,-117 "/>
<text text-anchor="start" x="8" y="-105.8" font-family="Arial" font-size="8.00">+ RightMouseButton : ClickState</text>
<text text-anchor="start" x="8" y="-95.8" font-family="Arial" font-size="8.00">+ LeftMouseButton : ClickState</text>
<text text-anchor="start" x="8" y="-85.8" font-family="Arial" font-size="8.00">+ CurrentMouseState : MouseState</text>
<text text-anchor="start" x="8" y="-75.8" font-family="Arial" font-size="8.00">+ CurrentKeyboardState : KeyboardState</text>
<text text-anchor="start" x="8" y="-65.8" font-family="Arial" font-size="8.00">+ PreviousMouseState : MouseState</text>
<text text-anchor="start" x="8" y="-55.8" font-family="Arial" font-size="8.00">+ PreviousKeyboardState : KeyboardState</text>
<text text-anchor="start" x="8" y="-45.8" font-family="Arial" font-size="8.00">+ GrabMouseMovement : Boolean</text>
<text text-anchor="start" x="8" y="-35.8" font-family="Arial" font-size="8.00">+ CurrentInputAction : InputAction</text>
<polyline fill="none" stroke="black" points="0,-29 170,-29 "/>
<text text-anchor="start" x="8" y="-17.8" font-family="Arial" font-size="8.00">+ Input (GameScreen screen) : void</text>
<text text-anchor="start" x="8" y="-7.8" font-family="Arial" font-size="8.00">+ Update (GameTime time) : void</text>
</g>
<!-- Box_GameScreenComponent -->
<g id="node2" class="node"><title>Box_GameScreenComponent</title>
<polygon fill="#ffffff" stroke="black" points="33,-173 33,-191 137,-191 137,-173 33,-173"/>
<text text-anchor="middle" x="85" y="-179.8" font-family="Arial" font-size="8.00">GameScreenComponent</text>
</g>
<!-- Box_GameScreenComponent&#45;&gt;Box_Input -->
<g id="edge2" class="edge"><title>Box_GameScreenComponent&#45;&gt;Box_Input</title>
<path fill="none" stroke="midnightblue" d="M85,-162.57C85,-154.742 85,-145.21 85,-135.246"/>
<polygon fill="none" stroke="midnightblue" points="81.5001,-162.671 85,-172.671 88.5001,-162.671 81.5001,-162.671"/>
</g>
</g>
</svg>
