<?xml version="1.0" encoding="UTF-8" standalone="no"?>
<!DOCTYPE svg PUBLIC "-//W3C//DTD SVG 1.1//EN"
 "http://www.w3.org/Graphics/SVG/1.1/DTD/svg11.dtd">
<!-- Generated by graphviz version 2.26.3 (20100126.1600)
 -->
<!-- Title: MenuItem Pages: 1 -->
<svg width="396pt" height="120pt"
 viewBox="0.00 0.00 396.00 120.00" xmlns="http://www.w3.org/2000/svg" xmlns:xlink="http://www.w3.org/1999/xlink">
<g id="graph1" class="graph" transform="scale(1 1) rotate(0) translate(4 116)">
<title>MenuItem</title>
<polygon fill="white" stroke="white" points="-4,5 -4,-116 393,-116 393,5 -4,5"/>
<!-- Box_KnotSaveDialog -->
<g id="node1" class="node"><title>Box_KnotSaveDialog</title>
<polygon fill="#ffffff" stroke="black" points="0,-1 0,-55 388,-55 388,-1 0,-1"/>
<text text-anchor="middle" x="194" y="-43.8" font-family="Arial" font-size="8.00">KnotSaveDialog</text>
<polyline fill="none" stroke="black" points="0,-37 388,-37 "/>
<text text-anchor="start" x="8" y="-25.8" font-family="Arial" font-size="8.00">+ OnSave : Action</text>
<polyline fill="none" stroke="black" points="0,-19 388,-19 "/>
<text text-anchor="start" x="8" y="-7.8" font-family="Arial" font-size="8.00">+ SaveDialog (CreativeModeScreen screen, DisplayLayer drawOrder, Knot knot, Action onSave) : void</text>
</g>
<!-- Box_TextInputDialog -->
<g id="node2" class="node"><title>Box_TextInputDialog</title>
<polygon fill="#ffffff" stroke="black" points="158.5,-93 158.5,-111 229.5,-111 229.5,-93 158.5,-93"/>
<text text-anchor="middle" x="194" y="-99.8" font-family="Arial" font-size="8.00">TextInputDialog</text>
</g>
<!-- Box_TextInputDialog&#45;&gt;Box_KnotSaveDialog -->
<g id="edge2" class="edge"><title>Box_TextInputDialog&#45;&gt;Box_KnotSaveDialog</title>
<path fill="none" stroke="midnightblue" d="M194,-82.6404C194,-74.1998 194,-64.1602 194,-55.0036"/>
<polygon fill="none" stroke="midnightblue" points="190.5,-82.9261 194,-92.9261 197.5,-82.9262 190.5,-82.9261"/>
</g>
</g>
</svg>
