<?xml version="1.0" encoding="UTF-8" standalone="no"?>
<!DOCTYPE svg PUBLIC "-//W3C//DTD SVG 1.1//EN"
 "http://www.w3.org/Graphics/SVG/1.1/DTD/svg11.dtd">
<!-- Generated by graphviz version 2.26.3 (20100126.1600)
 -->
<!-- Title: MenuItem Pages: 1 -->
<svg width="266pt" height="310pt"
 viewBox="0.00 0.00 266.00 310.00" xmlns="http://www.w3.org/2000/svg" xmlns:xlink="http://www.w3.org/1999/xlink">
<g id="graph1" class="graph" transform="scale(1 1) rotate(0) translate(4 306)">
<title>MenuItem</title>
<polygon fill="white" stroke="white" points="-4,5 -4,-306 263,-306 263,5 -4,5"/>
<!-- Box_Knot -->
<g id="node1" class="node"><title>Box_Knot</title>
<polygon fill="#ffffff" stroke="black" points="-0.5,-1 -0.5,-245 238.5,-245 238.5,-1 -0.5,-1"/>
<text text-anchor="middle" x="119" y="-233.8" font-family="Arial" font-size="8.00">Knot</text>
<polyline fill="none" stroke="black" points="-0.5,-227 238.5,-227 "/>
<text text-anchor="start" x="7.5" y="-215.8" font-family="Arial" font-size="8.00">+ Name : String</text>
<text text-anchor="start" x="7.5" y="-205.8" font-family="Arial" font-size="8.00">&#45; edges : Circle</text>
<text text-anchor="start" x="7.5" y="-195.8" font-family="Arial" font-size="8.00">+ MetaData : KnotMetaData</text>
<text text-anchor="start" x="7.5" y="-185.8" font-family="Arial" font-size="8.00">+ EdgesChanged : Action</text>
<text text-anchor="start" x="7.5" y="-175.8" font-family="Arial" font-size="8.00">+ SelectedEdges : IEnumerable&lt;Edge&gt;</text>
<text text-anchor="start" x="7.5" y="-165.8" font-family="Arial" font-size="8.00">+ SelectionChanged : Action</text>
<polyline fill="none" stroke="black" points="-0.5,-159 238.5,-159 "/>
<text text-anchor="start" x="7.5" y="-147.8" font-family="Arial" font-size="8.00">+ Knot () : void</text>
<text text-anchor="start" x="7.5" y="-137.8" font-family="Arial" font-size="8.00">+ Knot (KnotMetaData meta, IEnumerable&lt;Edge&gt; edges) : void</text>
<text text-anchor="start" x="7.5" y="-127.8" font-family="Arial" font-size="8.00">+ IsValidMove (Direction dir, Integer distance) : Boolean</text>
<text text-anchor="start" x="7.5" y="-117.8" font-family="Arial" font-size="8.00">+ Move (Direction dir, Integer distance) : Boolean</text>
<text text-anchor="start" x="7.5" y="-107.8" font-family="Arial" font-size="8.00">+ GetEnumerator () : IEnumerator&lt;Edge&gt;</text>
<text text-anchor="start" x="7.5" y="-97.8" font-family="Arial" font-size="8.00">+ Save () : void</text>
<text text-anchor="start" x="7.5" y="-87.8" font-family="Arial" font-size="8.00">+ Clone () : Object</text>
<text text-anchor="start" x="7.5" y="-77.8" font-family="Arial" font-size="8.00">+ AddToSelection (Edge edge) : void</text>
<text text-anchor="start" x="7.5" y="-67.8" font-family="Arial" font-size="8.00">+ RemoveFromSelection (Edge edge) : void</text>
<text text-anchor="start" x="7.5" y="-57.8" font-family="Arial" font-size="8.00">+ ClearSelection () : void</text>
<text text-anchor="start" x="7.5" y="-47.8" font-family="Arial" font-size="8.00">+ AddRangeToSelection (Edge edge) : void</text>
<text text-anchor="start" x="7.5" y="-37.8" font-family="Arial" font-size="8.00">+ IsSelected (Edge edge) : Boolean</text>
<text text-anchor="start" x="7.5" y="-27.8" font-family="Arial" font-size="8.00">+ GetEnumerator () : IEnumerator</text>
<text text-anchor="start" x="7.5" y="-17.8" font-family="Arial" font-size="8.00">+ Save (IKnotIO format, String filename) : void</text>
<text text-anchor="start" x="7.5" y="-7.8" font-family="Arial" font-size="8.00">+ Equals (T other) : Boolean</text>
</g>
<!-- Box_ICloneable -->
<g id="node2" class="node"><title>Box_ICloneable</title>
<polygon fill="#ffffff" stroke="black" points="5.5,-283 5.5,-301 58.5,-301 58.5,-283 5.5,-283"/>
<text text-anchor="middle" x="32" y="-289.8" font-family="Arial" font-size="8.00">ICloneable</text>
</g>
<!-- Box_ICloneable&#45;&gt;Box_Knot -->
<g id="edge2" class="edge"><title>Box_ICloneable&#45;&gt;Box_Knot</title>
<path fill="none" stroke="midnightblue" d="M41.3446,-273.848C45.3936,-265.983 50.5055,-256.053 56.1657,-245.057"/>
<polygon fill="none" stroke="midnightblue" points="38.1427,-272.421 36.6775,-282.914 44.3665,-275.625 38.1427,-272.421"/>
</g>
<!-- Box_IEnumerable -->
<g id="node3" class="node"><title>Box_IEnumerable</title>
<polygon fill="#ffffff" stroke="black" points="75.5,-283 75.5,-301 162.5,-301 162.5,-283 75.5,-283"/>
<text text-anchor="middle" x="119" y="-289.8" font-family="Arial" font-size="8.00">IEnumerable&lt;Edge&gt;</text>
</g>
<!-- Box_IEnumerable&#45;&gt;Box_Knot -->
<g id="edge4" class="edge"><title>Box_IEnumerable&#45;&gt;Box_Knot</title>
<path fill="none" stroke="midnightblue" d="M119,-272.775C119,-265.088 119,-255.558 119,-245.057"/>
<polygon fill="none" stroke="midnightblue" points="115.5,-272.914 119,-282.914 122.5,-272.914 115.5,-272.914"/>
</g>
<!-- Box_IEquatable -->
<g id="node4" class="node"><title>Box_IEquatable</title>
<polygon fill="#ffffff" stroke="black" points="179.5,-283 179.5,-301 258.5,-301 258.5,-283 179.5,-283"/>
<text text-anchor="middle" x="219" y="-289.8" font-family="Arial" font-size="8.00">IEquatable&lt;Knot&gt;</text>
</g>
<!-- Box_IEquatable&#45;&gt;Box_Knot -->
<g id="edge6" class="edge"><title>Box_IEquatable&#45;&gt;Box_Knot</title>
<path fill="none" stroke="midnightblue" d="M208.415,-274.112C203.737,-266.206 197.802,-256.176 191.223,-245.057"/>
<polygon fill="none" stroke="midnightblue" points="205.519,-276.09 213.624,-282.914 211.543,-272.525 205.519,-276.09"/>
</g>
</g>
</svg>
