<?xml version="1.0" encoding="UTF-8" standalone="no"?>
<!DOCTYPE svg PUBLIC "-//W3C//DTD SVG 1.1//EN"
 "http://www.w3.org/Graphics/SVG/1.1/DTD/svg11.dtd">
<!-- Generated by graphviz version 2.26.3 (20100126.1600)
 -->
<!-- Title: MenuItem Pages: 1 -->
<svg width="362pt" height="320pt"
 viewBox="0.00 0.00 362.00 320.00" xmlns="http://www.w3.org/2000/svg" xmlns:xlink="http://www.w3.org/1999/xlink">
<g id="graph1" class="graph" transform="scale(1 1) rotate(0) translate(4 316)">
<title>MenuItem</title>
<polygon fill="white" stroke="white" points="-4,5 -4,-316 359,-316 359,5 -4,5"/>
<!-- Box_Knot2 -->
<g id="node1" class="node"><title>Box_Knot2</title>
<polygon fill="#ffffff" stroke="black" points="-0.5,-1 -0.5,-255 354.5,-255 354.5,-1 -0.5,-1"/>
<text text-anchor="middle" x="177" y="-243.8" font-family="Arial" font-size="8.00">Knot2</text>
<polyline fill="none" stroke="black" points="-0.5,-237 354.5,-237 "/>
<text text-anchor="start" x="7.5" y="-225.8" font-family="Arial" font-size="8.00">+ Name : String</text>
<text text-anchor="start" x="7.5" y="-215.8" font-family="Arial" font-size="8.00">&#45; edges : Knot3&#45;Entwurf</text>
<text text-anchor="start" x="7.5" y="-205.8" font-family="Arial" font-size="8.00">+ MetaData : Knot3&#45;Entwurf</text>
<text text-anchor="start" x="7.5" y="-195.8" font-family="Arial" font-size="8.00">+ EdgesChanged : Action</text>
<text text-anchor="start" x="7.5" y="-185.8" font-family="Arial" font-size="8.00">+ SelectedEdges : Knot3&#45;Entwurf</text>
<text text-anchor="start" x="7.5" y="-175.8" font-family="Arial" font-size="8.00">+ SelectionChanged : Action</text>
<polyline fill="none" stroke="black" points="-0.5,-169 354.5,-169 "/>
<text text-anchor="start" x="7.5" y="-157.8" font-family="Arial" font-size="8.00">+ Knot () : void</text>
<text text-anchor="start" x="7.5" y="-147.8" font-family="Arial" font-size="8.00">+ Knot (Knot3&#45;Entwurf::KnotMetaData meta, Knot3&#45;Entwurf::IEnumerable&lt;Edge&gt; edges) : void</text>
<text text-anchor="start" x="7.5" y="-137.8" font-family="Arial" font-size="8.00">+ IsValidMove (Direction dir, Integer distance) : Boolean</text>
<text text-anchor="start" x="7.5" y="-127.8" font-family="Arial" font-size="8.00">+ Move (Direction dir, Integer distance) : Boolean</text>
<text text-anchor="start" x="7.5" y="-117.8" font-family="Arial" font-size="8.00">+ GetEnumerator () : IEnumerator&lt;Edge&gt;</text>
<text text-anchor="start" x="7.5" y="-107.8" font-family="Arial" font-size="8.00">+ Save () : void</text>
<text text-anchor="start" x="7.5" y="-97.8" font-family="Arial" font-size="8.00">+ Clone () : Object</text>
<text text-anchor="start" x="7.5" y="-87.8" font-family="Arial" font-size="8.00">+ AddToSelection (Knot3&#45;Entwurf::Edge edge) : void</text>
<text text-anchor="start" x="7.5" y="-77.8" font-family="Arial" font-size="8.00">+ RemoveFromSelection (Knot3&#45;Entwurf::Edge edge) : void</text>
<text text-anchor="start" x="7.5" y="-67.8" font-family="Arial" font-size="8.00">+ ClearSelection () : void</text>
<text text-anchor="start" x="7.5" y="-57.8" font-family="Arial" font-size="8.00">+ AddRangeToSelection (Knot3&#45;Entwurf::Edge edge) : void</text>
<text text-anchor="start" x="7.5" y="-47.8" font-family="Arial" font-size="8.00">+ IsSelected (Knot3&#45;Entwurf::Edge edge) : Boolean</text>
<text text-anchor="start" x="7.5" y="-37.8" font-family="Arial" font-size="8.00">+ GetEnumerator () : IEnumerator</text>
<text text-anchor="start" x="7.5" y="-27.8" font-family="Arial" font-size="8.00">+ Save (Knot3&#45;Entwurf::IKnotIO format, String filename) : void</text>
<text text-anchor="start" x="7.5" y="-17.8" font-family="Arial" font-size="8.00">+ Equals (T other) : Boolean</text>
<text text-anchor="start" x="7.5" y="-7.8" font-family="Arial" font-size="8.00">+ Equals (C other) : Boolean</text>
</g>
<!-- Box_ICloneable -->
<g id="node2" class="node"><title>Box_ICloneable</title>
<polygon fill="#ffffff" stroke="black" points="63.5,-293 63.5,-311 116.5,-311 116.5,-293 63.5,-293"/>
<text text-anchor="middle" x="90" y="-299.8" font-family="Arial" font-size="8.00">ICloneable</text>
</g>
<!-- Box_ICloneable&#45;&gt;Box_Knot2 -->
<g id="edge2" class="edge"><title>Box_ICloneable&#45;&gt;Box_Knot2</title>
<path fill="none" stroke="midnightblue" d="M99.1722,-283.656C103.06,-275.88 107.95,-266.101 113.375,-255.25"/>
<polygon fill="none" stroke="midnightblue" points="96.0192,-282.135 94.6775,-292.645 102.28,-285.266 96.0192,-282.135"/>
</g>
<!-- Box_IEnumerable -->
<g id="node3" class="node"><title>Box_IEnumerable</title>
<polygon fill="#ffffff" stroke="black" points="133.5,-293 133.5,-311 220.5,-311 220.5,-293 133.5,-293"/>
<text text-anchor="middle" x="177" y="-299.8" font-family="Arial" font-size="8.00">IEnumerable&lt;Edge&gt;</text>
</g>
<!-- Box_IEnumerable&#45;&gt;Box_Knot2 -->
<g id="edge4" class="edge"><title>Box_IEnumerable&#45;&gt;Box_Knot2</title>
<path fill="none" stroke="midnightblue" d="M177,-282.595C177,-274.999 177,-265.613 177,-255.25"/>
<polygon fill="none" stroke="midnightblue" points="173.5,-282.645 177,-292.645 180.5,-282.645 173.5,-282.645"/>
</g>
<!-- Box_IEquatable -->
<g id="node4" class="node"><title>Box_IEquatable</title>
<polygon fill="#ffffff" stroke="black" points="237.5,-293 237.5,-311 316.5,-311 316.5,-293 237.5,-293"/>
<text text-anchor="middle" x="277" y="-299.8" font-family="Arial" font-size="8.00">IEquatable&lt;Knot&gt;</text>
</g>
<!-- Box_IEquatable&#45;&gt;Box_Knot2 -->
<g id="edge6" class="edge"><title>Box_IEquatable&#45;&gt;Box_Knot2</title>
<path fill="none" stroke="midnightblue" d="M266.607,-283.917C262.115,-276.1 256.438,-266.222 250.132,-255.25"/>
<polygon fill="none" stroke="midnightblue" points="263.606,-285.719 271.624,-292.645 269.675,-282.231 263.606,-285.719"/>
</g>
</g>
</svg>
