<?xml version="1.0" encoding="UTF-8" standalone="no"?>
<!DOCTYPE svg PUBLIC "-//W3C//DTD SVG 1.1//EN"
 "http://www.w3.org/Graphics/SVG/1.1/DTD/svg11.dtd">
<!-- Generated by graphviz version 2.26.3 (20100126.1600)
 -->
<!-- Title: MenuItem Pages: 1 -->
<svg width="297pt" height="180pt"
 viewBox="0.00 0.00 297.00 180.00" xmlns="http://www.w3.org/2000/svg" xmlns:xlink="http://www.w3.org/1999/xlink">
<g id="graph1" class="graph" transform="scale(1 1) rotate(0) translate(4 176)">
<title>MenuItem</title>
<polygon fill="white" stroke="white" points="-4,5 -4,-176 294,-176 294,5 -4,5"/>
<!-- Box_MenuItem -->
<g id="node1" class="node"><title>Box_MenuItem</title>
<polygon fill="#ffffff" stroke="black" points="0,-1 0,-115 276,-115 276,-1 0,-1"/>
<text text-anchor="middle" x="138" y="-103.8" font-family="Arial" font-size="8.00">MenuItem</text>
<polyline fill="none" stroke="black" points="0,-97 276,-97 "/>
<text text-anchor="start" x="8" y="-85.8" font-family="Arial" font-size="8.00">+ ItemState : ItemState</text>
<text text-anchor="start" x="8" y="-75.8" font-family="Arial" font-size="8.00">+ ItemOrder : Integer</text>
<text text-anchor="start" x="8" y="-65.8" font-family="Arial" font-size="8.00">+ Text : String</text>
<polyline fill="none" stroke="black" points="0,-59 276,-59 "/>
<text text-anchor="start" x="8" y="-47.8" font-family="Arial" font-size="8.00">+ OnLeftClick (Vector2 position, ClickState state, GameTime time) : void</text>
<text text-anchor="start" x="8" y="-37.8" font-family="Arial" font-size="8.00">+ OnRightClick (Vector2 position, ClickState state, GameTime time) : void</text>
<text text-anchor="start" x="8" y="-27.8" font-family="Arial" font-size="8.00">+ OnKeyEvent () : void</text>
<text text-anchor="start" x="8" y="-17.8" font-family="Arial" font-size="8.00">+ Bounds () : Rectangle</text>
<text text-anchor="start" x="8" y="-7.8" font-family="Arial" font-size="8.00">+ OnScroll (int float) : void</text>
</g>
<!-- Box_Widget -->
<g id="node2" class="node"><title>Box_Widget</title>
<polygon fill="#ffffff" stroke="black" points="38.5,-153 38.5,-171 79.5,-171 79.5,-153 38.5,-153"/>
<text text-anchor="middle" x="59" y="-159.8" font-family="Arial" font-size="8.00">Widget</text>
</g>
<!-- Box_Widget&#45;&gt;Box_MenuItem -->
<g id="edge2" class="edge"><title>Box_Widget&#45;&gt;Box_MenuItem</title>
<path fill="none" stroke="midnightblue" d="M72.1518,-144.686C78.4721,-136.366 86.4467,-125.868 94.645,-115.075"/>
<polygon fill="none" stroke="midnightblue" points="69.2726,-142.69 66.0107,-152.771 74.8467,-146.925 69.2726,-142.69"/>
</g>
<!-- Box_IKeyEventListener -->
<g id="node3" class="node"><title>Box_IKeyEventListener</title>
<polygon fill="#ffffff" stroke="black" points="97,-153 97,-171 179,-171 179,-153 97,-153"/>
<text text-anchor="middle" x="138" y="-159.8" font-family="Arial" font-size="8.00">IKeyEventListener</text>
</g>
<!-- Box_IKeyEventListener&#45;&gt;Box_MenuItem -->
<g id="edge4" class="edge"><title>Box_IKeyEventListener&#45;&gt;Box_MenuItem</title>
<path fill="none" stroke="midnightblue" d="M138,-142.516C138,-134.577 138,-124.949 138,-115.075"/>
<polygon fill="none" stroke="midnightblue" points="134.5,-142.771 138,-152.771 141.5,-142.771 134.5,-142.771"/>
</g>
<!-- Box_IMouseEventListener -->
<g id="node4" class="node"><title>Box_IMouseEventListener</title>
<polygon fill="#ffffff" stroke="black" points="197,-153 197,-171 289,-171 289,-153 197,-153"/>
<text text-anchor="middle" x="243" y="-159.8" font-family="Arial" font-size="8.00">IMouseEventListener</text>
</g>
<!-- Box_IMouseEventListener&#45;&gt;Box_MenuItem -->
<g id="edge6" class="edge"><title>Box_IMouseEventListener&#45;&gt;Box_MenuItem</title>
<path fill="none" stroke="midnightblue" d="M226.317,-145.476C217.796,-137.036 206.868,-126.212 195.624,-115.075"/>
<polygon fill="none" stroke="midnightblue" points="224.114,-148.22 233.682,-152.771 229.04,-143.247 224.114,-148.22"/>
</g>
</g>
</svg>
