<?xml version="1.0" encoding="UTF-8" standalone="no"?>
<!DOCTYPE svg PUBLIC "-//W3C//DTD SVG 1.1//EN"
 "http://www.w3.org/Graphics/SVG/1.1/DTD/svg11.dtd">
<!-- Generated by graphviz version 2.26.3 (20100126.1600)
 -->
<!-- Title: MenuItem Pages: 1 -->
<svg width="294pt" height="150pt"
 viewBox="0.00 0.00 294.00 150.00" xmlns="http://www.w3.org/2000/svg" xmlns:xlink="http://www.w3.org/1999/xlink">
<g id="graph1" class="graph" transform="scale(1 1) rotate(0) translate(4 146)">
<title>MenuItem</title>
<polygon fill="white" stroke="white" points="-4,5 -4,-146 291,-146 291,5 -4,5"/>
<!-- Box_NodeModelInfo -->
<g id="node1" class="node"><title>Box_NodeModelInfo</title>
<polygon fill="#ffffff" stroke="black" points="-0.5,-1 -0.5,-85 286.5,-85 286.5,-1 -0.5,-1"/>
<text text-anchor="middle" x="143" y="-73.8" font-family="Arial" font-size="8.00">NodeModelInfo</text>
<polyline fill="none" stroke="black" points="-0.5,-67 286.5,-67 "/>
<text text-anchor="start" x="7.5" y="-55.8" font-family="Arial" font-size="8.00">+ EdgeFrom : Edge</text>
<text text-anchor="start" x="7.5" y="-45.8" font-family="Arial" font-size="8.00">+ EdgeTo : Edge</text>
<text text-anchor="start" x="7.5" y="-35.8" font-family="Arial" font-size="8.00">+ Knot : Knot</text>
<text text-anchor="start" x="7.5" y="-25.8" font-family="Arial" font-size="8.00">+ Position : Vector3</text>
<polyline fill="none" stroke="black" points="-0.5,-19 286.5,-19 "/>
<text text-anchor="start" x="7.5" y="-7.8" font-family="Arial" font-size="8.00">+ NodeModelInfo (NodeMap nodeMap, Knot knot, Edge from, Edge to) : void</text>
</g>
<!-- Box_GameModelInfo -->
<g id="node2" class="node"><title>Box_GameModelInfo</title>
<polygon fill="#ffffff" stroke="black" points="68,-123 68,-141 140,-141 140,-123 68,-123"/>
<text text-anchor="middle" x="104" y="-129.8" font-family="Arial" font-size="8.00">GameModelInfo</text>
</g>
<!-- Box_GameModelInfo&#45;&gt;Box_NodeModelInfo -->
<g id="edge2" class="edge"><title>Box_GameModelInfo&#45;&gt;Box_NodeModelInfo</title>
<path fill="none" stroke="midnightblue" d="M112.128,-113.452C115.76,-105.164 120.2,-95.0305 124.569,-85.0607"/>
<polygon fill="none" stroke="midnightblue" points="108.835,-112.247 108.027,-122.811 115.246,-115.056 108.835,-112.247"/>
</g>
<!-- Box_IJunction -->
<g id="node3" class="node"><title>Box_IJunction</title>
<polygon fill="#ffffff" stroke="black" points="158,-123 158,-141 206,-141 206,-123 158,-123"/>
<text text-anchor="middle" x="182" y="-129.8" font-family="Arial" font-size="8.00">IJunction</text>
</g>
<!-- Box_IJunction&#45;&gt;Box_NodeModelInfo -->
<g id="edge4" class="edge"><title>Box_IJunction&#45;&gt;Box_NodeModelInfo</title>
<path fill="none" stroke="midnightblue" d="M173.872,-113.452C170.24,-105.164 165.8,-95.0305 161.431,-85.0607"/>
<polygon fill="none" stroke="midnightblue" points="170.754,-115.056 177.973,-122.811 177.165,-112.247 170.754,-115.056"/>
</g>
</g>
</svg>
