<?xml version="1.0" encoding="UTF-8" standalone="no"?>
<!DOCTYPE svg PUBLIC "-//W3C//DTD SVG 1.1//EN"
 "http://www.w3.org/Graphics/SVG/1.1/DTD/svg11.dtd">
<!-- Generated by graphviz version 2.26.3 (20100126.1600)
 -->
<!-- Title: MenuItem Pages: 1 -->
<svg width="250pt" height="140pt"
 viewBox="0.00 0.00 250.00 140.00" xmlns="http://www.w3.org/2000/svg" xmlns:xlink="http://www.w3.org/1999/xlink">
<g id="graph1" class="graph" transform="scale(1 1) rotate(0) translate(4 136)">
<title>MenuItem</title>
<polygon fill="white" stroke="white" points="-4,5 -4,-136 247,-136 247,5 -4,5"/>
<!-- Box_NodeModel -->
<g id="node1" class="node"><title>Box_NodeModel</title>
<polygon fill="#ffffff" stroke="black" points="0,-1 0,-75 242,-75 242,-1 0,-1"/>
<text text-anchor="middle" x="121" y="-63.8" font-family="Arial" font-size="8.00">NodeModel</text>
<polyline fill="none" stroke="black" points="0,-57 242,-57 "/>
<text text-anchor="start" x="8" y="-45.8" font-family="Arial" font-size="8.00">+ Info : NodeModelInfo</text>
<polyline fill="none" stroke="black" points="0,-39 242,-39 "/>
<text text-anchor="start" x="8" y="-27.8" font-family="Arial" font-size="8.00">+ NodeModel (GameScreen screen, NodeModelInfo info) : void</text>
<text text-anchor="start" x="8" y="-17.8" font-family="Arial" font-size="8.00">+ Draw (GameTime GameTime) : void</text>
<text text-anchor="start" x="8" y="-7.8" font-family="Arial" font-size="8.00">+ Update (GameTime GameTime) : void</text>
</g>
<!-- Box_GameModel -->
<g id="node2" class="node"><title>Box_GameModel</title>
<polygon fill="#ffffff" stroke="black" points="91.5,-113 91.5,-131 150.5,-131 150.5,-113 91.5,-113"/>
<text text-anchor="middle" x="121" y="-119.8" font-family="Arial" font-size="8.00">GameModel</text>
</g>
<!-- Box_GameModel&#45;&gt;Box_NodeModel -->
<g id="edge2" class="edge"><title>Box_GameModel&#45;&gt;Box_NodeModel</title>
<path fill="none" stroke="midnightblue" d="M121,-102.442C121,-94.3016 121,-84.5681 121,-75.1627"/>
<polygon fill="none" stroke="midnightblue" points="117.5,-102.69 121,-112.69 124.5,-102.69 117.5,-102.69"/>
</g>
</g>
</svg>
