<?xml version="1.0" encoding="UTF-8" standalone="no"?>
<!DOCTYPE svg PUBLIC "-//W3C//DTD SVG 1.1//EN"
 "http://www.w3.org/Graphics/SVG/1.1/DTD/svg11.dtd">
<!-- Generated by graphviz version 2.26.3 (20100126.1600)
 -->
<!-- Title: MenuItem Pages: 1 -->
<svg width="270pt" height="180pt"
 viewBox="0.00 0.00 270.00 180.00" xmlns="http://www.w3.org/2000/svg" xmlns:xlink="http://www.w3.org/1999/xlink">
<g id="graph1" class="graph" transform="scale(1 1) rotate(0) translate(4 176)">
<title>MenuItem</title>
<polygon fill="white" stroke="white" points="-4,5 -4,-176 267,-176 267,5 -4,5"/>
<!-- Box_RenderEffect -->
<g id="node1" class="node"><title>Box_RenderEffect</title>
<polygon fill="#ffffff" stroke="black" points="-0.5,-1 -0.5,-115 262.5,-115 262.5,-1 -0.5,-1"/>
<text text-anchor="middle" x="131" y="-103.8" font-family="Arial" font-size="8.00">RenderEffect</text>
<polyline fill="none" stroke="black" points="-0.5,-97 262.5,-97 "/>
<text text-anchor="start" x="7.5" y="-85.8" font-family="Arial" font-size="8.00">+ RenderTarget : RenderTarget2D</text>
<text text-anchor="start" x="7.5" y="-75.8" font-family="Arial" font-size="8.00"># screen : GameScreen</text>
<text text-anchor="start" x="7.5" y="-65.8" font-family="Arial" font-size="8.00"># spriteBatch : SpriteBatch</text>
<polyline fill="none" stroke="black" points="-0.5,-59 262.5,-59 "/>
<text text-anchor="start" x="7.5" y="-47.8" font-family="Arial" font-size="8.00">+ Begin (GameTime) : void</text>
<text text-anchor="start" x="7.5" y="-37.8" font-family="Arial" font-size="8.00">+ End (GameTime) : void</text>
<text text-anchor="start" x="7.5" y="-27.8" font-family="Arial" font-size="8.00">+ DrawModel (GameModel GameModel, GameTime GameTime) : void</text>
<text text-anchor="start" x="7.5" y="-17.8" font-family="Arial" font-size="8.00">+ RemapModel (GameModel GameModel) : void</text>
<text text-anchor="start" x="7.5" y="-7.8" font-family="Arial" font-size="8.00"># DrawRenderTarget (GameTime time) : void</text>
</g>
<!-- Box_IRenderEffect -->
<g id="node2" class="node"><title>Box_IRenderEffect</title>
<polygon fill="#ffffff" stroke="black" points="98,-153 98,-171 164,-171 164,-153 98,-153"/>
<text text-anchor="middle" x="131" y="-159.8" font-family="Arial" font-size="8.00">IRenderEffect</text>
</g>
<!-- Box_IRenderEffect&#45;&gt;Box_RenderEffect -->
<g id="edge2" class="edge"><title>Box_IRenderEffect&#45;&gt;Box_RenderEffect</title>
<path fill="none" stroke="midnightblue" d="M131,-142.516C131,-134.577 131,-124.949 131,-115.075"/>
<polygon fill="none" stroke="midnightblue" points="127.5,-142.771 131,-152.771 134.5,-142.771 127.5,-142.771"/>
</g>
</g>
</svg>
