<?xml version="1.0" encoding="UTF-8" standalone="no"?>
<!DOCTYPE svg PUBLIC "-//W3C//DTD SVG 1.1//EN"
 "http://www.w3.org/Graphics/SVG/1.1/DTD/svg11.dtd">
<!-- Generated by graphviz version 2.26.3 (20100126.1600)
 -->
<!-- Title: MenuItem Pages: 1 -->
<svg width="208pt" height="130pt"
 viewBox="0.00 0.00 208.00 130.00" xmlns="http://www.w3.org/2000/svg" xmlns:xlink="http://www.w3.org/1999/xlink">
<g id="graph1" class="graph" transform="scale(1 1) rotate(0) translate(4 126)">
<title>MenuItem</title>
<polygon fill="white" stroke="white" points="-4,5 -4,-126 205,-126 205,5 -4,5"/>
<!-- Box_RenderEffects -->
<g id="node1" class="node"><title>Box_RenderEffects</title>
<polygon fill="#ffffff" stroke="black" points="0,-1 0,-65 200,-65 200,-1 0,-1"/>
<text text-anchor="middle" x="100" y="-53.8" font-family="Arial" font-size="8.00">RenderEffects</text>
<polyline fill="none" stroke="black" points="0,-47 200,-47 "/>
<text text-anchor="middle" x="100" y="-35.8" font-family="Arial" font-size="8.00"> </text>
<polyline fill="none" stroke="black" points="0,-29 200,-29 "/>
<text text-anchor="start" x="8" y="-17.8" font-family="Arial" font-size="8.00"># DrawRenderTarget (GameTime GameTime) : void</text>
<text text-anchor="start" x="8" y="-7.8" font-family="Arial" font-size="8.00">+ StandardEffect (GameScreen screen) : void</text>
</g>
<!-- Box_RenderEffect -->
<g id="node2" class="node"><title>Box_RenderEffect</title>
<polygon fill="#ffffff" stroke="black" points="67.5,-103 67.5,-121 132.5,-121 132.5,-103 67.5,-103"/>
<text text-anchor="middle" x="100" y="-109.8" font-family="Arial" font-size="8.00">RenderEffect</text>
</g>
<!-- Box_RenderEffect&#45;&gt;Box_RenderEffects -->
<g id="edge2" class="edge"><title>Box_RenderEffect&#45;&gt;Box_RenderEffects</title>
<path fill="none" stroke="midnightblue" d="M100,-92.8318C100,-84.5161 100,-74.5476 100,-65.1537"/>
<polygon fill="none" stroke="midnightblue" points="96.5001,-92.9377 100,-102.938 103.5,-92.9377 96.5001,-92.9377"/>
</g>
</g>
</svg>
