<?xml version="1.0" encoding="UTF-8" standalone="no"?>
<!DOCTYPE svg PUBLIC "-//W3C//DTD SVG 1.1//EN"
 "http://www.w3.org/Graphics/SVG/1.1/DTD/svg11.dtd">
<!-- Generated by graphviz version 2.26.3 (20100126.1600)
 -->
<!-- Title: MenuItem Pages: 1 -->
<svg width="230pt" height="150pt"
 viewBox="0.00 0.00 230.00 150.00" xmlns="http://www.w3.org/2000/svg" xmlns:xlink="http://www.w3.org/1999/xlink">
<g id="graph1" class="graph" transform="scale(1 1) rotate(0) translate(4 146)">
<title>MenuItem</title>
<polygon fill="white" stroke="white" points="-4,5 -4,-146 227,-146 227,5 -4,5"/>
<!-- Box_RenderEffectsCelShadingEffect -->
<g id="node1" class="node"><title>Box_RenderEffectsCelShadingEffect</title>
<polygon fill="#ffffff" stroke="black" points="-0.5,-1 -0.5,-85 222.5,-85 222.5,-1 -0.5,-1"/>
<text text-anchor="middle" x="111" y="-73.8" font-family="Arial" font-size="8.00">RenderEffects.CelShadingEffect</text>
<polyline fill="none" stroke="black" points="-0.5,-67 222.5,-67 "/>
<text text-anchor="middle" x="111" y="-55.8" font-family="Arial" font-size="8.00"> </text>
<polyline fill="none" stroke="black" points="-0.5,-49 222.5,-49 "/>
<text text-anchor="start" x="7.5" y="-37.8" font-family="Arial" font-size="8.00"># DrawRenderTarget (GameTime GameTime) : void</text>
<text text-anchor="start" x="7.5" y="-27.8" font-family="Arial" font-size="8.00">+ DrawModel (GameTime, GameModel GameModel) : void</text>
<text text-anchor="start" x="7.5" y="-17.8" font-family="Arial" font-size="8.00">+ RemapModel (GameModel GameModel) : void</text>
<text text-anchor="start" x="7.5" y="-7.8" font-family="Arial" font-size="8.00">+ CelShadingEffect (GameScreen screen) : void</text>
</g>
<!-- Box_RenderEffect -->
<g id="node2" class="node"><title>Box_RenderEffect</title>
<polygon fill="#ffffff" stroke="black" points="78.5,-123 78.5,-141 143.5,-141 143.5,-123 78.5,-123"/>
<text text-anchor="middle" x="111" y="-129.8" font-family="Arial" font-size="8.00">RenderEffect</text>
</g>
<!-- Box_RenderEffect&#45;&gt;Box_RenderEffectsCelShadingEffect -->
<g id="edge2" class="edge"><title>Box_RenderEffect&#45;&gt;Box_RenderEffectsCelShadingEffect</title>
<path fill="none" stroke="midnightblue" d="M111,-112.617C111,-104.489 111,-94.6982 111,-85.0607"/>
<polygon fill="none" stroke="midnightblue" points="107.5,-112.811 111,-122.811 114.5,-112.811 107.5,-112.811"/>
</g>
</g>
</svg>
