<?xml version="1.0" encoding="UTF-8" standalone="no"?>
<!DOCTYPE svg PUBLIC "-//W3C//DTD SVG 1.1//EN"
 "http://www.w3.org/Graphics/SVG/1.1/DTD/svg11.dtd">
<!-- Generated by graphviz version 2.26.3 (20100126.1600)
 -->
<!-- Title: MenuItem Pages: 1 -->
<svg width="78pt" height="120pt"
 viewBox="0.00 0.00 78.00 120.00" xmlns="http://www.w3.org/2000/svg" xmlns:xlink="http://www.w3.org/1999/xlink">
<g id="graph1" class="graph" transform="scale(1 1) rotate(0) translate(4 116)">
<title>MenuItem</title>
<polygon fill="white" stroke="white" points="-4,5 -4,-116 75,-116 75,5 -4,5"/>
<!-- Box_SaveDialog -->
<g id="node1" class="node"><title>Box_SaveDialog</title>
<polygon fill="#ffffff" stroke="black" points="6.5,-1 6.5,-55 63.5,-55 63.5,-1 6.5,-1"/>
<text text-anchor="middle" x="35" y="-43.8" font-family="Arial" font-size="8.00">SaveDialog</text>
<polyline fill="none" stroke="black" points="6.5,-37 63.5,-37 "/>
<text text-anchor="middle" x="35" y="-25.8" font-family="Arial" font-size="8.00"> </text>
<polyline fill="none" stroke="black" points="6.5,-19 63.5,-19 "/>
<text text-anchor="middle" x="35" y="-7.8" font-family="Arial" font-size="8.00"> </text>
</g>
<!-- Box_TextInputDialog -->
<g id="node2" class="node"><title>Box_TextInputDialog</title>
<polygon fill="#ffffff" stroke="black" points="-0.5,-93 -0.5,-111 70.5,-111 70.5,-93 -0.5,-93"/>
<text text-anchor="middle" x="35" y="-99.8" font-family="Arial" font-size="8.00">TextInputDialog</text>
</g>
<!-- Box_TextInputDialog&#45;&gt;Box_SaveDialog -->
<g id="edge2" class="edge"><title>Box_TextInputDialog&#45;&gt;Box_SaveDialog</title>
<path fill="none" stroke="midnightblue" d="M35,-82.6404C35,-74.1998 35,-64.1602 35,-55.0036"/>
<polygon fill="none" stroke="midnightblue" points="31.5001,-82.9261 35,-92.9261 38.5001,-82.9262 31.5001,-82.9261"/>
</g>
</g>
</svg>
