<?xml version="1.0" encoding="UTF-8" standalone="no"?>
<!DOCTYPE svg PUBLIC "-//W3C//DTD SVG 1.1//EN"
 "http://www.w3.org/Graphics/SVG/1.1/DTD/svg11.dtd">
<!-- Generated by graphviz version 2.26.3 (20100126.1600)
 -->
<!-- Title: MenuItem Pages: 1 -->
<svg width="278pt" height="120pt"
 viewBox="0.00 0.00 278.00 120.00" xmlns="http://www.w3.org/2000/svg" xmlns:xlink="http://www.w3.org/1999/xlink">
<g id="graph1" class="graph" transform="scale(1 1) rotate(0) translate(4 116)">
<title>MenuItem</title>
<polygon fill="white" stroke="white" points="-4,5 -4,-116 275,-116 275,5 -4,5"/>
<!-- Box_Screens -->
<g id="node1" class="node"><title>Box_Screens</title>
<polygon fill="#ffffff" stroke="black" points="0,-1 0,-55 270,-55 270,-1 0,-1"/>
<text text-anchor="middle" x="135" y="-43.8" font-family="Arial" font-size="8.00">Screens</text>
<polyline fill="none" stroke="black" points="0,-37 270,-37 "/>
<text text-anchor="middle" x="135" y="-25.8" font-family="Arial" font-size="8.00"> </text>
<polyline fill="none" stroke="black" points="0,-19 270,-19 "/>
<text text-anchor="start" x="8" y="-7.8" font-family="Arial" font-size="8.00">+ Entered (GameScreen previousScreen, GameTime GameTime) : void</text>
</g>
<!-- Box_ChallengeModeScreen -->
<g id="node2" class="node"><title>Box_ChallengeModeScreen</title>
<polygon fill="#ffffff" stroke="black" points="86,-93 86,-111 184,-111 184,-93 86,-93"/>
<text text-anchor="middle" x="135" y="-99.8" font-family="Arial" font-size="8.00">ChallengeModeScreen</text>
</g>
<!-- Box_ChallengeModeScreen&#45;&gt;Box_Screens -->
<g id="edge2" class="edge"><title>Box_ChallengeModeScreen&#45;&gt;Box_Screens</title>
<path fill="none" stroke="midnightblue" d="M135,-82.6404C135,-74.1998 135,-64.1602 135,-55.0036"/>
<polygon fill="none" stroke="midnightblue" points="131.5,-82.9261 135,-92.9261 138.5,-82.9262 131.5,-82.9261"/>
</g>
</g>
</svg>
