<?xml version="1.0" encoding="UTF-8" standalone="no"?>
<!DOCTYPE svg PUBLIC "-//W3C//DTD SVG 1.1//EN"
 "http://www.w3.org/Graphics/SVG/1.1/DTD/svg11.dtd">
<!-- Generated by graphviz version 2.26.3 (20100126.1600)
 -->
<!-- Title: MenuItem Pages: 1 -->
<svg width="254pt" height="170pt"
 viewBox="0.00 0.00 254.00 170.00" xmlns="http://www.w3.org/2000/svg" xmlns:xlink="http://www.w3.org/1999/xlink">
<g id="graph1" class="graph" transform="scale(1 1) rotate(0) translate(4 166)">
<title>MenuItem</title>
<polygon fill="white" stroke="white" points="-4,5 -4,-166 251,-166 251,5 -4,5"/>
<!-- Box_ScreensCreativeModeScreen -->
<g id="node1" class="node"><title>Box_ScreensCreativeModeScreen</title>
<polygon fill="#ffffff" stroke="black" points="-0.5,-1 -0.5,-105 246.5,-105 246.5,-1 -0.5,-1"/>
<text text-anchor="middle" x="123" y="-93.8" font-family="Arial" font-size="8.00">Screens.CreativeModeScreen</text>
<polyline fill="none" stroke="black" points="-0.5,-87 246.5,-87 "/>
<text text-anchor="start" x="7.5" y="-75.8" font-family="Arial" font-size="8.00">+ Knot : void</text>
<text text-anchor="start" x="7.5" y="-65.8" font-family="Arial" font-size="8.00">&#45; World : World</text>
<text text-anchor="start" x="7.5" y="-55.8" font-family="Arial" font-size="8.00">&#45; KnotRenderer : KnotRenderer</text>
<text text-anchor="start" x="7.5" y="-45.8" font-family="Arial" font-size="8.00">+ Undo : Stack&lt;Knot&gt;</text>
<text text-anchor="start" x="7.5" y="-35.8" font-family="Arial" font-size="8.00">+ Redo : Stack&lt;Knot&gt;</text>
<polyline fill="none" stroke="black" points="-0.5,-29 246.5,-29 "/>
<text text-anchor="start" x="7.5" y="-17.8" font-family="Arial" font-size="8.00">+ Update (GameTime time) : void</text>
<text text-anchor="start" x="7.5" y="-7.8" font-family="Arial" font-size="8.00">+ Entered (GameScreen previousScreen, GameTime time) : void</text>
</g>
<!-- Box_GameScreen -->
<g id="node2" class="node"><title>Box_GameScreen</title>
<polygon fill="#ffffff" stroke="black" points="91,-143 91,-161 155,-161 155,-143 91,-143"/>
<text text-anchor="middle" x="123" y="-149.8" font-family="Arial" font-size="8.00">GameScreen</text>
</g>
<!-- Box_GameScreen&#45;&gt;Box_ScreensCreativeModeScreen -->
<g id="edge2" class="edge"><title>Box_GameScreen&#45;&gt;Box_ScreensCreativeModeScreen</title>
<path fill="none" stroke="midnightblue" d="M123,-132.816C123,-124.773 123,-114.992 123,-105.073"/>
<polygon fill="none" stroke="midnightblue" points="119.5,-132.864 123,-142.864 126.5,-132.864 119.5,-132.864"/>
</g>
</g>
</svg>
