<?xml version="1.0" encoding="UTF-8" standalone="no"?>
<!DOCTYPE svg PUBLIC "-//W3C//DTD SVG 1.1//EN"
 "http://www.w3.org/Graphics/SVG/1.1/DTD/svg11.dtd">
<!-- Generated by graphviz version 2.26.3 (20100126.1600)
 -->
<!-- Title: MenuItem Pages: 1 -->
<svg width="454pt" height="150pt"
 viewBox="0.00 0.00 454.00 150.00" xmlns="http://www.w3.org/2000/svg" xmlns:xlink="http://www.w3.org/1999/xlink">
<g id="graph1" class="graph" transform="scale(1 1) rotate(0) translate(4 146)">
<title>MenuItem</title>
<polygon fill="white" stroke="white" points="-4,5 -4,-146 451,-146 451,5 -4,5"/>
<!-- Box_SliderItem -->
<g id="node1" class="node"><title>Box_SliderItem</title>
<polygon fill="#ffffff" stroke="black" points="0,-1 0,-85 446,-85 446,-1 0,-1"/>
<text text-anchor="middle" x="223" y="-73.8" font-family="Arial" font-size="8.00">SliderItem</text>
<polyline fill="none" stroke="black" points="0,-67 446,-67 "/>
<text text-anchor="start" x="8" y="-55.8" font-family="Arial" font-size="8.00">+ Value : Integer</text>
<text text-anchor="start" x="8" y="-45.8" font-family="Arial" font-size="8.00">+ MinValue : Integer</text>
<text text-anchor="start" x="8" y="-35.8" font-family="Arial" font-size="8.00">+ MaxValue : Integer</text>
<text text-anchor="start" x="8" y="-25.8" font-family="Arial" font-size="8.00">+ Step : Integer</text>
<polyline fill="none" stroke="black" points="0,-19 446,-19 "/>
<text text-anchor="start" x="8" y="-7.8" font-family="Arial" font-size="8.00">+ SliderItem (GameScreen screen, DisplayLayer drawOrder, Integer max, Integer min, Integer step, Integer value) : void</text>
</g>
<!-- Box_MenuItem -->
<g id="node2" class="node"><title>Box_MenuItem</title>
<polygon fill="#ffffff" stroke="black" points="198,-123 198,-141 248,-141 248,-123 198,-123"/>
<text text-anchor="middle" x="223" y="-129.8" font-family="Arial" font-size="8.00">MenuItem</text>
</g>
<!-- Box_MenuItem&#45;&gt;Box_SliderItem -->
<g id="edge2" class="edge"><title>Box_MenuItem&#45;&gt;Box_SliderItem</title>
<path fill="none" stroke="midnightblue" d="M223,-112.617C223,-104.489 223,-94.6982 223,-85.0607"/>
<polygon fill="none" stroke="midnightblue" points="219.5,-112.811 223,-122.811 226.5,-112.811 219.5,-112.811"/>
</g>
</g>
</svg>
