<?xml version="1.0" encoding="UTF-8" standalone="no"?>
<!DOCTYPE svg PUBLIC "-//W3C//DTD SVG 1.1//EN"
 "http://www.w3.org/Graphics/SVG/1.1/DTD/svg11.dtd">
<!-- Generated by graphviz version 2.26.3 (20100126.1600)
 -->
<!-- Title: MenuItem Pages: 1 -->
<svg width="472pt" height="140pt"
 viewBox="0.00 0.00 472.00 140.00" xmlns="http://www.w3.org/2000/svg" xmlns:xlink="http://www.w3.org/1999/xlink">
<g id="graph1" class="graph" transform="scale(1 1) rotate(0) translate(4 136)">
<title>MenuItem</title>
<polygon fill="white" stroke="white" points="-4,5 -4,-136 469,-136 469,5 -4,5"/>
<!-- Box_TextInputDialog -->
<g id="node1" class="node"><title>Box_TextInputDialog</title>
<polygon fill="#ffffff" stroke="black" points="-0.5,-1 -0.5,-75 464.5,-75 464.5,-1 -0.5,-1"/>
<text text-anchor="middle" x="232" y="-63.8" font-family="Arial" font-size="8.00">TextInputDialog</text>
<polyline fill="none" stroke="black" points="-0.5,-57 464.5,-57 "/>
<text text-anchor="start" x="7.5" y="-45.8" font-family="Arial" font-size="8.00">+ InputText : String</text>
<text text-anchor="start" x="7.5" y="-35.8" font-family="Arial" font-size="8.00">+ KeyEvent : Action</text>
<polyline fill="none" stroke="black" points="-0.5,-29 464.5,-29 "/>
<text text-anchor="start" x="7.5" y="-17.8" font-family="Arial" font-size="8.00">+ OnKeyEvent () : void</text>
<text text-anchor="start" x="7.5" y="-7.8" font-family="Arial" font-size="8.00">+ TextInputDialog (GameScreen screen, DisplayLayer drawOrder, String title, String text, String inputText, Keys[] keys) : void</text>
</g>
<!-- Box_Dialog -->
<g id="node2" class="node"><title>Box_Dialog</title>
<polygon fill="#ffffff" stroke="black" points="174,-113 174,-131 212,-131 212,-113 174,-113"/>
<text text-anchor="middle" x="193" y="-119.8" font-family="Arial" font-size="8.00">Dialog</text>
</g>
<!-- Box_Dialog&#45;&gt;Box_TextInputDialog -->
<g id="edge2" class="edge"><title>Box_Dialog&#45;&gt;Box_TextInputDialog</title>
<path fill="none" stroke="midnightblue" d="M201.564,-103.555C205.444,-95.1973 210.178,-85.0006 214.746,-75.1627"/>
<polygon fill="none" stroke="midnightblue" points="198.359,-102.146 197.323,-112.69 204.708,-105.093 198.359,-102.146"/>
</g>
<!-- Box_IKeyEventListener -->
<g id="node3" class="node"><title>Box_IKeyEventListener</title>
<polygon fill="#ffffff" stroke="black" points="230,-113 230,-131 312,-131 312,-113 230,-113"/>
<text text-anchor="middle" x="271" y="-119.8" font-family="Arial" font-size="8.00">IKeyEventListener</text>
</g>
<!-- Box_IKeyEventListener&#45;&gt;Box_TextInputDialog -->
<g id="edge4" class="edge"><title>Box_IKeyEventListener&#45;&gt;Box_TextInputDialog</title>
<path fill="none" stroke="midnightblue" d="M262.436,-103.555C258.556,-95.1973 253.822,-85.0006 249.254,-75.1627"/>
<polygon fill="none" stroke="midnightblue" points="259.292,-105.093 266.677,-112.69 265.641,-102.146 259.292,-105.093"/>
</g>
</g>
</svg>
