<?xml version="1.0" encoding="UTF-8" standalone="no"?>
<!DOCTYPE svg PUBLIC "-//W3C//DTD SVG 1.1//EN"
 "http://www.w3.org/Graphics/SVG/1.1/DTD/svg11.dtd">
<!-- Generated by graphviz version 2.26.3 (20100126.1600)
 -->
<!-- Title: MenuItem Pages: 1 -->
<svg width="332pt" height="160pt"
 viewBox="0.00 0.00 332.00 160.00" xmlns="http://www.w3.org/2000/svg" xmlns:xlink="http://www.w3.org/1999/xlink">
<g id="graph1" class="graph" transform="scale(1 1) rotate(0) translate(4 156)">
<title>MenuItem</title>
<polygon fill="white" stroke="white" points="-4,5 -4,-156 329,-156 329,5 -4,5"/>
<!-- Box_WidgetsSliderItem -->
<g id="node1" class="node"><title>Box_WidgetsSliderItem</title>
<polygon fill="#ffffff" stroke="black" points="-0.5,-1 -0.5,-95 324.5,-95 324.5,-1 -0.5,-1"/>
<text text-anchor="middle" x="162" y="-83.8" font-family="Arial" font-size="8.00">Widgets.SliderItem</text>
<polyline fill="none" stroke="black" points="-0.5,-77 324.5,-77 "/>
<text text-anchor="start" x="7.5" y="-65.8" font-family="Arial" font-size="8.00">+ Value : Integer</text>
<text text-anchor="start" x="7.5" y="-55.8" font-family="Arial" font-size="8.00">+ MinValue : Integer</text>
<text text-anchor="start" x="7.5" y="-45.8" font-family="Arial" font-size="8.00">+ MaxValue : Integer</text>
<text text-anchor="start" x="7.5" y="-35.8" font-family="Arial" font-size="8.00">+ Step : Integer</text>
<polyline fill="none" stroke="black" points="-0.5,-29 324.5,-29 "/>
<text text-anchor="start" x="7.5" y="-17.8" font-family="Arial" font-size="8.00">+ SliderItem (GameScreen screen, DisplayLayer drawOrder, Integer max, Integer min,</text>
<text text-anchor="start" x="7.5" y="-7.8" font-family="Arial" font-size="8.00">Integer step, Integer value) : void</text>
</g>
<!-- Box_MenuItem -->
<g id="node2" class="node"><title>Box_MenuItem</title>
<polygon fill="#ffffff" stroke="black" points="137,-133 137,-151 187,-151 187,-133 137,-133"/>
<text text-anchor="middle" x="162" y="-139.8" font-family="Arial" font-size="8.00">MenuItem</text>
</g>
<!-- Box_MenuItem&#45;&gt;Box_WidgetsSliderItem -->
<g id="edge2" class="edge"><title>Box_MenuItem&#45;&gt;Box_WidgetsSliderItem</title>
<path fill="none" stroke="midnightblue" d="M162,-122.922C162,-114.868 162,-105.099 162,-95.312"/>
<polygon fill="none" stroke="midnightblue" points="158.5,-122.987 162,-132.987 165.5,-122.987 158.5,-122.987"/>
</g>
</g>
</svg>
