<?xml version="1.0" encoding="UTF-8" standalone="no"?>
<!DOCTYPE svg PUBLIC "-//W3C//DTD SVG 1.1//EN"
 "http://www.w3.org/Graphics/SVG/1.1/DTD/svg11.dtd">
<!-- Generated by graphviz version 2.26.3 (20100126.1600)
 -->
<!-- Title: MenuItem Pages: 1 -->
<svg width="96pt" height="120pt"
 viewBox="0.00 0.00 96.00 120.00" xmlns="http://www.w3.org/2000/svg" xmlns:xlink="http://www.w3.org/1999/xlink">
<g id="graph1" class="graph" transform="scale(1 1) rotate(0) translate(4 116)">
<title>MenuItem</title>
<polygon fill="white" stroke="white" points="-4,5 -4,-116 93,-116 93,5 -4,5"/>
<!-- Box_WidgetsSaveDialog -->
<g id="node1" class="node"><title>Box_WidgetsSaveDialog</title>
<polygon fill="#ffffff" stroke="black" points="-0.5,-1 -0.5,-55 88.5,-55 88.5,-1 -0.5,-1"/>
<text text-anchor="middle" x="44" y="-43.8" font-family="Arial" font-size="8.00">Widgets.SaveDialog</text>
<polyline fill="none" stroke="black" points="-0.5,-37 88.5,-37 "/>
<text text-anchor="middle" x="44" y="-25.8" font-family="Arial" font-size="8.00"> </text>
<polyline fill="none" stroke="black" points="-0.5,-19 88.5,-19 "/>
<text text-anchor="middle" x="44" y="-7.8" font-family="Arial" font-size="8.00"> </text>
</g>
<!-- Box_TextInputDialog -->
<g id="node2" class="node"><title>Box_TextInputDialog</title>
<polygon fill="#ffffff" stroke="black" points="8.5,-93 8.5,-111 79.5,-111 79.5,-93 8.5,-93"/>
<text text-anchor="middle" x="44" y="-99.8" font-family="Arial" font-size="8.00">TextInputDialog</text>
</g>
<!-- Box_TextInputDialog&#45;&gt;Box_WidgetsSaveDialog -->
<g id="edge2" class="edge"><title>Box_TextInputDialog&#45;&gt;Box_WidgetsSaveDialog</title>
<path fill="none" stroke="midnightblue" d="M44,-82.6404C44,-74.1998 44,-64.1602 44,-55.0036"/>
<polygon fill="none" stroke="midnightblue" points="40.5001,-82.9261 44,-92.9261 47.5001,-82.9262 40.5001,-82.9261"/>
</g>
</g>
</svg>
