<?xml version="1.0" encoding="UTF-8" standalone="no"?>
<!DOCTYPE svg PUBLIC "-//W3C//DTD SVG 1.1//EN"
 "http://www.w3.org/Graphics/SVG/1.1/DTD/svg11.dtd">
<!-- Generated by graphviz version 2.26.3 (20100126.1600)
 -->
<!-- Title: MenuItem Pages: 1 -->
<svg width="278pt" height="130pt"
 viewBox="0.00 0.00 278.00 130.00" xmlns="http://www.w3.org/2000/svg" xmlns:xlink="http://www.w3.org/1999/xlink">
<g id="graph1" class="graph" transform="scale(1 1) rotate(0) translate(4 126)">
<title>MenuItem</title>
<polygon fill="white" stroke="white" points="-4,5 -4,-126 275,-126 275,5 -4,5"/>
<!-- Box_WidgetsVerticalMenu -->
<g id="node1" class="node"><title>Box_WidgetsVerticalMenu</title>
<polygon fill="#ffffff" stroke="black" points="0,-1 0,-65 270,-65 270,-1 0,-1"/>
<text text-anchor="middle" x="135" y="-53.8" font-family="Arial" font-size="8.00">Widgets.VerticalMenu</text>
<polyline fill="none" stroke="black" points="0,-47 270,-47 "/>
<text text-anchor="middle" x="135" y="-35.8" font-family="Arial" font-size="8.00"> </text>
<polyline fill="none" stroke="black" points="0,-29 270,-29 "/>
<text text-anchor="start" x="8" y="-17.8" font-family="Arial" font-size="8.00">+ AlignItems () : void</text>
<text text-anchor="start" x="8" y="-7.8" font-family="Arial" font-size="8.00">+ VerticalMenu (GameScreen screen, DisplayLayer drawOrder) : void</text>
</g>
<!-- Box_Menu -->
<g id="node2" class="node"><title>Box_Menu</title>
<polygon fill="#ffffff" stroke="black" points="117,-103 117,-121 153,-121 153,-103 117,-103"/>
<text text-anchor="middle" x="135" y="-109.8" font-family="Arial" font-size="8.00">Menu</text>
</g>
<!-- Box_Menu&#45;&gt;Box_WidgetsVerticalMenu -->
<g id="edge2" class="edge"><title>Box_Menu&#45;&gt;Box_WidgetsVerticalMenu</title>
<path fill="none" stroke="midnightblue" d="M135,-92.8318C135,-84.5161 135,-74.5476 135,-65.1537"/>
<polygon fill="none" stroke="midnightblue" points="131.5,-92.9377 135,-102.938 138.5,-92.9377 131.5,-92.9377"/>
</g>
</g>
</svg>
