<?xml version="1.0" encoding="UTF-8" standalone="no"?>
<!DOCTYPE svg PUBLIC "-//W3C//DTD SVG 1.1//EN"
 "http://www.w3.org/Graphics/SVG/1.1/DTD/svg11.dtd">
<!-- Generated by graphviz version 2.26.3 (20100126.1600)
 -->
<!-- Title: MenuItem Pages: 1 -->
<svg width="342pt" height="138pt"
 viewBox="0.00 0.00 342.00 138.00" xmlns="http://www.w3.org/2000/svg" xmlns:xlink="http://www.w3.org/1999/xlink">
<g id="graph1" class="graph" transform="scale(1 1) rotate(0) translate(4 134)">
<title>MenuItem</title>
<polygon fill="white" stroke="white" points="-4,5 -4,-134 339,-134 339,5 -4,5"/>
<!-- Box_WidgetsKeyInputItem -->
<g id="node1" class="node"><title>Box_WidgetsKeyInputItem</title>
<polygon fill="#ffffff" stroke="black" points="0,-0.5 0,-73.5 334,-73.5 334,-0.5 0,-0.5"/>
<text text-anchor="middle" x="167" y="-62.3" font-family="Arial" font-size="8.00">Widgets.KeyInputItem</text>
<polyline fill="none" stroke="black" points="0,-55.5 334,-55.5 "/>
<text text-anchor="start" x="8" y="-44.3" font-family="Arial" font-size="8.00">&#45; option : OptionInfo</text>
<polyline fill="none" stroke="black" points="0,-37.5 334,-37.5 "/>
<text text-anchor="start" x="8" y="-26.3" font-family="Arial" font-size="8.00">+ OnKeyEvent () : void</text>
<text text-anchor="start" x="8" y="-16.3" font-family="Arial" font-size="8.00">+ KeyInputItem (GameScreen screen, DisplayLayer drawOrder, OptionInfo option) : void</text>
</g>
<!-- Box_InputItem -->
<g id="node2" class="node"><title>Box_InputItem</title>
<polygon fill="#ffffff" stroke="black" points="143,-111 143,-129 191,-129 191,-111 143,-111"/>
<text text-anchor="middle" x="167" y="-117.8" font-family="Arial" font-size="8.00">InputItem</text>
</g>
<!-- Box_InputItem&#45;&gt;Box_WidgetsKeyInputItem -->
<g id="edge2" class="edge"><title>Box_InputItem&#45;&gt;Box_WidgetsKeyInputItem</title>
<path fill="none" stroke="midnightblue" d="M167,-100.675C167,-92.6313 167,-83.0138 167,-73.7203"/>
<polygon fill="none" stroke="midnightblue" points="163.5,-100.8 167,-110.8 170.5,-100.8 163.5,-100.8"/>
</g>
</g>
</svg>
