<?xml version="1.0" encoding="UTF-8" standalone="no"?>
<!DOCTYPE svg PUBLIC "-//W3C//DTD SVG 1.1//EN"
 "http://www.w3.org/Graphics/SVG/1.1/DTD/svg11.dtd">
<!-- Generated by graphviz version 2.26.3 (20100126.1600)
 -->
<!-- Title: MenuItem Pages: 1 -->
<svg width="284pt" height="150pt"
 viewBox="0.00 0.00 284.00 150.00" xmlns="http://www.w3.org/2000/svg" xmlns:xlink="http://www.w3.org/1999/xlink">
<g id="graph1" class="graph" transform="scale(1 1) rotate(0) translate(4 146)">
<title>MenuItem</title>
<polygon fill="white" stroke="white" points="-4,5 -4,-146 281,-146 281,5 -4,5"/>
<!-- Box_WidgetsColorPicker -->
<g id="node1" class="node"><title>Box_WidgetsColorPicker</title>
<polygon fill="#ffffff" stroke="black" points="0,-1 0,-85 276,-85 276,-1 0,-1"/>
<text text-anchor="middle" x="138" y="-73.8" font-family="Arial" font-size="8.00">Widgets.ColorPicker</text>
<polyline fill="none" stroke="black" points="0,-67 276,-67 "/>
<text text-anchor="start" x="8" y="-55.8" font-family="Arial" font-size="8.00">+ Color : Color</text>
<polyline fill="none" stroke="black" points="0,-49 276,-49 "/>
<text text-anchor="start" x="8" y="-37.8" font-family="Arial" font-size="8.00">+ OnKeyEvent () : void</text>
<text text-anchor="start" x="8" y="-27.8" font-family="Arial" font-size="8.00">+ Bounds () : Rectangle</text>
<text text-anchor="start" x="8" y="-17.8" font-family="Arial" font-size="8.00">+ OnLeftClick (Vector2 position, ClickState state, GameTime time) : void</text>
<text text-anchor="start" x="8" y="-7.8" font-family="Arial" font-size="8.00">+ OnRightClick (Vector2 position, ClickState state, GameTime time) : void</text>
</g>
<!-- Box_Widget -->
<g id="node2" class="node"><title>Box_Widget</title>
<polygon fill="#ffffff" stroke="black" points="117.5,-123 117.5,-141 158.5,-141 158.5,-123 117.5,-123"/>
<text text-anchor="middle" x="138" y="-129.8" font-family="Arial" font-size="8.00">Widget</text>
</g>
<!-- Box_Widget&#45;&gt;Box_WidgetsColorPicker -->
<g id="edge2" class="edge"><title>Box_Widget&#45;&gt;Box_WidgetsColorPicker</title>
<path fill="none" stroke="midnightblue" d="M138,-112.617C138,-104.489 138,-94.6982 138,-85.0607"/>
<polygon fill="none" stroke="midnightblue" points="134.5,-112.811 138,-122.811 141.5,-112.811 134.5,-112.811"/>
</g>
</g>
</svg>
