<?xml version="1.0" encoding="UTF-8" standalone="no"?>
<!DOCTYPE svg PUBLIC "-//W3C//DTD SVG 1.1//EN"
 "http://www.w3.org/Graphics/SVG/1.1/DTD/svg11.dtd">
<!-- Generated by graphviz version 2.26.3 (20100126.1600)
 -->
<!-- Title: MenuItem Pages: 1 -->
<svg width="250pt" height="220pt"
 viewBox="0.00 0.00 250.00 220.00" xmlns="http://www.w3.org/2000/svg" xmlns:xlink="http://www.w3.org/1999/xlink">
<g id="graph1" class="graph" transform="scale(1 1) rotate(0) translate(4 216)">
<title>MenuItem</title>
<polygon fill="white" stroke="white" points="-4,5 -4,-216 247,-216 247,5 -4,5"/>
<!-- Box_WidgetsMenu -->
<g id="node1" class="node"><title>Box_WidgetsMenu</title>
<polygon fill="#ffffff" stroke="black" points="0,-1 0,-155 242,-155 242,-1 0,-1"/>
<text text-anchor="middle" x="121" y="-143.8" font-family="Arial" font-size="8.00">Widgets.Menu</text>
<polyline fill="none" stroke="black" points="0,-137 242,-137 "/>
<text text-anchor="start" x="8" y="-125.8" font-family="Arial" font-size="8.00">+ RelativeItemSize : Func&lt;int, Vector2&gt;</text>
<text text-anchor="start" x="8" y="-115.8" font-family="Arial" font-size="8.00">+ RelativeItemPosition : Func&lt;int, Vector2&gt;</text>
<text text-anchor="start" x="8" y="-105.8" font-family="Arial" font-size="8.00">+ ItemForegroundColor : Func&lt;ItemState, Color&gt;</text>
<text text-anchor="start" x="8" y="-95.8" font-family="Arial" font-size="8.00">+ ItemBackgroundColor : Func&lt;ItemState, Color&gt;</text>
<text text-anchor="start" x="8" y="-85.8" font-family="Arial" font-size="8.00">+ ItemAlignX : HorizontalAlignment</text>
<text text-anchor="start" x="8" y="-75.8" font-family="Arial" font-size="8.00">+ ItemAlignY : VerticalAlignment</text>
<polyline fill="none" stroke="black" points="0,-69 242,-69 "/>
<text text-anchor="start" x="8" y="-57.8" font-family="Arial" font-size="8.00">+ Add (MenuItem item) : void</text>
<text text-anchor="start" x="8" y="-47.8" font-family="Arial" font-size="8.00">+ Delete (MenuItem item) : void</text>
<text text-anchor="start" x="8" y="-37.8" font-family="Arial" font-size="8.00">+ GetItem (Integer i) : MenuItem</text>
<text text-anchor="start" x="8" y="-27.8" font-family="Arial" font-size="8.00">+ Size () : Integer</text>
<text text-anchor="start" x="8" y="-17.8" font-family="Arial" font-size="8.00">+ GetEnumerator () : IEnumerator</text>
<text text-anchor="start" x="8" y="-7.8" font-family="Arial" font-size="8.00">+ Menu (GameScreen screen, DisplayLayer drawOrder) : void</text>
</g>
<!-- Box_Widget -->
<g id="node2" class="node"><title>Box_Widget</title>
<polygon fill="#ffffff" stroke="black" points="100.5,-193 100.5,-211 141.5,-211 141.5,-193 100.5,-193"/>
<text text-anchor="middle" x="121" y="-199.8" font-family="Arial" font-size="8.00">Widget</text>
</g>
<!-- Box_Widget&#45;&gt;Box_WidgetsMenu -->
<g id="edge2" class="edge"><title>Box_Widget&#45;&gt;Box_WidgetsMenu</title>
<path fill="none" stroke="midnightblue" d="M121,-182.613C121,-174.793 121,-165.22 121,-155.074"/>
<polygon fill="none" stroke="midnightblue" points="117.5,-182.68 121,-192.68 124.5,-182.68 117.5,-182.68"/>
</g>
</g>
</svg>
