<?xml version="1.0" encoding="UTF-8" standalone="no"?>
<!DOCTYPE svg PUBLIC "-//W3C//DTD SVG 1.1//EN"
 "http://www.w3.org/Graphics/SVG/1.1/DTD/svg11.dtd">
<!-- Generated by graphviz version 2.26.3 (20100126.1600)
 -->
<!-- Title: MenuItem Pages: 1 -->
<svg width="112pt" height="120pt"
 viewBox="0.00 0.00 112.00 120.00" xmlns="http://www.w3.org/2000/svg" xmlns:xlink="http://www.w3.org/1999/xlink">
<g id="graph1" class="graph" transform="scale(1 1) rotate(0) translate(4 116)">
<title>MenuItem</title>
<polygon fill="white" stroke="white" points="-4,5 -4,-116 109,-116 109,5 -4,5"/>
<!-- Box_WidgetMouseHandler -->
<g id="node1" class="node"><title>Box_WidgetMouseHandler</title>
<polygon fill="#ffffff" stroke="black" points="5.5,-1 5.5,-55 98.5,-55 98.5,-1 5.5,-1"/>
<text text-anchor="middle" x="52" y="-43.8" font-family="Arial" font-size="8.00">WidgetMouseHandler</text>
<polyline fill="none" stroke="black" points="5.5,-37 98.5,-37 "/>
<text text-anchor="middle" x="52" y="-25.8" font-family="Arial" font-size="8.00"> </text>
<polyline fill="none" stroke="black" points="5.5,-19 98.5,-19 "/>
<text text-anchor="start" x="13.5" y="-7.8" font-family="Arial" font-size="8.00">+ Update () : void</text>
</g>
<!-- Box_GameScreenComponent -->
<g id="node2" class="node"><title>Box_GameScreenComponent</title>
<polygon fill="#ffffff" stroke="black" points="0,-93 0,-111 104,-111 104,-93 0,-93"/>
<text text-anchor="middle" x="52" y="-99.8" font-family="Arial" font-size="8.00">GameScreenComponent</text>
</g>
<!-- Box_GameScreenComponent&#45;&gt;Box_WidgetMouseHandler -->
<g id="edge2" class="edge"><title>Box_GameScreenComponent&#45;&gt;Box_WidgetMouseHandler</title>
<path fill="none" stroke="midnightblue" d="M52,-82.6404C52,-74.1998 52,-64.1602 52,-55.0036"/>
<polygon fill="none" stroke="midnightblue" points="48.5001,-82.9261 52,-92.9261 55.5001,-82.9262 48.5001,-82.9261"/>
</g>
</g>
</svg>
