<?xml version="1.0" encoding="UTF-8" standalone="no"?>
<!DOCTYPE svg PUBLIC "-//W3C//DTD SVG 1.1//EN"
 "http://www.w3.org/Graphics/SVG/1.1/DTD/svg11.dtd">
<!-- Generated by graphviz version 2.26.3 (20100126.1600)
 -->
<!-- Title: MenuItem Pages: 1 -->
<svg width="354pt" height="130pt"
 viewBox="0.00 0.00 354.00 130.00" xmlns="http://www.w3.org/2000/svg" xmlns:xlink="http://www.w3.org/1999/xlink">
<g id="graph1" class="graph" transform="scale(1 1) rotate(0) translate(4 126)">
<title>MenuItem</title>
<polygon fill="white" stroke="white" points="-4,5 -4,-126 351,-126 351,5 -4,5"/>
<!-- Box_WidgetsMenuButton -->
<g id="node1" class="node"><title>Box_WidgetsMenuButton</title>
<polygon fill="#ffffff" stroke="black" points="-0.5,-1 -0.5,-65 346.5,-65 346.5,-1 -0.5,-1"/>
<text text-anchor="middle" x="173" y="-53.8" font-family="Arial" font-size="8.00">Widgets.MenuButton</text>
<polyline fill="none" stroke="black" points="-0.5,-47 346.5,-47 "/>
<text text-anchor="start" x="7.5" y="-35.8" font-family="Arial" font-size="8.00">+ OnClick : Action</text>
<polyline fill="none" stroke="black" points="-0.5,-29 346.5,-29 "/>
<text text-anchor="start" x="7.5" y="-17.8" font-family="Arial" font-size="8.00">+ MenuButton (GameScreen screen, DisplayLayer drawOrder, String name, Action onClick)</text>
<text text-anchor="start" x="7.5" y="-7.8" font-family="Arial" font-size="8.00">: void</text>
</g>
<!-- Box_MenuItem -->
<g id="node2" class="node"><title>Box_MenuItem</title>
<polygon fill="#ffffff" stroke="black" points="148,-103 148,-121 198,-121 198,-103 148,-103"/>
<text text-anchor="middle" x="173" y="-109.8" font-family="Arial" font-size="8.00">MenuItem</text>
</g>
<!-- Box_MenuItem&#45;&gt;Box_WidgetsMenuButton -->
<g id="edge2" class="edge"><title>Box_MenuItem&#45;&gt;Box_WidgetsMenuButton</title>
<path fill="none" stroke="midnightblue" d="M173,-92.8318C173,-84.5161 173,-74.5476 173,-65.1537"/>
<polygon fill="none" stroke="midnightblue" points="169.5,-92.9377 173,-102.938 176.5,-92.9377 169.5,-92.9377"/>
</g>
</g>
</svg>
