<?xml version="1.0" encoding="UTF-8" standalone="no"?>
<!DOCTYPE svg PUBLIC "-//W3C//DTD SVG 1.1//EN"
 "http://www.w3.org/Graphics/SVG/1.1/DTD/svg11.dtd">
<!-- Generated by graphviz version 2.26.3 (20100126.1600)
 -->
<!-- Title: MenuItem Pages: 1 -->
<svg width="284pt" height="170pt"
 viewBox="0.00 0.00 284.00 170.00" xmlns="http://www.w3.org/2000/svg" xmlns:xlink="http://www.w3.org/1999/xlink">
<g id="graph1" class="graph" transform="scale(1 1) rotate(0) translate(4 166)">
<title>MenuItem</title>
<polygon fill="white" stroke="white" points="-4,5 -4,-166 281,-166 281,5 -4,5"/>
<!-- Box_WidgetsMenuItem -->
<g id="node1" class="node"><title>Box_WidgetsMenuItem</title>
<polygon fill="#ffffff" stroke="black" points="0,-1 0,-105 276,-105 276,-1 0,-1"/>
<text text-anchor="middle" x="138" y="-93.8" font-family="Arial" font-size="8.00">Widgets.MenuItem</text>
<polyline fill="none" stroke="black" points="0,-87 276,-87 "/>
<text text-anchor="start" x="8" y="-75.8" font-family="Arial" font-size="8.00">+ ItemState : ItemState</text>
<text text-anchor="start" x="8" y="-65.8" font-family="Arial" font-size="8.00">+ ItemOrder : Integer</text>
<text text-anchor="start" x="8" y="-55.8" font-family="Arial" font-size="8.00">+ Text : String</text>
<polyline fill="none" stroke="black" points="0,-49 276,-49 "/>
<text text-anchor="start" x="8" y="-37.8" font-family="Arial" font-size="8.00">+ OnLeftClick (Vector2 position, ClickState state, GameTime time) : void</text>
<text text-anchor="start" x="8" y="-27.8" font-family="Arial" font-size="8.00">+ OnRightClick (Vector2 position, ClickState state, GameTime time) : void</text>
<text text-anchor="start" x="8" y="-17.8" font-family="Arial" font-size="8.00">+ OnKeyEvent () : void</text>
<text text-anchor="start" x="8" y="-7.8" font-family="Arial" font-size="8.00">+ Bounds () : Rectangle</text>
</g>
<!-- Box_Widget -->
<g id="node2" class="node"><title>Box_Widget</title>
<polygon fill="#ffffff" stroke="black" points="117.5,-143 117.5,-161 158.5,-161 158.5,-143 117.5,-143"/>
<text text-anchor="middle" x="138" y="-149.8" font-family="Arial" font-size="8.00">Widget</text>
</g>
<!-- Box_Widget&#45;&gt;Box_WidgetsMenuItem -->
<g id="edge2" class="edge"><title>Box_Widget&#45;&gt;Box_WidgetsMenuItem</title>
<path fill="none" stroke="midnightblue" d="M138,-132.816C138,-124.773 138,-114.992 138,-105.073"/>
<polygon fill="none" stroke="midnightblue" points="134.5,-132.864 138,-142.864 141.5,-132.864 134.5,-132.864"/>
</g>
</g>
</svg>
