<?xml version="1.0" encoding="UTF-8"?><svg xmlns="http://www.w3.org/2000/svg" xmlns:xlink="http://www.w3.org/1999/xlink" fill-opacity="1" color-rendering="auto" color-interpolation="auto" stroke="black" text-rendering="auto" stroke-linecap="square" width="588" stroke-miterlimit="10" stroke-opacity="1" shape-rendering="auto" fill="black" stroke-dasharray="none" font-weight="normal" stroke-width="1" height="411" font-family="'Dialog'" font-style="normal" stroke-linejoin="miter" font-size="12" stroke-dashoffset="0" image-rendering="auto">
  <!--Generated by ySVG 2.5-->
  <defs id="genericDefs"/>
  <g>
    <defs id="defs1">
      <clipPath clipPathUnits="userSpaceOnUse" id="clipPath1">
        <path d="M0 0 L588 0 L588 411 L0 411 L0 0 Z"/>
      </clipPath>
      <clipPath clipPathUnits="userSpaceOnUse" id="clipPath2">
        <path d="M452 0 L1040 0 L1040 411 L452 411 L452 0 Z"/>
      </clipPath>
    </defs>
    <g stroke-linecap="butt" transform="matrix(1,0,0,1,-452,0)" text-rendering="optimizeQuality" font-family="'L M Sans10'" shape-rendering="geometricPrecision" font-weight="bold" stroke-miterlimit="1.45">
      <text x="788.6977" xml:space="preserve" y="23.5795" clip-path="url(#clipPath2)" stroke="none">in game</text>
    </g>
    <g text-rendering="optimizeQuality" stroke-miterlimit="1.45" shape-rendering="geometricPrecision" transform="matrix(1,0,0,1,-452,0)" stroke-linecap="butt">
      <rect x="750.9273" y="0" clip-path="url(#clipPath2)" fill="none" width="119.185" rx="4" ry="4" height="37.115"/>
    </g>
    <g transform="matrix(1,0,0,1,-452,0)" fill-opacity="0.2" fill="rgb(0,0,0)" text-rendering="optimizeQuality" shape-rendering="geometricPrecision" stroke="rgb(0,0,0)" stroke-opacity="0.2">
      <rect x="750.9273" y="82.115" clip-path="url(#clipPath2)" width="119.185" rx="4" ry="4" height="37.115" stroke="none"/>
    </g>
    <g stroke-linecap="butt" transform="matrix(1,0,0,1,-452,0)" text-rendering="optimizeQuality" font-family="'L M Sans10'" shape-rendering="geometricPrecision" font-weight="bold" stroke-miterlimit="1.45">
      <text x="789.3397" xml:space="preserve" y="105.6945" clip-path="url(#clipPath2)" stroke="none">settings</text>
      <rect x="750.9273" y="82.115" clip-path="url(#clipPath2)" fill="none" width="119.185" rx="4" ry="4" height="37.115"/>
    </g>
    <g transform="matrix(1,0,0,1,-452,0)" fill-opacity="0.2" fill="rgb(0,0,0)" text-rendering="optimizeQuality" shape-rendering="geometricPrecision" stroke="rgb(0,0,0)" stroke-opacity="0.2">
      <rect x="601.7416" y="179.23" clip-path="url(#clipPath2)" width="119.185" rx="4" ry="4" height="37.115" stroke="none"/>
    </g>
    <g stroke-linecap="butt" transform="matrix(1,0,0,1,-452,0)" text-rendering="optimizeQuality" font-family="'L M Sans10'" shape-rendering="geometricPrecision" font-weight="bold" stroke-miterlimit="1.45">
      <text x="639.71" xml:space="preserve" y="202.8095" clip-path="url(#clipPath2)" stroke="none">controls</text>
      <rect x="601.7416" y="179.23" clip-path="url(#clipPath2)" fill="none" width="119.185" rx="4" ry="4" height="37.115"/>
    </g>
    <g transform="matrix(1,0,0,1,-452,0)" fill-opacity="0.2" fill="rgb(0,0,0)" text-rendering="optimizeQuality" shape-rendering="geometricPrecision" stroke="rgb(0,0,0)" stroke-opacity="0.2">
      <rect x="750.9273" y="179.23" clip-path="url(#clipPath2)" width="119.185" rx="4" ry="4" height="37.115" stroke="none"/>
    </g>
    <g stroke-linecap="butt" transform="matrix(1,0,0,1,-452,0)" text-rendering="optimizeQuality" font-family="'L M Sans10'" shape-rendering="geometricPrecision" font-weight="bold" stroke-miterlimit="1.45">
      <text x="795.8018" xml:space="preserve" y="202.8095" clip-path="url(#clipPath2)" stroke="none">audio</text>
      <rect x="750.9273" y="179.23" clip-path="url(#clipPath2)" fill="none" width="119.185" rx="4" ry="4" height="37.115"/>
    </g>
    <g transform="matrix(1,0,0,1,-452,0)" fill-opacity="0.2" fill="rgb(0,0,0)" text-rendering="optimizeQuality" shape-rendering="geometricPrecision" stroke="rgb(0,0,0)" stroke-opacity="0.2">
      <rect x="452.5563" y="179.23" clip-path="url(#clipPath2)" width="119.185" rx="4" ry="4" height="37.115" stroke="none"/>
    </g>
    <g stroke-linecap="butt" transform="matrix(1,0,0,1,-452,0)" text-rendering="optimizeQuality" font-family="'L M Sans10'" shape-rendering="geometricPrecision" font-weight="bold" stroke-miterlimit="1.45">
      <text x="497.8807" xml:space="preserve" y="202.8095" clip-path="url(#clipPath2)" stroke="none">video</text>
      <rect x="452.5563" y="179.23" clip-path="url(#clipPath2)" fill="none" width="119.185" rx="4" ry="4" height="37.115"/>
    </g>
    <g transform="matrix(1,0,0,1,-452,0)" fill-opacity="0.2" fill="rgb(0,0,0)" text-rendering="optimizeQuality" shape-rendering="geometricPrecision" stroke="rgb(0,0,0)" stroke-opacity="0.2">
      <rect x="900.1131" y="179.23" clip-path="url(#clipPath2)" width="119.185" rx="4" ry="4" height="37.115" stroke="none"/>
    </g>
    <g stroke-linecap="butt" transform="matrix(1,0,0,1,-452,0)" text-rendering="optimizeQuality" font-family="'L M Sans10'" shape-rendering="geometricPrecision" font-weight="bold" stroke-miterlimit="1.45">
      <text x="921.9113" xml:space="preserve" y="202.8095" clip-path="url(#clipPath2)" stroke="none">custom colors</text>
      <rect x="900.1131" y="179.23" clip-path="url(#clipPath2)" fill="none" width="119.185" rx="4" ry="4" height="37.115"/>
      <text x="649.5861" xml:space="preserve" y="105.6945" clip-path="url(#clipPath2)" stroke="none">save</text>
      <rect x="601.7416" y="82.115" clip-path="url(#clipPath2)" fill="none" width="119.185" rx="4" ry="4" height="37.115"/>
      <text x="949.0135" xml:space="preserve" y="105.6945" clip-path="url(#clipPath2)" stroke="none">quit</text>
      <rect x="900.1131" y="82.115" clip-path="url(#clipPath2)" fill="none" width="119.185" rx="4" ry="4" height="37.115"/>
    </g>
    <g transform="matrix(1,0,0,1,-452,0)" fill-opacity="0.2" fill="rgb(0,0,0)" text-rendering="optimizeQuality" shape-rendering="geometricPrecision" stroke="rgb(0,0,0)" stroke-opacity="0.2">
      <rect x="750.9277" y="276.345" clip-path="url(#clipPath2)" width="119.185" rx="4" ry="4" height="37.115" stroke="none"/>
    </g>
    <g stroke-linecap="butt" transform="matrix(1,0,0,1,-452,0)" text-rendering="optimizeQuality" font-family="'L M Sans10'" shape-rendering="geometricPrecision" font-weight="bold" stroke-miterlimit="1.45">
      <text x="771.166" xml:space="preserve" y="299.9245" clip-path="url(#clipPath2)" stroke="none">render options</text>
      <rect x="750.9277" y="276.345" clip-path="url(#clipPath2)" fill="none" width="119.185" rx="4" ry="4" height="37.115"/>
    </g>
    <g transform="matrix(1,0,0,1,-452,0)" fill-opacity="0.2" fill="rgb(0,0,0)" text-rendering="optimizeQuality" shape-rendering="geometricPrecision" stroke="rgb(0,0,0)" stroke-opacity="0.2">
      <rect x="750.9277" y="373.46" clip-path="url(#clipPath2)" width="119.185" rx="4" ry="4" height="37.115" stroke="none"/>
    </g>
    <g stroke-linecap="butt" transform="matrix(1,0,0,1,-452,0)" text-rendering="optimizeQuality" font-family="'L M Sans10'" shape-rendering="geometricPrecision" font-weight="bold" stroke-miterlimit="1.45">
      <text x="791.7341" xml:space="preserve" y="397.0396" clip-path="url(#clipPath2)" stroke="none">normal</text>
      <rect x="750.9277" y="373.46" clip-path="url(#clipPath2)" fill="none" width="119.185" rx="4" ry="4" height="37.115"/>
    </g>
    <g transform="matrix(1,0,0,1,-452,0)" fill-opacity="0.2" fill="rgb(0,0,0)" text-rendering="optimizeQuality" shape-rendering="geometricPrecision" stroke="rgb(0,0,0)" stroke-opacity="0.2">
      <rect x="601.7424" y="373.46" clip-path="url(#clipPath2)" width="119.185" rx="4" ry="4" height="37.115" stroke="none"/>
    </g>
    <g stroke-linecap="butt" transform="matrix(1,0,0,1,-452,0)" text-rendering="optimizeQuality" font-family="'L M Sans10'" shape-rendering="geometricPrecision" font-weight="bold" stroke-miterlimit="1.45">
      <text x="652.2089" xml:space="preserve" y="397.0396" clip-path="url(#clipPath2)" stroke="none">flat</text>
      <rect x="601.7424" y="373.46" clip-path="url(#clipPath2)" fill="none" width="119.185" rx="4" ry="4" height="37.115"/>
    </g>
    <g transform="matrix(1,0,0,1,-452,0)" fill-opacity="0.2" fill="rgb(0,0,0)" text-rendering="optimizeQuality" shape-rendering="geometricPrecision" stroke="rgb(0,0,0)" stroke-opacity="0.2">
      <rect x="900.1131" y="373.46" clip-path="url(#clipPath2)" width="119.185" rx="4" ry="4" height="37.115" stroke="none"/>
    </g>
    <g stroke-linecap="butt" transform="matrix(1,0,0,1,-452,0)" text-rendering="optimizeQuality" font-family="'L M Sans10'" shape-rendering="geometricPrecision" font-weight="bold" stroke-miterlimit="1.45">
      <text x="924.0953" xml:space="preserve" y="397.0396" clip-path="url(#clipPath2)" stroke="none">some more...</text>
      <rect x="900.1131" y="373.46" clip-path="url(#clipPath2)" fill="none" width="119.185" rx="4" ry="4" height="37.115"/>
      <path fill="none" d="M810.5198 37.115 L810.5198 82.0711" clip-path="url(#clipPath2)"/>
      <path fill="none" d="M770.7915 119.23 L770.7915 149.23 L661.3341 149.23 L661.3341 179.2007" clip-path="url(#clipPath2)"/>
      <path fill="none" d="M810.5198 119.23 L810.5198 179.2007" clip-path="url(#clipPath2)"/>
      <path fill="none" d="M750.8981 100.6725 L735.927 100.6725 L735.927 134.23 L512.1488 134.23 L512.1488 179.1861" clip-path="url(#clipPath2)"/>
      <path fill="none" d="M870.1417 100.6725 L885.1127 100.6725 L885.1127 134.23 L959.7056 134.23 L959.7056 179.1861" clip-path="url(#clipPath2)"/>
      <path fill="none" d="M770.7915 37.115 L770.7915 52.115 L661.3341 52.115 L661.3341 82.0857" clip-path="url(#clipPath2)"/>
      <path fill="none" d="M870.1561 25.542 L959.7056 25.542 L959.7056 82.0874" clip-path="url(#clipPath2)"/>
      <path fill="none" d="M870.0844 11.3044 L1039.2981 11.3044 L1039.2981 246.345 L810.5203 246.345 L810.5203 276.3157" clip-path="url(#clipPath2)"/>
      <path fill="none" d="M810.5203 313.46 L810.5203 373.4307" clip-path="url(#clipPath2)"/>
      <path fill="none" d="M750.884 294.9025 L661.3349 294.9025 L661.3349 373.4216" clip-path="url(#clipPath2)"/>
      <path fill="none" d="M870.1565 294.9025 L959.7056 294.9025 L959.7056 373.4216" clip-path="url(#clipPath2)"/>
    </g>
  </g>
</svg>
