<?xml version="1.0" encoding="UTF-8"?><svg xmlns="http://www.w3.org/2000/svg" xmlns:xlink="http://www.w3.org/1999/xlink" fill-opacity="1" color-rendering="auto" color-interpolation="auto" stroke="black" text-rendering="auto" stroke-linecap="square" width="593" stroke-miterlimit="10" stroke-opacity="1" shape-rendering="auto" fill="black" stroke-dasharray="none" font-weight="normal" stroke-width="1" height="449" font-family="'Dialog'" font-style="normal" stroke-linejoin="miter" font-size="12" stroke-dashoffset="0" image-rendering="auto">
  <!--Generated by ySVG 2.5-->
  <defs id="genericDefs"/>
  <g>
    <defs id="defs1">
      <clipPath clipPathUnits="userSpaceOnUse" id="clipPath1">
        <path d="M0 0 L593 0 L593 449 L0 449 L0 0 Z"/>
      </clipPath>
      <clipPath clipPathUnits="userSpaceOnUse" id="clipPath2">
        <path d="M581 0 L1174 0 L1174 449 L581 449 L581 0 Z"/>
      </clipPath>
    </defs>
    <g stroke-linecap="butt" transform="matrix(1,0,0,1,-581,0)" text-rendering="optimizeQuality" font-family="'L M Sans10'" shape-rendering="geometricPrecision" font-weight="bold" stroke-miterlimit="1.45">
      <text x="780.0632" xml:space="preserve" y="23.5795" clip-path="url(#clipPath2)" stroke="none">main menu</text>
    </g>
    <g text-rendering="optimizeQuality" stroke-miterlimit="1.45" shape-rendering="geometricPrecision" transform="matrix(1,0,0,1,-581,0)" stroke-linecap="butt">
      <rect x="750.9269" y="0" clip-path="url(#clipPath2)" fill="none" width="119.185" rx="4" ry="4" height="37.115"/>
      <text x="789.1113" y="105.6945" clip-path="url(#clipPath2)" font-family="'L M Sans10'" stroke="none" font-weight="bold" xml:space="preserve">creative</text>
      <rect x="750.9269" y="82.115" clip-path="url(#clipPath2)" fill="none" width="119.185" rx="4" ry="4" height="37.115"/>
      <text x="1008.9774" y="105.6945" clip-path="url(#clipPath2)" font-family="'L M Sans10'" stroke="none" font-weight="bold" xml:space="preserve">challenge</text>
      <rect x="974.7051" y="82.115" clip-path="url(#clipPath2)" fill="none" width="119.185" rx="4" ry="4" height="37.115"/>
    </g>
    <g transform="matrix(1,0,0,1,-581,0)" fill-opacity="0.2" fill="rgb(0,0,0)" text-rendering="optimizeQuality" shape-rendering="geometricPrecision" stroke="rgb(0,0,0)" stroke-opacity="0.2">
      <rect x="1054.2976" y="246.9596" clip-path="url(#clipPath2)" width="119.185" rx="4" ry="4" height="37.115" stroke="none"/>
    </g>
    <g stroke-linecap="butt" transform="matrix(1,0,0,1,-581,0)" text-rendering="optimizeQuality" font-family="'L M Sans10'" shape-rendering="geometricPrecision" font-weight="bold" stroke-miterlimit="1.45">
      <text x="1095.7999" xml:space="preserve" y="270.5392" clip-path="url(#clipPath2)" stroke="none">credits</text>
      <rect x="1054.2976" y="246.9596" clip-path="url(#clipPath2)" fill="none" width="119.185" rx="4" ry="4" height="37.115"/>
    </g>
    <g transform="matrix(1,0,0,1,-581,0)" fill-opacity="0.2" fill="rgb(0,0,0)" text-rendering="optimizeQuality" shape-rendering="geometricPrecision" stroke="rgb(0,0,0)" stroke-opacity="0.2">
      <rect x="900.1123" y="329.6892" clip-path="url(#clipPath2)" width="119.185" rx="4" ry="4" height="37.115" stroke="none"/>
    </g>
    <g stroke-linecap="butt" transform="matrix(1,0,0,1,-581,0)" text-rendering="optimizeQuality" font-family="'L M Sans10'" shape-rendering="geometricPrecision" font-weight="bold" stroke-miterlimit="1.45">
      <text x="938.5246" xml:space="preserve" y="353.2688" clip-path="url(#clipPath2)" stroke="none">settings</text>
      <rect x="900.1123" y="329.6892" clip-path="url(#clipPath2)" fill="none" width="119.185" rx="4" ry="4" height="37.115"/>
      <text x="799.6234" xml:space="preserve" y="179.2235" clip-path="url(#clipPath2)" stroke="none">new</text>
      <text x="798.2433" xml:space="preserve" y="196.3956" clip-path="url(#clipPath2)" stroke="none">knot</text>
      <rect x="750.9269" y="164.23" clip-path="url(#clipPath2)" fill="none" width="119.185" rx="4" ry="4" height="37.115"/>
      <text x="650.438" xml:space="preserve" y="179.2235" clip-path="url(#clipPath2)" stroke="none">new</text>
      <text x="634.7299" xml:space="preserve" y="196.3956" clip-path="url(#clipPath2)" stroke="none">Challenge</text>
      <rect x="601.7416" y="164.23" clip-path="url(#clipPath2)" fill="none" width="119.185" rx="4" ry="4" height="37.115"/>
      <text x="948.3527" xml:space="preserve" y="187.8095" clip-path="url(#clipPath2)" stroke="none">load</text>
      <rect x="900.1123" y="164.23" clip-path="url(#clipPath2)" fill="none" width="119.185" rx="4" ry="4" height="37.115"/>
      <text x="788.6973" xml:space="preserve" y="270.5392" clip-path="url(#clipPath2)" stroke="none">in game</text>
      <rect x="750.9269" y="246.9596" clip-path="url(#clipPath2)" fill="none" width="119.185" rx="4" ry="4" height="37.115"/>
    </g>
    <g transform="matrix(1,0,0,1,-581,0)" fill-opacity="0.2" fill="rgb(0,0,0)" text-rendering="optimizeQuality" shape-rendering="geometricPrecision" stroke="rgb(0,0,0)" stroke-opacity="0.2">
      <rect x="750.9269" y="411.8042" clip-path="url(#clipPath2)" width="119.185" rx="4" ry="4" height="37.115" stroke="none"/>
    </g>
    <g stroke-linecap="butt" transform="matrix(1,0,0,1,-581,0)" text-rendering="optimizeQuality" font-family="'L M Sans10'" shape-rendering="geometricPrecision" font-weight="bold" stroke-miterlimit="1.45">
      <text x="788.8953" xml:space="preserve" y="435.3838" clip-path="url(#clipPath2)" stroke="none">controls</text>
      <rect x="750.9269" y="411.8042" clip-path="url(#clipPath2)" fill="none" width="119.185" rx="4" ry="4" height="37.115"/>
    </g>
    <g transform="matrix(1,0,0,1,-581,0)" fill-opacity="0.2" fill="rgb(0,0,0)" text-rendering="optimizeQuality" shape-rendering="geometricPrecision" stroke="rgb(0,0,0)" stroke-opacity="0.2">
      <rect x="900.1123" y="411.8042" clip-path="url(#clipPath2)" width="119.185" rx="4" ry="4" height="37.115" stroke="none"/>
    </g>
    <g stroke-linecap="butt" transform="matrix(1,0,0,1,-581,0)" text-rendering="optimizeQuality" font-family="'L M Sans10'" shape-rendering="geometricPrecision" font-weight="bold" stroke-miterlimit="1.45">
      <text x="944.9866" xml:space="preserve" y="435.3838" clip-path="url(#clipPath2)" stroke="none">audio</text>
      <rect x="900.1123" y="411.8042" clip-path="url(#clipPath2)" fill="none" width="119.185" rx="4" ry="4" height="37.115"/>
    </g>
    <g transform="matrix(1,0,0,1,-581,0)" fill-opacity="0.2" fill="rgb(0,0,0)" text-rendering="optimizeQuality" shape-rendering="geometricPrecision" stroke="rgb(0,0,0)" stroke-opacity="0.2">
      <rect x="601.7416" y="411.8042" clip-path="url(#clipPath2)" width="119.185" rx="4" ry="4" height="37.115" stroke="none"/>
    </g>
    <g stroke-linecap="butt" transform="matrix(1,0,0,1,-581,0)" text-rendering="optimizeQuality" font-family="'L M Sans10'" shape-rendering="geometricPrecision" font-weight="bold" stroke-miterlimit="1.45">
      <text x="647.066" xml:space="preserve" y="435.3838" clip-path="url(#clipPath2)" stroke="none">video</text>
      <rect x="601.7416" y="411.8042" clip-path="url(#clipPath2)" fill="none" width="119.185" rx="4" ry="4" height="37.115"/>
    </g>
    <g transform="matrix(1,0,0,1,-581,0)" fill-opacity="0.2" fill="rgb(0,0,0)" text-rendering="optimizeQuality" shape-rendering="geometricPrecision" stroke="rgb(0,0,0)" stroke-opacity="0.2">
      <rect x="1049.2976" y="411.8042" clip-path="url(#clipPath2)" width="119.185" rx="4" ry="4" height="37.115" stroke="none"/>
    </g>
    <g stroke-linecap="butt" transform="matrix(1,0,0,1,-581,0)" text-rendering="optimizeQuality" font-family="'L M Sans10'" shape-rendering="geometricPrecision" font-weight="bold" stroke-miterlimit="1.45">
      <text x="1071.0958" xml:space="preserve" y="435.3838" clip-path="url(#clipPath2)" stroke="none">custom colors</text>
      <rect x="1049.2976" y="411.8042" clip-path="url(#clipPath2)" fill="none" width="119.185" rx="4" ry="4" height="37.115"/>
      <path fill="none" d="M810.5195 37.115 L810.5195 82.0711" clip-path="url(#clipPath2)"/>
      <path fill="none" d="M850.2478 37.115 L850.2478 52.115 L1034.2976 52.115 L1034.2976 82.0857" clip-path="url(#clipPath2)"/>
      <path fill="none" d="M870.1119 18.5575 L1113.8901 18.5575 L1113.8901 246.9436" clip-path="url(#clipPath2)"/>
      <path fill="none" d="M750.8856 18.5575 L581.7416 18.5575 L581.7416 306.5746 L959.7048 306.5746 L959.7048 329.6441" clip-path="url(#clipPath2)"/>
      <path fill="none" d="M810.5195 119.23 L810.5195 164.1861" clip-path="url(#clipPath2)"/>
      <path fill="none" d="M750.8832 100.6725 L661.3341 100.6725 L661.3341 164.199" clip-path="url(#clipPath2)"/>
      <path fill="none" d="M870.1119 100.6725 L959.7048 100.6725 L959.7048 164.199" clip-path="url(#clipPath2)"/>
      <path fill="none" d="M810.5195 201.345 L810.5195 238.9151" clip-path="url(#clipPath2)"/>
      <path d="M810.5195 246.9151 L815.5195 234.9151 L810.5195 237.9151 L805.5195 234.9151 Z" clip-path="url(#clipPath2)" stroke="none"/>
      <path fill="none" d="M661.3341 201.345 L661.3341 216.9596 L810.5195 216.9596 L810.5195 238.9303" clip-path="url(#clipPath2)"/>
      <path d="M810.5195 246.9303 L815.5195 234.9303 L810.5195 237.9303 L805.5195 234.9303 Z" clip-path="url(#clipPath2)" stroke="none"/>
      <path fill="none" d="M959.7048 201.345 L959.7048 216.9596 L810.5195 216.9596 L810.5195 238.9303" clip-path="url(#clipPath2)"/>
      <path d="M810.5195 246.9303 L815.5195 234.9303 L810.5195 237.9303 L805.5195 234.9303 Z" clip-path="url(#clipPath2)" stroke="none"/>
      <path fill="none" d="M1034.2976 119.23 L1034.2976 216.9596 L810.5195 216.9596 L810.5195 238.9303" clip-path="url(#clipPath2)"/>
      <path d="M810.5195 246.9303 L815.5195 234.9303 L810.5195 237.9303 L805.5195 234.9303 Z" clip-path="url(#clipPath2)" stroke="none"/>
      <path fill="none" d="M919.9764 366.8042 L919.9764 381.8042 L810.5195 381.8042 L810.5195 411.7749" clip-path="url(#clipPath2)"/>
      <path fill="none" d="M959.7048 366.8042 L959.7048 411.7603" clip-path="url(#clipPath2)"/>
      <path fill="none" d="M900.0831 348.2467 L661.3341 348.2467 L661.3341 411.7732" clip-path="url(#clipPath2)"/>
      <path fill="none" d="M1019.2972 348.2467 L1108.8901 348.2467 L1108.8901 411.7732" clip-path="url(#clipPath2)"/>
    </g>
  </g>
</svg>
