<?xml version="1.0" encoding="UTF-8" standalone="no"?>
<!DOCTYPE svg PUBLIC "-//W3C//DTD SVG 1.1//EN"
 "http://www.w3.org/Graphics/SVG/1.1/DTD/svg11.dtd">
<!-- Generated by graphviz version 2.26.3 (20100126.1600)
 -->
<!-- Title: MenuItem Pages: 1 -->
<svg width="226pt" height="170pt"
 viewBox="0.00 0.00 226.00 170.00" xmlns="http://www.w3.org/2000/svg" xmlns:xlink="http://www.w3.org/1999/xlink">
<g id="graph1" class="graph" transform="scale(1 1) rotate(0) translate(4 166)">
<title>MenuItem</title>
<polygon fill="white" stroke="white" points="-4,5 -4,-166 223,-166 223,5 -4,5"/>
<!-- Box_Angles3 -->
<g id="node1" class="node"><title>Box_Angles3</title>
<polygon fill="#ffffff" stroke="black" points="0,-1 0,-105 218,-105 218,-1 0,-1"/>
<text text-anchor="middle" x="109" y="-93.8" font-family="Arial" font-size="8.00">Angles3</text>
<polyline fill="none" stroke="black" points="0,-87 218,-87 "/>
<text text-anchor="start" x="8" y="-75.8" font-family="Arial" font-size="8.00">+ X : float</text>
<text text-anchor="start" x="8" y="-65.8" font-family="Arial" font-size="8.00">+ Y : float</text>
<text text-anchor="start" x="8" y="-55.8" font-family="Arial" font-size="8.00">+ Z : float</text>
<text text-anchor="start" x="8" y="-45.8" font-family="Arial" font-size="8.00">+ Zero : Angles3 static</text>
<polyline fill="none" stroke="black" points="0,-39 218,-39 "/>
<text text-anchor="start" x="8" y="-27.8" font-family="Arial" font-size="8.00">+ FromDegrees (float X, float Y, float Z) : Angles3 static</text>
<text text-anchor="start" x="8" y="-17.8" font-family="Arial" font-size="8.00">+ Angles3 (float X, float Y, float Z) : void</text>
<text text-anchor="start" x="8" y="-7.8" font-family="Arial" font-size="8.00">+ ToDegrees (float X, float Y, float Z) : void</text>
</g>
<!-- Box_IEquatable -->
<g id="node2" class="node"><title>Box_IEquatable</title>
<polygon fill="#ffffff" stroke="black" points="63,-143 63,-161 155,-161 155,-143 63,-143"/>
<text text-anchor="middle" x="109" y="-149.8" font-family="Arial" font-size="8.00">IEquatable&lt;Angles3&gt;</text>
</g>
<!-- Box_IEquatable&#45;&gt;Box_Angles3 -->
<g id="edge2" class="edge"><title>Box_IEquatable&#45;&gt;Box_Angles3</title>
<path fill="none" stroke="midnightblue" d="M109,-132.816C109,-124.773 109,-114.992 109,-105.073"/>
<polygon fill="none" stroke="midnightblue" points="105.5,-132.864 109,-142.864 112.5,-132.864 105.5,-132.864"/>
</g>
</g>
</svg>
