<?xml version="1.0" encoding="UTF-8" standalone="no"?>
<!DOCTYPE svg PUBLIC "-//W3C//DTD SVG 1.1//EN"
 "http://www.w3.org/Graphics/SVG/1.1/DTD/svg11.dtd">
<!-- Generated by graphviz version 2.26.3 (20100126.1600)
 -->
<!-- Title: MenuItem Pages: 1 -->
<svg width="246pt" height="120pt"
 viewBox="0.00 0.00 246.00 120.00" xmlns="http://www.w3.org/2000/svg" xmlns:xlink="http://www.w3.org/1999/xlink">
<g id="graph1" class="graph" transform="scale(1 1) rotate(0) translate(4 116)">
<title>MenuItem</title>
<polygon fill="white" stroke="white" points="-4,5 -4,-116 243,-116 243,5 -4,5"/>
<!-- Box_ArrowModelInfo -->
<g id="node1" class="node"><title>Box_ArrowModelInfo</title>
<polygon fill="#ffffff" stroke="black" points="0,-1 0,-55 238,-55 238,-1 0,-1"/>
<text text-anchor="middle" x="119" y="-43.8" font-family="Arial" font-size="8.00">ArrowModelInfo</text>
<polyline fill="none" stroke="black" points="0,-37 238,-37 "/>
<text text-anchor="start" x="8" y="-25.8" font-family="Arial" font-size="8.00">+ Direction : Vector3</text>
<polyline fill="none" stroke="black" points="0,-19 238,-19 "/>
<text text-anchor="start" x="8" y="-7.8" font-family="Arial" font-size="8.00">+ ArrowModelInfo (Vector3 position, Vector3 direction) : void</text>
</g>
<!-- Box_GameModelInfo -->
<g id="node2" class="node"><title>Box_GameModelInfo</title>
<polygon fill="#ffffff" stroke="black" points="83,-93 83,-111 155,-111 155,-93 83,-93"/>
<text text-anchor="middle" x="119" y="-99.8" font-family="Arial" font-size="8.00">GameModelInfo</text>
</g>
<!-- Box_GameModelInfo&#45;&gt;Box_ArrowModelInfo -->
<g id="edge2" class="edge"><title>Box_GameModelInfo&#45;&gt;Box_ArrowModelInfo</title>
<path fill="none" stroke="midnightblue" d="M119,-82.6404C119,-74.1998 119,-64.1602 119,-55.0036"/>
<polygon fill="none" stroke="midnightblue" points="115.5,-82.9261 119,-92.9261 122.5,-82.9262 115.5,-82.9261"/>
</g>
</g>
</svg>
