<?xml version="1.0" encoding="UTF-8" standalone="no"?>
<!DOCTYPE svg PUBLIC "-//W3C//DTD SVG 1.1//EN"
 "http://www.w3.org/Graphics/SVG/1.1/DTD/svg11.dtd">
<!-- Generated by graphviz version 2.26.3 (20100126.1600)
 -->
<!-- Title: MenuItem Pages: 1 -->
<svg width="260pt" height="150pt"
 viewBox="0.00 0.00 260.00 150.00" xmlns="http://www.w3.org/2000/svg" xmlns:xlink="http://www.w3.org/1999/xlink">
<g id="graph1" class="graph" transform="scale(1 1) rotate(0) translate(4 146)">
<title>MenuItem</title>
<polygon fill="white" stroke="white" points="-4,5 -4,-146 257,-146 257,5 -4,5"/>
<!-- Box_ArrowModel -->
<g id="node1" class="node"><title>Box_ArrowModel</title>
<polygon fill="#ffffff" stroke="black" points="0,-1 0,-85 252,-85 252,-1 0,-1"/>
<text text-anchor="middle" x="126" y="-73.8" font-family="Arial" font-size="8.00">ArrowModel</text>
<polyline fill="none" stroke="black" points="0,-67 252,-67 "/>
<text text-anchor="start" x="8" y="-55.8" font-family="Arial" font-size="8.00">+ Info : ArrowModelInfo</text>
<polyline fill="none" stroke="black" points="0,-49 252,-49 "/>
<text text-anchor="start" x="8" y="-37.8" font-family="Arial" font-size="8.00">+ Draw (GameTime GameTime) : void</text>
<text text-anchor="start" x="8" y="-27.8" font-family="Arial" font-size="8.00">+ Intersects (Ray ray) : GameObjectDistance</text>
<text text-anchor="start" x="8" y="-17.8" font-family="Arial" font-size="8.00">+ ArrowModel (GameScreen screen, ArrowModelInfo info) : void</text>
<text text-anchor="start" x="8" y="-7.8" font-family="Arial" font-size="8.00">+ Update (GameTime GameTime) : void</text>
</g>
<!-- Box_GameModel -->
<g id="node2" class="node"><title>Box_GameModel</title>
<polygon fill="#ffffff" stroke="black" points="96.5,-123 96.5,-141 155.5,-141 155.5,-123 96.5,-123"/>
<text text-anchor="middle" x="126" y="-129.8" font-family="Arial" font-size="8.00">GameModel</text>
</g>
<!-- Box_GameModel&#45;&gt;Box_ArrowModel -->
<g id="edge2" class="edge"><title>Box_GameModel&#45;&gt;Box_ArrowModel</title>
<path fill="none" stroke="midnightblue" d="M126,-112.617C126,-104.489 126,-94.6982 126,-85.0607"/>
<polygon fill="none" stroke="midnightblue" points="122.5,-112.811 126,-122.811 129.5,-112.811 122.5,-112.811"/>
</g>
</g>
</svg>
