<?xml version="1.0" encoding="UTF-8" standalone="no"?>
<!DOCTYPE svg PUBLIC "-//W3C//DTD SVG 1.1//EN"
 "http://www.w3.org/Graphics/SVG/1.1/DTD/svg11.dtd">
<!-- Generated by graphviz version 2.26.3 (20100126.1600)
 -->
<!-- Title: MenuItem Pages: 1 -->
<svg width="346pt" height="130pt"
 viewBox="0.00 0.00 346.00 130.00" xmlns="http://www.w3.org/2000/svg" xmlns:xlink="http://www.w3.org/1999/xlink">
<g id="graph1" class="graph" transform="scale(1 1) rotate(0) translate(4 126)">
<title>MenuItem</title>
<polygon fill="white" stroke="white" points="-4,5 -4,-126 343,-126 343,5 -4,5"/>
<!-- Box_BooleanOptionInfo -->
<g id="node1" class="node"><title>Box_BooleanOptionInfo</title>
<polygon fill="#ffffff" stroke="black" points="0,-1 0,-65 338,-65 338,-1 0,-1"/>
<text text-anchor="middle" x="169" y="-53.8" font-family="Arial" font-size="8.00">BooleanOptionInfo</text>
<polyline fill="none" stroke="black" points="0,-47 338,-47 "/>
<text text-anchor="start" x="8" y="-35.8" font-family="Arial" font-size="8.00">+ Value : bool</text>
<polyline fill="none" stroke="black" points="0,-29 338,-29 "/>
<text text-anchor="start" x="8" y="-17.8" font-family="Arial" font-size="8.00">+ BooleanOptionInfo (String section, String name, bool defaultValue, ConfigFile configFile)</text>
<text text-anchor="start" x="8" y="-7.8" font-family="Arial" font-size="8.00">: void</text>
</g>
<!-- Box_DistinctOptionInfo -->
<g id="node2" class="node"><title>Box_DistinctOptionInfo</title>
<polygon fill="#ffffff" stroke="black" points="129,-103 129,-121 209,-121 209,-103 129,-103"/>
<text text-anchor="middle" x="169" y="-109.8" font-family="Arial" font-size="8.00">DistinctOptionInfo</text>
</g>
<!-- Box_DistinctOptionInfo&#45;&gt;Box_BooleanOptionInfo -->
<g id="edge2" class="edge"><title>Box_DistinctOptionInfo&#45;&gt;Box_BooleanOptionInfo</title>
<path fill="none" stroke="midnightblue" d="M169,-92.8318C169,-84.5161 169,-74.5476 169,-65.1537"/>
<polygon fill="none" stroke="midnightblue" points="165.5,-92.9377 169,-102.938 172.5,-92.9377 165.5,-92.9377"/>
</g>
</g>
</svg>
