<?xml version="1.0" encoding="UTF-8" standalone="no"?>
<!DOCTYPE svg PUBLIC "-//W3C//DTD SVG 1.1//EN"
 "http://www.w3.org/Graphics/SVG/1.1/DTD/svg11.dtd">
<!-- Generated by graphviz version 2.26.3 (20100126.1600)
 -->
<!-- Title: MenuItem Pages: 1 -->
<svg width="426pt" height="120pt"
 viewBox="0.00 0.00 426.00 120.00" xmlns="http://www.w3.org/2000/svg" xmlns:xlink="http://www.w3.org/1999/xlink">
<g id="graph1" class="graph" transform="scale(1 1) rotate(0) translate(4 116)">
<title>MenuItem</title>
<polygon fill="white" stroke="white" points="-4,5 -4,-116 423,-116 423,5 -4,5"/>
<!-- Box_BooleanOptionInfo -->
<g id="node1" class="node"><title>Box_BooleanOptionInfo</title>
<polygon fill="#ffffff" stroke="black" points="0,-1 0,-55 418,-55 418,-1 0,-1"/>
<text text-anchor="middle" x="209" y="-43.8" font-family="Arial" font-size="8.00">BooleanOptionInfo</text>
<polyline fill="none" stroke="black" points="0,-37 418,-37 "/>
<text text-anchor="start" x="8" y="-25.8" font-family="Arial" font-size="8.00">+ Value : bool</text>
<polyline fill="none" stroke="black" points="0,-19 418,-19 "/>
<text text-anchor="start" x="8" y="-7.8" font-family="Arial" font-size="8.00">+ BooleanOptionInfo (String section, String name, bool defaultValue, Knot3&#45;Entwurf::ConfigFile configFile) : void</text>
</g>
<!-- Box_DistinctOptionInfo -->
<g id="node2" class="node"><title>Box_DistinctOptionInfo</title>
<polygon fill="#ffffff" stroke="black" points="169,-93 169,-111 249,-111 249,-93 169,-93"/>
<text text-anchor="middle" x="209" y="-99.8" font-family="Arial" font-size="8.00">DistinctOptionInfo</text>
</g>
<!-- Box_DistinctOptionInfo&#45;&gt;Box_BooleanOptionInfo -->
<g id="edge2" class="edge"><title>Box_DistinctOptionInfo&#45;&gt;Box_BooleanOptionInfo</title>
<path fill="none" stroke="midnightblue" d="M209,-82.6404C209,-74.1998 209,-64.1602 209,-55.0036"/>
<polygon fill="none" stroke="midnightblue" points="205.5,-82.9261 209,-92.9261 212.5,-82.9262 205.5,-82.9261"/>
</g>
</g>
</svg>
