<?xml version="1.0" encoding="UTF-8" standalone="no"?>
<!DOCTYPE svg PUBLIC "-//W3C//DTD SVG 1.1//EN"
 "http://www.w3.org/Graphics/SVG/1.1/DTD/svg11.dtd">
<!-- Generated by graphviz version 2.26.3 (20100126.1600)
 -->
<!-- Title: MenuItem Pages: 1 -->
<svg width="328pt" height="250pt"
 viewBox="0.00 0.00 328.00 250.00" xmlns="http://www.w3.org/2000/svg" xmlns:xlink="http://www.w3.org/1999/xlink">
<g id="graph1" class="graph" transform="scale(1 1) rotate(0) translate(4 246)">
<title>MenuItem</title>
<polygon fill="white" stroke="white" points="-4,5 -4,-246 325,-246 325,5 -4,5"/>
<!-- Box_Camera -->
<g id="node1" class="node"><title>Box_Camera</title>
<polygon fill="#ffffff" stroke="black" points="0,-1 0,-185 320,-185 320,-1 0,-1"/>
<text text-anchor="middle" x="160" y="-173.8" font-family="Arial" font-size="8.00">Camera</text>
<polyline fill="none" stroke="black" points="0,-167 320,-167 "/>
<text text-anchor="start" x="8" y="-155.8" font-family="Arial" font-size="8.00">+ Position : Vector3</text>
<text text-anchor="start" x="8" y="-145.8" font-family="Arial" font-size="8.00">+ Target : Vector3</text>
<text text-anchor="start" x="8" y="-135.8" font-family="Arial" font-size="8.00">+ FoV : float</text>
<text text-anchor="start" x="8" y="-125.8" font-family="Arial" font-size="8.00">+ ViewMatrix : Matrix</text>
<text text-anchor="start" x="8" y="-115.8" font-family="Arial" font-size="8.00">+ WorldMatrix : Matrix</text>
<text text-anchor="start" x="8" y="-105.8" font-family="Arial" font-size="8.00">+ ProjectionMatrix : Matrix</text>
<text text-anchor="start" x="8" y="-95.8" font-family="Arial" font-size="8.00">+ ArcballTarget : Vector3</text>
<text text-anchor="start" x="8" y="-85.8" font-family="Arial" font-size="8.00">+ ViewFrustum : BoundingFrustum</text>
<text text-anchor="start" x="8" y="-75.8" font-family="Arial" font-size="8.00">&#45; World : Knot3&#45;Entwurf</text>
<text text-anchor="start" x="8" y="-65.8" font-family="Arial" font-size="8.00">+ Rotation : Knot3&#45;Entwurf</text>
<polyline fill="none" stroke="black" points="0,-59 320,-59 "/>
<text text-anchor="start" x="8" y="-47.8" font-family="Arial" font-size="8.00">+ TargetDirection () : Vector3</text>
<text text-anchor="start" x="8" y="-37.8" font-family="Arial" font-size="8.00">+ TargetDistance () : float</text>
<text text-anchor="start" x="8" y="-27.8" font-family="Arial" font-size="8.00">+ Camera (Knot3&#45;Entwurf::GameScreen screen, Knot3&#45;Entwurf::World world) : void</text>
<text text-anchor="start" x="8" y="-17.8" font-family="Arial" font-size="8.00">+ Update (GameTime GameTime) : void</text>
<text text-anchor="start" x="8" y="-7.8" font-family="Arial" font-size="8.00">+ GetMouseRay (Vector2 mousePosition) : Ray</text>
</g>
<!-- Box_GameScreenComponent -->
<g id="node2" class="node"><title>Box_GameScreenComponent</title>
<polygon fill="#ffffff" stroke="black" points="108,-223 108,-241 212,-241 212,-223 108,-223"/>
<text text-anchor="middle" x="160" y="-229.8" font-family="Arial" font-size="8.00">GameScreenComponent</text>
</g>
<!-- Box_GameScreenComponent&#45;&gt;Box_Camera -->
<g id="edge2" class="edge"><title>Box_GameScreenComponent&#45;&gt;Box_Camera</title>
<path fill="none" stroke="midnightblue" d="M160,-212.873C160,-205.061 160,-195.414 160,-185.014"/>
<polygon fill="none" stroke="midnightblue" points="156.5,-212.88 160,-222.88 163.5,-212.88 156.5,-212.88"/>
</g>
</g>
</svg>
