<?xml version="1.0" encoding="UTF-8" standalone="no"?>
<!DOCTYPE svg PUBLIC "-//W3C//DTD SVG 1.1//EN"
 "http://www.w3.org/Graphics/SVG/1.1/DTD/svg11.dtd">
<!-- Generated by graphviz version 2.26.3 (20100126.1600)
 -->
<!-- Title: MenuItem Pages: 1 -->
<svg width="342pt" height="220pt"
 viewBox="0.00 0.00 342.00 220.00" xmlns="http://www.w3.org/2000/svg" xmlns:xlink="http://www.w3.org/1999/xlink">
<g id="graph1" class="graph" transform="scale(1 1) rotate(0) translate(4 216)">
<title>MenuItem</title>
<polygon fill="white" stroke="white" points="-4,5 -4,-216 339,-216 339,5 -4,5"/>
<!-- Box_ChallengeModeScreen -->
<g id="node1" class="node"><title>Box_ChallengeModeScreen</title>
<polygon fill="#ffffff" stroke="black" points="-0.5,-1 -0.5,-155 334.5,-155 334.5,-1 -0.5,-1"/>
<text text-anchor="middle" x="167" y="-143.8" font-family="Arial" font-size="8.00">ChallengeModeScreen</text>
<polyline fill="none" stroke="black" points="-0.5,-137 334.5,-137 "/>
<text text-anchor="start" x="7.5" y="-125.8" font-family="Arial" font-size="8.00">&#45; ChallengeWorld : World</text>
<text text-anchor="start" x="7.5" y="-115.8" font-family="Arial" font-size="8.00">&#45; PlayerWorld : World</text>
<text text-anchor="start" x="7.5" y="-105.8" font-family="Arial" font-size="8.00">&#45; ChallengeKnotRenderer : KnotRenderer</text>
<text text-anchor="start" x="7.5" y="-95.8" font-family="Arial" font-size="8.00">&#45; PlayerKnotRenderer : KnotRenderer</text>
<text text-anchor="start" x="7.5" y="-85.8" font-family="Arial" font-size="8.00">&#45; PlayerKnotMovement : EdgeMovement</text>
<text text-anchor="start" x="7.5" y="-75.8" font-family="Arial" font-size="8.00">+ Undo : Stack&lt;Knot&gt;</text>
<text text-anchor="start" x="7.5" y="-65.8" font-family="Arial" font-size="8.00">+ Redo : Stack&lt;Knot&gt;</text>
<text text-anchor="start" x="7.5" y="-55.8" font-family="Arial" font-size="8.00">+ ChallengeKnot : Knot</text>
<text text-anchor="start" x="7.5" y="-45.8" font-family="Arial" font-size="8.00">+ PlayerKnot : Knot</text>
<polyline fill="none" stroke="black" points="-0.5,-39 334.5,-39 "/>
<text text-anchor="start" x="7.5" y="-27.8" font-family="Arial" font-size="8.00">+ Update (GameTime time) : void</text>
<text text-anchor="start" x="7.5" y="-17.8" font-family="Arial" font-size="8.00">+ Entered (GameScreen previousScreen, GameTime GameTime) : void</text>
<text text-anchor="start" x="7.5" y="-7.8" font-family="Arial" font-size="8.00">+ ChallengeModeScreen (Knot3Game game, Knot playerKnot, Knot challengeKnot) : void</text>
</g>
<!-- Box_GameScreen -->
<g id="node2" class="node"><title>Box_GameScreen</title>
<polygon fill="#ffffff" stroke="black" points="135,-193 135,-211 199,-211 199,-193 135,-193"/>
<text text-anchor="middle" x="167" y="-199.8" font-family="Arial" font-size="8.00">GameScreen</text>
</g>
<!-- Box_GameScreen&#45;&gt;Box_ChallengeModeScreen -->
<g id="edge2" class="edge"><title>Box_GameScreen&#45;&gt;Box_ChallengeModeScreen</title>
<path fill="none" stroke="midnightblue" d="M167,-182.613C167,-174.793 167,-165.22 167,-155.074"/>
<polygon fill="none" stroke="midnightblue" points="163.5,-182.68 167,-192.68 170.5,-182.68 163.5,-182.68"/>
</g>
</g>
</svg>
