<?xml version="1.0" encoding="UTF-8" standalone="no"?>
<!DOCTYPE svg PUBLIC "-//W3C//DTD SVG 1.1//EN"
 "http://www.w3.org/Graphics/SVG/1.1/DTD/svg11.dtd">
<!-- Generated by graphviz version 2.26.3 (20100126.1600)
 -->
<!-- Title: MenuItem Pages: 1 -->
<svg width="534pt" height="220pt"
 viewBox="0.00 0.00 534.00 220.00" xmlns="http://www.w3.org/2000/svg" xmlns:xlink="http://www.w3.org/1999/xlink">
<g id="graph1" class="graph" transform="scale(1 1) rotate(0) translate(4 216)">
<title>MenuItem</title>
<polygon fill="white" stroke="white" points="-4,5 -4,-216 531,-216 531,5 -4,5"/>
<!-- Box_ChallengeModeScreen -->
<g id="node1" class="node"><title>Box_ChallengeModeScreen</title>
<polygon fill="#ffffff" stroke="black" points="0,-1 0,-155 526,-155 526,-1 0,-1"/>
<text text-anchor="middle" x="263" y="-143.8" font-family="Arial" font-size="8.00">ChallengeModeScreen</text>
<polyline fill="none" stroke="black" points="0,-137 526,-137 "/>
<text text-anchor="start" x="8" y="-125.8" font-family="Arial" font-size="8.00">&#45; ChallengeWorld : Knot3&#45;Entwurf</text>
<text text-anchor="start" x="8" y="-115.8" font-family="Arial" font-size="8.00">&#45; PlayerWorld : Knot3&#45;Entwurf</text>
<text text-anchor="start" x="8" y="-105.8" font-family="Arial" font-size="8.00">&#45; ChallengeKnotRenderer : Knot3&#45;Entwurf</text>
<text text-anchor="start" x="8" y="-95.8" font-family="Arial" font-size="8.00">&#45; PlayerKnotRenderer : Knot3&#45;Entwurf</text>
<text text-anchor="start" x="8" y="-85.8" font-family="Arial" font-size="8.00">&#45; PlayerKnotMovement : Knot3&#45;Entwurf</text>
<text text-anchor="start" x="8" y="-75.8" font-family="Arial" font-size="8.00">+ Undo : Stack&lt;Knot&gt;</text>
<text text-anchor="start" x="8" y="-65.8" font-family="Arial" font-size="8.00">+ Redo : Stack&lt;Knot&gt;</text>
<text text-anchor="start" x="8" y="-55.8" font-family="Arial" font-size="8.00">+ ChallengeKnot : Knot3</text>
<text text-anchor="start" x="8" y="-45.8" font-family="Arial" font-size="8.00">+ PlayerKnot : Knot3</text>
<polyline fill="none" stroke="black" points="0,-39 526,-39 "/>
<text text-anchor="start" x="8" y="-27.8" font-family="Arial" font-size="8.00">+ Update (GameTime time) : void</text>
<text text-anchor="start" x="8" y="-17.8" font-family="Arial" font-size="8.00">+ Entered (Knot3&#45;Entwurf::GameScreen previousScreen, GameTime GameTime) : void</text>
<text text-anchor="start" x="8" y="-7.8" font-family="Arial" font-size="8.00">+ ChallengeModeScreen (ModelingProject1::Knot3Game game, Knot3::KnotData::Knot playerKnot, Knot3::KnotData::Knot challengeKnot) : void</text>
</g>
<!-- Box_GameScreen1 -->
<g id="node2" class="node"><title>Box_GameScreen1</title>
<polygon fill="#ffffff" stroke="black" points="229,-193 229,-211 297,-211 297,-193 229,-193"/>
<text text-anchor="middle" x="263" y="-199.8" font-family="Arial" font-size="8.00">GameScreen1</text>
</g>
<!-- Box_GameScreen1&#45;&gt;Box_ChallengeModeScreen -->
<g id="edge2" class="edge"><title>Box_GameScreen1&#45;&gt;Box_ChallengeModeScreen</title>
<path fill="none" stroke="midnightblue" d="M263,-182.613C263,-174.793 263,-165.22 263,-155.074"/>
<polygon fill="none" stroke="midnightblue" points="259.5,-182.68 263,-192.68 266.5,-182.68 259.5,-182.68"/>
</g>
</g>
</svg>
