<?xml version="1.0" encoding="UTF-8" standalone="no"?>
<!DOCTYPE svg PUBLIC "-//W3C//DTD SVG 1.1//EN"
 "http://www.w3.org/Graphics/SVG/1.1/DTD/svg11.dtd">
<!-- Generated by graphviz version 2.26.3 (20100126.1600)
 -->
<!-- Title: MenuItem Pages: 1 -->
<svg width="278pt" height="140pt"
 viewBox="0.00 0.00 278.00 140.00" xmlns="http://www.w3.org/2000/svg" xmlns:xlink="http://www.w3.org/1999/xlink">
<g id="graph1" class="graph" transform="scale(1 1) rotate(0) translate(4 136)">
<title>MenuItem</title>
<polygon fill="white" stroke="white" points="-4,5 -4,-136 275,-136 275,5 -4,5"/>
<!-- Box_ChallengeLoadScreen -->
<g id="node1" class="node"><title>Box_ChallengeLoadScreen</title>
<polygon fill="#ffffff" stroke="black" points="0,-1 0,-75 270,-75 270,-1 0,-1"/>
<text text-anchor="middle" x="135" y="-63.8" font-family="Arial" font-size="8.00">ChallengeLoadScreen</text>
<polyline fill="none" stroke="black" points="0,-57 270,-57 "/>
<text text-anchor="middle" x="135" y="-45.8" font-family="Arial" font-size="8.00"> </text>
<polyline fill="none" stroke="black" points="0,-39 270,-39 "/>
<text text-anchor="start" x="8" y="-27.8" font-family="Arial" font-size="8.00">+ Update (GameTime time) : void</text>
<text text-anchor="start" x="8" y="-17.8" font-family="Arial" font-size="8.00">+ Entered (GameScreen previousScreen, GameTime GameTime) : void</text>
<text text-anchor="start" x="8" y="-7.8" font-family="Arial" font-size="8.00">+ ChallengeLoadScreen (Knot3Game game) : void</text>
</g>
<!-- Box_MenuScreen -->
<g id="node2" class="node"><title>Box_MenuScreen</title>
<polygon fill="#ffffff" stroke="black" points="104,-113 104,-131 166,-131 166,-113 104,-113"/>
<text text-anchor="middle" x="135" y="-119.8" font-family="Arial" font-size="8.00">MenuScreen</text>
</g>
<!-- Box_MenuScreen&#45;&gt;Box_ChallengeLoadScreen -->
<g id="edge2" class="edge"><title>Box_MenuScreen&#45;&gt;Box_ChallengeLoadScreen</title>
<path fill="none" stroke="midnightblue" d="M135,-102.442C135,-94.3016 135,-84.5681 135,-75.1627"/>
<polygon fill="none" stroke="midnightblue" points="131.5,-102.69 135,-112.69 138.5,-102.69 131.5,-102.69"/>
</g>
</g>
</svg>
