<?xml version="1.0" encoding="UTF-8" standalone="no"?>
<!DOCTYPE svg PUBLIC "-//W3C//DTD SVG 1.1//EN"
 "http://www.w3.org/Graphics/SVG/1.1/DTD/svg11.dtd">
<!-- Generated by graphviz version 2.26.3 (20100126.1600)
 -->
<!-- Title: MenuItem Pages: 1 -->
<svg width="220pt" height="150pt"
 viewBox="0.00 0.00 220.00 150.00" xmlns="http://www.w3.org/2000/svg" xmlns:xlink="http://www.w3.org/1999/xlink">
<g id="graph1" class="graph" transform="scale(1 1) rotate(0) translate(4 146)">
<title>MenuItem</title>
<polygon fill="white" stroke="white" points="-4,5 -4,-146 217,-146 217,5 -4,5"/>
<!-- Box_ChallengeFileIO -->
<g id="node1" class="node"><title>Box_ChallengeFileIO</title>
<polygon fill="#ffffff" stroke="black" points="0,-1 0,-85 212,-85 212,-1 0,-1"/>
<text text-anchor="middle" x="106" y="-73.8" font-family="Arial" font-size="8.00">ChallengeFileIO</text>
<polyline fill="none" stroke="black" points="0,-67 212,-67 "/>
<text text-anchor="middle" x="106" y="-55.8" font-family="Arial" font-size="8.00"> </text>
<polyline fill="none" stroke="black" points="0,-49 212,-49 "/>
<text text-anchor="start" x="8" y="-37.8" font-family="Arial" font-size="8.00">+ ChallengeFileIO () : void</text>
<text text-anchor="start" x="8" y="-27.8" font-family="Arial" font-size="8.00">+ Save (Challenge challenge) : void</text>
<text text-anchor="start" x="8" y="-17.8" font-family="Arial" font-size="8.00">+ Load (String filename) : Challenge</text>
<text text-anchor="start" x="8" y="-7.8" font-family="Arial" font-size="8.00">+ LoadMetaData (String filename) : ChallengeMetaData</text>
</g>
<!-- Box_IChallengeIO -->
<g id="node2" class="node"><title>Box_IChallengeIO</title>
<polygon fill="#ffffff" stroke="black" points="75.5,-123 75.5,-141 136.5,-141 136.5,-123 75.5,-123"/>
<text text-anchor="middle" x="106" y="-129.8" font-family="Arial" font-size="8.00">IChallengeIO</text>
</g>
<!-- Box_IChallengeIO&#45;&gt;Box_ChallengeFileIO -->
<g id="edge2" class="edge"><title>Box_IChallengeIO&#45;&gt;Box_ChallengeFileIO</title>
<path fill="none" stroke="midnightblue" d="M106,-112.617C106,-104.489 106,-94.6982 106,-85.0607"/>
<polygon fill="none" stroke="midnightblue" points="102.5,-112.811 106,-122.811 109.5,-112.811 102.5,-112.811"/>
</g>
</g>
</svg>
