<?xml version="1.0" encoding="UTF-8" standalone="no"?>
<!DOCTYPE svg PUBLIC "-//W3C//DTD SVG 1.1//EN"
 "http://www.w3.org/Graphics/SVG/1.1/DTD/svg11.dtd">
<!-- Generated by graphviz version 2.26.3 (20100126.1600)
 -->
<!-- Title: MenuItem Pages: 1 -->
<svg width="342pt" height="228pt"
 viewBox="0.00 0.00 342.00 228.00" xmlns="http://www.w3.org/2000/svg" xmlns:xlink="http://www.w3.org/1999/xlink">
<g id="graph1" class="graph" transform="scale(1 1) rotate(0) translate(4 224)">
<title>MenuItem</title>
<polygon fill="white" stroke="white" points="-4,5 -4,-224 339,-224 339,5 -4,5"/>
<!-- Box_ChallengeModeScreen -->
<g id="node1" class="node"><title>Box_ChallengeModeScreen</title>
<polygon fill="#ffffff" stroke="black" points="-0.5,-0.5 -0.5,-163.5 334.5,-163.5 334.5,-0.5 -0.5,-0.5"/>
<text text-anchor="middle" x="167" y="-152.3" font-family="Arial" font-size="8.00">ChallengeModeScreen</text>
<polyline fill="none" stroke="black" points="-0.5,-145.5 334.5,-145.5 "/>
<text text-anchor="start" x="7.5" y="-134.3" font-family="Arial" font-size="8.00">&#45; ChallengeWorld : World</text>
<text text-anchor="start" x="7.5" y="-124.3" font-family="Arial" font-size="8.00">&#45; PlayerWorld : World</text>
<text text-anchor="start" x="7.5" y="-114.3" font-family="Arial" font-size="8.00">&#45; ChallengeKnotRenderer : KnotRenderer</text>
<text text-anchor="start" x="7.5" y="-104.3" font-family="Arial" font-size="8.00">&#45; PlayerKnotRenderer : KnotRenderer</text>
<text text-anchor="start" x="7.5" y="-94.3" font-family="Arial" font-size="8.00">&#45; PlayerKnotMovement : EdgeMovement</text>
<text text-anchor="start" x="7.5" y="-84.3" font-family="Arial" font-size="8.00">+ Undo : Stack&lt;Knot&gt;</text>
<text text-anchor="start" x="7.5" y="-74.3" font-family="Arial" font-size="8.00">+ Redo : Stack&lt;Knot&gt;</text>
<text text-anchor="start" x="7.5" y="-64.3" font-family="Arial" font-size="8.00">+ ChallengeKnot : Knot</text>
<text text-anchor="start" x="7.5" y="-54.3" font-family="Arial" font-size="8.00">+ PlayerKnot : Knot</text>
<polyline fill="none" stroke="black" points="-0.5,-47.5 334.5,-47.5 "/>
<text text-anchor="start" x="7.5" y="-36.3" font-family="Arial" font-size="8.00">+ Update (GameTime time) : void</text>
<text text-anchor="start" x="7.5" y="-26.3" font-family="Arial" font-size="8.00">+ Entered (GameScreen previousScreen, GameTime GameTime) : void</text>
<text text-anchor="start" x="7.5" y="-16.3" font-family="Arial" font-size="8.00">+ ChallengeModeScreen (Knot3Game game, Knot playerKnot, Knot challengeKnot) : void</text>
</g>
<!-- Box_GameScreen -->
<g id="node2" class="node"><title>Box_GameScreen</title>
<polygon fill="#ffffff" stroke="black" points="135,-201 135,-219 199,-219 199,-201 135,-201"/>
<text text-anchor="middle" x="167" y="-207.8" font-family="Arial" font-size="8.00">GameScreen</text>
</g>
<!-- Box_GameScreen&#45;&gt;Box_ChallengeModeScreen -->
<g id="edge2" class="edge"><title>Box_GameScreen&#45;&gt;Box_ChallengeModeScreen</title>
<path fill="none" stroke="midnightblue" d="M167,-190.603C167,-182.937 167,-173.572 167,-163.588"/>
<polygon fill="none" stroke="midnightblue" points="163.5,-190.795 167,-200.795 170.5,-190.795 163.5,-190.795"/>
</g>
</g>
</svg>
