<?xml version="1.0" encoding="UTF-8" standalone="no"?>
<!DOCTYPE svg PUBLIC "-//W3C//DTD SVG 1.1//EN"
 "http://www.w3.org/Graphics/SVG/1.1/DTD/svg11.dtd">
<!-- Generated by graphviz version 2.26.3 (20100126.1600)
 -->
<!-- Title: MenuItem Pages: 1 -->
<svg width="72pt" height="120pt"
 viewBox="0.00 0.00 72.00 120.00" xmlns="http://www.w3.org/2000/svg" xmlns:xlink="http://www.w3.org/1999/xlink">
<g id="graph1" class="graph" transform="scale(1 1) rotate(0) translate(4 116)">
<title>MenuItem</title>
<polygon fill="white" stroke="white" points="-4,5 -4,-116 69,-116 69,5 -4,5"/>
<!-- Box_Circle -->
<g id="node1" class="node"><title>Box_Circle</title>
<polygon fill="#ffffff" stroke="black" points="13.5,-1 13.5,-55 50.5,-55 50.5,-1 13.5,-1"/>
<text text-anchor="middle" x="32" y="-43.8" font-family="Arial" font-size="8.00">Circle</text>
<polyline fill="none" stroke="black" points="13.5,-37 50.5,-37 "/>
<text text-anchor="middle" x="32" y="-25.8" font-family="Arial" font-size="8.00"> </text>
<polyline fill="none" stroke="black" points="13.5,-19 50.5,-19 "/>
<text text-anchor="middle" x="32" y="-7.8" font-family="Arial" font-size="8.00"> </text>
</g>
<!-- Box_IEnumerable1 -->
<g id="node2" class="node"><title>Box_IEnumerable1</title>
<polygon fill="#ffffff" stroke="black" points="-0.5,-93 -0.5,-111 64.5,-111 64.5,-93 -0.5,-93"/>
<text text-anchor="middle" x="32" y="-99.8" font-family="Arial" font-size="8.00">IEnumerable1</text>
</g>
<!-- Box_IEnumerable1&#45;&gt;Box_Circle -->
<g id="edge2" class="edge"><title>Box_IEnumerable1&#45;&gt;Box_Circle</title>
<path fill="none" stroke="midnightblue" d="M32,-82.6404C32,-74.1998 32,-64.1602 32,-55.0036"/>
<polygon fill="none" stroke="midnightblue" points="28.5001,-82.9261 32,-92.9261 35.5001,-82.9262 28.5001,-82.9261"/>
</g>
</g>
</svg>
