<?xml version="1.0" encoding="UTF-8" standalone="no"?>
<!DOCTYPE svg PUBLIC "-//W3C//DTD SVG 1.1//EN"
 "http://www.w3.org/Graphics/SVG/1.1/DTD/svg11.dtd">
<!-- Generated by graphviz version 2.26.3 (20100126.1600)
 -->
<!-- Title: MenuItem Pages: 1 -->
<svg width="68pt" height="120pt"
 viewBox="0.00 0.00 68.00 120.00" xmlns="http://www.w3.org/2000/svg" xmlns:xlink="http://www.w3.org/1999/xlink">
<g id="graph1" class="graph" transform="scale(1 1) rotate(0) translate(4 116)">
<title>MenuItem</title>
<polygon fill="white" stroke="white" points="-4,5 -4,-116 65,-116 65,5 -4,5"/>
<!-- Box_Circle -->
<g id="node1" class="node"><title>Box_Circle</title>
<polygon fill="#ffffff" stroke="black" points="11.5,-1 11.5,-55 48.5,-55 48.5,-1 11.5,-1"/>
<text text-anchor="middle" x="30" y="-43.8" font-family="Arial" font-size="8.00">Circle</text>
<polyline fill="none" stroke="black" points="11.5,-37 48.5,-37 "/>
<text text-anchor="middle" x="30" y="-25.8" font-family="Arial" font-size="8.00"> </text>
<polyline fill="none" stroke="black" points="11.5,-19 48.5,-19 "/>
<text text-anchor="middle" x="30" y="-7.8" font-family="Arial" font-size="8.00"> </text>
</g>
<!-- Box_IEnumerable -->
<g id="node2" class="node"><title>Box_IEnumerable</title>
<polygon fill="#ffffff" stroke="black" points="0,-93 0,-111 60,-111 60,-93 0,-93"/>
<text text-anchor="middle" x="30" y="-99.8" font-family="Arial" font-size="8.00">IEnumerable</text>
</g>
<!-- Box_IEnumerable&#45;&gt;Box_Circle -->
<g id="edge2" class="edge"><title>Box_IEnumerable&#45;&gt;Box_Circle</title>
<path fill="none" stroke="midnightblue" d="M30,-82.6404C30,-74.1998 30,-64.1602 30,-55.0036"/>
<polygon fill="none" stroke="midnightblue" points="26.5001,-82.9261 30,-92.9261 33.5001,-82.9262 26.5001,-82.9261"/>
</g>
</g>
</svg>
