<?xml version="1.0" encoding="UTF-8" standalone="no"?>
<!DOCTYPE svg PUBLIC "-//W3C//DTD SVG 1.1//EN"
 "http://www.w3.org/Graphics/SVG/1.1/DTD/svg11.dtd">
<!-- Generated by graphviz version 2.26.3 (20100126.1600)
 -->
<!-- Title: MenuItem Pages: 1 -->
<svg width="370pt" height="140pt"
 viewBox="0.00 0.00 370.00 140.00" xmlns="http://www.w3.org/2000/svg" xmlns:xlink="http://www.w3.org/1999/xlink">
<g id="graph1" class="graph" transform="scale(1 1) rotate(0) translate(4 136)">
<title>MenuItem</title>
<polygon fill="white" stroke="white" points="-4,5 -4,-136 367,-136 367,5 -4,5"/>
<!-- Box_ColorPickItem -->
<g id="node1" class="node"><title>Box_ColorPickItem</title>
<polygon fill="#ffffff" stroke="black" points="-0.5,-1 -0.5,-75 362.5,-75 362.5,-1 -0.5,-1"/>
<text text-anchor="middle" x="181" y="-63.8" font-family="Arial" font-size="8.00">ColorPickItem</text>
<polyline fill="none" stroke="black" points="-0.5,-57 362.5,-57 "/>
<text text-anchor="start" x="7.5" y="-45.8" font-family="Arial" font-size="8.00">+ Color : Color</text>
<text text-anchor="start" x="7.5" y="-35.8" font-family="Arial" font-size="8.00">&#45; picker : Knot3&#45;Entwurf</text>
<polyline fill="none" stroke="black" points="-0.5,-29 362.5,-29 "/>
<text text-anchor="start" x="7.5" y="-17.8" font-family="Arial" font-size="8.00">+ ColorPickItem (Knot3&#45;Entwurf::GameScreen screen, Knot3&#45;Entwurf::DisplayLayer drawOrder,</text>
<text text-anchor="start" x="7.5" y="-7.8" font-family="Arial" font-size="8.00">Color color) : void</text>
</g>
<!-- Box_MenuItem -->
<g id="node2" class="node"><title>Box_MenuItem</title>
<polygon fill="#ffffff" stroke="black" points="156,-113 156,-131 206,-131 206,-113 156,-113"/>
<text text-anchor="middle" x="181" y="-119.8" font-family="Arial" font-size="8.00">MenuItem</text>
</g>
<!-- Box_MenuItem&#45;&gt;Box_ColorPickItem -->
<g id="edge2" class="edge"><title>Box_MenuItem&#45;&gt;Box_ColorPickItem</title>
<path fill="none" stroke="midnightblue" d="M181,-102.442C181,-94.3016 181,-84.5681 181,-75.1627"/>
<polygon fill="none" stroke="midnightblue" points="177.5,-102.69 181,-112.69 184.5,-102.69 177.5,-102.69"/>
</g>
</g>
</svg>
