<?xml version="1.0" encoding="UTF-8" standalone="no"?>
<!DOCTYPE svg PUBLIC "-//W3C//DTD SVG 1.1//EN"
 "http://www.w3.org/Graphics/SVG/1.1/DTD/svg11.dtd">
<!-- Generated by graphviz version 2.26.3 (20100126.1600)
 -->
<!-- Title: MenuItem Pages: 1 -->
<svg width="320pt" height="180pt"
 viewBox="0.00 0.00 320.00 180.00" xmlns="http://www.w3.org/2000/svg" xmlns:xlink="http://www.w3.org/1999/xlink">
<g id="graph1" class="graph" transform="scale(1 1) rotate(0) translate(4 176)">
<title>MenuItem</title>
<polygon fill="white" stroke="white" points="-4,5 -4,-176 317,-176 317,5 -4,5"/>
<!-- Box_ColorPicker -->
<g id="node1" class="node"><title>Box_ColorPicker</title>
<polygon fill="#ffffff" stroke="black" points="-0.5,-1 -0.5,-115 312.5,-115 312.5,-1 -0.5,-1"/>
<text text-anchor="middle" x="156" y="-103.8" font-family="Arial" font-size="8.00">ColorPicker</text>
<polyline fill="none" stroke="black" points="-0.5,-97 312.5,-97 "/>
<text text-anchor="start" x="7.5" y="-85.8" font-family="Arial" font-size="8.00">+ Color : Color</text>
<polyline fill="none" stroke="black" points="-0.5,-79 312.5,-79 "/>
<text text-anchor="start" x="7.5" y="-67.8" font-family="Arial" font-size="8.00">+ OnKeyEvent () : void</text>
<text text-anchor="start" x="7.5" y="-57.8" font-family="Arial" font-size="8.00">+ Bounds () : Rectangle</text>
<text text-anchor="start" x="7.5" y="-47.8" font-family="Arial" font-size="8.00">+ OnLeftClick (Vector2 position, Knot3&#45;Entwurf::ClickState state, GameTime time) :</text>
<text text-anchor="start" x="7.5" y="-37.8" font-family="Arial" font-size="8.00">void</text>
<text text-anchor="start" x="7.5" y="-27.8" font-family="Arial" font-size="8.00">+ OnRightClick (Vector2 position, Knot3&#45;Entwurf::ClickState state, GameTime time)</text>
<text text-anchor="start" x="7.5" y="-17.8" font-family="Arial" font-size="8.00">: void</text>
<text text-anchor="start" x="7.5" y="-7.8" font-family="Arial" font-size="8.00">+ ColorPicker (Color def) : void</text>
</g>
<!-- Box_Widget -->
<g id="node2" class="node"><title>Box_Widget</title>
<polygon fill="#ffffff" stroke="black" points="135.5,-153 135.5,-171 176.5,-171 176.5,-153 135.5,-153"/>
<text text-anchor="middle" x="156" y="-159.8" font-family="Arial" font-size="8.00">Widget</text>
</g>
<!-- Box_Widget&#45;&gt;Box_ColorPicker -->
<g id="edge2" class="edge"><title>Box_Widget&#45;&gt;Box_ColorPicker</title>
<path fill="none" stroke="midnightblue" d="M156,-142.516C156,-134.577 156,-124.949 156,-115.075"/>
<polygon fill="none" stroke="midnightblue" points="152.5,-142.771 156,-152.771 159.5,-142.771 152.5,-142.771"/>
</g>
</g>
</svg>
