<?xml version="1.0" encoding="UTF-8" standalone="no"?>
<!DOCTYPE svg PUBLIC "-//W3C//DTD SVG 1.1//EN"
 "http://www.w3.org/Graphics/SVG/1.1/DTD/svg11.dtd">
<!-- Generated by graphviz version 2.26.3 (20100126.1600)
 -->
<!-- Title: MenuItem Pages: 1 -->
<svg width="436pt" height="130pt"
 viewBox="0.00 0.00 436.00 130.00" xmlns="http://www.w3.org/2000/svg" xmlns:xlink="http://www.w3.org/1999/xlink">
<g id="graph1" class="graph" transform="scale(1 1) rotate(0) translate(4 126)">
<title>MenuItem</title>
<polygon fill="white" stroke="white" points="-4,5 -4,-126 433,-126 433,5 -4,5"/>
<!-- Box_ColorPickItem -->
<g id="node1" class="node"><title>Box_ColorPickItem</title>
<polygon fill="#ffffff" stroke="black" points="-0.5,-1 -0.5,-65 428.5,-65 428.5,-1 -0.5,-1"/>
<text text-anchor="middle" x="214" y="-53.8" font-family="Arial" font-size="8.00">ColorPickItem</text>
<polyline fill="none" stroke="black" points="-0.5,-47 428.5,-47 "/>
<text text-anchor="start" x="7.5" y="-35.8" font-family="Arial" font-size="8.00">+ Color : Color</text>
<text text-anchor="start" x="7.5" y="-25.8" font-family="Arial" font-size="8.00">&#45; picker : Knot3&#45;Entwurf</text>
<polyline fill="none" stroke="black" points="-0.5,-19 428.5,-19 "/>
<text text-anchor="start" x="7.5" y="-7.8" font-family="Arial" font-size="8.00">+ ColorPickItem (Knot3&#45;Entwurf::GameScreen screen, Knot3&#45;Entwurf::DisplayLayer drawOrder, Color color) : void</text>
</g>
<!-- Box_MenuItem -->
<g id="node2" class="node"><title>Box_MenuItem</title>
<polygon fill="#ffffff" stroke="black" points="189,-103 189,-121 239,-121 239,-103 189,-103"/>
<text text-anchor="middle" x="214" y="-109.8" font-family="Arial" font-size="8.00">MenuItem</text>
</g>
<!-- Box_MenuItem&#45;&gt;Box_ColorPickItem -->
<g id="edge2" class="edge"><title>Box_MenuItem&#45;&gt;Box_ColorPickItem</title>
<path fill="none" stroke="midnightblue" d="M214,-92.8318C214,-84.5161 214,-74.5476 214,-65.1537"/>
<polygon fill="none" stroke="midnightblue" points="210.5,-92.9377 214,-102.938 217.5,-92.9377 210.5,-92.9377"/>
</g>
</g>
</svg>
