<?xml version="1.0" encoding="UTF-8" standalone="no"?>
<!DOCTYPE svg PUBLIC "-//W3C//DTD SVG 1.1//EN"
 "http://www.w3.org/Graphics/SVG/1.1/DTD/svg11.dtd">
<!-- Generated by graphviz version 2.26.3 (20100126.1600)
 -->
<!-- Title: MenuItem Pages: 1 -->
<svg width="297pt" height="170pt"
 viewBox="0.00 0.00 297.00 170.00" xmlns="http://www.w3.org/2000/svg" xmlns:xlink="http://www.w3.org/1999/xlink">
<g id="graph1" class="graph" transform="scale(1 1) rotate(0) translate(4 166)">
<title>MenuItem</title>
<polygon fill="white" stroke="white" points="-4,5 -4,-166 294,-166 294,5 -4,5"/>
<!-- Box_ColorPicker -->
<g id="node1" class="node"><title>Box_ColorPicker</title>
<polygon fill="#ffffff" stroke="black" points="0,-1 0,-105 276,-105 276,-1 0,-1"/>
<text text-anchor="middle" x="138" y="-93.8" font-family="Arial" font-size="8.00">ColorPicker</text>
<polyline fill="none" stroke="black" points="0,-87 276,-87 "/>
<text text-anchor="start" x="8" y="-75.8" font-family="Arial" font-size="8.00">+ Color : Color</text>
<polyline fill="none" stroke="black" points="0,-69 276,-69 "/>
<text text-anchor="start" x="8" y="-57.8" font-family="Arial" font-size="8.00">+ OnKeyEvent () : void</text>
<text text-anchor="start" x="8" y="-47.8" font-family="Arial" font-size="8.00">+ Bounds () : Rectangle</text>
<text text-anchor="start" x="8" y="-37.8" font-family="Arial" font-size="8.00">+ OnLeftClick (Vector2 position, ClickState state, GameTime time) : void</text>
<text text-anchor="start" x="8" y="-27.8" font-family="Arial" font-size="8.00">+ OnRightClick (Vector2 position, ClickState state, GameTime time) : void</text>
<text text-anchor="start" x="8" y="-17.8" font-family="Arial" font-size="8.00">+ ColorPicker (Color def) : void</text>
<text text-anchor="start" x="8" y="-7.8" font-family="Arial" font-size="8.00">+ OnScroll (int float) : void</text>
</g>
<!-- Box_Widget -->
<g id="node2" class="node"><title>Box_Widget</title>
<polygon fill="#ffffff" stroke="black" points="38.5,-143 38.5,-161 79.5,-161 79.5,-143 38.5,-143"/>
<text text-anchor="middle" x="59" y="-149.8" font-family="Arial" font-size="8.00">Widget</text>
</g>
<!-- Box_Widget&#45;&gt;Box_ColorPicker -->
<g id="edge2" class="edge"><title>Box_Widget&#45;&gt;Box_ColorPicker</title>
<path fill="none" stroke="midnightblue" d="M72.5737,-134.99C79.2926,-126.57 87.8039,-115.904 96.4467,-105.073"/>
<polygon fill="none" stroke="midnightblue" points="69.7921,-132.864 66.2905,-142.864 75.2636,-137.23 69.7921,-132.864"/>
</g>
<!-- Box_IKeyEventListener -->
<g id="node3" class="node"><title>Box_IKeyEventListener</title>
<polygon fill="#ffffff" stroke="black" points="97,-143 97,-161 179,-161 179,-143 97,-143"/>
<text text-anchor="middle" x="138" y="-149.8" font-family="Arial" font-size="8.00">IKeyEventListener</text>
</g>
<!-- Box_IKeyEventListener&#45;&gt;Box_ColorPicker -->
<g id="edge4" class="edge"><title>Box_IKeyEventListener&#45;&gt;Box_ColorPicker</title>
<path fill="none" stroke="midnightblue" d="M138,-132.816C138,-124.773 138,-114.992 138,-105.073"/>
<polygon fill="none" stroke="midnightblue" points="134.5,-132.864 138,-142.864 141.5,-132.864 134.5,-132.864"/>
</g>
<!-- Box_IMouseEventListener -->
<g id="node4" class="node"><title>Box_IMouseEventListener</title>
<polygon fill="#ffffff" stroke="black" points="197,-143 197,-161 289,-161 289,-143 197,-143"/>
<text text-anchor="middle" x="243" y="-149.8" font-family="Arial" font-size="8.00">IMouseEventListener</text>
</g>
<!-- Box_IMouseEventListener&#45;&gt;Box_ColorPicker -->
<g id="edge6" class="edge"><title>Box_IMouseEventListener&#45;&gt;Box_ColorPicker</title>
<path fill="none" stroke="midnightblue" d="M225.798,-135.781C216.743,-127.244 205.079,-116.246 193.229,-105.073"/>
<polygon fill="none" stroke="midnightblue" points="223.633,-138.55 233.31,-142.864 228.435,-133.457 223.633,-138.55"/>
</g>
</g>
</svg>
