<?xml version="1.0" encoding="UTF-8" standalone="no"?>
<!DOCTYPE svg PUBLIC "-//W3C//DTD SVG 1.1//EN"
 "http://www.w3.org/Graphics/SVG/1.1/DTD/svg11.dtd">
<!-- Generated by graphviz version 2.26.3 (20100126.1600)
 -->
<!-- Title: MenuItem Pages: 1 -->
<svg width="284pt" height="160pt"
 viewBox="0.00 0.00 284.00 160.00" xmlns="http://www.w3.org/2000/svg" xmlns:xlink="http://www.w3.org/1999/xlink">
<g id="graph1" class="graph" transform="scale(1 1) rotate(0) translate(4 156)">
<title>MenuItem</title>
<polygon fill="white" stroke="white" points="-4,5 -4,-156 281,-156 281,5 -4,5"/>
<!-- Box_ColorPicker -->
<g id="node1" class="node"><title>Box_ColorPicker</title>
<polygon fill="#ffffff" stroke="black" points="0,-1 0,-95 276,-95 276,-1 0,-1"/>
<text text-anchor="middle" x="138" y="-83.8" font-family="Arial" font-size="8.00">ColorPicker</text>
<polyline fill="none" stroke="black" points="0,-77 276,-77 "/>
<text text-anchor="start" x="8" y="-65.8" font-family="Arial" font-size="8.00">+ Color : Color</text>
<polyline fill="none" stroke="black" points="0,-59 276,-59 "/>
<text text-anchor="start" x="8" y="-47.8" font-family="Arial" font-size="8.00">+ OnKeyEvent () : void</text>
<text text-anchor="start" x="8" y="-37.8" font-family="Arial" font-size="8.00">+ Bounds () : Rectangle</text>
<text text-anchor="start" x="8" y="-27.8" font-family="Arial" font-size="8.00">+ OnLeftClick (Vector2 position, ClickState state, GameTime time) : void</text>
<text text-anchor="start" x="8" y="-17.8" font-family="Arial" font-size="8.00">+ OnRightClick (Vector2 position, ClickState state, GameTime time) : void</text>
<text text-anchor="start" x="8" y="-7.8" font-family="Arial" font-size="8.00">+ ColorPicker (Color def) : void</text>
</g>
<!-- Box_Widget -->
<g id="node2" class="node"><title>Box_Widget</title>
<polygon fill="#ffffff" stroke="black" points="117.5,-133 117.5,-151 158.5,-151 158.5,-133 117.5,-133"/>
<text text-anchor="middle" x="138" y="-139.8" font-family="Arial" font-size="8.00">Widget</text>
</g>
<!-- Box_Widget&#45;&gt;Box_ColorPicker -->
<g id="edge2" class="edge"><title>Box_Widget&#45;&gt;Box_ColorPicker</title>
<path fill="none" stroke="midnightblue" d="M138,-122.922C138,-114.868 138,-105.099 138,-95.312"/>
<polygon fill="none" stroke="midnightblue" points="134.5,-122.987 138,-132.987 141.5,-122.987 134.5,-122.987"/>
</g>
</g>
</svg>
