<?xml version="1.0" encoding="UTF-8" standalone="no"?>
<!DOCTYPE svg PUBLIC "-//W3C//DTD SVG 1.1//EN"
 "http://www.w3.org/Graphics/SVG/1.1/DTD/svg11.dtd">
<!-- Generated by graphviz version 2.26.3 (20100126.1600)
 -->
<!-- Title: MenuItem Pages: 1 -->
<svg width="342pt" height="170pt"
 viewBox="0.00 0.00 342.00 170.00" xmlns="http://www.w3.org/2000/svg" xmlns:xlink="http://www.w3.org/1999/xlink">
<g id="graph1" class="graph" transform="scale(1 1) rotate(0) translate(4 166)">
<title>MenuItem</title>
<polygon fill="white" stroke="white" points="-4,5 -4,-166 339,-166 339,5 -4,5"/>
<!-- Box_ColorPicker -->
<g id="node1" class="node"><title>Box_ColorPicker</title>
<polygon fill="#ffffff" stroke="black" points="0,-1 0,-105 334,-105 334,-1 0,-1"/>
<text text-anchor="middle" x="167" y="-93.8" font-family="Arial" font-size="8.00">ColorPicker</text>
<polyline fill="none" stroke="black" points="0,-87 334,-87 "/>
<text text-anchor="start" x="8" y="-75.8" font-family="Arial" font-size="8.00">+ Color : Color</text>
<polyline fill="none" stroke="black" points="0,-69 334,-69 "/>
<text text-anchor="start" x="8" y="-57.8" font-family="Arial" font-size="8.00">+ OnKeyEvent () : void</text>
<text text-anchor="start" x="8" y="-47.8" font-family="Arial" font-size="8.00">+ Bounds () : Rectangle</text>
<text text-anchor="start" x="8" y="-37.8" font-family="Arial" font-size="8.00">+ OnLeftClick (Vector2 position, Knot3&#45;Entwurf::ClickState state, GameTime time) : void</text>
<text text-anchor="start" x="8" y="-27.8" font-family="Arial" font-size="8.00">+ OnRightClick (Vector2 position, Knot3&#45;Entwurf::ClickState state, GameTime time) : void</text>
<text text-anchor="start" x="8" y="-17.8" font-family="Arial" font-size="8.00">+ ColorPicker (Color def) : void</text>
<text text-anchor="start" x="8" y="-7.8" font-family="Arial" font-size="8.00">+ OnScroll (int float) : void</text>
</g>
<!-- Box_Widget -->
<g id="node2" class="node"><title>Box_Widget</title>
<polygon fill="#ffffff" stroke="black" points="67.5,-143 67.5,-161 108.5,-161 108.5,-143 67.5,-143"/>
<text text-anchor="middle" x="88" y="-149.8" font-family="Arial" font-size="8.00">Widget</text>
</g>
<!-- Box_Widget&#45;&gt;Box_ColorPicker -->
<g id="edge2" class="edge"><title>Box_Widget&#45;&gt;Box_ColorPicker</title>
<path fill="none" stroke="midnightblue" d="M101.574,-134.99C108.293,-126.57 116.804,-115.904 125.447,-105.073"/>
<polygon fill="none" stroke="midnightblue" points="98.7921,-132.864 95.2905,-142.864 104.264,-137.23 98.7921,-132.864"/>
</g>
<!-- Box_IKeyEventListener -->
<g id="node3" class="node"><title>Box_IKeyEventListener</title>
<polygon fill="#ffffff" stroke="black" points="126,-143 126,-161 208,-161 208,-143 126,-143"/>
<text text-anchor="middle" x="167" y="-149.8" font-family="Arial" font-size="8.00">IKeyEventListener</text>
</g>
<!-- Box_IKeyEventListener&#45;&gt;Box_ColorPicker -->
<g id="edge4" class="edge"><title>Box_IKeyEventListener&#45;&gt;Box_ColorPicker</title>
<path fill="none" stroke="midnightblue" d="M167,-132.816C167,-124.773 167,-114.992 167,-105.073"/>
<polygon fill="none" stroke="midnightblue" points="163.5,-132.864 167,-142.864 170.5,-132.864 163.5,-132.864"/>
</g>
<!-- Box_IMouseEventListener -->
<g id="node4" class="node"><title>Box_IMouseEventListener</title>
<polygon fill="#ffffff" stroke="black" points="226,-143 226,-161 318,-161 318,-143 226,-143"/>
<text text-anchor="middle" x="272" y="-149.8" font-family="Arial" font-size="8.00">IMouseEventListener</text>
</g>
<!-- Box_IMouseEventListener&#45;&gt;Box_ColorPicker -->
<g id="edge6" class="edge"><title>Box_IMouseEventListener&#45;&gt;Box_ColorPicker</title>
<path fill="none" stroke="midnightblue" d="M254.798,-135.781C245.743,-127.244 234.079,-116.246 222.229,-105.073"/>
<polygon fill="none" stroke="midnightblue" points="252.633,-138.55 262.31,-142.864 257.435,-133.457 252.633,-138.55"/>
</g>
</g>
</svg>
