<?xml version="1.0" encoding="UTF-8" standalone="no"?>
<!DOCTYPE svg PUBLIC "-//W3C//DTD SVG 1.1//EN"
 "http://www.w3.org/Graphics/SVG/1.1/DTD/svg11.dtd">
<!-- Generated by graphviz version 2.26.3 (20100126.1600)
 -->
<!-- Title: MenuItem Pages: 1 -->
<svg width="322pt" height="130pt"
 viewBox="0.00 0.00 322.00 130.00" xmlns="http://www.w3.org/2000/svg" xmlns:xlink="http://www.w3.org/1999/xlink">
<g id="graph1" class="graph" transform="scale(1 1) rotate(0) translate(4 126)">
<title>MenuItem</title>
<polygon fill="white" stroke="white" points="-4,5 -4,-126 319,-126 319,5 -4,5"/>
<!-- Box_ColorPickItem -->
<g id="node1" class="node"><title>Box_ColorPickItem</title>
<polygon fill="#ffffff" stroke="black" points="0,-1 0,-65 314,-65 314,-1 0,-1"/>
<text text-anchor="middle" x="157" y="-53.8" font-family="Arial" font-size="8.00">ColorPickItem</text>
<polyline fill="none" stroke="black" points="0,-47 314,-47 "/>
<text text-anchor="start" x="8" y="-35.8" font-family="Arial" font-size="8.00">+ Color : Color</text>
<text text-anchor="start" x="8" y="-25.8" font-family="Arial" font-size="8.00">&#45; picker : ColorPicker</text>
<polyline fill="none" stroke="black" points="0,-19 314,-19 "/>
<text text-anchor="start" x="8" y="-7.8" font-family="Arial" font-size="8.00">+ ColorPickItem (GameScreen screen, DisplayLayer drawOrder, Color color) : void</text>
</g>
<!-- Box_MenuItem -->
<g id="node2" class="node"><title>Box_MenuItem</title>
<polygon fill="#ffffff" stroke="black" points="132,-103 132,-121 182,-121 182,-103 132,-103"/>
<text text-anchor="middle" x="157" y="-109.8" font-family="Arial" font-size="8.00">MenuItem</text>
</g>
<!-- Box_MenuItem&#45;&gt;Box_ColorPickItem -->
<g id="edge2" class="edge"><title>Box_MenuItem&#45;&gt;Box_ColorPickItem</title>
<path fill="none" stroke="midnightblue" d="M157,-92.8318C157,-84.5161 157,-74.5476 157,-65.1537"/>
<polygon fill="none" stroke="midnightblue" points="153.5,-92.9377 157,-102.938 160.5,-92.9377 153.5,-92.9377"/>
</g>
</g>
</svg>
