<?xml version="1.0" encoding="UTF-8" standalone="no"?>
<!DOCTYPE svg PUBLIC "-//W3C//DTD SVG 1.1//EN"
 "http://www.w3.org/Graphics/SVG/1.1/DTD/svg11.dtd">
<!-- Generated by graphviz version 2.26.3 (20100126.1600)
 -->
<!-- Title: MenuItem Pages: 1 -->
<svg width="297pt" height="160pt"
 viewBox="0.00 0.00 297.00 160.00" xmlns="http://www.w3.org/2000/svg" xmlns:xlink="http://www.w3.org/1999/xlink">
<g id="graph1" class="graph" transform="scale(1 1) rotate(0) translate(4 156)">
<title>MenuItem</title>
<polygon fill="white" stroke="white" points="-4,5 -4,-156 294,-156 294,5 -4,5"/>
<!-- Box_ColorPicker -->
<g id="node1" class="node"><title>Box_ColorPicker</title>
<polygon fill="#ffffff" stroke="black" points="0,-1 0,-95 276,-95 276,-1 0,-1"/>
<text text-anchor="middle" x="138" y="-83.8" font-family="Arial" font-size="8.00">ColorPicker</text>
<polyline fill="none" stroke="black" points="0,-77 276,-77 "/>
<text text-anchor="start" x="8" y="-65.8" font-family="Arial" font-size="8.00">+ Color : Color</text>
<polyline fill="none" stroke="black" points="0,-59 276,-59 "/>
<text text-anchor="start" x="8" y="-47.8" font-family="Arial" font-size="8.00">+ OnKeyEvent () : void</text>
<text text-anchor="start" x="8" y="-37.8" font-family="Arial" font-size="8.00">+ Bounds () : Rectangle</text>
<text text-anchor="start" x="8" y="-27.8" font-family="Arial" font-size="8.00">+ OnLeftClick (Vector2 position, ClickState state, GameTime time) : void</text>
<text text-anchor="start" x="8" y="-17.8" font-family="Arial" font-size="8.00">+ OnRightClick (Vector2 position, ClickState state, GameTime time) : void</text>
<text text-anchor="start" x="8" y="-7.8" font-family="Arial" font-size="8.00">+ ColorPicker (Color def) : void</text>
</g>
<!-- Box_Widget -->
<g id="node2" class="node"><title>Box_Widget</title>
<polygon fill="#ffffff" stroke="black" points="38.5,-133 38.5,-151 79.5,-151 79.5,-133 38.5,-133"/>
<text text-anchor="middle" x="59" y="-139.8" font-family="Arial" font-size="8.00">Widget</text>
</g>
<!-- Box_Widget&#45;&gt;Box_ColorPicker -->
<g id="edge2" class="edge"><title>Box_Widget&#45;&gt;Box_ColorPicker</title>
<path fill="none" stroke="midnightblue" d="M73.2043,-125.099C80.2923,-116.665 89.256,-105.999 98.2378,-95.312"/>
<polygon fill="none" stroke="midnightblue" points="70.3293,-123.08 66.5749,-132.987 75.6881,-127.583 70.3293,-123.08"/>
</g>
<!-- Box_IKeyEventListener -->
<g id="node3" class="node"><title>Box_IKeyEventListener</title>
<polygon fill="#ffffff" stroke="black" points="97,-133 97,-151 179,-151 179,-133 97,-133"/>
<text text-anchor="middle" x="138" y="-139.8" font-family="Arial" font-size="8.00">IKeyEventListener</text>
</g>
<!-- Box_IKeyEventListener&#45;&gt;Box_ColorPicker -->
<g id="edge4" class="edge"><title>Box_IKeyEventListener&#45;&gt;Box_ColorPicker</title>
<path fill="none" stroke="midnightblue" d="M138,-122.922C138,-114.868 138,-105.099 138,-95.312"/>
<polygon fill="none" stroke="midnightblue" points="134.5,-122.987 138,-132.987 141.5,-122.987 134.5,-122.987"/>
</g>
<!-- Box_IMouseEventListener -->
<g id="node4" class="node"><title>Box_IMouseEventListener</title>
<polygon fill="#ffffff" stroke="black" points="197,-133 197,-151 289,-151 289,-133 197,-133"/>
<text text-anchor="middle" x="243" y="-139.8" font-family="Arial" font-size="8.00">IMouseEventListener</text>
</g>
<!-- Box_IMouseEventListener&#45;&gt;Box_ColorPicker -->
<g id="edge6" class="edge"><title>Box_IMouseEventListener&#45;&gt;Box_ColorPicker</title>
<path fill="none" stroke="midnightblue" d="M225.297,-126.152C215.703,-117.563 203.289,-106.449 190.848,-95.312"/>
<polygon fill="none" stroke="midnightblue" points="223.147,-128.925 232.932,-132.987 227.816,-123.709 223.147,-128.925"/>
</g>
</g>
</svg>
