<?xml version="1.0" encoding="UTF-8" standalone="no"?>
<!DOCTYPE svg PUBLIC "-//W3C//DTD SVG 1.1//EN"
 "http://www.w3.org/Graphics/SVG/1.1/DTD/svg11.dtd">
<!-- Generated by graphviz version 2.26.3 (20100126.1600)
 -->
<!-- Title: MenuItem Pages: 1 -->
<svg width="372pt" height="130pt"
 viewBox="0.00 0.00 372.00 130.00" xmlns="http://www.w3.org/2000/svg" xmlns:xlink="http://www.w3.org/1999/xlink">
<g id="graph1" class="graph" transform="scale(1 1) rotate(0) translate(4 126)">
<title>MenuItem</title>
<polygon fill="white" stroke="white" points="-4,5 -4,-126 369,-126 369,5 -4,5"/>
<!-- Box_ConfirmDialog -->
<g id="node1" class="node"><title>Box_ConfirmDialog</title>
<polygon fill="#ffffff" stroke="black" points="-0.5,-1 -0.5,-65 364.5,-65 364.5,-1 -0.5,-1"/>
<text text-anchor="middle" x="182" y="-53.8" font-family="Arial" font-size="8.00">ConfirmDialog</text>
<polyline fill="none" stroke="black" points="-0.5,-47 364.5,-47 "/>
<text text-anchor="start" x="7.5" y="-35.8" font-family="Arial" font-size="8.00">&#45; buttons : Knot3&#45;Entwurf</text>
<polyline fill="none" stroke="black" points="-0.5,-29 364.5,-29 "/>
<text text-anchor="start" x="7.5" y="-17.8" font-family="Arial" font-size="8.00">+ ConfirmDialog (Knot3&#45;Entwurf::GameScreen screen, Knot3&#45;Entwurf::DisplayLayer drawOrder,</text>
<text text-anchor="start" x="7.5" y="-7.8" font-family="Arial" font-size="8.00">String title, String text) : void</text>
</g>
<!-- Box_Dialog -->
<g id="node2" class="node"><title>Box_Dialog</title>
<polygon fill="#ffffff" stroke="black" points="163,-103 163,-121 201,-121 201,-103 163,-103"/>
<text text-anchor="middle" x="182" y="-109.8" font-family="Arial" font-size="8.00">Dialog</text>
</g>
<!-- Box_Dialog&#45;&gt;Box_ConfirmDialog -->
<g id="edge2" class="edge"><title>Box_Dialog&#45;&gt;Box_ConfirmDialog</title>
<path fill="none" stroke="midnightblue" d="M182,-92.8318C182,-84.5161 182,-74.5476 182,-65.1537"/>
<polygon fill="none" stroke="midnightblue" points="178.5,-92.9377 182,-102.938 185.5,-92.9377 178.5,-92.9377"/>
</g>
</g>
</svg>
