<?xml version="1.0" encoding="UTF-8" standalone="no"?>
<!DOCTYPE svg PUBLIC "-//W3C//DTD SVG 1.1//EN"
 "http://www.w3.org/Graphics/SVG/1.1/DTD/svg11.dtd">
<!-- Generated by graphviz version 2.26.3 (20100126.1600)
 -->
<!-- Title: MenuItem Pages: 1 -->
<svg width="476pt" height="120pt"
 viewBox="0.00 0.00 476.00 120.00" xmlns="http://www.w3.org/2000/svg" xmlns:xlink="http://www.w3.org/1999/xlink">
<g id="graph1" class="graph" transform="scale(1 1) rotate(0) translate(4 116)">
<title>MenuItem</title>
<polygon fill="white" stroke="white" points="-4,5 -4,-116 473,-116 473,5 -4,5"/>
<!-- Box_ConfirmDialog -->
<g id="node1" class="node"><title>Box_ConfirmDialog</title>
<polygon fill="#ffffff" stroke="black" points="-0.5,-1 -0.5,-55 468.5,-55 468.5,-1 -0.5,-1"/>
<text text-anchor="middle" x="234" y="-43.8" font-family="Arial" font-size="8.00">ConfirmDialog</text>
<polyline fill="none" stroke="black" points="-0.5,-37 468.5,-37 "/>
<text text-anchor="start" x="7.5" y="-25.8" font-family="Arial" font-size="8.00">&#45; buttons : Knot3&#45;Entwurf</text>
<polyline fill="none" stroke="black" points="-0.5,-19 468.5,-19 "/>
<text text-anchor="start" x="7.5" y="-7.8" font-family="Arial" font-size="8.00">+ ConfirmDialog (Knot3&#45;Entwurf::GameScreen screen, Knot3&#45;Entwurf::DisplayLayer drawOrder, String title, String text) : void</text>
</g>
<!-- Box_Dialog -->
<g id="node2" class="node"><title>Box_Dialog</title>
<polygon fill="#ffffff" stroke="black" points="215,-93 215,-111 253,-111 253,-93 215,-93"/>
<text text-anchor="middle" x="234" y="-99.8" font-family="Arial" font-size="8.00">Dialog</text>
</g>
<!-- Box_Dialog&#45;&gt;Box_ConfirmDialog -->
<g id="edge2" class="edge"><title>Box_Dialog&#45;&gt;Box_ConfirmDialog</title>
<path fill="none" stroke="midnightblue" d="M234,-82.6404C234,-74.1998 234,-64.1602 234,-55.0036"/>
<polygon fill="none" stroke="midnightblue" points="230.5,-82.9261 234,-92.9261 237.5,-82.9262 230.5,-82.9261"/>
</g>
</g>
</svg>
