<?xml version="1.0" encoding="UTF-8" standalone="no"?>
<!DOCTYPE svg PUBLIC "-//W3C//DTD SVG 1.1//EN"
 "http://www.w3.org/Graphics/SVG/1.1/DTD/svg11.dtd">
<!-- Generated by graphviz version 2.26.3 (20100126.1600)
 -->
<!-- Title: MenuItem Pages: 1 -->
<svg width="184pt" height="130pt"
 viewBox="0.00 0.00 184.00 130.00" xmlns="http://www.w3.org/2000/svg" xmlns:xlink="http://www.w3.org/1999/xlink">
<g id="graph1" class="graph" transform="scale(1 1) rotate(0) translate(4 126)">
<title>MenuItem</title>
<polygon fill="white" stroke="white" points="-4,5 -4,-126 181,-126 181,5 -4,5"/>
<!-- Box_CoreMousePointer -->
<g id="node1" class="node"><title>Box_CoreMousePointer</title>
<polygon fill="#ffffff" stroke="black" points="-0.5,-1 -0.5,-65 176.5,-65 176.5,-1 -0.5,-1"/>
<text text-anchor="middle" x="88" y="-53.8" font-family="Arial" font-size="8.00">Core.MousePointer</text>
<polyline fill="none" stroke="black" points="-0.5,-47 176.5,-47 "/>
<text text-anchor="middle" x="88" y="-35.8" font-family="Arial" font-size="8.00"> </text>
<polyline fill="none" stroke="black" points="-0.5,-29 176.5,-29 "/>
<text text-anchor="start" x="7.5" y="-17.8" font-family="Arial" font-size="8.00">+ MousePointer (GameScreen screen) : void</text>
<text text-anchor="start" x="7.5" y="-7.8" font-family="Arial" font-size="8.00">+ Draw (GameTime time) : void</text>
</g>
<!-- Box_DrawableGameScreenComponent -->
<g id="node2" class="node"><title>Box_DrawableGameScreenComponent</title>
<polygon fill="#ffffff" stroke="black" points="18,-103 18,-121 158,-121 158,-103 18,-103"/>
<text text-anchor="middle" x="88" y="-109.8" font-family="Arial" font-size="8.00">DrawableGameScreenComponent</text>
</g>
<!-- Box_DrawableGameScreenComponent&#45;&gt;Box_CoreMousePointer -->
<g id="edge2" class="edge"><title>Box_DrawableGameScreenComponent&#45;&gt;Box_CoreMousePointer</title>
<path fill="none" stroke="midnightblue" d="M88,-92.8318C88,-84.5161 88,-74.5476 88,-65.1537"/>
<polygon fill="none" stroke="midnightblue" points="84.5001,-92.9377 88,-102.938 91.5001,-92.9377 84.5001,-92.9377"/>
</g>
</g>
</svg>
