<?xml version="1.0" encoding="UTF-8" standalone="no"?>
<!DOCTYPE svg PUBLIC "-//W3C//DTD SVG 1.1//EN"
 "http://www.w3.org/Graphics/SVG/1.1/DTD/svg11.dtd">
<!-- Generated by graphviz version 2.26.3 (20100126.1600)
 -->
<!-- Title: MenuItem Pages: 1 -->
<svg width="312pt" height="130pt"
 viewBox="0.00 0.00 312.00 130.00" xmlns="http://www.w3.org/2000/svg" xmlns:xlink="http://www.w3.org/1999/xlink">
<g id="graph1" class="graph" transform="scale(1 1) rotate(0) translate(4 126)">
<title>MenuItem</title>
<polygon fill="white" stroke="white" points="-4,5 -4,-126 309,-126 309,5 -4,5"/>
<!-- Box_CoreBooleanOptionInfo -->
<g id="node1" class="node"><title>Box_CoreBooleanOptionInfo</title>
<polygon fill="#ffffff" stroke="black" points="-0.5,-1 -0.5,-65 304.5,-65 304.5,-1 -0.5,-1"/>
<text text-anchor="middle" x="152" y="-53.8" font-family="Arial" font-size="8.00">Core.BooleanOptionInfo</text>
<polyline fill="none" stroke="black" points="-0.5,-47 304.5,-47 "/>
<text text-anchor="start" x="7.5" y="-35.8" font-family="Arial" font-size="8.00">+ Value : bool</text>
<polyline fill="none" stroke="black" points="-0.5,-29 304.5,-29 "/>
<text text-anchor="start" x="7.5" y="-17.8" font-family="Arial" font-size="8.00">+ BooleanOptionInfo (String section, String name, String defaultValue, ConfigFile</text>
<text text-anchor="start" x="7.5" y="-7.8" font-family="Arial" font-size="8.00">configFile) : void</text>
</g>
<!-- Box_DistinctOptionInfo -->
<g id="node2" class="node"><title>Box_DistinctOptionInfo</title>
<polygon fill="#ffffff" stroke="black" points="112,-103 112,-121 192,-121 192,-103 112,-103"/>
<text text-anchor="middle" x="152" y="-109.8" font-family="Arial" font-size="8.00">DistinctOptionInfo</text>
</g>
<!-- Box_DistinctOptionInfo&#45;&gt;Box_CoreBooleanOptionInfo -->
<g id="edge2" class="edge"><title>Box_DistinctOptionInfo&#45;&gt;Box_CoreBooleanOptionInfo</title>
<path fill="none" stroke="midnightblue" d="M152,-92.8318C152,-84.5161 152,-74.5476 152,-65.1537"/>
<polygon fill="none" stroke="midnightblue" points="148.5,-92.9377 152,-102.938 155.5,-92.9377 148.5,-92.9377"/>
</g>
</g>
</svg>
