<?xml version="1.0" encoding="UTF-8" standalone="no"?>
<!DOCTYPE svg PUBLIC "-//W3C//DTD SVG 1.1//EN"
 "http://www.w3.org/Graphics/SVG/1.1/DTD/svg11.dtd">
<!-- Generated by graphviz version 2.26.3 (20100126.1600)
 -->
<!-- Title: MenuItem Pages: 1 -->
<svg width="290pt" height="140pt"
 viewBox="0.00 0.00 290.00 140.00" xmlns="http://www.w3.org/2000/svg" xmlns:xlink="http://www.w3.org/1999/xlink">
<g id="graph1" class="graph" transform="scale(1 1) rotate(0) translate(4 136)">
<title>MenuItem</title>
<polygon fill="white" stroke="white" points="-4,5 -4,-136 287,-136 287,5 -4,5"/>
<!-- Box_CoreGameScreenComponent -->
<g id="node1" class="node"><title>Box_CoreGameScreenComponent</title>
<polygon fill="#ffffff" stroke="black" points="0,-1 0,-75 282,-75 282,-1 0,-1"/>
<text text-anchor="middle" x="141" y="-63.8" font-family="Arial" font-size="8.00">Core.GameScreenComponent</text>
<polyline fill="none" stroke="black" points="0,-57 282,-57 "/>
<text text-anchor="start" x="8" y="-45.8" font-family="Arial" font-size="8.00">+ Index : DisplayLayer</text>
<text text-anchor="start" x="8" y="-35.8" font-family="Arial" font-size="8.00">+ Screen : GameScreen</text>
<polyline fill="none" stroke="black" points="0,-29 282,-29 "/>
<text text-anchor="start" x="8" y="-17.8" font-family="Arial" font-size="8.00">+ SubComponents (GameTime GameTime) : IEnumerable</text>
<text text-anchor="start" x="8" y="-7.8" font-family="Arial" font-size="8.00">+ GameStateComponent (GameScreen screen, DisplayLayer index) : void</text>
</g>
<!-- Box_XNAGameComponent -->
<g id="node2" class="node"><title>Box_XNAGameComponent</title>
<polygon fill="#ffffff" stroke="black" points="92.5,-113 92.5,-131 189.5,-131 189.5,-113 92.5,-113"/>
<text text-anchor="middle" x="141" y="-119.8" font-family="Arial" font-size="8.00">XNA.GameComponent</text>
</g>
<!-- Box_XNAGameComponent&#45;&gt;Box_CoreGameScreenComponent -->
<g id="edge2" class="edge"><title>Box_XNAGameComponent&#45;&gt;Box_CoreGameScreenComponent</title>
<path fill="none" stroke="midnightblue" d="M141,-102.442C141,-94.3016 141,-84.5681 141,-75.1627"/>
<polygon fill="none" stroke="midnightblue" points="137.5,-102.69 141,-112.69 144.5,-102.69 137.5,-102.69"/>
</g>
</g>
</svg>
