<?xml version="1.0" encoding="UTF-8" standalone="no"?>
<!DOCTYPE svg PUBLIC "-//W3C//DTD SVG 1.1//EN"
 "http://www.w3.org/Graphics/SVG/1.1/DTD/svg11.dtd">
<!-- Generated by graphviz version 2.26.3 (20100126.1600)
 -->
<!-- Title: MenuItem Pages: 1 -->
<svg width="202pt" height="130pt"
 viewBox="0.00 0.00 202.00 130.00" xmlns="http://www.w3.org/2000/svg" xmlns:xlink="http://www.w3.org/1999/xlink">
<g id="graph1" class="graph" transform="scale(1 1) rotate(0) translate(4 126)">
<title>MenuItem</title>
<polygon fill="white" stroke="white" points="-4,5 -4,-126 199,-126 199,5 -4,5"/>
<!-- Box_CoreIGameScreenComponent -->
<g id="node1" class="node"><title>Box_CoreIGameScreenComponent</title>
<polygon fill="#ffffff" stroke="black" points="-0.5,-1 -0.5,-65 194.5,-65 194.5,-1 -0.5,-1"/>
<text text-anchor="middle" x="97" y="-53.8" font-family="Arial" font-size="8.00">Core.IGameScreenComponent</text>
<polyline fill="none" stroke="black" points="-0.5,-47 194.5,-47 "/>
<text text-anchor="start" x="7.5" y="-35.8" font-family="Arial" font-size="8.00">+ Index : DisplayLayer</text>
<text text-anchor="start" x="7.5" y="-25.8" font-family="Arial" font-size="8.00">+ Screen : GameScreen</text>
<polyline fill="none" stroke="black" points="-0.5,-19 194.5,-19 "/>
<text text-anchor="start" x="7.5" y="-7.8" font-family="Arial" font-size="8.00">+ SubComponents (GameTime time) : IEnumerable</text>
</g>
<!-- Box_XNAIGameComponent -->
<g id="node2" class="node"><title>Box_XNAIGameComponent</title>
<polygon fill="#ffffff" stroke="black" points="48,-103 48,-121 146,-121 146,-103 48,-103"/>
<text text-anchor="middle" x="97" y="-109.8" font-family="Arial" font-size="8.00">XNA.IGameComponent</text>
</g>
<!-- Box_XNAIGameComponent&#45;&gt;Box_CoreIGameScreenComponent -->
<g id="edge2" class="edge"><title>Box_XNAIGameComponent&#45;&gt;Box_CoreIGameScreenComponent</title>
<path fill="none" stroke="midnightblue" d="M97,-92.8318C97,-84.5161 97,-74.5476 97,-65.1537"/>
<polygon fill="none" stroke="midnightblue" points="93.5001,-92.9377 97,-102.938 100.5,-92.9377 93.5001,-92.9377"/>
</g>
</g>
</svg>
