<?xml version="1.0" encoding="UTF-8" standalone="no"?>
<!DOCTYPE svg PUBLIC "-//W3C//DTD SVG 1.1//EN"
 "http://www.w3.org/Graphics/SVG/1.1/DTD/svg11.dtd">
<!-- Generated by graphviz version 2.26.3 (20100126.1600)
 -->
<!-- Title: MenuItem Pages: 1 -->
<svg width="366pt" height="180pt"
 viewBox="0.00 0.00 366.00 180.00" xmlns="http://www.w3.org/2000/svg" xmlns:xlink="http://www.w3.org/1999/xlink">
<g id="graph1" class="graph" transform="scale(1 1) rotate(0) translate(4 176)">
<title>MenuItem</title>
<polygon fill="white" stroke="white" points="-4,5 -4,-176 363,-176 363,5 -4,5"/>
<!-- Box_CreativeModeScreen -->
<g id="node1" class="node"><title>Box_CreativeModeScreen</title>
<polygon fill="#ffffff" stroke="black" points="-0.5,-1 -0.5,-115 358.5,-115 358.5,-1 -0.5,-1"/>
<text text-anchor="middle" x="179" y="-103.8" font-family="Arial" font-size="8.00">CreativeModeScreen</text>
<polyline fill="none" stroke="black" points="-0.5,-97 358.5,-97 "/>
<text text-anchor="start" x="7.5" y="-85.8" font-family="Arial" font-size="8.00">&#45; World : Knot3&#45;Entwurf</text>
<text text-anchor="start" x="7.5" y="-75.8" font-family="Arial" font-size="8.00">&#45; KnotRenderer : Knot3&#45;Entwurf</text>
<text text-anchor="start" x="7.5" y="-65.8" font-family="Arial" font-size="8.00">+ Undo : Stack&lt;Knot&gt;</text>
<text text-anchor="start" x="7.5" y="-55.8" font-family="Arial" font-size="8.00">+ Redo : Stack&lt;Knot&gt;</text>
<text text-anchor="start" x="7.5" y="-45.8" font-family="Arial" font-size="8.00">+ Knot : Knot3</text>
<polyline fill="none" stroke="black" points="-0.5,-39 358.5,-39 "/>
<text text-anchor="start" x="7.5" y="-27.8" font-family="Arial" font-size="8.00">+ Update (GameTime time) : void</text>
<text text-anchor="start" x="7.5" y="-17.8" font-family="Arial" font-size="8.00">+ Entered (Knot3&#45;Entwurf::GameScreen previousScreen, GameTime time) : void</text>
<text text-anchor="start" x="7.5" y="-7.8" font-family="Arial" font-size="8.00">+ CreativeModeScreen (ModelingProject1::Knot3Game game, Knot3::KnotData::Knot knot) : void</text>
</g>
<!-- Box_GameScreen1 -->
<g id="node2" class="node"><title>Box_GameScreen1</title>
<polygon fill="#ffffff" stroke="black" points="145,-153 145,-171 213,-171 213,-153 145,-153"/>
<text text-anchor="middle" x="179" y="-159.8" font-family="Arial" font-size="8.00">GameScreen1</text>
</g>
<!-- Box_GameScreen1&#45;&gt;Box_CreativeModeScreen -->
<g id="edge2" class="edge"><title>Box_GameScreen1&#45;&gt;Box_CreativeModeScreen</title>
<path fill="none" stroke="midnightblue" d="M179,-142.516C179,-134.577 179,-124.949 179,-115.075"/>
<polygon fill="none" stroke="midnightblue" points="175.5,-142.771 179,-152.771 182.5,-142.771 175.5,-142.771"/>
</g>
</g>
</svg>
