<?xml version="1.0" encoding="UTF-8" standalone="no"?>
<!DOCTYPE svg PUBLIC "-//W3C//DTD SVG 1.1//EN"
 "http://www.w3.org/Graphics/SVG/1.1/DTD/svg11.dtd">
<!-- Generated by graphviz version 2.26.3 (20100126.1600)
 -->
<!-- Title: MenuItem Pages: 1 -->
<svg width="346pt" height="200pt"
 viewBox="0.00 0.00 346.00 200.00" xmlns="http://www.w3.org/2000/svg" xmlns:xlink="http://www.w3.org/1999/xlink">
<g id="graph1" class="graph" transform="scale(1 1) rotate(0) translate(4 196)">
<title>MenuItem</title>
<polygon fill="white" stroke="white" points="-4,5 -4,-196 343,-196 343,5 -4,5"/>
<!-- Box_Dialog -->
<g id="node1" class="node"><title>Box_Dialog</title>
<polygon fill="#ffffff" stroke="black" points="0,-1 0,-135 338,-135 338,-1 0,-1"/>
<text text-anchor="middle" x="169" y="-123.8" font-family="Arial" font-size="8.00">Dialog</text>
<polyline fill="none" stroke="black" points="0,-117 338,-117 "/>
<text text-anchor="start" x="8" y="-105.8" font-family="Arial" font-size="8.00">+ Title : String</text>
<text text-anchor="start" x="8" y="-95.8" font-family="Arial" font-size="8.00">+ Text : String</text>
<polyline fill="none" stroke="black" points="0,-89 338,-89 "/>
<text text-anchor="start" x="8" y="-77.8" font-family="Arial" font-size="8.00">+ OnKeyEvent () : void</text>
<text text-anchor="start" x="8" y="-67.8" font-family="Arial" font-size="8.00">+ Bounds () : Rectangle</text>
<text text-anchor="start" x="8" y="-57.8" font-family="Arial" font-size="8.00">+ OnLeftClick (Vector2 position, Knot3&#45;Entwurf::ClickState state, GameTime time) :</text>
<text text-anchor="start" x="8" y="-47.8" font-family="Arial" font-size="8.00">void</text>
<text text-anchor="start" x="8" y="-37.8" font-family="Arial" font-size="8.00">+ OnRightClick (Vector2 position, Knot3&#45;Entwurf::ClickState state, GameTime time)</text>
<text text-anchor="start" x="8" y="-27.8" font-family="Arial" font-size="8.00">: void</text>
<text text-anchor="start" x="8" y="-17.8" font-family="Arial" font-size="8.00">+ Dialog (Knot3&#45;Entwurf::GameScreen screen, Knot3&#45;Entwurf::DisplayLayer drawOrder,</text>
<text text-anchor="start" x="8" y="-7.8" font-family="Arial" font-size="8.00">String title, String text) : void</text>
</g>
<!-- Box_Widget -->
<g id="node2" class="node"><title>Box_Widget</title>
<polygon fill="#ffffff" stroke="black" points="148.5,-173 148.5,-191 189.5,-191 189.5,-173 148.5,-173"/>
<text text-anchor="middle" x="169" y="-179.8" font-family="Arial" font-size="8.00">Widget</text>
</g>
<!-- Box_Widget&#45;&gt;Box_Dialog -->
<g id="edge2" class="edge"><title>Box_Widget&#45;&gt;Box_Dialog</title>
<path fill="none" stroke="midnightblue" d="M169,-162.57C169,-154.742 169,-145.21 169,-135.246"/>
<polygon fill="none" stroke="midnightblue" points="165.5,-162.671 169,-172.671 172.5,-162.671 165.5,-162.671"/>
</g>
</g>
</svg>
