<?xml version="1.0" encoding="UTF-8" standalone="no"?>
<!DOCTYPE svg PUBLIC "-//W3C//DTD SVG 1.1//EN"
 "http://www.w3.org/Graphics/SVG/1.1/DTD/svg11.dtd">
<!-- Generated by graphviz version 2.26.3 (20100126.1600)
 -->
<!-- Title: MenuItem Pages: 1 -->
<svg width="316pt" height="180pt"
 viewBox="0.00 0.00 316.00 180.00" xmlns="http://www.w3.org/2000/svg" xmlns:xlink="http://www.w3.org/1999/xlink">
<g id="graph1" class="graph" transform="scale(1 1) rotate(0) translate(4 176)">
<title>MenuItem</title>
<polygon fill="white" stroke="white" points="-4,5 -4,-176 313,-176 313,5 -4,5"/>
<!-- Box_Dialog -->
<g id="node1" class="node"><title>Box_Dialog</title>
<polygon fill="#ffffff" stroke="black" points="0,-1 0,-115 308,-115 308,-1 0,-1"/>
<text text-anchor="middle" x="154" y="-103.8" font-family="Arial" font-size="8.00">Dialog</text>
<polyline fill="none" stroke="black" points="0,-97 308,-97 "/>
<text text-anchor="start" x="8" y="-85.8" font-family="Arial" font-size="8.00">+ Title : String</text>
<text text-anchor="start" x="8" y="-75.8" font-family="Arial" font-size="8.00">+ Text : String</text>
<polyline fill="none" stroke="black" points="0,-69 308,-69 "/>
<text text-anchor="start" x="8" y="-57.8" font-family="Arial" font-size="8.00">+ OnKeyEvent () : void</text>
<text text-anchor="start" x="8" y="-47.8" font-family="Arial" font-size="8.00">+ Bounds () : Rectangle</text>
<text text-anchor="start" x="8" y="-37.8" font-family="Arial" font-size="8.00">+ OnLeftClick (Vector2 position, ClickState state, GameTime time) : void</text>
<text text-anchor="start" x="8" y="-27.8" font-family="Arial" font-size="8.00">+ OnRightClick (Vector2 position, ClickState state, GameTime time) : void</text>
<text text-anchor="start" x="8" y="-17.8" font-family="Arial" font-size="8.00">+ Dialog (GameScreen screen, DisplayLayer drawOrder, String title, String text) :</text>
<text text-anchor="start" x="8" y="-7.8" font-family="Arial" font-size="8.00">void</text>
</g>
<!-- Box_Widget -->
<g id="node2" class="node"><title>Box_Widget</title>
<polygon fill="#ffffff" stroke="black" points="54.5,-153 54.5,-171 95.5,-171 95.5,-153 54.5,-153"/>
<text text-anchor="middle" x="75" y="-159.8" font-family="Arial" font-size="8.00">Widget</text>
</g>
<!-- Box_Widget&#45;&gt;Box_Dialog -->
<g id="edge2" class="edge"><title>Box_Widget&#45;&gt;Box_Dialog</title>
<path fill="none" stroke="midnightblue" d="M88.1518,-144.686C94.4721,-136.366 102.447,-125.868 110.645,-115.075"/>
<polygon fill="none" stroke="midnightblue" points="85.2726,-142.69 82.0107,-152.771 90.8467,-146.925 85.2726,-142.69"/>
</g>
<!-- Box_IKeyEventListener -->
<g id="node3" class="node"><title>Box_IKeyEventListener</title>
<polygon fill="#ffffff" stroke="black" points="113,-153 113,-171 195,-171 195,-153 113,-153"/>
<text text-anchor="middle" x="154" y="-159.8" font-family="Arial" font-size="8.00">IKeyEventListener</text>
</g>
<!-- Box_IKeyEventListener&#45;&gt;Box_Dialog -->
<g id="edge4" class="edge"><title>Box_IKeyEventListener&#45;&gt;Box_Dialog</title>
<path fill="none" stroke="midnightblue" d="M154,-142.516C154,-134.577 154,-124.949 154,-115.075"/>
<polygon fill="none" stroke="midnightblue" points="150.5,-142.771 154,-152.771 157.5,-142.771 150.5,-142.771"/>
</g>
<!-- Box_IMouseEventListener -->
<g id="node4" class="node"><title>Box_IMouseEventListener</title>
<polygon fill="#ffffff" stroke="black" points="213,-153 213,-171 305,-171 305,-153 213,-153"/>
<text text-anchor="middle" x="259" y="-159.8" font-family="Arial" font-size="8.00">IMouseEventListener</text>
</g>
<!-- Box_IMouseEventListener&#45;&gt;Box_Dialog -->
<g id="edge6" class="edge"><title>Box_IMouseEventListener&#45;&gt;Box_Dialog</title>
<path fill="none" stroke="midnightblue" d="M242.317,-145.476C233.796,-137.036 222.868,-126.212 211.624,-115.075"/>
<polygon fill="none" stroke="midnightblue" points="240.114,-148.22 249.682,-152.771 245.04,-143.247 240.114,-148.22"/>
</g>
</g>
</svg>
