<?xml version="1.0" encoding="UTF-8" standalone="no"?>
<!DOCTYPE svg PUBLIC "-//W3C//DTD SVG 1.1//EN"
 "http://www.w3.org/Graphics/SVG/1.1/DTD/svg11.dtd">
<!-- Generated by graphviz version 2.26.3 (20100126.1600)
 -->
<!-- Title: MenuItem Pages: 1 -->
<svg width="316pt" height="190pt"
 viewBox="0.00 0.00 316.00 190.00" xmlns="http://www.w3.org/2000/svg" xmlns:xlink="http://www.w3.org/1999/xlink">
<g id="graph1" class="graph" transform="scale(1 1) rotate(0) translate(4 186)">
<title>MenuItem</title>
<polygon fill="white" stroke="white" points="-4,5 -4,-186 313,-186 313,5 -4,5"/>
<!-- Box_Dialog -->
<g id="node1" class="node"><title>Box_Dialog</title>
<polygon fill="#ffffff" stroke="black" points="0,-1 0,-125 308,-125 308,-1 0,-1"/>
<text text-anchor="middle" x="154" y="-113.8" font-family="Arial" font-size="8.00">Dialog</text>
<polyline fill="none" stroke="black" points="0,-107 308,-107 "/>
<text text-anchor="start" x="8" y="-95.8" font-family="Arial" font-size="8.00">+ Title : String</text>
<text text-anchor="start" x="8" y="-85.8" font-family="Arial" font-size="8.00">+ Text : String</text>
<polyline fill="none" stroke="black" points="0,-79 308,-79 "/>
<text text-anchor="start" x="8" y="-67.8" font-family="Arial" font-size="8.00">+ OnKeyEvent () : void</text>
<text text-anchor="start" x="8" y="-57.8" font-family="Arial" font-size="8.00">+ Bounds () : Rectangle</text>
<text text-anchor="start" x="8" y="-47.8" font-family="Arial" font-size="8.00">+ OnLeftClick (Vector2 position, ClickState state, GameTime time) : void</text>
<text text-anchor="start" x="8" y="-37.8" font-family="Arial" font-size="8.00">+ OnRightClick (Vector2 position, ClickState state, GameTime time) : void</text>
<text text-anchor="start" x="8" y="-27.8" font-family="Arial" font-size="8.00">+ Dialog (GameScreen screen, DisplayLayer drawOrder, String title, String text) :</text>
<text text-anchor="start" x="8" y="-17.8" font-family="Arial" font-size="8.00">void</text>
<text text-anchor="start" x="8" y="-7.8" font-family="Arial" font-size="8.00">+ OnScroll (int float) : void</text>
</g>
<!-- Box_Widget -->
<g id="node2" class="node"><title>Box_Widget</title>
<polygon fill="#ffffff" stroke="black" points="54.5,-163 54.5,-181 95.5,-181 95.5,-163 54.5,-163"/>
<text text-anchor="middle" x="75" y="-169.8" font-family="Arial" font-size="8.00">Widget</text>
</g>
<!-- Box_Widget&#45;&gt;Box_Dialog -->
<g id="edge2" class="edge"><title>Box_Widget&#45;&gt;Box_Dialog</title>
<path fill="none" stroke="midnightblue" d="M87.7552,-154.401C93.724,-146.166 101.229,-135.81 109.024,-125.055"/>
<polygon fill="none" stroke="midnightblue" points="84.77,-152.556 81.7355,-162.707 90.4379,-156.664 84.77,-152.556"/>
</g>
<!-- Box_IKeyEventListener -->
<g id="node3" class="node"><title>Box_IKeyEventListener</title>
<polygon fill="#ffffff" stroke="black" points="113,-163 113,-181 195,-181 195,-163 113,-163"/>
<text text-anchor="middle" x="154" y="-169.8" font-family="Arial" font-size="8.00">IKeyEventListener</text>
</g>
<!-- Box_IKeyEventListener&#45;&gt;Box_Dialog -->
<g id="edge4" class="edge"><title>Box_IKeyEventListener&#45;&gt;Box_Dialog</title>
<path fill="none" stroke="midnightblue" d="M154,-152.506C154,-144.605 154,-135.001 154,-125.055"/>
<polygon fill="none" stroke="midnightblue" points="150.5,-152.707 154,-162.707 157.5,-152.707 150.5,-152.707"/>
</g>
<!-- Box_IMouseEventListener -->
<g id="node4" class="node"><title>Box_IMouseEventListener</title>
<polygon fill="#ffffff" stroke="black" points="213,-163 213,-181 305,-181 305,-163 213,-163"/>
<text text-anchor="middle" x="259" y="-169.8" font-family="Arial" font-size="8.00">IMouseEventListener</text>
</g>
<!-- Box_IMouseEventListener&#45;&gt;Box_Dialog -->
<g id="edge6" class="edge"><title>Box_IMouseEventListener&#45;&gt;Box_Dialog</title>
<path fill="none" stroke="midnightblue" d="M243.059,-155.452C234.971,-147.056 224.584,-136.273 213.778,-125.055"/>
<polygon fill="none" stroke="midnightblue" points="240.589,-157.933 250.048,-162.707 245.631,-153.077 240.589,-157.933"/>
</g>
</g>
</svg>
