<?xml version="1.0" encoding="UTF-8" standalone="no"?>
<!DOCTYPE svg PUBLIC "-//W3C//DTD SVG 1.1//EN"
 "http://www.w3.org/Graphics/SVG/1.1/DTD/svg11.dtd">
<!-- Generated by graphviz version 2.26.3 (20100126.1600)
 -->
<!-- Title: MenuItem Pages: 1 -->
<svg width="550pt" height="130pt"
 viewBox="0.00 0.00 550.00 130.00" xmlns="http://www.w3.org/2000/svg" xmlns:xlink="http://www.w3.org/1999/xlink">
<g id="graph1" class="graph" transform="scale(1 1) rotate(0) translate(4 126)">
<title>MenuItem</title>
<polygon fill="white" stroke="white" points="-4,5 -4,-126 547,-126 547,5 -4,5"/>
<!-- Box_DistinctOptionInfo -->
<g id="node1" class="node"><title>Box_DistinctOptionInfo</title>
<polygon fill="#ffffff" stroke="black" points="0,-1 0,-65 542,-65 542,-1 0,-1"/>
<text text-anchor="middle" x="271" y="-53.8" font-family="Arial" font-size="8.00">DistinctOptionInfo</text>
<polyline fill="none" stroke="black" points="0,-47 542,-47 "/>
<text text-anchor="start" x="8" y="-35.8" font-family="Arial" font-size="8.00">+ ValidValues : HashSet&lt;string&gt;</text>
<text text-anchor="start" x="8" y="-25.8" font-family="Arial" font-size="8.00">+ Value : String</text>
<polyline fill="none" stroke="black" points="0,-19 542,-19 "/>
<text text-anchor="start" x="8" y="-7.8" font-family="Arial" font-size="8.00">+ DistinctOptionInfo (String section, String name, String defaultValue, IEnumerable&lt;string&gt; validValues, Knot3&#45;Entwurf::ConfigFile configFile) : void</text>
</g>
<!-- Box_OptionInfo1 -->
<g id="node2" class="node"><title>Box_OptionInfo1</title>
<polygon fill="#ffffff" stroke="black" points="242,-103 242,-121 300,-121 300,-103 242,-103"/>
<text text-anchor="middle" x="271" y="-109.8" font-family="Arial" font-size="8.00">OptionInfo1</text>
</g>
<!-- Box_OptionInfo1&#45;&gt;Box_DistinctOptionInfo -->
<g id="edge2" class="edge"><title>Box_OptionInfo1&#45;&gt;Box_DistinctOptionInfo</title>
<path fill="none" stroke="midnightblue" d="M271,-92.8318C271,-84.5161 271,-74.5476 271,-65.1537"/>
<polygon fill="none" stroke="midnightblue" points="267.5,-92.9377 271,-102.938 274.5,-92.9377 267.5,-92.9377"/>
</g>
</g>
</svg>
