<?xml version="1.0" encoding="UTF-8" standalone="no"?>
<!DOCTYPE svg PUBLIC "-//W3C//DTD SVG 1.1//EN"
 "http://www.w3.org/Graphics/SVG/1.1/DTD/svg11.dtd">
<!-- Generated by graphviz version 2.26.3 (20100126.1600)
 -->
<!-- Title: MenuItem Pages: 1 -->
<svg width="421pt" height="168pt"
 viewBox="0.00 0.00 421.00 168.00" xmlns="http://www.w3.org/2000/svg" xmlns:xlink="http://www.w3.org/1999/xlink">
<g id="graph1" class="graph" transform="scale(1 1) rotate(0) translate(4 164)">
<title>MenuItem</title>
<polygon fill="white" stroke="white" points="-4,5 -4,-164 418,-164 418,5 -4,5"/>
<!-- Box_DrawableGameScreenComponent -->
<g id="node1" class="node"><title>Box_DrawableGameScreenComponent</title>
<polygon fill="#ffffff" stroke="black" points="0,-1 0,-85 394,-85 394,-1 0,-1"/>
<text text-anchor="middle" x="197" y="-73.8" font-family="Arial" font-size="8.00">DrawableGameScreenComponent</text>
<polyline fill="none" stroke="black" points="0,-67 394,-67 "/>
<text text-anchor="start" x="8" y="-55.8" font-family="Arial" font-size="8.00">+ Screen : Knot3&#45;Entwurf</text>
<text text-anchor="start" x="8" y="-45.8" font-family="Arial" font-size="8.00">+ Index : Knot3&#45;Entwurf</text>
<polyline fill="none" stroke="black" points="0,-39 394,-39 "/>
<text text-anchor="start" x="8" y="-27.8" font-family="Arial" font-size="8.00">+ SubComponents (GameTime GameTime) : Knot3&#45;Entwurf</text>
<text text-anchor="start" x="8" y="-17.8" font-family="Arial" font-size="8.00">+ DrawableGameScreenComponent (Knot3&#45;Entwurf::GameScreen screen, Knot3&#45;Entwurf::DisplayLayer</text>
<text text-anchor="start" x="8" y="-7.8" font-family="Arial" font-size="8.00">index) : void</text>
</g>
<!-- Box_XNADrawableGameComponent -->
<g id="node2" class="node"><title>Box_XNADrawableGameComponent</title>
<polygon fill="#ffffff" stroke="black" points="281,-132 281,-150 413,-150 413,-132 281,-132"/>
<text text-anchor="middle" x="347" y="-138.8" font-family="Arial" font-size="8.00">XNA.DrawableGameComponent</text>
</g>
<!-- Box_DrawableGameComponent -->
<g id="node3" class="node"><title>Box_DrawableGameComponent</title>
<polygon fill="none" stroke="black" points="131,-123 131,-159 263,-159 263,-123 131,-123"/>
<text text-anchor="middle" x="197" y="-138.8" font-family="Arial" font-size="8.00">Box_DrawableGameComponent</text>
</g>
<!-- Box_DrawableGameComponent&#45;&gt;Box_DrawableGameScreenComponent -->
<g id="edge2" class="edge"><title>Box_DrawableGameComponent&#45;&gt;Box_DrawableGameScreenComponent</title>
<path fill="none" stroke="midnightblue" d="M197,-112.454C197,-103.97 197,-94.4903 197,-85.3275"/>
<polygon fill="none" stroke="midnightblue" points="193.5,-112.567 197,-122.567 200.5,-112.567 193.5,-112.567"/>
</g>
</g>
</svg>
