<?xml version="1.0" encoding="UTF-8" standalone="no"?>
<!DOCTYPE svg PUBLIC "-//W3C//DTD SVG 1.1//EN"
 "http://www.w3.org/Graphics/SVG/1.1/DTD/svg11.dtd">
<!-- Generated by graphviz version 2.26.3 (20100126.1600)
 -->
<!-- Title: MenuItem Pages: 1 -->
<svg width="382pt" height="158pt"
 viewBox="0.00 0.00 382.00 158.00" xmlns="http://www.w3.org/2000/svg" xmlns:xlink="http://www.w3.org/1999/xlink">
<g id="graph1" class="graph" transform="scale(1 1) rotate(0) translate(4 154)">
<title>MenuItem</title>
<polygon fill="white" stroke="white" points="-4,5 -4,-154 379,-154 379,5 -4,5"/>
<!-- Box_DrawableGameScreenComponent -->
<g id="node1" class="node"><title>Box_DrawableGameScreenComponent</title>
<polygon fill="#ffffff" stroke="black" points="-0.5,-1 -0.5,-75 316.5,-75 316.5,-1 -0.5,-1"/>
<text text-anchor="middle" x="158" y="-63.8" font-family="Arial" font-size="8.00">DrawableGameScreenComponent</text>
<polyline fill="none" stroke="black" points="-0.5,-57 316.5,-57 "/>
<text text-anchor="start" x="7.5" y="-45.8" font-family="Arial" font-size="8.00">+ Screen : GameScreen</text>
<text text-anchor="start" x="7.5" y="-35.8" font-family="Arial" font-size="8.00">+ Index : DisplayLayer</text>
<polyline fill="none" stroke="black" points="-0.5,-29 316.5,-29 "/>
<text text-anchor="start" x="7.5" y="-17.8" font-family="Arial" font-size="8.00">+ SubComponents (GameTime GameTime) : IEnumerable</text>
<text text-anchor="start" x="7.5" y="-7.8" font-family="Arial" font-size="8.00">+ DrawableGameStateComponent (GameScreen screen, DisplayLayer index) : void</text>
</g>
<!-- Box_XNADrawableGameComponent -->
<g id="node2" class="node"><title>Box_XNADrawableGameComponent</title>
<polygon fill="#ffffff" stroke="black" points="242,-122 242,-140 374,-140 374,-122 242,-122"/>
<text text-anchor="middle" x="308" y="-128.8" font-family="Arial" font-size="8.00">XNA.DrawableGameComponent</text>
</g>
<!-- Box_DrawableGameComponent -->
<g id="node3" class="node"><title>Box_DrawableGameComponent</title>
<polygon fill="none" stroke="black" points="92,-113 92,-149 224,-149 224,-113 92,-113"/>
<text text-anchor="middle" x="158" y="-128.8" font-family="Arial" font-size="8.00">Box_DrawableGameComponent</text>
</g>
<!-- Box_DrawableGameComponent&#45;&gt;Box_DrawableGameScreenComponent -->
<g id="edge2" class="edge"><title>Box_DrawableGameComponent&#45;&gt;Box_DrawableGameScreenComponent</title>
<path fill="none" stroke="midnightblue" d="M158,-102.372C158,-93.7846 158,-84.2387 158,-75.1842"/>
<polygon fill="none" stroke="midnightblue" points="154.5,-102.626 158,-112.626 161.5,-102.626 154.5,-102.626"/>
</g>
</g>
</svg>
