<?xml version="1.0" encoding="UTF-8" standalone="no"?>
<!DOCTYPE svg PUBLIC "-//W3C//DTD SVG 1.1//EN"
 "http://www.w3.org/Graphics/SVG/1.1/DTD/svg11.dtd">
<!-- Generated by graphviz version 2.26.3 (20100126.1600)
 -->
<!-- Title: MenuItem Pages: 1 -->
<svg width="386pt" height="158pt"
 viewBox="0.00 0.00 386.00 158.00" xmlns="http://www.w3.org/2000/svg" xmlns:xlink="http://www.w3.org/1999/xlink">
<g id="graph1" class="graph" transform="scale(1 1) rotate(0) translate(4 154)">
<title>MenuItem</title>
<polygon fill="white" stroke="white" points="-4,5 -4,-154 383,-154 383,5 -4,5"/>
<!-- Box_DrawableGameScreenComponent -->
<g id="node1" class="node"><title>Box_DrawableGameScreenComponent</title>
<polygon fill="#ffffff" stroke="black" points="-0.5,-1 -0.5,-75 324.5,-75 324.5,-1 -0.5,-1"/>
<text text-anchor="middle" x="162" y="-63.8" font-family="Arial" font-size="8.00">DrawableGameScreenComponent</text>
<polyline fill="none" stroke="black" points="-0.5,-57 324.5,-57 "/>
<text text-anchor="start" x="7.5" y="-45.8" font-family="Arial" font-size="8.00">+ Screen : GameScreen</text>
<text text-anchor="start" x="7.5" y="-35.8" font-family="Arial" font-size="8.00">+ Index : DisplayLayer</text>
<polyline fill="none" stroke="black" points="-0.5,-29 324.5,-29 "/>
<text text-anchor="start" x="7.5" y="-17.8" font-family="Arial" font-size="8.00">+ SubComponents (GameTime GameTime) : IEnumerable</text>
<text text-anchor="start" x="7.5" y="-7.8" font-family="Arial" font-size="8.00">+ DrawableGameScreenComponent (GameScreen screen, DisplayLayer index) : void</text>
</g>
<!-- Box_XNADrawableGameComponent -->
<g id="node2" class="node"><title>Box_XNADrawableGameComponent</title>
<polygon fill="#ffffff" stroke="black" points="246,-122 246,-140 378,-140 378,-122 246,-122"/>
<text text-anchor="middle" x="312" y="-128.8" font-family="Arial" font-size="8.00">XNA.DrawableGameComponent</text>
</g>
<!-- Box_DrawableGameComponent -->
<g id="node3" class="node"><title>Box_DrawableGameComponent</title>
<polygon fill="none" stroke="black" points="96,-113 96,-149 228,-149 228,-113 96,-113"/>
<text text-anchor="middle" x="162" y="-128.8" font-family="Arial" font-size="8.00">Box_DrawableGameComponent</text>
</g>
<!-- Box_DrawableGameComponent&#45;&gt;Box_DrawableGameScreenComponent -->
<g id="edge2" class="edge"><title>Box_DrawableGameComponent&#45;&gt;Box_DrawableGameScreenComponent</title>
<path fill="none" stroke="midnightblue" d="M162,-102.372C162,-93.7846 162,-84.2387 162,-75.1842"/>
<polygon fill="none" stroke="midnightblue" points="158.5,-102.626 162,-112.626 165.5,-102.626 158.5,-102.626"/>
</g>
</g>
</svg>
