<?xml version="1.0" encoding="UTF-8" standalone="no"?>
<!DOCTYPE svg PUBLIC "-//W3C//DTD SVG 1.1//EN"
 "http://www.w3.org/Graphics/SVG/1.1/DTD/svg11.dtd">
<!-- Generated by graphviz version 2.26.3 (20100126.1600)
 -->
<!-- Title: MenuItem Pages: 1 -->
<svg width="448pt" height="140pt"
 viewBox="0.00 0.00 448.00 140.00" xmlns="http://www.w3.org/2000/svg" xmlns:xlink="http://www.w3.org/1999/xlink">
<g id="graph1" class="graph" transform="scale(1 1) rotate(0) translate(4 136)">
<title>MenuItem</title>
<polygon fill="white" stroke="white" points="-4,5 -4,-136 445,-136 445,5 -4,5"/>
<!-- Box_DrawableGameScreenComponent1 -->
<g id="node1" class="node"><title>Box_DrawableGameScreenComponent1</title>
<polygon fill="#ffffff" stroke="black" points="0,-1 0,-75 440,-75 440,-1 0,-1"/>
<text text-anchor="middle" x="220" y="-63.8" font-family="Arial" font-size="8.00">DrawableGameScreenComponent1</text>
<polyline fill="none" stroke="black" points="0,-57 440,-57 "/>
<text text-anchor="start" x="8" y="-45.8" font-family="Arial" font-size="8.00">+ Screen : Knot3&#45;Entwurf</text>
<text text-anchor="start" x="8" y="-35.8" font-family="Arial" font-size="8.00">+ Index : Knot3&#45;Entwurf</text>
<polyline fill="none" stroke="black" points="0,-29 440,-29 "/>
<text text-anchor="start" x="8" y="-17.8" font-family="Arial" font-size="8.00">+ SubComponents (GameTime GameTime) : Knot3&#45;Entwurf</text>
<text text-anchor="start" x="8" y="-7.8" font-family="Arial" font-size="8.00">+ DrawableGameScreenComponent (Knot3&#45;Entwurf::GameScreen screen, Knot3&#45;Entwurf::DisplayLayer index) : void</text>
</g>
<!-- Box_IGameScreenComponent1 -->
<g id="node2" class="node"><title>Box_IGameScreenComponent1</title>
<polygon fill="#ffffff" stroke="black" points="165,-113 165,-131 275,-131 275,-113 165,-113"/>
<text text-anchor="middle" x="220" y="-119.8" font-family="Arial" font-size="8.00">IGameScreenComponent1</text>
</g>
<!-- Box_IGameScreenComponent1&#45;&gt;Box_DrawableGameScreenComponent1 -->
<g id="edge2" class="edge"><title>Box_IGameScreenComponent1&#45;&gt;Box_DrawableGameScreenComponent1</title>
<path fill="none" stroke="midnightblue" d="M220,-102.442C220,-94.3016 220,-84.5681 220,-75.1627"/>
<polygon fill="none" stroke="midnightblue" points="216.5,-102.69 220,-112.69 223.5,-102.69 216.5,-102.69"/>
</g>
</g>
</svg>
