<?xml version="1.0" encoding="UTF-8" standalone="no"?>
<!DOCTYPE svg PUBLIC "-//W3C//DTD SVG 1.1//EN"
 "http://www.w3.org/Graphics/SVG/1.1/DTD/svg11.dtd">
<!-- Generated by graphviz version 2.26.3 (20100126.1600)
 -->
<!-- Title: MenuItem Pages: 1 -->
<svg width="455pt" height="158pt"
 viewBox="0.00 0.00 455.00 158.00" xmlns="http://www.w3.org/2000/svg" xmlns:xlink="http://www.w3.org/1999/xlink">
<g id="graph1" class="graph" transform="scale(1 1) rotate(0) translate(4 154)">
<title>MenuItem</title>
<polygon fill="white" stroke="white" points="-4,5 -4,-154 452,-154 452,5 -4,5"/>
<!-- Box_DrawableGameScreenComponent -->
<g id="node1" class="node"><title>Box_DrawableGameScreenComponent</title>
<polygon fill="#ffffff" stroke="black" points="-0.5,-1 -0.5,-75 324.5,-75 324.5,-1 -0.5,-1"/>
<text text-anchor="middle" x="162" y="-63.8" font-family="Arial" font-size="8.00">DrawableGameScreenComponent</text>
<polyline fill="none" stroke="black" points="-0.5,-57 324.5,-57 "/>
<text text-anchor="start" x="7.5" y="-45.8" font-family="Arial" font-size="8.00">+ Screen : GameScreen</text>
<text text-anchor="start" x="7.5" y="-35.8" font-family="Arial" font-size="8.00">+ Index : DisplayLayer</text>
<polyline fill="none" stroke="black" points="-0.5,-29 324.5,-29 "/>
<text text-anchor="start" x="7.5" y="-17.8" font-family="Arial" font-size="8.00">+ SubComponents (GameTime GameTime) : IEnumerable</text>
<text text-anchor="start" x="7.5" y="-7.8" font-family="Arial" font-size="8.00">+ DrawableGameScreenComponent (GameScreen screen, DisplayLayer index) : void</text>
</g>
<!-- Box_XNADrawableGameComponent -->
<g id="node2" class="node"><title>Box_XNADrawableGameComponent</title>
<polygon fill="#ffffff" stroke="black" points="315,-122 315,-140 447,-140 447,-122 315,-122"/>
<text text-anchor="middle" x="381" y="-128.8" font-family="Arial" font-size="8.00">XNA.DrawableGameComponent</text>
</g>
<!-- Box_IGameScreenComponent -->
<g id="node3" class="node"><title>Box_IGameScreenComponent</title>
<polygon fill="#ffffff" stroke="black" points="41,-122 41,-140 147,-140 147,-122 41,-122"/>
<text text-anchor="middle" x="94" y="-128.8" font-family="Arial" font-size="8.00">IGameScreenComponent</text>
</g>
<!-- Box_IGameScreenComponent&#45;&gt;Box_DrawableGameScreenComponent -->
<g id="edge4" class="edge"><title>Box_IGameScreenComponent&#45;&gt;Box_DrawableGameScreenComponent</title>
<path fill="none" stroke="midnightblue" d="M106.717,-113.607C114.6,-102.826 125.036,-88.554 134.715,-75.3159"/>
<polygon fill="none" stroke="midnightblue" points="103.846,-111.605 100.769,-121.743 109.496,-115.736 103.846,-111.605"/>
</g>
<!-- Box_DrawableGameComponent -->
<g id="node4" class="node"><title>Box_DrawableGameComponent</title>
<polygon fill="none" stroke="black" points="165,-113 165,-149 297,-149 297,-113 165,-113"/>
<text text-anchor="middle" x="231" y="-128.8" font-family="Arial" font-size="8.00">Box_DrawableGameComponent</text>
</g>
<!-- Box_DrawableGameComponent&#45;&gt;Box_DrawableGameScreenComponent -->
<g id="edge2" class="edge"><title>Box_DrawableGameComponent&#45;&gt;Box_DrawableGameScreenComponent</title>
<path fill="none" stroke="midnightblue" d="M211.233,-104.357C204.492,-95.2725 196.829,-84.9429 189.588,-75.1842"/>
<polygon fill="none" stroke="midnightblue" points="208.598,-106.681 217.368,-112.626 214.22,-102.51 208.598,-106.681"/>
</g>
</g>
</svg>
