<?xml version="1.0" encoding="UTF-8" standalone="no"?>
<!DOCTYPE svg PUBLIC "-//W3C//DTD SVG 1.1//EN"
 "http://www.w3.org/Graphics/SVG/1.1/DTD/svg11.dtd">
<!-- Generated by graphviz version 2.26.3 (20100126.1600)
 -->
<!-- Title: MenuItem Pages: 1 -->
<svg width="352pt" height="150pt"
 viewBox="0.00 0.00 352.00 150.00" xmlns="http://www.w3.org/2000/svg" xmlns:xlink="http://www.w3.org/1999/xlink">
<g id="graph1" class="graph" transform="scale(1 1) rotate(0) translate(4 146)">
<title>MenuItem</title>
<polygon fill="white" stroke="white" points="-4,5 -4,-146 349,-146 349,5 -4,5"/>
<!-- Box_DropDownMenuItem -->
<g id="node1" class="node"><title>Box_DropDownMenuItem</title>
<polygon fill="#ffffff" stroke="black" points="0,-1 0,-85 344,-85 344,-1 0,-1"/>
<text text-anchor="middle" x="172" y="-73.8" font-family="Arial" font-size="8.00">DropDownMenuItem</text>
<polyline fill="none" stroke="black" points="0,-67 344,-67 "/>
<text text-anchor="start" x="8" y="-55.8" font-family="Arial" font-size="8.00">&#45; dropdown : Knot3&#45;Entwurf</text>
<polyline fill="none" stroke="black" points="0,-49 344,-49 "/>
<text text-anchor="start" x="8" y="-37.8" font-family="Arial" font-size="8.00">+ AddEntries (Knot3&#45;Entwurf::DistinctOptionInfo option) : void</text>
<text text-anchor="start" x="8" y="-27.8" font-family="Arial" font-size="8.00">+ AddEntries (Knot3&#45;Entwurf::DropDownEntry enties) : void</text>
<text text-anchor="start" x="8" y="-17.8" font-family="Arial" font-size="8.00">+ DropDownMenuItem (Knot3&#45;Entwurf::GameScreen screen, Knot3&#45;Entwurf::DisplayLayer</text>
<text text-anchor="start" x="8" y="-7.8" font-family="Arial" font-size="8.00">drawOrder) : void</text>
</g>
<!-- Box_MenuItem -->
<g id="node2" class="node"><title>Box_MenuItem</title>
<polygon fill="#ffffff" stroke="black" points="147,-123 147,-141 197,-141 197,-123 147,-123"/>
<text text-anchor="middle" x="172" y="-129.8" font-family="Arial" font-size="8.00">MenuItem</text>
</g>
<!-- Box_MenuItem&#45;&gt;Box_DropDownMenuItem -->
<g id="edge2" class="edge"><title>Box_MenuItem&#45;&gt;Box_DropDownMenuItem</title>
<path fill="none" stroke="midnightblue" d="M172,-112.617C172,-104.489 172,-94.6982 172,-85.0607"/>
<polygon fill="none" stroke="midnightblue" points="168.5,-112.811 172,-122.811 175.5,-112.811 168.5,-112.811"/>
</g>
</g>
</svg>
