<?xml version="1.0" encoding="UTF-8" standalone="no"?>
<!DOCTYPE svg PUBLIC "-//W3C//DTD SVG 1.1//EN"
 "http://www.w3.org/Graphics/SVG/1.1/DTD/svg11.dtd">
<!-- Generated by graphviz version 2.26.3 (20100126.1600)
 -->
<!-- Title: MenuItem Pages: 1 -->
<svg width="418pt" height="140pt"
 viewBox="0.00 0.00 418.00 140.00" xmlns="http://www.w3.org/2000/svg" xmlns:xlink="http://www.w3.org/1999/xlink">
<g id="graph1" class="graph" transform="scale(1 1) rotate(0) translate(4 136)">
<title>MenuItem</title>
<polygon fill="white" stroke="white" points="-4,5 -4,-136 415,-136 415,5 -4,5"/>
<!-- Box_DropDownMenuItem -->
<g id="node1" class="node"><title>Box_DropDownMenuItem</title>
<polygon fill="#ffffff" stroke="black" points="-0.5,-1 -0.5,-75 410.5,-75 410.5,-1 -0.5,-1"/>
<text text-anchor="middle" x="205" y="-63.8" font-family="Arial" font-size="8.00">DropDownMenuItem</text>
<polyline fill="none" stroke="black" points="-0.5,-57 410.5,-57 "/>
<text text-anchor="start" x="7.5" y="-45.8" font-family="Arial" font-size="8.00">&#45; dropdown : Knot3&#45;Entwurf</text>
<polyline fill="none" stroke="black" points="-0.5,-39 410.5,-39 "/>
<text text-anchor="start" x="7.5" y="-27.8" font-family="Arial" font-size="8.00">+ AddEntries (Knot3&#45;Entwurf::DistinctOptionInfo option) : void</text>
<text text-anchor="start" x="7.5" y="-17.8" font-family="Arial" font-size="8.00">+ AddEntries (Knot3&#45;Entwurf::DropDownEntry enties) : void</text>
<text text-anchor="start" x="7.5" y="-7.8" font-family="Arial" font-size="8.00">+ DropDownMenuItem (Knot3&#45;Entwurf::GameScreen screen, Knot3&#45;Entwurf::DisplayLayer drawOrder) : void</text>
</g>
<!-- Box_MenuItem -->
<g id="node2" class="node"><title>Box_MenuItem</title>
<polygon fill="#ffffff" stroke="black" points="180,-113 180,-131 230,-131 230,-113 180,-113"/>
<text text-anchor="middle" x="205" y="-119.8" font-family="Arial" font-size="8.00">MenuItem</text>
</g>
<!-- Box_MenuItem&#45;&gt;Box_DropDownMenuItem -->
<g id="edge2" class="edge"><title>Box_MenuItem&#45;&gt;Box_DropDownMenuItem</title>
<path fill="none" stroke="midnightblue" d="M205,-102.442C205,-94.3016 205,-84.5681 205,-75.1627"/>
<polygon fill="none" stroke="midnightblue" points="201.5,-102.69 205,-112.69 208.5,-102.69 201.5,-102.69"/>
</g>
</g>
</svg>
