<?xml version="1.0" encoding="UTF-8" standalone="no"?>
<!DOCTYPE svg PUBLIC "-//W3C//DTD SVG 1.1//EN"
 "http://www.w3.org/Graphics/SVG/1.1/DTD/svg11.dtd">
<!-- Generated by graphviz version 2.26.3 (20100126.1600)
 -->
<!-- Title: MenuItem Pages: 1 -->
<svg width="490pt" height="190pt"
 viewBox="0.00 0.00 490.00 190.00" xmlns="http://www.w3.org/2000/svg" xmlns:xlink="http://www.w3.org/1999/xlink">
<g id="graph1" class="graph" transform="scale(1 1) rotate(0) translate(4 186)">
<title>MenuItem</title>
<polygon fill="white" stroke="white" points="-4,5 -4,-186 487,-186 487,5 -4,5"/>
<!-- Box_EdgeMovement -->
<g id="node1" class="node"><title>Box_EdgeMovement</title>
<polygon fill="#ffffff" stroke="black" points="-0.5,-1 -0.5,-125 482.5,-125 482.5,-1 -0.5,-1"/>
<text text-anchor="middle" x="241" y="-113.8" font-family="Arial" font-size="8.00">EdgeMovement</text>
<polyline fill="none" stroke="black" points="-0.5,-107 482.5,-107 "/>
<text text-anchor="start" x="7.5" y="-95.8" font-family="Arial" font-size="8.00">+ Info : Knot3&#45;Entwurf</text>
<text text-anchor="start" x="7.5" y="-85.8" font-family="Arial" font-size="8.00">+ Knot : Knot3&#45;Entwurf</text>
<text text-anchor="start" x="7.5" y="-75.8" font-family="Arial" font-size="8.00">+ World : Knot3&#45;Entwurf</text>
<polyline fill="none" stroke="black" points="-0.5,-69 482.5,-69 "/>
<text text-anchor="start" x="7.5" y="-57.8" font-family="Arial" font-size="8.00">+ Center () : Vector3</text>
<text text-anchor="start" x="7.5" y="-47.8" font-family="Arial" font-size="8.00">+ Intersects (Ray Ray) : GameObjectDistance</text>
<text text-anchor="start" x="7.5" y="-37.8" font-family="Arial" font-size="8.00">+ Update (GameTime GameTime) : void</text>
<text text-anchor="start" x="7.5" y="-27.8" font-family="Arial" font-size="8.00">+ EdgeMovement (Knot3&#45;Entwurf::GameScreen screen, Knot3&#45;Entwurf::World world, Knot3&#45;Entwurf::GameObjectInfo info) : void</text>
<text text-anchor="start" x="7.5" y="-17.8" font-family="Arial" font-size="8.00">+ GetEnumerator () : IEnumerator</text>
<text text-anchor="start" x="7.5" y="-7.8" font-family="Arial" font-size="8.00">+ Draw (GameTime GameTime) : void</text>
</g>
<!-- Box_IGameObject -->
<g id="node2" class="node"><title>Box_IGameObject</title>
<polygon fill="#ffffff" stroke="black" points="157,-163 157,-181 219,-181 219,-163 157,-163"/>
<text text-anchor="middle" x="188" y="-169.8" font-family="Arial" font-size="8.00">IGameObject</text>
</g>
<!-- Box_IGameObject&#45;&gt;Box_EdgeMovement -->
<g id="edge2" class="edge"><title>Box_IGameObject&#45;&gt;Box_EdgeMovement</title>
<path fill="none" stroke="midnightblue" d="M196.948,-153.598C200.887,-145.497 205.765,-135.464 210.826,-125.055"/>
<polygon fill="none" stroke="midnightblue" points="193.744,-152.183 192.519,-162.707 200.039,-155.244 193.744,-152.183"/>
</g>
<!-- Box_IEnumerable -->
<g id="node3" class="node"><title>Box_IEnumerable</title>
<polygon fill="#ffffff" stroke="black" points="236.5,-163 236.5,-181 351.5,-181 351.5,-163 236.5,-163"/>
<text text-anchor="middle" x="294" y="-169.8" font-family="Arial" font-size="8.00">IEnumerable&lt;IGameObject&gt;</text>
</g>
<!-- Box_IEnumerable&#45;&gt;Box_EdgeMovement -->
<g id="edge4" class="edge"><title>Box_IEnumerable&#45;&gt;Box_EdgeMovement</title>
<path fill="none" stroke="midnightblue" d="M285.052,-153.598C281.113,-145.497 276.235,-135.464 271.174,-125.055"/>
<polygon fill="none" stroke="midnightblue" points="281.961,-155.244 289.481,-162.707 288.256,-152.183 281.961,-155.244"/>
</g>
</g>
</svg>
