<?xml version="1.0" encoding="UTF-8" standalone="no"?>
<!DOCTYPE svg PUBLIC "-//W3C//DTD SVG 1.1//EN"
 "http://www.w3.org/Graphics/SVG/1.1/DTD/svg11.dtd">
<!-- Generated by graphviz version 2.26.3 (20100126.1600)
 -->
<!-- Title: MenuItem Pages: 1 -->
<svg width="350pt" height="150pt"
 viewBox="0.00 0.00 350.00 150.00" xmlns="http://www.w3.org/2000/svg" xmlns:xlink="http://www.w3.org/1999/xlink">
<g id="graph1" class="graph" transform="scale(1 1) rotate(0) translate(4 146)">
<title>MenuItem</title>
<polygon fill="white" stroke="white" points="-4,5 -4,-146 347,-146 347,5 -4,5"/>
<!-- Box_FadeEffect -->
<g id="node1" class="node"><title>Box_FadeEffect</title>
<polygon fill="#ffffff" stroke="black" points="-0.5,-1 -0.5,-85 342.5,-85 342.5,-1 -0.5,-1"/>
<text text-anchor="middle" x="171" y="-73.8" font-family="Arial" font-size="8.00">FadeEffect</text>
<polyline fill="none" stroke="black" points="-0.5,-67 342.5,-67 "/>
<text text-anchor="start" x="7.5" y="-55.8" font-family="Arial" font-size="8.00">&#45; IsFinished : Boolean</text>
<text text-anchor="start" x="7.5" y="-45.8" font-family="Arial" font-size="8.00">&#45; PreviousRenderTarget : RenderTarget2D</text>
<polyline fill="none" stroke="black" points="-0.5,-39 342.5,-39 "/>
<text text-anchor="start" x="7.5" y="-27.8" font-family="Arial" font-size="8.00">+ FadeEffect (ModelingProject1::GameScreen newScreen, ModelingProject1::GameScreen</text>
<text text-anchor="start" x="7.5" y="-17.8" font-family="Arial" font-size="8.00">oldScreen) : void</text>
<text text-anchor="start" x="7.5" y="-7.8" font-family="Arial" font-size="8.00"># DrawRenderTarget (GameTime GameTime) : void</text>
</g>
<!-- Box_RenderEffect -->
<g id="node2" class="node"><title>Box_RenderEffect</title>
<polygon fill="#ffffff" stroke="black" points="138.5,-123 138.5,-141 203.5,-141 203.5,-123 138.5,-123"/>
<text text-anchor="middle" x="171" y="-129.8" font-family="Arial" font-size="8.00">RenderEffect</text>
</g>
<!-- Box_RenderEffect&#45;&gt;Box_FadeEffect -->
<g id="edge2" class="edge"><title>Box_RenderEffect&#45;&gt;Box_FadeEffect</title>
<path fill="none" stroke="midnightblue" d="M171,-112.617C171,-104.489 171,-94.6982 171,-85.0607"/>
<polygon fill="none" stroke="midnightblue" points="167.5,-112.811 171,-122.811 174.5,-112.811 167.5,-112.811"/>
</g>
</g>
</svg>
