<?xml version="1.0" encoding="UTF-8" standalone="no"?>
<!DOCTYPE svg PUBLIC "-//W3C//DTD SVG 1.1//EN"
 "http://www.w3.org/Graphics/SVG/1.1/DTD/svg11.dtd">
<!-- Generated by graphviz version 2.26.3 (20100126.1600)
 -->
<!-- Title: MenuItem Pages: 1 -->
<svg width="284pt" height="140pt"
 viewBox="0.00 0.00 284.00 140.00" xmlns="http://www.w3.org/2000/svg" xmlns:xlink="http://www.w3.org/1999/xlink">
<g id="graph1" class="graph" transform="scale(1 1) rotate(0) translate(4 136)">
<title>MenuItem</title>
<polygon fill="white" stroke="white" points="-4,5 -4,-136 281,-136 281,5 -4,5"/>
<!-- Box_FadeEffect -->
<g id="node1" class="node"><title>Box_FadeEffect</title>
<polygon fill="#ffffff" stroke="black" points="0,-1 0,-75 276,-75 276,-1 0,-1"/>
<text text-anchor="middle" x="138" y="-63.8" font-family="Arial" font-size="8.00">FadeEffect</text>
<polyline fill="none" stroke="black" points="0,-57 276,-57 "/>
<text text-anchor="start" x="8" y="-45.8" font-family="Arial" font-size="8.00">&#45; IsFinished : Boolean</text>
<text text-anchor="start" x="8" y="-35.8" font-family="Arial" font-size="8.00">&#45; PreviousRenderTarget : RenderTarget2D</text>
<polyline fill="none" stroke="black" points="0,-29 276,-29 "/>
<text text-anchor="start" x="8" y="-17.8" font-family="Arial" font-size="8.00">+ FadeEffect (GameScreen newScreen, GameScreen oldScreen) : void</text>
<text text-anchor="start" x="8" y="-7.8" font-family="Arial" font-size="8.00"># DrawRenderTarget (GameTime GameTime) : void</text>
</g>
<!-- Box_RenderEffect -->
<g id="node2" class="node"><title>Box_RenderEffect</title>
<polygon fill="#ffffff" stroke="black" points="105.5,-113 105.5,-131 170.5,-131 170.5,-113 105.5,-113"/>
<text text-anchor="middle" x="138" y="-119.8" font-family="Arial" font-size="8.00">RenderEffect</text>
</g>
<!-- Box_RenderEffect&#45;&gt;Box_FadeEffect -->
<g id="edge2" class="edge"><title>Box_RenderEffect&#45;&gt;Box_FadeEffect</title>
<path fill="none" stroke="midnightblue" d="M138,-102.442C138,-94.3016 138,-84.5681 138,-75.1627"/>
<polygon fill="none" stroke="midnightblue" points="134.5,-102.69 138,-112.69 141.5,-102.69 134.5,-102.69"/>
</g>
</g>
</svg>
