<?xml version="1.0" encoding="UTF-8" standalone="no"?>
<!DOCTYPE svg PUBLIC "-//W3C//DTD SVG 1.1//EN"
 "http://www.w3.org/Graphics/SVG/1.1/DTD/svg11.dtd">
<!-- Generated by graphviz version 2.26.3 (20100126.1600)
 -->
<!-- Title: MenuItem Pages: 1 -->
<svg width="254pt" height="174pt"
 viewBox="0.00 0.00 254.00 174.00" xmlns="http://www.w3.org/2000/svg" xmlns:xlink="http://www.w3.org/1999/xlink">
<g id="graph1" class="graph" transform="scale(1 1) rotate(0) translate(4 170)">
<title>MenuItem</title>
<polygon fill="white" stroke="white" points="-4,5 -4,-170 251,-170 251,5 -4,5"/>
<!-- Box_GameObjectsGameModel -->
<g id="node1" class="node"><title>Box_GameObjectsGameModel</title>
<polygon fill="#ffffff" stroke="black" points="0,-1 0,-165 246,-165 246,-1 0,-1"/>
<text text-anchor="middle" x="123" y="-153.8" font-family="Arial" font-size="8.00">GameObjects.GameModel</text>
<polyline fill="none" stroke="black" points="0,-147 246,-147 "/>
<text text-anchor="start" x="8" y="-135.8" font-family="Arial" font-size="8.00">+ Alpha : float</text>
<text text-anchor="start" x="8" y="-125.8" font-family="Arial" font-size="8.00">+ BaseColor : Color</text>
<text text-anchor="start" x="8" y="-115.8" font-family="Arial" font-size="8.00">+ HightlightColor : Color</text>
<text text-anchor="start" x="8" y="-105.8" font-family="Arial" font-size="8.00">+ HighlightIntensity : float</text>
<text text-anchor="start" x="8" y="-95.8" font-family="Arial" font-size="8.00">+ Info : GameModelInfo</text>
<text text-anchor="start" x="8" y="-85.8" font-family="Arial" font-size="8.00">+ Model : XNA.Model</text>
<text text-anchor="start" x="8" y="-75.8" font-family="Arial" font-size="8.00">+ World : World</text>
<text text-anchor="start" x="8" y="-65.8" font-family="Arial" font-size="8.00">+ WorldMatrix : Matrix</text>
<polyline fill="none" stroke="black" points="0,-59 246,-59 "/>
<text text-anchor="start" x="8" y="-47.8" font-family="Arial" font-size="8.00">+ Center () : Vector3</text>
<text text-anchor="start" x="8" y="-37.8" font-family="Arial" font-size="8.00">+ Update (GameTime GameTime) : void</text>
<text text-anchor="start" x="8" y="-27.8" font-family="Arial" font-size="8.00">+ Draw (GameTime GameTime) : void</text>
<text text-anchor="start" x="8" y="-17.8" font-family="Arial" font-size="8.00">+ Intersects (Ray Ray) : GameObjectDistance</text>
<text text-anchor="start" x="8" y="-7.8" font-family="Arial" font-size="8.00">+ GameModel (GameScreen screen, GameModelInfo info) : void</text>
</g>
</g>
</svg>
