<?xml version="1.0" encoding="UTF-8" standalone="no"?>
<!DOCTYPE svg PUBLIC "-//W3C//DTD SVG 1.1//EN"
 "http://www.w3.org/Graphics/SVG/1.1/DTD/svg11.dtd">
<!-- Generated by graphviz version 2.26.3 (20100126.1600)
 -->
<!-- Title: MenuItem Pages: 1 -->
<svg width="315pt" height="158pt"
 viewBox="0.00 0.00 315.00 158.00" xmlns="http://www.w3.org/2000/svg" xmlns:xlink="http://www.w3.org/1999/xlink">
<g id="graph1" class="graph" transform="scale(1 1) rotate(0) translate(4 154)">
<title>MenuItem</title>
<polygon fill="white" stroke="white" points="-4,5 -4,-154 312,-154 312,5 -4,5"/>
<!-- Box_GameScreenComponent -->
<g id="node1" class="node"><title>Box_GameScreenComponent</title>
<polygon fill="#ffffff" stroke="black" points="0,-1 0,-75 290,-75 290,-1 0,-1"/>
<text text-anchor="middle" x="145" y="-63.8" font-family="Arial" font-size="8.00">GameScreenComponent</text>
<polyline fill="none" stroke="black" points="0,-57 290,-57 "/>
<text text-anchor="start" x="8" y="-45.8" font-family="Arial" font-size="8.00">+ Index : DisplayLayer</text>
<text text-anchor="start" x="8" y="-35.8" font-family="Arial" font-size="8.00">+ Screen : GameScreen</text>
<polyline fill="none" stroke="black" points="0,-29 290,-29 "/>
<text text-anchor="start" x="8" y="-17.8" font-family="Arial" font-size="8.00">+ SubComponents (GameTime GameTime) : IEnumerable</text>
<text text-anchor="start" x="8" y="-7.8" font-family="Arial" font-size="8.00">+ GameScreenComponent (GameScreen screen, DisplayLayer index) : void</text>
</g>
<!-- Box_XNAGameComponent -->
<g id="node2" class="node"><title>Box_XNAGameComponent</title>
<polygon fill="#ffffff" stroke="black" points="210.5,-122 210.5,-140 307.5,-140 307.5,-122 210.5,-122"/>
<text text-anchor="middle" x="259" y="-128.8" font-family="Arial" font-size="8.00">XNA.GameComponent</text>
</g>
<!-- Box_GameComponent -->
<g id="node3" class="node"><title>Box_GameComponent</title>
<polygon fill="none" stroke="black" points="96.5,-113 96.5,-149 193.5,-149 193.5,-113 96.5,-113"/>
<text text-anchor="middle" x="145" y="-128.8" font-family="Arial" font-size="8.00">Box_GameComponent</text>
</g>
<!-- Box_GameComponent&#45;&gt;Box_GameScreenComponent -->
<g id="edge2" class="edge"><title>Box_GameComponent&#45;&gt;Box_GameScreenComponent</title>
<path fill="none" stroke="midnightblue" d="M145,-102.372C145,-93.7846 145,-84.2387 145,-75.1842"/>
<polygon fill="none" stroke="midnightblue" points="141.5,-102.626 145,-112.626 148.5,-102.626 141.5,-102.626"/>
</g>
</g>
</svg>
