<?xml version="1.0" encoding="UTF-8" standalone="no"?>
<!DOCTYPE svg PUBLIC "-//W3C//DTD SVG 1.1//EN"
 "http://www.w3.org/Graphics/SVG/1.1/DTD/svg11.dtd">
<!-- Generated by graphviz version 2.26.3 (20100126.1600)
 -->
<!-- Title: MenuItem Pages: 1 -->
<svg width="366pt" height="168pt"
 viewBox="0.00 0.00 366.00 168.00" xmlns="http://www.w3.org/2000/svg" xmlns:xlink="http://www.w3.org/1999/xlink">
<g id="graph1" class="graph" transform="scale(1 1) rotate(0) translate(4 164)">
<title>MenuItem</title>
<polygon fill="white" stroke="white" points="-4,5 -4,-164 363,-164 363,5 -4,5"/>
<!-- Box_GameScreenComponent -->
<g id="node1" class="node"><title>Box_GameScreenComponent</title>
<polygon fill="#ffffff" stroke="black" points="-0.5,-1 -0.5,-85 358.5,-85 358.5,-1 -0.5,-1"/>
<text text-anchor="middle" x="179" y="-73.8" font-family="Arial" font-size="8.00">GameScreenComponent</text>
<polyline fill="none" stroke="black" points="-0.5,-67 358.5,-67 "/>
<text text-anchor="start" x="7.5" y="-55.8" font-family="Arial" font-size="8.00">+ Index : Knot3&#45;Entwurf</text>
<text text-anchor="start" x="7.5" y="-45.8" font-family="Arial" font-size="8.00">+ Screen : Knot3&#45;Entwurf</text>
<polyline fill="none" stroke="black" points="-0.5,-39 358.5,-39 "/>
<text text-anchor="start" x="7.5" y="-27.8" font-family="Arial" font-size="8.00">+ SubComponents (GameTime GameTime) : Knot3&#45;Entwurf</text>
<text text-anchor="start" x="7.5" y="-17.8" font-family="Arial" font-size="8.00">+ GameScreenComponent (Knot3&#45;Entwurf::GameScreen screen, Knot3&#45;Entwurf::DisplayLayer</text>
<text text-anchor="start" x="7.5" y="-7.8" font-family="Arial" font-size="8.00">index) : void</text>
</g>
<!-- Box_XNAGameComponent -->
<g id="node2" class="node"><title>Box_XNAGameComponent</title>
<polygon fill="#ffffff" stroke="black" points="244.5,-132 244.5,-150 341.5,-150 341.5,-132 244.5,-132"/>
<text text-anchor="middle" x="293" y="-138.8" font-family="Arial" font-size="8.00">XNA.GameComponent</text>
</g>
<!-- Box_GameComponent -->
<g id="node3" class="node"><title>Box_GameComponent</title>
<polygon fill="none" stroke="black" points="130.5,-123 130.5,-159 227.5,-159 227.5,-123 130.5,-123"/>
<text text-anchor="middle" x="179" y="-138.8" font-family="Arial" font-size="8.00">Box_GameComponent</text>
</g>
<!-- Box_GameComponent&#45;&gt;Box_GameScreenComponent -->
<g id="edge2" class="edge"><title>Box_GameComponent&#45;&gt;Box_GameScreenComponent</title>
<path fill="none" stroke="midnightblue" d="M179,-112.454C179,-103.97 179,-94.4903 179,-85.3275"/>
<polygon fill="none" stroke="midnightblue" points="175.5,-112.567 179,-122.567 182.5,-112.567 175.5,-112.567"/>
</g>
</g>
</svg>
