<?xml version="1.0" encoding="UTF-8" standalone="no"?>
<!DOCTYPE svg PUBLIC "-//W3C//DTD SVG 1.1//EN"
 "http://www.w3.org/Graphics/SVG/1.1/DTD/svg11.dtd">
<!-- Generated by graphviz version 2.26.3 (20100126.1600)
 -->
<!-- Title: MenuItem Pages: 1 -->
<svg width="300pt" height="150pt"
 viewBox="0.00 0.00 300.00 150.00" xmlns="http://www.w3.org/2000/svg" xmlns:xlink="http://www.w3.org/1999/xlink">
<g id="graph1" class="graph" transform="scale(1 1) rotate(0) translate(4 146)">
<title>MenuItem</title>
<polygon fill="white" stroke="white" points="-4,5 -4,-146 297,-146 297,5 -4,5"/>
<!-- Box_GameModelInfo -->
<g id="node1" class="node"><title>Box_GameModelInfo</title>
<polygon fill="#ffffff" stroke="black" points="0,-1 0,-85 292,-85 292,-1 0,-1"/>
<text text-anchor="middle" x="146" y="-73.8" font-family="Arial" font-size="8.00">GameModelInfo</text>
<polyline fill="none" stroke="black" points="0,-67 292,-67 "/>
<text text-anchor="start" x="8" y="-55.8" font-family="Arial" font-size="8.00">+ Modelname : String</text>
<text text-anchor="start" x="8" y="-45.8" font-family="Arial" font-size="8.00">+ Rotation : Angles3</text>
<text text-anchor="start" x="8" y="-35.8" font-family="Arial" font-size="8.00">+ Scale : Vector3</text>
<polyline fill="none" stroke="black" points="0,-29 292,-29 "/>
<text text-anchor="start" x="8" y="-17.8" font-family="Arial" font-size="8.00">+ GameModelInfo (String modelname, Angles3 rotation, Vector3 scale) : void</text>
<text text-anchor="start" x="8" y="-7.8" font-family="Arial" font-size="8.00">+ GameModelInfo (String modelname) : void</text>
</g>
<!-- Box_GameObjectInfo -->
<g id="node2" class="node"><title>Box_GameObjectInfo</title>
<polygon fill="#ffffff" stroke="black" points="109,-123 109,-141 183,-141 183,-123 109,-123"/>
<text text-anchor="middle" x="146" y="-129.8" font-family="Arial" font-size="8.00">GameObjectInfo</text>
</g>
<!-- Box_GameObjectInfo&#45;&gt;Box_GameModelInfo -->
<g id="edge2" class="edge"><title>Box_GameObjectInfo&#45;&gt;Box_GameModelInfo</title>
<path fill="none" stroke="midnightblue" d="M146,-112.617C146,-104.489 146,-94.6982 146,-85.0607"/>
<polygon fill="none" stroke="midnightblue" points="142.5,-112.811 146,-122.811 149.5,-112.811 142.5,-112.811"/>
</g>
</g>
</svg>
