<?xml version="1.0" encoding="UTF-8" standalone="no"?>
<!DOCTYPE svg PUBLIC "-//W3C//DTD SVG 1.1//EN"
 "http://www.w3.org/Graphics/SVG/1.1/DTD/svg11.dtd">
<!-- Generated by graphviz version 2.26.3 (20100126.1600)
 -->
<!-- Title: MenuItem Pages: 1 -->
<svg width="186pt" height="150pt"
 viewBox="0.00 0.00 186.00 150.00" xmlns="http://www.w3.org/2000/svg" xmlns:xlink="http://www.w3.org/1999/xlink">
<g id="graph1" class="graph" transform="scale(1 1) rotate(0) translate(4 146)">
<title>MenuItem</title>
<polygon fill="white" stroke="white" points="-4,5 -4,-146 183,-146 183,5 -4,5"/>
<!-- Box_GameObjectsPipeModelInfo -->
<g id="node1" class="node"><title>Box_GameObjectsPipeModelInfo</title>
<polygon fill="#ffffff" stroke="black" points="-0.5,-1 -0.5,-85 178.5,-85 178.5,-1 -0.5,-1"/>
<text text-anchor="middle" x="89" y="-73.8" font-family="Arial" font-size="8.00">GameObjects.PipeModelInfo</text>
<polyline fill="none" stroke="black" points="-0.5,-67 178.5,-67 "/>
<text text-anchor="start" x="7.5" y="-55.8" font-family="Arial" font-size="8.00">+ Edge : Edge</text>
<text text-anchor="start" x="7.5" y="-45.8" font-family="Arial" font-size="8.00">+ Knot : Knot</text>
<text text-anchor="start" x="7.5" y="-35.8" font-family="Arial" font-size="8.00">+ PositionFrom : Vector3</text>
<text text-anchor="start" x="7.5" y="-25.8" font-family="Arial" font-size="8.00">+ PositionTo : Vector3</text>
<polyline fill="none" stroke="black" points="-0.5,-19 178.5,-19 "/>
<text text-anchor="start" x="7.5" y="-7.8" font-family="Arial" font-size="8.00">+ PipeModelInfo (Knot knot, Edge edge) : void</text>
</g>
<!-- Box_GameModelInfo -->
<g id="node2" class="node"><title>Box_GameModelInfo</title>
<polygon fill="#ffffff" stroke="black" points="53,-123 53,-141 125,-141 125,-123 53,-123"/>
<text text-anchor="middle" x="89" y="-129.8" font-family="Arial" font-size="8.00">GameModelInfo</text>
</g>
<!-- Box_GameModelInfo&#45;&gt;Box_GameObjectsPipeModelInfo -->
<g id="edge2" class="edge"><title>Box_GameModelInfo&#45;&gt;Box_GameObjectsPipeModelInfo</title>
<path fill="none" stroke="midnightblue" d="M89,-112.617C89,-104.489 89,-94.6982 89,-85.0607"/>
<polygon fill="none" stroke="midnightblue" points="85.5001,-112.811 89,-122.811 92.5001,-112.811 85.5001,-112.811"/>
</g>
</g>
</svg>
