<?xml version="1.0" encoding="UTF-8" standalone="no"?>
<!DOCTYPE svg PUBLIC "-//W3C//DTD SVG 1.1//EN"
 "http://www.w3.org/Graphics/SVG/1.1/DTD/svg11.dtd">
<!-- Generated by graphviz version 2.26.3 (20100126.1600)
 -->
<!-- Title: MenuItem Pages: 1 -->
<svg width="128pt" height="150pt"
 viewBox="0.00 0.00 128.00 150.00" xmlns="http://www.w3.org/2000/svg" xmlns:xlink="http://www.w3.org/1999/xlink">
<g id="graph1" class="graph" transform="scale(1 1) rotate(0) translate(4 146)">
<title>MenuItem</title>
<polygon fill="white" stroke="white" points="-4,5 -4,-146 125,-146 125,5 -4,5"/>
<!-- Box_GameObjectInfo -->
<g id="node1" class="node"><title>Box_GameObjectInfo</title>
<polygon fill="#ffffff" stroke="black" points="1,-1 1,-85 119,-85 119,-1 1,-1"/>
<text text-anchor="middle" x="60" y="-73.8" font-family="Arial" font-size="8.00">GameObjectInfo</text>
<polyline fill="none" stroke="black" points="1,-67 119,-67 "/>
<text text-anchor="start" x="9" y="-55.8" font-family="Arial" font-size="8.00">+ IsMovable : Boolean</text>
<text text-anchor="start" x="9" y="-45.8" font-family="Arial" font-size="8.00">+ IsSelectable : Boolean</text>
<text text-anchor="start" x="9" y="-35.8" font-family="Arial" font-size="8.00">+ IsVisible : Boolean</text>
<text text-anchor="start" x="9" y="-25.8" font-family="Arial" font-size="8.00">+ Position : Vector3</text>
<polyline fill="none" stroke="black" points="1,-19 119,-19 "/>
<text text-anchor="start" x="9" y="-7.8" font-family="Arial" font-size="8.00">+ Equals (C other) : Boolean</text>
</g>
<!-- Box_IEquatable -->
<g id="node2" class="node"><title>Box_IEquatable</title>
<polygon fill="#ffffff" stroke="black" points="0,-123 0,-141 120,-141 120,-123 0,-123"/>
<text text-anchor="middle" x="60" y="-129.8" font-family="Arial" font-size="8.00">IEquatable&lt;GameObjectInfo&gt;</text>
</g>
<!-- Box_IEquatable&#45;&gt;Box_GameObjectInfo -->
<g id="edge2" class="edge"><title>Box_IEquatable&#45;&gt;Box_GameObjectInfo</title>
<path fill="none" stroke="midnightblue" d="M60,-112.617C60,-104.489 60,-94.6982 60,-85.0607"/>
<polygon fill="none" stroke="midnightblue" points="56.5001,-112.811 60,-122.811 63.5001,-112.811 56.5001,-112.811"/>
</g>
</g>
</svg>
