<?xml version="1.0" encoding="UTF-8" standalone="no"?>
<!DOCTYPE svg PUBLIC "-//W3C//DTD SVG 1.1//EN"
 "http://www.w3.org/Graphics/SVG/1.1/DTD/svg11.dtd">
<!-- Generated by graphviz version 2.26.3 (20100126.1600)
 -->
<!-- Title: MenuItem Pages: 1 -->
<svg width="375pt" height="158pt"
 viewBox="0.00 0.00 375.00 158.00" xmlns="http://www.w3.org/2000/svg" xmlns:xlink="http://www.w3.org/1999/xlink">
<g id="graph1" class="graph" transform="scale(1 1) rotate(0) translate(4 154)">
<title>MenuItem</title>
<polygon fill="white" stroke="white" points="-4,5 -4,-154 372,-154 372,5 -4,5"/>
<!-- Box_GameScreenComponent -->
<g id="node1" class="node"><title>Box_GameScreenComponent</title>
<polygon fill="#ffffff" stroke="black" points="0,-1 0,-75 290,-75 290,-1 0,-1"/>
<text text-anchor="middle" x="145" y="-63.8" font-family="Arial" font-size="8.00">GameScreenComponent</text>
<polyline fill="none" stroke="black" points="0,-57 290,-57 "/>
<text text-anchor="start" x="8" y="-45.8" font-family="Arial" font-size="8.00">+ Index : DisplayLayer</text>
<text text-anchor="start" x="8" y="-35.8" font-family="Arial" font-size="8.00">+ Screen : GameScreen</text>
<polyline fill="none" stroke="black" points="0,-29 290,-29 "/>
<text text-anchor="start" x="8" y="-17.8" font-family="Arial" font-size="8.00">+ SubComponents (GameTime GameTime) : IEnumerable</text>
<text text-anchor="start" x="8" y="-7.8" font-family="Arial" font-size="8.00">+ GameScreenComponent (GameScreen screen, DisplayLayer index) : void</text>
</g>
<!-- Box_XNAGameComponent -->
<g id="node2" class="node"><title>Box_XNAGameComponent</title>
<polygon fill="#ffffff" stroke="black" points="270.5,-122 270.5,-140 367.5,-140 367.5,-122 270.5,-122"/>
<text text-anchor="middle" x="319" y="-128.8" font-family="Arial" font-size="8.00">XNA.GameComponent</text>
</g>
<!-- Box_IGameScreenComponent -->
<g id="node3" class="node"><title>Box_IGameScreenComponent</title>
<polygon fill="#ffffff" stroke="black" points="33,-122 33,-140 139,-140 139,-122 33,-122"/>
<text text-anchor="middle" x="86" y="-128.8" font-family="Arial" font-size="8.00">IGameScreenComponent</text>
</g>
<!-- Box_IGameScreenComponent&#45;&gt;Box_GameScreenComponent -->
<g id="edge4" class="edge"><title>Box_IGameScreenComponent&#45;&gt;Box_GameScreenComponent</title>
<path fill="none" stroke="midnightblue" d="M97.2399,-113.283C104.055,-102.541 113.012,-88.4216 121.326,-75.3159"/>
<polygon fill="none" stroke="midnightblue" points="94.2745,-111.424 91.8728,-121.743 100.185,-115.174 94.2745,-111.424"/>
</g>
<!-- Box_GameComponent -->
<g id="node4" class="node"><title>Box_GameComponent</title>
<polygon fill="none" stroke="black" points="156.5,-113 156.5,-149 253.5,-149 253.5,-113 156.5,-113"/>
<text text-anchor="middle" x="205" y="-128.8" font-family="Arial" font-size="8.00">Box_GameComponent</text>
</g>
<!-- Box_GameComponent&#45;&gt;Box_GameScreenComponent -->
<g id="edge2" class="edge"><title>Box_GameComponent&#45;&gt;Box_GameScreenComponent</title>
<path fill="none" stroke="midnightblue" d="M187.629,-104.076C181.813,-95.0596 175.221,-84.8423 168.99,-75.1842"/>
<polygon fill="none" stroke="midnightblue" points="184.784,-106.121 193.146,-112.626 190.666,-102.326 184.784,-106.121"/>
</g>
</g>
</svg>
