<?xml version="1.0" encoding="UTF-8" standalone="no"?>
<!DOCTYPE svg PUBLIC "-//W3C//DTD SVG 1.1//EN"
 "http://www.w3.org/Graphics/SVG/1.1/DTD/svg11.dtd">
<!-- Generated by graphviz version 2.26.3 (20100126.1600)
 -->
<!-- Title: MenuItem Pages: 1 -->
<svg width="300pt" height="140pt"
 viewBox="0.00 0.00 300.00 140.00" xmlns="http://www.w3.org/2000/svg" xmlns:xlink="http://www.w3.org/1999/xlink">
<g id="graph1" class="graph" transform="scale(1 1) rotate(0) translate(4 136)">
<title>MenuItem</title>
<polygon fill="white" stroke="white" points="-4,5 -4,-136 297,-136 297,5 -4,5"/>
<!-- Box_GameObjectsGameModelInfo -->
<g id="node1" class="node"><title>Box_GameObjectsGameModelInfo</title>
<polygon fill="#ffffff" stroke="black" points="0,-1 0,-75 292,-75 292,-1 0,-1"/>
<text text-anchor="middle" x="146" y="-63.8" font-family="Arial" font-size="8.00">GameObjects.GameModelInfo</text>
<polyline fill="none" stroke="black" points="0,-57 292,-57 "/>
<text text-anchor="start" x="8" y="-45.8" font-family="Arial" font-size="8.00">+ Modelname : String</text>
<text text-anchor="start" x="8" y="-35.8" font-family="Arial" font-size="8.00">+ Rotation : Angles3</text>
<text text-anchor="start" x="8" y="-25.8" font-family="Arial" font-size="8.00">+ Scale : Vector3</text>
<polyline fill="none" stroke="black" points="0,-19 292,-19 "/>
<text text-anchor="start" x="8" y="-7.8" font-family="Arial" font-size="8.00">+ GameModelInfo (String modelname, Angles3 rotation, Vector3 scale) : void</text>
</g>
<!-- Box_GameObjectInfo -->
<g id="node2" class="node"><title>Box_GameObjectInfo</title>
<polygon fill="#ffffff" stroke="black" points="109,-113 109,-131 183,-131 183,-113 109,-113"/>
<text text-anchor="middle" x="146" y="-119.8" font-family="Arial" font-size="8.00">GameObjectInfo</text>
</g>
<!-- Box_GameObjectInfo&#45;&gt;Box_GameObjectsGameModelInfo -->
<g id="edge2" class="edge"><title>Box_GameObjectInfo&#45;&gt;Box_GameObjectsGameModelInfo</title>
<path fill="none" stroke="midnightblue" d="M146,-102.442C146,-94.3016 146,-84.5681 146,-75.1627"/>
<polygon fill="none" stroke="midnightblue" points="142.5,-102.69 146,-112.69 149.5,-102.69 142.5,-102.69"/>
</g>
</g>
</svg>
