<?xml version="1.0" encoding="UTF-8" standalone="no"?>
<!DOCTYPE svg PUBLIC "-//W3C//DTD SVG 1.1//EN"
 "http://www.w3.org/Graphics/SVG/1.1/DTD/svg11.dtd">
<!-- Generated by graphviz version 2.26.3 (20100126.1600)
 -->
<!-- Title: MenuItem Pages: 1 -->
<svg width="298pt" height="140pt"
 viewBox="0.00 0.00 298.00 140.00" xmlns="http://www.w3.org/2000/svg" xmlns:xlink="http://www.w3.org/1999/xlink">
<g id="graph1" class="graph" transform="scale(1 1) rotate(0) translate(4 136)">
<title>MenuItem</title>
<polygon fill="white" stroke="white" points="-4,5 -4,-136 295,-136 295,5 -4,5"/>
<!-- Box_GameScreenComponent -->
<g id="node1" class="node"><title>Box_GameScreenComponent</title>
<polygon fill="#ffffff" stroke="black" points="0,-1 0,-75 290,-75 290,-1 0,-1"/>
<text text-anchor="middle" x="145" y="-63.8" font-family="Arial" font-size="8.00">GameScreenComponent</text>
<polyline fill="none" stroke="black" points="0,-57 290,-57 "/>
<text text-anchor="start" x="8" y="-45.8" font-family="Arial" font-size="8.00">+ Index : DisplayLayer</text>
<text text-anchor="start" x="8" y="-35.8" font-family="Arial" font-size="8.00">+ Screen : GameScreen</text>
<polyline fill="none" stroke="black" points="0,-29 290,-29 "/>
<text text-anchor="start" x="8" y="-17.8" font-family="Arial" font-size="8.00">+ SubComponents (GameTime GameTime) : IEnumerable</text>
<text text-anchor="start" x="8" y="-7.8" font-family="Arial" font-size="8.00">+ GameScreenComponent (GameScreen screen, DisplayLayer index) : void</text>
</g>
<!-- Box_GameComponent -->
<g id="node2" class="node"><title>Box_GameComponent</title>
<polygon fill="#ffffff" stroke="black" points="51,-113 51,-131 129,-131 129,-113 51,-113"/>
<text text-anchor="middle" x="90" y="-119.8" font-family="Arial" font-size="8.00">GameComponent</text>
</g>
<!-- Box_GameComponent&#45;&gt;Box_GameScreenComponent -->
<g id="edge2" class="edge"><title>Box_GameComponent&#45;&gt;Box_GameScreenComponent</title>
<path fill="none" stroke="midnightblue" d="M101.718,-104.103C107.256,-95.6457 114.084,-85.2168 120.667,-75.1627"/>
<polygon fill="none" stroke="midnightblue" points="98.6458,-102.406 96.0961,-112.69 104.502,-106.241 98.6458,-102.406"/>
</g>
<!-- Box_IGameScreenComponent -->
<g id="node3" class="node"><title>Box_IGameScreenComponent</title>
<polygon fill="#ffffff" stroke="black" points="147,-113 147,-131 253,-131 253,-113 147,-113"/>
<text text-anchor="middle" x="200" y="-119.8" font-family="Arial" font-size="8.00">IGameScreenComponent</text>
</g>
<!-- Box_IGameScreenComponent&#45;&gt;Box_GameScreenComponent -->
<g id="edge4" class="edge"><title>Box_IGameScreenComponent&#45;&gt;Box_GameScreenComponent</title>
<path fill="none" stroke="midnightblue" d="M188.282,-104.103C182.744,-95.6457 175.916,-85.2168 169.333,-75.1627"/>
<polygon fill="none" stroke="midnightblue" points="185.498,-106.241 193.904,-112.69 191.354,-102.406 185.498,-106.241"/>
</g>
</g>
</svg>
