<?xml version="1.0" encoding="UTF-8" standalone="no"?>
<!DOCTYPE svg PUBLIC "-//W3C//DTD SVG 1.1//EN"
 "http://www.w3.org/Graphics/SVG/1.1/DTD/svg11.dtd">
<!-- Generated by graphviz version 2.26.3 (20100126.1600)
 -->
<!-- Title: MenuItem Pages: 1 -->
<svg width="344pt" height="130pt"
 viewBox="0.00 0.00 344.00 130.00" xmlns="http://www.w3.org/2000/svg" xmlns:xlink="http://www.w3.org/1999/xlink">
<g id="graph1" class="graph" transform="scale(1 1) rotate(0) translate(4 126)">
<title>MenuItem</title>
<polygon fill="white" stroke="white" points="-4,5 -4,-126 341,-126 341,5 -4,5"/>
<!-- Box_HighscoreDialog -->
<g id="node1" class="node"><title>Box_HighscoreDialog</title>
<polygon fill="#ffffff" stroke="black" points="0,-1 0,-65 336,-65 336,-1 0,-1"/>
<text text-anchor="middle" x="168" y="-53.8" font-family="Arial" font-size="8.00">HighscoreDialog</text>
<polyline fill="none" stroke="black" points="0,-47 336,-47 "/>
<text text-anchor="middle" x="168" y="-35.8" font-family="Arial" font-size="8.00"> </text>
<polyline fill="none" stroke="black" points="0,-29 336,-29 "/>
<text text-anchor="start" x="8" y="-17.8" font-family="Arial" font-size="8.00">+ HighscoreDialog (GameScreen screen, DisplayLayer drawOrder, Challenge challenge)</text>
<text text-anchor="start" x="8" y="-7.8" font-family="Arial" font-size="8.00">: void</text>
</g>
<!-- Box_Dialog -->
<g id="node2" class="node"><title>Box_Dialog</title>
<polygon fill="#ffffff" stroke="black" points="149,-103 149,-121 187,-121 187,-103 149,-103"/>
<text text-anchor="middle" x="168" y="-109.8" font-family="Arial" font-size="8.00">Dialog</text>
</g>
<!-- Box_Dialog&#45;&gt;Box_HighscoreDialog -->
<g id="edge2" class="edge"><title>Box_Dialog&#45;&gt;Box_HighscoreDialog</title>
<path fill="none" stroke="midnightblue" d="M168,-92.8318C168,-84.5161 168,-74.5476 168,-65.1537"/>
<polygon fill="none" stroke="midnightblue" points="164.5,-92.9377 168,-102.938 171.5,-92.9377 164.5,-92.9377"/>
</g>
</g>
</svg>
