<?xml version="1.0" encoding="UTF-8" standalone="no"?>
<!DOCTYPE svg PUBLIC "-//W3C//DTD SVG 1.1//EN"
 "http://www.w3.org/Graphics/SVG/1.1/DTD/svg11.dtd">
<!-- Generated by graphviz version 2.26.3 (20100126.1600)
 -->
<!-- Title: MenuItem Pages: 1 -->
<svg width="366pt" height="120pt"
 viewBox="0.00 0.00 366.00 120.00" xmlns="http://www.w3.org/2000/svg" xmlns:xlink="http://www.w3.org/1999/xlink">
<g id="graph1" class="graph" transform="scale(1 1) rotate(0) translate(4 116)">
<title>MenuItem</title>
<polygon fill="white" stroke="white" points="-4,5 -4,-116 363,-116 363,5 -4,5"/>
<!-- Box_HighscoreDialog -->
<g id="node1" class="node"><title>Box_HighscoreDialog</title>
<polygon fill="#ffffff" stroke="black" points="0,-1 0,-55 358,-55 358,-1 0,-1"/>
<text text-anchor="middle" x="179" y="-43.8" font-family="Arial" font-size="8.00">HighscoreDialog</text>
<polyline fill="none" stroke="black" points="0,-37 358,-37 "/>
<text text-anchor="middle" x="179" y="-25.8" font-family="Arial" font-size="8.00"> </text>
<polyline fill="none" stroke="black" points="0,-19 358,-19 "/>
<text text-anchor="start" x="8" y="-7.8" font-family="Arial" font-size="8.00">+ HighscoreDialog (GameScreen screen, DisplayLayer drawOrder, Challenge challenge) : void</text>
</g>
<!-- Box_Dialog -->
<g id="node2" class="node"><title>Box_Dialog</title>
<polygon fill="#ffffff" stroke="black" points="160,-93 160,-111 198,-111 198,-93 160,-93"/>
<text text-anchor="middle" x="179" y="-99.8" font-family="Arial" font-size="8.00">Dialog</text>
</g>
<!-- Box_Dialog&#45;&gt;Box_HighscoreDialog -->
<g id="edge2" class="edge"><title>Box_Dialog&#45;&gt;Box_HighscoreDialog</title>
<path fill="none" stroke="midnightblue" d="M179,-82.6404C179,-74.1998 179,-64.1602 179,-55.0036"/>
<polygon fill="none" stroke="midnightblue" points="175.5,-82.9261 179,-92.9261 182.5,-82.9262 175.5,-82.9261"/>
</g>
</g>
</svg>
