<?xml version="1.0" encoding="UTF-8" standalone="no"?>
<!DOCTYPE svg PUBLIC "-//W3C//DTD SVG 1.1//EN"
 "http://www.w3.org/Graphics/SVG/1.1/DTD/svg11.dtd">
<!-- Generated by graphviz version 2.26.3 (20100126.1600)
 -->
<!-- Title: MenuItem Pages: 1 -->
<svg width="270pt" height="148pt"
 viewBox="0.00 0.00 270.00 148.00" xmlns="http://www.w3.org/2000/svg" xmlns:xlink="http://www.w3.org/1999/xlink">
<g id="graph1" class="graph" transform="scale(1 1) rotate(0) translate(4 144)">
<title>MenuItem</title>
<polygon fill="white" stroke="white" points="-4,5 -4,-144 267,-144 267,5 -4,5"/>
<!-- Box_IGameScreenComponent -->
<g id="node1" class="node"><title>Box_IGameScreenComponent</title>
<polygon fill="#ffffff" stroke="black" points="-0.5,-1 -0.5,-65 194.5,-65 194.5,-1 -0.5,-1"/>
<text text-anchor="middle" x="97" y="-53.8" font-family="Arial" font-size="8.00">IGameScreenComponent</text>
<polyline fill="none" stroke="black" points="-0.5,-47 194.5,-47 "/>
<text text-anchor="start" x="7.5" y="-35.8" font-family="Arial" font-size="8.00">+ Index : DisplayLayer</text>
<text text-anchor="start" x="7.5" y="-25.8" font-family="Arial" font-size="8.00">+ Screen : GameScreen</text>
<polyline fill="none" stroke="black" points="-0.5,-19 194.5,-19 "/>
<text text-anchor="start" x="7.5" y="-7.8" font-family="Arial" font-size="8.00">+ SubComponents (GameTime time) : IEnumerable</text>
</g>
<!-- Box_XNAIGameComponent -->
<g id="node2" class="node"><title>Box_XNAIGameComponent</title>
<polygon fill="#ffffff" stroke="black" points="164,-112 164,-130 262,-130 262,-112 164,-112"/>
<text text-anchor="middle" x="213" y="-118.8" font-family="Arial" font-size="8.00">XNA.IGameComponent</text>
</g>
<!-- Box_IGameComponent -->
<g id="node3" class="node"><title>Box_IGameComponent</title>
<polygon fill="none" stroke="black" points="48,-103 48,-139 146,-139 146,-103 48,-103"/>
<text text-anchor="middle" x="97" y="-118.8" font-family="Arial" font-size="8.00">Box_IGameComponent</text>
</g>
<!-- Box_IGameComponent&#45;&gt;Box_IGameScreenComponent -->
<g id="edge2" class="edge"><title>Box_IGameComponent&#45;&gt;Box_IGameScreenComponent</title>
<path fill="none" stroke="midnightblue" d="M97,-92.6366C97,-83.8508 97,-74.1088 97,-65.089"/>
<polygon fill="none" stroke="midnightblue" points="93.5001,-92.7663 97,-102.766 100.5,-92.7664 93.5001,-92.7663"/>
</g>
</g>
</svg>
