<?xml version="1.0" encoding="UTF-8" standalone="no"?>
<!DOCTYPE svg PUBLIC "-//W3C//DTD SVG 1.1//EN"
 "http://www.w3.org/Graphics/SVG/1.1/DTD/svg11.dtd">
<!-- Generated by graphviz version 2.26.3 (20100126.1600)
 -->
<!-- Title: MenuItem Pages: 1 -->
<svg width="304pt" height="120pt"
 viewBox="0.00 0.00 304.00 120.00" xmlns="http://www.w3.org/2000/svg" xmlns:xlink="http://www.w3.org/1999/xlink">
<g id="graph1" class="graph" transform="scale(1 1) rotate(0) translate(4 116)">
<title>MenuItem</title>
<polygon fill="white" stroke="white" points="-4,5 -4,-116 301,-116 301,5 -4,5"/>
<!-- Box_InputItem -->
<g id="node1" class="node"><title>Box_InputItem</title>
<polygon fill="#ffffff" stroke="black" points="0,-1 0,-55 296,-55 296,-1 0,-1"/>
<text text-anchor="middle" x="148" y="-43.8" font-family="Arial" font-size="8.00">InputItem</text>
<polyline fill="none" stroke="black" points="0,-37 296,-37 "/>
<text text-anchor="start" x="8" y="-25.8" font-family="Arial" font-size="8.00">+ InputText : String</text>
<polyline fill="none" stroke="black" points="0,-19 296,-19 "/>
<text text-anchor="start" x="8" y="-7.8" font-family="Arial" font-size="8.00">+ InputItem (GameScreen screen, DisplayLayer drawOrder, String text) : void</text>
</g>
<!-- Box_MenuItem -->
<g id="node2" class="node"><title>Box_MenuItem</title>
<polygon fill="#ffffff" stroke="black" points="123,-93 123,-111 173,-111 173,-93 123,-93"/>
<text text-anchor="middle" x="148" y="-99.8" font-family="Arial" font-size="8.00">MenuItem</text>
</g>
<!-- Box_MenuItem&#45;&gt;Box_InputItem -->
<g id="edge2" class="edge"><title>Box_MenuItem&#45;&gt;Box_InputItem</title>
<path fill="none" stroke="midnightblue" d="M148,-82.6404C148,-74.1998 148,-64.1602 148,-55.0036"/>
<polygon fill="none" stroke="midnightblue" points="144.5,-82.9261 148,-92.9261 151.5,-82.9262 144.5,-82.9261"/>
</g>
</g>
</svg>
