<?xml version="1.0" encoding="UTF-8" standalone="no"?>
<!DOCTYPE svg PUBLIC "-//W3C//DTD SVG 1.1//EN"
 "http://www.w3.org/Graphics/SVG/1.1/DTD/svg11.dtd">
<!-- Generated by graphviz version 2.26.3 (20100126.1600)
 -->
<!-- Title: MenuItem Pages: 1 -->
<svg width="456pt" height="130pt"
 viewBox="0.00 0.00 456.00 130.00" xmlns="http://www.w3.org/2000/svg" xmlns:xlink="http://www.w3.org/1999/xlink">
<g id="graph1" class="graph" transform="scale(1 1) rotate(0) translate(4 126)">
<title>MenuItem</title>
<polygon fill="white" stroke="white" points="-4,5 -4,-126 453,-126 453,5 -4,5"/>
<!-- Box_KeyInputItem -->
<g id="node1" class="node"><title>Box_KeyInputItem</title>
<polygon fill="#ffffff" stroke="black" points="-0.5,-1 -0.5,-65 448.5,-65 448.5,-1 -0.5,-1"/>
<text text-anchor="middle" x="224" y="-53.8" font-family="Arial" font-size="8.00">KeyInputItem</text>
<polyline fill="none" stroke="black" points="-0.5,-47 448.5,-47 "/>
<text text-anchor="start" x="7.5" y="-35.8" font-family="Arial" font-size="8.00">&#45; option : Knot3&#45;Entwurf</text>
<polyline fill="none" stroke="black" points="-0.5,-29 448.5,-29 "/>
<text text-anchor="start" x="7.5" y="-17.8" font-family="Arial" font-size="8.00">+ OnKeyEvent () : void</text>
<text text-anchor="start" x="7.5" y="-7.8" font-family="Arial" font-size="8.00">+ KeyInputItem (Knot3&#45;Entwurf::GameScreen screen, Knot3&#45;Entwurf::DisplayLayer drawOrder, OptionInfo option) : void</text>
</g>
<!-- Box_InputItem -->
<g id="node2" class="node"><title>Box_InputItem</title>
<polygon fill="#ffffff" stroke="black" points="200,-103 200,-121 248,-121 248,-103 200,-103"/>
<text text-anchor="middle" x="224" y="-109.8" font-family="Arial" font-size="8.00">InputItem</text>
</g>
<!-- Box_InputItem&#45;&gt;Box_KeyInputItem -->
<g id="edge2" class="edge"><title>Box_InputItem&#45;&gt;Box_KeyInputItem</title>
<path fill="none" stroke="midnightblue" d="M224,-92.8318C224,-84.5161 224,-74.5476 224,-65.1537"/>
<polygon fill="none" stroke="midnightblue" points="220.5,-92.9377 224,-102.938 227.5,-92.9377 220.5,-92.9377"/>
</g>
</g>
</svg>
