<?xml version="1.0" encoding="UTF-8" standalone="no"?>
<!DOCTYPE svg PUBLIC "-//W3C//DTD SVG 1.1//EN"
 "http://www.w3.org/Graphics/SVG/1.1/DTD/svg11.dtd">
<!-- Generated by graphviz version 2.26.3 (20100126.1600)
 -->
<!-- Title: MenuItem Pages: 1 -->
<svg width="370pt" height="140pt"
 viewBox="0.00 0.00 370.00 140.00" xmlns="http://www.w3.org/2000/svg" xmlns:xlink="http://www.w3.org/1999/xlink">
<g id="graph1" class="graph" transform="scale(1 1) rotate(0) translate(4 136)">
<title>MenuItem</title>
<polygon fill="white" stroke="white" points="-4,5 -4,-136 367,-136 367,5 -4,5"/>
<!-- Box_KeyInputItem -->
<g id="node1" class="node"><title>Box_KeyInputItem</title>
<polygon fill="#ffffff" stroke="black" points="0,-1 0,-75 362,-75 362,-1 0,-1"/>
<text text-anchor="middle" x="181" y="-63.8" font-family="Arial" font-size="8.00">KeyInputItem</text>
<polyline fill="none" stroke="black" points="0,-57 362,-57 "/>
<text text-anchor="start" x="8" y="-45.8" font-family="Arial" font-size="8.00">&#45; option : Knot3&#45;Entwurf</text>
<polyline fill="none" stroke="black" points="0,-39 362,-39 "/>
<text text-anchor="start" x="8" y="-27.8" font-family="Arial" font-size="8.00">+ OnKeyEvent () : void</text>
<text text-anchor="start" x="8" y="-17.8" font-family="Arial" font-size="8.00">+ KeyInputItem (Knot3&#45;Entwurf::GameScreen screen, Knot3&#45;Entwurf::DisplayLayer drawOrder,</text>
<text text-anchor="start" x="8" y="-7.8" font-family="Arial" font-size="8.00">OptionInfo option) : void</text>
</g>
<!-- Box_InputItem -->
<g id="node2" class="node"><title>Box_InputItem</title>
<polygon fill="#ffffff" stroke="black" points="157,-113 157,-131 205,-131 205,-113 157,-113"/>
<text text-anchor="middle" x="181" y="-119.8" font-family="Arial" font-size="8.00">InputItem</text>
</g>
<!-- Box_InputItem&#45;&gt;Box_KeyInputItem -->
<g id="edge2" class="edge"><title>Box_InputItem&#45;&gt;Box_KeyInputItem</title>
<path fill="none" stroke="midnightblue" d="M181,-102.442C181,-94.3016 181,-84.5681 181,-75.1627"/>
<polygon fill="none" stroke="midnightblue" points="177.5,-102.69 181,-112.69 184.5,-102.69 177.5,-102.69"/>
</g>
</g>
</svg>
