<?xml version="1.0" encoding="UTF-8" standalone="no"?>
<!DOCTYPE svg PUBLIC "-//W3C//DTD SVG 1.1//EN"
 "http://www.w3.org/Graphics/SVG/1.1/DTD/svg11.dtd">
<!-- Generated by graphviz version 2.26.3 (20100126.1600)
 -->
<!-- Title: MenuItem Pages: 1 -->
<svg width="342pt" height="130pt"
 viewBox="0.00 0.00 342.00 130.00" xmlns="http://www.w3.org/2000/svg" xmlns:xlink="http://www.w3.org/1999/xlink">
<g id="graph1" class="graph" transform="scale(1 1) rotate(0) translate(4 126)">
<title>MenuItem</title>
<polygon fill="white" stroke="white" points="-4,5 -4,-126 339,-126 339,5 -4,5"/>
<!-- Box_KeyInputItem -->
<g id="node1" class="node"><title>Box_KeyInputItem</title>
<polygon fill="#ffffff" stroke="black" points="0,-1 0,-65 334,-65 334,-1 0,-1"/>
<text text-anchor="middle" x="167" y="-53.8" font-family="Arial" font-size="8.00">KeyInputItem</text>
<polyline fill="none" stroke="black" points="0,-47 334,-47 "/>
<text text-anchor="start" x="8" y="-35.8" font-family="Arial" font-size="8.00">&#45; option : OptionInfo</text>
<polyline fill="none" stroke="black" points="0,-29 334,-29 "/>
<text text-anchor="start" x="8" y="-17.8" font-family="Arial" font-size="8.00">+ OnKeyEvent () : void</text>
<text text-anchor="start" x="8" y="-7.8" font-family="Arial" font-size="8.00">+ KeyInputItem (GameScreen screen, DisplayLayer drawOrder, OptionInfo option) : void</text>
</g>
<!-- Box_InputItem -->
<g id="node2" class="node"><title>Box_InputItem</title>
<polygon fill="#ffffff" stroke="black" points="143,-103 143,-121 191,-121 191,-103 143,-103"/>
<text text-anchor="middle" x="167" y="-109.8" font-family="Arial" font-size="8.00">InputItem</text>
</g>
<!-- Box_InputItem&#45;&gt;Box_KeyInputItem -->
<g id="edge2" class="edge"><title>Box_InputItem&#45;&gt;Box_KeyInputItem</title>
<path fill="none" stroke="midnightblue" d="M167,-92.8318C167,-84.5161 167,-74.5476 167,-65.1537"/>
<polygon fill="none" stroke="midnightblue" points="163.5,-92.9377 167,-102.938 170.5,-92.9377 163.5,-92.9377"/>
</g>
</g>
</svg>
