<?xml version="1.0" encoding="UTF-8" standalone="no"?>
<!DOCTYPE svg PUBLIC "-//W3C//DTD SVG 1.1//EN"
 "http://www.w3.org/Graphics/SVG/1.1/DTD/svg11.dtd">
<!-- Generated by graphviz version 2.26.3 (20100126.1600)
 -->
<!-- Title: MenuItem Pages: 1 -->
<svg width="266pt" height="300pt"
 viewBox="0.00 0.00 266.00 300.00" xmlns="http://www.w3.org/2000/svg" xmlns:xlink="http://www.w3.org/1999/xlink">
<g id="graph1" class="graph" transform="scale(1 1) rotate(0) translate(4 296)">
<title>MenuItem</title>
<polygon fill="white" stroke="white" points="-4,5 -4,-296 263,-296 263,5 -4,5"/>
<!-- Box_Knot -->
<g id="node1" class="node"><title>Box_Knot</title>
<polygon fill="#ffffff" stroke="black" points="-0.5,-1 -0.5,-235 238.5,-235 238.5,-1 -0.5,-1"/>
<text text-anchor="middle" x="119" y="-223.8" font-family="Arial" font-size="8.00">Knot</text>
<polyline fill="none" stroke="black" points="-0.5,-217 238.5,-217 "/>
<text text-anchor="start" x="7.5" y="-205.8" font-family="Arial" font-size="8.00">+ Name : String</text>
<text text-anchor="start" x="7.5" y="-195.8" font-family="Arial" font-size="8.00">&#45; edges : Circle</text>
<text text-anchor="start" x="7.5" y="-185.8" font-family="Arial" font-size="8.00">+ MetaData : KnotMetaData</text>
<text text-anchor="start" x="7.5" y="-175.8" font-family="Arial" font-size="8.00">+ EdgesChanged : Action</text>
<text text-anchor="start" x="7.5" y="-165.8" font-family="Arial" font-size="8.00">+ SelectedEdges : IEnumerable&lt;Edge&gt;</text>
<polyline fill="none" stroke="black" points="-0.5,-159 238.5,-159 "/>
<text text-anchor="start" x="7.5" y="-147.8" font-family="Arial" font-size="8.00">+ Knot () : void</text>
<text text-anchor="start" x="7.5" y="-137.8" font-family="Arial" font-size="8.00">+ Knot (KnotMetaData meta, IEnumerable&lt;Edge&gt; edges) : void</text>
<text text-anchor="start" x="7.5" y="-127.8" font-family="Arial" font-size="8.00">+ IsValidMove (Direction dir, Integer distance) : Boolean</text>
<text text-anchor="start" x="7.5" y="-117.8" font-family="Arial" font-size="8.00">+ Move (Direction dir, Integer distance) : Boolean</text>
<text text-anchor="start" x="7.5" y="-107.8" font-family="Arial" font-size="8.00">+ GetEnumerator () : IEnumerator&lt;Edge&gt;</text>
<text text-anchor="start" x="7.5" y="-97.8" font-family="Arial" font-size="8.00">+ Save () : void</text>
<text text-anchor="start" x="7.5" y="-87.8" font-family="Arial" font-size="8.00">+ Clone () : Object</text>
<text text-anchor="start" x="7.5" y="-77.8" font-family="Arial" font-size="8.00">+ AddToSelection (Edge edge) : void</text>
<text text-anchor="start" x="7.5" y="-67.8" font-family="Arial" font-size="8.00">+ RemoveFromSelection (Edge edge) : void</text>
<text text-anchor="start" x="7.5" y="-57.8" font-family="Arial" font-size="8.00">+ ClearSelection () : void</text>
<text text-anchor="start" x="7.5" y="-47.8" font-family="Arial" font-size="8.00">+ AddRangeToSelection (Edge edge) : void</text>
<text text-anchor="start" x="7.5" y="-37.8" font-family="Arial" font-size="8.00">+ IsSelected (Edge edge) : Boolean</text>
<text text-anchor="start" x="7.5" y="-27.8" font-family="Arial" font-size="8.00">+ GetEnumerator () : IEnumerator</text>
<text text-anchor="start" x="7.5" y="-17.8" font-family="Arial" font-size="8.00">+ Save (IKnotIO format, String filename) : void</text>
<text text-anchor="start" x="7.5" y="-7.8" font-family="Arial" font-size="8.00">+ Equals (T other) : Boolean</text>
</g>
<!-- Box_ICloneable -->
<g id="node2" class="node"><title>Box_ICloneable</title>
<polygon fill="#ffffff" stroke="black" points="5.5,-273 5.5,-291 58.5,-291 58.5,-273 5.5,-273"/>
<text text-anchor="middle" x="32" y="-279.8" font-family="Arial" font-size="8.00">ICloneable</text>
</g>
<!-- Box_ICloneable&#45;&gt;Box_Knot -->
<g id="edge2" class="edge"><title>Box_ICloneable&#45;&gt;Box_Knot</title>
<path fill="none" stroke="midnightblue" d="M41.7404,-263.639C45.9055,-255.787 51.1414,-245.917 56.9152,-235.033"/>
<polygon fill="none" stroke="midnightblue" points="38.5212,-262.239 36.9268,-272.713 44.705,-265.519 38.5212,-262.239"/>
</g>
<!-- Box_IEnumerable -->
<g id="node3" class="node"><title>Box_IEnumerable</title>
<polygon fill="#ffffff" stroke="black" points="75.5,-273 75.5,-291 162.5,-291 162.5,-273 75.5,-273"/>
<text text-anchor="middle" x="119" y="-279.8" font-family="Arial" font-size="8.00">IEnumerable&lt;Edge&gt;</text>
</g>
<!-- Box_IEnumerable&#45;&gt;Box_Knot -->
<g id="edge4" class="edge"><title>Box_IEnumerable&#45;&gt;Box_Knot</title>
<path fill="none" stroke="midnightblue" d="M119,-262.568C119,-254.898 119,-245.428 119,-235.033"/>
<polygon fill="none" stroke="midnightblue" points="115.5,-262.713 119,-272.713 122.5,-262.713 115.5,-262.713"/>
</g>
<!-- Box_IEquatable -->
<g id="node4" class="node"><title>Box_IEquatable</title>
<polygon fill="#ffffff" stroke="black" points="179.5,-273 179.5,-291 258.5,-291 258.5,-273 179.5,-273"/>
<text text-anchor="middle" x="219" y="-279.8" font-family="Arial" font-size="8.00">IEquatable&lt;Knot&gt;</text>
</g>
<!-- Box_IEquatable&#45;&gt;Box_Knot -->
<g id="edge6" class="edge"><title>Box_IEquatable&#45;&gt;Box_Knot</title>
<path fill="none" stroke="midnightblue" d="M208.125,-264.165C203.287,-256.23 197.148,-246.162 190.362,-235.033"/>
<polygon fill="none" stroke="midnightblue" points="205.143,-265.997 213.337,-272.713 211.119,-262.353 205.143,-265.997"/>
</g>
</g>
</svg>
