<?xml version="1.0" encoding="UTF-8" standalone="no"?>
<!DOCTYPE svg PUBLIC "-//W3C//DTD SVG 1.1//EN"
 "http://www.w3.org/Graphics/SVG/1.1/DTD/svg11.dtd">
<!-- Generated by graphviz version 2.26.3 (20100126.1600)
 -->
<!-- Title: MenuItem Pages: 1 -->
<svg width="264pt" height="260pt"
 viewBox="0.00 0.00 264.00 260.00" xmlns="http://www.w3.org/2000/svg" xmlns:xlink="http://www.w3.org/1999/xlink">
<g id="graph1" class="graph" transform="scale(1 1) rotate(0) translate(4 256)">
<title>MenuItem</title>
<polygon fill="white" stroke="white" points="-4,5 -4,-256 261,-256 261,5 -4,5"/>
<!-- Box_KnotRenderer -->
<g id="node1" class="node"><title>Box_KnotRenderer</title>
<polygon fill="#ffffff" stroke="black" points="-0.5,-1 -0.5,-195 256.5,-195 256.5,-1 -0.5,-1"/>
<text text-anchor="middle" x="128" y="-183.8" font-family="Arial" font-size="8.00">KnotRenderer</text>
<polyline fill="none" stroke="black" points="-0.5,-177 256.5,-177 "/>
<text text-anchor="start" x="7.5" y="-165.8" font-family="Arial" font-size="8.00">+ Info : GameObjectInfo</text>
<text text-anchor="start" x="7.5" y="-155.8" font-family="Arial" font-size="8.00">+ World : World</text>
<text text-anchor="start" x="7.5" y="-145.8" font-family="Arial" font-size="8.00">&#45; arrows : List&lt;ArrowModel&gt;</text>
<text text-anchor="start" x="7.5" y="-135.8" font-family="Arial" font-size="8.00">&#45; nodes : List&lt;NodeModel&gt;</text>
<text text-anchor="start" x="7.5" y="-125.8" font-family="Arial" font-size="8.00">&#45; pipes : List&lt;PipeModel&gt;</text>
<text text-anchor="start" x="7.5" y="-115.8" font-family="Arial" font-size="8.00">+ Knot : Knot</text>
<text text-anchor="start" x="7.5" y="-105.8" font-family="Arial" font-size="8.00">&#45; pipeFactory : ModelFactory</text>
<text text-anchor="start" x="7.5" y="-95.8" font-family="Arial" font-size="8.00">&#45; nodeFactory : ModelFactory</text>
<text text-anchor="start" x="7.5" y="-85.8" font-family="Arial" font-size="8.00">&#45; arrowFactory : ModelFactory</text>
<polyline fill="none" stroke="black" points="-0.5,-79 256.5,-79 "/>
<text text-anchor="start" x="7.5" y="-67.8" font-family="Arial" font-size="8.00">+ Center () : Vector3</text>
<text text-anchor="start" x="7.5" y="-57.8" font-family="Arial" font-size="8.00">+ Intersects (Ray Ray) : GameObjectDistance</text>
<text text-anchor="start" x="7.5" y="-47.8" font-family="Arial" font-size="8.00">+ OnEdgesChanged () : void</text>
<text text-anchor="start" x="7.5" y="-37.8" font-family="Arial" font-size="8.00">+ KnotRenderer (GameScreen screen, GameObjectInfo info) : void</text>
<text text-anchor="start" x="7.5" y="-27.8" font-family="Arial" font-size="8.00">+ Update (GameTime GameTime) : void</text>
<text text-anchor="start" x="7.5" y="-17.8" font-family="Arial" font-size="8.00">+ Draw (GameTime GameTime) : void</text>
<text text-anchor="start" x="7.5" y="-7.8" font-family="Arial" font-size="8.00">+ GetEnumerator () : IEnumerator</text>
</g>
<!-- Box_IGameObject -->
<g id="node2" class="node"><title>Box_IGameObject</title>
<polygon fill="#ffffff" stroke="black" points="44,-233 44,-251 106,-251 106,-233 44,-233"/>
<text text-anchor="middle" x="75" y="-239.8" font-family="Arial" font-size="8.00">IGameObject</text>
</g>
<!-- Box_IGameObject&#45;&gt;Box_KnotRenderer -->
<g id="edge2" class="edge"><title>Box_IGameObject&#45;&gt;Box_KnotRenderer</title>
<path fill="none" stroke="midnightblue" d="M81.7723,-223.6C84.664,-215.743 88.2782,-205.923 92.2041,-195.257"/>
<polygon fill="none" stroke="midnightblue" points="78.4849,-222.399 78.3154,-232.992 85.0541,-224.817 78.4849,-222.399"/>
</g>
<!-- Box_IEnumerable -->
<g id="node3" class="node"><title>Box_IEnumerable</title>
<polygon fill="#ffffff" stroke="black" points="123.5,-233 123.5,-251 238.5,-251 238.5,-233 123.5,-233"/>
<text text-anchor="middle" x="181" y="-239.8" font-family="Arial" font-size="8.00">IEnumerable&lt;IGameObject&gt;</text>
</g>
<!-- Box_IEnumerable&#45;&gt;Box_KnotRenderer -->
<g id="edge4" class="edge"><title>Box_IEnumerable&#45;&gt;Box_KnotRenderer</title>
<path fill="none" stroke="midnightblue" d="M174.228,-223.6C171.336,-215.743 167.722,-205.923 163.796,-195.257"/>
<polygon fill="none" stroke="midnightblue" points="170.946,-224.817 177.685,-232.992 177.515,-222.399 170.946,-224.817"/>
</g>
</g>
</svg>
