<?xml version="1.0" encoding="UTF-8" standalone="no"?>
<!DOCTYPE svg PUBLIC "-//W3C//DTD SVG 1.1//EN"
 "http://www.w3.org/Graphics/SVG/1.1/DTD/svg11.dtd">
<!-- Generated by graphviz version 2.26.3 (20100126.1600)
 -->
<!-- Title: MenuItem Pages: 1 -->
<svg width="186pt" height="208pt"
 viewBox="0.00 0.00 186.00 208.00" xmlns="http://www.w3.org/2000/svg" xmlns:xlink="http://www.w3.org/1999/xlink">
<g id="graph1" class="graph" transform="scale(1 1) rotate(0) translate(4 204)">
<title>MenuItem</title>
<polygon fill="white" stroke="white" points="-4,5 -4,-204 183,-204 183,5 -4,5"/>
<!-- Box_Knot3Game -->
<g id="node1" class="node"><title>Box_Knot3Game</title>
<polygon fill="#ffffff" stroke="black" points="0,-1 0,-125 152,-125 152,-1 0,-1"/>
<text text-anchor="middle" x="76" y="-113.8" font-family="Arial" font-size="8.00">Knot3Game</text>
<polyline fill="none" stroke="black" points="0,-107 152,-107 "/>
<text text-anchor="start" x="8" y="-95.8" font-family="Arial" font-size="8.00">+ IsFullScreen : Boolean</text>
<text text-anchor="start" x="8" y="-85.8" font-family="Arial" font-size="8.00">+ Screens : Stack&lt;GameScreen&gt;</text>
<text text-anchor="start" x="8" y="-75.8" font-family="Arial" font-size="8.00">+ VSync : Boolean</text>
<text text-anchor="start" x="8" y="-65.8" font-family="Arial" font-size="8.00">+ Graphics : GraphicsDeviceManager</text>
<polyline fill="none" stroke="black" points="0,-59 152,-59 "/>
<text text-anchor="start" x="8" y="-47.8" font-family="Arial" font-size="8.00">+ Knot3Game () : void</text>
<text text-anchor="start" x="8" y="-37.8" font-family="Arial" font-size="8.00">+ Draw (GameTime time) : void</text>
<text text-anchor="start" x="8" y="-27.8" font-family="Arial" font-size="8.00">+ Initialize () : void</text>
<text text-anchor="start" x="8" y="-17.8" font-family="Arial" font-size="8.00">+ UnloadContent () : void</text>
<text text-anchor="start" x="8" y="-7.8" font-family="Arial" font-size="8.00">+ Update (GameTime time) : void</text>
</g>
<!-- Box_XNAGame -->
<g id="node2" class="node"><title>Box_XNAGame</title>
<polygon fill="#ffffff" stroke="black" points="122,-172 122,-190 178,-190 178,-172 122,-172"/>
<text text-anchor="middle" x="150" y="-178.8" font-family="Arial" font-size="8.00">XNA.Game</text>
</g>
<!-- Box_Game -->
<g id="node3" class="node"><title>Box_Game</title>
<polygon fill="none" stroke="black" points="48,-163 48,-199 104,-199 104,-163 48,-163"/>
<text text-anchor="middle" x="76" y="-178.8" font-family="Arial" font-size="8.00">Box_Game</text>
</g>
<!-- Box_Game&#45;&gt;Box_Knot3Game -->
<g id="edge2" class="edge"><title>Box_Game&#45;&gt;Box_Knot3Game</title>
<path fill="none" stroke="midnightblue" d="M76,-152.821C76,-144.367 76,-134.739 76,-125.002"/>
<polygon fill="none" stroke="midnightblue" points="72.5001,-152.821 76,-162.821 79.5001,-152.821 72.5001,-152.821"/>
</g>
</g>
</svg>
