<?xml version="1.0" encoding="UTF-8" standalone="no"?>
<!DOCTYPE svg PUBLIC "-//W3C//DTD SVG 1.1//EN"
 "http://www.w3.org/Graphics/SVG/1.1/DTD/svg11.dtd">
<!-- Generated by graphviz version 2.26.3 (20100126.1600)
 -->
<!-- Title: MenuItem Pages: 1 -->
<svg width="340pt" height="130pt"
 viewBox="0.00 0.00 340.00 130.00" xmlns="http://www.w3.org/2000/svg" xmlns:xlink="http://www.w3.org/1999/xlink">
<g id="graph1" class="graph" transform="scale(1 1) rotate(0) translate(4 126)">
<title>MenuItem</title>
<polygon fill="white" stroke="white" points="-4,5 -4,-126 337,-126 337,5 -4,5"/>
<!-- Box_KnotSaveDialog -->
<g id="node1" class="node"><title>Box_KnotSaveDialog</title>
<polygon fill="#ffffff" stroke="black" points="-0.5,-1 -0.5,-65 332.5,-65 332.5,-1 -0.5,-1"/>
<text text-anchor="middle" x="166" y="-53.8" font-family="Arial" font-size="8.00">KnotSaveDialog</text>
<polyline fill="none" stroke="black" points="-0.5,-47 332.5,-47 "/>
<text text-anchor="start" x="7.5" y="-35.8" font-family="Arial" font-size="8.00">+ OnSave : Action</text>
<polyline fill="none" stroke="black" points="-0.5,-29 332.5,-29 "/>
<text text-anchor="start" x="7.5" y="-17.8" font-family="Arial" font-size="8.00">+ SaveDialog (CreativeModeScreen screen, DisplayLayer drawOrder, Knot knot, Action</text>
<text text-anchor="start" x="7.5" y="-7.8" font-family="Arial" font-size="8.00">onSave) : void</text>
</g>
<!-- Box_TextInputDialog -->
<g id="node2" class="node"><title>Box_TextInputDialog</title>
<polygon fill="#ffffff" stroke="black" points="130.5,-103 130.5,-121 201.5,-121 201.5,-103 130.5,-103"/>
<text text-anchor="middle" x="166" y="-109.8" font-family="Arial" font-size="8.00">TextInputDialog</text>
</g>
<!-- Box_TextInputDialog&#45;&gt;Box_KnotSaveDialog -->
<g id="edge2" class="edge"><title>Box_TextInputDialog&#45;&gt;Box_KnotSaveDialog</title>
<path fill="none" stroke="midnightblue" d="M166,-92.8318C166,-84.5161 166,-74.5476 166,-65.1537"/>
<polygon fill="none" stroke="midnightblue" points="162.5,-92.9377 166,-102.938 169.5,-92.9377 162.5,-92.9377"/>
</g>
</g>
</svg>
