<?xml version="1.0" encoding="UTF-8" standalone="no"?>
<!DOCTYPE svg PUBLIC "-//W3C//DTD SVG 1.1//EN"
 "http://www.w3.org/Graphics/SVG/1.1/DTD/svg11.dtd">
<!-- Generated by graphviz version 2.26.3 (20100126.1600)
 -->
<!-- Title: MenuItem Pages: 1 -->
<svg width="204pt" height="150pt"
 viewBox="0.00 0.00 204.00 150.00" xmlns="http://www.w3.org/2000/svg" xmlns:xlink="http://www.w3.org/1999/xlink">
<g id="graph1" class="graph" transform="scale(1 1) rotate(0) translate(4 146)">
<title>MenuItem</title>
<polygon fill="white" stroke="white" points="-4,5 -4,-146 201,-146 201,5 -4,5"/>
<!-- Box_KnotFileIO -->
<g id="node1" class="node"><title>Box_KnotFileIO</title>
<polygon fill="#ffffff" stroke="black" points="-0.5,-1 -0.5,-85 196.5,-85 196.5,-1 -0.5,-1"/>
<text text-anchor="middle" x="98" y="-73.8" font-family="Arial" font-size="8.00">KnotFileIO</text>
<polyline fill="none" stroke="black" points="-0.5,-67 196.5,-67 "/>
<text text-anchor="start" x="7.5" y="-55.8" font-family="Arial" font-size="8.00">+ FileExtensions : IEnumerable&lt;string&gt;</text>
<polyline fill="none" stroke="black" points="-0.5,-49 196.5,-49 "/>
<text text-anchor="start" x="7.5" y="-37.8" font-family="Arial" font-size="8.00">+ KnotFileIO () : void</text>
<text text-anchor="start" x="7.5" y="-27.8" font-family="Arial" font-size="8.00">+ Save (Knot3&#45;Entwurf::Knot knot) : void</text>
<text text-anchor="start" x="7.5" y="-17.8" font-family="Arial" font-size="8.00">+ Load (String filename) : Knot3&#45;Entwurf</text>
<text text-anchor="start" x="7.5" y="-7.8" font-family="Arial" font-size="8.00">+ LoadMetaData (String filename) : Knot3&#45;Entwurf</text>
</g>
<!-- Box_IKnotIO -->
<g id="node2" class="node"><title>Box_IKnotIO</title>
<polygon fill="#ffffff" stroke="black" points="77,-123 77,-141 119,-141 119,-123 77,-123"/>
<text text-anchor="middle" x="98" y="-129.8" font-family="Arial" font-size="8.00">IKnotIO</text>
</g>
<!-- Box_IKnotIO&#45;&gt;Box_KnotFileIO -->
<g id="edge2" class="edge"><title>Box_IKnotIO&#45;&gt;Box_KnotFileIO</title>
<path fill="none" stroke="midnightblue" d="M98,-112.617C98,-104.489 98,-94.6982 98,-85.0607"/>
<polygon fill="none" stroke="midnightblue" points="94.5001,-112.811 98,-122.811 101.5,-112.811 94.5001,-112.811"/>
</g>
</g>
</svg>
