<?xml version="1.0" encoding="UTF-8" standalone="no"?>
<!DOCTYPE svg PUBLIC "-//W3C//DTD SVG 1.1//EN"
 "http://www.w3.org/Graphics/SVG/1.1/DTD/svg11.dtd">
<!-- Generated by graphviz version 2.26.3 (20100126.1600)
 -->
<!-- Title: MenuItem Pages: 1 -->
<svg width="160pt" height="190pt"
 viewBox="0.00 0.00 160.00 190.00" xmlns="http://www.w3.org/2000/svg" xmlns:xlink="http://www.w3.org/1999/xlink">
<g id="graph1" class="graph" transform="scale(1 1) rotate(0) translate(4 186)">
<title>MenuItem</title>
<polygon fill="white" stroke="white" points="-4,5 -4,-186 157,-186 157,5 -4,5"/>
<!-- Box_Knot3Game -->
<g id="node1" class="node"><title>Box_Knot3Game</title>
<polygon fill="#ffffff" stroke="black" points="0,-1 0,-125 152,-125 152,-1 0,-1"/>
<text text-anchor="middle" x="76" y="-113.8" font-family="Arial" font-size="8.00">Knot3Game</text>
<polyline fill="none" stroke="black" points="0,-107 152,-107 "/>
<text text-anchor="start" x="8" y="-95.8" font-family="Arial" font-size="8.00">+ IsFullScreen : Boolean</text>
<text text-anchor="start" x="8" y="-85.8" font-family="Arial" font-size="8.00">+ Screens : Stack&lt;GameScreen&gt;</text>
<text text-anchor="start" x="8" y="-75.8" font-family="Arial" font-size="8.00">+ VSync : Boolean</text>
<text text-anchor="start" x="8" y="-65.8" font-family="Arial" font-size="8.00">+ Graphics : GraphicsDeviceManager</text>
<polyline fill="none" stroke="black" points="0,-59 152,-59 "/>
<text text-anchor="start" x="8" y="-47.8" font-family="Arial" font-size="8.00">+ Knot3Game () : void</text>
<text text-anchor="start" x="8" y="-37.8" font-family="Arial" font-size="8.00">+ Draw (GameTime time) : void</text>
<text text-anchor="start" x="8" y="-27.8" font-family="Arial" font-size="8.00">+ Initialize () : void</text>
<text text-anchor="start" x="8" y="-17.8" font-family="Arial" font-size="8.00">+ UnloadContent () : void</text>
<text text-anchor="start" x="8" y="-7.8" font-family="Arial" font-size="8.00">+ Update (GameTime time) : void</text>
</g>
<!-- Box_Game -->
<g id="node2" class="node"><title>Box_Game</title>
<polygon fill="#ffffff" stroke="black" points="57,-163 57,-181 95,-181 95,-163 57,-163"/>
<text text-anchor="middle" x="76" y="-169.8" font-family="Arial" font-size="8.00">Game</text>
</g>
<!-- Box_Game&#45;&gt;Box_Knot3Game -->
<g id="edge2" class="edge"><title>Box_Game&#45;&gt;Box_Knot3Game</title>
<path fill="none" stroke="midnightblue" d="M76,-152.506C76,-144.605 76,-135.001 76,-125.055"/>
<polygon fill="none" stroke="midnightblue" points="72.5001,-152.707 76,-162.707 79.5001,-152.707 72.5001,-152.707"/>
</g>
</g>
</svg>
