<?xml version="1.0" encoding="UTF-8" standalone="no"?>
<!DOCTYPE svg PUBLIC "-//W3C//DTD SVG 1.1//EN"
 "http://www.w3.org/Graphics/SVG/1.1/DTD/svg11.dtd">
<!-- Generated by graphviz version 2.26.3 (20100126.1600)
 -->
<!-- Title: MenuItem Pages: 1 -->
<svg width="366pt" height="220pt"
 viewBox="0.00 0.00 366.00 220.00" xmlns="http://www.w3.org/2000/svg" xmlns:xlink="http://www.w3.org/1999/xlink">
<g id="graph1" class="graph" transform="scale(1 1) rotate(0) translate(4 216)">
<title>MenuItem</title>
<polygon fill="white" stroke="white" points="-4,5 -4,-216 363,-216 363,5 -4,5"/>
<!-- Box_Menu -->
<g id="node1" class="node"><title>Box_Menu</title>
<polygon fill="#ffffff" stroke="black" points="0,-1 0,-155 358,-155 358,-1 0,-1"/>
<text text-anchor="middle" x="179" y="-143.8" font-family="Arial" font-size="8.00">Menu</text>
<polyline fill="none" stroke="black" points="0,-137 358,-137 "/>
<text text-anchor="start" x="8" y="-125.8" font-family="Arial" font-size="8.00">+ RelativeItemSize : Func&lt;int, Vector2&gt;</text>
<text text-anchor="start" x="8" y="-115.8" font-family="Arial" font-size="8.00">+ RelativeItemPosition : Func&lt;int, Vector2&gt;</text>
<text text-anchor="start" x="8" y="-105.8" font-family="Arial" font-size="8.00">+ ItemForegroundColor : Func&lt;ItemState, Color&gt;</text>
<text text-anchor="start" x="8" y="-95.8" font-family="Arial" font-size="8.00">+ ItemBackgroundColor : Func&lt;ItemState, Color&gt;</text>
<text text-anchor="start" x="8" y="-85.8" font-family="Arial" font-size="8.00">+ ItemAlignX : HorizontalAlignment</text>
<text text-anchor="start" x="8" y="-75.8" font-family="Arial" font-size="8.00">+ ItemAlignY : VerticalAlignment</text>
<polyline fill="none" stroke="black" points="0,-69 358,-69 "/>
<text text-anchor="start" x="8" y="-57.8" font-family="Arial" font-size="8.00">+ Add (Knot3&#45;Entwurf::MenuItem item) : void</text>
<text text-anchor="start" x="8" y="-47.8" font-family="Arial" font-size="8.00">+ Delete (Knot3&#45;Entwurf::MenuItem item) : void</text>
<text text-anchor="start" x="8" y="-37.8" font-family="Arial" font-size="8.00">+ GetItem (Integer i) : Knot3&#45;Entwurf</text>
<text text-anchor="start" x="8" y="-27.8" font-family="Arial" font-size="8.00">+ Size () : Integer</text>
<text text-anchor="start" x="8" y="-17.8" font-family="Arial" font-size="8.00">+ GetEnumerator () : IEnumerator</text>
<text text-anchor="start" x="8" y="-7.8" font-family="Arial" font-size="8.00">+ Menu (Knot3&#45;Entwurf::GameScreen screen, Knot3&#45;Entwurf::DisplayLayer drawOrder) : void</text>
</g>
<!-- Box_Widget -->
<g id="node2" class="node"><title>Box_Widget</title>
<polygon fill="#ffffff" stroke="black" points="114.5,-193 114.5,-211 155.5,-211 155.5,-193 114.5,-193"/>
<text text-anchor="middle" x="135" y="-199.8" font-family="Arial" font-size="8.00">Widget</text>
</g>
<!-- Box_Widget&#45;&gt;Box_Menu -->
<g id="edge2" class="edge"><title>Box_Widget&#45;&gt;Box_Menu</title>
<path fill="none" stroke="midnightblue" d="M141.687,-183.156C144.496,-175.238 147.967,-165.456 151.651,-155.074"/>
<polygon fill="none" stroke="midnightblue" points="138.353,-182.085 138.307,-192.68 144.95,-184.426 138.353,-182.085"/>
</g>
<!-- Box_IEnumerable -->
<g id="node3" class="node"><title>Box_IEnumerable</title>
<polygon fill="#ffffff" stroke="black" points="172.5,-193 172.5,-211 275.5,-211 275.5,-193 172.5,-193"/>
<text text-anchor="middle" x="224" y="-199.8" font-family="Arial" font-size="8.00">IEnumerable&lt;MenuItem&gt;</text>
</g>
<!-- Box_IEnumerable&#45;&gt;Box_Menu -->
<g id="edge4" class="edge"><title>Box_IEnumerable&#45;&gt;Box_Menu</title>
<path fill="none" stroke="midnightblue" d="M217.161,-183.156C214.288,-175.238 210.738,-165.456 206.97,-155.074"/>
<polygon fill="none" stroke="midnightblue" points="213.916,-184.474 220.618,-192.68 220.496,-182.086 213.916,-184.474"/>
</g>
</g>
</svg>
