<?xml version="1.0" encoding="UTF-8" standalone="no"?>
<!DOCTYPE svg PUBLIC "-//W3C//DTD SVG 1.1//EN"
 "http://www.w3.org/Graphics/SVG/1.1/DTD/svg11.dtd">
<!-- Generated by graphviz version 2.26.3 (20100126.1600)
 -->
<!-- Title: MenuItem Pages: 1 -->
<svg width="320pt" height="190pt"
 viewBox="0.00 0.00 320.00 190.00" xmlns="http://www.w3.org/2000/svg" xmlns:xlink="http://www.w3.org/1999/xlink">
<g id="graph1" class="graph" transform="scale(1 1) rotate(0) translate(4 186)">
<title>MenuItem</title>
<polygon fill="white" stroke="white" points="-4,5 -4,-186 317,-186 317,5 -4,5"/>
<!-- Box_MenuItem -->
<g id="node1" class="node"><title>Box_MenuItem</title>
<polygon fill="#ffffff" stroke="black" points="-0.5,-1 -0.5,-125 312.5,-125 312.5,-1 -0.5,-1"/>
<text text-anchor="middle" x="156" y="-113.8" font-family="Arial" font-size="8.00">MenuItem</text>
<polyline fill="none" stroke="black" points="-0.5,-107 312.5,-107 "/>
<text text-anchor="start" x="7.5" y="-95.8" font-family="Arial" font-size="8.00">+ ItemState : ItemState</text>
<text text-anchor="start" x="7.5" y="-85.8" font-family="Arial" font-size="8.00">+ ItemOrder : Integer</text>
<text text-anchor="start" x="7.5" y="-75.8" font-family="Arial" font-size="8.00">+ Text : String</text>
<polyline fill="none" stroke="black" points="-0.5,-69 312.5,-69 "/>
<text text-anchor="start" x="7.5" y="-57.8" font-family="Arial" font-size="8.00">+ OnLeftClick (Vector2 position, Knot3&#45;Entwurf::ClickState state, GameTime time) :</text>
<text text-anchor="start" x="7.5" y="-47.8" font-family="Arial" font-size="8.00">void</text>
<text text-anchor="start" x="7.5" y="-37.8" font-family="Arial" font-size="8.00">+ OnRightClick (Vector2 position, Knot3&#45;Entwurf::ClickState state, GameTime time)</text>
<text text-anchor="start" x="7.5" y="-27.8" font-family="Arial" font-size="8.00">: void</text>
<text text-anchor="start" x="7.5" y="-17.8" font-family="Arial" font-size="8.00">+ OnKeyEvent () : void</text>
<text text-anchor="start" x="7.5" y="-7.8" font-family="Arial" font-size="8.00">+ Bounds () : Rectangle</text>
</g>
<!-- Box_Widget -->
<g id="node2" class="node"><title>Box_Widget</title>
<polygon fill="#ffffff" stroke="black" points="135.5,-163 135.5,-181 176.5,-181 176.5,-163 135.5,-163"/>
<text text-anchor="middle" x="156" y="-169.8" font-family="Arial" font-size="8.00">Widget</text>
</g>
<!-- Box_Widget&#45;&gt;Box_MenuItem -->
<g id="edge2" class="edge"><title>Box_Widget&#45;&gt;Box_MenuItem</title>
<path fill="none" stroke="midnightblue" d="M156,-152.506C156,-144.605 156,-135.001 156,-125.055"/>
<polygon fill="none" stroke="midnightblue" points="152.5,-152.707 156,-162.707 159.5,-152.707 152.5,-152.707"/>
</g>
</g>
</svg>
