<?xml version="1.0" encoding="UTF-8" standalone="no"?>
<!DOCTYPE svg PUBLIC "-//W3C//DTD SVG 1.1//EN"
 "http://www.w3.org/Graphics/SVG/1.1/DTD/svg11.dtd">
<!-- Generated by graphviz version 2.26.3 (20100126.1600)
 -->
<!-- Title: MenuItem Pages: 1 -->
<svg width="348pt" height="230pt"
 viewBox="0.00 0.00 348.00 230.00" xmlns="http://www.w3.org/2000/svg" xmlns:xlink="http://www.w3.org/1999/xlink">
<g id="graph1" class="graph" transform="scale(1 1) rotate(0) translate(4 226)">
<title>MenuItem</title>
<polygon fill="white" stroke="white" points="-4,5 -4,-226 345,-226 345,5 -4,5"/>
<!-- Box_Menu -->
<g id="node1" class="node"><title>Box_Menu</title>
<polygon fill="#ffffff" stroke="black" points="-0.5,-1 -0.5,-165 340.5,-165 340.5,-1 -0.5,-1"/>
<text text-anchor="middle" x="170" y="-153.8" font-family="Arial" font-size="8.00">Menu</text>
<polyline fill="none" stroke="black" points="-0.5,-147 340.5,-147 "/>
<text text-anchor="start" x="7.5" y="-135.8" font-family="Arial" font-size="8.00">+ RelativeItemSize : Func&lt;int, Vector2&gt;</text>
<text text-anchor="start" x="7.5" y="-125.8" font-family="Arial" font-size="8.00">+ RelativeItemPosition : Func&lt;int, Vector2&gt;</text>
<text text-anchor="start" x="7.5" y="-115.8" font-family="Arial" font-size="8.00">+ ItemForegroundColor : Func&lt;ItemState, Color&gt;</text>
<text text-anchor="start" x="7.5" y="-105.8" font-family="Arial" font-size="8.00">+ ItemBackgroundColor : Func&lt;ItemState, Color&gt;</text>
<text text-anchor="start" x="7.5" y="-95.8" font-family="Arial" font-size="8.00">+ ItemAlignX : HorizontalAlignment</text>
<text text-anchor="start" x="7.5" y="-85.8" font-family="Arial" font-size="8.00">+ ItemAlignY : VerticalAlignment</text>
<polyline fill="none" stroke="black" points="-0.5,-79 340.5,-79 "/>
<text text-anchor="start" x="7.5" y="-67.8" font-family="Arial" font-size="8.00">+ Add (Knot3&#45;Entwurf::MenuItem item) : void</text>
<text text-anchor="start" x="7.5" y="-57.8" font-family="Arial" font-size="8.00">+ Delete (Knot3&#45;Entwurf::MenuItem item) : void</text>
<text text-anchor="start" x="7.5" y="-47.8" font-family="Arial" font-size="8.00">+ GetItem (Integer i) : Knot3&#45;Entwurf</text>
<text text-anchor="start" x="7.5" y="-37.8" font-family="Arial" font-size="8.00">+ Size () : Integer</text>
<text text-anchor="start" x="7.5" y="-27.8" font-family="Arial" font-size="8.00">+ GetEnumerator () : IEnumerator</text>
<text text-anchor="start" x="7.5" y="-17.8" font-family="Arial" font-size="8.00">+ Menu (Knot3&#45;Entwurf::GameScreen screen, Knot3&#45;Entwurf::DisplayLayer drawOrder) :</text>
<text text-anchor="start" x="7.5" y="-7.8" font-family="Arial" font-size="8.00">void</text>
</g>
<!-- Box_Widget -->
<g id="node2" class="node"><title>Box_Widget</title>
<polygon fill="#ffffff" stroke="black" points="149.5,-203 149.5,-221 190.5,-221 190.5,-203 149.5,-203"/>
<text text-anchor="middle" x="170" y="-209.8" font-family="Arial" font-size="8.00">Widget</text>
</g>
<!-- Box_Widget&#45;&gt;Box_Menu -->
<g id="edge2" class="edge"><title>Box_Widget&#45;&gt;Box_Menu</title>
<path fill="none" stroke="midnightblue" d="M170,-192.452C170,-184.726 170,-175.288 170,-165.226"/>
<polygon fill="none" stroke="midnightblue" points="166.5,-192.723 170,-202.723 173.5,-192.723 166.5,-192.723"/>
</g>
</g>
</svg>
