<?xml version="1.0" encoding="UTF-8" standalone="no"?>
<!DOCTYPE svg PUBLIC "-//W3C//DTD SVG 1.1//EN"
 "http://www.w3.org/Graphics/SVG/1.1/DTD/svg11.dtd">
<!-- Generated by graphviz version 2.26.3 (20100126.1600)
 -->
<!-- Title: MenuItem Pages: 1 -->
<svg width="366pt" height="130pt"
 viewBox="0.00 0.00 366.00 130.00" xmlns="http://www.w3.org/2000/svg" xmlns:xlink="http://www.w3.org/1999/xlink">
<g id="graph1" class="graph" transform="scale(1 1) rotate(0) translate(4 126)">
<title>MenuItem</title>
<polygon fill="white" stroke="white" points="-4,5 -4,-126 363,-126 363,5 -4,5"/>
<!-- Box_MenuButton -->
<g id="node1" class="node"><title>Box_MenuButton</title>
<polygon fill="#ffffff" stroke="black" points="-0.5,-1 -0.5,-65 358.5,-65 358.5,-1 -0.5,-1"/>
<text text-anchor="middle" x="179" y="-53.8" font-family="Arial" font-size="8.00">MenuButton</text>
<polyline fill="none" stroke="black" points="-0.5,-47 358.5,-47 "/>
<text text-anchor="start" x="7.5" y="-35.8" font-family="Arial" font-size="8.00">+ OnClick : Action</text>
<polyline fill="none" stroke="black" points="-0.5,-29 358.5,-29 "/>
<text text-anchor="start" x="7.5" y="-17.8" font-family="Arial" font-size="8.00">+ MenuButton (Knot3&#45;Entwurf::GameScreen screen, Knot3&#45;Entwurf::DisplayLayer drawOrder,</text>
<text text-anchor="start" x="7.5" y="-7.8" font-family="Arial" font-size="8.00">String name, Action onClick) : void</text>
</g>
<!-- Box_MenuItem -->
<g id="node2" class="node"><title>Box_MenuItem</title>
<polygon fill="#ffffff" stroke="black" points="154,-103 154,-121 204,-121 204,-103 154,-103"/>
<text text-anchor="middle" x="179" y="-109.8" font-family="Arial" font-size="8.00">MenuItem</text>
</g>
<!-- Box_MenuItem&#45;&gt;Box_MenuButton -->
<g id="edge2" class="edge"><title>Box_MenuItem&#45;&gt;Box_MenuButton</title>
<path fill="none" stroke="midnightblue" d="M179,-92.8318C179,-84.5161 179,-74.5476 179,-65.1537"/>
<polygon fill="none" stroke="midnightblue" points="175.5,-92.9377 179,-102.938 182.5,-92.9377 175.5,-92.9377"/>
</g>
</g>
</svg>
