<?xml version="1.0" encoding="UTF-8" standalone="no"?>
<!DOCTYPE svg PUBLIC "-//W3C//DTD SVG 1.1//EN"
 "http://www.w3.org/Graphics/SVG/1.1/DTD/svg11.dtd">
<!-- Generated by graphviz version 2.26.3 (20100126.1600)
 -->
<!-- Title: MenuItem Pages: 1 -->
<svg width="376pt" height="120pt"
 viewBox="0.00 0.00 376.00 120.00" xmlns="http://www.w3.org/2000/svg" xmlns:xlink="http://www.w3.org/1999/xlink">
<g id="graph1" class="graph" transform="scale(1 1) rotate(0) translate(4 116)">
<title>MenuItem</title>
<polygon fill="white" stroke="white" points="-4,5 -4,-116 373,-116 373,5 -4,5"/>
<!-- Box_MenuButton -->
<g id="node1" class="node"><title>Box_MenuButton</title>
<polygon fill="#ffffff" stroke="black" points="0,-1 0,-55 368,-55 368,-1 0,-1"/>
<text text-anchor="middle" x="184" y="-43.8" font-family="Arial" font-size="8.00">MenuButton</text>
<polyline fill="none" stroke="black" points="0,-37 368,-37 "/>
<text text-anchor="start" x="8" y="-25.8" font-family="Arial" font-size="8.00">+ OnClick : Action</text>
<polyline fill="none" stroke="black" points="0,-19 368,-19 "/>
<text text-anchor="start" x="8" y="-7.8" font-family="Arial" font-size="8.00">+ MenuButton (GameScreen screen, DisplayLayer drawOrder, String name, Action onClick) : void</text>
</g>
<!-- Box_MenuItem -->
<g id="node2" class="node"><title>Box_MenuItem</title>
<polygon fill="#ffffff" stroke="black" points="159,-93 159,-111 209,-111 209,-93 159,-93"/>
<text text-anchor="middle" x="184" y="-99.8" font-family="Arial" font-size="8.00">MenuItem</text>
</g>
<!-- Box_MenuItem&#45;&gt;Box_MenuButton -->
<g id="edge2" class="edge"><title>Box_MenuItem&#45;&gt;Box_MenuButton</title>
<path fill="none" stroke="midnightblue" d="M184,-82.6404C184,-74.1998 184,-64.1602 184,-55.0036"/>
<polygon fill="none" stroke="midnightblue" points="180.5,-82.9261 184,-92.9261 187.5,-82.9262 180.5,-82.9261"/>
</g>
</g>
</svg>
