<?xml version="1.0" encoding="UTF-8" standalone="no"?>
<!DOCTYPE svg PUBLIC "-//W3C//DTD SVG 1.1//EN"
 "http://www.w3.org/Graphics/SVG/1.1/DTD/svg11.dtd">
<!-- Generated by graphviz version 2.26.3 (20100126.1600)
 -->
<!-- Title: MenuItem Pages: 1 -->
<svg width="140pt" height="120pt"
 viewBox="0.00 0.00 140.00 120.00" xmlns="http://www.w3.org/2000/svg" xmlns:xlink="http://www.w3.org/1999/xlink">
<g id="graph1" class="graph" transform="scale(1 1) rotate(0) translate(4 116)">
<title>MenuItem</title>
<polygon fill="white" stroke="white" points="-4,5 -4,-116 137,-116 137,5 -4,5"/>
<!-- Box_ModelMouseHandler -->
<g id="node1" class="node"><title>Box_ModelMouseHandler</title>
<polygon fill="#ffffff" stroke="black" points="-0.5,-1 -0.5,-55 132.5,-55 132.5,-1 -0.5,-1"/>
<text text-anchor="middle" x="66" y="-43.8" font-family="Arial" font-size="8.00">ModelMouseHandler</text>
<polyline fill="none" stroke="black" points="-0.5,-37 132.5,-37 "/>
<text text-anchor="middle" x="66" y="-25.8" font-family="Arial" font-size="8.00"> </text>
<polyline fill="none" stroke="black" points="-0.5,-19 132.5,-19 "/>
<text text-anchor="start" x="7.5" y="-7.8" font-family="Arial" font-size="8.00">+ Update (GameTime time) : void</text>
</g>
<!-- Box_GameScreenComponent -->
<g id="node2" class="node"><title>Box_GameScreenComponent</title>
<polygon fill="#ffffff" stroke="black" points="14,-93 14,-111 118,-111 118,-93 14,-93"/>
<text text-anchor="middle" x="66" y="-99.8" font-family="Arial" font-size="8.00">GameScreenComponent</text>
</g>
<!-- Box_GameScreenComponent&#45;&gt;Box_ModelMouseHandler -->
<g id="edge2" class="edge"><title>Box_GameScreenComponent&#45;&gt;Box_ModelMouseHandler</title>
<path fill="none" stroke="midnightblue" d="M66,-82.6404C66,-74.1998 66,-64.1602 66,-55.0036"/>
<polygon fill="none" stroke="midnightblue" points="62.5001,-82.9261 66,-92.9261 69.5001,-82.9262 62.5001,-82.9261"/>
</g>
</g>
</svg>
