<?xml version="1.0" encoding="UTF-8" standalone="no"?>
<!DOCTYPE svg PUBLIC "-//W3C//DTD SVG 1.1//EN"
 "http://www.w3.org/Graphics/SVG/1.1/DTD/svg11.dtd">
<!-- Generated by graphviz version 2.26.3 (20100126.1600)
 -->
<!-- Title: MenuItem Pages: 1 -->
<svg width="220pt" height="150pt"
 viewBox="0.00 0.00 220.00 150.00" xmlns="http://www.w3.org/2000/svg" xmlns:xlink="http://www.w3.org/1999/xlink">
<g id="graph1" class="graph" transform="scale(1 1) rotate(0) translate(4 146)">
<title>MenuItem</title>
<polygon fill="white" stroke="white" points="-4,5 -4,-146 217,-146 217,5 -4,5"/>
<!-- Box_NodeModelInfo -->
<g id="node1" class="node"><title>Box_NodeModelInfo</title>
<polygon fill="#ffffff" stroke="black" points="-0.5,-1 -0.5,-85 212.5,-85 212.5,-1 -0.5,-1"/>
<text text-anchor="middle" x="106" y="-73.8" font-family="Arial" font-size="8.00">NodeModelInfo</text>
<polyline fill="none" stroke="black" points="-0.5,-67 212.5,-67 "/>
<text text-anchor="start" x="7.5" y="-55.8" font-family="Arial" font-size="8.00">+ EdgeFrom : Edge</text>
<text text-anchor="start" x="7.5" y="-45.8" font-family="Arial" font-size="8.00">+ EdgeTo : Edge</text>
<text text-anchor="start" x="7.5" y="-35.8" font-family="Arial" font-size="8.00">+ Knot : Knot</text>
<text text-anchor="start" x="7.5" y="-25.8" font-family="Arial" font-size="8.00">+ Position : Vector3</text>
<polyline fill="none" stroke="black" points="-0.5,-19 212.5,-19 "/>
<text text-anchor="start" x="7.5" y="-7.8" font-family="Arial" font-size="8.00">+ NodeModelInfo (Knot knot, Edge from, Edge to) : void</text>
</g>
<!-- Box_GameModelInfo -->
<g id="node2" class="node"><title>Box_GameModelInfo</title>
<polygon fill="#ffffff" stroke="black" points="31,-123 31,-141 103,-141 103,-123 31,-123"/>
<text text-anchor="middle" x="67" y="-129.8" font-family="Arial" font-size="8.00">GameModelInfo</text>
</g>
<!-- Box_GameModelInfo&#45;&gt;Box_NodeModelInfo -->
<g id="edge2" class="edge"><title>Box_GameModelInfo&#45;&gt;Box_NodeModelInfo</title>
<path fill="none" stroke="midnightblue" d="M75.128,-113.452C78.7596,-105.164 83.2001,-95.0305 87.5689,-85.0607"/>
<polygon fill="none" stroke="midnightblue" points="71.8347,-112.247 71.0268,-122.811 78.2462,-115.056 71.8347,-112.247"/>
</g>
<!-- Box_IJunction -->
<g id="node3" class="node"><title>Box_IJunction</title>
<polygon fill="#ffffff" stroke="black" points="121,-123 121,-141 169,-141 169,-123 121,-123"/>
<text text-anchor="middle" x="145" y="-129.8" font-family="Arial" font-size="8.00">IJunction</text>
</g>
<!-- Box_IJunction&#45;&gt;Box_NodeModelInfo -->
<g id="edge4" class="edge"><title>Box_IJunction&#45;&gt;Box_NodeModelInfo</title>
<path fill="none" stroke="midnightblue" d="M136.872,-113.452C133.24,-105.164 128.8,-95.0305 124.431,-85.0607"/>
<polygon fill="none" stroke="midnightblue" points="133.754,-115.056 140.973,-122.811 140.165,-112.247 133.754,-115.056"/>
</g>
</g>
</svg>
