<?xml version="1.0" encoding="UTF-8" standalone="no"?>
<!DOCTYPE svg PUBLIC "-//W3C//DTD SVG 1.1//EN"
 "http://www.w3.org/Graphics/SVG/1.1/DTD/svg11.dtd">
<!-- Generated by graphviz version 2.26.3 (20100126.1600)
 -->
<!-- Title: MenuItem Pages: 1 -->
<svg width="132pt" height="120pt"
 viewBox="0.00 0.00 132.00 120.00" xmlns="http://www.w3.org/2000/svg" xmlns:xlink="http://www.w3.org/1999/xlink">
<g id="graph1" class="graph" transform="scale(1 1) rotate(0) translate(4 116)">
<title>MenuItem</title>
<polygon fill="white" stroke="white" points="-4,5 -4,-116 129,-116 129,5 -4,5"/>
<!-- Box_PauseDialog -->
<g id="node1" class="node"><title>Box_PauseDialog</title>
<polygon fill="#ffffff" stroke="black" points="0,-1 0,-55 124,-55 124,-1 0,-1"/>
<text text-anchor="middle" x="62" y="-43.8" font-family="Arial" font-size="8.00">PauseDialog</text>
<polyline fill="none" stroke="black" points="0,-37 124,-37 "/>
<text text-anchor="start" x="8" y="-25.8" font-family="Arial" font-size="8.00">&#45; pauseMenu : Knot3&#45;Entwurf</text>
<polyline fill="none" stroke="black" points="0,-19 124,-19 "/>
<text text-anchor="middle" x="62" y="-7.8" font-family="Arial" font-size="8.00"> </text>
</g>
<!-- Box_Dialog -->
<g id="node2" class="node"><title>Box_Dialog</title>
<polygon fill="#ffffff" stroke="black" points="43,-93 43,-111 81,-111 81,-93 43,-93"/>
<text text-anchor="middle" x="62" y="-99.8" font-family="Arial" font-size="8.00">Dialog</text>
</g>
<!-- Box_Dialog&#45;&gt;Box_PauseDialog -->
<g id="edge2" class="edge"><title>Box_Dialog&#45;&gt;Box_PauseDialog</title>
<path fill="none" stroke="midnightblue" d="M62,-82.6404C62,-74.1998 62,-64.1602 62,-55.0036"/>
<polygon fill="none" stroke="midnightblue" points="58.5001,-82.9261 62,-92.9261 65.5001,-82.9262 58.5001,-82.9261"/>
</g>
</g>
</svg>
