<?xml version="1.0" encoding="UTF-8" standalone="no"?>
<!DOCTYPE svg PUBLIC "-//W3C//DTD SVG 1.1//EN"
 "http://www.w3.org/Graphics/SVG/1.1/DTD/svg11.dtd">
<!-- Generated by graphviz version 2.26.3 (20100126.1600)
 -->
<!-- Title: MenuItem Pages: 1 -->
<svg width="302pt" height="150pt"
 viewBox="0.00 0.00 302.00 150.00" xmlns="http://www.w3.org/2000/svg" xmlns:xlink="http://www.w3.org/1999/xlink">
<g id="graph1" class="graph" transform="scale(1 1) rotate(0) translate(4 146)">
<title>MenuItem</title>
<polygon fill="white" stroke="white" points="-4,5 -4,-146 299,-146 299,5 -4,5"/>
<!-- Box_PipeModelInfo -->
<g id="node1" class="node"><title>Box_PipeModelInfo</title>
<polygon fill="#ffffff" stroke="black" points="-0.5,-1 -0.5,-85 294.5,-85 294.5,-1 -0.5,-1"/>
<text text-anchor="middle" x="147" y="-73.8" font-family="Arial" font-size="8.00">PipeModelInfo</text>
<polyline fill="none" stroke="black" points="-0.5,-67 294.5,-67 "/>
<text text-anchor="start" x="7.5" y="-55.8" font-family="Arial" font-size="8.00">+ Edge : Knot3&#45;Entwurf</text>
<text text-anchor="start" x="7.5" y="-45.8" font-family="Arial" font-size="8.00">+ Knot : Knot3&#45;Entwurf</text>
<text text-anchor="start" x="7.5" y="-35.8" font-family="Arial" font-size="8.00">+ PositionFrom : Vector3</text>
<text text-anchor="start" x="7.5" y="-25.8" font-family="Arial" font-size="8.00">+ PositionTo : Vector3</text>
<polyline fill="none" stroke="black" points="-0.5,-19 294.5,-19 "/>
<text text-anchor="start" x="7.5" y="-7.8" font-family="Arial" font-size="8.00">+ PipeModelInfo (Knot3&#45;Entwurf::Knot knot, Knot3&#45;Entwurf::Edge edge) : void</text>
</g>
<!-- Box_GameModelInfo -->
<g id="node2" class="node"><title>Box_GameModelInfo</title>
<polygon fill="#ffffff" stroke="black" points="111,-123 111,-141 183,-141 183,-123 111,-123"/>
<text text-anchor="middle" x="147" y="-129.8" font-family="Arial" font-size="8.00">GameModelInfo</text>
</g>
<!-- Box_GameModelInfo&#45;&gt;Box_PipeModelInfo -->
<g id="edge2" class="edge"><title>Box_GameModelInfo&#45;&gt;Box_PipeModelInfo</title>
<path fill="none" stroke="midnightblue" d="M147,-112.617C147,-104.489 147,-94.6982 147,-85.0607"/>
<polygon fill="none" stroke="midnightblue" points="143.5,-112.811 147,-122.811 150.5,-112.811 143.5,-112.811"/>
</g>
</g>
</svg>
