<?xml version="1.0" encoding="UTF-8" standalone="no"?>
<!DOCTYPE svg PUBLIC "-//W3C//DTD SVG 1.1//EN"
 "http://www.w3.org/Graphics/SVG/1.1/DTD/svg11.dtd">
<!-- Generated by graphviz version 2.26.3 (20100126.1600)
 -->
<!-- Title: MenuItem Pages: 1 -->
<svg width="358pt" height="130pt"
 viewBox="0.00 0.00 358.00 130.00" xmlns="http://www.w3.org/2000/svg" xmlns:xlink="http://www.w3.org/1999/xlink">
<g id="graph1" class="graph" transform="scale(1 1) rotate(0) translate(4 126)">
<title>MenuItem</title>
<polygon fill="white" stroke="white" points="-4,5 -4,-126 355,-126 355,5 -4,5"/>
<!-- Box_PipeModel -->
<g id="node1" class="node"><title>Box_PipeModel</title>
<polygon fill="#ffffff" stroke="black" points="0,-1 0,-65 350,-65 350,-1 0,-1"/>
<text text-anchor="middle" x="175" y="-53.8" font-family="Arial" font-size="8.00">PipeModel</text>
<polyline fill="none" stroke="black" points="0,-47 350,-47 "/>
<text text-anchor="start" x="8" y="-35.8" font-family="Arial" font-size="8.00">+ Info : Knot3&#45;Entwurf</text>
<polyline fill="none" stroke="black" points="0,-29 350,-29 "/>
<text text-anchor="start" x="8" y="-17.8" font-family="Arial" font-size="8.00">+ Intersects (Ray ray) : GameObjectDistance</text>
<text text-anchor="start" x="8" y="-7.8" font-family="Arial" font-size="8.00">+ PipeModel (Knot3&#45;Entwurf::GameScreen screen, Knot3&#45;Entwurf::PipeModelInfo info) : void</text>
</g>
<!-- Box_GameModel -->
<g id="node2" class="node"><title>Box_GameModel</title>
<polygon fill="#ffffff" stroke="black" points="145.5,-103 145.5,-121 204.5,-121 204.5,-103 145.5,-103"/>
<text text-anchor="middle" x="175" y="-109.8" font-family="Arial" font-size="8.00">GameModel</text>
</g>
<!-- Box_GameModel&#45;&gt;Box_PipeModel -->
<g id="edge2" class="edge"><title>Box_GameModel&#45;&gt;Box_PipeModel</title>
<path fill="none" stroke="midnightblue" d="M175,-92.8318C175,-84.5161 175,-74.5476 175,-65.1537"/>
<polygon fill="none" stroke="midnightblue" points="171.5,-92.9377 175,-102.938 178.5,-92.9377 171.5,-92.9377"/>
</g>
</g>
</svg>
