<?xml version="1.0" encoding="UTF-8" standalone="no"?>
<!DOCTYPE svg PUBLIC "-//W3C//DTD SVG 1.1//EN"
 "http://www.w3.org/Graphics/SVG/1.1/DTD/svg11.dtd">
<!-- Generated by graphviz version 2.26.3 (20100126.1600)
 -->
<!-- Title: MenuItem Pages: 1 -->
<svg width="202pt" height="150pt"
 viewBox="0.00 0.00 202.00 150.00" xmlns="http://www.w3.org/2000/svg" xmlns:xlink="http://www.w3.org/1999/xlink">
<g id="graph1" class="graph" transform="scale(1 1) rotate(0) translate(4 146)">
<title>MenuItem</title>
<polygon fill="white" stroke="white" points="-4,5 -4,-146 199,-146 199,5 -4,5"/>
<!-- Box_PrinterIO -->
<g id="node1" class="node"><title>Box_PrinterIO</title>
<polygon fill="#ffffff" stroke="black" points="0,-1 0,-85 194,-85 194,-1 0,-1"/>
<text text-anchor="middle" x="97" y="-73.8" font-family="Arial" font-size="8.00">PrinterIO</text>
<polyline fill="none" stroke="black" points="0,-67 194,-67 "/>
<text text-anchor="start" x="8" y="-55.8" font-family="Arial" font-size="8.00">+ FileExtensions : IEnumerable&lt;string&gt;</text>
<polyline fill="none" stroke="black" points="0,-49 194,-49 "/>
<text text-anchor="start" x="8" y="-37.8" font-family="Arial" font-size="8.00">+ PrinterIO () : void</text>
<text text-anchor="start" x="8" y="-27.8" font-family="Arial" font-size="8.00">+ Save (Knot knot) : void</text>
<text text-anchor="start" x="8" y="-17.8" font-family="Arial" font-size="8.00">+ Load (String filename) : Knot</text>
<text text-anchor="start" x="8" y="-7.8" font-family="Arial" font-size="8.00">+ LoadMetaData (String filename) : KnotMetaData</text>
</g>
<!-- Box_IKnotIO -->
<g id="node2" class="node"><title>Box_IKnotIO</title>
<polygon fill="#ffffff" stroke="black" points="76,-123 76,-141 118,-141 118,-123 76,-123"/>
<text text-anchor="middle" x="97" y="-129.8" font-family="Arial" font-size="8.00">IKnotIO</text>
</g>
<!-- Box_IKnotIO&#45;&gt;Box_PrinterIO -->
<g id="edge2" class="edge"><title>Box_IKnotIO&#45;&gt;Box_PrinterIO</title>
<path fill="none" stroke="midnightblue" d="M97,-112.617C97,-104.489 97,-94.6982 97,-85.0607"/>
<polygon fill="none" stroke="midnightblue" points="93.5001,-112.811 97,-122.811 100.5,-112.811 93.5001,-112.811"/>
</g>
</g>
</svg>
