<?xml version="1.0" encoding="UTF-8" standalone="no"?>
<!DOCTYPE svg PUBLIC "-//W3C//DTD SVG 1.1//EN"
 "http://www.w3.org/Graphics/SVG/1.1/DTD/svg11.dtd">
<!-- Generated by graphviz version 2.26.3 (20100126.1600)
 -->
<!-- Title: MenuItem Pages: 1 -->
<svg width="336pt" height="140pt"
 viewBox="0.00 0.00 336.00 140.00" xmlns="http://www.w3.org/2000/svg" xmlns:xlink="http://www.w3.org/1999/xlink">
<g id="graph1" class="graph" transform="scale(1 1) rotate(0) translate(4 136)">
<title>MenuItem</title>
<polygon fill="white" stroke="white" points="-4,5 -4,-136 333,-136 333,5 -4,5"/>
<!-- Box_ProfileSettingsScreen -->
<g id="node1" class="node"><title>Box_ProfileSettingsScreen</title>
<polygon fill="#ffffff" stroke="black" points="0,-1 0,-75 328,-75 328,-1 0,-1"/>
<text text-anchor="middle" x="164" y="-63.8" font-family="Arial" font-size="8.00">ProfileSettingsScreen</text>
<polyline fill="none" stroke="black" points="0,-57 328,-57 "/>
<text text-anchor="start" x="8" y="-45.8" font-family="Arial" font-size="8.00">&#45; settingsMenu : VerticalMenu</text>
<polyline fill="none" stroke="black" points="0,-39 328,-39 "/>
<text text-anchor="start" x="8" y="-27.8" font-family="Arial" font-size="8.00">+ Update (GameTime time) : void</text>
<text text-anchor="start" x="8" y="-17.8" font-family="Arial" font-size="8.00">+ Entered (Knot3&#45;Entwurf::GameScreen previousScreen, GameTime GameTime) : void</text>
<text text-anchor="start" x="8" y="-7.8" font-family="Arial" font-size="8.00">+ ProfileSettingsScreen (ModelingProject1::Knot3Game game) : void</text>
</g>
<!-- Box_SettingsScreen -->
<g id="node2" class="node"><title>Box_SettingsScreen</title>
<polygon fill="#ffffff" stroke="black" points="128,-113 128,-131 200,-131 200,-113 128,-113"/>
<text text-anchor="middle" x="164" y="-119.8" font-family="Arial" font-size="8.00">SettingsScreen</text>
</g>
<!-- Box_SettingsScreen&#45;&gt;Box_ProfileSettingsScreen -->
<g id="edge2" class="edge"><title>Box_SettingsScreen&#45;&gt;Box_ProfileSettingsScreen</title>
<path fill="none" stroke="midnightblue" d="M164,-102.442C164,-94.3016 164,-84.5681 164,-75.1627"/>
<polygon fill="none" stroke="midnightblue" points="160.5,-102.69 164,-112.69 167.5,-102.69 160.5,-102.69"/>
</g>
</g>
</svg>
