<?xml version="1.0" encoding="UTF-8" standalone="no"?>
<!DOCTYPE svg PUBLIC "-//W3C//DTD SVG 1.1//EN"
 "http://www.w3.org/Graphics/SVG/1.1/DTD/svg11.dtd">
<!-- Generated by graphviz version 2.26.3 (20100126.1600)
 -->
<!-- Title: MenuItem Pages: 1 -->
<svg width="254pt" height="130pt"
 viewBox="0.00 0.00 254.00 130.00" xmlns="http://www.w3.org/2000/svg" xmlns:xlink="http://www.w3.org/1999/xlink">
<g id="graph1" class="graph" transform="scale(1 1) rotate(0) translate(4 126)">
<title>MenuItem</title>
<polygon fill="white" stroke="white" points="-4,5 -4,-126 251,-126 251,5 -4,5"/>
<!-- Box_ScreensSettingsScreen -->
<g id="node1" class="node"><title>Box_ScreensSettingsScreen</title>
<polygon fill="#ffffff" stroke="black" points="-0.5,-1 -0.5,-65 246.5,-65 246.5,-1 -0.5,-1"/>
<text text-anchor="middle" x="123" y="-53.8" font-family="Arial" font-size="8.00">Screens.SettingsScreen</text>
<polyline fill="none" stroke="black" points="-0.5,-47 246.5,-47 "/>
<text text-anchor="start" x="7.5" y="-35.8" font-family="Arial" font-size="8.00"># navigation : void</text>
<polyline fill="none" stroke="black" points="-0.5,-29 246.5,-29 "/>
<text text-anchor="start" x="7.5" y="-17.8" font-family="Arial" font-size="8.00">+ Update (GameTime time) : void</text>
<text text-anchor="start" x="7.5" y="-7.8" font-family="Arial" font-size="8.00">+ Entered (GameScreen previousScreen, GameTime time) : void</text>
</g>
<!-- Box_MenuScreen -->
<g id="node2" class="node"><title>Box_MenuScreen</title>
<polygon fill="#ffffff" stroke="black" points="92,-103 92,-121 154,-121 154,-103 92,-103"/>
<text text-anchor="middle" x="123" y="-109.8" font-family="Arial" font-size="8.00">MenuScreen</text>
</g>
<!-- Box_MenuScreen&#45;&gt;Box_ScreensSettingsScreen -->
<g id="edge2" class="edge"><title>Box_MenuScreen&#45;&gt;Box_ScreensSettingsScreen</title>
<path fill="none" stroke="midnightblue" d="M123,-92.8318C123,-84.5161 123,-74.5476 123,-65.1537"/>
<polygon fill="none" stroke="midnightblue" points="119.5,-92.9377 123,-102.938 126.5,-92.9377 119.5,-92.9377"/>
</g>
</g>
</svg>
