<?xml version="1.0" encoding="UTF-8" standalone="no"?>
<!DOCTYPE svg PUBLIC "-//W3C//DTD SVG 1.1//EN"
 "http://www.w3.org/Graphics/SVG/1.1/DTD/svg11.dtd">
<!-- Generated by graphviz version 2.26.3 (20100126.1600)
 -->
<!-- Title: MenuItem Pages: 1 -->
<svg width="278pt" height="210pt"
 viewBox="0.00 0.00 278.00 210.00" xmlns="http://www.w3.org/2000/svg" xmlns:xlink="http://www.w3.org/1999/xlink">
<g id="graph1" class="graph" transform="scale(1 1) rotate(0) translate(4 206)">
<title>MenuItem</title>
<polygon fill="white" stroke="white" points="-4,5 -4,-206 275,-206 275,5 -4,5"/>
<!-- Box_ScreensChallengeModeScreen -->
<g id="node1" class="node"><title>Box_ScreensChallengeModeScreen</title>
<polygon fill="#ffffff" stroke="black" points="0,-1 0,-145 270,-145 270,-1 0,-1"/>
<text text-anchor="middle" x="135" y="-133.8" font-family="Arial" font-size="8.00">Screens.ChallengeModeScreen</text>
<polyline fill="none" stroke="black" points="0,-127 270,-127 "/>
<text text-anchor="start" x="8" y="-115.8" font-family="Arial" font-size="8.00">+ PlayerKnot : void</text>
<text text-anchor="start" x="8" y="-105.8" font-family="Arial" font-size="8.00">+ ChallengeKnot : void</text>
<text text-anchor="start" x="8" y="-95.8" font-family="Arial" font-size="8.00">&#45; ChallengeWorld : World</text>
<text text-anchor="start" x="8" y="-85.8" font-family="Arial" font-size="8.00">&#45; PlayerWorld : World</text>
<text text-anchor="start" x="8" y="-75.8" font-family="Arial" font-size="8.00">&#45; ChallengeKnotRenderer : KnotRenderer</text>
<text text-anchor="start" x="8" y="-65.8" font-family="Arial" font-size="8.00">&#45; PlayerKnotRenderer : KnotRenderer</text>
<text text-anchor="start" x="8" y="-55.8" font-family="Arial" font-size="8.00">&#45; PlayerKnotMovement : PipeMovement</text>
<text text-anchor="start" x="8" y="-45.8" font-family="Arial" font-size="8.00">+ Undo : Stack&lt;Knot&gt;</text>
<text text-anchor="start" x="8" y="-35.8" font-family="Arial" font-size="8.00">+ Redo : Stack&lt;Knot&gt;</text>
<polyline fill="none" stroke="black" points="0,-29 270,-29 "/>
<text text-anchor="start" x="8" y="-17.8" font-family="Arial" font-size="8.00">+ Update (GameTime time) : void</text>
<text text-anchor="start" x="8" y="-7.8" font-family="Arial" font-size="8.00">+ Entered (GameScreen previousScreen, GameTime GameTime) : void</text>
</g>
<!-- Box_GameScreen -->
<g id="node2" class="node"><title>Box_GameScreen</title>
<polygon fill="#ffffff" stroke="black" points="103,-183 103,-201 167,-201 167,-183 103,-183"/>
<text text-anchor="middle" x="135" y="-189.8" font-family="Arial" font-size="8.00">GameScreen</text>
</g>
<!-- Box_GameScreen&#45;&gt;Box_ScreensChallengeModeScreen -->
<g id="edge2" class="edge"><title>Box_GameScreen&#45;&gt;Box_ScreensChallengeModeScreen</title>
<path fill="none" stroke="midnightblue" d="M135,-172.561C135,-164.724 135,-155.154 135,-145.08"/>
<polygon fill="none" stroke="midnightblue" points="131.5,-172.662 135,-182.662 138.5,-172.662 131.5,-172.662"/>
</g>
</g>
</svg>
