<?xml version="1.0" encoding="UTF-8" standalone="no"?>
<!DOCTYPE svg PUBLIC "-//W3C//DTD SVG 1.1//EN"
 "http://www.w3.org/Graphics/SVG/1.1/DTD/svg11.dtd">
<!-- Generated by graphviz version 2.26.3 (20100126.1600)
 -->
<!-- Title: MenuItem Pages: 1 -->
<svg width="404pt" height="150pt"
 viewBox="0.00 0.00 404.00 150.00" xmlns="http://www.w3.org/2000/svg" xmlns:xlink="http://www.w3.org/1999/xlink">
<g id="graph1" class="graph" transform="scale(1 1) rotate(0) translate(4 146)">
<title>MenuItem</title>
<polygon fill="white" stroke="white" points="-4,5 -4,-146 401,-146 401,5 -4,5"/>
<!-- Box_ShadowGameModel -->
<g id="node1" class="node"><title>Box_ShadowGameModel</title>
<polygon fill="#ffffff" stroke="black" points="-0.5,-1 -0.5,-85 396.5,-85 396.5,-1 -0.5,-1"/>
<text text-anchor="middle" x="198" y="-73.8" font-family="Arial" font-size="8.00">ShadowGameModel</text>
<polyline fill="none" stroke="black" points="-0.5,-67 396.5,-67 "/>
<text text-anchor="start" x="7.5" y="-55.8" font-family="Arial" font-size="8.00">+ ShadowColor : Color</text>
<text text-anchor="start" x="7.5" y="-45.8" font-family="Arial" font-size="8.00">+ ShadowAlpha : float</text>
<polyline fill="none" stroke="black" points="-0.5,-39 396.5,-39 "/>
<text text-anchor="start" x="7.5" y="-27.8" font-family="Arial" font-size="8.00">+ ShadowGameModel (Knot3&#45;Entwurf::GameScreen sreen, Knot3&#45;Entwurf::GameModel decoratedModel)</text>
<text text-anchor="start" x="7.5" y="-17.8" font-family="Arial" font-size="8.00">: void</text>
<text text-anchor="start" x="7.5" y="-7.8" font-family="Arial" font-size="8.00">+ Draw (GameTime GameTime) : void</text>
</g>
<!-- Box_ShadowGameObject -->
<g id="node2" class="node"><title>Box_ShadowGameObject</title>
<polygon fill="#ffffff" stroke="black" points="152,-123 152,-141 244,-141 244,-123 152,-123"/>
<text text-anchor="middle" x="198" y="-129.8" font-family="Arial" font-size="8.00">ShadowGameObject</text>
</g>
<!-- Box_ShadowGameObject&#45;&gt;Box_ShadowGameModel -->
<g id="edge2" class="edge"><title>Box_ShadowGameObject&#45;&gt;Box_ShadowGameModel</title>
<path fill="none" stroke="midnightblue" d="M198,-112.617C198,-104.489 198,-94.6982 198,-85.0607"/>
<polygon fill="none" stroke="midnightblue" points="194.5,-112.811 198,-122.811 201.5,-112.811 194.5,-112.811"/>
</g>
</g>
</svg>
