<?xml version="1.0" encoding="UTF-8" standalone="no"?>
<!DOCTYPE svg PUBLIC "-//W3C//DTD SVG 1.1//EN"
 "http://www.w3.org/Graphics/SVG/1.1/DTD/svg11.dtd">
<!-- Generated by graphviz version 2.26.3 (20100126.1600)
 -->
<!-- Title: MenuItem Pages: 1 -->
<svg width="310pt" height="140pt"
 viewBox="0.00 0.00 310.00 140.00" xmlns="http://www.w3.org/2000/svg" xmlns:xlink="http://www.w3.org/1999/xlink">
<g id="graph1" class="graph" transform="scale(1 1) rotate(0) translate(4 136)">
<title>MenuItem</title>
<polygon fill="white" stroke="white" points="-4,5 -4,-136 307,-136 307,5 -4,5"/>
<!-- Box_ShadowGameModel -->
<g id="node1" class="node"><title>Box_ShadowGameModel</title>
<polygon fill="#ffffff" stroke="black" points="-0.5,-1 -0.5,-75 302.5,-75 302.5,-1 -0.5,-1"/>
<text text-anchor="middle" x="151" y="-63.8" font-family="Arial" font-size="8.00">ShadowGameModel</text>
<polyline fill="none" stroke="black" points="-0.5,-57 302.5,-57 "/>
<text text-anchor="start" x="7.5" y="-45.8" font-family="Arial" font-size="8.00">+ ShadowColor : Color</text>
<text text-anchor="start" x="7.5" y="-35.8" font-family="Arial" font-size="8.00">+ ShadowAlpha : float</text>
<polyline fill="none" stroke="black" points="-0.5,-29 302.5,-29 "/>
<text text-anchor="start" x="7.5" y="-17.8" font-family="Arial" font-size="8.00">+ ShadowGameModel (GameScreen sreen, GameModel decoratedModel) : void</text>
<text text-anchor="start" x="7.5" y="-7.8" font-family="Arial" font-size="8.00">+ Draw (GameTime GameTime) : void</text>
</g>
<!-- Box_ShadowGameObject -->
<g id="node2" class="node"><title>Box_ShadowGameObject</title>
<polygon fill="#ffffff" stroke="black" points="105,-113 105,-131 197,-131 197,-113 105,-113"/>
<text text-anchor="middle" x="151" y="-119.8" font-family="Arial" font-size="8.00">ShadowGameObject</text>
</g>
<!-- Box_ShadowGameObject&#45;&gt;Box_ShadowGameModel -->
<g id="edge2" class="edge"><title>Box_ShadowGameObject&#45;&gt;Box_ShadowGameModel</title>
<path fill="none" stroke="midnightblue" d="M151,-102.442C151,-94.3016 151,-84.5681 151,-75.1627"/>
<polygon fill="none" stroke="midnightblue" points="147.5,-102.69 151,-112.69 154.5,-102.69 147.5,-102.69"/>
</g>
</g>
</svg>
