<?xml version="1.0" encoding="UTF-8" standalone="no"?>
<!DOCTYPE svg PUBLIC "-//W3C//DTD SVG 1.1//EN"
 "http://www.w3.org/Graphics/SVG/1.1/DTD/svg11.dtd">
<!-- Generated by graphviz version 2.26.3 (20100126.1600)
 -->
<!-- Title: MenuItem Pages: 1 -->
<svg width="312pt" height="190pt"
 viewBox="0.00 0.00 312.00 190.00" xmlns="http://www.w3.org/2000/svg" xmlns:xlink="http://www.w3.org/1999/xlink">
<g id="graph1" class="graph" transform="scale(1 1) rotate(0) translate(4 186)">
<title>MenuItem</title>
<polygon fill="white" stroke="white" points="-4,5 -4,-186 309,-186 309,5 -4,5"/>
<!-- Box_ShadowGameObject -->
<g id="node1" class="node"><title>Box_ShadowGameObject</title>
<polygon fill="#ffffff" stroke="black" points="-0.5,-1 -0.5,-125 304.5,-125 304.5,-1 -0.5,-1"/>
<text text-anchor="middle" x="152" y="-113.8" font-family="Arial" font-size="8.00">ShadowGameObject</text>
<polyline fill="none" stroke="black" points="-0.5,-107 304.5,-107 "/>
<text text-anchor="start" x="7.5" y="-95.8" font-family="Arial" font-size="8.00">+ Info : GameObjectInfo</text>
<text text-anchor="start" x="7.5" y="-85.8" font-family="Arial" font-size="8.00">+ World : World</text>
<text text-anchor="start" x="7.5" y="-75.8" font-family="Arial" font-size="8.00">+ ShadowPosition : Vector3</text>
<text text-anchor="start" x="7.5" y="-65.8" font-family="Arial" font-size="8.00">+ OriginalPosition : Vector3</text>
<polyline fill="none" stroke="black" points="-0.5,-59 304.5,-59 "/>
<text text-anchor="start" x="7.5" y="-47.8" font-family="Arial" font-size="8.00">+ Center () : Vector3</text>
<text text-anchor="start" x="7.5" y="-37.8" font-family="Arial" font-size="8.00">+ Update (GameTime GameTime) : void</text>
<text text-anchor="start" x="7.5" y="-27.8" font-family="Arial" font-size="8.00">+ Draw (GameTime GameTime) : void</text>
<text text-anchor="start" x="7.5" y="-17.8" font-family="Arial" font-size="8.00">+ Intersects (Ray Ray) : GameObjectDistance</text>
<text text-anchor="start" x="7.5" y="-7.8" font-family="Arial" font-size="8.00">+ ShadowGameObject (GameScreen screen, IGameObject decoratedObj) : void</text>
</g>
<!-- Box_IGameObject -->
<g id="node2" class="node"><title>Box_IGameObject</title>
<polygon fill="#ffffff" stroke="black" points="121,-163 121,-181 183,-181 183,-163 121,-163"/>
<text text-anchor="middle" x="152" y="-169.8" font-family="Arial" font-size="8.00">IGameObject</text>
</g>
<!-- Box_IGameObject&#45;&gt;Box_ShadowGameObject -->
<g id="edge2" class="edge"><title>Box_IGameObject&#45;&gt;Box_ShadowGameObject</title>
<path fill="none" stroke="midnightblue" d="M152,-152.506C152,-144.605 152,-135.001 152,-125.055"/>
<polygon fill="none" stroke="midnightblue" points="148.5,-152.707 152,-162.707 155.5,-152.707 148.5,-152.707"/>
</g>
</g>
</svg>
