<?xml version="1.0" encoding="UTF-8" standalone="no"?>
<!DOCTYPE svg PUBLIC "-//W3C//DTD SVG 1.1//EN"
 "http://www.w3.org/Graphics/SVG/1.1/DTD/svg11.dtd">
<!-- Generated by graphviz version 2.26.3 (20100126.1600)
 -->
<!-- Title: MenuItem Pages: 1 -->
<svg width="428pt" height="190pt"
 viewBox="0.00 0.00 428.00 190.00" xmlns="http://www.w3.org/2000/svg" xmlns:xlink="http://www.w3.org/1999/xlink">
<g id="graph1" class="graph" transform="scale(1 1) rotate(0) translate(4 186)">
<title>MenuItem</title>
<polygon fill="white" stroke="white" points="-4,5 -4,-186 425,-186 425,5 -4,5"/>
<!-- Box_ShadowGameObject -->
<g id="node1" class="node"><title>Box_ShadowGameObject</title>
<polygon fill="#ffffff" stroke="black" points="0,-1 0,-125 420,-125 420,-1 0,-1"/>
<text text-anchor="middle" x="210" y="-113.8" font-family="Arial" font-size="8.00">ShadowGameObject</text>
<polyline fill="none" stroke="black" points="0,-107 420,-107 "/>
<text text-anchor="start" x="8" y="-95.8" font-family="Arial" font-size="8.00">+ Info : Knot3&#45;Entwurf</text>
<text text-anchor="start" x="8" y="-85.8" font-family="Arial" font-size="8.00">+ World : Knot3&#45;Entwurf</text>
<text text-anchor="start" x="8" y="-75.8" font-family="Arial" font-size="8.00">+ ShadowPosition : Vector3</text>
<text text-anchor="start" x="8" y="-65.8" font-family="Arial" font-size="8.00">+ OriginalPosition : Vector3</text>
<polyline fill="none" stroke="black" points="0,-59 420,-59 "/>
<text text-anchor="start" x="8" y="-47.8" font-family="Arial" font-size="8.00">+ Center () : Vector3</text>
<text text-anchor="start" x="8" y="-37.8" font-family="Arial" font-size="8.00">+ Update (GameTime GameTime) : void</text>
<text text-anchor="start" x="8" y="-27.8" font-family="Arial" font-size="8.00">+ Draw (GameTime GameTime) : void</text>
<text text-anchor="start" x="8" y="-17.8" font-family="Arial" font-size="8.00">+ Intersects (Ray Ray) : GameObjectDistance</text>
<text text-anchor="start" x="8" y="-7.8" font-family="Arial" font-size="8.00">+ ShadowGameObject (Knot3&#45;Entwurf::GameScreen screen, Knot3&#45;Entwurf::IGameObject decoratedObj) : void</text>
</g>
<!-- Box_IGameObject -->
<g id="node2" class="node"><title>Box_IGameObject</title>
<polygon fill="#ffffff" stroke="black" points="179,-163 179,-181 241,-181 241,-163 179,-163"/>
<text text-anchor="middle" x="210" y="-169.8" font-family="Arial" font-size="8.00">IGameObject</text>
</g>
<!-- Box_IGameObject&#45;&gt;Box_ShadowGameObject -->
<g id="edge2" class="edge"><title>Box_IGameObject&#45;&gt;Box_ShadowGameObject</title>
<path fill="none" stroke="midnightblue" d="M210,-152.506C210,-144.605 210,-135.001 210,-125.055"/>
<polygon fill="none" stroke="midnightblue" points="206.5,-152.707 210,-162.707 213.5,-152.707 206.5,-152.707"/>
</g>
</g>
</svg>
