<?xml version="1.0" encoding="UTF-8" standalone="no"?>
<!DOCTYPE svg PUBLIC "-//W3C//DTD SVG 1.1//EN"
 "http://www.w3.org/Graphics/SVG/1.1/DTD/svg11.dtd">
<!-- Generated by graphviz version 2.26.3 (20100126.1600)
 -->
<!-- Title: MenuItem Pages: 1 -->
<svg width="256pt" height="130pt"
 viewBox="0.00 0.00 256.00 130.00" xmlns="http://www.w3.org/2000/svg" xmlns:xlink="http://www.w3.org/1999/xlink">
<g id="graph1" class="graph" transform="scale(1 1) rotate(0) translate(4 126)">
<title>MenuItem</title>
<polygon fill="white" stroke="white" points="-4,5 -4,-126 253,-126 253,5 -4,5"/>
<!-- Box_StandardEffect -->
<g id="node1" class="node"><title>Box_StandardEffect</title>
<polygon fill="#ffffff" stroke="black" points="0,-1 0,-65 248,-65 248,-1 0,-1"/>
<text text-anchor="middle" x="124" y="-53.8" font-family="Arial" font-size="8.00">StandardEffect</text>
<polyline fill="none" stroke="black" points="0,-47 248,-47 "/>
<text text-anchor="middle" x="124" y="-35.8" font-family="Arial" font-size="8.00"> </text>
<polyline fill="none" stroke="black" points="0,-29 248,-29 "/>
<text text-anchor="start" x="8" y="-17.8" font-family="Arial" font-size="8.00"># DrawRenderTarget (GameTime GameTime) : void</text>
<text text-anchor="start" x="8" y="-7.8" font-family="Arial" font-size="8.00">+ StandardEffect (ModelingProject1::GameScreen screen) : void</text>
</g>
<!-- Box_RenderEffect -->
<g id="node2" class="node"><title>Box_RenderEffect</title>
<polygon fill="#ffffff" stroke="black" points="91.5,-103 91.5,-121 156.5,-121 156.5,-103 91.5,-103"/>
<text text-anchor="middle" x="124" y="-109.8" font-family="Arial" font-size="8.00">RenderEffect</text>
</g>
<!-- Box_RenderEffect&#45;&gt;Box_StandardEffect -->
<g id="edge2" class="edge"><title>Box_RenderEffect&#45;&gt;Box_StandardEffect</title>
<path fill="none" stroke="midnightblue" d="M124,-92.8318C124,-84.5161 124,-74.5476 124,-65.1537"/>
<polygon fill="none" stroke="midnightblue" points="120.5,-92.9377 124,-102.938 127.5,-92.9377 120.5,-92.9377"/>
</g>
</g>
</svg>
