<?xml version="1.0" encoding="UTF-8" standalone="no"?>
<!DOCTYPE svg PUBLIC "-//W3C//DTD SVG 1.1//EN"
 "http://www.w3.org/Graphics/SVG/1.1/DTD/svg11.dtd">
<!-- Generated by graphviz version 2.26.3 (20100126.1600)
 -->
<!-- Title: MenuItem Pages: 1 -->
<svg width="324pt" height="150pt"
 viewBox="0.00 0.00 324.00 150.00" xmlns="http://www.w3.org/2000/svg" xmlns:xlink="http://www.w3.org/1999/xlink">
<g id="graph1" class="graph" transform="scale(1 1) rotate(0) translate(4 146)">
<title>MenuItem</title>
<polygon fill="white" stroke="white" points="-4,5 -4,-146 321,-146 321,5 -4,5"/>
<!-- Box_TextInputDialog -->
<g id="node1" class="node"><title>Box_TextInputDialog</title>
<polygon fill="#ffffff" stroke="black" points="-0.5,-1 -0.5,-85 316.5,-85 316.5,-1 -0.5,-1"/>
<text text-anchor="middle" x="158" y="-73.8" font-family="Arial" font-size="8.00">TextInputDialog</text>
<polyline fill="none" stroke="black" points="-0.5,-67 316.5,-67 "/>
<text text-anchor="start" x="7.5" y="-55.8" font-family="Arial" font-size="8.00">+ InputText : String</text>
<text text-anchor="start" x="7.5" y="-45.8" font-family="Arial" font-size="8.00">+ KeyEvent : Action</text>
<polyline fill="none" stroke="black" points="-0.5,-39 316.5,-39 "/>
<text text-anchor="start" x="7.5" y="-27.8" font-family="Arial" font-size="8.00">+ OnKeyEvent () : void</text>
<text text-anchor="start" x="7.5" y="-17.8" font-family="Arial" font-size="8.00">+ TextInputDialog (GameScreen screen, DisplayLayer drawOrder, String title, String</text>
<text text-anchor="start" x="7.5" y="-7.8" font-family="Arial" font-size="8.00">text, String inputText, Keys[] keys) : void</text>
</g>
<!-- Box_Dialog -->
<g id="node2" class="node"><title>Box_Dialog</title>
<polygon fill="#ffffff" stroke="black" points="100,-123 100,-141 138,-141 138,-123 100,-123"/>
<text text-anchor="middle" x="119" y="-129.8" font-family="Arial" font-size="8.00">Dialog</text>
</g>
<!-- Box_Dialog&#45;&gt;Box_TextInputDialog -->
<g id="edge2" class="edge"><title>Box_Dialog&#45;&gt;Box_TextInputDialog</title>
<path fill="none" stroke="midnightblue" d="M127.128,-113.452C130.76,-105.164 135.2,-95.0305 139.569,-85.0607"/>
<polygon fill="none" stroke="midnightblue" points="123.835,-112.247 123.027,-122.811 130.246,-115.056 123.835,-112.247"/>
</g>
<!-- Box_IKeyEventListener -->
<g id="node3" class="node"><title>Box_IKeyEventListener</title>
<polygon fill="#ffffff" stroke="black" points="156,-123 156,-141 238,-141 238,-123 156,-123"/>
<text text-anchor="middle" x="197" y="-129.8" font-family="Arial" font-size="8.00">IKeyEventListener</text>
</g>
<!-- Box_IKeyEventListener&#45;&gt;Box_TextInputDialog -->
<g id="edge4" class="edge"><title>Box_IKeyEventListener&#45;&gt;Box_TextInputDialog</title>
<path fill="none" stroke="midnightblue" d="M188.872,-113.452C185.24,-105.164 180.8,-95.0305 176.431,-85.0607"/>
<polygon fill="none" stroke="midnightblue" points="185.754,-115.056 192.973,-122.811 192.165,-112.247 185.754,-115.056"/>
</g>
</g>
</svg>
