<?xml version="1.0" encoding="UTF-8" standalone="no"?>
<!DOCTYPE svg PUBLIC "-//W3C//DTD SVG 1.1//EN"
 "http://www.w3.org/Graphics/SVG/1.1/DTD/svg11.dtd">
<!-- Generated by graphviz version 2.26.3 (20100126.1600)
 -->
<!-- Title: MenuItem Pages: 1 -->
<svg width="336pt" height="120pt"
 viewBox="0.00 0.00 336.00 120.00" xmlns="http://www.w3.org/2000/svg" xmlns:xlink="http://www.w3.org/1999/xlink">
<g id="graph1" class="graph" transform="scale(1 1) rotate(0) translate(4 116)">
<title>MenuItem</title>
<polygon fill="white" stroke="white" points="-4,5 -4,-116 333,-116 333,5 -4,5"/>
<!-- Box_TutorialChallengeModeScreen -->
<g id="node1" class="node"><title>Box_TutorialChallengeModeScreen</title>
<polygon fill="#ffffff" stroke="black" points="0,-1 0,-55 328,-55 328,-1 0,-1"/>
<text text-anchor="middle" x="164" y="-43.8" font-family="Arial" font-size="8.00">TutorialChallengeModeScreen</text>
<polyline fill="none" stroke="black" points="0,-37 328,-37 "/>
<text text-anchor="middle" x="164" y="-25.8" font-family="Arial" font-size="8.00"> </text>
<polyline fill="none" stroke="black" points="0,-19 328,-19 "/>
<text text-anchor="start" x="8" y="-7.8" font-family="Arial" font-size="8.00">+ Entered (Knot3&#45;Entwurf::GameScreen previousScreen, GameTime GameTime) : void</text>
</g>
<!-- Box_ChallengeModeScreen -->
<g id="node2" class="node"><title>Box_ChallengeModeScreen</title>
<polygon fill="#ffffff" stroke="black" points="115,-93 115,-111 213,-111 213,-93 115,-93"/>
<text text-anchor="middle" x="164" y="-99.8" font-family="Arial" font-size="8.00">ChallengeModeScreen</text>
</g>
<!-- Box_ChallengeModeScreen&#45;&gt;Box_TutorialChallengeModeScreen -->
<g id="edge2" class="edge"><title>Box_ChallengeModeScreen&#45;&gt;Box_TutorialChallengeModeScreen</title>
<path fill="none" stroke="midnightblue" d="M164,-82.6404C164,-74.1998 164,-64.1602 164,-55.0036"/>
<polygon fill="none" stroke="midnightblue" points="160.5,-82.9261 164,-92.9261 167.5,-82.9262 160.5,-82.9261"/>
</g>
</g>
</svg>
