<?xml version="1.0" encoding="UTF-8" standalone="no"?>
<!DOCTYPE svg PUBLIC "-//W3C//DTD SVG 1.1//EN"
 "http://www.w3.org/Graphics/SVG/1.1/DTD/svg11.dtd">
<!-- Generated by graphviz version 2.26.3 (20100126.1600)
 -->
<!-- Title: MenuItem Pages: 1 -->
<svg width="126pt" height="120pt"
 viewBox="0.00 0.00 126.00 120.00" xmlns="http://www.w3.org/2000/svg" xmlns:xlink="http://www.w3.org/1999/xlink">
<g id="graph1" class="graph" transform="scale(1 1) rotate(0) translate(4 116)">
<title>MenuItem</title>
<polygon fill="white" stroke="white" points="-4,5 -4,-116 123,-116 123,5 -4,5"/>
<!-- Box_WidgetsPauseDialog -->
<g id="node1" class="node"><title>Box_WidgetsPauseDialog</title>
<polygon fill="#ffffff" stroke="black" points="0,-1 0,-55 118,-55 118,-1 0,-1"/>
<text text-anchor="middle" x="59" y="-43.8" font-family="Arial" font-size="8.00">Widgets.PauseDialog</text>
<polyline fill="none" stroke="black" points="0,-37 118,-37 "/>
<text text-anchor="start" x="8" y="-25.8" font-family="Arial" font-size="8.00">&#45; pauseMenu : VerticalMenu</text>
<polyline fill="none" stroke="black" points="0,-19 118,-19 "/>
<text text-anchor="middle" x="59" y="-7.8" font-family="Arial" font-size="8.00"> </text>
</g>
<!-- Box_Dialog -->
<g id="node2" class="node"><title>Box_Dialog</title>
<polygon fill="#ffffff" stroke="black" points="40,-93 40,-111 78,-111 78,-93 40,-93"/>
<text text-anchor="middle" x="59" y="-99.8" font-family="Arial" font-size="8.00">Dialog</text>
</g>
<!-- Box_Dialog&#45;&gt;Box_WidgetsPauseDialog -->
<g id="edge2" class="edge"><title>Box_Dialog&#45;&gt;Box_WidgetsPauseDialog</title>
<path fill="none" stroke="midnightblue" d="M59,-82.6404C59,-74.1998 59,-64.1602 59,-55.0036"/>
<polygon fill="none" stroke="midnightblue" points="55.5001,-82.9261 59,-92.9261 62.5001,-82.9262 55.5001,-82.9261"/>
</g>
</g>
</svg>
