<?xml version="1.0" encoding="UTF-8" standalone="no"?>
<!DOCTYPE svg PUBLIC "-//W3C//DTD SVG 1.1//EN"
 "http://www.w3.org/Graphics/SVG/1.1/DTD/svg11.dtd">
<!-- Generated by graphviz version 2.26.3 (20100126.1600)
 -->
<!-- Title: MenuItem Pages: 1 -->
<svg width="238pt" height="120pt"
 viewBox="0.00 0.00 238.00 120.00" xmlns="http://www.w3.org/2000/svg" xmlns:xlink="http://www.w3.org/1999/xlink">
<g id="graph1" class="graph" transform="scale(1 1) rotate(0) translate(4 116)">
<title>MenuItem</title>
<polygon fill="white" stroke="white" points="-4,5 -4,-116 235,-116 235,5 -4,5"/>
<!-- Box_WidgetMouseHandler -->
<g id="node1" class="node"><title>Box_WidgetMouseHandler</title>
<polygon fill="#ffffff" stroke="black" points="69.5,-1 69.5,-55 162.5,-55 162.5,-1 69.5,-1"/>
<text text-anchor="middle" x="116" y="-43.8" font-family="Arial" font-size="8.00">WidgetMouseHandler</text>
<polyline fill="none" stroke="black" points="69.5,-37 162.5,-37 "/>
<text text-anchor="middle" x="116" y="-25.8" font-family="Arial" font-size="8.00"> </text>
<polyline fill="none" stroke="black" points="69.5,-19 162.5,-19 "/>
<text text-anchor="start" x="77.5" y="-7.8" font-family="Arial" font-size="8.00">+ Update () : void</text>
</g>
<!-- Box_GameScreenComponent1 -->
<g id="node2" class="node"><title>Box_GameScreenComponent1</title>
<polygon fill="#ffffff" stroke="black" points="-0.5,-93 -0.5,-111 108.5,-111 108.5,-93 -0.5,-93"/>
<text text-anchor="middle" x="54" y="-99.8" font-family="Arial" font-size="8.00">GameScreenComponent1</text>
</g>
<!-- Box_GameScreenComponent1&#45;&gt;Box_WidgetMouseHandler -->
<g id="edge2" class="edge"><title>Box_GameScreenComponent1&#45;&gt;Box_WidgetMouseHandler</title>
<path fill="none" stroke="midnightblue" d="M68.0947,-85.1773C75.5637,-76.2626 84.919,-65.0967 93.3754,-55.0036"/>
<polygon fill="none" stroke="midnightblue" points="65.3418,-83.0131 61.6024,-92.9261 70.7075,-87.5087 65.3418,-83.0131"/>
</g>
<!-- Box_GameScreenComponent -->
<g id="node3" class="node"><title>Box_GameScreenComponent</title>
<polygon fill="#ffffff" stroke="black" points="126,-93 126,-111 230,-111 230,-93 126,-93"/>
<text text-anchor="middle" x="178" y="-99.8" font-family="Arial" font-size="8.00">GameScreenComponent</text>
</g>
<!-- Box_GameScreenComponent&#45;&gt;Box_WidgetMouseHandler -->
<g id="edge4" class="edge"><title>Box_GameScreenComponent&#45;&gt;Box_WidgetMouseHandler</title>
<path fill="none" stroke="midnightblue" d="M163.905,-85.1773C156.436,-76.2626 147.081,-65.0967 138.625,-55.0036"/>
<polygon fill="none" stroke="midnightblue" points="161.293,-87.5087 170.398,-92.9261 166.658,-83.0131 161.293,-87.5087"/>
</g>
</g>
</svg>
