<?xml version="1.0" encoding="UTF-8" standalone="no"?>
<!DOCTYPE svg PUBLIC "-//W3C//DTD SVG 1.1//EN"
 "http://www.w3.org/Graphics/SVG/1.1/DTD/svg11.dtd">
<!-- Generated by graphviz version 2.26.3 (20100126.1600)
 -->
<!-- Title: MenuItem Pages: 1 -->
<svg width="370pt" height="190pt"
 viewBox="0.00 0.00 370.00 190.00" xmlns="http://www.w3.org/2000/svg" xmlns:xlink="http://www.w3.org/1999/xlink">
<g id="graph1" class="graph" transform="scale(1 1) rotate(0) translate(4 186)">
<title>MenuItem</title>
<polygon fill="white" stroke="white" points="-4,5 -4,-186 367,-186 367,5 -4,5"/>
<!-- Box_Widget -->
<g id="node1" class="node"><title>Box_Widget</title>
<polygon fill="#ffffff" stroke="black" points="-0.5,-1 -0.5,-125 362.5,-125 362.5,-1 -0.5,-1"/>
<text text-anchor="middle" x="181" y="-113.8" font-family="Arial" font-size="8.00">Widget</text>
<polyline fill="none" stroke="black" points="-0.5,-107 362.5,-107 "/>
<text text-anchor="start" x="7.5" y="-95.8" font-family="Arial" font-size="8.00">+ RelativeSize : Vector2</text>
<text text-anchor="start" x="7.5" y="-85.8" font-family="Arial" font-size="8.00">+ RelativePosition : Vector2</text>
<text text-anchor="start" x="7.5" y="-75.8" font-family="Arial" font-size="8.00">+ IsVisible : bool</text>
<text text-anchor="start" x="7.5" y="-65.8" font-family="Arial" font-size="8.00">+ BackgroundColor : Func&lt;Color&gt;</text>
<text text-anchor="start" x="7.5" y="-55.8" font-family="Arial" font-size="8.00">+ ForegroundColor : Func&lt;Color&gt;</text>
<text text-anchor="start" x="7.5" y="-45.8" font-family="Arial" font-size="8.00">+ AlignX : Knot3&#45;Entwurf</text>
<text text-anchor="start" x="7.5" y="-35.8" font-family="Arial" font-size="8.00">+ AlignY : Knot3&#45;Entwurf</text>
<polyline fill="none" stroke="black" points="-0.5,-29 362.5,-29 "/>
<text text-anchor="start" x="7.5" y="-17.8" font-family="Arial" font-size="8.00">+ BoundingBox () : Rectangle</text>
<text text-anchor="start" x="7.5" y="-7.8" font-family="Arial" font-size="8.00">+ Widget (Knot3&#45;Entwurf::GameScreen screen, Knot3&#45;Entwurf::DisplayLayer drawOrder) : void</text>
</g>
<!-- Box_DrawableGameScreenComponent1 -->
<g id="node2" class="node"><title>Box_DrawableGameScreenComponent1</title>
<polygon fill="#ffffff" stroke="black" points="29,-163 29,-181 173,-181 173,-163 29,-163"/>
<text text-anchor="middle" x="101" y="-169.8" font-family="Arial" font-size="8.00">DrawableGameScreenComponent1</text>
</g>
<!-- Box_DrawableGameScreenComponent1&#45;&gt;Box_Widget -->
<g id="edge2" class="edge"><title>Box_DrawableGameScreenComponent1&#45;&gt;Box_Widget</title>
<path fill="none" stroke="midnightblue" d="M113.917,-154.401C119.961,-146.166 127.561,-135.81 135.455,-125.055"/>
<polygon fill="none" stroke="midnightblue" points="110.916,-152.574 107.821,-162.707 116.559,-156.716 110.916,-152.574"/>
</g>
<!-- Box_DrawableGameScreenComponent -->
<g id="node3" class="node"><title>Box_DrawableGameScreenComponent</title>
<polygon fill="#ffffff" stroke="black" points="191,-163 191,-181 331,-181 331,-163 191,-163"/>
<text text-anchor="middle" x="261" y="-169.8" font-family="Arial" font-size="8.00">DrawableGameScreenComponent</text>
</g>
<!-- Box_DrawableGameScreenComponent&#45;&gt;Box_Widget -->
<g id="edge4" class="edge"><title>Box_DrawableGameScreenComponent&#45;&gt;Box_Widget</title>
<path fill="none" stroke="midnightblue" d="M248.083,-154.401C242.039,-146.166 234.439,-135.81 226.545,-125.055"/>
<polygon fill="none" stroke="midnightblue" points="245.441,-156.716 254.179,-162.707 251.084,-152.574 245.441,-156.716"/>
</g>
</g>
</svg>
