<?xml version="1.0" encoding="UTF-8" standalone="no"?>
<!DOCTYPE svg PUBLIC "-//W3C//DTD SVG 1.1//EN"
 "http://www.w3.org/Graphics/SVG/1.1/DTD/svg11.dtd">
<!-- Generated by graphviz version 2.26.3 (20100126.1600)
 -->
<!-- Title: MenuItem Pages: 1 -->
<svg width="348pt" height="200pt"
 viewBox="0.00 0.00 348.00 200.00" xmlns="http://www.w3.org/2000/svg" xmlns:xlink="http://www.w3.org/1999/xlink">
<g id="graph1" class="graph" transform="scale(1 1) rotate(0) translate(4 196)">
<title>MenuItem</title>
<polygon fill="white" stroke="white" points="-4,5 -4,-196 345,-196 345,5 -4,5"/>
<!-- Box_Widget -->
<g id="node1" class="node"><title>Box_Widget</title>
<polygon fill="#ffffff" stroke="black" points="-0.5,-1 -0.5,-135 340.5,-135 340.5,-1 -0.5,-1"/>
<text text-anchor="middle" x="170" y="-123.8" font-family="Arial" font-size="8.00">Widget</text>
<polyline fill="none" stroke="black" points="-0.5,-117 340.5,-117 "/>
<text text-anchor="start" x="7.5" y="-105.8" font-family="Arial" font-size="8.00">+ RelativeSize : Vector2</text>
<text text-anchor="start" x="7.5" y="-95.8" font-family="Arial" font-size="8.00">+ RelativePosition : Vector2</text>
<text text-anchor="start" x="7.5" y="-85.8" font-family="Arial" font-size="8.00">+ IsVisible : bool</text>
<text text-anchor="start" x="7.5" y="-75.8" font-family="Arial" font-size="8.00">+ BackgroundColor : Func&lt;Color&gt;</text>
<text text-anchor="start" x="7.5" y="-65.8" font-family="Arial" font-size="8.00">+ ForegroundColor : Func&lt;Color&gt;</text>
<text text-anchor="start" x="7.5" y="-55.8" font-family="Arial" font-size="8.00">+ AlignX : Knot3&#45;Entwurf</text>
<text text-anchor="start" x="7.5" y="-45.8" font-family="Arial" font-size="8.00">+ AlignY : Knot3&#45;Entwurf</text>
<polyline fill="none" stroke="black" points="-0.5,-39 340.5,-39 "/>
<text text-anchor="start" x="7.5" y="-27.8" font-family="Arial" font-size="8.00">+ BoundingBox () : Rectangle</text>
<text text-anchor="start" x="7.5" y="-17.8" font-family="Arial" font-size="8.00">+ Widget (Knot3&#45;Entwurf::GameScreen screen, Knot3&#45;Entwurf::DisplayLayer drawOrder)</text>
<text text-anchor="start" x="7.5" y="-7.8" font-family="Arial" font-size="8.00">: void</text>
</g>
<!-- Box_DrawableGameScreenComponent1 -->
<g id="node2" class="node"><title>Box_DrawableGameScreenComponent1</title>
<polygon fill="#ffffff" stroke="black" points="18,-173 18,-191 162,-191 162,-173 18,-173"/>
<text text-anchor="middle" x="90" y="-179.8" font-family="Arial" font-size="8.00">DrawableGameScreenComponent1</text>
</g>
<!-- Box_DrawableGameScreenComponent1&#45;&gt;Box_Widget -->
<g id="edge2" class="edge"><title>Box_DrawableGameScreenComponent1&#45;&gt;Box_Widget</title>
<path fill="none" stroke="midnightblue" d="M102.318,-164.447C108.041,-156.291 115.248,-146.021 122.81,-135.246"/>
<polygon fill="none" stroke="midnightblue" points="99.4261,-162.475 96.5467,-172.671 105.156,-166.496 99.4261,-162.475"/>
</g>
<!-- Box_DrawableGameScreenComponent -->
<g id="node3" class="node"><title>Box_DrawableGameScreenComponent</title>
<polygon fill="#ffffff" stroke="black" points="180,-173 180,-191 320,-191 320,-173 180,-173"/>
<text text-anchor="middle" x="250" y="-179.8" font-family="Arial" font-size="8.00">DrawableGameScreenComponent</text>
</g>
<!-- Box_DrawableGameScreenComponent&#45;&gt;Box_Widget -->
<g id="edge4" class="edge"><title>Box_DrawableGameScreenComponent&#45;&gt;Box_Widget</title>
<path fill="none" stroke="midnightblue" d="M237.682,-164.447C231.959,-156.291 224.752,-146.021 217.19,-135.246"/>
<polygon fill="none" stroke="midnightblue" points="234.844,-166.496 243.453,-172.671 240.574,-162.475 234.844,-166.496"/>
</g>
</g>
</svg>
