<?xml version="1.0" encoding="UTF-8" standalone="no"?>
<!DOCTYPE svg PUBLIC "-//W3C//DTD SVG 1.1//EN"
 "http://www.w3.org/Graphics/SVG/1.1/DTD/svg11.dtd">
<!-- Generated by graphviz version 2.26.3 (20100126.1600)
 -->
<!-- Title: MenuItem Pages: 1 -->
<svg width="256pt" height="190pt"
 viewBox="0.00 0.00 256.00 190.00" xmlns="http://www.w3.org/2000/svg" xmlns:xlink="http://www.w3.org/1999/xlink">
<g id="graph1" class="graph" transform="scale(1 1) rotate(0) translate(4 186)">
<title>MenuItem</title>
<polygon fill="white" stroke="white" points="-4,5 -4,-186 253,-186 253,5 -4,5"/>
<!-- Box_WidgetsWidget -->
<g id="node1" class="node"><title>Box_WidgetsWidget</title>
<polygon fill="#ffffff" stroke="black" points="0,-1 0,-125 248,-125 248,-1 0,-1"/>
<text text-anchor="middle" x="124" y="-113.8" font-family="Arial" font-size="8.00">Widgets.Widget</text>
<polyline fill="none" stroke="black" points="0,-107 248,-107 "/>
<text text-anchor="start" x="8" y="-95.8" font-family="Arial" font-size="8.00">+ RelativeSize : Vector2</text>
<text text-anchor="start" x="8" y="-85.8" font-family="Arial" font-size="8.00">+ RelativePosition : Vector2</text>
<text text-anchor="start" x="8" y="-75.8" font-family="Arial" font-size="8.00">+ IsVisible : bool</text>
<text text-anchor="start" x="8" y="-65.8" font-family="Arial" font-size="8.00">+ BackgroundColor : Func&lt;Color&gt;</text>
<text text-anchor="start" x="8" y="-55.8" font-family="Arial" font-size="8.00">+ ForegroundColor : Func&lt;Color&gt;</text>
<text text-anchor="start" x="8" y="-45.8" font-family="Arial" font-size="8.00">+ AlignX : HorizontalAlignment</text>
<text text-anchor="start" x="8" y="-35.8" font-family="Arial" font-size="8.00">+ AlignY : VerticalAlignment</text>
<polyline fill="none" stroke="black" points="0,-29 248,-29 "/>
<text text-anchor="start" x="8" y="-17.8" font-family="Arial" font-size="8.00">+ BoundingBox () : Rectangle</text>
<text text-anchor="start" x="8" y="-7.8" font-family="Arial" font-size="8.00">+ Widget (GameScreen screen, DisplayLayer drawOrder) : void</text>
</g>
<!-- Box_DrawableGameScreenComponent -->
<g id="node2" class="node"><title>Box_DrawableGameScreenComponent</title>
<polygon fill="#ffffff" stroke="black" points="54,-163 54,-181 194,-181 194,-163 54,-163"/>
<text text-anchor="middle" x="124" y="-169.8" font-family="Arial" font-size="8.00">DrawableGameScreenComponent</text>
</g>
<!-- Box_DrawableGameScreenComponent&#45;&gt;Box_WidgetsWidget -->
<g id="edge2" class="edge"><title>Box_DrawableGameScreenComponent&#45;&gt;Box_WidgetsWidget</title>
<path fill="none" stroke="midnightblue" d="M124,-152.506C124,-144.605 124,-135.001 124,-125.055"/>
<polygon fill="none" stroke="midnightblue" points="120.5,-152.707 124,-162.707 127.5,-152.707 120.5,-152.707"/>
</g>
</g>
</svg>
