<?xml version="1.0" encoding="UTF-8" standalone="no"?>
<!DOCTYPE svg PUBLIC "-//W3C//DTD SVG 1.1//EN"
 "http://www.w3.org/Graphics/SVG/1.1/DTD/svg11.dtd">
<!-- Generated by graphviz version 2.26.3 (20100126.1600)
 -->
<!-- Title: MenuItem Pages: 1 -->
<svg width="316pt" height="180pt"
 viewBox="0.00 0.00 316.00 180.00" xmlns="http://www.w3.org/2000/svg" xmlns:xlink="http://www.w3.org/1999/xlink">
<g id="graph1" class="graph" transform="scale(1 1) rotate(0) translate(4 176)">
<title>MenuItem</title>
<polygon fill="white" stroke="white" points="-4,5 -4,-176 313,-176 313,5 -4,5"/>
<!-- Box_WidgetsDialog -->
<g id="node1" class="node"><title>Box_WidgetsDialog</title>
<polygon fill="#ffffff" stroke="black" points="0,-1 0,-115 308,-115 308,-1 0,-1"/>
<text text-anchor="middle" x="154" y="-103.8" font-family="Arial" font-size="8.00">Widgets.Dialog</text>
<polyline fill="none" stroke="black" points="0,-97 308,-97 "/>
<text text-anchor="start" x="8" y="-85.8" font-family="Arial" font-size="8.00">+ Title : String</text>
<text text-anchor="start" x="8" y="-75.8" font-family="Arial" font-size="8.00">+ Text : String</text>
<polyline fill="none" stroke="black" points="0,-69 308,-69 "/>
<text text-anchor="start" x="8" y="-57.8" font-family="Arial" font-size="8.00">+ OnKeyEvent () : void</text>
<text text-anchor="start" x="8" y="-47.8" font-family="Arial" font-size="8.00">+ Bounds () : Rectangle</text>
<text text-anchor="start" x="8" y="-37.8" font-family="Arial" font-size="8.00">+ OnLeftClick (Vector2 position, ClickState state, GameTime time) : void</text>
<text text-anchor="start" x="8" y="-27.8" font-family="Arial" font-size="8.00">+ OnRightClick (Vector2 position, ClickState state, GameTime time) : void</text>
<text text-anchor="start" x="8" y="-17.8" font-family="Arial" font-size="8.00">+ Dialog (GameScreen screen, DisplayLayer drawOrder, String title, String text) :</text>
<text text-anchor="start" x="8" y="-7.8" font-family="Arial" font-size="8.00">void</text>
</g>
<!-- Box_Widget -->
<g id="node2" class="node"><title>Box_Widget</title>
<polygon fill="#ffffff" stroke="black" points="133.5,-153 133.5,-171 174.5,-171 174.5,-153 133.5,-153"/>
<text text-anchor="middle" x="154" y="-159.8" font-family="Arial" font-size="8.00">Widget</text>
</g>
<!-- Box_Widget&#45;&gt;Box_WidgetsDialog -->
<g id="edge2" class="edge"><title>Box_Widget&#45;&gt;Box_WidgetsDialog</title>
<path fill="none" stroke="midnightblue" d="M154,-142.516C154,-134.577 154,-124.949 154,-115.075"/>
<polygon fill="none" stroke="midnightblue" points="150.5,-142.771 154,-152.771 157.5,-142.771 150.5,-142.771"/>
</g>
</g>
</svg>
