<?xml version="1.0" encoding="UTF-8" standalone="no"?>
<!DOCTYPE svg PUBLIC "-//W3C//DTD SVG 1.1//EN"
 "http://www.w3.org/Graphics/SVG/1.1/DTD/svg11.dtd">
<!-- Generated by graphviz version 2.26.3 (20100126.1600)
 -->
<!-- Title: MenuItem Pages: 1 -->
<svg width="324pt" height="130pt"
 viewBox="0.00 0.00 324.00 130.00" xmlns="http://www.w3.org/2000/svg" xmlns:xlink="http://www.w3.org/1999/xlink">
<g id="graph1" class="graph" transform="scale(1 1) rotate(0) translate(4 126)">
<title>MenuItem</title>
<polygon fill="white" stroke="white" points="-4,5 -4,-126 321,-126 321,5 -4,5"/>
<!-- Box_WidgetsTextInputDialog -->
<g id="node1" class="node"><title>Box_WidgetsTextInputDialog</title>
<polygon fill="#ffffff" stroke="black" points="-0.5,-1 -0.5,-65 316.5,-65 316.5,-1 -0.5,-1"/>
<text text-anchor="middle" x="158" y="-53.8" font-family="Arial" font-size="8.00">Widgets.TextInputDialog</text>
<polyline fill="none" stroke="black" points="-0.5,-47 316.5,-47 "/>
<text text-anchor="start" x="7.5" y="-35.8" font-family="Arial" font-size="8.00">+ InputText : String</text>
<polyline fill="none" stroke="black" points="-0.5,-29 316.5,-29 "/>
<text text-anchor="start" x="7.5" y="-17.8" font-family="Arial" font-size="8.00">+ TextInputDialog (GameScreen screen, DisplayLayer drawOrder, String title, String</text>
<text text-anchor="start" x="7.5" y="-7.8" font-family="Arial" font-size="8.00">text, String inputText) : void</text>
</g>
<!-- Box_ConfirmDialog -->
<g id="node2" class="node"><title>Box_ConfirmDialog</title>
<polygon fill="#ffffff" stroke="black" points="125,-103 125,-121 191,-121 191,-103 125,-103"/>
<text text-anchor="middle" x="158" y="-109.8" font-family="Arial" font-size="8.00">ConfirmDialog</text>
</g>
<!-- Box_ConfirmDialog&#45;&gt;Box_WidgetsTextInputDialog -->
<g id="edge2" class="edge"><title>Box_ConfirmDialog&#45;&gt;Box_WidgetsTextInputDialog</title>
<path fill="none" stroke="midnightblue" d="M158,-92.8318C158,-84.5161 158,-74.5476 158,-65.1537"/>
<polygon fill="none" stroke="midnightblue" points="154.5,-92.9377 158,-102.938 161.5,-92.9377 154.5,-92.9377"/>
</g>
</g>
</svg>
