<?xml version="1.0" encoding="UTF-8" standalone="no"?>
<!DOCTYPE svg PUBLIC "-//W3C//DTD SVG 1.1//EN"
 "http://www.w3.org/Graphics/SVG/1.1/DTD/svg11.dtd">
<!-- Generated by graphviz version 2.26.3 (20100126.1600)
 -->
<!-- Title: MenuItem Pages: 1 -->
<svg width="280pt" height="180pt"
 viewBox="0.00 0.00 280.00 180.00" xmlns="http://www.w3.org/2000/svg" xmlns:xlink="http://www.w3.org/1999/xlink">
<g id="graph1" class="graph" transform="scale(1 1) rotate(0) translate(4 176)">
<title>MenuItem</title>
<polygon fill="white" stroke="white" points="-4,5 -4,-176 277,-176 277,5 -4,5"/>
<!-- Box_World -->
<g id="node1" class="node"><title>Box_World</title>
<polygon fill="#ffffff" stroke="black" points="64,-1 64,-115 220,-115 220,-1 64,-1"/>
<text text-anchor="middle" x="142" y="-103.8" font-family="Arial" font-size="8.00">World</text>
<polyline fill="none" stroke="black" points="64,-97 220,-97 "/>
<text text-anchor="start" x="72" y="-85.8" font-family="Arial" font-size="8.00">+ Camera : Camera</text>
<text text-anchor="start" x="72" y="-75.8" font-family="Arial" font-size="8.00">+ Objects : List&lt;IGameObject&gt;</text>
<text text-anchor="start" x="72" y="-65.8" font-family="Arial" font-size="8.00">+ SelectedObject : IGameObject</text>
<text text-anchor="start" x="72" y="-55.8" font-family="Arial" font-size="8.00">+ CurrentEffect : IRenderEffect</text>
<polyline fill="none" stroke="black" points="64,-49 220,-49 "/>
<text text-anchor="start" x="72" y="-37.8" font-family="Arial" font-size="8.00">+ Update (GameTime GameTime) : void</text>
<text text-anchor="start" x="72" y="-27.8" font-family="Arial" font-size="8.00">+ Draw (GameTime GameTime) : void</text>
<text text-anchor="start" x="72" y="-17.8" font-family="Arial" font-size="8.00">+ World (GameScreen screen) : void</text>
<text text-anchor="start" x="72" y="-7.8" font-family="Arial" font-size="8.00">+ GetEnumerator () : IEnumerator</text>
</g>
<!-- Box_DrawableGameScreenComponent -->
<g id="node2" class="node"><title>Box_DrawableGameScreenComponent</title>
<polygon fill="#ffffff" stroke="black" points="0,-153 0,-171 140,-171 140,-153 0,-153"/>
<text text-anchor="middle" x="70" y="-159.8" font-family="Arial" font-size="8.00">DrawableGameScreenComponent</text>
</g>
<!-- Box_DrawableGameScreenComponent&#45;&gt;Box_World -->
<g id="edge2" class="edge"><title>Box_DrawableGameScreenComponent&#45;&gt;Box_World</title>
<path fill="none" stroke="midnightblue" d="M82.1708,-144.42C87.9013,-136.142 95.0942,-125.753 102.487,-115.075"/>
<polygon fill="none" stroke="midnightblue" points="79.204,-142.557 76.3895,-152.771 84.9593,-146.541 79.204,-142.557"/>
</g>
<!-- Box_IEnumerable -->
<g id="node3" class="node"><title>Box_IEnumerable</title>
<polygon fill="#ffffff" stroke="black" points="157.5,-153 157.5,-171 272.5,-171 272.5,-153 157.5,-153"/>
<text text-anchor="middle" x="215" y="-159.8" font-family="Arial" font-size="8.00">IEnumerable&lt;IGameObject&gt;</text>
</g>
<!-- Box_IEnumerable&#45;&gt;Box_World -->
<g id="edge4" class="edge"><title>Box_IEnumerable&#45;&gt;Box_World</title>
<path fill="none" stroke="midnightblue" d="M202.66,-144.42C196.85,-136.142 189.557,-125.753 182.062,-115.075"/>
<polygon fill="none" stroke="midnightblue" points="199.912,-146.597 208.522,-152.771 205.641,-142.575 199.912,-146.597"/>
</g>
</g>
</svg>
