<?xml version="1.0" encoding="UTF-8" standalone="no"?>
<svg
   xmlns:dc="http://purl.org/dc/elements/1.1/"
   xmlns:cc="http://creativecommons.org/ns#"
   xmlns:rdf="http://www.w3.org/1999/02/22-rdf-syntax-ns#"
   xmlns:svg="http://www.w3.org/2000/svg"
   xmlns="http://www.w3.org/2000/svg"
   xmlns:sodipodi="http://sodipodi.sourceforge.net/DTD/sodipodi-0.dtd"
   xmlns:inkscape="http://www.inkscape.org/namespaces/inkscape"
   fill-opacity="1"
   color-rendering="auto"
   color-interpolation="auto"
   stroke="black"
   text-rendering="auto"
   stroke-linecap="square"
   width="643"
   stroke-miterlimit="10"
   stroke-opacity="1"
   shape-rendering="auto"
   fill="black"
   stroke-dasharray="none"
   font-weight="normal"
   stroke-width="1"
   height="532"
   font-family="'Dialog'"
   font-style="normal"
   stroke-linejoin="miter"
   font-size="12"
   stroke-dashoffset="0"
   image-rendering="auto"
   id="svg2"
   version="1.1"
   inkscape:version="0.48.3.1 r9886"
   sodipodi:docname="menu.svg">
  <metadata
     id="metadata192">
    <rdf:RDF>
      <cc:Work
         rdf:about="">
        <dc:format>image/svg+xml</dc:format>
        <dc:type
           rdf:resource="http://purl.org/dc/dcmitype/StillImage" />
      </cc:Work>
    </rdf:RDF>
  </metadata>
  <sodipodi:namedview
     pagecolor="#ffffff"
     bordercolor="#666666"
     borderopacity="1"
     objecttolerance="10"
     gridtolerance="10"
     guidetolerance="10"
     inkscape:pageopacity="0"
     inkscape:pageshadow="2"
     inkscape:window-width="1433"
     inkscape:window-height="976"
     id="namedview190"
     showgrid="false"
     inkscape:zoom="0.88721804"
     inkscape:cx="344.90078"
     inkscape:cy="297.97683"
     inkscape:window-x="0"
     inkscape:window-y="35"
     inkscape:window-maximized="0"
     inkscape:current-layer="svg2" />
  <!--Generated by ySVG 2.5-->
  <defs
     id="genericDefs">
    <defs
       id="defs1">
      <clipPath
         id="clipPath1"
         clipPathUnits="userSpaceOnUse">
        <path
           id="path9"
           d="M0 0 L643 0 L643 532 L0 532 L0 0 Z" />
      </clipPath>
      <clipPath
         id="clipPath2"
         clipPathUnits="userSpaceOnUse">
        <path
           id="path12"
           d="M541 -15 L1184 -15 L1184 517 L541 517 L541 -15 Z" />
      </clipPath>
    </defs>
  </defs>
  <g
     style="font-weight:bold;stroke-linecap:butt;stroke-miterlimit:1.45000005;font-family:L M Sans10"
     id="g22"
     stroke-miterlimit="1.45"
     font-weight="bold"
     shape-rendering="geometricPrecision"
     text-rendering="optimizeQuality"
     transform="translate(-541,15)">
    <g
       clip-path="url(#clipPath2)"
       style="stroke:none"
       id="text24">
      <path
         d="m 789.73517,23.0035 0,-3.324 c 0,-1.235999 -0.528,-1.728 -1.752,-1.728 -0.852,0 -1.512,0.396001 -1.944,1.188 -0.192,-1.151999 -1.212,-1.188 -1.716,-1.188 -0.228,0 -0.732,1e-6 -1.272,0.396 -0.372,0.276 -0.612,0.66 -0.696,0.84 l -0.012,0 0,-0.6 c 0,-0.383999 -0.084,-0.576 -0.576,-0.576 l -0.408,0 c -0.432,0 -0.576,0.132001 -0.576,0.576 l 0,4.416 c 0,0.432 0.132,0.576 0.576,0.576 l 0.48,0 c 0.456,0 0.576,-0.156 0.576,-0.576 l 0,-2.652 c 0,-1.079999 0.732,-1.536 1.32,-1.536 0.576,0 0.708,0.252001 0.708,0.888 l 0,3.3 c 0,0.432 0.132,0.576 0.576,0.576 l 0.48,0 c 0.456,0 0.576,-0.156 0.576,-0.576 l 0,-2.652 c 0,-1.079999 0.732,-1.536 1.32,-1.536 0.576,0 0.708,0.252001 0.708,0.888 l 0,3.3 c 0,0.432 0.132,0.576 0.576,0.576 l 0.48,0 c 0.456,0 0.576,-0.156 0.576,-0.576"
         style="stroke:none"
         id="path3471" />
      <path
         d="m 796.15742,23.0035 0,-3.216 c 0,-1.895998 -1.824,-1.908 -2.424,-1.908 -0.564,0 -1.164,0.048 -1.968,0.384 -0.252,0.108 -0.312,0.144 -0.312,0.276 0,0.084 0.072,0.78 0.084,0.876 0.012,0.072 0.072,0.132 0.156,0.132 0.06,0 0.096,-0.036 0.132,-0.072 0.516,-0.539999 1.116,-0.804 1.86,-0.804 0.648,0 0.84,0.396001 0.84,1.104 l 0,0.42 c -0.42,0 -3.564,0.024 -3.564,1.788 0,0.839999 0.672,1.728 1.728,1.728 0.408,0 1.308,-0.120001 1.872,-0.948 l 0,0.24 c 0,0.384 0.084,0.576 0.576,0.576 l 0.444,0 c 0.456,0 0.576,-0.156 0.576,-0.576 m -1.632,-1.272 c 0,1.115999 -1.14,1.116 -1.176,1.116 -0.504,0 -0.828,-0.432 -0.828,-0.888 0,-1.175999 1.668,-1.26 2.004,-1.272 l 0,1.044"
         style="stroke:none"
         id="path3473" />
      <path
         d="m 799.10211,23.0035 0,-4.344 c 0,-0.383999 -0.084,-0.576 -0.576,-0.576 l -0.444,0 c -0.432,0 -0.576,0.132001 -0.576,0.576 l 0,4.344 c 0,0.432 0.132,0.576 0.576,0.576 l 0.444,0 c 0.456,0 0.576,-0.156 0.576,-0.576 m 0.084,-6.696 0,-0.228 c 0,-0.383999 -0.084,-0.576 -0.576,-0.576 l -0.612,0 c -0.456,0 -0.576,0.156001 -0.576,0.576 l 0,0.228 c 0,0.348 0.06,0.576 0.576,0.576 l 0.612,0 c 0.504,0 0.576,-0.216 0.576,-0.576"
         style="stroke:none"
         id="path3475" />
      <path
         d="m 805.84442,23.0035 0,-3.324 c 0,-1.235999 -0.528,-1.728 -1.752,-1.728 -1.26,0 -1.8,0.912001 -1.956,1.236 l -0.012,0 0,-0.6 c 0,-0.383999 -0.084,-0.576 -0.576,-0.576 l -0.408,0 c -0.432,0 -0.576,0.132001 -0.576,0.576 l 0,4.416 c 0,0.432 0.132,0.576 0.576,0.576 l 0.48,0 c 0.456,0 0.576,-0.156 0.576,-0.576 l 0,-2.652 c 0,-1.043999 0.696,-1.536 1.32,-1.536 0.576,0 0.696,0.276001 0.696,0.888 l 0,3.3 c 0,0.384 0.084,0.576 0.576,0.576 l 0.48,0 c 0.456,0 0.576,-0.156 0.576,-0.576"
         style="stroke:none"
         id="path3477" />
      <path
         d="m 820.64923,23.0035 0,-3.324 c 0,-1.235999 -0.528,-1.728 -1.752,-1.728 -0.852,0 -1.512,0.396001 -1.944,1.188 -0.192,-1.151999 -1.212,-1.188 -1.716,-1.188 -0.228,0 -0.732,1e-6 -1.272,0.396 -0.372,0.276 -0.612,0.66 -0.696,0.84 l -0.012,0 0,-0.6 c 0,-0.383999 -0.084,-0.576 -0.576,-0.576 l -0.408,0 c -0.432,0 -0.576,0.132001 -0.576,0.576 l 0,4.416 c 0,0.432 0.132,0.576 0.576,0.576 l 0.48,0 c 0.456,0 0.576,-0.156 0.576,-0.576 l 0,-2.652 c 0,-1.079999 0.732,-1.536 1.32,-1.536 0.576,0 0.708,0.252001 0.708,0.888 l 0,3.3 c 0,0.432 0.132,0.576 0.576,0.576 l 0.48,0 c 0.456,0 0.576,-0.156 0.576,-0.576 l 0,-2.652 c 0,-1.079999 0.732,-1.536 1.32,-1.536 0.576,0 0.708,0.252001 0.708,0.888 l 0,3.3 c 0,0.432 0.132,0.576 0.576,0.576 l 0.48,0 c 0.456,0 0.576,-0.156 0.576,-0.576"
         style="stroke:none"
         id="path3479" />
      <path
         d="m 827.13148,20.4595 c 0,-1.547998 -0.72,-2.58 -2.508,-2.58 -1.91999,0 -2.868,1.080002 -2.868,2.904 0,1.967998 1.14001,2.928 3.024,2.928 0.456,0 1.14,-0.06 1.932,-0.456 0.264,-0.132 0.348,-0.168 0.348,-0.312 0,-0.084 -0.036,-0.432 -0.048,-0.528 -0.048,-0.371999 -0.06,-0.384 -0.168,-0.384 -0.048,0 -0.072,0 -0.204,0.12 -0.708,0.612 -1.428,0.696 -1.812,0.696 -1.35599,0 -1.5,-1.068001 -1.536,-1.836 l 3.264,0 c 0.276,0 0.576,-0.012 0.576,-0.552 m -1.332,-0.084 -2.496,0 c 0.036,-0.731999 0.276,-1.632 1.32,-1.632 0.96,0 1.14,0.696001 1.176,1.632"
         style="stroke:none"
         id="path3481" />
      <path
         d="m 833.52411,23.0035 0,-3.324 c 0,-1.235999 -0.528,-1.728 -1.752,-1.728 -1.26,0 -1.8,0.912001 -1.956,1.236 l -0.012,0 0,-0.6 c 0,-0.383999 -0.084,-0.576 -0.576,-0.576 l -0.408,0 c -0.432,0 -0.576,0.132001 -0.576,0.576 l 0,4.416 c 0,0.432 0.132,0.576 0.576,0.576 l 0.48,0 c 0.456,0 0.576,-0.156 0.576,-0.576 l 0,-2.652 c 0,-1.043999 0.696,-1.536 1.32,-1.536 0.576,0 0.696,0.276001 0.696,0.888 l 0,3.3 c 0,0.384 0.084,0.576 0.576,0.576 l 0.48,0 c 0.456,0 0.576,-0.156 0.576,-0.576"
         style="stroke:none"
         id="path3483" />
      <path
         d="m 840.25067,23.0035 0,-4.344 c 0,-0.383999 -0.084,-0.576 -0.576,-0.576 l -0.48,0 c -0.456,0 -0.576,0.156001 -0.576,0.576 l 0,2.844 c 0,0.791999 -0.42,1.476 -1.272,1.476 -0.672,0 -0.744,-0.168 -0.744,-0.804 l 0,-3.516 c 0,-0.383999 -0.084,-0.576 -0.576,-0.576 l -0.48,0 c -0.432,0 -0.576,0.132001 -0.576,0.576 l 0,3.408 c 0,1.283999 0.696,1.644 1.944,1.644 0.324,0 1.176,-1e-6 1.74,-1.02 l 0,0.312 c 0,0.384 0.084,0.576 0.576,0.576 l 0.444,0 c 0.456,0 0.576,-0.156 0.576,-0.576"
         style="stroke:none"
         id="path3485" />
    </g>
    <path
       style="fill:none"
       clip-path="url(#clipPath2)"
       d="m 754.92688,0 111.185,0 c 2.216,0 4,1.784 4,4 l 0,29.115002 c 0,2.216 -1.784,4 -4,4 l -111.185,0 c -2.216,0 -4,-1.784 -4,-4 L 750.92688,4 c 0,-2.216 1.784,-4 4,-4 z"
       id="rect26" />
  </g>
  <g
     style="font-weight:bold;stroke-linecap:butt;stroke-miterlimit:1.45000005;font-family:L M Sans10"
     id="g32"
     stroke-miterlimit="1.45"
     font-weight="bold"
     shape-rendering="geometricPrecision"
     text-rendering="optimizeQuality"
     transform="translate(-541,15)">
    <g
       clip-path="url(#clipPath2)"
       style="stroke:none"
       id="text34">
      <path
         d="m 794.59533,105.0945 c 0,-0.132 -0.048,-0.684 -0.072,-0.84 0,-0.036 -0.024,-0.156 -0.144,-0.156 -0.048,0 -0.072,0 -0.192,0.12 -0.204,0.18 -0.768,0.672 -1.752,0.672 -1.248,0 -1.248,-1.212 -1.248,-1.98 0,-0.972 0.06,-1.98 1.284,-1.98 0.78,0 1.104,0.192 1.536,0.552 0.144,0.132 0.168,0.132 0.216,0.132 0.12,0 0.144,-0.108 0.156,-0.156 0.024,-0.096 0.144,-0.768 0.144,-0.828 0,-0.108 -0.084,-0.156 -0.288,-0.252 -0.576,-0.264 -0.936,-0.383996 -1.776,-0.383996 -1.788,0 -2.904,0.840006 -2.904,2.939996 0,1.992 1.032,2.892 2.844,2.892 0.324,0 1.044,-0.012 1.848,-0.42 0.336,-0.18 0.348,-0.192 0.348,-0.312"
         style="stroke:none"
         id="path3453" />
      <path
         d="m 799.2427,100.9545 0,-0.564 c 0,-0.24 0,-0.324 -0.216,-0.324 -0.336,0 -1.212,0.12001 -1.776,1.416 l -0.012,0 0,-0.78 c 0,-0.384 -0.084,-0.576 -0.576,-0.576 l -0.384,0 c -0.432,0 -0.576,0.132 -0.576,0.576 l 0,4.416 c 0,0.432 0.132,0.576 0.576,0.576 l 0.444,0 c 0.456,0 0.576,-0.156 0.576,-0.576 l 0,-2.184 c 0,-1.14 0.948,-1.608 1.704,-1.656 0.216,-0.012 0.24,-0.012 0.24,-0.324"
         style="stroke:none"
         id="path3455" />
      <path
         d="m 805.17183,102.5745 c 0,-1.54799 -0.72,-2.579996 -2.508,-2.579996 -1.92,0 -2.868,1.080006 -2.868,2.903996 0,1.968 1.14,2.928 3.024,2.928 0.456,0 1.14,-0.06 1.932,-0.456 0.264,-0.132 0.348,-0.168 0.348,-0.312 0,-0.084 -0.036,-0.432 -0.048,-0.528 -0.048,-0.372 -0.06,-0.384 -0.168,-0.384 -0.048,0 -0.072,0 -0.204,0.12 -0.708,0.612 -1.428,0.696 -1.812,0.696 -1.356,0 -1.5,-1.068 -1.536,-1.836 l 3.264,0 c 0.276,0 0.576,-0.012 0.576,-0.552 m -1.332,-0.084 -2.496,0 c 0.036,-0.732 0.276,-1.632 1.32,-1.632 0.96,0 1.14,0.696 1.176,1.632"
         style="stroke:none"
         id="path3457" />
      <path
         d="m 811.25245,105.1185 0,-3.216 c 0,-1.89599 -1.824,-1.907996 -2.424,-1.907996 -0.564,0 -1.164,0.048 -1.968,0.383996 -0.252,0.108 -0.312,0.144 -0.312,0.276 0,0.084 0.072,0.78 0.084,0.876 0.012,0.072 0.072,0.132 0.156,0.132 0.06,0 0.096,-0.036 0.132,-0.072 0.516,-0.54 1.116,-0.804 1.86,-0.804 0.648,0 0.84,0.396 0.84,1.104 l 0,0.42 c -0.42,0 -3.564,0.024 -3.564,1.788 0,0.84 0.672,1.728 1.728,1.728 0.408,0 1.308,-0.12 1.872,-0.948 l 0,0.24 c 0,0.384 0.084,0.576 0.576,0.576 l 0.444,0 c 0.456,0 0.576,-0.156 0.576,-0.576 m -1.632,-1.272 c 0,1.116 -1.14,1.116 -1.176,1.116 -0.504,0 -0.828,-0.432 -0.828,-0.888 0,-1.176 1.668,-1.26 2.004,-1.272 l 0,1.044"
         style="stroke:none"
         id="path3459" />
      <path
         d="m 816.34514,105.1305 c 0,-0.036 -0.024,-0.12 -0.096,-0.372 -0.06,-0.24 -0.084,-0.312 -0.192,-0.312 -0.06,0 -0.072,0.012 -0.144,0.084 -0.132,0.096 -0.456,0.36 -0.96,0.36 -0.288,0 -0.468,-0.204 -0.468,-0.996 l 0,-2.832 1.068,0 c 0.144,0 0.576,0 0.576,-0.432 0,-0.432 -0.432,-0.432 -0.576,-0.432 l -1.068,0 0,-0.995996 c 0,-0.384 -0.084,-0.576 -0.576,-0.576 l -0.372,0 c -0.432,0 -0.576,0.132 -0.576,0.576 l 0,0.995996 -0.276,0 c -0.132,0 -0.576,0 -0.576,0.432 0,0.432 0.432,0.432 0.576,0.432 l 0.24,0 0,3.036 c 0,1.212 0.432,1.728 1.26,1.728 0.108,0 0.636,0 1.26,-0.192 0.204,-0.06 0.9,-0.276 0.9,-0.504"
         style="stroke:none"
         id="path3461" />
      <path
         d="m 819.0487,105.1185 0,-4.344 c 0,-0.384 -0.084,-0.576 -0.576,-0.576 l -0.444,0 c -0.432,0 -0.576,0.132 -0.576,0.576 l 0,4.344 c 0,0.432 0.132,0.576 0.576,0.576 l 0.444,0 c 0.456,0 0.576,-0.156 0.576,-0.576 m 0.084,-6.695996 0,-0.228 c 0,-0.384 -0.084,-0.576 -0.576,-0.576 l -0.612,0 c -0.456,0 -0.576,0.156 -0.576,0.576 l 0,0.228 c 0,0.347999 0.06,0.576 0.576,0.576 l 0.612,0 c 0.504,0 0.576,-0.216001 0.576,-0.576"
         style="stroke:none"
         id="path3463" />
      <path
         d="m 825.46702,100.5345 c 0,-0.336 -0.3,-0.336 -0.48,-0.336 l -0.252,0 c -0.504,0 -0.636,0.18 -0.744,0.516 l -1.188,3.624 -1.188,-3.624 c -0.084,-0.252 -0.168,-0.516 -0.744,-0.516 l -0.288,0 c -0.18,0 -0.48,0 -0.48,0.336 0,0.036 0,0.06 0.06,0.228 l 1.428,4.428 c 0.168,0.504 0.54,0.504 0.756,0.504 l 0.876,0 c 0.216,0 0.588,0 0.756,-0.504 l 1.428,-4.428 c 0.06,-0.168 0.06,-0.192 0.06,-0.228"
         style="stroke:none"
         id="path3465" />
      <path
         d="m 831.53902,102.5745 c 0,-1.54799 -0.72001,-2.579996 -2.508,-2.579996 -1.92,0 -2.868,1.080006 -2.868,2.903996 0,1.968 1.14,2.928 3.024,2.928 0.456,0 1.14,-0.06 1.932,-0.456 0.264,-0.132 0.348,-0.168 0.348,-0.312 0,-0.084 -0.036,-0.432 -0.048,-0.528 -0.048,-0.372 -0.06,-0.384 -0.168,-0.384 -0.048,0 -0.072,0 -0.204,0.12 -0.708,0.612 -1.428,0.696 -1.812,0.696 -1.356,0 -1.5,-1.068 -1.536,-1.836 l 3.264,0 c 0.276,0 0.576,-0.012 0.576,-0.552 m -1.332,-0.084 -2.496,0 c 0.036,-0.732 0.276,-1.632 1.32,-1.632 0.95999,0 1.14,0.696 1.176,1.632"
         style="stroke:none"
         id="path3467" />
    </g>
    <path
       style="fill:none"
       clip-path="url(#clipPath2)"
       d="m 754.92688,82.114998 111.185,0 c 2.216,0 4,1.784 4,4 l 0,29.115002 c 0,2.216 -1.784,4 -4,4 l -111.185,0 c -2.216,0 -4,-1.784 -4,-4 l 0,-29.115002 c 0,-2.216 1.784,-4 4,-4 z"
       id="rect36" />
  </g>
  <g
     style="font-weight:bold;stroke-linecap:butt;stroke-miterlimit:1.45000005;font-family:L M Sans10"
     id="g42"
     stroke-miterlimit="1.45"
     font-weight="bold"
     shape-rendering="geometricPrecision"
     text-rendering="optimizeQuality"
     transform="translate(-541,15)">
    <g
       clip-path="url(#clipPath2)"
       style="stroke:none"
       id="text44">
      <path
         d="m 1014.4614,105.0945 c 0,-0.132 -0.048,-0.684 -0.072,-0.84 0,-0.036 -0.024,-0.156 -0.144,-0.156 -0.048,0 -0.072,0 -0.192,0.12 -0.204,0.18 -0.768,0.672 -1.752,0.672 -1.248,0 -1.248,-1.212 -1.248,-1.98 0,-0.972 0.06,-1.98 1.284,-1.98 0.78,0 1.104,0.192 1.536,0.552 0.144,0.132 0.168,0.132 0.216,0.132 0.12,0 0.144,-0.108 0.156,-0.156 0.024,-0.096 0.144,-0.768 0.144,-0.828 0,-0.108 -0.084,-0.156 -0.288,-0.252 -0.576,-0.264 -0.936,-0.383996 -1.776,-0.383996 -1.788,0 -2.904,0.840006 -2.904,2.939996 0,1.992 1.032,2.892 2.844,2.892 0.324,0 1.044,-0.012 1.848,-0.42 0.336,-0.18 0.348,-0.192 0.348,-0.312"
         style="stroke:none"
         id="path3433" />
      <path
         d="m 1020.8368,105.1185 0,-3.324 c 0,-1.23599 -0.528,-1.728 -1.752,-1.728 -1.2,0 -1.752,0.828 -1.92,1.164 l -0.012,0 0,-3.287996 c 0,-0.384 -0.084,-0.576 -0.576,-0.576 l -0.444,0 c -0.432,0 -0.576,0.132 -0.576,0.576 l 0,7.175996 c 0,0.432 0.132,0.576 0.576,0.576 l 0.48,0 c 0.456,0 0.576,-0.156 0.576,-0.576 l 0,-2.652 c 0,-1.044 0.696,-1.536 1.32,-1.536 0.576,0 0.696,0.276 0.696,0.888 l 0,3.3 c 0,0.384 0.084,0.576 0.576,0.576 l 0.48,0 c 0.456,0 0.576,-0.156 0.576,-0.576"
         style="stroke:none"
         id="path3435" />
      <path
         d="m 1027.2514,105.1185 0,-3.216 c 0,-1.89599 -1.824,-1.907996 -2.424,-1.907996 -0.564,0 -1.164,0.048 -1.968,0.383996 -0.252,0.108 -0.312,0.144 -0.312,0.276 0,0.084 0.072,0.78 0.084,0.876 0.012,0.072 0.072,0.132 0.156,0.132 0.06,0 0.096,-0.036 0.132,-0.072 0.516,-0.54 1.116,-0.804 1.86,-0.804 0.648,0 0.84,0.396 0.84,1.104 l 0,0.42 c -0.42,0 -3.564,0.024 -3.564,1.788 0,0.84 0.672,1.728 1.728,1.728 0.408,0 1.308,-0.12 1.872,-0.948 l 0,0.24 c 0,0.384 0.084,0.576 0.576,0.576 l 0.444,0 c 0.456,0 0.576,-0.156 0.576,-0.576 m -1.632,-1.272 c 0,1.116 -1.14,1.116 -1.176,1.116 -0.504,0 -0.828,-0.432 -0.828,-0.888 0,-1.176 1.668,-1.26 2.004,-1.272 l 0,1.044"
         style="stroke:none"
         id="path3437" />
      <path
         d="m 1030.196,105.1185 0,-7.175996 c 0,-0.384 -0.084,-0.576 -0.576,-0.576 l -0.444,0 c -0.432,0 -0.576,0.132 -0.576,0.576 l 0,7.175996 c 0,0.432 0.132,0.576 0.576,0.576 l 0.444,0 c 0.456,0 0.576,-0.156 0.576,-0.576"
         style="stroke:none"
         id="path3439" />
      <path
         d="m 1033.2664,105.1185 0,-7.175996 c 0,-0.384 -0.084,-0.576 -0.576,-0.576 l -0.444,0 c -0.432,0 -0.576,0.132 -0.576,0.576 l 0,7.175996 c 0,0.432 0.132,0.576 0.576,0.576 l 0.444,0 c 0.456,0 0.576,-0.156 0.576,-0.576"
         style="stroke:none"
         id="path3441" />
      <path
         d="m 1039.7567,102.5745 c 0,-1.54799 -0.72,-2.579996 -2.508,-2.579996 -1.92,0 -2.868,1.080006 -2.868,2.903996 0,1.968 1.14,2.928 3.024,2.928 0.456,0 1.14,-0.06 1.932,-0.456 0.264,-0.132 0.348,-0.168 0.348,-0.312 0,-0.084 -0.036,-0.432 -0.048,-0.528 -0.048,-0.372 -0.06,-0.384 -0.168,-0.384 -0.048,0 -0.072,0 -0.204,0.12 -0.708,0.612 -1.428,0.696 -1.812,0.696 -1.356,0 -1.5,-1.068 -1.536,-1.836 l 3.264,0 c 0.276,0 0.576,-0.012 0.576,-0.552 m -1.332,-0.084 -2.496,0 c 0.036,-0.732 0.276,-1.632 1.32,-1.632 0.96,0 1.14,0.696 1.176,1.632"
         style="stroke:none"
         id="path3443" />
      <path
         d="m 1046.1493,105.1185 0,-3.324 c 0,-1.23599 -0.528,-1.728 -1.752,-1.728 -1.26,0 -1.8,0.912 -1.956,1.236 l -0.012,0 0,-0.6 c 0,-0.384 -0.084,-0.576 -0.576,-0.576 l -0.408,0 c -0.432,0 -0.576,0.132 -0.576,0.576 l 0,4.416 c 0,0.432 0.132,0.576 0.576,0.576 l 0.48,0 c 0.456,0 0.576,-0.156 0.576,-0.576 l 0,-2.652 c 0,-1.044 0.696,-1.536 1.32,-1.536 0.576,0 0.696,0.276 0.696,0.888 l 0,3.3 c 0,0.384 0.084,0.576 0.576,0.576 l 0.48,0 c 0.456,0 0.576,-0.156 0.576,-0.576"
         style="stroke:none"
         id="path3445" />
      <path
         d="m 1053.2839,100.8345 c 0,-0.048 -0.06,-0.336 -0.084,-0.456 -0.048,-0.288 -0.048,-0.312 -0.264,-0.312 -0.372,0 -0.972,0.144 -1.428,0.42 -0.564,-0.372 -1.188,-0.42 -1.704,-0.42 -0.504,0 -2.412,10e-6 -2.412,1.98 0,0.48 0.132,1.08 0.588,1.476 -0.324,0.444 -0.324,0.912 -0.324,0.972 0,0.228 0.072,0.624 0.324,0.948 -0.18,0.072 -0.804,0.288 -0.804,1.056 0,0.372 0.18,0.996 0.936,1.344 0.684,0.312 1.488,0.324 2.052,0.324 0.708,0 3,0 3,-1.704 0,-1.87199 -1.692,-1.872 -3.312,-1.872 l -0.576,0 c -0.432,0 -0.6,0 -0.768,-0.144 -0.048,-0.048 -0.252,-0.228 -0.252,-0.54 0,-0.084 0.012,-0.108 0.024,-0.18 0.564,0.312 1.272,0.312 1.524,0.312 0.504,0 2.412,0 2.412,-1.98 0,-0.696 -0.264,-1.116 -0.372,-1.248 0.204,0 0.624,0 1.116,0.132 0.048,0.024 0.132,0.048 0.168,0.048 0.096,0 0.156,-0.072 0.156,-0.156 m -2.604,1.212 c 0,0.66 -0.036,1.128 -0.876,1.128 -0.84,0 -0.876,-0.456 -0.876,-1.116 0,-0.66 0.036,-1.128 0.876,-1.128 0.84,0 0.876,0.456 0.876,1.116 m 1.248,4.452 c 0,0.804 -1.368,0.804 -1.752,0.804 -0.48,0 -1.764,0 -1.764,-0.84 0,-0.564 0.372,-0.564 0.648,-0.564 l 1.392,0 c 0.972,0 1.476,0.168 1.476,0.6"
         style="stroke:none"
         id="path3447" />
      <path
         d="m 1059.2332,102.5745 c 0,-1.54799 -0.72,-2.579996 -2.508,-2.579996 -1.92,0 -2.868,1.080006 -2.868,2.903996 0,1.968 1.14,2.928 3.024,2.928 0.456,0 1.14,-0.06 1.932,-0.456 0.264,-0.132 0.348,-0.168 0.348,-0.312 0,-0.084 -0.036,-0.432 -0.048,-0.528 -0.048,-0.372 -0.06,-0.384 -0.168,-0.384 -0.048,0 -0.072,0 -0.204,0.12 -0.708,0.612 -1.428,0.696 -1.812,0.696 -1.356,0 -1.5,-1.068 -1.536,-1.836 l 3.264,0 c 0.276,0 0.576,-0.012 0.576,-0.552 m -1.332,-0.084 -2.496,0 c 0.036,-0.732 0.276,-1.632 1.32,-1.632 0.96,0 1.14,0.696 1.176,1.632"
         style="stroke:none"
         id="path3449" />
    </g>
    <path
       style="fill:none"
       clip-path="url(#clipPath2)"
       d="m 978.70508,82.114998 111.18502,0 c 2.216,0 4,1.784 4,4 l 0,29.115002 c 0,2.216 -1.784,4 -4,4 l -111.18502,0 c -2.216,0 -4,-1.784 -4,-4 l 0,-29.115002 c 0,-2.216 1.784,-4 4,-4 z"
       id="rect46" />
  </g>
  <g
     style="font-weight:bold;stroke-linecap:butt;stroke-miterlimit:1.45000005;font-family:L M Sans10"
     id="g52"
     stroke-miterlimit="1.45"
     font-weight="bold"
     shape-rendering="geometricPrecision"
     text-rendering="optimizeQuality"
     transform="translate(-541,15)">
    <g
       clip-path="url(#clipPath2)"
       style="stroke:none"
       id="text54">
      <path
         d="m 1096.2839,269.93922 c 0,-0.132 -0.048,-0.68401 -0.072,-0.84 0,-0.036 -0.024,-0.156 -0.144,-0.156 -0.048,0 -0.072,0 -0.192,0.12 -0.204,0.17999 -0.768,0.672 -1.752,0.672 -1.248,0 -1.248,-1.21201 -1.248,-1.98 0,-0.972 0.06,-1.98 1.284,-1.98 0.78,0 1.104,0.192 1.536,0.552 0.144,0.13199 0.168,0.132 0.216,0.132 0.12,0 0.144,-0.108 0.156,-0.156 0.024,-0.096 0.144,-0.768 0.144,-0.828 0,-0.108 -0.084,-0.15601 -0.288,-0.252 -0.576,-0.264 -0.936,-0.384 -1.776,-0.384 -1.788,0 -2.904,0.84 -2.904,2.94 0,1.99199 1.032,2.892 2.844,2.892 0.324,0 1.044,-0.012 1.848,-0.42 0.336,-0.18 0.348,-0.19201 0.348,-0.312"
         style="stroke:none"
         id="path3417" />
      <path
         d="m 1100.9313,265.79922 0,-0.564 c 0,-0.24 0,-0.324 -0.216,-0.324 -0.336,0 -1.212,0.12 -1.776,1.416 l -0.012,0 0,-0.78 c 0,-0.384 -0.084,-0.576 -0.576,-0.576 l -0.384,0 c -0.432,0 -0.576,0.132 -0.576,0.576 l 0,4.416 c 0,0.43199 0.132,0.576 0.576,0.576 l 0.444,0 c 0.456,0 0.576,-0.15601 0.576,-0.576 l 0,-2.184 c 0,-1.14 0.948,-1.608 1.704,-1.656 0.216,-0.012 0.24,-0.012 0.24,-0.324"
         style="stroke:none"
         id="path3419" />
      <path
         d="m 1106.8604,267.41922 c 0,-1.548 -0.72,-2.58 -2.508,-2.58 -1.92,0 -2.868,1.08 -2.868,2.904 0,1.96799 1.14,2.928 3.024,2.928 0.456,0 1.14,-0.06 1.932,-0.456 0.264,-0.132 0.348,-0.16801 0.348,-0.312 0,-0.084 -0.036,-0.43201 -0.048,-0.528 -0.048,-0.372 -0.06,-0.384 -0.168,-0.384 -0.048,0 -0.072,0 -0.204,0.12 -0.708,0.61199 -1.428,0.696 -1.812,0.696 -1.356,0 -1.5,-1.06801 -1.536,-1.836 l 3.264,0 c 0.276,0 0.576,-0.012 0.576,-0.552 m -1.332,-0.084 -2.496,0 c 0.036,-0.732 0.276,-1.632 1.32,-1.632 0.96,0 1.14,0.696 1.176,1.632"
         style="stroke:none"
         id="path3421" />
      <path
         d="m 1113.2411,269.96322 0,-7.176 c 0,-0.384 -0.084,-0.576 -0.576,-0.576 l -0.444,0 c -0.456,0 -0.576,0.156 -0.576,0.576 l 0,2.724 c -0.54,-0.516 -1.14,-0.6 -1.512,-0.6 -2.436,0 -2.436,2.304 -2.436,2.892 0,0.55199 0,2.868 2.376,2.868 0.504,0 1.02,-0.14401 1.536,-0.696 0,0.44399 0.168,0.564 0.576,0.564 l 0.48,0 c 0.456,0 0.576,-0.15601 0.576,-0.576 m -1.632,-0.924 c 0,0.20399 0,0.312 -0.348,0.552 -0.3,0.19199 -0.576,0.216 -0.72,0.216 -1.212,0 -1.212,-1.10401 -1.212,-2.004 0,-0.9 0,-2.028 1.344,-2.028 0.348,0 0.672,0.12 0.936,0.372 l 0,2.892"
         style="stroke:none"
         id="path3423" />
      <path
         d="m 1116.3076,269.96322 0,-4.344 c 0,-0.384 -0.084,-0.576 -0.576,-0.576 l -0.444,0 c -0.432,0 -0.576,0.132 -0.576,0.576 l 0,4.344 c 0,0.43199 0.132,0.576 0.576,0.576 l 0.444,0 c 0.456,0 0.576,-0.15601 0.576,-0.576 m 0.084,-6.696 0,-0.228 c 0,-0.384 -0.084,-0.576 -0.576,-0.576 l -0.612,0 c -0.456,0 -0.576,0.156 -0.576,0.576 l 0,0.228 c 0,0.34799 0.06,0.576 0.576,0.576 l 0.612,0 c 0.504,0 0.576,-0.21601 0.576,-0.576"
         style="stroke:none"
         id="path3425" />
      <path
         d="m 1121.5259,269.97522 c 0,-0.036 -0.024,-0.12001 -0.096,-0.372 -0.06,-0.24 -0.084,-0.312 -0.192,-0.312 -0.06,0 -0.072,0.012 -0.144,0.084 -0.132,0.096 -0.456,0.36 -0.96,0.36 -0.288,0 -0.468,-0.20401 -0.468,-0.996 l 0,-2.832 1.068,0 c 0.144,0 0.576,-10e-6 0.576,-0.432 0,-0.432 -0.432,-0.432 -0.576,-0.432 l -1.068,0 0,-0.996 c 0,-0.384 -0.084,-0.576 -0.576,-0.576 l -0.372,0 c -0.432,0 -0.576,0.132 -0.576,0.576 l 0,0.996 -0.276,0 c -0.132,0 -0.576,0 -0.576,0.432 0,0.43199 0.432,0.432 0.576,0.432 l 0.24,0 0,3.036 c 0,1.21199 0.432,1.728 1.26,1.728 0.108,0 0.636,-1e-5 1.26,-0.192 0.204,-0.06 0.9,-0.27601 0.9,-0.504"
         style="stroke:none"
         id="path3427" />
      <path
         d="m 1126.6535,268.84722 c 0,-0.672 -0.36,-1.09201 -0.576,-1.284 -0.48,-0.432 -0.9,-0.50401 -1.404,-0.6 -0.66,-0.12 -1.14,-0.21601 -1.14,-0.684 0,-0.492 0.396,-0.588 0.864,-0.588 0.804,0 1.236,0.3 1.548,0.564 0.12,0.11999 0.144,0.12 0.192,0.12 0.12,0 0.144,-0.108 0.156,-0.156 0.024,-0.096 0.144,-0.768 0.144,-0.828 0,-0.192 -0.636,-0.36 -0.768,-0.408 -0.48,-0.132 -0.864,-0.144 -1.176,-0.144 -0.54,0 -2.148,0 -2.148,1.716 0,0.58799 0.264,0.948 0.588,1.236 0.42,0.38399 0.888,0.468 1.572,0.6 0.348,0.06 0.96,0.168 0.96,0.696 0,0.56399 -0.468,0.648 -0.936,0.648 -0.528,0 -1.2,-0.15601 -1.764,-0.828 -0.06,-0.06 -0.096,-0.096 -0.168,-0.096 -0.12,0 -0.144,0.108 -0.156,0.18 -0.024,0.16799 -0.168,0.852 -0.168,0.972 0,0.21599 0.9,0.504 0.9,0.504 0.66,0.20399 1.152,0.204 1.356,0.204 0.612,0 2.124,-0.048 2.124,-1.824"
         style="stroke:none"
         id="path3429" />
    </g>
    <path
       style="fill:none"
       clip-path="url(#clipPath2)"
       d="m 1053.2976,246.95959 111.185,0 c 2.216,0 4,1.784 4,4 l 0,29.11501 c 0,2.216 -1.784,4 -4,4 l -111.185,0 c -2.216,0 -4,-1.784 -4,-4 l 0,-29.11501 c 0,-2.216 1.784,-4 4,-4 z"
       id="rect56" />
  </g>
  <g
     style="font-weight:bold;stroke-linecap:butt;stroke-miterlimit:1.45000005;font-family:L M Sans10"
     id="g62"
     stroke-miterlimit="1.45"
     font-weight="bold"
     shape-rendering="geometricPrecision"
     text-rendering="optimizeQuality"
     transform="translate(-541,15)">
    <g
       clip-path="url(#clipPath2)"
       style="stroke:none"
       id="text64">
      <path
         d="m 943.2766,403.76451 c 0,-0.672 -0.36,-1.092 -0.576,-1.284 -0.48,-0.432 -0.9,-0.504 -1.404,-0.6 -0.66,-0.12 -1.14,-0.216 -1.14,-0.684 0,-0.492 0.396,-0.588 0.864,-0.588 0.804,0 1.236,0.3 1.548,0.564 0.12,0.12 0.144,0.12 0.192,0.12 0.12,0 0.144,-0.108 0.156,-0.156 0.024,-0.096 0.144,-0.768 0.144,-0.828 0,-0.192 -0.636,-0.36 -0.768,-0.408 -0.48,-0.132 -0.864,-0.144 -1.176,-0.144 -0.54,0 -2.148,0 -2.148,1.716 0,0.588 0.264,0.948 0.588,1.236 0.42,0.384 0.888,0.468 1.572,0.6 0.348,0.06 0.96,0.168 0.96,0.696 0,0.564 -0.468,0.648 -0.936,0.648 -0.528,0 -1.2,-0.156 -1.764,-0.828 -0.06,-0.06 -0.096,-0.096 -0.168,-0.096 -0.12,0 -0.144,0.108 -0.156,0.18 -0.024,0.168 -0.168,0.852 -0.168,0.972 0,0.216 0.9,0.504 0.9,0.504 0.66,0.204 1.152,0.204 1.356,0.204 0.612,0 2.124,-0.048 2.124,-1.824"
         style="stroke:none"
         id="path3399" />
      <path
         d="m 949.3351,402.33651 c 0,-1.548 -0.72,-2.58 -2.508,-2.58 -1.92,0 -2.868,1.08 -2.868,2.904 0,1.968 1.14,2.928 3.024,2.928 0.456,0 1.14,-0.06 1.932,-0.456 0.264,-0.132 0.348,-0.168 0.348,-0.312 0,-0.084 -0.036,-0.432 -0.048,-0.528 -0.048,-0.372 -0.06,-0.384 -0.168,-0.384 -0.048,0 -0.072,0 -0.204,0.12 -0.708,0.612 -1.428,0.696 -1.812,0.696 -1.356,0 -1.5,-1.068 -1.536,-1.836 l 3.264,0 c 0.276,0 0.576,-0.012 0.576,-0.552 m -1.332,-0.084 -2.496,0 c 0.036,-0.732 0.276,-1.632 1.32,-1.632 0.96,0 1.14,0.696 1.176,1.632"
         style="stroke:none"
         id="path3401" />
      <path
         d="m 954.20372,404.89251 c 0,-0.036 -0.024,-0.12 -0.096,-0.372 -0.06,-0.24 -0.084,-0.312 -0.192,-0.312 -0.06,0 -0.072,0.012 -0.144,0.084 -0.132,0.096 -0.456,0.36 -0.96,0.36 -0.288,0 -0.468,-0.204 -0.468,-0.996 l 0,-2.832 1.068,0 c 0.144,0 0.576,0 0.576,-0.432 0,-0.432 -0.432,-0.432 -0.576,-0.432 l -1.068,0 0,-0.996 c 0,-0.384 -0.084,-0.576 -0.576,-0.576 l -0.372,0 c -0.432,0 -0.576,0.132 -0.576,0.576 l 0,0.996 -0.276,0 c -0.132,0 -0.576,0 -0.576,0.432 0,0.432 0.432,0.432 0.576,0.432 l 0.24,0 0,3.036 c 0,1.212 0.432,1.728 1.26,1.728 0.108,0 0.636,0 1.26,-0.192 0.204,-0.06 0.9,-0.276 0.9,-0.504"
         style="stroke:none"
         id="path3403" />
      <path
         d="m 959.05528,404.89251 c 0,-0.036 -0.024,-0.12 -0.096,-0.372 -0.06,-0.24 -0.084,-0.312 -0.192,-0.312 -0.06,0 -0.072,0.012 -0.144,0.084 -0.132,0.096 -0.456,0.36 -0.96,0.36 -0.288,0 -0.468,-0.204 -0.468,-0.996 l 0,-2.832 1.068,0 c 0.144,0 0.576,0 0.576,-0.432 0,-0.432 -0.432,-0.432 -0.576,-0.432 l -1.068,0 0,-0.996 c 0,-0.384 -0.084,-0.576 -0.576,-0.576 l -0.372,0 c -0.43199,0 -0.576,0.132 -0.576,0.576 l 0,0.996 -0.276,0 c -0.132,0 -0.576,0 -0.576,0.432 0,0.432 0.432,0.432 0.576,0.432 l 0.24,0 0,3.036 c 0,1.212 0.43201,1.728 1.26,1.728 0.108,0 0.63601,0 1.26,-0.192 0.204,-0.06 0.9,-0.276 0.9,-0.504"
         style="stroke:none"
         id="path3405" />
      <path
         d="m 961.75885,404.88051 0,-4.344 c 0,-0.384 -0.084,-0.576 -0.576,-0.576 l -0.444,0 c -0.432,0 -0.576,0.132 -0.576,0.576 l 0,4.344 c 0,0.432 0.132,0.576 0.576,0.576 l 0.444,0 c 0.456,0 0.576,-0.156 0.576,-0.576 m 0.084,-6.696 0,-0.228 c 0,-0.384 -0.084,-0.576 -0.576,-0.576 l -0.612,0 c -0.456,0 -0.576,0.156 -0.576,0.576 l 0,0.228 c 0,0.348 0.06,0.576 0.576,0.576 l 0.612,0 c 0.504,0 0.576,-0.216 0.576,-0.576"
         style="stroke:none"
         id="path3407" />
      <path
         d="m 968.50116,404.88051 0,-3.324 c 0,-1.236 -0.528,-1.728 -1.752,-1.728 -1.26,0 -1.8,0.912 -1.956,1.236 l -0.012,0 0,-0.6 c 0,-0.384 -0.084,-0.576 -0.576,-0.576 l -0.408,0 c -0.432,0 -0.576,0.132 -0.576,0.576 l 0,4.416 c 0,0.432 0.132,0.576 0.576,0.576 l 0.48,0 c 0.456,0 0.576,-0.156 0.576,-0.576 l 0,-2.652 c 0,-1.044 0.696,-1.536 1.32,-1.536 0.576,0 0.696,0.276 0.696,0.888 l 0,3.3 c 0,0.384 0.084,0.576 0.576,0.576 l 0.48,0 c 0.456,0 0.576,-0.156 0.576,-0.576"
         style="stroke:none"
         id="path3409" />
      <path
         d="m 975.63572,400.59651 c 0,-0.048 -0.06,-0.336 -0.084,-0.456 -0.048,-0.288 -0.048,-0.312 -0.264,-0.312 -0.372,0 -0.972,0.144 -1.428,0.42 -0.564,-0.372 -1.188,-0.42 -1.704,-0.42 -0.504,0 -2.412,0 -2.412,1.98 0,0.48 0.132,1.08 0.588,1.476 -0.324,0.444 -0.324,0.912 -0.324,0.972 0,0.228 0.072,0.624 0.324,0.948 -0.18,0.072 -0.804,0.288 -0.804,1.056 0,0.372 0.18,0.996 0.936,1.344 0.684,0.312 1.488,0.324 2.052,0.324 0.708,0 3,0 3,-1.704 0,-1.872 -1.692,-1.872 -3.312,-1.872 l -0.576,0 c -0.432,0 -0.6,0 -0.768,-0.144 -0.048,-0.048 -0.252,-0.228 -0.252,-0.54 0,-0.084 0.012,-0.108 0.024,-0.18 0.564,0.312 1.272,0.312 1.524,0.312 0.504,0 2.412,0 2.412,-1.98 0,-0.696 -0.264,-1.116 -0.372,-1.248 0.204,0 0.624,0 1.116,0.132 0.048,0.024 0.132,0.048 0.168,0.048 0.096,0 0.156,-0.072 0.156,-0.156 m -2.604,1.212 c 0,0.66 -0.036,1.128 -0.876,1.128 -0.84,0 -0.876,-0.456 -0.876,-1.116 0,-0.66 0.036,-1.128 0.876,-1.128 0.84,0 0.876,0.456 0.876,1.116 m 1.248,4.452 c 0,0.804 -1.368,0.804 -1.752,0.804 -0.48,0 -1.764,0 -1.764,-0.84 0,-0.564 0.372,-0.564 0.648,-0.564 l 1.392,0 c 0.972,0 1.476,0.168 1.476,0.6"
         style="stroke:none"
         id="path3411" />
      <path
         d="m 980.5891,403.76451 c 0,-0.672 -0.36,-1.092 -0.576,-1.284 -0.48,-0.432 -0.9,-0.504 -1.404,-0.6 -0.66,-0.12 -1.14,-0.216 -1.14,-0.684 0,-0.492 0.396,-0.588 0.864,-0.588 0.804,0 1.236,0.3 1.548,0.564 0.12,0.12 0.144,0.12 0.192,0.12 0.12,0 0.144,-0.108 0.156,-0.156 0.024,-0.096 0.144,-0.768 0.144,-0.828 0,-0.192 -0.636,-0.36 -0.768,-0.408 -0.48,-0.132 -0.864,-0.144 -1.176,-0.144 -0.54,0 -2.148,0 -2.148,1.716 0,0.588 0.264,0.948 0.588,1.236 0.42,0.384 0.888,0.468 1.572,0.6 0.348,0.06 0.96,0.168 0.96,0.696 0,0.564 -0.468,0.648 -0.936,0.648 -0.528,0 -1.2,-0.156 -1.764,-0.828 -0.06,-0.06 -0.096,-0.096 -0.168,-0.096 -0.12,0 -0.144,0.108 -0.156,0.18 -0.024,0.168 -0.168,0.852 -0.168,0.972 0,0.216 0.9,0.504 0.9,0.504 0.66,0.204 1.152,0.204 1.356,0.204 0.612,0 2.124,-0.048 2.124,-1.824"
         style="stroke:none"
         id="path3413" />
    </g>
    <path
       style="fill:none"
       clip-path="url(#clipPath2)"
       d="m 904.1123,381.87689 111.185,0 c 2.216,0 4,1.784 4,4 l 0,29.115 c 0,2.216 -1.784,4 -4,4 l -111.185,0 c -2.216,0 -4,-1.784 -4,-4 l 0,-29.115 c 0,-2.216 1.784,-4 4,-4 z"
       id="rect66" />
  </g>
  <g
     style="font-weight:bold;stroke-linecap:butt;stroke-miterlimit:1.45000005;font-family:L M Sans10"
     id="g72"
     stroke-miterlimit="1.45"
     font-weight="bold"
     shape-rendering="geometricPrecision"
     text-rendering="optimizeQuality"
     transform="translate(-541,15)">
    <g
       clip-path="url(#clipPath2)"
       style="stroke:none"
       id="text74">
      <path
         d="m 805.62341,178.6475 0,-3.324 c 0,-1.236 -0.528,-1.728 -1.752,-1.728 -1.26,0 -1.8,0.912 -1.956,1.236 l -0.012,0 0,-0.6 c 0,-0.384 -0.084,-0.576 -0.576,-0.576 l -0.408,0 c -0.432,0 -0.576,0.132 -0.576,0.576 l 0,4.416 c 0,0.432 0.132,0.576 0.576,0.576 l 0.48,0 c 0.456,0 0.576,-0.156 0.576,-0.576 l 0,-2.652 c 0,-1.044 0.696,-1.536 1.32,-1.536 0.576,0 0.696,0.276 0.696,0.888 l 0,3.3 c 0,0.384 0.084,0.576 0.576,0.576 l 0.48,0 c 0.456,0 0.576,-0.156 0.576,-0.576"
         style="stroke:none"
         id="path3382" />
      <path
         d="m 812.09798,176.1035 c 0,-1.548 -0.72001,-2.58 -2.508,-2.58 -1.92,0 -2.868,1.08 -2.868,2.904 0,1.96799 1.14,2.928 3.024,2.928 0.456,0 1.14,-0.06 1.932,-0.456 0.264,-0.132 0.348,-0.168 0.348,-0.312 0,-0.084 -0.036,-0.432 -0.048,-0.528 -0.048,-0.372 -0.06,-0.384 -0.168,-0.384 -0.048,0 -0.072,0 -0.204,0.12 -0.708,0.61199 -1.428,0.696 -1.812,0.696 -1.356,0 -1.5,-1.06801 -1.536,-1.836 l 3.264,0 c 0.276,0 0.576,-0.012 0.576,-0.552 m -1.332,-0.084 -2.496,0 c 0.036,-0.732 0.276,-1.632 1.32,-1.632 0.95999,0 1.14,0.696 1.176,1.632"
         style="stroke:none"
         id="path3384" />
      <path
         d="m 821.1186,174.0635 c -0.036,-0.336 -0.252,-0.336 -0.624,-0.336 -0.564,0 -0.708,0.036 -0.876,0.66 l -0.972,3.48 -1.02,-3.6 c -0.072,-0.264 -0.156,-0.54 -0.708,-0.54 -0.18,0 -0.456,0 -0.624,0.276 -0.108,0.18 -0.636,2.256 -1.056,3.66 l -0.96,-3.396 c -0.12,-0.408 -0.252,-0.54 -0.744,-0.54 l -0.24,0 c -0.228,0 -0.48,0 -0.516,0.336 l 1.272,4.608 c 0.156,0.55199 0.468,0.552 0.768,0.552 l 0.336,0 c 0.564,0 0.66,-0.18 0.792,-0.66 0.276,-0.996 0.708,-2.50801 0.756,-3.132 l 0.012,-0.012 c 0.072,0.68399 0.6,2.58 0.756,3.144 0.132,0.432 0.192,0.66 0.792,0.66 l 0.816,0 c 0.516,0 0.636,-0.144 0.756,-0.552 l 1.284,-4.608"
         style="stroke:none"
         id="path3386" />
    </g>
    <g
       clip-path="url(#clipPath2)"
       style="stroke:none"
       id="text76">
      <path
         d="m 804.20729,196.1316 c 0,0 0,-0.108 -0.12,-0.264 l -2.088,-2.736 1.848,-1.716 c 0.144,-0.132 0.18,-0.168 0.18,-0.264 0,-0.252 -0.24,-0.252 -0.408,-0.252 l -0.696,0 c -0.216,0 -0.444,0 -0.72,0.252 l -1.728,1.608 0,-4.116 c 0,-0.384 -0.084,-0.576 -0.576,-0.576 l -0.252,0 c -0.432,0 -0.576,0.132 -0.576,0.576 l 0,7.176 c 0,0.432 0.132,0.576 0.576,0.576 l 0.216,0 c 0.456,0 0.576,-0.156 0.576,-0.576 l 0,-1.248 c 0.192,-0.168 0.372,-0.348 0.564,-0.516 l 1.56,2.04 c 0.204,0.264 0.288,0.3 0.636,0.3 l 0.576,0 c 0.168,0 0.432,0 0.432,-0.264"
         style="stroke:none"
         id="path3389" />
      <path
         d="m 810.61829,195.8196 0,-3.324 c 0,-1.236 -0.52801,-1.728 -1.752,-1.728 -1.26,0 -1.8,0.912 -1.956,1.236 l -0.012,0 0,-0.6 c 0,-0.384 -0.084,-0.576 -0.576,-0.576 l -0.408,0 c -0.432,0 -0.576,0.132 -0.576,0.576 l 0,4.416 c 0,0.432 0.132,0.576 0.576,0.576 l 0.48,0 c 0.456,0 0.576,-0.156 0.576,-0.576 l 0,-2.652 c 0,-1.044 0.696,-1.536 1.32,-1.536 0.576,0 0.696,0.276 0.696,0.888 l 0,3.3 c 0,0.384 0.084,0.576 0.576,0.576 l 0.48,0 c 0.456,0 0.576,-0.156 0.576,-0.576"
         style="stroke:none"
         id="path3391" />
      <path
         d="m 817.56085,193.6956 c 0,-1.968 -0.96,-3 -2.916,-3 -2.004,0 -2.928,1.068 -2.928,3 0,1.956 1.032,2.832 2.916,2.832 1.884,0 2.928,-0.864 2.928,-2.832 m -1.632,-0.144 c 0,0.948 0,2.04 -1.284,2.04 -1.296,0 -1.296,-1.08 -1.296,-2.04 0,-0.924 0,-1.992 1.284,-1.992 1.296,0 1.296,1.056 1.296,1.992"
         style="stroke:none"
         id="path3393" />
      <path
         d="m 822.43022,195.8316 c 0,-0.036 -0.024,-0.12 -0.096,-0.372 -0.06,-0.24 -0.084,-0.312 -0.192,-0.312 -0.06,0 -0.072,0.012 -0.144,0.084 -0.132,0.096 -0.456,0.36 -0.96,0.36 -0.288,0 -0.468,-0.204 -0.468,-0.996 l 0,-2.832 1.068,0 c 0.144,0 0.576,0 0.576,-0.432 0,-0.432 -0.432,-0.432 -0.576,-0.432 l -1.068,0 0,-0.996 c 0,-0.384 -0.084,-0.576 -0.576,-0.576 l -0.372,0 c -0.432,0 -0.576,0.132 -0.576,0.576 l 0,0.996 -0.276,0 c -0.132,0 -0.576,0 -0.576,0.432 0,0.432 0.432,0.432 0.576,0.432 l 0.24,0 0,3.036 c 0,1.212 0.432,1.728 1.26,1.728 0.108,0 0.636,0 1.26,-0.192 0.204,-0.06 0.9,-0.276 0.9,-0.504"
         style="stroke:none"
         id="path3395" />
    </g>
    <path
       style="fill:none"
       clip-path="url(#clipPath2)"
       d="m 754.92688,164.23 111.185,0 c 2.216,0 4,1.784 4,4 l 0,29.115 c 0,2.216 -1.784,4 -4,4 l -111.185,0 c -2.216,0 -4,-1.784 -4,-4 l 0,-29.115 c 0,-2.216 1.784,-4 4,-4 z"
       id="rect78" />
  </g>
  <g
     style="font-weight:bold;stroke-linecap:butt;stroke-miterlimit:1.45000005;font-family:L M Sans10"
     id="g84"
     stroke-miterlimit="1.45"
     font-weight="bold"
     shape-rendering="geometricPrecision"
     text-rendering="optimizeQuality"
     transform="translate(-541,15)">
    <g
       clip-path="url(#clipPath2)"
       style="stroke:none"
       id="text86">
      <path
         d="m 656.43799,178.6475 0,-3.324 c 0,-1.236 -0.528,-1.728 -1.752,-1.728 -1.26,0 -1.8,0.912 -1.956,1.236 l -0.012,0 0,-0.6 c 0,-0.384 -0.084,-0.576 -0.576,-0.576 l -0.408,0 c -0.432,0 -0.576,0.132 -0.576,0.576 l 0,4.416 c 0,0.432 0.132,0.576 0.576,0.576 l 0.48,0 c 0.456,0 0.576,-0.156 0.576,-0.576 l 0,-2.652 c 0,-1.044 0.696,-1.536 1.32,-1.536 0.576,0 0.696,0.276 0.696,0.888 l 0,3.3 c 0,0.384 0.084,0.576 0.576,0.576 l 0.48,0 c 0.456,0 0.576,-0.156 0.576,-0.576"
         style="stroke:none"
         id="path3355" />
      <path
         d="m 662.91255,176.1035 c 0,-1.548 -0.72,-2.58 -2.508,-2.58 -1.92,0 -2.868,1.08 -2.868,2.904 0,1.96799 1.14,2.928 3.024,2.928 0.456,0 1.14,-0.06 1.932,-0.456 0.264,-0.132 0.348,-0.168 0.348,-0.312 0,-0.084 -0.036,-0.432 -0.048,-0.528 -0.048,-0.372 -0.06,-0.384 -0.168,-0.384 -0.048,0 -0.072,0 -0.204,0.12 -0.708,0.61199 -1.428,0.696 -1.812,0.696 -1.356,0 -1.5,-1.06801 -1.536,-1.836 l 3.264,0 c 0.276,0 0.576,-0.012 0.576,-0.552 m -1.332,-0.084 -2.496,0 c 0.036,-0.732 0.276,-1.632 1.32,-1.632 0.96,0 1.14,0.696 1.176,1.632"
         style="stroke:none"
         id="path3357" />
      <path
         d="m 671.93318,174.0635 c -0.036,-0.336 -0.252,-0.336 -0.624,-0.336 -0.564,0 -0.708,0.036 -0.876,0.66 l -0.972,3.48 -1.02,-3.6 c -0.072,-0.264 -0.156,-0.54 -0.708,-0.54 -0.18,0 -0.456,0 -0.624,0.276 -0.108,0.18 -0.636,2.256 -1.056,3.66 l -0.96,-3.396 c -0.12,-0.408 -0.252,-0.54 -0.744,-0.54 l -0.24,0 c -0.228,0 -0.48,0 -0.516,0.336 l 1.272,4.608 c 0.156,0.55199 0.468,0.552 0.768,0.552 l 0.336,0 c 0.564,0 0.66,-0.18 0.792,-0.66 0.276,-0.996 0.708,-2.50801 0.756,-3.132 l 0.012,-0.012 c 0.072,0.68399 0.6,2.58 0.756,3.144 0.132,0.432 0.192,0.66 0.792,0.66 l 0.816,0 c 0.516,0 0.636,-0.144 0.756,-0.552 l 1.284,-4.608"
         style="stroke:none"
         id="path3359" />
    </g>
    <g
       clip-path="url(#clipPath2)"
       style="stroke:none"
       id="text88">
      <path
         d="m 642.48192,195.6996 -0.096,-1.032 c 0,-0.072 -0.072,-0.132 -0.144,-0.132 -0.036,0 -0.06,0.012 -0.096,0.024 -0.324,0.252 -0.672,0.492 -1.068,0.624 -0.396,0.132 -0.816,0.144 -1.224,0.144 -0.744,0 -1.488,-0.204 -1.968,-0.756 -0.54,-0.636 -0.66,-1.5 -0.66,-2.34 0,-0.84 0.12,-1.704 0.66,-2.34 0.48,-0.564 1.224,-0.768 1.968,-0.768 0.36,0 0.732,0.048 1.08,0.18 0.348,0.132 0.648,0.336 0.924,0.588 0.024,0.024 0.06,0.036 0.096,0.036 0.084,0 0.144,-0.06 0.156,-0.12 l 0.228,-1.284 c 0,-0.096 -0.048,-0.144 -0.096,-0.168 -0.384,-0.144 -0.78,-0.264 -1.176,-0.336 -0.408,-0.072 -0.816,-0.096 -1.212,-0.096 -1.2,0 -2.436,0.252 -3.288,1.08 -0.84,0.828 -1.104,2.04 -1.104,3.228 0,1.176 0.264,2.388 1.104,3.216 0.852,0.84 2.088,1.08 3.288,1.08 0.444,0 0.9,-0.012 1.332,-0.132 0.432,-0.12 0.828,-0.324 1.224,-0.552 0.036,-0.024 0.072,-0.072 0.072,-0.144"
         style="stroke:none"
         id="path3362" />
      <path
         d="m 649.16742,195.8196 0,-3.324 c 0,-1.236 -0.528,-1.728 -1.752,-1.728 -1.2,0 -1.752,0.828 -1.92,1.164 l -0.012,0 0,-3.288 c 0,-0.384 -0.084,-0.576 -0.576,-0.576 l -0.444,0 c -0.432,0 -0.576,0.132 -0.576,0.576 l 0,7.176 c 0,0.432 0.132,0.576 0.576,0.576 l 0.48,0 c 0.456,0 0.576,-0.156 0.576,-0.576 l 0,-2.652 c 0,-1.044 0.696,-1.536 1.32,-1.536 0.576,0 0.696,0.276 0.696,0.888 l 0,3.3 c 0,0.384 0.084,0.576 0.576,0.576 l 0.48,0 c 0.456,0 0.576,-0.156 0.576,-0.576"
         style="stroke:none"
         id="path3364" />
      <path
         d="m 655.58198,195.8196 0,-3.216 c 0,-1.896 -1.824,-1.908 -2.424,-1.908 -0.564,0 -1.164,0.048 -1.968,0.384 -0.252,0.108 -0.312,0.144 -0.312,0.276 0,0.084 0.072,0.78 0.084,0.876 0.012,0.072 0.072,0.132 0.156,0.132 0.06,0 0.096,-0.036 0.132,-0.072 0.516,-0.54 1.116,-0.804 1.86,-0.804 0.648,0 0.84,0.396 0.84,1.104 l 0,0.42 c -0.42,0 -3.564,0.024 -3.564,1.788 0,0.84 0.672,1.728 1.728,1.728 0.408,0 1.308,-0.12 1.872,-0.948 l 0,0.24 c 0,0.384 0.084,0.576 0.576,0.576 l 0.444,0 c 0.456,0 0.576,-0.156 0.576,-0.576 m -1.632,-1.272 c 0,1.116 -1.14,1.116 -1.176,1.116 -0.504,0 -0.828,-0.432 -0.828,-0.888 0,-1.176 1.668,-1.26 2.004,-1.272 l 0,1.044"
         style="stroke:none"
         id="path3366" />
      <path
         d="m 658.52667,195.8196 0,-7.176 c 0,-0.384 -0.084,-0.576 -0.576,-0.576 l -0.444,0 c -0.432,0 -0.576,0.132 -0.576,0.576 l 0,7.176 c 0,0.432 0.132,0.576 0.576,0.576 l 0.444,0 c 0.456,0 0.576,-0.156 0.576,-0.576"
         style="stroke:none"
         id="path3368" />
      <path
         d="m 661.59698,195.8196 0,-7.176 c 0,-0.384 -0.084,-0.576 -0.576,-0.576 l -0.444,0 c -0.432,0 -0.576,0.132 -0.576,0.576 l 0,7.176 c 0,0.432 0.132,0.576 0.576,0.576 l 0.444,0 c 0.456,0 0.576,-0.156 0.576,-0.576"
         style="stroke:none"
         id="path3370" />
      <path
         d="m 668.08729,193.2756 c 0,-1.548 -0.72,-2.58 -2.508,-2.58 -1.91999,0 -2.868,1.08 -2.868,2.904 0,1.968 1.14001,2.928 3.024,2.928 0.456,0 1.14001,-0.06 1.932,-0.456 0.264,-0.132 0.348,-0.168 0.348,-0.312 0,-0.084 -0.036,-0.432 -0.048,-0.528 -0.048,-0.372 -0.06,-0.384 -0.168,-0.384 -0.048,0 -0.072,0 -0.204,0.12 -0.70799,0.612 -1.428,0.696 -1.812,0.696 -1.35599,0 -1.5,-1.068 -1.536,-1.836 l 3.264,0 c 0.276,0 0.576,-0.012 0.576,-0.552 m -1.332,-0.084 -2.496,0 c 0.036,-0.732 0.27601,-1.632 1.32,-1.632 0.96,0 1.14,0.696 1.176,1.632"
         style="stroke:none"
         id="path3372" />
      <path
         d="m 674.47992,195.8196 0,-3.324 c 0,-1.236 -0.528,-1.728 -1.752,-1.728 -1.26,0 -1.8,0.912 -1.956,1.236 l -0.012,0 0,-0.6 c 0,-0.384 -0.084,-0.576 -0.576,-0.576 l -0.408,0 c -0.432,0 -0.576,0.132 -0.576,0.576 l 0,4.416 c 0,0.432 0.132,0.576 0.576,0.576 l 0.48,0 c 0.456,0 0.576,-0.156 0.576,-0.576 l 0,-2.652 c 0,-1.044 0.696,-1.536 1.32,-1.536 0.576,0 0.696,0.276 0.696,0.888 l 0,3.3 c 0,0.384 0.084,0.576 0.576,0.576 l 0.48,0 c 0.456,0 0.576,-0.156 0.576,-0.576"
         style="stroke:none"
         id="path3374" />
      <path
         d="m 681.61448,191.5356 c 0,-0.048 -0.06,-0.336 -0.084,-0.456 -0.048,-0.288 -0.048,-0.312 -0.264,-0.312 -0.372,0 -0.972,0.144 -1.428,0.42 -0.564,-0.372 -1.188,-0.42 -1.704,-0.42 -0.504,0 -2.412,0 -2.412,1.98 0,0.48 0.132,1.08 0.588,1.476 -0.324,0.444 -0.324,0.912 -0.324,0.972 0,0.228 0.072,0.624 0.324,0.948 -0.18,0.072 -0.804,0.288 -0.804,1.056 0,0.372 0.18,0.996 0.936,1.344 0.684,0.312 1.488,0.324 2.052,0.324 0.708,0 3,0 3,-1.704 0,-1.872 -1.692,-1.872 -3.312,-1.872 l -0.576,0 c -0.432,0 -0.6,0 -0.768,-0.144 -0.048,-0.048 -0.252,-0.228 -0.252,-0.54 0,-0.084 0.012,-0.108 0.024,-0.18 0.564,0.312 1.272,0.312 1.524,0.312 0.504,0 2.412,0 2.412,-1.98 0,-0.696 -0.264,-1.116 -0.372,-1.248 0.204,0 0.624,0 1.116,0.132 0.048,0.024 0.132,0.048 0.168,0.048 0.096,0 0.156,-0.072 0.156,-0.156 m -2.604,1.212 c 0,0.66 -0.036,1.128 -0.876,1.128 -0.84,0 -0.876,-0.456 -0.876,-1.116 0,-0.66 0.036,-1.128 0.876,-1.128 0.84,0 0.876,0.456 0.876,1.116 m 1.248,4.452 c 0,0.804 -1.368,0.804 -1.752,0.804 -0.48,0 -1.764,0 -1.764,-0.84 0,-0.564 0.372,-0.564 0.648,-0.564 l 1.392,0 c 0.972,0 1.476,0.168 1.476,0.6"
         style="stroke:none"
         id="path3376" />
      <path
         d="m 687.56386,193.2756 c 0,-1.548 -0.72,-2.58 -2.508,-2.58 -1.92,0 -2.868,1.08 -2.868,2.904 0,1.968 1.14,2.928 3.024,2.928 0.456,0 1.14,-0.06 1.932,-0.456 0.264,-0.132 0.348,-0.168 0.348,-0.312 0,-0.084 -0.036,-0.432 -0.048,-0.528 -0.048,-0.372 -0.06,-0.384 -0.168,-0.384 -0.048,0 -0.072,0 -0.204,0.12 -0.708,0.612 -1.428,0.696 -1.812,0.696 -1.356,0 -1.5,-1.068 -1.536,-1.836 l 3.264,0 c 0.276,0 0.576,-0.012 0.576,-0.552 m -1.332,-0.084 -2.496,0 c 0.036,-0.732 0.276,-1.632 1.32,-1.632 0.96,0 1.14,0.696 1.176,1.632"
         style="stroke:none"
         id="path3378" />
    </g>
    <path
       style="fill:none"
       clip-path="url(#clipPath2)"
       d="m 605.74158,164.23 111.18499,0 c 2.216,0 4,1.784 4,4 l 0,29.115 c 0,2.216 -1.784,4 -4,4 l -111.18499,0 c -2.216,0 -4,-1.784 -4,-4 l 0,-29.115 c 0,-2.216 1.784,-4 4,-4 z"
       id="rect90" />
  </g>
  <g
     style="font-weight:bold;stroke-linecap:butt;stroke-miterlimit:1.45000005;font-family:L M Sans10"
     id="g96"
     stroke-miterlimit="1.45"
     font-weight="bold"
     shape-rendering="geometricPrecision"
     text-rendering="optimizeQuality"
     transform="translate(-541,15)">
    <g
       clip-path="url(#clipPath2)"
       style="stroke:none"
       id="text98">
      <path
         d="m 950.68072,187.23349 0,-7.176 c 0,-0.384 -0.084,-0.576 -0.576,-0.576 l -0.444,0 c -0.432,0 -0.576,0.132 -0.576,0.576 l 0,7.176 c 0,0.432 0.132,0.576 0.576,0.576 l 0.444,0 c 0.456,0 0.576,-0.156 0.576,-0.576"
         style="stroke:none"
         id="path3345" />
      <path
         d="m 957.63903,185.10949 c 0,-1.96799 -0.96,-3 -2.916,-3 -2.00399,0 -2.928,1.06801 -2.928,3 0,1.956 1.03201,2.832 2.916,2.832 1.884,0 2.928,-0.864 2.928,-2.832 m -1.632,-0.144 c 0,0.948 0,2.04 -1.284,2.04 -1.29599,0 -1.296,-1.08 -1.296,-2.04 0,-0.924 1e-5,-1.992 1.284,-1.992 1.296,0 1.296,1.056 1.296,1.992"
         style="stroke:none"
         id="path3347" />
      <path
         d="m 963.72041,187.23349 0,-3.216 c 0,-1.89599 -1.824,-1.908 -2.424,-1.908 -0.564,0 -1.164,0.048 -1.968,0.384 -0.252,0.108 -0.312,0.144 -0.312,0.276 0,0.084 0.072,0.78 0.084,0.876 0.012,0.072 0.072,0.132 0.156,0.132 0.06,0 0.096,-0.036 0.132,-0.072 0.516,-0.54 1.116,-0.804 1.86,-0.804 0.648,0 0.84,0.396 0.84,1.104 l 0,0.42 c -0.42,0 -3.564,0.024 -3.564,1.788 0,0.84 0.672,1.728 1.728,1.728 0.408,0 1.308,-0.12 1.872,-0.948 l 0,0.24 c 0,0.384 0.084,0.576 0.576,0.576 l 0.444,0 c 0.456,0 0.576,-0.156 0.576,-0.576 m -1.632,-1.272 c 0,1.116 -1.14,1.116 -1.176,1.116 -0.504,0 -0.828,-0.432 -0.828,-0.888 0,-1.17599 1.668,-1.26 2.004,-1.272 l 0,1.044"
         style="stroke:none"
         id="path3349" />
      <path
         d="m 970.3251,187.23349 0,-7.176 c 0,-0.384 -0.084,-0.576 -0.576,-0.576 l -0.444,0 c -0.456,0 -0.576,0.156 -0.576,0.576 l 0,2.724 c -0.54,-0.516 -1.14,-0.6 -1.512,-0.6 -2.436,0 -2.436,2.304 -2.436,2.892 0,0.552 0,2.868 2.376,2.868 0.504,0 1.02,-0.144 1.536,-0.696 0,0.444 0.168,0.564 0.576,0.564 l 0.48,0 c 0.456,0 0.576,-0.156 0.576,-0.576 m -1.632,-0.924 c 0,0.204 0,0.312 -0.348,0.552 -0.3,0.192 -0.576,0.216 -0.72,0.216 -1.212,0 -1.212,-1.104 -1.212,-2.004 0,-0.9 0,-2.028 1.344,-2.028 0.348,0 0.672,0.12 0.936,0.372 l 0,2.892"
         style="stroke:none"
         id="path3351" />
    </g>
    <path
       style="fill:none"
       clip-path="url(#clipPath2)"
       d="m 904.1123,164.23 111.185,0 c 2.216,0 4,1.784 4,4 l 0,29.115 c 0,2.216 -1.784,4 -4,4 l -111.185,0 c -2.216,0 -4,-1.784 -4,-4 l 0,-29.115 c 0,-2.216 1.784,-4 4,-4 z"
       id="rect100" />
  </g>
  <g
     style="font-weight:bold;stroke-linecap:butt;stroke-miterlimit:1.45000005;font-family:L M Sans10"
     id="g106"
     stroke-miterlimit="1.45"
     font-weight="bold"
     shape-rendering="geometricPrecision"
     text-rendering="optimizeQuality"
     transform="translate(-541,15)">
    <g
       clip-path="url(#clipPath2)"
       style="stroke:none"
       id="text108">
      <path
         d="m 791.02533,269.96322 0,-4.344 c 0,-0.384 -0.084,-0.576 -0.576,-0.576 l -0.444,0 c -0.432,0 -0.576,0.132 -0.576,0.576 l 0,4.344 c 0,0.43199 0.132,0.576 0.576,0.576 l 0.444,0 c 0.456,0 0.576,-0.15601 0.576,-0.576 m 0.084,-6.696 0,-0.228 c 0,-0.384 -0.084,-0.576 -0.576,-0.576 l -0.612,0 c -0.456,0 -0.576,0.156 -0.576,0.576 l 0,0.228 c 0,0.34799 0.06,0.576 0.576,0.576 l 0.612,0 c 0.504,0 0.576,-0.21601 0.576,-0.576"
         style="stroke:none"
         id="path3331" />
      <path
         d="m 797.76764,269.96322 0,-3.324 c 0,-1.236 -0.528,-1.728 -1.752,-1.728 -1.26,0 -1.8,0.912 -1.956,1.236 l -0.012,0 0,-0.6 c 0,-0.384 -0.084,-0.576 -0.576,-0.576 l -0.408,0 c -0.432,0 -0.576,0.132 -0.576,0.576 l 0,4.416 c 0,0.43199 0.132,0.576 0.576,0.576 l 0.48,0 c 0.456,0 0.576,-0.15601 0.576,-0.576 l 0,-2.652 c 0,-1.044 0.696,-1.536 1.32,-1.536 0.576,0 0.696,0.276 0.696,0.888 l 0,3.3 c 0,0.38399 0.084,0.576 0.576,0.576 l 0.48,0 c 0.456,0 0.576,-0.15601 0.576,-0.576"
         style="stroke:none"
         id="path3333" />
      <path
         d="m 809.30845,265.67922 c 0,-0.048 -0.06,-0.33601 -0.084,-0.456 -0.048,-0.288 -0.048,-0.312 -0.264,-0.312 -0.372,0 -0.972,0.144 -1.428,0.42 -0.564,-0.372 -1.188,-0.42 -1.704,-0.42 -0.504,0 -2.412,0 -2.412,1.98 0,0.47999 0.132,1.08 0.588,1.476 -0.324,0.44399 -0.324,0.912 -0.324,0.972 0,0.22799 0.072,0.624 0.324,0.948 -0.18,0.072 -0.804,0.288 -0.804,1.056 0,0.37199 0.18,0.996 0.936,1.344 0.684,0.31199 1.488,0.324 2.052,0.324 0.708,0 3,-10e-6 3,-1.704 0,-1.872 -1.692,-1.872 -3.312,-1.872 l -0.576,0 c -0.432,0 -0.6,-1e-5 -0.768,-0.144 -0.048,-0.048 -0.252,-0.22801 -0.252,-0.54 0,-0.084 0.012,-0.108 0.024,-0.18 0.564,0.31199 1.272,0.312 1.524,0.312 0.504,0 2.412,-10e-6 2.412,-1.98 0,-0.696 -0.264,-1.11601 -0.372,-1.248 0.204,0 0.624,0 1.116,0.132 0.048,0.024 0.132,0.048 0.168,0.048 0.096,0 0.156,-0.072 0.156,-0.156 m -2.604,1.212 c 0,0.65999 -0.036,1.128 -0.876,1.128 -0.84,0 -0.876,-0.45601 -0.876,-1.116 0,-0.66 0.036,-1.128 0.876,-1.128 0.84,0 0.876,0.456 0.876,1.116 m 1.248,4.452 c 0,0.80399 -1.368,0.804 -1.752,0.804 -0.48,0 -1.764,-1e-5 -1.764,-0.84 0,-0.564 0.372,-0.564 0.648,-0.564 l 1.392,0 c 0.972,0 1.476,0.168 1.476,0.6"
         style="stroke:none"
         id="path3335" />
      <path
         d="m 815.19783,269.96322 0,-3.216 c 0,-1.896 -1.824,-1.908 -2.424,-1.908 -0.564,0 -1.164,0.048 -1.968,0.384 -0.252,0.10799 -0.312,0.144 -0.312,0.276 0,0.084 0.072,0.78 0.084,0.876 0.012,0.072 0.072,0.132 0.156,0.132 0.06,0 0.096,-0.036 0.132,-0.072 0.516,-0.54 1.116,-0.804 1.86,-0.804 0.648,0 0.84,0.396 0.84,1.104 l 0,0.42 c -0.42,0 -3.564,0.024 -3.564,1.788 0,0.83999 0.672,1.728 1.728,1.728 0.408,0 1.308,-0.12001 1.872,-0.948 l 0,0.24 c 0,0.38399 0.084,0.576 0.576,0.576 l 0.444,0 c 0.456,0 0.576,-0.15601 0.576,-0.576 m -1.632,-1.272 c 0,1.11599 -1.14,1.116 -1.176,1.116 -0.504,0 -0.828,-0.43201 -0.828,-0.888 0,-1.176 1.668,-1.26 2.004,-1.272 l 0,1.044"
         style="stroke:none"
         id="path3337" />
      <path
         d="m 825.48651,269.96322 0,-3.324 c 0,-1.236 -0.528,-1.728 -1.752,-1.728 -0.85199,0 -1.512,0.396 -1.944,1.188 -0.192,-1.152 -1.212,-1.188 -1.716,-1.188 -0.228,0 -0.732,0 -1.272,0.396 -0.372,0.27599 -0.612,0.66 -0.696,0.84 l -0.012,0 0,-0.6 c 0,-0.384 -0.084,-0.576 -0.576,-0.576 l -0.408,0 c -0.432,0 -0.576,0.132 -0.576,0.576 l 0,4.416 c 0,0.43199 0.132,0.576 0.576,0.576 l 0.48,0 c 0.456,0 0.576,-0.15601 0.576,-0.576 l 0,-2.652 c 0,-1.08 0.732,-1.536 1.32,-1.536 0.576,0 0.708,0.252 0.708,0.888 l 0,3.3 c 0,0.43199 0.132,0.576 0.576,0.576 l 0.48,0 c 0.456,0 0.576,-0.15601 0.576,-0.576 l 0,-2.652 c 0,-1.08 0.732,-1.536 1.32,-1.536 0.576,0 0.708,0.252 0.708,0.888 l 0,3.3 c 0,0.43199 0.132,0.576 0.576,0.576 l 0.48,0 c 0.456,0 0.576,-0.15601 0.576,-0.576"
         style="stroke:none"
         id="path3339" />
      <path
         d="m 831.96876,267.41922 c 0,-1.548 -0.72,-2.58 -2.508,-2.58 -1.91999,0 -2.868,1.08 -2.868,2.904 0,1.96799 1.14001,2.928 3.024,2.928 0.456,0 1.14,-0.06 1.932,-0.456 0.264,-0.132 0.348,-0.16801 0.348,-0.312 0,-0.084 -0.036,-0.43201 -0.048,-0.528 -0.048,-0.372 -0.06,-0.384 -0.168,-0.384 -0.048,0 -0.072,0 -0.204,0.12 -0.708,0.61199 -1.428,0.696 -1.812,0.696 -1.35599,0 -1.5,-1.06801 -1.536,-1.836 l 3.264,0 c 0.276,0 0.576,-0.012 0.576,-0.552 m -1.332,-0.084 -2.496,0 c 0.036,-0.732 0.27601,-1.632 1.32,-1.632 0.96,0 1.14,0.696 1.176,1.632"
         style="stroke:none"
         id="path3341" />
    </g>
    <path
       style="fill:none"
       clip-path="url(#clipPath2)"
       d="m 754.92688,246.95959 111.185,0 c 2.216,0 4,1.784 4,4 l 0,29.11501 c 0,2.216 -1.784,4 -4,4 l -111.185,0 c -2.216,0 -4,-1.784 -4,-4 l 0,-29.11501 c 0,-2.216 1.784,-4 4,-4 z"
       id="rect110" />
  </g>
  <g
     style="font-weight:bold;stroke-linecap:butt;stroke-miterlimit:1.45000005;font-family:L M Sans10"
     id="g116"
     stroke-miterlimit="1.45"
     font-weight="bold"
     shape-rendering="geometricPrecision"
     text-rendering="optimizeQuality"
     transform="translate(-541,15)">
    <g
       clip-path="url(#clipPath2)"
       style="stroke:none"
       id="text118">
      <path
         d="m 794.37932,486.97141 c 0,-0.132 -0.048,-0.684 -0.072,-0.84 0,-0.036 -0.024,-0.156 -0.144,-0.156 -0.048,0 -0.072,0 -0.192,0.12 -0.204,0.18 -0.768,0.672 -1.752,0.672 -1.24799,0 -1.248,-1.212 -1.248,-1.98 0,-0.972 0.06,-1.98 1.284,-1.98 0.78,0 1.10401,0.192 1.536,0.552 0.144,0.132 0.168,0.132 0.216,0.132 0.12,0 0.144,-0.108 0.156,-0.156 0.024,-0.096 0.144,-0.768 0.144,-0.828 0,-0.108 -0.084,-0.156 -0.288,-0.252 -0.57599,-0.264 -0.936,-0.384 -1.776,-0.384 -1.78799,0 -2.904,0.84 -2.904,2.94 0,1.992 1.03201,2.892 2.844,2.892 0.324,0 1.04401,-0.012 1.848,-0.42 0.336,-0.18 0.348,-0.192 0.348,-0.312"
         style="stroke:none"
         id="path3313" />
      <path
         d="m 800.9707,484.87141 c 0,-1.968 -0.96,-3 -2.916,-3 -2.004,0 -2.928,1.068 -2.928,3 0,1.956 1.032,2.832 2.916,2.832 1.884,0 2.928,-0.864 2.928,-2.832 m -1.632,-0.144 c 0,0.948 0,2.04 -1.284,2.04 -1.296,0 -1.296,-1.08 -1.296,-2.04 0,-0.924 0,-1.992 1.284,-1.992 1.296,0 1.296,1.056 1.296,1.992"
         style="stroke:none"
         id="path3315" />
      <path
         d="m 807.36407,486.99541 0,-3.324 c 0,-1.236 -0.528,-1.728 -1.752,-1.728 -1.25999,0 -1.8,0.912 -1.956,1.236 l -0.012,0 0,-0.6 c 0,-0.384 -0.084,-0.576 -0.576,-0.576 l -0.408,0 c -0.43199,0 -0.576,0.132 -0.576,0.576 l 0,4.416 c 0,0.432 0.13201,0.576 0.576,0.576 l 0.48,0 c 0.456,0 0.576,-0.156 0.576,-0.576 l 0,-2.652 c 0,-1.044 0.69601,-1.536 1.32,-1.536 0.576,0 0.696,0.276 0.696,0.888 l 0,3.3 c 0,0.384 0.084,0.576 0.576,0.576 l 0.48,0 c 0.456,0 0.576,-0.156 0.576,-0.576"
         style="stroke:none"
         id="path3317" />
      <path
         d="m 812.56664,487.00741 c 0,-0.036 -0.024,-0.12 -0.096,-0.372 -0.06,-0.24 -0.084,-0.312 -0.192,-0.312 -0.06,0 -0.072,0.012 -0.144,0.084 -0.132,0.096 -0.456,0.36 -0.96,0.36 -0.288,0 -0.468,-0.204 -0.468,-0.996 l 0,-2.832 1.068,0 c 0.144,0 0.576,0 0.576,-0.432 0,-0.432 -0.432,-0.432 -0.576,-0.432 l -1.068,0 0,-0.996 c 0,-0.384 -0.084,-0.576 -0.576,-0.576 l -0.372,0 c -0.432,0 -0.576,0.132 -0.576,0.576 l 0,0.996 -0.276,0 c -0.132,0 -0.576,0 -0.576,0.432 0,0.432 0.432,0.432 0.576,0.432 l 0.24,0 0,3.036 c 0,1.212 0.432,1.728 1.26,1.728 0.108,0 0.636,0 1.26,-0.192 0.204,-0.06 0.9,-0.276 0.9,-0.504"
         style="stroke:none"
         id="path3319" />
      <path
         d="m 817.2142,482.83141 0,-0.564 c 0,-0.24 0,-0.324 -0.216,-0.324 -0.336,0 -1.212,0.12 -1.776,1.416 l -0.012,0 0,-0.78 c 0,-0.384 -0.084,-0.576 -0.576,-0.576 l -0.384,0 c -0.432,0 -0.576,0.132 -0.576,0.576 l 0,4.416 c 0,0.432 0.132,0.576 0.576,0.576 l 0.444,0 c 0.456,0 0.576,-0.156 0.576,-0.576 l 0,-2.184 c 0,-1.14 0.948,-1.608 1.704,-1.656 0.216,-0.012 0.24,-0.012 0.24,-0.324"
         style="stroke:none"
         id="path3321" />
      <path
         d="m 823.61132,484.87141 c 0,-1.968 -0.96,-3 -2.916,-3 -2.00399,0 -2.928,1.068 -2.928,3 0,1.956 1.03201,2.832 2.916,2.832 1.884,0 2.928,-0.864 2.928,-2.832 m -1.632,-0.144 c 0,0.948 0,2.04 -1.284,2.04 -1.29599,0 -1.296,-1.08 -1.296,-2.04 0,-0.924 10e-6,-1.992 1.284,-1.992 1.296,0 1.296,1.056 1.296,1.992"
         style="stroke:none"
         id="path3323" />
      <path
         d="m 826.3327,486.99541 0,-7.176 c 0,-0.384 -0.084,-0.576 -0.576,-0.576 l -0.444,0 c -0.432,0 -0.576,0.132 -0.576,0.576 l 0,7.176 c 0,0.432 0.132,0.576 0.576,0.576 l 0.444,0 c 0.456,0 0.576,-0.156 0.576,-0.576"
         style="stroke:none"
         id="path3325" />
      <path
         d="m 831.82701,485.87941 c 0,-0.672 -0.36,-1.092 -0.576,-1.284 -0.48,-0.432 -0.9,-0.504 -1.404,-0.6 -0.66,-0.12 -1.14,-0.216 -1.14,-0.684 0,-0.492 0.396,-0.588 0.864,-0.588 0.804,0 1.236,0.3 1.548,0.564 0.12,0.12 0.144,0.12 0.192,0.12 0.12,0 0.144,-0.108 0.156,-0.156 0.024,-0.096 0.144,-0.768 0.144,-0.828 0,-0.192 -0.636,-0.36 -0.768,-0.408 -0.48,-0.132 -0.864,-0.144 -1.176,-0.144 -0.54,0 -2.148,0 -2.148,1.716 0,0.588 0.264,0.948 0.588,1.236 0.42,0.384 0.888,0.468 1.572,0.6 0.348,0.06 0.96,0.168 0.96,0.696 0,0.564 -0.468,0.648 -0.936,0.648 -0.528,0 -1.2,-0.156 -1.764,-0.828 -0.06,-0.06 -0.096,-0.096 -0.168,-0.096 -0.12,0 -0.144,0.108 -0.156,0.18 -0.024,0.168 -0.168,0.852 -0.168,0.972 0,0.216 0.9,0.504 0.9,0.504 0.66,0.204 1.152,0.204 1.356,0.204 0.612,0 2.124,-0.048 2.124,-1.824"
         style="stroke:none"
         id="path3327" />
    </g>
    <path
       style="fill:none"
       clip-path="url(#clipPath2)"
       d="m 754.92688,463.99191 111.185,0 c 2.216,0 4,1.784 4,4 l 0,29.115 c 0,2.216 -1.784,4 -4,4 l -111.185,0 c -2.216,0 -4,-1.784 -4,-4 l 0,-29.115 c 0,-2.216 1.784,-4 4,-4 z"
       id="rect120" />
  </g>
  <g
     style="font-weight:bold;stroke-linecap:butt;stroke-miterlimit:1.45000005;font-family:L M Sans10"
     id="g126"
     stroke-miterlimit="1.45"
     font-weight="bold"
     shape-rendering="geometricPrecision"
     text-rendering="optimizeQuality"
     transform="translate(-541,15)">
    <g
       clip-path="url(#clipPath2)"
       style="stroke:none"
       id="text128">
      <path
         d="m 950.67457,486.99541 0,-3.216 c 0,-1.896 -1.824,-1.908 -2.424,-1.908 -0.564,0 -1.164,0.048 -1.968,0.384 -0.252,0.108 -0.312,0.144 -0.312,0.276 0,0.084 0.072,0.78 0.084,0.876 0.012,0.072 0.072,0.132 0.156,0.132 0.06,0 0.096,-0.036 0.132,-0.072 0.516,-0.54 1.116,-0.804 1.86,-0.804 0.648,0 0.84,0.396 0.84,1.104 l 0,0.42 c -0.42,0 -3.564,0.024 -3.564,1.788 0,0.84 0.672,1.728 1.728,1.728 0.408,0 1.308,-0.12 1.872,-0.948 l 0,0.24 c 0,0.384 0.084,0.576 0.576,0.576 l 0.444,0 c 0.456,0 0.576,-0.156 0.576,-0.576 m -1.632,-1.272 c 0,1.116 -1.14,1.116 -1.176,1.116 -0.504,0 -0.828,-0.432 -0.828,-0.888 0,-1.176 1.668,-1.26 2.004,-1.272 l 0,1.044"
         style="stroke:none"
         id="path3301" />
      <path
         d="m 957.29126,486.99541 0,-4.344 c 0,-0.384 -0.084,-0.576 -0.576,-0.576 l -0.48,0 c -0.456,0 -0.576,0.156 -0.576,0.576 l 0,2.844 c 0,0.792 -0.42,1.476 -1.272,1.476 -0.672,0 -0.744,-0.168 -0.744,-0.804 l 0,-3.516 c 0,-0.384 -0.084,-0.576 -0.576,-0.576 l -0.48,0 c -0.432,0 -0.576,0.132 -0.576,0.576 l 0,3.408 c 0,1.284 0.696,1.644 1.944,1.644 0.324,0 1.176,0 1.74,-1.02 l 0,0.312 c 0,0.384 0.084,0.576 0.576,0.576 l 0.444,0 c 0.456,0 0.576,-0.156 0.576,-0.576"
         style="stroke:none"
         id="path3303" />
      <path
         d="m 964.00582,486.99541 0,-7.176 c 0,-0.384 -0.084,-0.576 -0.576,-0.576 l -0.444,0 c -0.456,0 -0.576,0.156 -0.576,0.576 l 0,2.724 c -0.54,-0.516 -1.14,-0.6 -1.512,-0.6 -2.436,0 -2.436,2.304 -2.436,2.892 0,0.552 0,2.868 2.376,2.868 0.504,0 1.02,-0.144 1.536,-0.696 0,0.444 0.168,0.564 0.576,0.564 l 0.48,0 c 0.456,0 0.576,-0.156 0.576,-0.576 m -1.632,-0.924 c 0,0.204 0,0.312 -0.348,0.552 -0.3,0.192 -0.576,0.216 -0.72,0.216 -1.212,0 -1.212,-1.104 -1.212,-2.004 0,-0.9 0,-2.028 1.344,-2.028 0.348,0 0.672,0.12 0.936,0.372 l 0,2.892"
         style="stroke:none"
         id="path3305" />
      <path
         d="m 967.07238,486.99541 0,-4.344 c 0,-0.384 -0.084,-0.576 -0.576,-0.576 l -0.444,0 c -0.43199,0 -0.576,0.132 -0.576,0.576 l 0,4.344 c 0,0.432 0.13201,0.576 0.576,0.576 l 0.444,0 c 0.456,0 0.576,-0.156 0.576,-0.576 m 0.084,-6.696 0,-0.228 c 0,-0.384 -0.084,-0.576 -0.576,-0.576 l -0.612,0 c -0.45599,0 -0.576,0.156 -0.576,0.576 l 0,0.228 c 0,0.348 0.06,0.576 0.576,0.576 l 0.612,0 c 0.504,0 0.576,-0.216 0.576,-0.576"
         style="stroke:none"
         id="path3307" />
      <path
         d="m 974.0307,484.87141 c 0,-1.968 -0.96,-3 -2.916,-3 -2.004,0 -2.928,1.068 -2.928,3 0,1.956 1.032,2.832 2.916,2.832 1.884,0 2.928,-0.864 2.928,-2.832 m -1.632,-0.144 c 0,0.948 0,2.04 -1.284,2.04 -1.296,0 -1.296,-1.08 -1.296,-2.04 0,-0.924 0,-1.992 1.284,-1.992 1.296,0 1.296,1.056 1.296,1.992"
         style="stroke:none"
         id="path3309" />
    </g>
    <path
       style="fill:none"
       clip-path="url(#clipPath2)"
       d="m 904.1123,463.99191 111.185,0 c 2.216,0 4,1.784 4,4 l 0,29.115 c 0,2.216 -1.784,4 -4,4 l -111.185,0 c -2.216,0 -4,-1.784 -4,-4 l 0,-29.115 c 0,-2.216 1.784,-4 4,-4 z"
       id="rect130" />
  </g>
  <g
     style="font-weight:bold;stroke-linecap:butt;stroke-miterlimit:1.45000005;font-family:L M Sans10"
     id="g136"
     stroke-miterlimit="1.45"
     font-weight="bold"
     shape-rendering="geometricPrecision"
     text-rendering="optimizeQuality"
     transform="translate(-541,15)">
    <g
       clip-path="url(#clipPath2)"
       style="stroke:none"
       id="text138">
      <path
         d="m 652.74198,482.41141 c 0,-0.336 -0.3,-0.336 -0.48,-0.336 l -0.252,0 c -0.504,0 -0.636,0.18 -0.744,0.516 l -1.188,3.624 -1.188,-3.624 c -0.084,-0.252 -0.168,-0.516 -0.744,-0.516 l -0.288,0 c -0.18,0 -0.48,0 -0.48,0.336 0,0.036 0,0.06 0.06,0.228 l 1.428,4.428 c 0.168,0.504 0.54,0.504 0.756,0.504 l 0.876,0 c 0.216,0 0.588,0 0.756,-0.504 l 1.428,-4.428 c 0.06,-0.168 0.06,-0.192 0.06,-0.228"
         style="stroke:none"
         id="path3289" />
      <path
         d="m 655.39398,486.99541 0,-4.344 c 0,-0.384 -0.084,-0.576 -0.576,-0.576 l -0.444,0 c -0.432,0 -0.576,0.132 -0.576,0.576 l 0,4.344 c 0,0.432 0.132,0.576 0.576,0.576 l 0.444,0 c 0.456,0 0.576,-0.156 0.576,-0.576 m 0.084,-6.696 0,-0.228 c 0,-0.384 -0.084,-0.576 -0.576,-0.576 l -0.612,0 c -0.456,0 -0.576,0.156 -0.576,0.576 l 0,0.228 c 0,0.348 0.06,0.576 0.576,0.576 l 0.612,0 c 0.504,0 0.576,-0.216 0.576,-0.576"
         style="stroke:none"
         id="path3291" />
      <path
         d="m 662.12429,486.99541 0,-7.176 c 0,-0.384 -0.084,-0.576 -0.576,-0.576 l -0.444,0 c -0.456,0 -0.576,0.156 -0.576,0.576 l 0,2.724 c -0.54,-0.516 -1.14,-0.6 -1.512,-0.6 -2.436,0 -2.436,2.304 -2.436,2.892 0,0.552 0,2.868 2.376,2.868 0.504,0 1.02,-0.144 1.536,-0.696 0,0.444 0.168,0.564 0.576,0.564 l 0.48,0 c 0.456,0 0.576,-0.156 0.576,-0.576 m -1.632,-0.924 c 0,0.204 0,0.312 -0.348,0.552 -0.3,0.192 -0.576,0.216 -0.72,0.216 -1.212,0 -1.212,-1.104 -1.212,-2.004 0,-0.9 0,-2.028 1.344,-2.028 0.348,0 0.672,0.12 0.936,0.372 l 0,2.892"
         style="stroke:none"
         id="path3293" />
      <path
         d="m 668.61085,484.45141 c 0,-1.548 -0.72,-2.58 -2.508,-2.58 -1.91999,0 -2.868,1.08 -2.868,2.904 0,1.968 1.14001,2.928 3.024,2.928 0.456,0 1.14,-0.06 1.932,-0.456 0.264,-0.132 0.348,-0.168 0.348,-0.312 0,-0.084 -0.036,-0.432 -0.048,-0.528 -0.048,-0.372 -0.06,-0.384 -0.168,-0.384 -0.048,0 -0.072,0 -0.204,0.12 -0.708,0.612 -1.428,0.696 -1.812,0.696 -1.35599,0 -1.5,-1.068 -1.536,-1.836 l 3.264,0 c 0.276,0 0.576,-0.012 0.576,-0.552 m -1.332,-0.084 -2.496,0 c 0.036,-0.732 0.27601,-1.632 1.32,-1.632 0.96,0 1.14,0.696 1.176,1.632"
         style="stroke:none"
         id="path3295" />
      <path
         d="m 675.21948,484.87141 c 0,-1.968 -0.96,-3 -2.916,-3 -2.004,0 -2.928,1.068 -2.928,3 0,1.956 1.032,2.832 2.916,2.832 1.884,0 2.928,-0.864 2.928,-2.832 m -1.632,-0.144 c 0,0.948 0,2.04 -1.284,2.04 -1.296,0 -1.296,-1.08 -1.296,-2.04 0,-0.924 0,-1.992 1.284,-1.992 1.296,0 1.296,1.056 1.296,1.992"
         style="stroke:none"
         id="path3297" />
    </g>
    <path
       style="fill:none"
       clip-path="url(#clipPath2)"
       d="m 605.74158,463.99191 111.18499,0 c 2.216,0 4,1.784 4,4 l 0,29.115 c 0,2.216 -1.784,4 -4,4 l -111.18499,0 c -2.216,0 -4,-1.784 -4,-4 l 0,-29.115 c 0,-2.216 1.784,-4 4,-4 z"
       id="rect140" />
  </g>
  <g
     style="font-weight:bold;stroke-linecap:butt;stroke-miterlimit:1.45000005;font-family:L M Sans10"
     id="g146"
     stroke-miterlimit="1.45"
     font-weight="bold"
     shape-rendering="geometricPrecision"
     text-rendering="optimizeQuality"
     transform="translate(-541,15)">
    <g
       clip-path="url(#clipPath2)"
       style="stroke:none"
       id="text148">
      <path
         d="m 1076.5798,486.97141 c 0,-0.132 -0.048,-0.684 -0.072,-0.84 0,-0.036 -0.024,-0.156 -0.144,-0.156 -0.048,0 -0.072,0 -0.192,0.12 -0.204,0.18 -0.768,0.672 -1.752,0.672 -1.248,0 -1.248,-1.212 -1.248,-1.98 0,-0.972 0.06,-1.98 1.284,-1.98 0.78,0 1.104,0.192 1.536,0.552 0.144,0.132 0.168,0.132 0.216,0.132 0.12,0 0.144,-0.108 0.156,-0.156 0.024,-0.096 0.144,-0.768 0.144,-0.828 0,-0.108 -0.084,-0.156 -0.288,-0.252 -0.576,-0.264 -0.936,-0.384 -1.776,-0.384 -1.788,0 -2.904,0.84 -2.904,2.94 0,1.992 1.032,2.892 2.844,2.892 0.324,0 1.044,-0.012 1.848,-0.42 0.336,-0.18 0.348,-0.192 0.348,-0.312"
         style="stroke:none"
         id="path3263" />
      <path
         d="m 1082.9552,486.99541 0,-4.344 c 0,-0.384 -0.084,-0.576 -0.576,-0.576 l -0.48,0 c -0.456,0 -0.576,0.156 -0.576,0.576 l 0,2.844 c 0,0.792 -0.42,1.476 -1.272,1.476 -0.672,0 -0.744,-0.168 -0.744,-0.804 l 0,-3.516 c 0,-0.384 -0.084,-0.576 -0.576,-0.576 l -0.48,0 c -0.432,0 -0.576,0.132 -0.576,0.576 l 0,3.408 c 0,1.284 0.696,1.644 1.944,1.644 0.324,0 1.176,0 1.74,-1.02 l 0,0.312 c 0,0.384 0.084,0.576 0.576,0.576 l 0.444,0 c 0.456,0 0.576,-0.156 0.576,-0.576"
         style="stroke:none"
         id="path3265" />
      <path
         d="m 1088.4338,485.87941 c 0,-0.672 -0.36,-1.092 -0.576,-1.284 -0.48,-0.432 -0.9,-0.504 -1.404,-0.6 -0.66,-0.12 -1.14,-0.216 -1.14,-0.684 0,-0.492 0.396,-0.588 0.864,-0.588 0.804,0 1.236,0.3 1.548,0.564 0.12,0.12 0.144,0.12 0.192,0.12 0.12,0 0.144,-0.108 0.156,-0.156 0.024,-0.096 0.144,-0.768 0.144,-0.828 0,-0.192 -0.636,-0.36 -0.768,-0.408 -0.48,-0.132 -0.864,-0.144 -1.176,-0.144 -0.54,0 -2.148,0 -2.148,1.716 0,0.588 0.264,0.948 0.588,1.236 0.42,0.384 0.888,0.468 1.572,0.6 0.348,0.06 0.96,0.168 0.96,0.696 0,0.564 -0.468,0.648 -0.936,0.648 -0.528,0 -1.2,-0.156 -1.764,-0.828 -0.06,-0.06 -0.096,-0.096 -0.168,-0.096 -0.12,0 -0.144,0.108 -0.156,0.18 -0.024,0.168 -0.168,0.852 -0.168,0.972 0,0.216 0.9,0.504 0.9,0.504 0.66,0.204 1.152,0.204 1.356,0.204 0.612,0 2.124,-0.048 2.124,-1.824"
         style="stroke:none"
         id="path3267" />
      <path
         d="m 1093.2203,487.00741 c 0,-0.036 -0.024,-0.12 -0.096,-0.372 -0.06,-0.24 -0.084,-0.312 -0.192,-0.312 -0.06,0 -0.072,0.012 -0.144,0.084 -0.132,0.096 -0.456,0.36 -0.96,0.36 -0.288,0 -0.468,-0.204 -0.468,-0.996 l 0,-2.832 1.068,0 c 0.144,0 0.576,0 0.576,-0.432 0,-0.432 -0.432,-0.432 -0.576,-0.432 l -1.068,0 0,-0.996 c 0,-0.384 -0.084,-0.576 -0.576,-0.576 l -0.372,0 c -0.432,0 -0.576,0.132 -0.576,0.576 l 0,0.996 -0.276,0 c -0.132,0 -0.576,0 -0.576,0.432 0,0.432 0.432,0.432 0.576,0.432 l 0.24,0 0,3.036 c 0,1.212 0.432,1.728 1.26,1.728 0.108,0 0.636,0 1.26,-0.192 0.204,-0.06 0.9,-0.276 0.9,-0.504"
         style="stroke:none"
         id="path3269" />
      <path
         d="m 1099.8118,484.87141 c 0,-1.968 -0.96,-3 -2.916,-3 -2.004,0 -2.928,1.068 -2.928,3 0,1.956 1.032,2.832 2.916,2.832 1.884,0 2.928,-0.864 2.928,-2.832 m -1.632,-0.144 c 0,0.948 0,2.04 -1.284,2.04 -1.296,0 -1.296,-1.08 -1.296,-2.04 0,-0.924 0,-1.992 1.284,-1.992 1.296,0 1.296,1.056 1.296,1.992"
         style="stroke:none"
         id="path3271" />
      <path
         d="m 1109.8772,486.99541 0,-3.324 c 0,-1.236 -0.528,-1.728 -1.752,-1.728 -0.852,0 -1.512,0.396 -1.944,1.188 -0.192,-1.152 -1.212,-1.188 -1.716,-1.188 -0.228,0 -0.732,0 -1.272,0.396 -0.372,0.276 -0.612,0.66 -0.696,0.84 l -0.012,0 0,-0.6 c 0,-0.384 -0.084,-0.576 -0.576,-0.576 l -0.408,0 c -0.432,0 -0.576,0.132 -0.576,0.576 l 0,4.416 c 0,0.432 0.132,0.576 0.576,0.576 l 0.48,0 c 0.456,0 0.576,-0.156 0.576,-0.576 l 0,-2.652 c 0,-1.08 0.732,-1.536 1.32,-1.536 0.576,0 0.708,0.252 0.708,0.888 l 0,3.3 c 0,0.432 0.132,0.576 0.576,0.576 l 0.48,0 c 0.456,0 0.576,-0.156 0.576,-0.576 l 0,-2.652 c 0,-1.08 0.732,-1.536 1.32,-1.536 0.576,0 0.708,0.252 0.708,0.888 l 0,3.3 c 0,0.432 0.132,0.576 0.576,0.576 l 0.48,0 c 0.456,0 0.576,-0.156 0.576,-0.576"
         style="stroke:none"
         id="path3273" />
      <path
         d="m 1120.5017,486.97141 c 0,-0.132 -0.048,-0.684 -0.072,-0.84 0,-0.036 -0.024,-0.156 -0.144,-0.156 -0.048,0 -0.072,0 -0.192,0.12 -0.204,0.18 -0.768,0.672 -1.752,0.672 -1.248,0 -1.248,-1.212 -1.248,-1.98 0,-0.972 0.06,-1.98 1.284,-1.98 0.78,0 1.104,0.192 1.536,0.552 0.144,0.132 0.168,0.132 0.216,0.132 0.12,0 0.144,-0.108 0.156,-0.156 0.024,-0.096 0.144,-0.768 0.144,-0.828 0,-0.108 -0.084,-0.156 -0.288,-0.252 -0.576,-0.264 -0.936,-0.384 -1.776,-0.384 -1.788,0 -2.904,0.84 -2.904,2.94 0,1.992 1.032,2.892 2.844,2.892 0.324,0 1.044,-0.012 1.848,-0.42 0.336,-0.18 0.348,-0.192 0.348,-0.312"
         style="stroke:none"
         id="path3275" />
      <path
         d="m 1127.0931,484.87141 c 0,-1.968 -0.96,-3 -2.916,-3 -2.004,0 -2.928,1.068 -2.928,3 0,1.956 1.032,2.832 2.916,2.832 1.884,0 2.928,-0.864 2.928,-2.832 m -1.632,-0.144 c 0,0.948 0,2.04 -1.284,2.04 -1.296,0 -1.296,-1.08 -1.296,-2.04 0,-0.924 0,-1.992 1.284,-1.992 1.296,0 1.296,1.056 1.296,1.992"
         style="stroke:none"
         id="path3277" />
      <path
         d="m 1129.8145,486.99541 0,-7.176 c 0,-0.384 -0.084,-0.576 -0.576,-0.576 l -0.444,0 c -0.432,0 -0.576,0.132 -0.576,0.576 l 0,7.176 c 0,0.432 0.132,0.576 0.576,0.576 l 0.444,0 c 0.4559,0 0.576,-0.156 0.576,-0.576"
         style="stroke:none"
         id="path3279" />
      <path
         d="m 1136.7728,484.87141 c 0,-1.968 -0.96,-3 -2.916,-3 -2.004,0 -2.928,1.068 -2.928,3 0,1.956 1.032,2.832 2.916,2.832 1.884,0 2.928,-0.864 2.928,-2.832 m -1.632,-0.144 c 0,0.948 0,2.04 -1.284,2.04 -1.296,0 -1.296,-1.08 -1.296,-2.04 0,-0.924 0,-1.992 1.284,-1.992 1.296,0 1.296,1.056 1.296,1.992"
         style="stroke:none"
         id="path3281" />
      <path
         d="m 1141.4381,482.83141 0,-0.564 c 0,-0.24 0,-0.324 -0.216,-0.324 -0.336,0 -1.212,0.12 -1.776,1.416 l -0.012,0 0,-0.78 c 0,-0.384 -0.084,-0.576 -0.576,-0.576 l -0.384,0 c -0.432,0 -0.576,0.132 -0.576,0.576 l 0,4.416 c 0,0.432 0.132,0.576 0.576,0.576 l 0.444,0 c 0.456,0 0.576,-0.156 0.576,-0.576 l 0,-2.184 c 0,-1.14 0.948,-1.608 1.704,-1.656 0.216,-0.012 0.24,-0.012 0.24,-0.324"
         style="stroke:none"
         id="path3283" />
      <path
         d="m 1146.3713,485.87941 c 0,-0.672 -0.36,-1.092 -0.576,-1.284 -0.48,-0.432 -0.9,-0.504 -1.404,-0.6 -0.66,-0.12 -1.14,-0.216 -1.14,-0.684 0,-0.492 0.396,-0.588 0.864,-0.588 0.804,0 1.236,0.3 1.548,0.564 0.12,0.12 0.144,0.12 0.192,0.12 0.12,0 0.144,-0.108 0.156,-0.156 0.024,-0.096 0.144,-0.768 0.144,-0.828 0,-0.192 -0.636,-0.36 -0.768,-0.408 -0.48,-0.132 -0.864,-0.144 -1.176,-0.144 -0.54,0 -2.148,0 -2.148,1.716 0,0.588 0.264,0.948 0.588,1.236 0.42,0.384 0.888,0.468 1.572,0.6 0.348,0.06 0.96,0.168 0.96,0.696 0,0.564 -0.468,0.648 -0.936,0.648 -0.528,0 -1.2,-0.156 -1.764,-0.828 -0.06,-0.06 -0.096,-0.096 -0.168,-0.096 -0.12,0 -0.144,0.108 -0.156,0.18 -0.024,0.168 -0.168,0.852 -0.168,0.972 0,0.216 0.9,0.504 0.9,0.504 0.66,0.204 1.152,0.204 1.356,0.204 0.612,0 2.124,-0.048 2.124,-1.824"
         style="stroke:none"
         id="path3285" />
    </g>
    <path
       style="fill:none"
       clip-path="url(#clipPath2)"
       d="m 1053.2976,463.99191 111.185,0 c 2.216,0 4,1.784 4,4 l 0,29.115 c 0,2.216 -1.784,4 -4,4 l -111.185,0 c -2.216,0 -4,-1.784 -4,-4 l 0,-29.115 c 0,-2.216 1.784,-4 4,-4 z"
       id="rect150" />
    <path
       style="fill:none"
       inkscape:connector-curvature="0"
       id="path152"
       clip-path="url(#clipPath2)"
       d="m 810.5195,37.115 0,44.9561" />
    <path
       style="fill:none"
       inkscape:connector-curvature="0"
       id="path154"
       clip-path="url(#clipPath2)"
       d="m 850.2478,37.115 0,15 184.0498,0 0,29.9707" />
    <path
       style="fill:none"
       inkscape:connector-curvature="0"
       id="path156"
       clip-path="url(#clipPath2)"
       d="m 870.1119,18.5575 238.7782,0 0,228.3742" />
    <path
       style="fill:none"
       inkscape:connector-curvature="0"
       id="path158"
       clip-path="url(#clipPath2)"
       d="m 750.8796,18.5575 -193.9344,0 0,299.7619 402.7596,0 0,63.5265" />
    <path
       style="fill:none"
       inkscape:connector-curvature="0"
       id="path160"
       clip-path="url(#clipPath2)"
       d="m 810.5195,119.23 0,44.9561" />
    <path
       style="fill:none"
       inkscape:connector-curvature="0"
       id="path162"
       clip-path="url(#clipPath2)"
       d="m 750.8832,100.6725 -89.5491,0 0,63.5265" />
    <path
       style="fill:none"
       inkscape:connector-curvature="0"
       id="path164"
       clip-path="url(#clipPath2)"
       d="m 870.1119,100.6725 89.5929,0 0,63.5265" />
    <path
       style="fill:none"
       inkscape:connector-curvature="0"
       id="path166"
       clip-path="url(#clipPath2)"
       d="m 810.5195,201.345 0,37.5701" />
    <path
       style="stroke:none"
       inkscape:connector-curvature="0"
       id="path168"
       clip-path="url(#clipPath2)"
       d="m 810.5195,246.9151 5,-12 -5,3 -5,-3 z" />
    <path
       style="fill:none"
       inkscape:connector-curvature="0"
       id="path170"
       clip-path="url(#clipPath2)"
       d="m 661.3341,201.345 0,15.6146 149.1854,0 0,21.9707" />
    <path
       style="stroke:none"
       inkscape:connector-curvature="0"
       id="path172"
       clip-path="url(#clipPath2)"
       d="m 810.5195,246.9303 5,-12 -5,3 -5,-3 z" />
    <path
       style="fill:none"
       inkscape:connector-curvature="0"
       id="path174"
       clip-path="url(#clipPath2)"
       d="m 959.7048,201.345 0,15.6146 -149.1853,0 0,21.9707" />
    <path
       style="stroke:none"
       inkscape:connector-curvature="0"
       id="path176"
       clip-path="url(#clipPath2)"
       d="m 810.5195,246.9303 5,-12 -5,3 -5,-3 z" />
    <path
       style="fill:none"
       inkscape:connector-curvature="0"
       id="path178"
       clip-path="url(#clipPath2)"
       d="m 1034.2976,119.23 0,97.7296 -223.7781,0 0,21.9707" />
    <path
       style="stroke:none"
       inkscape:connector-curvature="0"
       id="path180"
       clip-path="url(#clipPath2)"
       d="m 810.5195,246.9303 5,-12 -5,3 -5,-3 z" />
    <path
       style="fill:none"
       inkscape:connector-curvature="0"
       id="path182"
       clip-path="url(#clipPath2)"
       d="m 919.9764,418.9919 0,15 -109.4569,0 0,29.9707" />
    <path
       style="fill:none"
       inkscape:connector-curvature="0"
       id="path184"
       clip-path="url(#clipPath2)"
       d="m 959.7048,418.9919 0,44.9561" />
    <path
       style="fill:none"
       inkscape:connector-curvature="0"
       id="path186"
       clip-path="url(#clipPath2)"
       d="m 900.0831,400.4344 -238.749,0 0,63.5265" />
    <path
       style="fill:none"
       inkscape:connector-curvature="0"
       id="path188"
       clip-path="url(#clipPath2)"
       d="m 1019.2972,400.4344 89.5929,0 0,63.5265" />
  </g>
</svg>
